<!--
  - /***
  -  ** █ ---------------------------------------------------------------------------------------------------------------------
  -  ** █ ░FRAMEWORK                                  2023-12-01 23:19:27
  -  ** █ ░█▀▀█ █▀▀█ █▀▀▄ █▀▀ ░█─░█ ─▀─ █▀▀▀ █▀▀▀ █▀▀ [App\Modules\Account\Views\Processes\Creator\deny.php]
  -  ** █ ░█─── █──█ █──█ █▀▀ ░█▀▀█ ▀█▀ █─▀█ █─▀█ ▀▀█ Copyright 2023 - CloudEngine S.A.S., Inc. <admin@cgine.com>
  -  ** █ ░█▄▄█ ▀▀▀▀ ▀▀▀─ ▀▀▀ ░█─░█ ▀▀▀ ▀▀▀▀ ▀▀▀▀ ▀▀▀ Para obtener información completa sobre derechos de autor y licencia,
  -  ** █                                             consulte la LICENCIA archivo que se distribuyó con este código fuente.
  -  ** █ ---------------------------------------------------------------------------------------------------------------------
  -  ** █ EL SOFTWARE SE PROPORCIONA -TAL CUAL-, SIN GARANTÍA DE NINGÚN TIPO, EXPRESA O
  -  ** █ IMPLÍCITA, INCLUYENDO PERO NO LIMITADO A LAS GARANTÍAS DE COMERCIABILIDAD,
  -  ** █ APTITUD PARA UN PROPÓSITO PARTICULAR Y NO INFRACCIÓN. EN NINGÚN CASO SERÁ
  -  ** █ LOS AUTORES O TITULARES DE LOS DERECHOS DE AUTOR SERÁN RESPONSABLES DE CUALQUIER
  -  ** █ RECLAMO, DAÑOS U OTROS RESPONSABILIDAD, YA SEA EN UNA ACCIÓN DE CONTRATO,
  -  ** █ AGRAVIO O DE OTRO MODO, QUE SURJA DESDE, FUERA O EN RELACIÓN CON EL SOFTWARE
  -  ** █ O EL USO U OTROS NEGOCIACIONES EN EL SOFTWARE.
  -  ** █ ---------------------------------------------------------------------------------------------------------------------
  -  ** █ @Author Jose Alexis Correa Valencia <jalexiscv@gmail.com>
  -  ** █ @link https://www.codehiggs.com
  -  ** █ @Version 1.5.0 @since PHP 7, PHP 8
  -  ** █ ---------------------------------------------------------------------------------------------------------------------
  -  ** █ Datos recibidos desde el controlador - @ModuleController
  -  ** █ ---------------------------------------------------------------------------------------------------------------------
  -  ** █ @authentication, @request, @dates, @parent, @component, @view, @oid, @views, @prefix
  -  ** █ ---------------------------------------------------------------------------------------------------------------------
  -  ***/
  -->

<svg xmlns:xlink="http://www.w3.org/1999/xlink" fill="none" height="450" viewBox="0 0 1710 450" width="1710"
     xmlns="http://www.w3.org/2000/svg">
    <clipPath id="a">
        <path d="m0 0h1710v450h-1710z"/>
    </clipPath>
    <g clip-path="url(#a)">
        <g fill="#eceef2" opacity=".5">
            <path d="m295 302h-20c-1.657 0-3 1.343-3 3v20c0 1.657 1.343 3 3 3h20c1.657 0 3-1.343 3-3v-20c0-1.657-1.343-3-3-3z"/>
            <path d="m295 212h-20c-1.657 0-3 1.343-3 3v20c0 1.657 1.343 3 3 3h20c1.657 0 3-1.343 3-3v-20c0-1.657-1.343-3-3-3z"/>
            <path d="m295 242h-20c-1.657 0-3 1.343-3 3v20c0 1.657 1.343 3 3 3h20c1.657 0 3-1.343 3-3v-20c0-1.657-1.343-3-3-3z"
                  opacity=".5"/>
            <path d="m295 122h-20c-1.657 0-3 1.343-3 3v20c0 1.657 1.343 3 3 3h20c1.657 0 3-1.343 3-3v-20c0-1.657-1.343-3-3-3z"/>
            <path d="m295 92h-20c-1.657 0-3 1.3431-3 3v20c0 1.657 1.343 3 3 3h20c1.657 0 3-1.343 3-3v-20c0-1.6569-1.343-3-3-3z"/>
            <path d="m295 152h-20c-1.657 0-3 1.343-3 3v20c0 1.657 1.343 3 3 3h20c1.657 0 3-1.343 3-3v-20c0-1.657-1.343-3-3-3z"/>
            <path d="m265 62h-20c-1.657 0-3 1.3431-3 3v20c0 1.6569 1.343 3 3 3h20c1.657 0 3-1.3431 3-3v-20c0-1.6569-1.343-3-3-3z"
                  opacity=".6"/>
            <path d="m265 212h-20c-1.657 0-3 1.343-3 3v20c0 1.657 1.343 3 3 3h20c1.657 0 3-1.343 3-3v-20c0-1.657-1.343-3-3-3z"
                  opacity=".5"/>
            <path d="m265 272h-20c-1.657 0-3 1.343-3 3v20c0 1.657 1.343 3 3 3h20c1.657 0 3-1.343 3-3v-20c0-1.657-1.343-3-3-3z"
                  opacity=".7"/>
            <path d="m265 182h-20c-1.657 0-3 1.343-3 3v20c0 1.657 1.343 3 3 3h20c1.657 0 3-1.343 3-3v-20c0-1.657-1.343-3-3-3z"
                  opacity=".5"/>
            <path d="m265 242h-20c-1.657 0-3 1.343-3 3v20c0 1.657 1.343 3 3 3h20c1.657 0 3-1.343 3-3v-20c0-1.657-1.343-3-3-3z"/>
            <path d="m265 122h-20c-1.657 0-3 1.343-3 3v20c0 1.657 1.343 3 3 3h20c1.657 0 3-1.343 3-3v-20c0-1.657-1.343-3-3-3z"/>
            <path d="m1375 92h-20c-1.66 0-3 1.3431-3 3v20c0 1.657 1.34 3 3 3h20c1.66 0 3-1.343 3-3v-20c0-1.6569-1.34-3-3-3z"/>
            <path d="m1375 122h-20c-1.66 0-3 1.343-3 3v20c0 1.657 1.34 3 3 3h20c1.66 0 3-1.343 3-3v-20c0-1.657-1.34-3-3-3z"/>
            <path d="m1375 152h-20c-1.66 0-3 1.343-3 3v20c0 1.657 1.34 3 3 3h20c1.66 0 3-1.343 3-3v-20c0-1.657-1.34-3-3-3z"/>
            <path d="m1375 182h-20c-1.66 0-3 1.343-3 3v20c0 1.657 1.34 3 3 3h20c1.66 0 3-1.343 3-3v-20c0-1.657-1.34-3-3-3z"/>
            <path d="m1375 358h-20c-1.66 0-3-1.343-3-3v-20c0-1.657 1.34-3 3-3h20c1.66 0 3 1.343 3 3v20c0 1.657-1.34 3-3 3z"
                  opacity=".2"/>
            <path d="m1375 298h-20c-1.66 0-3-1.343-3-3v-20c0-1.657 1.34-3 3-3h20c1.66 0 3 1.343 3 3v20c0 1.657-1.34 3-3 3z"
                  opacity=".5"/>
            <path d="m1375 268h-20c-1.66 0-3-1.343-3-3v-20c0-1.657 1.34-3 3-3h20c1.66 0 3 1.343 3 3v20c0 1.657-1.34 3-3 3z"
                  opacity=".5"/>
            <path d="m1375 328h-20c-1.66 0-3-1.343-3-3v-20c0-1.657 1.34-3 3-3h20c1.66 0 3 1.343 3 3v20c0 1.657-1.34 3-3 3z"/>
            <path d="m1375 388h-20c-1.66 0-3-1.343-3-3v-20c0-1.657 1.34-3 3-3h20c1.66 0 3 1.343 3 3v20c0 1.657-1.34 3-3 3z"
                  opacity=".4"/>
            <path d="m1375 418h-20c-1.66 0-3-1.343-3-3v-20c0-1.657 1.34-3 3-3h20c1.66 0 3 1.343 3 3v20c0 1.657-1.34 3-3 3z"
                  opacity=".3"/>
            <path d="m1435 242h-20c-1.66 0-3 1.343-3 3v20c0 1.657 1.34 3 3 3h20c1.66 0 3-1.343 3-3v-20c0-1.657-1.34-3-3-3z"/>
            <path d="m1435 302h-20c-1.66 0-3 1.343-3 3v20c0 1.657 1.34 3 3 3h20c1.66 0 3-1.343 3-3v-20c0-1.657-1.34-3-3-3z"/>
            <path d="m1435 212h-20c-1.66 0-3 1.343-3 3v20c0 1.657 1.34 3 3 3h20c1.66 0 3-1.343 3-3v-20c0-1.657-1.34-3-3-3z"/>
            <path d="m1435 122h-20c-1.66 0-3 1.343-3 3v20c0 1.657 1.34 3 3 3h20c1.66 0 3-1.343 3-3v-20c0-1.657-1.34-3-3-3z"/>
            <path d="m1435 62h-20c-1.66 0-3 1.3431-3 3v20c0 1.6569 1.34 3 3 3h20c1.66 0 3-1.3431 3-3v-20c0-1.6569-1.34-3-3-3z"
                  opacity=".8"/>
            <path d="m1435 92h-20c-1.66 0-3 1.3431-3 3v20c0 1.657 1.34 3 3 3h20c1.66 0 3-1.343 3-3v-20c0-1.6569-1.34-3-3-3z"/>
            <path d="m1405 32h-20c-1.66 0-3 1.3431-3 3v20c0 1.6569 1.34 3 3 3h20c1.66 0 3-1.3431 3-3v-20c0-1.6569-1.34-3-3-3z"/>
            <path d="m1405 122h-20c-1.66 0-3 1.343-3 3v20c0 1.657 1.34 3 3 3h20c1.66 0 3-1.343 3-3v-20c0-1.657-1.34-3-3-3z"
                  opacity=".3"/>
            <path d="m1405 152h-20c-1.66 0-3 1.343-3 3v20c0 1.657 1.34 3 3 3h20c1.66 0 3-1.343 3-3v-20c0-1.657-1.34-3-3-3z"/>
            <path d="m1405 182h-20c-1.66 0-3 1.343-3 3v20c0 1.657 1.34 3 3 3h20c1.66 0 3-1.343 3-3v-20c0-1.657-1.34-3-3-3z"/>
            <path d="m1405 62h-20c-1.66 0-3 1.3431-3 3v20c0 1.6569 1.34 3 3 3h20c1.66 0 3-1.3431 3-3v-20c0-1.6569-1.34-3-3-3z"
                  opacity=".3"/>
            <path d="m1405 388h-20c-1.66 0-3-1.343-3-3v-20c0-1.657 1.34-3 3-3h20c1.66 0 3 1.343 3 3v20c0 1.657-1.34 3-3 3z"
                  opacity=".2"/>
            <path d="m1405 328h-20c-1.66 0-3-1.343-3-3v-20c0-1.657 1.34-3 3-3h20c1.66 0 3 1.343 3 3v20c0 1.657-1.34 3-3 3z"
                  opacity=".5"/>
            <path d="m1405 298h-20c-1.66 0-3-1.343-3-3v-20c0-1.657 1.34-3 3-3h20c1.66 0 3 1.343 3 3v20c0 1.657-1.34 3-3 3z"
                  opacity=".5"/>
            <path d="m1405 358h-20c-1.66 0-3-1.343-3-3v-20c0-1.657 1.34-3 3-3h20c1.66 0 3 1.343 3 3v20c0 1.657-1.34 3-3 3z"/>
            <path d="m1405 418h-20c-1.66 0-3-1.343-3-3v-20c0-1.657 1.34-3 3-3h20c1.66 0 3 1.343 3 3v20c0 1.657-1.34 3-3 3z"
                  opacity=".4"/>
            <path d="m1405 448h-20c-1.66 0-3-1.343-3-3v-20c0-1.657 1.34-3 3-3h20c1.66 0 3 1.343 3 3v20c0 1.657-1.34 3-3 3z"
                  opacity=".3"/>
            <path d="m1495 212h-20c-1.66 0-3 1.343-3 3v20c0 1.657 1.34 3 3 3h20c1.66 0 3-1.343 3-3v-20c0-1.657-1.34-3-3-3z"
                  opacity=".3"/>
            <path d="m1495 362h-20c-1.66 0-3 1.343-3 3v20c0 1.657 1.34 3 3 3h20c1.66 0 3-1.343 3-3v-20c0-1.657-1.34-3-3-3z"
                  opacity=".5"/>
            <path d="m1495 332h-20c-1.66 0-3 1.343-3 3v20c0 1.657 1.34 3 3 3h20c1.66 0 3-1.343 3-3v-20c0-1.657-1.34-3-3-3z"
                  opacity=".5"/>
            <path d="m1495 392h-20c-1.66 0-3 1.343-3 3v20c0 1.657 1.34 3 3 3h20c1.66 0 3-1.343 3-3v-20c0-1.657-1.34-3-3-3z"/>
            <path d="m1495 302h-20c-1.66 0-3 1.343-3 3v20c0 1.657 1.34 3 3 3h20c1.66 0 3-1.343 3-3v-20c0-1.657-1.34-3-3-3z"
                  opacity=".7"/>
            <path d="m1495 272h-20c-1.66 0-3 1.343-3 3v20c0 1.657 1.34 3 3 3h20c1.66 0 3-1.343 3-3v-20c0-1.657-1.34-3-3-3z"
                  opacity=".2"/>
            <path d="m1495 62h-20c-1.66 0-3 1.3431-3 3v20c0 1.6569 1.34 3 3 3h20c1.66 0 3-1.3431 3-3v-20c0-1.6569-1.34-3-3-3z"/>
            <path d="m1495 2h-20c-1.66 0-3 1.34315-3 3v20c0 1.6569 1.34 3 3 3h20c1.66 0 3-1.3431 3-3v-20c0-1.65685-1.34-3-3-3z"/>
            <path d="m1495 32h-20c-1.66 0-3 1.3431-3 3v20c0 1.6569 1.34 3 3 3h20c1.66 0 3-1.3431 3-3v-20c0-1.6569-1.34-3-3-3z"
                  opacity=".5"/>
            <path d="m1495 152h-20c-1.66 0-3 1.343-3 3v20c0 1.657 1.34 3 3 3h20c1.66 0 3-1.343 3-3v-20c0-1.657-1.34-3-3-3z"/>
            <path d="m565 212h-20c-1.657 0-3 1.343-3 3v20c0 1.657 1.343 3 3 3h20c1.657 0 3-1.343 3-3v-20c0-1.657-1.343-3-3-3z"
                  opacity=".3"/>
            <path d="m565 332h-20c-1.657 0-3 1.343-3 3v20c0 1.657 1.343 3 3 3h20c1.657 0 3-1.343 3-3v-20c0-1.657-1.343-3-3-3z"
                  opacity=".5"/>
            <path d="m565 302h-20c-1.657 0-3 1.343-3 3v20c0 1.657 1.343 3 3 3h20c1.657 0 3-1.343 3-3v-20c0-1.657-1.343-3-3-3z"
                  opacity=".5"/>
            <path d="m565 362h-20c-1.657 0-3 1.343-3 3v20c0 1.657 1.343 3 3 3h20c1.657 0 3-1.343 3-3v-20c0-1.657-1.343-3-3-3z"/>
            <path d="m565 272h-20c-1.657 0-3 1.343-3 3v20c0 1.657 1.343 3 3 3h20c1.657 0 3-1.343 3-3v-20c0-1.657-1.343-3-3-3z"
                  opacity=".7"/>
            <path d="m565 242h-20c-1.657 0-3 1.343-3 3v20c0 1.657 1.343 3 3 3h20c1.657 0 3-1.343 3-3v-20c0-1.657-1.343-3-3-3z"
                  opacity=".2"/>
            <path d="m565 62h-20c-1.657 0-3 1.3431-3 3v20c0 1.6569 1.343 3 3 3h20c1.657 0 3-1.3431 3-3v-20c0-1.6569-1.343-3-3-3z"/>
            <path d="m565 2h-20c-1.657 0-3 1.34315-3 3v20c0 1.6569 1.343 3 3 3h20c1.657 0 3-1.3431 3-3v-20c0-1.65685-1.343-3-3-3z"/>
            <path d="m565 32h-20c-1.657 0-3 1.3431-3 3v20c0 1.6569 1.343 3 3 3h20c1.657 0 3-1.3431 3-3v-20c0-1.6569-1.343-3-3-3z"
                  opacity=".5"/>
            <path d="m565 152h-20c-1.657 0-3 1.343-3 3v20c0 1.657 1.343 3 3 3h20c1.657 0 3-1.343 3-3v-20c0-1.657-1.343-3-3-3z"/>
            <path d="m935 212h20c1.657 0 3 1.343 3 3v20c0 1.657-1.343 3-3 3h-20c-1.657 0-3-1.343-3-3v-20c0-1.657 1.343-3 3-3z"
                  opacity=".3"/>
            <path d="m935 332h20c1.657 0 3 1.343 3 3v20c0 1.657-1.343 3-3 3h-20c-1.657 0-3-1.343-3-3v-20c0-1.657 1.343-3 3-3z"
                  opacity=".5"/>
            <path d="m935 302h20c1.657 0 3 1.343 3 3v20c0 1.657-1.343 3-3 3h-20c-1.657 0-3-1.343-3-3v-20c0-1.657 1.343-3 3-3z"
                  opacity=".5"/>
            <path d="m935 362h20c1.657 0 3 1.343 3 3v20c0 1.657-1.343 3-3 3h-20c-1.657 0-3-1.343-3-3v-20c0-1.657 1.343-3 3-3z"/>
            <path d="m935 272h20c1.657 0 3 1.343 3 3v20c0 1.657-1.343 3-3 3h-20c-1.657 0-3-1.343-3-3v-20c0-1.657 1.343-3 3-3z"
                  opacity=".7"/>
            <path d="m935 242h20c1.657 0 3 1.343 3 3v20c0 1.657-1.343 3-3 3h-20c-1.657 0-3-1.343-3-3v-20c0-1.657 1.343-3 3-3z"
                  opacity=".2"/>
            <path d="m935 62h20c1.657 0 3 1.3431 3 3v20c0 1.6569-1.343 3-3 3h-20c-1.657 0-3-1.3431-3-3v-20c0-1.6569 1.343-3 3-3z"/>
            <path d="m935 2h20c1.657 0 3 1.34315 3 3v20c0 1.6569-1.343 3-3 3h-20c-1.657 0-3-1.3431-3-3v-20c0-1.65685 1.343-3 3-3z"/>
            <path d="m935 32h20c1.657 0 3 1.3431 3 3v20c0 1.6569-1.343 3-3 3h-20c-1.657 0-3-1.3431-3-3v-20c0-1.6569 1.343-3 3-3z"
                  opacity=".5"/>
            <path d="m935 152h20c1.657 0 3 1.343 3 3v20c0 1.657-1.343 3-3 3h-20c-1.657 0-3-1.343-3-3v-20c0-1.657 1.343-3 3-3z"/>
            <path d="m1175 212h20c1.66 0 3 1.343 3 3v20c0 1.657-1.34 3-3 3h-20c-1.66 0-3-1.343-3-3v-20c0-1.657 1.34-3 3-3z"
                  opacity=".3"/>
            <path d="m1175 332h20c1.66 0 3 1.343 3 3v20c0 1.657-1.34 3-3 3h-20c-1.66 0-3-1.343-3-3v-20c0-1.657 1.34-3 3-3z"
                  opacity=".5"/>
            <path d="m1175 302h20c1.66 0 3 1.343 3 3v20c0 1.657-1.34 3-3 3h-20c-1.66 0-3-1.343-3-3v-20c0-1.657 1.34-3 3-3z"
                  opacity=".5"/>
            <path d="m1175 362h20c1.66 0 3 1.343 3 3v20c0 1.657-1.34 3-3 3h-20c-1.66 0-3-1.343-3-3v-20c0-1.657 1.34-3 3-3z"/>
            <path d="m1175 272h20c1.66 0 3 1.343 3 3v20c0 1.657-1.34 3-3 3h-20c-1.66 0-3-1.343-3-3v-20c0-1.657 1.34-3 3-3z"
                  opacity=".7"/>
            <path d="m1175 242h20c1.66 0 3 1.343 3 3v20c0 1.657-1.34 3-3 3h-20c-1.66 0-3-1.343-3-3v-20c0-1.657 1.34-3 3-3z"
                  opacity=".2"/>
            <path d="m1175 62h20c1.66 0 3 1.3431 3 3v20c0 1.6569-1.34 3-3 3h-20c-1.66 0-3-1.3431-3-3v-20c0-1.6569 1.34-3 3-3z"/>
            <path d="m1175 2h20c1.66 0 3 1.34315 3 3v20c0 1.6569-1.34 3-3 3h-20c-1.66 0-3-1.3431-3-3v-20c0-1.65685 1.34-3 3-3z"/>
            <path d="m1175 32h20c1.66 0 3 1.3431 3 3v20c0 1.6569-1.34 3-3 3h-20c-1.66 0-3-1.3431-3-3v-20c0-1.6569 1.34-3 3-3z"
                  opacity=".5"/>
            <path d="m1175 152h20c1.66 0 3 1.343 3 3v20c0 1.657-1.34 3-3 3h-20c-1.66 0-3-1.343-3-3v-20c0-1.657 1.34-3 3-3z"/>
            <path d="m1525 422h-20c-1.66 0-3 1.343-3 3v20c0 1.657 1.34 3 3 3h20c1.66 0 3-1.343 3-3v-20c0-1.657-1.34-3-3-3z"
                  opacity=".5"/>
            <path d="m1525 122h-20c-1.66 0-3 1.343-3 3v20c0 1.657 1.34 3 3 3h20c1.66 0 3-1.343 3-3v-20c0-1.657-1.34-3-3-3z"/>
            <path d="m1525 62h-20c-1.66 0-3 1.3431-3 3v20c0 1.6569 1.34 3 3 3h20c1.66 0 3-1.3431 3-3v-20c0-1.6569-1.34-3-3-3z"/>
            <path d="m1525 32h-20c-1.66 0-3 1.3431-3 3v20c0 1.6569 1.34 3 3 3h20c1.66 0 3-1.3431 3-3v-20c0-1.6569-1.34-3-3-3z"
                  opacity=".5"/>
            <path d="m1525 92h-20c-1.66 0-3 1.3431-3 3v20c0 1.657 1.34 3 3 3h20c1.66 0 3-1.343 3-3v-20c0-1.6569-1.34-3-3-3z"
                  opacity=".5"/>
            <path d="m1525 152h-20c-1.66 0-3 1.343-3 3v20c0 1.657 1.34 3 3 3h20c1.66 0 3-1.343 3-3v-20c0-1.657-1.34-3-3-3z"/>
            <path d="m1525 242h-20c-1.66 0-3 1.343-3 3v20c0 1.657 1.34 3 3 3h20c1.66 0 3-1.343 3-3v-20c0-1.657-1.34-3-3-3z"/>
            <path d="m1525 272h-20c-1.66 0-3 1.343-3 3v20c0 1.657 1.34 3 3 3h20c1.66 0 3-1.343 3-3v-20c0-1.657-1.34-3-3-3z"/>
            <path d="m1525 302h-20c-1.66 0-3 1.343-3 3v20c0 1.657 1.34 3 3 3h20c1.66 0 3-1.343 3-3v-20c0-1.657-1.34-3-3-3z"
                  opacity=".5"/>
            <path d="m1525 332h-20c-1.66 0-3 1.343-3 3v20c0 1.657 1.34 3 3 3h20c1.66 0 3-1.343 3-3v-20c0-1.657-1.34-3-3-3z"/>
            <path d="m1525 362h-20c-1.66 0-3 1.343-3 3v20c0 1.657 1.34 3 3 3h20c1.66 0 3-1.343 3-3v-20c0-1.657-1.34-3-3-3z"
                  opacity=".3"/>
            <path d="m1465 362h-20c-1.66 0-3 1.343-3 3v20c0 1.657 1.34 3 3 3h20c1.66 0 3-1.343 3-3v-20c0-1.657-1.34-3-3-3z"/>
            <path d="m1465 392h-20c-1.66 0-3 1.343-3 3v20c0 1.657 1.34 3 3 3h20c1.66 0 3-1.343 3-3v-20c0-1.657-1.34-3-3-3z"
                  opacity=".3"/>
            <path d="m1465 332h-20c-1.66 0-3 1.343-3 3v20c0 1.657 1.34 3 3 3h20c1.66 0 3-1.343 3-3v-20c0-1.657-1.34-3-3-3z"/>
            <path d="m1465 182h-20c-1.66 0-3 1.343-3 3v20c0 1.657 1.34 3 3 3h20c1.66 0 3-1.343 3-3v-20c0-1.657-1.34-3-3-3z"/>
            <path d="m1465 212h-20c-1.66 0-3 1.343-3 3v20c0 1.657 1.34 3 3 3h20c1.66 0 3-1.343 3-3v-20c0-1.657-1.34-3-3-3z"/>
            <path d="m1465 242h-20c-1.66 0-3 1.343-3 3v20c0 1.657 1.34 3 3 3h20c1.66 0 3-1.343 3-3v-20c0-1.657-1.34-3-3-3z"
                  opacity=".5"/>
            <path d="m1465 32h-20c-1.66 0-3 1.3431-3 3v20c0 1.6569 1.34 3 3 3h20c1.66 0 3-1.3431 3-3v-20c0-1.6569-1.34-3-3-3z"
                  opacity=".5"/>
            <path d="m1465 62h-20c-1.66 0-3 1.3431-3 3v20c0 1.6569 1.34 3 3 3h20c1.66 0 3-1.3431 3-3v-20c0-1.6569-1.34-3-3-3z"
                  opacity=".4"/>
            <path d="m1465 92h-20c-1.66 0-3 1.3431-3 3v20c0 1.657 1.34 3 3 3h20c1.66 0 3-1.343 3-3v-20c0-1.6569-1.34-3-3-3z"/>
            <path d="m325 302h-20c-1.657 0-3 1.343-3 3v20c0 1.657 1.343 3 3 3h20c1.657 0 3-1.343 3-3v-20c0-1.657-1.343-3-3-3z"/>
            <path d="m325 182h-20c-1.657 0-3 1.343-3 3v20c0 1.657 1.343 3 3 3h20c1.657 0 3-1.343 3-3v-20c0-1.657-1.343-3-3-3z"/>
            <path d="m325 62h-20c-1.657 0-3 1.3431-3 3v20c0 1.6569 1.343 3 3 3h20c1.657 0 3-1.3431 3-3v-20c0-1.6569-1.343-3-3-3z"
                  opacity=".2"/>
            <path d="m325 122h-20c-1.657 0-3 1.343-3 3v20c0 1.657 1.343 3 3 3h20c1.657 0 3-1.343 3-3v-20c0-1.657-1.343-3-3-3z"
                  opacity=".5"/>
            <path d="m325 152h-20c-1.657 0-3 1.343-3 3v20c0 1.657 1.343 3 3 3h20c1.657 0 3-1.343 3-3v-20c0-1.657-1.343-3-3-3z"/>
            <path d="m325 92h-20c-1.657 0-3 1.3431-3 3v20c0 1.657 1.343 3 3 3h20c1.657 0 3-1.343 3-3v-20c0-1.6569-1.343-3-3-3z"/>
            <path d="m235 242h-20c-1.657 0-3 1.343-3 3v20c0 1.657 1.343 3 3 3h20c1.657 0 3-1.343 3-3v-20c0-1.657-1.343-3-3-3z"
                  opacity=".5"/>
            <path d="m235 362h-20c-1.657 0-3 1.343-3 3v20c0 1.657 1.343 3 3 3h20c1.657 0 3-1.343 3-3v-20c0-1.657-1.343-3-3-3z"
                  opacity=".3"/>
            <path d="m235 392h-20c-1.657 0-3 1.343-3 3v20c0 1.657 1.343 3 3 3h20c1.657 0 3-1.343 3-3v-20c0-1.657-1.343-3-3-3z"/>
            <path d="m235 302h-20c-1.657 0-3 1.343-3 3v20c0 1.657 1.343 3 3 3h20c1.657 0 3-1.343 3-3v-20c0-1.657-1.343-3-3-3z"
                  opacity=".5"/>
            <path d="m235 332h-20c-1.657 0-3 1.343-3 3v20c0 1.657 1.343 3 3 3h20c1.657 0 3-1.343 3-3v-20c0-1.657-1.343-3-3-3z"/>
            <path d="m235 62h-20c-1.657 0-3 1.3431-3 3v20c0 1.6569 1.343 3 3 3h20c1.657 0 3-1.3431 3-3v-20c0-1.6569-1.343-3-3-3z"
                  opacity=".2"/>
            <path d="m235 122h-20c-1.657 0-3 1.343-3 3v20c0 1.657 1.343 3 3 3h20c1.657 0 3-1.343 3-3v-20c0-1.657-1.343-3-3-3z"
                  opacity=".5"/>
            <path d="m235 152h-20c-1.657 0-3 1.343-3 3v20c0 1.657 1.343 3 3 3h20c1.657 0 3-1.343 3-3v-20c0-1.657-1.343-3-3-3z"
                  opacity=".5"/>
            <path d="m235 92h-20c-1.657 0-3 1.3431-3 3v20c0 1.657 1.343 3 3 3h20c1.657 0 3-1.343 3-3v-20c0-1.6569-1.343-3-3-3z"/>
            <path d="m235 32h-20c-1.657 0-3 1.3431-3 3v20c0 1.6569 1.343 3 3 3h20c1.657 0 3-1.3431 3-3v-20c0-1.6569-1.343-3-3-3z"/>
            <path d="m235 2h-20c-1.657 0-3 1.34315-3 3v20c0 1.6569 1.343 3 3 3h20c1.657 0 3-1.3431 3-3v-20c0-1.65685-1.343-3-3-3z"
                  opacity=".3"/>
            <path d="m385 242h-20c-1.657 0-3 1.343-3 3v20c0 1.657 1.343 3 3 3h20c1.657 0 3-1.343 3-3v-20c0-1.657-1.343-3-3-3z"
                  opacity=".5"/>
            <path d="m385 362h-20c-1.657 0-3 1.343-3 3v20c0 1.657 1.343 3 3 3h20c1.657 0 3-1.343 3-3v-20c0-1.657-1.343-3-3-3z"
                  opacity=".3"/>
            <path d="m385 392h-20c-1.657 0-3 1.343-3 3v20c0 1.657 1.343 3 3 3h20c1.657 0 3-1.343 3-3v-20c0-1.657-1.343-3-3-3z"/>
            <path d="m385 302h-20c-1.657 0-3 1.343-3 3v20c0 1.657 1.343 3 3 3h20c1.657 0 3-1.343 3-3v-20c0-1.657-1.343-3-3-3z"
                  opacity=".5"/>
            <path d="m385 332h-20c-1.657 0-3 1.343-3 3v20c0 1.657 1.343 3 3 3h20c1.657 0 3-1.343 3-3v-20c0-1.657-1.343-3-3-3z"/>
            <path d="m385 62h-20c-1.657 0-3 1.3431-3 3v20c0 1.6569 1.343 3 3 3h20c1.657 0 3-1.3431 3-3v-20c0-1.6569-1.343-3-3-3z"
                  opacity=".2"/>
            <path d="m385 122h-20c-1.657 0-3 1.343-3 3v20c0 1.657 1.343 3 3 3h20c1.657 0 3-1.343 3-3v-20c0-1.657-1.343-3-3-3z"
                  opacity=".5"/>
            <path d="m385 152h-20c-1.657 0-3 1.343-3 3v20c0 1.657 1.343 3 3 3h20c1.657 0 3-1.343 3-3v-20c0-1.657-1.343-3-3-3z"
                  opacity=".5"/>
            <path d="m385 92h-20c-1.657 0-3 1.3431-3 3v20c0 1.657 1.343 3 3 3h20c1.657 0 3-1.343 3-3v-20c0-1.6569-1.343-3-3-3z"/>
            <path d="m385 32h-20c-1.657 0-3 1.3431-3 3v20c0 1.6569 1.343 3 3 3h20c1.657 0 3-1.3431 3-3v-20c0-1.6569-1.343-3-3-3z"/>
            <path d="m385 2h-20c-1.657 0-3 1.34315-3 3v20c0 1.6569 1.343 3 3 3h20c1.657 0 3-1.3431 3-3v-20c0-1.65685-1.343-3-3-3z"
                  opacity=".3"/>
            <path d="m1115 242h20c1.66 0 3 1.343 3 3v20c0 1.657-1.34 3-3 3h-20c-1.66 0-3-1.343-3-3v-20c0-1.657 1.34-3 3-3z"
                  opacity=".5"/>
            <path d="m1115 362h20c1.66 0 3 1.343 3 3v20c0 1.657-1.34 3-3 3h-20c-1.66 0-3-1.343-3-3v-20c0-1.657 1.34-3 3-3z"
                  opacity=".3"/>
            <path d="m1115 392h20c1.66 0 3 1.343 3 3v20c0 1.657-1.34 3-3 3h-20c-1.66 0-3-1.343-3-3v-20c0-1.657 1.34-3 3-3z"/>
            <path d="m1115 302h20c1.66 0 3 1.343 3 3v20c0 1.657-1.34 3-3 3h-20c-1.66 0-3-1.343-3-3v-20c0-1.657 1.34-3 3-3z"
                  opacity=".5"/>
            <path d="m1115 332h20c1.66 0 3 1.343 3 3v20c0 1.657-1.34 3-3 3h-20c-1.66 0-3-1.343-3-3v-20c0-1.657 1.34-3 3-3z"/>
            <path d="m1115 62h20c1.66 0 3 1.3431 3 3v20c0 1.6569-1.34 3-3 3h-20c-1.66 0-3-1.3431-3-3v-20c0-1.6569 1.34-3 3-3z"
                  opacity=".2"/>
            <path d="m1115 122h20c1.66 0 3 1.343 3 3v20c0 1.657-1.34 3-3 3h-20c-1.66 0-3-1.343-3-3v-20c0-1.657 1.34-3 3-3z"
                  opacity=".5"/>
            <path d="m1115 152h20c1.66 0 3 1.343 3 3v20c0 1.657-1.34 3-3 3h-20c-1.66 0-3-1.343-3-3v-20c0-1.657 1.34-3 3-3z"
                  opacity=".5"/>
            <path d="m1115 92h20c1.66 0 3 1.3431 3 3v20c0 1.657-1.34 3-3 3h-20c-1.66 0-3-1.343-3-3v-20c0-1.6569 1.34-3 3-3z"/>
            <path d="m1115 32h20c1.66 0 3 1.3431 3 3v20c0 1.6569-1.34 3-3 3h-20c-1.66 0-3-1.3431-3-3v-20c0-1.6569 1.34-3 3-3z"/>
            <path d="m1115 2h20c1.66 0 3 1.34315 3 3v20c0 1.6569-1.34 3-3 3h-20c-1.66 0-3-1.3431-3-3v-20c0-1.65685 1.34-3 3-3z"
                  opacity=".3"/>
            <path d="m695 242h20c1.657 0 3 1.343 3 3v20c0 1.657-1.343 3-3 3h-20c-1.657 0-3-1.343-3-3v-20c0-1.657 1.343-3 3-3z"
                  opacity=".5"/>
            <path d="m695 362h20c1.657 0 3 1.343 3 3v20c0 1.657-1.343 3-3 3h-20c-1.657 0-3-1.343-3-3v-20c0-1.657 1.343-3 3-3z"
                  opacity=".3"/>
            <path d="m695 392h20c1.657 0 3 1.343 3 3v20c0 1.657-1.343 3-3 3h-20c-1.657 0-3-1.343-3-3v-20c0-1.657 1.343-3 3-3z"
                  opacity=".6"/>
            <path d="m695 302h20c1.657 0 3 1.343 3 3v20c0 1.657-1.343 3-3 3h-20c-1.657 0-3-1.343-3-3v-20c0-1.657 1.343-3 3-3z"
                  opacity=".5"/>
            <path d="m695 332h20c1.657 0 3 1.343 3 3v20c0 1.657-1.343 3-3 3h-20c-1.657 0-3-1.343-3-3v-20c0-1.657 1.343-3 3-3z"/>
            <path d="m695 62h20c1.657 0 3 1.3431 3 3v20c0 1.6569-1.343 3-3 3h-20c-1.657 0-3-1.3431-3-3v-20c0-1.6569 1.343-3 3-3z"
                  opacity=".2"/>
            <path d="m695 122h20c1.657 0 3 1.343 3 3v20c0 1.657-1.343 3-3 3h-20c-1.657 0-3-1.343-3-3v-20c0-1.657 1.343-3 3-3z"
                  opacity=".5"/>
            <path d="m695 152h20c1.657 0 3 1.343 3 3v20c0 1.657-1.343 3-3 3h-20c-1.657 0-3-1.343-3-3v-20c0-1.657 1.343-3 3-3z"
                  opacity=".5"/>
            <path d="m695 92h20c1.657 0 3 1.3431 3 3v20c0 1.657-1.343 3-3 3h-20c-1.657 0-3-1.343-3-3v-20c0-1.6569 1.343-3 3-3z"/>
            <path d="m695 32h20c1.657 0 3 1.3431 3 3v20c0 1.6569-1.343 3-3 3h-20c-1.657 0-3-1.3431-3-3v-20c0-1.6569 1.343-3 3-3z"/>
            <path d="m695 2h20c1.657 0 3 1.34315 3 3v20c0 1.6569-1.343 3-3 3h-20c-1.657 0-3-1.3431-3-3v-20c0-1.65685 1.343-3 3-3z"
                  opacity=".3"/>
            <path d="m805 242h-20c-1.657 0-3 1.343-3 3v20c0 1.657 1.343 3 3 3h20c1.657 0 3-1.343 3-3v-20c0-1.657-1.343-3-3-3z"
                  opacity=".5"/>
            <path d="m805 362h-20c-1.657 0-3 1.343-3 3v20c0 1.657 1.343 3 3 3h20c1.657 0 3-1.343 3-3v-20c0-1.657-1.343-3-3-3z"
                  opacity=".3"/>
            <path d="m805 392h-20c-1.657 0-3 1.343-3 3v20c0 1.657 1.343 3 3 3h20c1.657 0 3-1.343 3-3v-20c0-1.657-1.343-3-3-3z"/>
            <path d="m805 302h-20c-1.657 0-3 1.343-3 3v20c0 1.657 1.343 3 3 3h20c1.657 0 3-1.343 3-3v-20c0-1.657-1.343-3-3-3z"
                  opacity=".5"/>
            <path d="m805 332h-20c-1.657 0-3 1.343-3 3v20c0 1.657 1.343 3 3 3h20c1.657 0 3-1.343 3-3v-20c0-1.657-1.343-3-3-3z"/>
            <path d="m805 62h-20c-1.657 0-3 1.3431-3 3v20c0 1.6569 1.343 3 3 3h20c1.657 0 3-1.3431 3-3v-20c0-1.6569-1.343-3-3-3z"
                  opacity=".2"/>
            <path d="m805 122h-20c-1.657 0-3 1.343-3 3v20c0 1.657 1.343 3 3 3h20c1.657 0 3-1.343 3-3v-20c0-1.657-1.343-3-3-3z"
                  opacity=".5"/>
            <path d="m805 92h-20c-1.657 0-3 1.3431-3 3v20c0 1.657 1.343 3 3 3h20c1.657 0 3-1.343 3-3v-20c0-1.6569-1.343-3-3-3z"/>
            <path d="m805 32h-20c-1.657 0-3 1.3431-3 3v20c0 1.6569 1.343 3 3 3h20c1.657 0 3-1.3431 3-3v-20c0-1.6569-1.343-3-3-3z"/>
            <path d="m805 2h-20c-1.657 0-3 1.34315-3 3v20c0 1.6569 1.343 3 3 3h20c1.657 0 3-1.3431 3-3v-20c0-1.65685-1.343-3-3-3z"
                  opacity=".3"/>
            <path d="m475 242h-20c-1.657 0-3 1.343-3 3v20c0 1.657 1.343 3 3 3h20c1.657 0 3-1.343 3-3v-20c0-1.657-1.343-3-3-3z"
                  opacity=".5"/>
            <path d="m475 362h-20c-1.657 0-3 1.343-3 3v20c0 1.657 1.343 3 3 3h20c1.657 0 3-1.343 3-3v-20c0-1.657-1.343-3-3-3z"
                  opacity=".3"/>
            <path d="m475 392h-20c-1.657 0-3 1.343-3 3v20c0 1.657 1.343 3 3 3h20c1.657 0 3-1.343 3-3v-20c0-1.657-1.343-3-3-3z"/>
            <path d="m475 302h-20c-1.657 0-3 1.343-3 3v20c0 1.657 1.343 3 3 3h20c1.657 0 3-1.343 3-3v-20c0-1.657-1.343-3-3-3z"
                  opacity=".5"/>
            <path d="m475 332h-20c-1.657 0-3 1.343-3 3v20c0 1.657 1.343 3 3 3h20c1.657 0 3-1.343 3-3v-20c0-1.657-1.343-3-3-3z"
                  opacity=".8"/>
            <path d="m475 62h-20c-1.657 0-3 1.3431-3 3v20c0 1.6569 1.343 3 3 3h20c1.657 0 3-1.3431 3-3v-20c0-1.6569-1.343-3-3-3z"
                  opacity=".2"/>
            <path d="m475 122h-20c-1.657 0-3 1.343-3 3v20c0 1.657 1.343 3 3 3h20c1.657 0 3-1.343 3-3v-20c0-1.657-1.343-3-3-3z"
                  opacity=".5"/>
            <path d="m475 92h-20c-1.657 0-3 1.3431-3 3v20c0 1.657 1.343 3 3 3h20c1.657 0 3-1.343 3-3v-20c0-1.6569-1.343-3-3-3z"/>
            <path d="m475 32h-20c-1.657 0-3 1.3431-3 3v20c0 1.6569 1.343 3 3 3h20c1.657 0 3-1.3431 3-3v-20c0-1.6569-1.343-3-3-3z"/>
            <path d="m475 2h-20c-1.657 0-3 1.34315-3 3v20c0 1.6569 1.343 3 3 3h20c1.657 0 3-1.3431 3-3v-20c0-1.65685-1.343-3-3-3z"
                  opacity=".3"/>
            <path d="m1025 242h20c1.66 0 3 1.343 3 3v20c0 1.657-1.34 3-3 3h-20c-1.66 0-3-1.343-3-3v-20c0-1.657 1.34-3 3-3z"
                  opacity=".5"/>
            <path d="m1025 362h20c1.66 0 3 1.343 3 3v20c0 1.657-1.34 3-3 3h-20c-1.66 0-3-1.343-3-3v-20c0-1.657 1.34-3 3-3z"
                  opacity=".3"/>
            <path d="m1025 392h20c1.66 0 3 1.343 3 3v20c0 1.657-1.34 3-3 3h-20c-1.66 0-3-1.343-3-3v-20c0-1.657 1.34-3 3-3z"/>
            <path d="m1025 302h20c1.66 0 3 1.343 3 3v20c0 1.657-1.34 3-3 3h-20c-1.66 0-3-1.343-3-3v-20c0-1.657 1.34-3 3-3z"
                  opacity=".5"/>
            <path d="m1025 332h20c1.66 0 3 1.343 3 3v20c0 1.657-1.34 3-3 3h-20c-1.66 0-3-1.343-3-3v-20c0-1.657 1.34-3 3-3z"
                  opacity=".8"/>
            <path d="m1025 62h20c1.66 0 3 1.3431 3 3v20c0 1.6569-1.34 3-3 3h-20c-1.66 0-3-1.3431-3-3v-20c0-1.6569 1.34-3 3-3z"
                  opacity=".2"/>
            <path d="m1025 122h20c1.66 0 3 1.343 3 3v20c0 1.657-1.34 3-3 3h-20c-1.66 0-3-1.343-3-3v-20c0-1.657 1.34-3 3-3z"
                  opacity=".5"/>
            <path d="m1025 152h20c1.66 0 3 1.343 3 3v20c0 1.657-1.34 3-3 3h-20c-1.66 0-3-1.343-3-3v-20c0-1.657 1.34-3 3-3z"
                  opacity=".5"/>
            <path d="m1025 92h20c1.66 0 3 1.3431 3 3v20c0 1.657-1.34 3-3 3h-20c-1.66 0-3-1.343-3-3v-20c0-1.6569 1.34-3 3-3z"/>
            <path d="m1025 32h20c1.66 0 3 1.3431 3 3v20c0 1.6569-1.34 3-3 3h-20c-1.66 0-3-1.3431-3-3v-20c0-1.6569 1.34-3 3-3z"/>
            <path d="m1025 2h20c1.66 0 3 1.34315 3 3v20c0 1.6569-1.34 3-3 3h-20c-1.66 0-3-1.3431-3-3v-20c0-1.65685 1.34-3 3-3z"
                  opacity=".3"/>
            <path d="m1265 242h20c1.66 0 3 1.343 3 3v20c0 1.657-1.34 3-3 3h-20c-1.66 0-3-1.343-3-3v-20c0-1.657 1.34-3 3-3z"
                  opacity=".5"/>
            <path d="m1265 362h20c1.66 0 3 1.343 3 3v20c0 1.657-1.34 3-3 3h-20c-1.66 0-3-1.343-3-3v-20c0-1.657 1.34-3 3-3z"
                  opacity=".3"/>
            <path d="m1265 392h20c1.66 0 3 1.343 3 3v20c0 1.657-1.34 3-3 3h-20c-1.66 0-3-1.343-3-3v-20c0-1.657 1.34-3 3-3z"/>
            <path d="m1265 302h20c1.66 0 3 1.343 3 3v20c0 1.657-1.34 3-3 3h-20c-1.66 0-3-1.343-3-3v-20c0-1.657 1.34-3 3-3z"
                  opacity=".5"/>
            <path d="m1265 332h20c1.66 0 3 1.343 3 3v20c0 1.657-1.34 3-3 3h-20c-1.66 0-3-1.343-3-3v-20c0-1.657 1.34-3 3-3z"
                  opacity=".8"/>
            <path d="m1265 62h20c1.66 0 3 1.3431 3 3v20c0 1.6569-1.34 3-3 3h-20c-1.66 0-3-1.3431-3-3v-20c0-1.6569 1.34-3 3-3z"
                  opacity=".2"/>
            <path d="m1265 122h20c1.66 0 3 1.343 3 3v20c0 1.657-1.34 3-3 3h-20c-1.66 0-3-1.343-3-3v-20c0-1.657 1.34-3 3-3z"
                  opacity=".5"/>
            <path d="m1265 152h20c1.66 0 3 1.343 3 3v20c0 1.657-1.34 3-3 3h-20c-1.66 0-3-1.343-3-3v-20c0-1.657 1.34-3 3-3z"
                  opacity=".5"/>
            <path d="m1265 92h20c1.66 0 3 1.3431 3 3v20c0 1.657-1.34 3-3 3h-20c-1.66 0-3-1.343-3-3v-20c0-1.6569 1.34-3 3-3z"/>
            <path d="m1265 32h20c1.66 0 3 1.3431 3 3v20c0 1.6569-1.34 3-3 3h-20c-1.66 0-3-1.3431-3-3v-20c0-1.6569 1.34-3 3-3z"/>
            <path d="m1265 2h20c1.66 0 3 1.34315 3 3v20c0 1.6569-1.34 3-3 3h-20c-1.66 0-3-1.3431-3-3v-20c0-1.65685 1.34-3 3-3z"
                  opacity=".3"/>
            <path d="m605 242h20c1.657 0 3 1.343 3 3v20c0 1.657-1.343 3-3 3h-20c-1.657 0-3-1.343-3-3v-20c0-1.657 1.343-3 3-3z"
                  opacity=".5"/>
            <path d="m605 362h20c1.657 0 3 1.343 3 3v20c0 1.657-1.343 3-3 3h-20c-1.657 0-3-1.343-3-3v-20c0-1.657 1.343-3 3-3z"
                  opacity=".3"/>
            <path d="m605 392h20c1.657 0 3 1.343 3 3v20c0 1.657-1.343 3-3 3h-20c-1.657 0-3-1.343-3-3v-20c0-1.657 1.343-3 3-3z"/>
            <path d="m605 302h20c1.657 0 3 1.343 3 3v20c0 1.657-1.343 3-3 3h-20c-1.657 0-3-1.343-3-3v-20c0-1.657 1.343-3 3-3z"
                  opacity=".5"/>
            <path d="m605 332h20c1.657 0 3 1.343 3 3v20c0 1.657-1.343 3-3 3h-20c-1.657 0-3-1.343-3-3v-20c0-1.657 1.343-3 3-3z"
                  opacity=".5"/>
            <path d="m605 62h20c1.657 0 3 1.3431 3 3v20c0 1.6569-1.343 3-3 3h-20c-1.657 0-3-1.3431-3-3v-20c0-1.6569 1.343-3 3-3z"
                  opacity=".2"/>
            <path d="m605 122h20c1.657 0 3 1.343 3 3v20c0 1.657-1.343 3-3 3h-20c-1.657 0-3-1.343-3-3v-20c0-1.657 1.343-3 3-3z"
                  opacity=".5"/>
            <path d="m605 152h20c1.657 0 3 1.343 3 3v20c0 1.657-1.343 3-3 3h-20c-1.657 0-3-1.343-3-3v-20c0-1.657 1.343-3 3-3z"
                  opacity=".5"/>
            <path d="m605 92h20c1.657 0 3 1.3431 3 3v20c0 1.657-1.343 3-3 3h-20c-1.657 0-3-1.343-3-3v-20c0-1.6569 1.343-3 3-3z"/>
            <path d="m605 32h20c1.657 0 3 1.3431 3 3v20c0 1.6569-1.343 3-3 3h-20c-1.657 0-3-1.3431-3-3v-20c0-1.6569 1.343-3 3-3z"/>
            <path d="m605 2h20c1.657 0 3 1.34315 3 3v20c0 1.6569-1.343 3-3 3h-20c-1.657 0-3-1.3431-3-3v-20c0-1.65685 1.343-3 3-3z"
                  opacity=".3"/>
            <path d="m895 242h-20c-1.657 0-3 1.343-3 3v20c0 1.657 1.343 3 3 3h20c1.657 0 3-1.343 3-3v-20c0-1.657-1.343-3-3-3z"
                  opacity=".5"/>
            <path d="m895 362h-20c-1.657 0-3 1.343-3 3v20c0 1.657 1.343 3 3 3h20c1.657 0 3-1.343 3-3v-20c0-1.657-1.343-3-3-3z"
                  opacity=".3"/>
            <path d="m895 392h-20c-1.657 0-3 1.343-3 3v20c0 1.657 1.343 3 3 3h20c1.657 0 3-1.343 3-3v-20c0-1.657-1.343-3-3-3z"/>
            <path d="m895 302h-20c-1.657 0-3 1.343-3 3v20c0 1.657 1.343 3 3 3h20c1.657 0 3-1.343 3-3v-20c0-1.657-1.343-3-3-3z"
                  opacity=".5"/>
            <path d="m895 332h-20c-1.657 0-3 1.343-3 3v20c0 1.657 1.343 3 3 3h20c1.657 0 3-1.343 3-3v-20c0-1.657-1.343-3-3-3z"
                  opacity=".5"/>
            <path d="m895 62h-20c-1.657 0-3 1.3431-3 3v20c0 1.6569 1.343 3 3 3h20c1.657 0 3-1.3431 3-3v-20c0-1.6569-1.343-3-3-3z"
                  opacity=".2"/>
            <path d="m895 122h-20c-1.657 0-3 1.343-3 3v20c0 1.657 1.343 3 3 3h20c1.657 0 3-1.343 3-3v-20c0-1.657-1.343-3-3-3z"
                  opacity=".5"/>
            <path d="m895 152h-20c-1.657 0-3 1.343-3 3v20c0 1.657 1.343 3 3 3h20c1.657 0 3-1.343 3-3v-20c0-1.657-1.343-3-3-3z"
                  opacity=".5"/>
            <path d="m895 92h-20c-1.657 0-3 1.3431-3 3v20c0 1.657 1.343 3 3 3h20c1.657 0 3-1.343 3-3v-20c0-1.6569-1.343-3-3-3z"/>
            <path d="m895 32h-20c-1.657 0-3 1.3431-3 3v20c0 1.6569 1.343 3 3 3h20c1.657 0 3-1.3431 3-3v-20c0-1.6569-1.343-3-3-3z"/>
            <path d="m895 2h-20c-1.657 0-3 1.34315-3 3v20c0 1.6569 1.343 3 3 3h20c1.657 0 3-1.3431 3-3v-20c0-1.65685-1.343-3-3-3z"
                  opacity=".3"/>
            <path d="m355 242h-20c-1.657 0-3 1.343-3 3v20c0 1.657 1.343 3 3 3h20c1.657 0 3-1.343 3-3v-20c0-1.657-1.343-3-3-3z"
                  opacity=".5"/>
            <path d="m355 362h-20c-1.657 0-3 1.343-3 3v20c0 1.657 1.343 3 3 3h20c1.657 0 3-1.343 3-3v-20c0-1.657-1.343-3-3-3z"
                  opacity=".3"/>
            <path d="m355 392h-20c-1.657 0-3 1.343-3 3v20c0 1.657 1.343 3 3 3h20c1.657 0 3-1.343 3-3v-20c0-1.657-1.343-3-3-3z"/>
            <path d="m355 302h-20c-1.657 0-3 1.343-3 3v20c0 1.657 1.343 3 3 3h20c1.657 0 3-1.343 3-3v-20c0-1.657-1.343-3-3-3z"
                  opacity=".5"/>
            <path d="m355 332h-20c-1.657 0-3 1.343-3 3v20c0 1.657 1.343 3 3 3h20c1.657 0 3-1.343 3-3v-20c0-1.657-1.343-3-3-3z"/>
            <path d="m355 62h-20c-1.657 0-3 1.3431-3 3v20c0 1.6569 1.343 3 3 3h20c1.657 0 3-1.3431 3-3v-20c0-1.6569-1.343-3-3-3z"
                  opacity=".2"/>
            <path d="m355 122h-20c-1.657 0-3 1.343-3 3v20c0 1.657 1.343 3 3 3h20c1.657 0 3-1.343 3-3v-20c0-1.657-1.343-3-3-3z"
                  opacity=".5"/>
            <path d="m355 152h-20c-1.657 0-3 1.343-3 3v20c0 1.657 1.343 3 3 3h20c1.657 0 3-1.343 3-3v-20c0-1.657-1.343-3-3-3z"
                  opacity=".5"/>
            <path d="m355 92h-20c-1.657 0-3 1.3431-3 3v20c0 1.657 1.343 3 3 3h20c1.657 0 3-1.343 3-3v-20c0-1.6569-1.343-3-3-3z"
                  opacity=".6"/>
            <path d="m355 32h-20c-1.657 0-3 1.3431-3 3v20c0 1.6569 1.343 3 3 3h20c1.657 0 3-1.3431 3-3v-20c0-1.6569-1.343-3-3-3z"/>
            <path d="m355 2h-20c-1.657 0-3 1.34315-3 3v20c0 1.6569 1.343 3 3 3h20c1.657 0 3-1.3431 3-3v-20c0-1.65685-1.343-3-3-3z"
                  opacity=".3"/>
            <path d="m1145 242h20c1.66 0 3 1.343 3 3v20c0 1.657-1.34 3-3 3h-20c-1.66 0-3-1.343-3-3v-20c0-1.657 1.34-3 3-3z"
                  opacity=".5"/>
            <path d="m1145 362h20c1.66 0 3 1.343 3 3v20c0 1.657-1.34 3-3 3h-20c-1.66 0-3-1.343-3-3v-20c0-1.657 1.34-3 3-3z"
                  opacity=".3"/>
            <path d="m1145 392h20c1.66 0 3 1.343 3 3v20c0 1.657-1.34 3-3 3h-20c-1.66 0-3-1.343-3-3v-20c0-1.657 1.34-3 3-3z"/>
            <path d="m1145 302h20c1.66 0 3 1.343 3 3v20c0 1.657-1.34 3-3 3h-20c-1.66 0-3-1.343-3-3v-20c0-1.657 1.34-3 3-3z"
                  opacity=".5"/>
            <path d="m1145 62h20c1.66 0 3 1.3431 3 3v20c0 1.6569-1.34 3-3 3h-20c-1.66 0-3-1.3431-3-3v-20c0-1.6569 1.34-3 3-3z"
                  opacity=".2"/>
            <path d="m1145 122h20c1.66 0 3 1.343 3 3v20c0 1.657-1.34 3-3 3h-20c-1.66 0-3-1.343-3-3v-20c0-1.657 1.34-3 3-3z"
                  opacity=".5"/>
            <path d="m1145 152h20c1.66 0 3 1.343 3 3v20c0 1.657-1.34 3-3 3h-20c-1.66 0-3-1.343-3-3v-20c0-1.657 1.34-3 3-3z"
                  opacity=".5"/>
            <path d="m1145 92h20c1.66 0 3 1.3431 3 3v20c0 1.657-1.34 3-3 3h-20c-1.66 0-3-1.343-3-3v-20c0-1.6569 1.34-3 3-3z"
                  opacity=".6"/>
            <path d="m1145 32h20c1.66 0 3 1.3431 3 3v20c0 1.6569-1.34 3-3 3h-20c-1.66 0-3-1.3431-3-3v-20c0-1.6569 1.34-3 3-3z"/>
            <path d="m1145 2h20c1.66 0 3 1.34315 3 3v20c0 1.6569-1.34 3-3 3h-20c-1.66 0-3-1.3431-3-3v-20c0-1.65685 1.34-3 3-3z"
                  opacity=".3"/>
            <path d="m725 392h20c1.657 0 3 1.343 3 3v20c0 1.657-1.343 3-3 3h-20c-1.657 0-3-1.343-3-3v-20c0-1.657 1.343-3 3-3z"
                  opacity=".3"/>
            <path d="m725 422h20c1.657 0 3 1.343 3 3v20c0 1.657-1.343 3-3 3h-20c-1.657 0-3-1.343-3-3v-20c0-1.657 1.343-3 3-3z"/>
            <path d="m725 62h20c1.657 0 3 1.3431 3 3v20c0 1.6569-1.343 3-3 3h-20c-1.657 0-3-1.3431-3-3v-20c0-1.6569 1.343-3 3-3z"/>
            <path d="m725 122h20c1.657 0 3 1.343 3 3v20c0 1.657-1.343 3-3 3h-20c-1.657 0-3-1.343-3-3v-20c0-1.657 1.343-3 3-3z"
                  opacity=".5"/>
            <path d="m725 2h20c1.657 0 3 1.34315 3 3v20c0 1.6569-1.343 3-3 3h-20c-1.657 0-3-1.3431-3-3v-20c0-1.65685 1.343-3 3-3z"
                  opacity=".3"/>
            <path d="m725 242h20c1.657 0 3 1.343 3 3v20c0 1.657-1.343 3-3 3h-20c-1.657 0-3-1.343-3-3v-20c0-1.657 1.343-3 3-3z"
                  opacity=".2"/>
            <path d="m725 302h20c1.657 0 3 1.343 3 3v20c0 1.657-1.343 3-3 3h-20c-1.657 0-3-1.343-3-3v-20c0-1.657 1.343-3 3-3z"
                  opacity=".5"/>
            <path d="m725 332h20c1.657 0 3 1.343 3 3v20c0 1.657-1.343 3-3 3h-20c-1.657 0-3-1.343-3-3v-20c0-1.657 1.343-3 3-3z"
                  opacity=".5"/>
            <path d="m725 272h20c1.657 0 3 1.343 3 3v20c0 1.657-1.343 3-3 3h-20c-1.657 0-3-1.343-3-3v-20c0-1.657 1.343-3 3-3z"/>
            <path d="m725 212h20c1.657 0 3 1.343 3 3v20c0 1.657-1.343 3-3 3h-20c-1.657 0-3-1.343-3-3v-20c0-1.657 1.343-3 3-3z"/>
            <path d="m725 182h20c1.657 0 3 1.343 3 3v20c0 1.657-1.343 3-3 3h-20c-1.657 0-3-1.343-3-3v-20c0-1.657 1.343-3 3-3z"
                  opacity=".3"/>
            <path d="m775 242h-20c-1.657 0-3 1.343-3 3v20c0 1.657 1.343 3 3 3h20c1.657 0 3-1.343 3-3v-20c0-1.657-1.343-3-3-3z"
                  opacity=".5"/>
            <path d="m775 362h-20c-1.657 0-3 1.343-3 3v20c0 1.657 1.343 3 3 3h20c1.657 0 3-1.343 3-3v-20c0-1.657-1.343-3-3-3z"
                  opacity=".3"/>
            <path d="m775 392h-20c-1.657 0-3 1.343-3 3v20c0 1.657 1.343 3 3 3h20c1.657 0 3-1.343 3-3v-20c0-1.657-1.343-3-3-3z"
                  opacity=".3"/>
            <path d="m775 302h-20c-1.657 0-3 1.343-3 3v20c0 1.657 1.343 3 3 3h20c1.657 0 3-1.343 3-3v-20c0-1.657-1.343-3-3-3z"
                  opacity=".5"/>
            <path d="m775 62h-20c-1.657 0-3 1.3431-3 3v20c0 1.6569 1.343 3 3 3h20c1.657 0 3-1.3431 3-3v-20c0-1.6569-1.343-3-3-3z"
                  opacity=".2"/>
            <path d="m775 122h-20c-1.657 0-3 1.343-3 3v20c0 1.657 1.343 3 3 3h20c1.657 0 3-1.343 3-3v-20c0-1.657-1.343-3-3-3z"
                  opacity=".5"/>
            <path d="m775 152h-20c-1.657 0-3 1.343-3 3v20c0 1.657 1.343 3 3 3h20c1.657 0 3-1.343 3-3v-20c0-1.657-1.343-3-3-3z"
                  opacity=".5"/>
            <path d="m775 92h-20c-1.657 0-3 1.3431-3 3v20c0 1.657 1.343 3 3 3h20c1.657 0 3-1.343 3-3v-20c0-1.6569-1.343-3-3-3z"
                  opacity=".4"/>
            <path d="m775 2h-20c-1.657 0-3 1.34315-3 3v20c0 1.6569 1.343 3 3 3h20c1.657 0 3-1.3431 3-3v-20c0-1.65685-1.343-3-3-3z"
                  opacity=".3"/>
            <path d="m205 152h-20c-1.657 0-3 1.343-3 3v20c0 1.657 1.343 3 3 3h20c1.657 0 3-1.343 3-3v-20c0-1.657-1.343-3-3-3z"
                  opacity=".5"/>
            <path d="m205 212h-20c-1.657 0-3 1.343-3 3v20c0 1.657 1.343 3 3 3h20c1.657 0 3-1.343 3-3v-20c0-1.657-1.343-3-3-3z"
                  opacity=".5"/>
            <path d="m205 182h-20c-1.657 0-3 1.343-3 3v20c0 1.657 1.343 3 3 3h20c1.657 0 3-1.343 3-3v-20c0-1.657-1.343-3-3-3z"
                  opacity=".8"/>
            <path d="m205 362h-20c-1.657 0-3 1.343-3 3v20c0 1.657 1.343 3 3 3h20c1.657 0 3-1.343 3-3v-20c0-1.657-1.343-3-3-3z"/>
            <path d="m205 392h-20c-1.657 0-3 1.343-3 3v20c0 1.657 1.343 3 3 3h20c1.657 0 3-1.343 3-3v-20c0-1.657-1.343-3-3-3z"
                  opacity=".3"/>
            <path d="m205 422h-20c-1.657 0-3 1.343-3 3v20c0 1.657 1.343 3 3 3h20c1.657 0 3-1.343 3-3v-20c0-1.657-1.343-3-3-3z"/>
            <path d="m205 302h-20c-1.657 0-3 1.343-3 3v20c0 1.657 1.343 3 3 3h20c1.657 0 3-1.343 3-3v-20c0-1.657-1.343-3-3-3z"
                  opacity=".5"/>
            <path d="m205 332h-20c-1.657 0-3 1.343-3 3v20c0 1.657 1.343 3 3 3h20c1.657 0 3-1.343 3-3v-20c0-1.657-1.343-3-3-3z"/>
            <path d="m205 62h-20c-1.657 0-3 1.3431-3 3v20c0 1.6569 1.343 3 3 3h20c1.657 0 3-1.3431 3-3v-20c0-1.6569-1.343-3-3-3z"
                  opacity=".2"/>
            <path d="m205 92h-20c-1.657 0-3 1.3431-3 3v20c0 1.657 1.343 3 3 3h20c1.657 0 3-1.343 3-3v-20c0-1.6569-1.343-3-3-3z"/>
            <path d="m205 32h-20c-1.657 0-3 1.3431-3 3v20c0 1.6569 1.343 3 3 3h20c1.657 0 3-1.3431 3-3v-20c0-1.6569-1.343-3-3-3z"/>
            <path d="m445 152h-20c-1.657 0-3 1.343-3 3v20c0 1.657 1.343 3 3 3h20c1.657 0 3-1.343 3-3v-20c0-1.657-1.343-3-3-3z"
                  opacity=".5"/>
            <path d="m445 212h-20c-1.657 0-3 1.343-3 3v20c0 1.657 1.343 3 3 3h20c1.657 0 3-1.343 3-3v-20c0-1.657-1.343-3-3-3z"
                  opacity=".5"/>
            <path d="m445 182h-20c-1.657 0-3 1.343-3 3v20c0 1.657 1.343 3 3 3h20c1.657 0 3-1.343 3-3v-20c0-1.657-1.343-3-3-3z"
                  opacity=".8"/>
            <path d="m445 392h-20c-1.657 0-3 1.343-3 3v20c0 1.657 1.343 3 3 3h20c1.657 0 3-1.343 3-3v-20c0-1.657-1.343-3-3-3z"
                  opacity=".3"/>
            <path d="m445 422h-20c-1.657 0-3 1.343-3 3v20c0 1.657 1.343 3 3 3h20c1.657 0 3-1.343 3-3v-20c0-1.657-1.343-3-3-3z"/>
            <path d="m445 302h-20c-1.657 0-3 1.343-3 3v20c0 1.657 1.343 3 3 3h20c1.657 0 3-1.343 3-3v-20c0-1.657-1.343-3-3-3z"
                  opacity=".5"/>
            <path d="m445 332h-20c-1.657 0-3 1.343-3 3v20c0 1.657 1.343 3 3 3h20c1.657 0 3-1.343 3-3v-20c0-1.657-1.343-3-3-3z"/>
            <path d="m445 62h-20c-1.657 0-3 1.3431-3 3v20c0 1.6569 1.343 3 3 3h20c1.657 0 3-1.3431 3-3v-20c0-1.6569-1.343-3-3-3z"
                  opacity=".2"/>
            <path d="m445 92h-20c-1.657 0-3 1.3431-3 3v20c0 1.657 1.343 3 3 3h20c1.657 0 3-1.343 3-3v-20c0-1.6569-1.343-3-3-3z"/>
            <path d="m445 32h-20c-1.657 0-3 1.3431-3 3v20c0 1.6569 1.343 3 3 3h20c1.657 0 3-1.3431 3-3v-20c0-1.6569-1.343-3-3-3z"/>
            <path d="m1055 152h20c1.66 0 3 1.343 3 3v20c0 1.657-1.34 3-3 3h-20c-1.66 0-3-1.343-3-3v-20c0-1.657 1.34-3 3-3z"
                  opacity=".5"/>
            <path d="m1055 212h20c1.66 0 3 1.343 3 3v20c0 1.657-1.34 3-3 3h-20c-1.66 0-3-1.343-3-3v-20c0-1.657 1.34-3 3-3z"
                  opacity=".5"/>
            <path d="m1055 182h20c1.66 0 3 1.343 3 3v20c0 1.657-1.34 3-3 3h-20c-1.66 0-3-1.343-3-3v-20c0-1.657 1.34-3 3-3z"
                  opacity=".8"/>
            <path d="m1055 362h20c1.66 0 3 1.343 3 3v20c0 1.657-1.34 3-3 3h-20c-1.66 0-3-1.343-3-3v-20c0-1.657 1.34-3 3-3z"/>
            <path d="m1055 392h20c1.66 0 3 1.343 3 3v20c0 1.657-1.34 3-3 3h-20c-1.66 0-3-1.343-3-3v-20c0-1.657 1.34-3 3-3z"
                  opacity=".3"/>
            <path d="m1055 422h20c1.66 0 3 1.343 3 3v20c0 1.657-1.34 3-3 3h-20c-1.66 0-3-1.343-3-3v-20c0-1.657 1.34-3 3-3z"/>
            <path d="m1055 302h20c1.66 0 3 1.343 3 3v20c0 1.657-1.34 3-3 3h-20c-1.66 0-3-1.343-3-3v-20c0-1.657 1.34-3 3-3z"
                  opacity=".5"/>
            <path d="m1055 332h20c1.66 0 3 1.343 3 3v20c0 1.657-1.34 3-3 3h-20c-1.66 0-3-1.343-3-3v-20c0-1.657 1.34-3 3-3z"/>
            <path d="m1055 62h20c1.66 0 3 1.3431 3 3v20c0 1.6569-1.34 3-3 3h-20c-1.66 0-3-1.3431-3-3v-20c0-1.6569 1.34-3 3-3z"
                  opacity=".2"/>
            <path d="m1055 92h20c1.66 0 3 1.3431 3 3v20c0 1.657-1.34 3-3 3h-20c-1.66 0-3-1.343-3-3v-20c0-1.6569 1.34-3 3-3z"/>
            <path d="m1055 32h20c1.66 0 3 1.3431 3 3v20c0 1.6569-1.34 3-3 3h-20c-1.66 0-3-1.3431-3-3v-20c0-1.6569 1.34-3 3-3z"/>
            <path d="m1295 152h20c1.66 0 3 1.343 3 3v20c0 1.657-1.34 3-3 3h-20c-1.66 0-3-1.343-3-3v-20c0-1.657 1.34-3 3-3z"
                  opacity=".5"/>
            <path d="m1295 212h20c1.66 0 3 1.343 3 3v20c0 1.657-1.34 3-3 3h-20c-1.66 0-3-1.343-3-3v-20c0-1.657 1.34-3 3-3z"
                  opacity=".5"/>
            <path d="m1295 182h20c1.66 0 3 1.343 3 3v20c0 1.657-1.34 3-3 3h-20c-1.66 0-3-1.343-3-3v-20c0-1.657 1.34-3 3-3z"
                  opacity=".8"/>
            <path d="m1295 362h20c1.66 0 3 1.343 3 3v20c0 1.657-1.34 3-3 3h-20c-1.66 0-3-1.343-3-3v-20c0-1.657 1.34-3 3-3z"/>
            <path d="m1295 392h20c1.66 0 3 1.343 3 3v20c0 1.657-1.34 3-3 3h-20c-1.66 0-3-1.343-3-3v-20c0-1.657 1.34-3 3-3z"
                  opacity=".3"/>
            <path d="m1295 422h20c1.66 0 3 1.343 3 3v20c0 1.657-1.34 3-3 3h-20c-1.66 0-3-1.343-3-3v-20c0-1.657 1.34-3 3-3z"/>
            <path d="m1295 302h20c1.66 0 3 1.343 3 3v20c0 1.657-1.34 3-3 3h-20c-1.66 0-3-1.343-3-3v-20c0-1.657 1.34-3 3-3z"
                  opacity=".5"/>
            <path d="m1295 332h20c1.66 0 3 1.343 3 3v20c0 1.657-1.34 3-3 3h-20c-1.66 0-3-1.343-3-3v-20c0-1.657 1.34-3 3-3z"/>
            <path d="m1295 62h20c1.66 0 3 1.3431 3 3v20c0 1.6569-1.34 3-3 3h-20c-1.66 0-3-1.3431-3-3v-20c0-1.6569 1.34-3 3-3z"
                  opacity=".2"/>
            <path d="m1295 92h20c1.66 0 3 1.3431 3 3v20c0 1.657-1.34 3-3 3h-20c-1.66 0-3-1.343-3-3v-20c0-1.6569 1.34-3 3-3z"/>
            <path d="m1295 32h20c1.66 0 3 1.3431 3 3v20c0 1.6569-1.34 3-3 3h-20c-1.66 0-3-1.3431-3-3v-20c0-1.6569 1.34-3 3-3z"/>
            <path d="m635 212h20c1.657 0 3 1.343 3 3v20c0 1.657-1.343 3-3 3h-20c-1.657 0-3-1.343-3-3v-20c0-1.657 1.343-3 3-3z"
                  opacity=".5"/>
            <path d="m635 182h20c1.657 0 3 1.343 3 3v20c0 1.657-1.343 3-3 3h-20c-1.657 0-3-1.343-3-3v-20c0-1.657 1.343-3 3-3z"
                  opacity=".8"/>
            <path d="m635 362h20c1.657 0 3 1.343 3 3v20c0 1.657-1.343 3-3 3h-20c-1.657 0-3-1.343-3-3v-20c0-1.657 1.343-3 3-3z"/>
            <path d="m635 392h20c1.657 0 3 1.343 3 3v20c0 1.657-1.343 3-3 3h-20c-1.657 0-3-1.343-3-3v-20c0-1.657 1.343-3 3-3z"
                  opacity=".3"/>
            <path d="m635 422h20c1.657 0 3 1.343 3 3v20c0 1.657-1.343 3-3 3h-20c-1.657 0-3-1.343-3-3v-20c0-1.657 1.343-3 3-3z"/>
            <path d="m635 302h20c1.657 0 3 1.343 3 3v20c0 1.657-1.343 3-3 3h-20c-1.657 0-3-1.343-3-3v-20c0-1.657 1.343-3 3-3z"
                  opacity=".5"/>
            <path d="m635 62h20c1.657 0 3 1.3431 3 3v20c0 1.6569-1.343 3-3 3h-20c-1.657 0-3-1.3431-3-3v-20c0-1.6569 1.343-3 3-3z"
                  opacity=".2"/>
            <path d="m635 92h20c1.657 0 3 1.3431 3 3v20c0 1.657-1.343 3-3 3h-20c-1.657 0-3-1.343-3-3v-20c0-1.6569 1.343-3 3-3z"
                  opacity=".5"/>
            <path d="m635 32h20c1.657 0 3 1.3431 3 3v20c0 1.6569-1.343 3-3 3h-20c-1.657 0-3-1.3431-3-3v-20c0-1.6569 1.343-3 3-3z"/>
            <path d="m865 212h-20c-1.657 0-3 1.343-3 3v20c0 1.657 1.343 3 3 3h20c1.657 0 3-1.343 3-3v-20c0-1.657-1.343-3-3-3z"
                  opacity=".5"/>
            <path d="m865 182h-20c-1.657 0-3 1.343-3 3v20c0 1.657 1.343 3 3 3h20c1.657 0 3-1.343 3-3v-20c0-1.657-1.343-3-3-3z"
                  opacity=".8"/>
            <path d="m865 362h-20c-1.657 0-3 1.343-3 3v20c0 1.657 1.343 3 3 3h20c1.657 0 3-1.343 3-3v-20c0-1.657-1.343-3-3-3z"/>
            <path d="m865 392h-20c-1.657 0-3 1.343-3 3v20c0 1.657 1.343 3 3 3h20c1.657 0 3-1.343 3-3v-20c0-1.657-1.343-3-3-3z"
                  opacity=".3"/>
            <path d="m865 422h-20c-1.657 0-3 1.343-3 3v20c0 1.657 1.343 3 3 3h20c1.657 0 3-1.343 3-3v-20c0-1.657-1.343-3-3-3z"/>
            <path d="m865 302h-20c-1.657 0-3 1.343-3 3v20c0 1.657 1.343 3 3 3h20c1.657 0 3-1.343 3-3v-20c0-1.657-1.343-3-3-3z"
                  opacity=".5"/>
            <path d="m865 332h-20c-1.657 0-3 1.343-3 3v20c0 1.657 1.343 3 3 3h20c1.657 0 3-1.343 3-3v-20c0-1.657-1.343-3-3-3z"/>
            <path d="m865 62h-20c-1.657 0-3 1.3431-3 3v20c0 1.6569 1.343 3 3 3h20c1.657 0 3-1.3431 3-3v-20c0-1.6569-1.343-3-3-3z"
                  opacity=".2"/>
            <path d="m865 92h-20c-1.657 0-3 1.3431-3 3v20c0 1.657 1.343 3 3 3h20c1.657 0 3-1.343 3-3v-20c0-1.6569-1.343-3-3-3z"
                  opacity=".5"/>
            <path d="m865 32h-20c-1.657 0-3 1.3431-3 3v20c0 1.6569 1.343 3 3 3h20c1.657 0 3-1.3431 3-3v-20c0-1.6569-1.343-3-3-3z"/>
            <path d="m535 122h-20c-1.657 0-3 1.343-3 3v20c0 1.657 1.343 3 3 3h20c1.657 0 3-1.343 3-3v-20c0-1.657-1.343-3-3-3z"
                  opacity=".5"/>
            <path d="m535 182h-20c-1.657 0-3 1.343-3 3v20c0 1.657 1.343 3 3 3h20c1.657 0 3-1.343 3-3v-20c0-1.657-1.343-3-3-3z"
                  opacity=".5"/>
            <path d="m535 152h-20c-1.657 0-3 1.343-3 3v20c0 1.657 1.343 3 3 3h20c1.657 0 3-1.343 3-3v-20c0-1.657-1.343-3-3-3z"
                  opacity=".8"/>
            <path d="m535 332h-20c-1.657 0-3 1.343-3 3v20c0 1.657 1.343 3 3 3h20c1.657 0 3-1.343 3-3v-20c0-1.657-1.343-3-3-3z"/>
            <path d="m535 362h-20c-1.657 0-3 1.343-3 3v20c0 1.657 1.343 3 3 3h20c1.657 0 3-1.343 3-3v-20c0-1.657-1.343-3-3-3z"
                  opacity=".3"/>
            <path d="m535 392h-20c-1.657 0-3 1.343-3 3v20c0 1.657 1.343 3 3 3h20c1.657 0 3-1.343 3-3v-20c0-1.657-1.343-3-3-3z"/>
            <path d="m535 272h-20c-1.657 0-3 1.343-3 3v20c0 1.657 1.343 3 3 3h20c1.657 0 3-1.343 3-3v-20c0-1.657-1.343-3-3-3z"
                  opacity=".5"/>
            <path d="m535 302h-20c-1.657 0-3 1.343-3 3v20c0 1.657 1.343 3 3 3h20c1.657 0 3-1.343 3-3v-20c0-1.657-1.343-3-3-3z"/>
            <path d="m535 62h-20c-1.657 0-3 1.3431-3 3v20c0 1.6569 1.343 3 3 3h20c1.657 0 3-1.3431 3-3v-20c0-1.6569-1.343-3-3-3z"
                  opacity=".2"/>
            <path d="m535 92h-20c-1.657 0-3 1.3431-3 3v20c0 1.657 1.343 3 3 3h20c1.657 0 3-1.343 3-3v-20c0-1.6569-1.343-3-3-3z"/>
            <path d="m535 32h-20c-1.657 0-3 1.3431-3 3v20c0 1.6569 1.343 3 3 3h20c1.657 0 3-1.3431 3-3v-20c0-1.6569-1.343-3-3-3z"/>
            <path d="m965 122h20c1.657 0 3 1.343 3 3v20c0 1.657-1.343 3-3 3h-20c-1.657 0-3-1.343-3-3v-20c0-1.657 1.343-3 3-3z"
                  opacity=".5"/>
            <path d="m965 182h20c1.657 0 3 1.343 3 3v20c0 1.657-1.343 3-3 3h-20c-1.657 0-3-1.343-3-3v-20c0-1.657 1.343-3 3-3z"
                  opacity=".5"/>
            <path d="m965 152h20c1.657 0 3 1.343 3 3v20c0 1.657-1.343 3-3 3h-20c-1.657 0-3-1.343-3-3v-20c0-1.657 1.343-3 3-3z"
                  opacity=".8"/>
            <path d="m965 362h20c1.657 0 3 1.343 3 3v20c0 1.657-1.343 3-3 3h-20c-1.657 0-3-1.343-3-3v-20c0-1.657 1.343-3 3-3z"
                  opacity=".3"/>
            <path d="m965 392h20c1.657 0 3 1.343 3 3v20c0 1.657-1.343 3-3 3h-20c-1.657 0-3-1.343-3-3v-20c0-1.657 1.343-3 3-3z"/>
            <path d="m965 272h20c1.657 0 3 1.343 3 3v20c0 1.657-1.343 3-3 3h-20c-1.657 0-3-1.343-3-3v-20c0-1.657 1.343-3 3-3z"
                  opacity=".5"/>
            <path d="m965 302h20c1.657 0 3 1.343 3 3v20c0 1.657-1.343 3-3 3h-20c-1.657 0-3-1.343-3-3v-20c0-1.657 1.343-3 3-3z"/>
            <path d="m965 62h20c1.657 0 3 1.3431 3 3v20c0 1.6569-1.343 3-3 3h-20c-1.657 0-3-1.3431-3-3v-20c0-1.6569 1.343-3 3-3z"
                  opacity=".2"/>
            <path d="m965 92h20c1.657 0 3 1.3431 3 3v20c0 1.657-1.343 3-3 3h-20c-1.657 0-3-1.343-3-3v-20c0-1.6569 1.343-3 3-3z"/>
            <path d="m965 32h20c1.657 0 3 1.3431 3 3v20c0 1.6569-1.343 3-3 3h-20c-1.657 0-3-1.3431-3-3v-20c0-1.6569 1.343-3 3-3z"/>
            <path d="m1205 122h20c1.66 0 3 1.343 3 3v20c0 1.657-1.34 3-3 3h-20c-1.66 0-3-1.343-3-3v-20c0-1.657 1.34-3 3-3z"
                  opacity=".5"/>
            <path d="m1205 182h20c1.66 0 3 1.343 3 3v20c0 1.657-1.34 3-3 3h-20c-1.66 0-3-1.343-3-3v-20c0-1.657 1.34-3 3-3z"
                  opacity=".5"/>
            <path d="m1205 152h20c1.66 0 3 1.343 3 3v20c0 1.657-1.34 3-3 3h-20c-1.66 0-3-1.343-3-3v-20c0-1.657 1.34-3 3-3z"
                  opacity=".8"/>
            <path d="m1205 362h20c1.66 0 3 1.343 3 3v20c0 1.657-1.34 3-3 3h-20c-1.66 0-3-1.343-3-3v-20c0-1.657 1.34-3 3-3z"
                  opacity=".3"/>
            <path d="m1205 392h20c1.66 0 3 1.343 3 3v20c0 1.657-1.34 3-3 3h-20c-1.66 0-3-1.343-3-3v-20c0-1.657 1.34-3 3-3z"/>
            <path d="m1205 272h20c1.66 0 3 1.343 3 3v20c0 1.657-1.34 3-3 3h-20c-1.66 0-3-1.343-3-3v-20c0-1.657 1.34-3 3-3z"
                  opacity=".5"/>
            <path d="m1205 302h20c1.66 0 3 1.343 3 3v20c0 1.657-1.34 3-3 3h-20c-1.66 0-3-1.343-3-3v-20c0-1.657 1.34-3 3-3z"/>
            <path d="m1205 62h20c1.66 0 3 1.3431 3 3v20c0 1.6569-1.34 3-3 3h-20c-1.66 0-3-1.3431-3-3v-20c0-1.6569 1.34-3 3-3z"
                  opacity=".2"/>
            <path d="m1205 92h20c1.66 0 3 1.3431 3 3v20c0 1.657-1.34 3-3 3h-20c-1.66 0-3-1.343-3-3v-20c0-1.6569 1.34-3 3-3z"/>
            <path d="m1205 32h20c1.66 0 3 1.3431 3 3v20c0 1.6569-1.34 3-3 3h-20c-1.66 0-3-1.3431-3-3v-20c0-1.6569 1.34-3 3-3z"/>
            <path d="m1565 268h20c1.66 0 3-1.343 3-3v-20c0-1.657-1.34-3-3-3h-20c-1.66 0-3 1.343-3 3v20c0 1.657 1.34 3 3 3z"
                  opacity=".3"/>
            <path d="m1585 62h-20c-1.66 0-3 1.3431-3 3v20c0 1.6569 1.34 3 3 3h20c1.66 0 3-1.3431 3-3v-20c0-1.6569-1.34-3-3-3z"
                  opacity=".5"/>
            <path d="m1565 118h20c1.66 0 3-1.343 3-3v-20c0-1.6569-1.34-3-3-3h-20c-1.66 0-3 1.3431-3 3v20c0 1.657 1.34 3 3 3z"
                  opacity=".5"/>
            <path d="m1585 32h-20c-1.66 0-3 1.3431-3 3v20c0 1.6569 1.34 3 3 3h20c1.66 0 3-1.3431 3-3v-20c0-1.6569-1.34-3-3-3z"/>
            <path d="m1565 148h20c1.66 0 3-1.343 3-3v-20c0-1.657-1.34-3-3-3h-20c-1.66 0-3 1.343-3 3v20c0 1.657 1.34 3 3 3z"
                  opacity=".7"/>
            <path d="m1565 178h20c1.66 0 3-1.343 3-3v-20c0-1.657-1.34-3-3-3h-20c-1.66 0-3 1.343-3 3v20c0 1.657 1.34 3 3 3z"
                  opacity=".2"/>
            <path d="m1565 358h20c1.66 0 3-1.343 3-3v-20c0-1.657-1.34-3-3-3h-20c-1.66 0-3 1.343-3 3v20c0 1.657 1.34 3 3 3z"/>
            <path d="m1565 328h20c1.66 0 3-1.343 3-3v-20c0-1.657-1.34-3-3-3h-20c-1.66 0-3 1.343-3 3v20c0 1.657 1.34 3 3 3z"/>
            <path d="m1555 2h-20c-1.66 0-3 1.34315-3 3v20c0 1.6569 1.34 3 3 3h20c1.66 0 3-1.3431 3-3v-20c0-1.65685-1.34-3-3-3z"
                  opacity=".5"/>
            <path d="m1535 328h20c1.66 0 3-1.343 3-3v-20c0-1.657-1.34-3-3-3h-20c-1.66 0-3 1.343-3 3v20c0 1.657 1.34 3 3 3z"/>
            <path d="m1535 388h20c1.66 0 3-1.343 3-3v-20c0-1.657-1.34-3-3-3h-20c-1.66 0-3 1.343-3 3v20c0 1.657 1.34 3 3 3z"/>
            <path d="m1535 418h20c1.66 0 3-1.343 3-3v-20c0-1.657-1.34-3-3-3h-20c-1.66 0-3 1.343-3 3v20c0 1.657 1.34 3 3 3z"
                  opacity=".5"/>
            <path d="m1535 358h20c1.66 0 3-1.343 3-3v-20c0-1.657-1.34-3-3-3h-20c-1.66 0-3 1.343-3 3v20c0 1.657 1.34 3 3 3z"
                  opacity=".5"/>
            <path d="m1535 298h20c1.66 0 3-1.343 3-3v-20c0-1.657-1.34-3-3-3h-20c-1.66 0-3 1.343-3 3v20c0 1.657 1.34 3 3 3z"/>
            <path d="m1535 208h20c1.66 0 3-1.343 3-3v-20c0-1.657-1.34-3-3-3h-20c-1.66 0-3 1.343-3 3v20c0 1.657 1.34 3 3 3z"/>
            <path d="m1535 178h20c1.66 0 3-1.343 3-3v-20c0-1.657-1.34-3-3-3h-20c-1.66 0-3 1.343-3 3v20c0 1.657 1.34 3 3 3z"/>
            <path d="m1535 148h20c1.66 0 3-1.343 3-3v-20c0-1.657-1.34-3-3-3h-20c-1.66 0-3 1.343-3 3v20c0 1.657 1.34 3 3 3z"
                  opacity=".5"/>
            <path d="m1535 118h20c1.66 0 3-1.343 3-3v-20c0-1.6569-1.34-3-3-3h-20c-1.66 0-3 1.3431-3 3v20c0 1.657 1.34 3 3 3z"/>
            <path d="m1555 62h-20c-1.66 0-3 1.3431-3 3v20c0 1.6569 1.34 3 3 3h20c1.66 0 3-1.3431 3-3v-20c0-1.6569-1.34-3-3-3z"
                  opacity=".3"/>
            <path d="m65 118h20c1.6569 0 3-1.343 3-3v-20c0-1.6569-1.3431-3-3-3h-20c-1.6569 0-3 1.3431-3 3v20c0 1.657 1.3431 3 3 3z"/>
            <path d="m1645 118h-20c-1.66 0-3-1.343-3-3v-20c0-1.6569 1.34-3 3-3h20c1.66 0 3 1.3431 3 3v20c0 1.657-1.34 3-3 3z"/>
            <path d="m35 208h20c1.6569 0 3-1.343 3-3v-20c0-1.657-1.3431-3-3-3h-20c-1.6569 0-3 1.343-3 3v20c0 1.657 1.3431 3 3 3z"/>
            <path d="m1675 208h-20c-1.66 0-3-1.343-3-3v-20c0-1.657 1.34-3 3-3h20c1.66 0 3 1.343 3 3v20c0 1.657-1.34 3-3 3z"/>
            <path d="m5 208h20c1.6569 0 3-1.343 3-3v-20c0-1.657-1.3431-3-3-3h-20c-1.65685 0-3 1.343-3 3v20c0 1.657 1.34315 3 3 3z"/>
            <path d="m5 238h20c1.6569 0 3-1.343 3-3v-20c0-1.657-1.3431-3-3-3h-20c-1.65685 0-3 1.343-3 3v20c0 1.657 1.34315 3 3 3z"/>
            <path d="m5 268h20c1.6569 0 3-1.343 3-3v-20c0-1.657-1.3431-3-3-3h-20c-1.65685 0-3 1.343-3 3v20c0 1.657 1.34315 3 3 3z"/>
            <path d="m1705 208h-20c-1.66 0-3-1.343-3-3v-20c0-1.657 1.34-3 3-3h20c1.66 0 3 1.343 3 3v20c0 1.657-1.34 3-3 3z"/>
            <path d="m1705 238h-20c-1.66 0-3-1.343-3-3v-20c0-1.657 1.34-3 3-3h20c1.66 0 3 1.343 3 3v20c0 1.657-1.34 3-3 3z"/>
            <path d="m1705 268h-20c-1.66 0-3-1.343-3-3v-20c0-1.657 1.34-3 3-3h20c1.66 0 3 1.343 3 3v20c0 1.657-1.34 3-3 3z"/>
            <path d="m95 88h20c1.657 0 3-1.3431 3-3v-20c0-1.6569-1.343-3-3-3h-20c-1.6568 0-3 1.3431-3 3v20c0 1.6569 1.3432 3 3 3z"/>
            <path d="m95 178h20c1.657 0 3-1.343 3-3v-20c0-1.657-1.343-3-3-3h-20c-1.6568 0-3 1.343-3 3v20c0 1.657 1.3432 3 3 3z"/>
            <path d="m95 148h20c1.657 0 3-1.343 3-3v-20c0-1.657-1.343-3-3-3h-20c-1.6568 0-3 1.343-3 3v20c0 1.657 1.3432 3 3 3z"
                  opacity=".5"/>
            <path d="m95 298h20c1.657 0 3-1.343 3-3v-20c0-1.657-1.343-3-3-3h-20c-1.6568 0-3 1.343-3 3v20c0 1.657 1.3432 3 3 3z"/>
            <path d="m95 328h20c1.657 0 3-1.343 3-3v-20c0-1.657-1.343-3-3-3h-20c-1.6568 0-3 1.343-3 3v20c0 1.657 1.3432 3 3 3z"/>
            <path d="m95 268h20c1.657 0 3-1.343 3-3v-20c0-1.657-1.343-3-3-3h-20c-1.6568 0-3 1.343-3 3v20c0 1.657 1.3432 3 3 3z"/>
            <path d="m1615 88h-20c-1.66 0-3-1.3431-3-3v-20c0-1.6569 1.34-3 3-3h20c1.66 0 3 1.3431 3 3v20c0 1.6569-1.34 3-3 3z"/>
            <path d="m1615 178h-20c-1.66 0-3-1.343-3-3v-20c0-1.657 1.34-3 3-3h20c1.66 0 3 1.343 3 3v20c0 1.657-1.34 3-3 3z"/>
            <path d="m1615 148h-20c-1.66 0-3-1.343-3-3v-20c0-1.657 1.34-3 3-3h20c1.66 0 3 1.343 3 3v20c0 1.657-1.34 3-3 3z"
                  opacity=".5"/>
            <path d="m1615 298h-20c-1.66 0-3-1.343-3-3v-20c0-1.657 1.34-3 3-3h20c1.66 0 3 1.343 3 3v20c0 1.657-1.34 3-3 3z"/>
            <path d="m1615 328h-20c-1.66 0-3-1.343-3-3v-20c0-1.657 1.34-3 3-3h20c1.66 0 3 1.343 3 3v20c0 1.657-1.34 3-3 3z"/>
            <path d="m1615 268h-20c-1.66 0-3-1.343-3-3v-20c0-1.657 1.34-3 3-3h20c1.66 0 3 1.343 3 3v20c0 1.657-1.34 3-3 3z"/>
            <path d="m125 358h20c1.657 0 3-1.343 3-3v-20c0-1.657-1.343-3-3-3h-20c-1.657 0-3 1.343-3 3v20c0 1.657 1.343 3 3 3z"
                  opacity=".6"/>
            <path d="m125 298h20c1.657 0 3-1.343 3-3v-20c0-1.657-1.343-3-3-3h-20c-1.657 0-3 1.343-3 3v20c0 1.657 1.343 3 3 3z"/>
            <path d="m125 208h20c1.657 0 3-1.343 3-3v-20c0-1.657-1.343-3-3-3h-20c-1.657 0-3 1.343-3 3v20c0 1.657 1.343 3 3 3z"
                  opacity=".5"/>
            <path d="m125 178h20c1.657 0 3-1.343 3-3v-20c0-1.657-1.343-3-3-3h-20c-1.657 0-3 1.343-3 3v20c0 1.657 1.343 3 3 3z"
                  opacity=".5"/>
            <path d="m125 148h20c1.657 0 3-1.343 3-3v-20c0-1.657-1.343-3-3-3h-20c-1.657 0-3 1.343-3 3v20c0 1.657 1.343 3 3 3z"/>
            <path d="m145 92h-20c-1.657 0-3 1.3431-3 3v20c0 1.657 1.343 3 3 3h20c1.657 0 3-1.343 3-3v-20c0-1.6569-1.343-3-3-3z"
                  opacity=".7"/>
            <path d="m65 178h20c1.6569 0 3-1.343 3-3v-20c0-1.657-1.3431-3-3-3h-20c-1.6569 0-3 1.343-3 3v20c0 1.657 1.3431 3 3 3z"
                  opacity=".3"/>
            <path d="m65 208h20c1.6569 0 3-1.343 3-3v-20c0-1.657-1.3431-3-3-3h-20c-1.6569 0-3 1.343-3 3v20c0 1.657 1.3431 3 3 3z"/>
            <path d="m65 328h20c1.6569 0 3-1.343 3-3v-20c0-1.657-1.3431-3-3-3h-20c-1.6569 0-3 1.343-3 3v20c0 1.657 1.3431 3 3 3z"
                  opacity=".2"/>
            <path d="m65 268h20c1.6569 0 3-1.343 3-3v-20c0-1.657-1.3431-3-3-3h-20c-1.6569 0-3 1.343-3 3v20c0 1.657 1.3431 3 3 3z"
                  opacity=".5"/>
            <path d="m65 238h20c1.6569 0 3-1.343 3-3v-20c0-1.657-1.3431-3-3-3h-20c-1.6569 0-3 1.343-3 3v20c0 1.657 1.3431 3 3 3z"/>
            <path d="m65 298h20c1.6569 0 3-1.343 3-3v-20c0-1.657-1.3431-3-3-3h-20c-1.6569 0-3 1.343-3 3v20c0 1.657 1.3431 3 3 3z"/>
            <path d="m1645 178h-20c-1.66 0-3-1.343-3-3v-20c0-1.657 1.34-3 3-3h20c1.66 0 3 1.343 3 3v20c0 1.657-1.34 3-3 3z"
                  opacity=".3"/>
            <path d="m1645 208h-20c-1.66 0-3-1.343-3-3v-20c0-1.657 1.34-3 3-3h20c1.66 0 3 1.343 3 3v20c0 1.657-1.34 3-3 3z"/>
            <path d="m1645 328h-20c-1.66 0-3-1.343-3-3v-20c0-1.657 1.34-3 3-3h20c1.66 0 3 1.343 3 3v20c0 1.657-1.34 3-3 3z"
                  opacity=".2"/>
            <path d="m1645 268h-20c-1.66 0-3-1.343-3-3v-20c0-1.657 1.34-3 3-3h20c1.66 0 3 1.343 3 3v20c0 1.657-1.34 3-3 3z"
                  opacity=".5"/>
            <path d="m1645 238h-20c-1.66 0-3-1.343-3-3v-20c0-1.657 1.34-3 3-3h20c1.66 0 3 1.343 3 3v20c0 1.657-1.34 3-3 3z"/>
            <path d="m1645 298h-20c-1.66 0-3-1.343-3-3v-20c0-1.657 1.34-3 3-3h20c1.66 0 3 1.343 3 3v20c0 1.657-1.34 3-3 3z"/>
            <path d="m155 178h20c1.657 0 3-1.343 3-3v-20c0-1.657-1.343-3-3-3h-20c-1.657 0-3 1.343-3 3v20c0 1.657 1.343 3 3 3z"
                  opacity=".5"/>
            <path d="m155 58h20c1.657 0 3-1.3431 3-3v-20c0-1.6569-1.343-3-3-3h-20c-1.657 0-3 1.3431-3 3v20c0 1.6569 1.343 3 3 3z"
                  opacity=".3"/>
            <path d="m155 28h20c1.657 0 3-1.3431 3-3v-20c0-1.65685-1.343-3-3-3h-20c-1.657 0-3 1.34315-3 3v20c0 1.6569 1.343 3 3 3z"/>
            <path d="m155 118h20c1.657 0 3-1.343 3-3v-20c0-1.6569-1.343-3-3-3h-20c-1.657 0-3 1.3431-3 3v20c0 1.657 1.343 3 3 3z"
                  opacity=".5"/>
            <path d="m155 88h20c1.657 0 3-1.3431 3-3v-20c0-1.6569-1.343-3-3-3h-20c-1.657 0-3 1.3431-3 3v20c0 1.6569 1.343 3 3 3z"/>
            <path d="m155 328h20c1.657 0 3-1.343 3-3v-20c0-1.657-1.343-3-3-3h-20c-1.657 0-3 1.343-3 3v20c0 1.657 1.343 3 3 3z"
                  opacity=".2"/>
            <path d="m155 268h20c1.657 0 3-1.343 3-3v-20c0-1.657-1.343-3-3-3h-20c-1.657 0-3 1.343-3 3v20c0 1.657 1.343 3 3 3z"
                  opacity=".5"/>
            <path d="m155 238h20c1.657 0 3-1.343 3-3v-20c0-1.657-1.343-3-3-3h-20c-1.657 0-3 1.343-3 3v20c0 1.657 1.343 3 3 3z"
                  opacity=".5"/>
            <path d="m155 298h20c1.657 0 3-1.343 3-3v-20c0-1.657-1.343-3-3-3h-20c-1.657 0-3 1.343-3 3v20c0 1.657 1.343 3 3 3z"/>
            <path d="m155 358h20c1.657 0 3-1.343 3-3v-20c0-1.657-1.343-3-3-3h-20c-1.657 0-3 1.343-3 3v20c0 1.657 1.343 3 3 3z"/>
            <path d="m155 388h20c1.657 0 3-1.343 3-3v-20c0-1.657-1.343-3-3-3h-20c-1.657 0-3 1.343-3 3v20c0 1.657 1.343 3 3 3z"
                  opacity=".3"/>
            <path d="m395 178h20c1.657 0 3-1.343 3-3v-20c0-1.657-1.343-3-3-3h-20c-1.657 0-3 1.343-3 3v20c0 1.657 1.343 3 3 3z"/>
            <path d="m395 58h20c1.657 0 3-1.3431 3-3v-20c0-1.6569-1.343-3-3-3h-20c-1.657 0-3 1.3431-3 3v20c0 1.6569 1.343 3 3 3z"
                  opacity=".3"/>
            <path d="m395 28h20c1.657 0 3-1.3431 3-3v-20c0-1.65685-1.343-3-3-3h-20c-1.657 0-3 1.34315-3 3v20c0 1.6569 1.343 3 3 3z"/>
            <path d="m395 118h20c1.657 0 3-1.343 3-3v-20c0-1.6569-1.343-3-3-3h-20c-1.657 0-3 1.3431-3 3v20c0 1.657 1.343 3 3 3z"
                  opacity=".5"/>
            <path d="m395 88h20c1.657 0 3-1.3431 3-3v-20c0-1.6569-1.343-3-3-3h-20c-1.657 0-3 1.3431-3 3v20c0 1.6569 1.343 3 3 3z"/>
            <path d="m395 328h20c1.657 0 3-1.343 3-3v-20c0-1.657-1.343-3-3-3h-20c-1.657 0-3 1.343-3 3v20c0 1.657 1.343 3 3 3z"
                  opacity=".2"/>
            <path d="m395 268h20c1.657 0 3-1.343 3-3v-20c0-1.657-1.343-3-3-3h-20c-1.657 0-3 1.343-3 3v20c0 1.657 1.343 3 3 3z"
                  opacity=".5"/>
            <path d="m395 238h20c1.657 0 3-1.343 3-3v-20c0-1.657-1.343-3-3-3h-20c-1.657 0-3 1.343-3 3v20c0 1.657 1.343 3 3 3z"
                  opacity=".5"/>
            <path d="m395 298h20c1.657 0 3-1.343 3-3v-20c0-1.657-1.343-3-3-3h-20c-1.657 0-3 1.343-3 3v20c0 1.657 1.343 3 3 3z"/>
            <path d="m395 358h20c1.657 0 3-1.343 3-3v-20c0-1.657-1.343-3-3-3h-20c-1.657 0-3 1.343-3 3v20c0 1.657 1.343 3 3 3z"
                  opacity=".4"/>
            <path d="m395 388h20c1.657 0 3-1.343 3-3v-20c0-1.657-1.343-3-3-3h-20c-1.657 0-3 1.343-3 3v20c0 1.657 1.343 3 3 3z"
                  opacity=".3"/>
            <path d="m1105 178h-20c-1.66 0-3-1.343-3-3v-20c0-1.657 1.34-3 3-3h20c1.66 0 3 1.343 3 3v20c0 1.657-1.34 3-3 3z"/>
            <path d="m1105 58h-20c-1.66 0-3-1.3431-3-3v-20c0-1.6569 1.34-3 3-3h20c1.66 0 3 1.3431 3 3v20c0 1.6569-1.34 3-3 3z"
                  opacity=".3"/>
            <path d="m1105 28h-20c-1.66 0-3-1.3431-3-3v-20c0-1.65685 1.34-3 3-3h20c1.66 0 3 1.34315 3 3v20c0 1.6569-1.34 3-3 3z"/>
            <path d="m1105 118h-20c-1.66 0-3-1.343-3-3v-20c0-1.6569 1.34-3 3-3h20c1.66 0 3 1.3431 3 3v20c0 1.657-1.34 3-3 3z"
                  opacity=".5"/>
            <path d="m1105 88h-20c-1.66 0-3-1.3431-3-3v-20c0-1.6569 1.34-3 3-3h20c1.66 0 3 1.3431 3 3v20c0 1.6569-1.34 3-3 3z"/>
            <path d="m1105 328h-20c-1.66 0-3-1.343-3-3v-20c0-1.657 1.34-3 3-3h20c1.66 0 3 1.343 3 3v20c0 1.657-1.34 3-3 3z"
                  opacity=".2"/>
            <path d="m1105 268h-20c-1.66 0-3-1.343-3-3v-20c0-1.657 1.34-3 3-3h20c1.66 0 3 1.343 3 3v20c0 1.657-1.34 3-3 3z"
                  opacity=".5"/>
            <path d="m1105 238h-20c-1.66 0-3-1.343-3-3v-20c0-1.657 1.34-3 3-3h20c1.66 0 3 1.343 3 3v20c0 1.657-1.34 3-3 3z"
                  opacity=".5"/>
            <path d="m1105 298h-20c-1.66 0-3-1.343-3-3v-20c0-1.657 1.34-3 3-3h20c1.66 0 3 1.343 3 3v20c0 1.657-1.34 3-3 3z"/>
            <path d="m1105 358h-20c-1.66 0-3-1.343-3-3v-20c0-1.657 1.34-3 3-3h20c1.66 0 3 1.343 3 3v20c0 1.657-1.34 3-3 3z"
                  opacity=".4"/>
            <path d="m1105 388h-20c-1.66 0-3-1.343-3-3v-20c0-1.657 1.34-3 3-3h20c1.66 0 3 1.343 3 3v20c0 1.657-1.34 3-3 3z"
                  opacity=".3"/>
            <path d="m1345 178h-20c-1.66 0-3-1.343-3-3v-20c0-1.657 1.34-3 3-3h20c1.66 0 3 1.343 3 3v20c0 1.657-1.34 3-3 3z"/>
            <path d="m1345 58h-20c-1.66 0-3-1.3431-3-3v-20c0-1.6569 1.34-3 3-3h20c1.66 0 3 1.3431 3 3v20c0 1.6569-1.34 3-3 3z"
                  opacity=".3"/>
            <path d="m1345 28h-20c-1.66 0-3-1.3431-3-3v-20c0-1.65685 1.34-3 3-3h20c1.66 0 3 1.34315 3 3v20c0 1.6569-1.34 3-3 3z"/>
            <path d="m1345 118h-20c-1.66 0-3-1.343-3-3v-20c0-1.6569 1.34-3 3-3h20c1.66 0 3 1.3431 3 3v20c0 1.657-1.34 3-3 3z"
                  opacity=".5"/>
            <path d="m1345 88h-20c-1.66 0-3-1.3431-3-3v-20c0-1.6569 1.34-3 3-3h20c1.66 0 3 1.3431 3 3v20c0 1.6569-1.34 3-3 3z"/>
            <path d="m1345 328h-20c-1.66 0-3-1.343-3-3v-20c0-1.657 1.34-3 3-3h20c1.66 0 3 1.343 3 3v20c0 1.657-1.34 3-3 3z"
                  opacity=".2"/>
            <path d="m1345 268h-20c-1.66 0-3-1.343-3-3v-20c0-1.657 1.34-3 3-3h20c1.66 0 3 1.343 3 3v20c0 1.657-1.34 3-3 3z"
                  opacity=".5"/>
            <path d="m1345 238h-20c-1.66 0-3-1.343-3-3v-20c0-1.657 1.34-3 3-3h20c1.66 0 3 1.343 3 3v20c0 1.657-1.34 3-3 3z"
                  opacity=".5"/>
            <path d="m1345 298h-20c-1.66 0-3-1.343-3-3v-20c0-1.657 1.34-3 3-3h20c1.66 0 3 1.343 3 3v20c0 1.657-1.34 3-3 3z"/>
            <path d="m1345 358h-20c-1.66 0-3-1.343-3-3v-20c0-1.657 1.34-3 3-3h20c1.66 0 3 1.343 3 3v20c0 1.657-1.34 3-3 3z"
                  opacity=".4"/>
            <path d="m1345 388h-20c-1.66 0-3-1.343-3-3v-20c0-1.657 1.34-3 3-3h20c1.66 0 3 1.343 3 3v20c0 1.657-1.34 3-3 3z"
                  opacity=".3"/>
            <path d="m685 178h-20c-1.657 0-3-1.343-3-3v-20c0-1.657 1.343-3 3-3h20c1.657 0 3 1.343 3 3v20c0 1.657-1.343 3-3 3z"
                  opacity=".5"/>
            <path d="m685 58h-20c-1.657 0-3-1.3431-3-3v-20c0-1.6569 1.343-3 3-3h20c1.657 0 3 1.3431 3 3v20c0 1.6569-1.343 3-3 3z"
                  opacity=".3"/>
            <path d="m685 28h-20c-1.657 0-3-1.3431-3-3v-20c0-1.65685 1.343-3 3-3h20c1.657 0 3 1.34315 3 3v20c0 1.6569-1.343 3-3 3z"/>
            <path d="m685 118h-20c-1.657 0-3-1.343-3-3v-20c0-1.6569 1.343-3 3-3h20c1.657 0 3 1.3431 3 3v20c0 1.657-1.343 3-3 3z"
                  opacity=".5"/>
            <path d="m685 88h-20c-1.657 0-3-1.3431-3-3v-20c0-1.6569 1.343-3 3-3h20c1.657 0 3 1.3431 3 3v20c0 1.6569-1.343 3-3 3z"/>
            <path d="m685 328h-20c-1.657 0-3-1.343-3-3v-20c0-1.657 1.343-3 3-3h20c1.657 0 3 1.343 3 3v20c0 1.657-1.343 3-3 3z"
                  opacity=".2"/>
            <path d="m685 268h-20c-1.657 0-3-1.343-3-3v-20c0-1.657 1.343-3 3-3h20c1.657 0 3 1.343 3 3v20c0 1.657-1.343 3-3 3z"
                  opacity=".5"/>
            <path d="m685 238h-20c-1.657 0-3-1.343-3-3v-20c0-1.657 1.343-3 3-3h20c1.657 0 3 1.343 3 3v20c0 1.657-1.343 3-3 3z"
                  opacity=".5"/>
            <path d="m685 298h-20c-1.657 0-3-1.343-3-3v-20c0-1.657 1.343-3 3-3h20c1.657 0 3 1.343 3 3v20c0 1.657-1.343 3-3 3z"/>
            <path d="m685 358h-20c-1.657 0-3-1.343-3-3v-20c0-1.657 1.343-3 3-3h20c1.657 0 3 1.343 3 3v20c0 1.657-1.343 3-3 3z"
                  opacity=".9"/>
            <path d="m685 388h-20c-1.657 0-3-1.343-3-3v-20c0-1.657 1.343-3 3-3h20c1.657 0 3 1.343 3 3v20c0 1.657-1.343 3-3 3z"
                  opacity=".3"/>
            <path d="m815 178h20c1.657 0 3-1.343 3-3v-20c0-1.657-1.343-3-3-3h-20c-1.657 0-3 1.343-3 3v20c0 1.657 1.343 3 3 3z"
                  opacity=".5"/>
            <path d="m815 58h20c1.657 0 3-1.3431 3-3v-20c0-1.6569-1.343-3-3-3h-20c-1.657 0-3 1.3431-3 3v20c0 1.6569 1.343 3 3 3z"
                  opacity=".3"/>
            <path d="m815 28h20c1.657 0 3-1.3431 3-3v-20c0-1.65685-1.343-3-3-3h-20c-1.657 0-3 1.34315-3 3v20c0 1.6569 1.343 3 3 3z"/>
            <path d="m815 118h20c1.657 0 3-1.343 3-3v-20c0-1.6569-1.343-3-3-3h-20c-1.657 0-3 1.3431-3 3v20c0 1.657 1.343 3 3 3z"
                  opacity=".5"/>
            <path d="m815 88h20c1.657 0 3-1.3431 3-3v-20c0-1.6569-1.343-3-3-3h-20c-1.657 0-3 1.3431-3 3v20c0 1.6569 1.343 3 3 3z"/>
            <path d="m815 328h20c1.657 0 3-1.343 3-3v-20c0-1.657-1.343-3-3-3h-20c-1.657 0-3 1.343-3 3v20c0 1.657 1.343 3 3 3z"
                  opacity=".2"/>
            <path d="m815 268h20c1.657 0 3-1.343 3-3v-20c0-1.657-1.343-3-3-3h-20c-1.657 0-3 1.343-3 3v20c0 1.657 1.343 3 3 3z"
                  opacity=".5"/>
            <path d="m815 238h20c1.657 0 3-1.343 3-3v-20c0-1.657-1.343-3-3-3h-20c-1.657 0-3 1.343-3 3v20c0 1.657 1.343 3 3 3z"
                  opacity=".5"/>
            <path d="m815 298h20c1.657 0 3-1.343 3-3v-20c0-1.657-1.343-3-3-3h-20c-1.657 0-3 1.343-3 3v20c0 1.657 1.343 3 3 3z"/>
            <path d="m815 388h20c1.657 0 3-1.343 3-3v-20c0-1.657-1.343-3-3-3h-20c-1.657 0-3 1.343-3 3v20c0 1.657 1.343 3 3 3z"
                  opacity=".3"/>
            <path d="m485 178h20c1.657 0 3-1.343 3-3v-20c0-1.657-1.343-3-3-3h-20c-1.657 0-3 1.343-3 3v20c0 1.657 1.343 3 3 3z"
                  opacity=".9"/>
            <path d="m485 58h20c1.657 0 3-1.3431 3-3v-20c0-1.6569-1.343-3-3-3h-20c-1.657 0-3 1.3431-3 3v20c0 1.6569 1.343 3 3 3z"
                  opacity=".3"/>
            <path d="m485 28h20c1.657 0 3-1.3431 3-3v-20c0-1.65685-1.343-3-3-3h-20c-1.657 0-3 1.34315-3 3v20c0 1.6569 1.343 3 3 3z"/>
            <path d="m485 118h20c1.657 0 3-1.343 3-3v-20c0-1.6569-1.343-3-3-3h-20c-1.657 0-3 1.3431-3 3v20c0 1.657 1.343 3 3 3z"
                  opacity=".5"/>
            <path d="m485 88h20c1.657 0 3-1.3431 3-3v-20c0-1.6569-1.343-3-3-3h-20c-1.657 0-3 1.3431-3 3v20c0 1.6569 1.343 3 3 3z"/>
            <path d="m485 328h20c1.657 0 3-1.343 3-3v-20c0-1.657-1.343-3-3-3h-20c-1.657 0-3 1.343-3 3v20c0 1.657 1.343 3 3 3z"
                  opacity=".2"/>
            <path d="m485 268h20c1.657 0 3-1.343 3-3v-20c0-1.657-1.343-3-3-3h-20c-1.657 0-3 1.343-3 3v20c0 1.657 1.343 3 3 3z"
                  opacity=".5"/>
            <path d="m485 238h20c1.657 0 3-1.343 3-3v-20c0-1.657-1.343-3-3-3h-20c-1.657 0-3 1.343-3 3v20c0 1.657 1.343 3 3 3z"
                  opacity=".5"/>
            <path d="m485 298h20c1.657 0 3-1.343 3-3v-20c0-1.657-1.343-3-3-3h-20c-1.657 0-3 1.343-3 3v20c0 1.657 1.343 3 3 3z"/>
            <path d="m485 358h20c1.657 0 3-1.343 3-3v-20c0-1.657-1.343-3-3-3h-20c-1.657 0-3 1.343-3 3v20c0 1.657 1.343 3 3 3z"/>
            <path d="m485 388h20c1.657 0 3-1.343 3-3v-20c0-1.657-1.343-3-3-3h-20c-1.657 0-3 1.343-3 3v20c0 1.657 1.343 3 3 3z"
                  opacity=".3"/>
            <path d="m1015 178h-20c-1.657 0-3-1.343-3-3v-20c0-1.657 1.343-3 3-3h20c1.66 0 3 1.343 3 3v20c0 1.657-1.34 3-3 3z"
                  opacity=".9"/>
            <path d="m1015 58h-20c-1.657 0-3-1.3431-3-3v-20c0-1.6569 1.343-3 3-3h20c1.66 0 3 1.3431 3 3v20c0 1.6569-1.34 3-3 3z"
                  opacity=".3"/>
            <path d="m1015 28h-20c-1.657 0-3-1.3431-3-3v-20c0-1.65685 1.343-3 3-3h20c1.66 0 3 1.34315 3 3v20c0 1.6569-1.34 3-3 3z"/>
            <path d="m1015 118h-20c-1.657 0-3-1.343-3-3v-20c0-1.6569 1.343-3 3-3h20c1.66 0 3 1.3431 3 3v20c0 1.657-1.34 3-3 3z"
                  opacity=".5"/>
            <path d="m1015 88h-20c-1.657 0-3-1.3431-3-3v-20c0-1.6569 1.343-3 3-3h20c1.66 0 3 1.3431 3 3v20c0 1.6569-1.34 3-3 3z"/>
            <path d="m1015 328h-20c-1.657 0-3-1.343-3-3v-20c0-1.657 1.343-3 3-3h20c1.66 0 3 1.343 3 3v20c0 1.657-1.34 3-3 3z"
                  opacity=".2"/>
            <path d="m1015 268h-20c-1.657 0-3-1.343-3-3v-20c0-1.657 1.343-3 3-3h20c1.66 0 3 1.343 3 3v20c0 1.657-1.34 3-3 3z"
                  opacity=".5"/>
            <path d="m1015 238h-20c-1.657 0-3-1.343-3-3v-20c0-1.657 1.343-3 3-3h20c1.66 0 3 1.343 3 3v20c0 1.657-1.34 3-3 3z"
                  opacity=".5"/>
            <path d="m1015 298h-20c-1.657 0-3-1.343-3-3v-20c0-1.657 1.343-3 3-3h20c1.66 0 3 1.343 3 3v20c0 1.657-1.34 3-3 3z"/>
            <path d="m1015 358h-20c-1.657 0-3-1.343-3-3v-20c0-1.657 1.343-3 3-3h20c1.66 0 3 1.343 3 3v20c0 1.657-1.34 3-3 3z"/>
            <path d="m1015 388h-20c-1.657 0-3-1.343-3-3v-20c0-1.657 1.343-3 3-3h20c1.66 0 3 1.343 3 3v20c0 1.657-1.34 3-3 3z"
                  opacity=".3"/>
            <path d="m1255 178h-20c-1.66 0-3-1.343-3-3v-20c0-1.657 1.34-3 3-3h20c1.66 0 3 1.343 3 3v20c0 1.657-1.34 3-3 3z"
                  opacity=".9"/>
            <path d="m1255 58h-20c-1.66 0-3-1.3431-3-3v-20c0-1.6569 1.34-3 3-3h20c1.66 0 3 1.3431 3 3v20c0 1.6569-1.34 3-3 3z"
                  opacity=".3"/>
            <path d="m1255 28h-20c-1.66 0-3-1.3431-3-3v-20c0-1.65685 1.34-3 3-3h20c1.66 0 3 1.34315 3 3v20c0 1.6569-1.34 3-3 3z"/>
            <path d="m1255 118h-20c-1.66 0-3-1.343-3-3v-20c0-1.6569 1.34-3 3-3h20c1.66 0 3 1.3431 3 3v20c0 1.657-1.34 3-3 3z"
                  opacity=".5"/>
            <path d="m1255 88h-20c-1.66 0-3-1.3431-3-3v-20c0-1.6569 1.34-3 3-3h20c1.66 0 3 1.3431 3 3v20c0 1.6569-1.34 3-3 3z"/>
            <path d="m1255 328h-20c-1.66 0-3-1.343-3-3v-20c0-1.657 1.34-3 3-3h20c1.66 0 3 1.343 3 3v20c0 1.657-1.34 3-3 3z"
                  opacity=".2"/>
            <path d="m1255 268h-20c-1.66 0-3-1.343-3-3v-20c0-1.657 1.34-3 3-3h20c1.66 0 3 1.343 3 3v20c0 1.657-1.34 3-3 3z"
                  opacity=".5"/>
            <path d="m1255 238h-20c-1.66 0-3-1.343-3-3v-20c0-1.657 1.34-3 3-3h20c1.66 0 3 1.343 3 3v20c0 1.657-1.34 3-3 3z"
                  opacity=".5"/>
            <path d="m1255 298h-20c-1.66 0-3-1.343-3-3v-20c0-1.657 1.34-3 3-3h20c1.66 0 3 1.343 3 3v20c0 1.657-1.34 3-3 3z"/>
            <path d="m1255 358h-20c-1.66 0-3-1.343-3-3v-20c0-1.657 1.34-3 3-3h20c1.66 0 3 1.343 3 3v20c0 1.657-1.34 3-3 3z"/>
            <path d="m1255 388h-20c-1.66 0-3-1.343-3-3v-20c0-1.657 1.34-3 3-3h20c1.66 0 3 1.343 3 3v20c0 1.657-1.34 3-3 3z"
                  opacity=".3"/>
            <path d="m595 178h-20c-1.657 0-3-1.343-3-3v-20c0-1.657 1.343-3 3-3h20c1.657 0 3 1.343 3 3v20c0 1.657-1.343 3-3 3z"
                  opacity=".5"/>
            <path d="m595 58h-20c-1.657 0-3-1.3431-3-3v-20c0-1.6569 1.343-3 3-3h20c1.657 0 3 1.3431 3 3v20c0 1.6569-1.343 3-3 3z"
                  opacity=".3"/>
            <path d="m595 28h-20c-1.657 0-3-1.3431-3-3v-20c0-1.65685 1.343-3 3-3h20c1.657 0 3 1.34315 3 3v20c0 1.6569-1.343 3-3 3z"/>
            <path d="m595 118h-20c-1.657 0-3-1.343-3-3v-20c0-1.6569 1.343-3 3-3h20c1.657 0 3 1.3431 3 3v20c0 1.657-1.343 3-3 3z"
                  opacity=".5"/>
            <path d="m595 88h-20c-1.657 0-3-1.3431-3-3v-20c0-1.6569 1.343-3 3-3h20c1.657 0 3 1.3431 3 3v20c0 1.6569-1.343 3-3 3z"/>
            <path d="m595 328h-20c-1.657 0-3-1.343-3-3v-20c0-1.657 1.343-3 3-3h20c1.657 0 3 1.343 3 3v20c0 1.657-1.343 3-3 3z"
                  opacity=".2"/>
            <path d="m595 268h-20c-1.657 0-3-1.343-3-3v-20c0-1.657 1.343-3 3-3h20c1.657 0 3 1.343 3 3v20c0 1.657-1.343 3-3 3z"
                  opacity=".5"/>
            <path d="m595 238h-20c-1.657 0-3-1.343-3-3v-20c0-1.657 1.343-3 3-3h20c1.657 0 3 1.343 3 3v20c0 1.657-1.343 3-3 3z"
                  opacity=".5"/>
            <path d="m595 298h-20c-1.657 0-3-1.343-3-3v-20c0-1.657 1.343-3 3-3h20c1.657 0 3 1.343 3 3v20c0 1.657-1.343 3-3 3z"/>
            <path d="m595 358h-20c-1.657 0-3-1.343-3-3v-20c0-1.657 1.343-3 3-3h20c1.657 0 3 1.343 3 3v20c0 1.657-1.343 3-3 3z"/>
            <path d="m595 388h-20c-1.657 0-3-1.343-3-3v-20c0-1.657 1.343-3 3-3h20c1.657 0 3 1.343 3 3v20c0 1.657-1.343 3-3 3z"
                  opacity=".3"/>
            <path d="m905 178h20c1.657 0 3-1.343 3-3v-20c0-1.657-1.343-3-3-3h-20c-1.657 0-3 1.343-3 3v20c0 1.657 1.343 3 3 3z"
                  opacity=".5"/>
            <path d="m905 58h20c1.657 0 3-1.3431 3-3v-20c0-1.6569-1.343-3-3-3h-20c-1.657 0-3 1.3431-3 3v20c0 1.6569 1.343 3 3 3z"
                  opacity=".3"/>
            <path d="m905 28h20c1.657 0 3-1.3431 3-3v-20c0-1.65685-1.343-3-3-3h-20c-1.657 0-3 1.34315-3 3v20c0 1.6569 1.343 3 3 3z"/>
            <path d="m905 118h20c1.657 0 3-1.343 3-3v-20c0-1.6569-1.343-3-3-3h-20c-1.657 0-3 1.3431-3 3v20c0 1.657 1.343 3 3 3z"
                  opacity=".5"/>
            <path d="m905 88h20c1.657 0 3-1.3431 3-3v-20c0-1.6569-1.343-3-3-3h-20c-1.657 0-3 1.3431-3 3v20c0 1.6569 1.343 3 3 3z"/>
            <path d="m905 328h20c1.657 0 3-1.343 3-3v-20c0-1.657-1.343-3-3-3h-20c-1.657 0-3 1.343-3 3v20c0 1.657 1.343 3 3 3z"
                  opacity=".2"/>
            <path d="m905 268h20c1.657 0 3-1.343 3-3v-20c0-1.657-1.343-3-3-3h-20c-1.657 0-3 1.343-3 3v20c0 1.657 1.343 3 3 3z"
                  opacity=".5"/>
            <path d="m905 238h20c1.657 0 3-1.343 3-3v-20c0-1.657-1.343-3-3-3h-20c-1.657 0-3 1.343-3 3v20c0 1.657 1.343 3 3 3z"
                  opacity=".5"/>
            <path d="m905 298h20c1.657 0 3-1.343 3-3v-20c0-1.657-1.343-3-3-3h-20c-1.657 0-3 1.343-3 3v20c0 1.657 1.343 3 3 3z"/>
            <path d="m905 358h20c1.657 0 3-1.343 3-3v-20c0-1.657-1.343-3-3-3h-20c-1.657 0-3 1.343-3 3v20c0 1.657 1.343 3 3 3z"/>
            <path d="m905 388h20c1.657 0 3-1.343 3-3v-20c0-1.657-1.343-3-3-3h-20c-1.657 0-3 1.343-3 3v20c0 1.657 1.343 3 3 3z"
                  opacity=".3"/>
        </g>
    </g>
</svg>