<?xml version="1.0" encoding="UTF-8"?>
<!--
  - /***
  -  ** █ ---------------------------------------------------------------------------------------------------------------------
  -  ** █ ░FRAMEWORK                                  2023-12-01 23:19:27
  -  ** █ ░█▀▀█ █▀▀█ █▀▀▄ █▀▀ ░█─░█ ─▀─ █▀▀▀ █▀▀▀ █▀▀ [App\Modules\Account\Views\Processes\Creator\deny.php]
  -  ** █ ░█─── █──█ █──█ █▀▀ ░█▀▀█ ▀█▀ █─▀█ █─▀█ ▀▀█ Copyright 2023 - CloudEngine S.A.S., Inc. <admin@cgine.com>
  -  ** █ ░█▄▄█ ▀▀▀▀ ▀▀▀─ ▀▀▀ ░█─░█ ▀▀▀ ▀▀▀▀ ▀▀▀▀ ▀▀▀ Para obtener información completa sobre derechos de autor y licencia,
  -  ** █                                             consulte la LICENCIA archivo que se distribuyó con este código fuente.
  -  ** █ ---------------------------------------------------------------------------------------------------------------------
  -  ** █ EL SOFTWARE SE PROPORCIONA -TAL CUAL-, SIN GARANTÍA DE NINGÚN TIPO, EXPRESA O
  -  ** █ IMPLÍCITA, INCLUYENDO PERO NO LIMITADO A LAS GARANTÍAS DE COMERCIABILIDAD,
  -  ** █ APTITUD PARA UN PROPÓSITO PARTICULAR Y NO INFRACCIÓN. EN NINGÚN CASO SERÁ
  -  ** █ LOS AUTORES O TITULARES DE LOS DERECHOS DE AUTOR SERÁN RESPONSABLES DE CUALQUIER
  -  ** █ RECLAMO, DAÑOS U OTROS RESPONSABILIDAD, YA SEA EN UNA ACCIÓN DE CONTRATO,
  -  ** █ AGRAVIO O DE OTRO MODO, QUE SURJA DESDE, FUERA O EN RELACIÓN CON EL SOFTWARE
  -  ** █ O EL USO U OTROS NEGOCIACIONES EN EL SOFTWARE.
  -  ** █ ---------------------------------------------------------------------------------------------------------------------
  -  ** █ @Author Jose Alexis Correa Valencia <jalexiscv@gmail.com>
  -  ** █ @link https://www.codehiggs.com
  -  ** █ @Version 1.5.0 @since PHP 7, PHP 8
  -  ** █ ---------------------------------------------------------------------------------------------------------------------
  -  ** █ Datos recibidos desde el controlador - @ModuleController
  -  ** █ ---------------------------------------------------------------------------------------------------------------------
  -  ** █ @authentication, @request, @dates, @parent, @component, @view, @oid, @views, @prefix
  -  ** █ ---------------------------------------------------------------------------------------------------------------------
  -  ***/
  -->

<!DOCTYPE svg PUBLIC "-//W3C//DTD SVG 1.0//EN" "http://www.w3.org/TR/2001/REC-SVG-20010904/DTD/svg10.dtd">
<!-- Creator: CorelDRAW 2020 (64-Bit) -->
<svg xmlns:xlink="http://www.w3.org/1999/xlink" xmlns:xodm="http://www.corel.com/coreldraw/odm/2003"
     xmlns="http://www.w3.org/2000/svg" xml:space="preserve" width="180px"
     height="161px"
     version="1.0"
     style="shape-rendering:geometricPrecision; text-rendering:geometricPrecision; image-rendering:optimizeQuality; fill-rule:evenodd; clip-rule:evenodd"
     viewBox="0 0 37.31 33.35">
 <defs>
  <style type="text/css">
   <![CDATA[
    .fil0 {fill:#022559}
    .fil2 {fill:#022559;fill-rule:nonzero;fill-opacity:0.501961}
    .fil1 {fill:#022559;fill-opacity:0.600000}
   ]]>
  </style>
 </defs>
    <g id="Capa_x0020_1">
  <metadata id="CorelCorpID_0Corel-Layer"/>
        <path class="fil0"
              d="M21.95 15.36c5.22,3.01 1.95,1.12 8.46,4.88 0.57,0.33 0.76,1.06 0.44,1.62l-1.35 2.34c-0.33,0.57 -1.06,0.76 -1.63,0.44l-9.22 -5.33 -9.23 5.33c-0.56,0.32 -1.29,0.13 -1.62,-0.44l-1.35 -2.34c-0.32,-0.56 -0.13,-1.3 0.44,-1.62l9.22 -5.1 0 -6.92 0 -3.96c0,-0.65 0.54,-1.18 1.19,-1.18l2.7 0c0.65,0 1.19,0.53 1.19,1.18l0 10.68c0.22,0.11 0.47,0.25 0.76,0.42z"/>
        <path class="fil1"
              d="M21.95 17.89c5.22,-3.01 1.95,-1.13 8.46,-4.89 0.57,-0.33 0.76,-1.05 0.44,-1.62l-1.35 -2.34c-0.33,-0.56 -1.06,-0.76 -1.62,-0.43l-9.23 5.32 -9.23 -5.32c-0.56,-0.33 -1.29,-0.13 -1.62,0.43l-1.35 2.34c-0.32,0.56 -0.13,1.31 0.44,1.62l9.22 5.11 0 6.91 0 3.96c0,0.65 0.54,1.19 1.19,1.19l2.7 0c0.65,0 1.19,-0.54 1.19,-1.19l0 -10.68c0.22,-0.11 0.47,-0.25 0.76,-0.41z"/>
        <path class="fil2"
              d="M18.84 8.47l-0.19 0 0 0.18 0.19 0 0 -0.18zm-0.55 0l-0.18 0 0 0.19 0.19 -0.01 -0.01 -0.18zm-0.74 0.01l-0.19 0.01 0.01 0.18 0.18 0 0 -0.19zm-0.75 0.03l-0.19 0.01 0.01 0.18 0.19 -0.01 -0.01 -0.18zm-0.75 0.04l-0.18 0.01 0.01 0.18 0.18 -0.01 -0.01 -0.18zm-0.74 0.05l-0.19 0.01 0.02 0.19 0.18 -0.02 -0.01 -0.18zm-0.75 0.06l-0.18 0.02 0.02 0.19 0.18 -0.02 -0.02 -0.19zm-0.74 0.08l-0.19 0.03 0.03 0.18 0.18 -0.02 -0.02 -0.19zm-0.74 0.1l-0.19 0.02 0.03 0.19 0.18 -0.03 -0.02 -0.18zm-0.74 0.11l-0.19 0.03 0.03 0.18 0.19 -0.03 -0.03 -0.18zm-0.74 0.12l-0.18 0.03 0.03 0.19 0.18 -0.04 -0.03 -0.18zm-0.73 0.14l-0.19 0.04 0.04 0.18 0.18 -0.04 -0.03 -0.18zm-0.74 0.16l-0.18 0.04 0.04 0.18 0.18 -0.04 -0.04 -0.18zm-0.72 0.17l-0.19 0.05 0.05 0.18 0.18 -0.05 -0.04 -0.18zm-0.73 0.19l-0.18 0.05 0.05 0.18 0.18 -0.05 -0.05 -0.18zm-0.72 0.21l-0.17 0.06 0.05 0.17 0.18 -0.05 -0.06 -0.18zm-0.71 0.23l-0.18 0.06 0.07 0.18 0.17 -0.06 -0.06 -0.18zm-0.7 0.25l-0.18 0.07 0.07 0.17 0.17 -0.06 -0.06 -0.18zm-0.7 0.28l-0.17 0.07 0.07 0.17 0.17 -0.07 -0.07 -0.17zm-0.69 0.3l-0.17 0.08 0.08 0.16 0.17 -0.07 -0.08 -0.17zm-0.67 0.32l-0.17 0.09 0.09 0.17 0.16 -0.09 -0.08 -0.17zm-0.66 0.36l-0.16 0.1 0.09 0.16 0.16 -0.1 -0.09 -0.16zm-0.64 0.39l-0.16 0.11 0.1 0.15 0.16 -0.1 -0.1 -0.16zm-0.62 0.43l-0.15 0.12 0.11 0.14 0.15 -0.11 -0.11 -0.15zm-0.59 0.47l-0.14 0.13 0.13 0.14 0.14 -0.13 -0.13 -0.14zm-0.54 0.53l-0.13 0.13 0.14 0.13 0.12 -0.14 -0.13 -0.12zm-0.49 0.57l-0.12 0.15 0.16 0.11 0.11 -0.15 -0.15 -0.11zm-0.42 0.64l-0.09 0.16 0.17 0.09 0.08 -0.17 -0.16 -0.08zm-0.31 0.69l-0.06 0.18 0.18 0.05 0.05 -0.17 -0.17 -0.06zm-0.19 0.74l-0.02 0.19 0.19 0.01 0.02 -0.18 -0.19 -0.02zm-0.03 0.76l0.02 0.19 0.18 -0.02 -0.01 -0.18 -0.19 0.01zm0.12 0.76l0.06 0.18 0.17 -0.06 -0.05 -0.17 -0.18 0.05zm0.27 0.71l0.08 0.17 0.17 -0.09 -0.08 -0.16 -0.17 0.08zm0.37 0.66l0.11 0.15 0.15 -0.11 -0.1 -0.15 -0.16 0.11zm0.47 0.6l0.12 0.14 0.14 -0.13 -0.12 -0.14 -0.14 0.13zm0.52 0.54l0.14 0.13 0.12 -0.14 -0.13 -0.13 -0.13 0.14zm0.57 0.49l0.15 0.12 0.11 -0.15 -0.14 -0.11 -0.12 0.14zm0.61 0.45l0.15 0.1 0.11 -0.15c-0.05,-0.03 -0.11,-0.07 -0.16,-0.11l-0.1 0.16zm0.63 0.4l0.16 0.1 0.1 -0.16 -0.16 -0.1 -0.1 0.16zm0.65 0.38l0.17 0.08 0.08 -0.16 -0.16 -0.09 -0.09 0.17zm0.67 0.34l0.17 0.08 0.08 -0.17 -0.17 -0.08 -0.08 0.17zm0.68 0.31l0.18 0.07 0.07 -0.17 -0.17 -0.07 -0.08 0.17zm0.7 0.28l0.17 0.07 0.07 -0.18 -0.18 -0.06 -0.06 0.17zm0.7 0.26l0.18 0.06 0.06 -0.17 -0.18 -0.06 -0.06 0.17zm0.71 0.24l0.18 0.06 0.05 -0.18 -0.17 -0.06 -0.06 0.18zm0.71 0.22l0.18 0.05 0.06 -0.18 -0.18 -0.05 -0.06 0.18zm0.73 0.2l0.18 0.04 0.04 -0.18 -0.18 -0.04 -0.04 0.18zm0.72 0.18l0.18 0.04 0.05 -0.18 -0.19 -0.04 -0.04 0.18zm0.73 0.16l0.19 0.04 0.03 -0.18 -0.18 -0.04 -0.04 0.18zm0.74 0.15l0.18 0.03 0.03 -0.18 -0.18 -0.04 -0.03 0.19zm0.73 0.13l0.19 0.03 0.03 -0.19 -0.19 -0.03 -0.03 0.19zm0.74 0.11l0.19 0.03 0.02 -0.19 -0.18 -0.02 -0.03 0.18zm0.74 0.1l0.19 0.03 0.02 -0.19 -0.18 -0.02 -0.03 0.18zm0.75 0.09l0.18 0.02 0.02 -0.19 -0.19 -0.02 -0.01 0.19zm0.74 0.07l0.19 0.02 0.01 -0.19 -0.18 -0.02 -0.02 0.19zm0.75 0.06l0.18 0.01 0.01 -0.19 -0.18 -0.01 -0.01 0.19zm0.74 0.04l0.19 0.01 0.01 -0.18 -0.19 -0.01 -0.01 0.18zm0.75 0.03l0.19 0.01 0 -0.19 -0.19 0 0 0.18zm0.75 0.02c0.06,0 0.12,0 0.18,0l0 -0.18c-0.05,-0.01 -0.12,0 -0.18,0l0 0.18zm0.74 0.01l0.19 0 0 -0.19 -0.19 0 0 0.19zm0.75 -0.01l0.19 -0.01 -0.01 -0.18 -0.18 0 0 0.19zm0.75 -0.02l0.18 -0.01 0 -0.19 -0.19 0.01 0.01 0.19zm0.74 -0.04l0.19 -0.01 -0.01 -0.18 -0.19 0.01 0.01 0.18zm0.75 -0.04l0.19 -0.02 -0.02 -0.18 -0.18 0.01 0.01 0.19zm0.75 -0.06l0.18 -0.02 -0.02 -0.19 -0.18 0.02 0.02 0.19zm0.74 -0.08l0.19 -0.02 -0.03 -0.19 -0.18 0.02 0.02 0.19zm0.74 -0.09l0.19 -0.02 -0.03 -0.19 -0.18 0.03 0.02 0.18zm0.74 -0.1l0.19 -0.03 -0.03 -0.18 -0.18 0.02 0.02 0.19zm0.74 -0.12l0.19 -0.03 -0.04 -0.19 -0.18 0.04 0.03 0.18zm0.74 -0.13l0.18 -0.04 -0.04 -0.18 -0.18 0.03 0.04 0.19zm0.73 -0.16l0.18 -0.03 -0.04 -0.19 -0.18 0.04 0.04 0.18zm0.73 -0.16l0.18 -0.05 -0.04 -0.18 -0.18 0.05 0.04 0.18zm0.72 -0.19l0.19 -0.05 -0.05 -0.18 -0.18 0.05 0.04 0.18zm0.73 -0.2l0.17 -0.05 -0.05 -0.18 -0.18 0.05 0.06 0.18zm0.71 -0.22l0.18 -0.06 -0.06 -0.18c-0.06,0.02 -0.12,0.04 -0.18,0.06l0.06 0.18zm0.71 -0.25l0.17 -0.06 -0.06 -0.17 -0.18 0.06 0.07 0.17zm0.7 -0.26l0.17 -0.07 -0.07 -0.17 -0.17 0.07 0.07 0.17zm0.69 -0.29l0.17 -0.08 -0.08 -0.17 -0.17 0.08 0.08 0.17zm0.68 -0.32l0.17 -0.08 -0.09 -0.17 -0.16 0.08 0.08 0.17zm0.66 -0.35l0.17 -0.09 -0.09 -0.16 -0.17 0.09 0.09 0.16zm0.65 -0.37l0.16 -0.1 -0.1 -0.16 -0.16 0.1 0.1 0.16zm0.63 -0.42l0.15 -0.11 -0.11 -0.15 -0.15 0.11 0.11 0.15zm0.6 -0.45l0.14 -0.13 -0.12 -0.14 -0.14 0.12 0.12 0.15zm0.56 -0.51l0.13 -0.13 -0.13 -0.13 -0.13 0.13 0.13 0.13zm0.51 -0.55l0.12 -0.15 -0.15 -0.11 -0.11 0.14 0.14 0.12zm0.45 -0.62l0.1 -0.16 -0.17 -0.09 -0.09 0.16 0.16 0.09zm0.35 -0.67l0.07 -0.17 -0.17 -0.07 -0.07 0.17 0.17 0.07zm0.24 -0.72l0.03 -0.19 -0.18 -0.03 -0.04 0.18 0.19 0.04zm0.09 -0.76l-0.19 0 0 -0.18 0.18 -0.01 0.01 0.19zm-0.07 -0.76l-0.04 -0.19 -0.18 0.05 0.03 0.18 0.19 -0.04zm-0.22 -0.73l-0.07 -0.18 -0.17 0.08 0.07 0.17 0.17 -0.07zm-0.34 -0.68c-0.03,-0.06 -0.06,-0.11 -0.1,-0.16l-0.15 0.1c0.03,0.05 0.06,0.1 0.09,0.15l0.16 -0.09zm-0.43 -0.62l-0.12 -0.15 -0.14 0.12 0.11 0.14 0.15 -0.11zm-0.51 -0.57l-0.13 -0.13 -0.13 0.14 0.13 0.13 0.13 -0.14zm-0.55 -0.51l-0.15 -0.12 -0.12 0.15 0.15 0.12 0.12 -0.15zm-0.6 -0.46l-0.15 -0.11 -0.11 0.16 0.15 0.1 0.11 -0.15zm-0.62 -0.42l-0.16 -0.1 -0.1 0.16 0.16 0.1 0.1 -0.16zm-0.65 -0.38l-0.16 -0.09 -0.09 0.16 0.16 0.09 0.09 -0.16zm-0.66 -0.35l-0.17 -0.08 -0.08 0.16 0.17 0.09 0.08 -0.17zm-0.68 -0.32l-0.17 -0.08 -0.07 0.17 0.17 0.08 0.07 -0.17zm-0.69 -0.3l-0.17 -0.07 -0.07 0.18 0.17 0.07 0.07 -0.18zm-0.7 -0.27l-0.17 -0.06 -0.06 0.18 0.17 0.06 0.06 -0.18zm-0.7 -0.24l-0.18 -0.06 -0.06 0.18 0.18 0.05 0.06 -0.17zm-0.72 -0.23l-0.18 -0.05 -0.05 0.18 0.18 0.05 0.05 -0.18zm-0.72 -0.2l-0.18 -0.05 -0.04 0.18 0.18 0.05 0.04 -0.18zm-0.72 -0.19l-0.18 -0.04 -0.05 0.18 0.19 0.04 0.04 -0.18zm-0.73 -0.17l-0.18 -0.04 -0.04 0.18 0.18 0.04 0.04 -0.18zm-0.73 -0.15l-0.19 -0.04 -0.03 0.19 0.18 0.03 0.04 -0.18zm-0.74 -0.14l-0.18 -0.03 -0.03 0.18 0.18 0.04 0.03 -0.19zm-0.74 -0.12l-0.18 -0.03 -0.03 0.19 0.19 0.03 0.02 -0.19zm-0.74 -0.1l-0.18 -0.03 -0.02 0.19 0.18 0.02 0.02 -0.18zm-0.74 -0.1l-0.18 -0.02 -0.02 0.19 0.18 0.02 0.02 -0.19zm-0.74 -0.07l-0.19 -0.02 -0.01 0.19 0.18 0.01 0.02 -0.18zm-0.75 -0.07l-0.18 -0.01 -0.02 0.19 0.19 0.01 0.01 -0.19zm-0.74 -0.04l-0.19 -0.01 -0.01 0.18 0.19 0.01 0.01 -0.18zm-0.75 -0.04l-0.19 -0.01 0 0.19 0.18 0.01 0.01 -0.19zm-0.75 -0.02l-0.18 -0.01 -0.01 0.19 0.19 0 0 -0.18z"/>
        <path class="fil2"
              d="M25.85 12.73l-0.09 -0.16 -0.16 0.1 0.09 0.16 0.16 -0.1zm-0.27 -0.46l-0.09 -0.16 -0.16 0.09 0.09 0.16 0.16 -0.09zm-0.38 -0.65l-0.1 -0.15 -0.16 0.09 0.1 0.16 0.16 -0.1zm-0.4 -0.63l-0.1 -0.16 -0.16 0.1 0.1 0.16 0.16 -0.1zm-0.41 -0.63l-0.1 -0.15 -0.15 0.1 0.1 0.16 0.15 -0.11zm-0.41 -0.62l-0.11 -0.15 -0.15 0.11 0.1 0.15 0.16 -0.11zm-0.43 -0.61l-0.11 -0.15 -0.15 0.11 0.1 0.15 0.16 -0.11zm-0.45 -0.6l-0.11 -0.15 -0.15 0.11 0.12 0.15 0.14 -0.11zm-0.45 -0.6l-0.11 -0.15 -0.15 0.12 0.12 0.15 0.14 -0.12zm-0.46 -0.58l-0.12 -0.15 -0.14 0.12 0.11 0.14 0.15 -0.11zm-0.48 -0.58l-0.12 -0.14 -0.14 0.12 0.12 0.14 0.14 -0.12zm-0.49 -0.57l-0.12 -0.14 -0.14 0.13 0.12 0.14 0.14 -0.13zm-0.5 -0.55l-0.13 -0.14 -0.13 0.13 0.13 0.13 0.13 -0.12zm-0.51 -0.55l-0.13 -0.13 -0.14 0.13 0.13 0.13 0.14 -0.13zm-0.53 -0.53l-0.13 -0.13 -0.13 0.14 0.13 0.13 0.13 -0.14zm-0.54 -0.51l-0.14 -0.13 -0.12 0.14 0.13 0.12 0.13 -0.13zm-0.56 -0.51l-0.14 -0.12 -0.12 0.14 0.14 0.12 0.12 -0.14zm-0.57 -0.48l-0.14 -0.12 -0.12 0.15 0.15 0.11 0.11 -0.14zm-0.58 -0.47l-0.15 -0.11 -0.11 0.15 0.14 0.11 0.12 -0.15zm-0.61 -0.44l-0.15 -0.11 -0.1 0.15 0.15 0.11 0.1 -0.15zm-0.62 -0.42l-0.15 -0.1 -0.1 0.15 0.15 0.1 0.1 -0.15zm-0.64 -0.4l-0.16 -0.09 -0.09 0.16 0.16 0.09 0.09 -0.16zm-0.65 -0.36l-0.17 -0.08 -0.08 0.17 0.16 0.08 0.09 -0.17zm-0.69 -0.32l-0.17 -0.07 -0.07 0.17 0.17 0.08 0.07 -0.18zm-0.7 -0.27l-0.18 -0.06 -0.05 0.18 0.17 0.06 0.06 -0.18zm-0.72 -0.21l-0.19 -0.04 -0.03 0.18 0.18 0.04 0.04 -0.18zm-0.75 -0.14l-0.18 -0.02 -0.02 0.19 0.18 0.02 0.02 -0.19zm-0.75 -0.04l-0.19 0.01 0.01 0.18 0.18 0 0 -0.19zm-0.76 0.07l-0.19 0.04 0.05 0.18c0.06,-0.01 0.12,-0.02 0.18,-0.03l-0.04 -0.19zm-0.73 0.21c-0.06,0.02 -0.12,0.05 -0.18,0.08l0.08 0.17c0.05,-0.03 0.11,-0.05 0.17,-0.07l-0.07 -0.18zm-0.68 0.36l-0.16 0.11 0.11 0.15 0.15 -0.11 -0.1 -0.15zm-0.59 0.48l-0.13 0.14 0.14 0.12 0.12 -0.13 -0.13 -0.13zm-0.49 0.59l-0.1 0.16 0.16 0.1 0.1 -0.16 -0.16 -0.1zm-0.38 0.65l-0.08 0.18 0.17 0.07 0.08 -0.17 -0.17 -0.08zm-0.29 0.7l-0.06 0.18 0.18 0.06 0.06 -0.18 -0.18 -0.06zm-0.21 0.73l-0.04 0.18 0.19 0.04 0.04 -0.18 -0.19 -0.04zm-0.14 0.74l-0.02 0.19 0.18 0.02 0.03 -0.18 -0.19 -0.03zm-0.08 0.75l-0.01 0.19 0.18 0.01 0.02 -0.19 -0.19 -0.01zm-0.03 0.75l-0.01 0.19 0.19 0 0 -0.19 -0.18 0zm0 0.75l0.01 0.19 0.18 -0.01 0 -0.19 -0.19 0.01zm0.04 0.75l0.02 0.18 0.18 -0.01 -0.01 -0.19 -0.19 0.02zm0.07 0.74l0.03 0.19 0.18 -0.02 -0.02 -0.19 -0.19 0.02zm0.1 0.75l0.03 0.18 0.19 -0.03 -0.03 -0.18 -0.19 0.03zm0.13 0.73l0.03 0.19 0.19 -0.04 -0.04 -0.18 -0.18 0.03zm0.15 0.74l0.04 0.18 0.18 -0.04 -0.04 -0.18 -0.18 0.04zm0.17 0.73l0.04 0.18 0.18 -0.05 -0.04 -0.18 -0.18 0.05zm0.18 0.72l0.05 0.18 0.18 -0.05 -0.05 -0.18 -0.18 0.05zm0.21 0.72l0.06 0.18 0.17 -0.06 -0.05 -0.17 -0.18 0.05zm0.22 0.71l0.06 0.18 0.18 -0.06 -0.06 -0.17 -0.18 0.05zm0.24 0.71l0.07 0.18 0.17 -0.06 -0.06 -0.18 -0.18 0.06zm0.26 0.71l0.07 0.17 0.17 -0.07 -0.07 -0.17 -0.17 0.07zm0.27 0.69l0.07 0.18 0.17 -0.07 -0.07 -0.17 -0.17 0.06zm0.28 0.7l0.08 0.17 0.17 -0.08 -0.08 -0.17 -0.17 0.08zm0.3 0.68l0.08 0.17 0.17 -0.07 -0.08 -0.17 -0.17 0.07zm0.31 0.68l0.08 0.17 0.17 -0.08 -0.08 -0.17 -0.17 0.08zm0.32 0.68l0.09 0.16 0.16 -0.08 -0.08 -0.16 -0.17 0.08zm0.34 0.67l0.08 0.16 0.17 -0.08 -0.09 -0.17 -0.16 0.09zm0.34 0.66l0.09 0.16 0.17 -0.09 -0.09 -0.16 -0.17 0.09zm0.36 0.65c0.03,0.06 0.06,0.12 0.09,0.17l0.17 -0.09c-0.04,-0.05 -0.07,-0.11 -0.1,-0.17l-0.16 0.09zm0.37 0.65l0.1 0.17 0.16 -0.1 -0.1 -0.16 -0.16 0.09zm0.38 0.65l0.1 0.16 0.16 -0.1 -0.1 -0.16 -0.16 0.1zm0.39 0.63l0.1 0.16 0.16 -0.1 -0.1 -0.15 -0.16 0.09zm0.41 0.63l0.1 0.16 0.15 -0.1 -0.1 -0.16 -0.15 0.1zm0.41 0.63l0.11 0.15 0.15 -0.1 -0.11 -0.16 -0.15 0.11zm0.43 0.61l0.1 0.15 0.16 -0.1 -0.11 -0.16 -0.15 0.11zm0.43 0.61l0.11 0.15 0.15 -0.11 -0.11 -0.15 -0.15 0.11zm0.45 0.6l0.12 0.15 0.14 -0.12 -0.11 -0.15 -0.15 0.12zm0.46 0.59l0.12 0.14 0.14 -0.11 -0.11 -0.15 -0.15 0.12zm0.47 0.58l0.12 0.14 0.15 -0.12 -0.12 -0.14 -0.15 0.12zm0.49 0.57l0.12 0.14 0.14 -0.13 -0.12 -0.14 -0.14 0.13zm0.49 0.56l0.13 0.13 0.14 -0.12 -0.13 -0.14 -0.14 0.13zm0.51 0.54l0.13 0.14 0.14 -0.13 -0.13 -0.13 -0.14 0.12zm0.53 0.54l0.13 0.13 0.13 -0.13 -0.13 -0.13 -0.13 0.13zm0.53 0.52l0.14 0.13 0.12 -0.14 -0.13 -0.12 -0.13 0.13zm0.55 0.51l0.14 0.13 0.12 -0.14c-0.04,-0.05 -0.09,-0.09 -0.13,-0.13l-0.13 0.14zm0.57 0.49l0.14 0.12 0.12 -0.14 -0.14 -0.12 -0.12 0.14zm0.58 0.48l0.14 0.11 0.12 -0.15 -0.15 -0.11 -0.11 0.15zm0.59 0.45l0.16 0.11 0.1 -0.15 -0.15 -0.11 -0.11 0.15zm0.62 0.43l0.15 0.1 0.11 -0.15 -0.16 -0.11 -0.1 0.16zm0.63 0.4l0.16 0.1 0.1 -0.16 -0.16 -0.1 -0.1 0.16zm0.65 0.37l0.17 0.09 0.08 -0.16 -0.16 -0.09 -0.09 0.16zm0.67 0.34l0.18 0.08 0.07 -0.17 -0.17 -0.08 -0.08 0.17zm0.7 0.29l0.18 0.06 0.06 -0.17 -0.18 -0.07 -0.06 0.18zm0.72 0.23l0.18 0.05 0.04 -0.18 -0.17 -0.04 -0.05 0.17zm0.73 0.17l0.19 0.03 0.02 -0.18 -0.18 -0.03 -0.03 0.18zm0.76 0.08l0.19 0 0 -0.18 -0.19 -0.01 0 0.19zm0.76 -0.03c0.06,-0.01 0.12,-0.02 0.18,-0.03l-0.03 -0.18 -0.18 0.03 0.03 0.18zm0.74 -0.16l0.18 -0.06 -0.06 -0.17 -0.18 0.05 0.06 0.18zm0.75 -0.33l-0.05 0.03 -0.09 -0.16 0.04 -0.03 0.1 0.16 0.12 -0.07 -0.1 -0.16 -0.12 0.07 0.05 0.19 0.05 -0.03zm0.58 -0.41l0.14 -0.13 -0.13 -0.13 -0.14 0.12 0.13 0.14zm0.52 -0.55l0.12 -0.15 -0.15 -0.11 -0.11 0.14 0.14 0.12zm0.42 -0.64l0.09 -0.16 -0.17 -0.09 -0.08 0.16 0.16 0.09zm0.32 -0.68l0.07 -0.18 -0.18 -0.06 -0.06 0.17 0.17 0.07zm0.24 -0.72l0.04 -0.18 -0.18 -0.05 -0.04 0.18 0.18 0.05zm0.16 -0.74l0.03 -0.18 -0.18 -0.03 -0.03 0.18 0.18 0.03zm0.1 -0.74l0.02 -0.19 -0.19 -0.02 -0.01 0.19 0.18 0.02zm0.06 -0.75l0 -0.19 -0.18 0 -0.01 0.18 0.19 0.01zm0 -0.75l0 -0.19 -0.19 0 0.01 0.19 0.18 0zm-0.02 -0.75l-0.02 -0.19 -0.18 0.01 0.01 0.19 0.19 -0.01zm-0.06 -0.75l-0.02 -0.19 -0.19 0.02 0.02 0.19 0.19 -0.02zm-0.1 -0.74l-0.02 -0.19 -0.19 0.03 0.03 0.18 0.18 -0.02zm-0.11 -0.74l-0.03 -0.19 -0.19 0.04 0.04 0.18 0.18 -0.03zm-0.14 -0.74l-0.04 -0.18 -0.18 0.04 0.04 0.18 0.18 -0.04zm-0.16 -0.73l-0.05 -0.18 -0.18 0.04 0.05 0.18 0.18 -0.04zm-0.18 -0.73l-0.05 -0.18 -0.18 0.05 0.04 0.18 0.19 -0.05zm-0.21 -0.72l-0.05 -0.18 -0.18 0.06 0.06 0.17 0.17 -0.05zm-0.21 -0.71l-0.06 -0.18 -0.18 0.06 0.06 0.17 0.18 -0.05zm-0.24 -0.71l-0.06 -0.18 -0.17 0.06 0.06 0.18 0.17 -0.06zm-0.25 -0.71l-0.06 -0.17 -0.18 0.06 0.07 0.18 0.17 -0.07zm-0.26 -0.7l-0.07 -0.17 -0.17 0.07 0.06 0.17 0.18 -0.07zm-0.28 -0.69l-0.07 -0.18 -0.17 0.08 0.07 0.17 0.17 -0.07zm-0.29 -0.69l-0.08 -0.17 -0.17 0.07 0.08 0.17 0.17 -0.07zm-0.31 -0.68l-0.08 -0.17 -0.17 0.08 0.08 0.16 0.17 -0.07zm-0.32 -0.68l-0.08 -0.17 -0.16 0.08 0.08 0.17 0.16 -0.08zm-0.33 -0.67l-0.08 -0.17 -0.17 0.09 0.09 0.16 0.16 -0.08zm-0.34 -0.67l-0.09 -0.16 -0.16 0.09 0.09 0.16 0.16 -0.09zm-0.35 -0.65l-0.09 -0.17 -0.17 0.09 0.09 0.17 0.17 -0.09z"/>
        <path class="fil2"
              d="M11.61 12.83l0.09 -0.16 -0.16 -0.1 -0.09 0.16 0.16 0.1zm0.27 -0.47l0.09 -0.16 -0.16 -0.09 -0.09 0.16 0.16 0.09zm0.38 -0.64l0.1 -0.16 -0.16 -0.09 -0.1 0.15 0.16 0.1zm0.4 -0.63l0.1 -0.16 -0.16 -0.1 -0.1 0.16 0.16 0.1zm0.4 -0.62l0.1 -0.16 -0.15 -0.1 -0.11 0.15 0.16 0.11zm0.42 -0.62l0.1 -0.15 -0.15 -0.11 -0.11 0.15 0.16 0.11zm0.42 -0.61l0.11 -0.15 -0.15 -0.11 -0.11 0.15 0.15 0.11zm0.44 -0.6l0.11 -0.15 -0.14 -0.11 -0.12 0.15 0.15 0.11zm0.45 -0.59l0.12 -0.15 -0.15 -0.12 -0.11 0.15 0.14 0.12zm0.47 -0.59l0.11 -0.14 -0.14 -0.12 -0.12 0.15 0.15 0.11zm0.47 -0.57l0.12 -0.14 -0.14 -0.12 -0.12 0.14 0.14 0.12zm0.49 -0.56l0.12 -0.14 -0.14 -0.13 -0.12 0.14 0.14 0.13zm0.49 -0.56l0.13 -0.13 -0.14 -0.13 -0.12 0.14 0.13 0.12zm0.51 -0.54l0.13 -0.13 -0.13 -0.13 -0.13 0.13 0.13 0.13zm0.53 -0.52l0.13 -0.13 -0.13 -0.14 -0.13 0.13 0.13 0.14zm0.54 -0.52l0.13 -0.12 -0.12 -0.14 -0.14 0.13 0.13 0.13zm0.55 -0.5l0.14 -0.12 -0.12 -0.14 -0.15 0.12 0.13 0.14zm0.56 -0.48l0.15 -0.11 -0.12 -0.15 -0.15 0.12 0.12 0.14zm0.58 -0.46l0.15 -0.11 -0.11 -0.15 -0.15 0.11 0.11 0.15zm0.6 -0.44l0.15 -0.11 -0.1 -0.15 -0.16 0.11 0.11 0.15zm0.62 -0.42l0.15 -0.1 -0.1 -0.15 -0.16 0.1 0.11 0.15zm0.63 -0.39l0.16 -0.09 -0.09 -0.16 -0.17 0.09 0.1 0.16zm0.65 -0.35l0.16 -0.08 -0.08 -0.17 -0.17 0.08 0.09 0.17zm0.67 -0.31l0.17 -0.08 -0.07 -0.17 -0.18 0.07 0.08 0.18zm0.69 -0.27l0.17 -0.06 -0.05 -0.18 -0.18 0.06 0.06 0.18zm0.7 -0.21l0.18 -0.04 -0.04 -0.18 -0.18 0.04 0.04 0.18zm0.73 -0.13l0.18 -0.02 -0.02 -0.19 -0.19 0.02 0.03 0.19zm0.73 -0.04l0.18 0 0.01 -0.18 -0.19 -0.01 0 0.19zm0.72 0.07c0.06,0.01 0.12,0.02 0.18,0.03l0.05 -0.18 -0.19 -0.04 -0.04 0.19zm0.7 0.2c0.05,0.02 0.12,0.04 0.17,0.07l0.08 -0.17c-0.06,-0.03 -0.12,-0.06 -0.18,-0.08l-0.07 0.18zm0.64 0.33l0.15 0.11 0.12 -0.15 -0.16 -0.11 -0.11 0.15zm0.57 0.46l0.12 0.13 0.14 -0.12 -0.13 -0.14 -0.13 0.13zm0.46 0.56l0.1 0.16 0.16 -0.1 -0.1 -0.16 -0.16 0.1zm0.37 0.63l0.08 0.17 0.17 -0.07 -0.08 -0.18 -0.17 0.08zm0.28 0.68l0.06 0.18 0.17 -0.06 -0.05 -0.18 -0.18 0.06zm0.2 0.71l0.04 0.18 0.18 -0.04 -0.04 -0.18 -0.18 0.04zm0.14 0.73l0.02 0.18 0.19 -0.02 -0.03 -0.19 -0.18 0.03zm0.08 0.73l0.01 0.19 0.19 -0.01 -0.01 -0.19 -0.19 0.01zm0.04 0.74l0 0.19 0.19 0 -0.01 -0.19 -0.18 0zm-0.01 0.74l-0.01 0.19 0.19 0.01 0.01 -0.19 -0.19 -0.01zm-0.04 0.74l-0.01 0.19 0.18 0.01 0.02 -0.18 -0.19 -0.02zm-0.07 0.74l-0.02 0.19 0.18 0.02 0.03 -0.18 -0.19 -0.03zm-0.1 0.74l-0.03 0.18 0.19 0.03 0.03 -0.18 -0.19 -0.03zm-0.12 0.73l-0.04 0.18 0.19 0.04 0.03 -0.19 -0.18 -0.03zm-0.15 0.73l-0.04 0.18 0.18 0.04 0.04 -0.18 -0.18 -0.04zm-0.17 0.72l-0.04 0.18 0.18 0.05 0.04 -0.18 -0.18 -0.05zm-0.19 0.72l-0.04 0.18 0.17 0.05 0.05 -0.18 -0.18 -0.05zm-0.2 0.72l-0.05 0.17 0.17 0.06 0.06 -0.18 -0.18 -0.05zm-0.22 0.71l-0.06 0.17 0.18 0.06 0.05 -0.18 -0.17 -0.05zm-0.24 0.7l-0.06 0.18 0.17 0.06 0.06 -0.18 -0.17 -0.06zm-0.26 0.7l-0.06 0.17 0.17 0.07 0.07 -0.17 -0.18 -0.07zm-0.26 0.7l-0.07 0.17 0.17 0.07 0.07 -0.18 -0.17 -0.06zm-0.29 0.68l-0.07 0.17 0.17 0.08 0.08 -0.17 -0.18 -0.08zm-0.29 0.69l-0.08 0.17 0.17 0.07 0.08 -0.17 -0.17 -0.07zm-0.31 0.67l-0.08 0.17 0.17 0.08 0.08 -0.17 -0.17 -0.08zm-0.32 0.68l-0.08 0.16 0.16 0.08 0.09 -0.16 -0.17 -0.08zm-0.33 0.66l-0.09 0.17 0.17 0.08 0.08 -0.16 -0.16 -0.09zm-0.35 0.66l-0.09 0.16 0.17 0.09 0.08 -0.16 -0.16 -0.09zm-0.36 0.65c-0.03,0.06 -0.06,0.12 -0.09,0.17l0.17 0.09c0.03,-0.05 0.06,-0.11 0.09,-0.17l-0.17 -0.09zm-0.36 0.65l-0.1 0.16 0.16 0.1 0.1 -0.17 -0.16 -0.09zm-0.38 0.64l-0.1 0.16 0.16 0.1 0.1 -0.16 -0.16 -0.1zm-0.39 0.64l-0.1 0.15 0.16 0.1 0.09 -0.16 -0.15 -0.09zm-0.4 0.62l-0.11 0.16 0.16 0.1 0.1 -0.16 -0.15 -0.1zm-0.42 0.62l-0.1 0.16 0.15 0.1 0.11 -0.15 -0.16 -0.11zm-0.42 0.61l-0.11 0.16 0.15 0.1 0.11 -0.15 -0.15 -0.11zm-0.43 0.61l-0.12 0.15 0.15 0.11 0.12 -0.15 -0.15 -0.11zm-0.45 0.59l-0.11 0.15 0.14 0.12 0.12 -0.15 -0.15 -0.12zm-0.46 0.59l-0.11 0.15 0.14 0.11 0.12 -0.14 -0.15 -0.12zm-0.47 0.58l-0.12 0.14 0.15 0.12 0.12 -0.14 -0.15 -0.12zm-0.48 0.56l-0.12 0.14 0.14 0.13 0.12 -0.14 -0.14 -0.13zm-0.49 0.56l-0.13 0.14 0.14 0.12 0.12 -0.13 -0.13 -0.13zm-0.51 0.55l-0.13 0.13 0.14 0.13 0.13 -0.14 -0.14 -0.12zm-0.52 0.53l-0.13 0.13 0.13 0.13 0.13 -0.13 -0.13 -0.13zm-0.53 0.52l-0.14 0.12 0.13 0.14 0.14 -0.13 -0.13 -0.13zm-0.55 0.5c-0.04,0.04 -0.09,0.08 -0.14,0.13l0.13 0.14 0.14 -0.13 -0.13 -0.14zm-0.56 0.49l-0.14 0.12 0.12 0.14 0.14 -0.12 -0.12 -0.14zm-0.57 0.47l-0.15 0.11 0.11 0.15 0.15 -0.11 -0.11 -0.15zm-0.59 0.45l-0.16 0.11 0.11 0.15 0.15 -0.11 -0.1 -0.15zm-0.61 0.42l-0.16 0.11 0.1 0.15 0.16 -0.1 -0.1 -0.16zm-0.63 0.4l-0.16 0.1 0.1 0.16 0.16 -0.1 -0.1 -0.16zm-0.64 0.37l-0.17 0.09 0.09 0.16 0.17 -0.09 -0.09 -0.16zm-0.66 0.33l-0.17 0.08 0.07 0.17 0.17 -0.08 -0.07 -0.17zm-0.69 0.28l-0.17 0.07 0.06 0.17 0.18 -0.06 -0.07 -0.18zm-0.7 0.24l-0.17 0.04 0.04 0.18 0.18 -0.05 -0.05 -0.17zm-0.71 0.16l-0.19 0.03 0.03 0.18 0.19 -0.03 -0.03 -0.18zm-0.73 0.07l-0.19 0.01 0 0.18 0.19 0 0 -0.19zm-0.73 -0.02l-0.18 -0.03 -0.04 0.18c0.07,0.01 0.13,0.02 0.19,0.03l0.03 -0.18zm-0.72 -0.16l-0.17 -0.05 -0.06 0.17 0.18 0.06 0.05 -0.18zm-0.66 -0.28l-0.09 0.16 -0.05 -0.03 0.09 -0.16 0.05 0.03zm-0.05 -0.03l-0.11 -0.07 -0.1 0.16 0.12 0.07 0.09 -0.16zm-0.55 -0.39l-0.13 -0.12 -0.13 0.13 0.14 0.13 0.12 -0.14zm-0.5 -0.53l-0.11 -0.14 -0.15 0.11 0.12 0.15 0.14 -0.12zm-0.4 -0.61l-0.09 -0.16 -0.16 0.09 0.09 0.16 0.16 -0.09zm-0.31 -0.66l-0.06 -0.17 -0.18 0.06 0.07 0.18 0.17 -0.07zm-0.23 -0.7l-0.04 -0.18 -0.19 0.05 0.05 0.18 0.18 -0.05zm-0.16 -0.72l-0.03 -0.18 -0.18 0.03 0.03 0.18 0.18 -0.03zm-0.1 -0.73l-0.02 -0.19 -0.18 0.02 0.02 0.19 0.18 -0.02zm-0.05 -0.74l-0.01 -0.18 -0.18 0 0 0.19 0.19 -0.01zm-0.01 -0.74l0 -0.19 -0.18 0 -0.01 0.19 0.19 0zm0.03 -0.74l0.01 -0.19 -0.19 -0.01 -0.01 0.19 0.19 0.01zm0.06 -0.74l0.02 -0.19 -0.19 -0.02 -0.02 0.19 0.19 0.02zm0.09 -0.74l0.02 -0.18 -0.18 -0.03 -0.03 0.19 0.19 0.02zm0.11 -0.73l0.04 -0.18 -0.19 -0.04 -0.03 0.19 0.18 0.03zm0.14 -0.73l0.04 -0.18 -0.18 -0.04 -0.04 0.18 0.18 0.04zm0.16 -0.73l0.05 -0.18 -0.18 -0.04 -0.05 0.18 0.18 0.04zm0.18 -0.72l0.05 -0.18 -0.18 -0.05 -0.05 0.18 0.18 0.05zm0.2 -0.72l0.06 -0.17 -0.18 -0.06 -0.06 0.18 0.18 0.05zm0.22 -0.71l0.06 -0.17 -0.18 -0.06 -0.06 0.18 0.18 0.05zm0.23 -0.7l0.06 -0.18 -0.17 -0.06 -0.06 0.18 0.17 0.06zm0.25 -0.7l0.07 -0.18 -0.18 -0.06 -0.06 0.17 0.17 0.07zm0.26 -0.7l0.07 -0.17 -0.17 -0.07 -0.07 0.17 0.17 0.07zm0.28 -0.69l0.07 -0.17 -0.17 -0.08 -0.07 0.18 0.17 0.07zm0.29 -0.69l0.08 -0.17 -0.17 -0.07 -0.08 0.17 0.17 0.07zm0.31 -0.68l0.07 -0.16 -0.17 -0.08 -0.07 0.17 0.17 0.07zm0.31 -0.67l0.08 -0.17 -0.16 -0.08 -0.09 0.17 0.17 0.08zm0.33 -0.67l0.09 -0.16 -0.17 -0.09 -0.09 0.17 0.17 0.08zm0.34 -0.66l0.09 -0.16 -0.17 -0.09 -0.08 0.16 0.16 0.09zm0.35 -0.65l0.09 -0.17 -0.16 -0.09 -0.09 0.17 0.16 0.09z"/>
 </g>
</svg>
