<?xml version="1.0" encoding="UTF-8" standalone="no"?>
<svg
        xmlns:inkscape="http://www.inkscape.org/namespaces/inkscape"
        xmlns:sodipodi="http://sodipodi.sourceforge.net/DTD/sodipodi-0.dtd"
        xmlns:svg="http://www.w3.org/2000/svg"
        width="48"
        height="48"
        viewBox="0 0 48 48"
        version="1.1"
        id="svg4"
        sodipodi:docname="settings-light.svg"
        inkscape:version="1.2.1 (9c6d41e410, 2022-07-14)"
        xml:space="preserve"
        xmlns="http://www.w3.org/2000/svg"><defs
     id="defs8" />
    <sodipodi:namedview
            id="namedview6"
            pagecolor="#ffffff"
            bordercolor="#000000"
            borderopacity="0.25"
            inkscape:showpageshadow="2"
            inkscape:pageopacity="0.0"
            inkscape:pagecheckerboard="0"
            inkscape:deskcolor="#d1d1d1"
            showgrid="false"
            inkscape:zoom="11.313709"
            inkscape:cx="28.637823"
            inkscape:cy="22.892581"
            inkscape:window-width="1920"
            inkscape:window-height="1009"
            inkscape:window-x="1912"
            inkscape:window-y="-8"
            inkscape:window-maximized="1"
            inkscape:current-layer="g260"
            showguides="true"><sodipodi:guide
       position="42.252402,43.905775"
       orientation="0,-1"
       id="guide176"
       inkscape:locked="false" />
        <sodipodi:guide
                position="43.971977,23.844072"
                orientation="1,0"
                id="guide178"
                inkscape:locked="false"/>
        <sodipodi:guide
                position="35.210335,5.9932512"
                orientation="0,-1"
                id="guide180"
                inkscape:locked="false"/>
        <sodipodi:guide
                position="5.9775685,23.598419"
                orientation="1,0"
                id="guide182"
                inkscape:locked="false"/></sodipodi:namedview>
    <g
            id="g260"
            transform="translate(-0.08838791,-0.08838837)"
            style="fill:#4082ec;fill-opacity:1"><g
       id="g241"
       transform="translate(-0.08838804,-0.44194168)"><path
         style="display:inline;fill:#a2c5d5;stroke-width:0.0994511"
         d="m 24.659421,42.210476 c 0.34791,-0.01926 0.89104,-0.0191 1.206955,3.94e-4 0.315914,0.01945 0.03126,0.03521 -0.632564,0.03501 -0.663825,-1.97e-4 -0.922301,-0.01611 -0.574391,-0.03537 z m -1.613214,-0.09055 c 0.06915,-0.02728 0.1823,-0.02728 0.251449,0 0.06915,0.02728 0.01257,0.0496 -0.125725,0.0496 -0.138296,0 -0.194872,-0.02232 -0.125724,-0.0496 z m 4.230627,-0.002 c 0.07261,-0.02841 0.159356,-0.02491 0.192778,0.0078 0.03342,0.03268 -0.02598,0.05592 -0.132011,0.05165 -0.11717,-0.0047 -0.141002,-0.02802 -0.06077,-0.05941 z m -3.072048,-0.197642 c 0.09786,-0.02493 0.233643,-0.02329 0.301738,0.0036 0.0681,0.02694 -0.01197,0.04734 -0.177928,0.04533 -0.165956,-0.002 -0.221671,-0.02404 -0.12381,-0.04897 z m 1.557069,0.003 c 0.06915,-0.02728 0.1823,-0.02728 0.251449,0 0.06915,0.02728 0.01257,0.0496 -0.125725,0.0496 -0.138297,0 -0.194873,-0.02232 -0.125724,-0.0496 z M 22.9468,41.820495 c 0.125112,-0.02352 0.306155,-0.02263 0.402318,0.002 0.09616,0.02461 -0.0062,0.04386 -0.227476,0.04277 -0.221275,-0.0011 -0.299954,-0.02123 -0.174842,-0.04475 z m 3.97172,0.0018 c 0.09681,-0.02473 0.25522,-0.02473 0.352028,0 0.09681,0.02473 0.0176,0.04497 -0.176014,0.04497 -0.193616,0 -0.272822,-0.02024 -0.176014,-0.04497 z m -4.624745,-0.09869 c 0.09786,-0.02493 0.233643,-0.02329 0.301738,0.0036 0.0681,0.02694 -0.01197,0.04734 -0.177928,0.04533 -0.165956,-0.002 -0.221671,-0.02404 -0.12381,-0.04897 z m 5.203077,0.03044 c 0,-0.02074 0.113152,-0.05885 0.251449,-0.0847 0.138297,-0.02585 0.251449,-0.0089 0.251449,0.0377 0,0.04659 -0.113152,0.0847 -0.251449,0.0847 -0.138297,0 -0.251449,-0.01697 -0.251449,-0.0377 z M 21.520828,41.53196 c -0.04774,-0.121643 -0.03181,-0.136364 0.06467,-0.05975 0.07042,0.05591 0.218549,0.123417 0.329186,0.150005 0.15869,0.03814 0.145035,0.05075 -0.06467,0.05975 -0.161679,0.0069 -0.290655,-0.05184 -0.329186,-0.150005 z m 6.482002,-0.182763 c 0,-0.05408 0.04387,-0.164711 0.0975,-0.245838 0.05363,-0.08113 0.0975,-0.103252 0.0975,-0.04917 0,0.05408 -0.04387,0.164712 -0.0975,0.245839 -0.05363,0.08113 -0.0975,0.103252 -0.0975,0.04917 z m -6.845976,-0.811415 c -0.07584,-0.14865 -0.154018,-0.303461 -0.17372,-0.344025 -0.0197,-0.04056 0.0022,-0.07375 0.04864,-0.07375 0.08495,0 0.353664,0.599385 0.2946,0.657131 -0.01739,0.01701 -0.09368,-0.0907 -0.169521,-0.239355 z m -0.789483,-2.241896 c -0.0064,-0.110874 -0.05108,-0.243626 -0.09926,-0.295006 -0.04818,-0.05138 -0.114084,-0.226172 -0.146458,-0.388425 -0.04807,-0.240931 -0.02165,-0.217383 0.144164,0.12847 0.111667,0.232911 0.182823,0.498417 0.158126,0.590012 -0.03513,0.130277 -0.04744,0.122646 -0.05657,-0.03505 z m -6.946853,-0.137604 c -0.08034,-0.04969 -0.189167,-0.0643 -0.241844,-0.03247 -0.05268,0.03183 -0.06489,0.009 -0.02713,-0.05072 0.06514,-0.103041 -0.274923,-0.353359 -0.490174,-0.360816 -0.05532,-0.0019 -0.100579,-0.05044 -0.100579,-0.107823 0,-0.05739 -0.169728,-0.250037 -0.377174,-0.428112 -0.207445,-0.178075 -0.377173,-0.288383 -0.377173,-0.245129 0,0.04325 -0.156652,-0.0698 -0.348115,-0.251233 -0.191463,-0.181433 -0.327813,-0.361992 -0.303001,-0.401245 0.02481,-0.03925 -0.169289,-0.264557 -0.431338,-0.500679 -0.262049,-0.236121 -0.466022,-0.459955 -0.453274,-0.497409 0.01275,-0.03745 -0.0802,-0.14808 -0.206544,-0.245838 -0.1263482,-0.09776 -0.2598424,-0.25518 -0.2966545,-0.349828 -0.036812,-0.09465 -0.1136116,-0.172087 -0.1706674,-0.172087 -0.057055,0 -0.1037357,-0.06638 -0.1037357,-0.147503 0,-0.08113 -0.040419,-0.147503 -0.089819,-0.147503 -0.0494,0 -0.117495,-0.07744 -0.1513214,-0.172087 -0.067978,-0.190204 0.064074,-0.0503 0.978082,1.036198 0.660834,0.785552 1.958722,2.029794 2.775522,2.660804 0.429416,0.331739 0.600492,0.408865 0.804637,0.362753 0.195513,-0.04416 0.222169,-0.03402 0.108399,0.04125 -0.186731,0.123543 -0.309879,0.125886 -0.498095,0.0095 z M 11.806443,36.84417 c 0,-0.01692 -0.147098,-0.160739 -0.326884,-0.31959 l -0.326883,-0.28882 0.295411,0.31959 c 0.275365,0.297903 0.358356,0.36479 0.358356,0.28882 z m 2.816227,0.915788 c 0.193616,-0.103635 0.397289,-0.188427 0.452608,-0.188427 0.05532,0 -0.05783,0.08479 -0.251449,0.188427 -0.193615,0.103635 -0.397289,0.188427 -0.452608,0.188427 -0.05532,0 0.05783,-0.08479 0.251449,-0.188427 z m 23.032716,0.06121 c 0,-0.02042 0.07921,-0.09786 0.176014,-0.172087 0.159525,-0.122316 0.163083,-0.118838 0.03797,0.03713 -0.131394,0.163802 -0.213989,0.215893 -0.213989,0.134959 z M 15.435688,37.428291 c 0.103501,-0.09054 0.695675,-0.356605 0.695675,-0.312563 0,0.05664 -0.557595,0.349224 -0.665536,0.349224 -0.03963,0 -0.05319,-0.0165 -0.03014,-0.03666 z m 1.198573,-0.553351 c 0.193616,-0.103635 0.397289,-0.188427 0.452608,-0.188427 0.05532,0 -0.05783,0.08479 -0.251449,0.188427 -0.193615,0.103635 -0.397289,0.188427 -0.452608,0.188427 -0.05532,0 0.05783,-0.08479 0.251449,-0.188427 z m 22.17779,-0.09833 c 0.100126,-0.108169 0.204677,-0.196671 0.232336,-0.196671 0.02766,0 -0.03163,0.0885 -0.131757,0.196671 -0.100126,0.108169 -0.204677,0.19667 -0.232336,0.19667 -0.02766,0 0.03163,-0.0885 0.131757,-0.19667 z m -19.260983,0 c -0.08298,-0.05243 -0.105609,-0.09532 -0.05029,-0.09532 0.05532,0 0.168471,0.0429 0.251449,0.09532 0.08298,0.05243 0.105608,0.09532 0.05029,0.09532 -0.05532,0 -0.168471,-0.04289 -0.251449,-0.09532 z m -2.103789,-0.233332 c 0.103501,-0.09054 0.695675,-0.356604 0.695675,-0.312563 0,0.05664 -0.557595,0.349224 -0.665536,0.349224 -0.03963,0 -0.05319,-0.0165 -0.03014,-0.03666 z m 1.242942,-0.116267 c -0.184092,-0.144196 -0.180883,-0.146243 0.05621,-0.03585 0.307877,0.143354 0.364936,0.188775 0.237146,0.188775 -0.05397,0 -0.185977,-0.06882 -0.293357,-0.152928 z m 6.36875,-5.620069 c 0.125112,-0.02352 0.306155,-0.02263 0.402318,0.002 0.09616,0.02461 -0.0062,0.04386 -0.227477,0.04277 -0.221275,-0.0011 -0.299953,-0.02123 -0.174841,-0.04475 z M 23.42338,30.572889 c -0.597797,-0.187472 -0.51292,-0.180549 0.754347,0.06152 0.552895,0.105613 0.591692,0.125101 0.251449,0.126305 -0.221275,7.87e-4 -0.673883,-0.08374 -1.005796,-0.187827 z m 2.514489,0.139026 c 1.752602,-0.213555 3.320179,-0.954844 4.482352,-2.11965 0.328303,-0.329048 0.596915,-0.551467 0.596915,-0.494265 0,0.234013 -1.532745,1.490431 -2.284093,1.872312 -0.832642,0.4232 -2.20574,0.817534 -2.761642,0.793104 -0.334059,-0.01468 -0.334179,-0.01487 -0.03353,-0.0515 z m -4.007284,-0.666599 c -2.880174,-1.418356 -4.494689,-4.534907 -3.946443,-7.617949 0.292686,-1.645904 0.891614,-2.784173 2.072401,-3.938613 1.192671,-1.166059 2.360454,-1.748359 4.073852,-2.031377 3.528228,-0.58279 7.011697,1.531851 8.174827,4.962529 0.222556,0.656436 0.256591,0.931887 0.263249,2.130597 0.007,1.259737 -0.01674,1.449429 -0.279396,2.232837 -0.279715,0.83428 -1.061851,2.241493 -1.191137,2.143085 -0.03553,-0.02704 -0.17383,0.05116 -0.307339,0.173789 l -0.242743,0.222958 -5.407284,-0.02629 -5.407284,-0.02629 0.573018,0.521421 c 0.636284,0.578992 1.135079,0.912494 1.96041,1.310765 0.304253,0.146819 0.507926,0.270201 0.452608,0.274181 -0.05532,0.004 -0.410251,-0.145263 -0.788739,-0.33165 z m 5.000018,-2.990285 c 1.073393,-0.516638 1.853171,-1.525375 2.078958,-2.68938 0.131066,-0.675689 0.12481,-0.991326 -0.01794,-0.905071 -0.0818,0.04943 -0.09684,-0.04019 -0.05266,-0.313786 0.04699,-0.29103 0.03782,-0.335757 -0.03821,-0.186303 -0.07769,0.15272 -0.08903,0.108769 -0.05077,-0.19667 0.03689,-0.294474 0.02252,-0.356266 -0.05717,-0.245839 -0.08424,0.116723 -0.09556,0.0993 -0.05425,-0.08348 0.02871,-0.127041 0.02634,-0.205699 -0.0053,-0.174798 -0.03161,0.0309 -0.147139,-0.121021 -0.256741,-0.337602 -0.281578,-0.556421 -0.966646,-1.212216 -1.597682,-1.529414 -0.775327,-0.389728 -2.088898,-0.447461 -2.95259,-0.12977 -1.11496,0.410115 -2.26304,1.827454 -2.26304,2.793792 0,0.129989 -0.04526,0.263694 -0.100579,0.29712 -0.123244,0.07447 -0.134664,0.540844 -0.01324,0.540844 0.08094,0 0.181558,0.429221 0.263478,1.123969 0.01868,0.158464 0.139754,0.372496 0.269042,0.475625 0.129289,0.103129 0.173978,0.156203 0.09931,0.117941 -0.263352,-0.134952 0.05481,0.292554 0.564892,0.759031 0.869638,0.795294 1.623326,1.076847 2.757763,1.030209 0.624909,-0.02569 0.898216,-0.09205 1.426702,-0.346421 z m -1.923095,0.112614 c 0.152127,-0.02253 0.401061,-0.02253 0.553188,0 0.152126,0.02253 0.02766,0.04097 -0.276594,0.04097 -0.304253,0 -0.42872,-0.01844 -0.276594,-0.04097 z m -1.583416,-0.420118 c -0.03524,-0.05574 0.0051,-0.07223 0.09464,-0.03865 0.174246,0.06537 0.206127,0.135856 0.06145,0.135856 -0.05205,0 -0.122297,-0.04374 -0.156094,-0.09721 z m 3.97218,-0.234924 c 0,-0.02042 0.07921,-0.09786 0.176015,-0.172086 0.159525,-0.122317 0.163082,-0.118839 0.03797,0.03713 -0.131394,0.163802 -0.213989,0.215893 -0.213989,0.134959 z m -4.835431,-0.429965 -0.243836,-0.270422 0.276594,0.238395 c 0.258519,0.222817 0.322719,0.302449 0.243836,0.302449 -0.01802,0 -0.142483,-0.12169 -0.276594,-0.270422 z m 5.338329,-0.06171 c 0,-0.02042 0.07921,-0.09786 0.176014,-0.172087 0.159526,-0.122316 0.163083,-0.118838 0.03797,0.03713 -0.131394,0.163802 -0.213989,0.215894 -0.213989,0.13496 z m 0.921097,-1.732909 c 0,-0.135211 0.02283,-0.190524 0.05073,-0.122919 0.0279,0.06761 0.0279,0.178233 0,0.245838 -0.0279,0.06761 -0.05073,0.01229 -0.05073,-0.122919 z m -17.55642,5.285324 c 0.03376,-0.09476 -0.01103,-0.3492 -0.09952,-0.565428 -0.205157,-0.501299 -0.12634,-0.508718 0.132599,-0.01248 0.176079,0.33744 0.181993,0.401637 0.05209,0.565428 -0.127739,0.161058 -0.138668,0.16266 -0.08517,0.01248 z m -0.509194,-1.541786 c -0.03183,-0.05035 -0.01187,-0.119336 0.04435,-0.153307 0.05622,-0.03397 0.10222,0.0072 0.10222,0.09154 0,0.172729 -0.06035,0.198162 -0.146574,0.06177 z M 10.24746,27.538465 c -0.221275,-0.102372 -0.3739005,-0.189713 -0.3391663,-0.194091 0.097666,-0.01231 0.7917743,0.283587 0.7917743,0.337533 0,0.06591 -3.02e-4,0.06581 -0.452608,-0.143442 z m 30.626471,0.01121 c 0.08298,-0.05012 0.264022,-0.120726 0.402319,-0.156894 0.174755,-0.0457 0.205432,-0.03796 0.100579,0.02538 -0.08298,0.05012 -0.264021,0.120726 -0.402318,0.156894 -0.174755,0.0457 -0.205433,0.03796 -0.10058,-0.02538 z M 9.2919543,27.434749 c -0.082978,-0.05243 -0.1056085,-0.09532 -0.05029,-0.09532 0.055319,0 0.1684708,0.0429 0.2514489,0.09532 0.082978,0.05243 0.1056085,0.09532 0.05029,0.09532 -0.055319,0 -0.1684708,-0.0429 -0.2514489,-0.09532 z M 42.080886,27.156333 c 0.08298,-0.05013 0.264021,-0.120726 0.402318,-0.156894 0.174755,-0.0457 0.205433,-0.03796 0.10058,0.02538 -0.08298,0.05013 -0.264022,0.120727 -0.402319,0.156894 -0.174754,0.0457 -0.205432,0.03796 -0.100579,-0.02538 z M 8.8896361,27.041407 c -0.082978,-0.05243 -0.1056085,-0.09532 -0.05029,-0.09532 0.055319,0 0.1684708,0.0429 0.2514489,0.09532 0.082978,0.05243 0.1056085,0.09532 0.05029,0.09532 -0.055319,0 -0.1684708,-0.0429 -0.2514489,-0.09532 z m -1.2069545,-0.19667 c -0.082978,-0.05243 -0.1056085,-0.09532 -0.05029,-0.09532 0.055319,0 0.1684707,0.04289 0.2514489,0.09532 0.082978,0.05243 0.1056085,0.09532 0.05029,0.09532 -0.055319,0 -0.1684707,-0.04289 -0.2514489,-0.09532 z M 43.509023,26.67624 c 0.204628,-0.08216 0.391736,-0.221677 0.415795,-0.310033 0.03679,-0.135124 0.0456,-0.132509 0.05541,0.01646 0.01054,0.159925 -0.531654,0.480816 -0.764594,0.452519 -0.04327,-0.0053 0.08876,-0.07678 0.293387,-0.158941 z M 7.6826816,26.598898 c -0.1382969,-0.07729 -0.2061881,-0.140533 -0.1508693,-0.140533 0.055319,0 0.2137315,0.06324 0.3520284,0.140533 0.1382968,0.07729 0.206188,0.140534 0.1508693,0.140534 -0.055319,0 -0.2137315,-0.06324 -0.3520284,-0.140534 z M 44.181104,26.233231 c 0.0463,-0.27307 0.06047,-0.28692 0.09214,-0.09008 0.02058,0.127927 -0.004,0.273133 -0.05472,0.322678 -0.0558,0.05456 -0.07056,-0.03718 -0.03742,-0.232595 z M 6.5763066,26.205557 c -0.1382969,-0.07729 -0.2061881,-0.140534 -0.1508693,-0.140534 0.055319,0 0.2137315,0.06324 0.3520284,0.140534 0.1382968,0.07729 0.206188,0.140534 0.1508693,0.140534 -0.055319,0 -0.2137315,-0.06324 -0.3520284,-0.140534 z m 37.4235314,-0.3032 c 0.0048,-0.114556 0.02866,-0.137856 0.06077,-0.05941 0.02905,0.07099 0.02548,0.1558 -0.0079,0.188476 -0.03342,0.03268 -0.05719,-0.0254 -0.05283,-0.129065 z m 0.309678,-0.434315 c 0,-0.135211 0.02283,-0.190524 0.05073,-0.122919 0.0279,0.06761 0.0279,0.178233 0,0.245838 -0.0279,0.06761 -0.05073,0.01229 -0.05073,-0.122919 z M 5.7912781,25.222204 c 0.00205,-0.162253 0.024591,-0.216725 0.050093,-0.121048 0.025501,0.09568 0.023824,0.22843 -0.00373,0.295006 -0.027551,0.06658 -0.048416,-0.0117 -0.046366,-0.173958 z M 44.43095,23.550503 c 3.02e-4,-0.540844 0.01715,-0.749553 0.03753,-0.463796 0.02038,0.285756 0.02017,0.728265 -5.02e-4,0.983353 -0.02062,0.255088 -0.03729,0.02129 -0.03703,-0.519557 z M 5.6984849,23.993012 c 0,-0.24338 0.019615,-0.342944 0.043588,-0.221254 0.023973,0.12169 0.023973,0.320819 0,0.442509 -0.023974,0.12169 -0.043588,0.02212 -0.043588,-0.221255 z m 0,-1.770036 c 0,-0.243379 0.019615,-0.342944 0.043588,-0.221254 0.023973,0.12169 0.023973,0.320819 0,0.442509 -0.023974,0.12169 -0.043588,0.02213 -0.043588,-0.221255 z M 44.309516,21.632965 c 0,-0.135212 0.02283,-0.190525 0.05073,-0.12292 0.0279,0.06761 0.0279,0.178233 0,0.245839 -0.0279,0.06761 -0.05073,0.01229 -0.05073,-0.122919 z M 5.7875512,20.944617 c 0,-0.135211 0.022829,-0.190524 0.050731,-0.122919 0.027902,0.06761 0.027902,0.178233 0,0.245838 -0.027902,0.06761 -0.050731,0.01229 -0.050731,-0.122919 z M 44.011505,20.698779 c 0.0021,-0.162253 0.02459,-0.216725 0.05009,-0.121048 0.0255,0.09568 0.02382,0.22843 -0.0037,0.295006 -0.02755,0.06658 -0.04842,-0.0117 -0.04637,-0.173958 z M 5.8801902,20.198908 c 0.00483,-0.114556 0.028659,-0.137856 0.060767,-0.05941 0.029054,0.07099 0.025481,0.155799 -0.00794,0.188476 -0.033422,0.03268 -0.057194,-0.0254 -0.052826,-0.129065 z M 38.974249,18.225436 c -0.08885,-0.190653 -0.09159,-0.289835 -0.01018,-0.368757 0.08124,-0.07877 0.09152,-0.05706 0.03801,0.08026 -0.04199,0.107761 -0.03379,0.164339 0.01919,0.132355 0.05089,-0.03072 0.09905,0.05052 0.107032,0.18054 0.01844,0.300511 -0.0043,0.296909 -0.154045,-0.0244 z m -0.453337,-1.07518 c -0.03367,-0.08577 -0.02342,-0.221973 0.02277,-0.302664 0.05923,-0.103474 0.08398,-0.05751 0.08398,0.155954 0,0.342656 -0.01938,0.369292 -0.106743,0.14671 z M 11.412065,16.408994 c -0.0044,-0.08783 -0.118782,-0.353592 -0.254255,-0.590572 -0.297252,-0.519977 -0.58028,-1.167266 -0.510387,-1.167266 0.105991,0 0.874883,1.668001 0.824991,1.789701 -0.03585,0.08746 -0.05492,0.07739 -0.06035,-0.03186 z m 27.558931,-0.381143 c 0.146625,-0.301007 0.193083,-0.356794 0.193083,-0.231855 0,0.05276 -0.07039,0.181827 -0.156418,0.286812 -0.147487,0.179984 -0.149581,0.176846 -0.03666,-0.05496 z m 0.450998,-0.913843 c 0.03777,-0.09698 0.09401,-0.151556 0.124978,-0.12128 0.03097,0.03028 6.5e-5,0.109623 -0.06867,0.176328 -0.09933,0.09639 -0.110887,0.0851 -0.05631,-0.05505 z m 0.244983,-0.526003 c 0,-0.05276 0.07039,-0.181827 0.156418,-0.286811 0.147487,-0.179984 0.149581,-0.176847 0.03666,0.05496 -0.146625,0.301008 -0.193083,0.356794 -0.193083,0.231855 z M 10.366192,14.204336 c -0.0977,-0.200317 -0.156411,-0.384971 -0.13046,-0.410343 0.0676,-0.06609 0.3827,0.555763 0.342039,0.675023 -0.01866,0.05474 -0.113874,-0.06436 -0.211579,-0.26468 z m 29.703103,-0.377524 c 0,-0.105532 0.299262,-0.650686 0.357194,-0.650686 0.02766,0 -0.02452,0.143816 -0.115954,0.31959 -0.186699,0.358914 -0.24124,0.43377 -0.24124,0.331096 z M 9.9098004,13.211246 C 9.7861982,12.962514 9.7045899,12.73992 9.7284474,12.716595 c 0.023858,-0.02332 0.1442612,0.161338 0.2675637,0.410364 0.1233029,0.249025 0.2049119,0.471619 0.1813529,0.494651 -0.02356,0.02303 -0.143962,-0.161631 -0.2675636,-0.410364 z M 40.623811,12.68445 c 0.05911,-0.251711 0.05036,-0.264275 -1.437365,-2.065042 l -0.446827,-0.540844 0.575206,0.590012 c 0.730991,0.749807 1.458982,1.667334 1.456987,1.836317 -8.05e-4,0.07171 -0.04748,0.196766 -0.103635,0.277892 -0.07763,0.112154 -0.08826,0.08859 -0.04437,-0.09834 z M 10.34804,10.816079 c 0.100125,-0.108169 0.204677,-0.196671 0.232336,-0.196671 0.02766,0 -0.03163,0.0885 -0.131757,0.196671 -0.100126,0.108168 -0.204677,0.19667 -0.232337,0.19667 -0.02766,0 0.03163,-0.0885 0.131758,-0.19667 z M 38.111925,9.5877023 C 37.94813,9.4568297 37.838278,9.3261303 37.867808,9.2972581 c 0.02953,-0.028871 0.183327,0.079798 0.34177,0.2414869 0.346421,0.3535175 0.307772,0.3728935 -0.09765,0.048957 z M 30.16221,9.5377194 c -0.07867,-0.1244532 0.05448,-0.1244532 0.251449,0 0.130018,0.082149 0.127363,0.095532 -0.01921,0.09683 -0.09354,8.28e-4 -0.198051,-0.042745 -0.23224,-0.09683 z m -0.289313,-0.24964 c -0.09706,-0.2472828 -0.06842,-0.3110887 0.05014,-0.1117423 0.05871,0.098704 0.08555,0.2001773 0.05966,0.2254957 -0.0259,0.025318 -0.07531,-0.025871 -0.109798,-0.1137534 z M 12.158471,9.0460428 c 0.100126,-0.1081689 0.204678,-0.1966707 0.232337,-0.1966707 0.02766,0 -0.03163,0.088502 -0.131757,0.1966707 -0.100126,0.1081688 -0.204677,0.1966706 -0.232337,0.1966706 -0.02766,0 0.03163,-0.088502 0.131757,-0.1966706 z M 37.240238,8.7756206 c -0.125108,-0.1559657 -0.121551,-0.1594438 0.03798,-0.037128 0.09681,0.074229 0.176014,0.1516675 0.176014,0.1720869 0,0.080934 -0.0826,0.028843 -0.213989,-0.1349594 z M 29.566197,8.3904195 c -0.03539,-0.09017 -0.02892,-0.19854 0.01438,-0.2408203 0.0433,-0.042281 0.08526,0.031495 0.09324,0.1639457 0.01694,0.2813226 -0.01767,0.306049 -0.10762,0.076875 z m -0.20023,-0.4893077 c -0.03488,-0.088868 -0.03972,-0.1847446 -0.01076,-0.2130592 0.02896,-0.028316 0.05266,0.00275 0.05266,0.069045 0,0.066291 0.04474,0.093492 0.09943,0.06045 0.05701,-0.034451 0.07388,0.00502 0.03953,0.092532 -0.07563,0.1926831 -0.102224,0.1913645 -0.180853,-0.00897 z M 29.014931,6.8667197 c -0.06098,-0.1710234 -0.09024,-0.3311231 -0.06502,-0.3557771 0.02522,-0.024654 0.07551,0.070718 0.111762,0.2119369 0.03625,0.1412193 0.105828,0.2326443 0.154612,0.2031668 0.04878,-0.029477 0.06174,0.015079 0.0288,0.099015 -0.08275,0.2108415 -0.103638,0.1964732 -0.23015,-0.1583415 z M 28.613535,5.689285 c -0.0852,-0.2389675 -0.08442,-0.3444832 0.0031,-0.4229449 0.0835,-0.074826 0.09796,-0.071949 0.05089,0.010124 -0.03617,0.063067 -0.01891,0.235145 0.03835,0.3823954 0.05726,0.1472506 0.08545,0.2859755 0.06264,0.3082776 -0.02281,0.022302 -0.09256,-0.1027315 -0.155004,-0.2778526 z M 28.407079,4.8726949 C 28.34097,4.7948152 28.18833,4.7123395 28.06788,4.6894158 c -0.212818,-0.040503 -0.213051,-0.042058 -0.0083,-0.055071 0.115897,-0.00737 0.29264,0.07511 0.392766,0.1832791 0.100126,0.1081689 0.157943,0.1966707 0.128483,0.1966707 -0.02946,0 -0.107652,-0.06372 -0.173762,-0.1415995 z M 22.247857,4.5537788 c 0.0726,-0.028406 0.159355,-0.024913 0.192778,0.00776 0.03342,0.032676 -0.02598,0.055917 -0.132011,0.051648 -0.11717,-0.00472 -0.141002,-0.02802 -0.06077,-0.059411 z m 5.129557,0 c 0.0726,-0.028406 0.159356,-0.024913 0.192778,0.00776 0.03342,0.032676 -0.02598,0.055917 -0.132011,0.051648 -0.11717,-0.00472 -0.141003,-0.02802 -0.06077,-0.059411 z m -4.230627,-0.096287 c 0.06915,-0.027279 0.1823,-0.027279 0.251448,0 0.06915,0.02728 0.01257,0.049599 -0.125724,0.049599 -0.138297,0 -0.194873,-0.02232 -0.125724,-0.049599 z m 3.218545,0 c 0.06915,-0.027279 0.1823,-0.027279 0.251449,0 0.06915,0.02728 0.01257,0.049599 -0.125725,0.049599 -0.138296,0 -0.194872,-0.02232 -0.125724,-0.049599 z"
         id="path253" /><path
            style="display:inline;fill:#8fb5c9;stroke-width:0.0994511"
            d="m 23.47367,41.862122 c 0,-0.05554 -0.189945,-0.07506 -0.45078,-0.04632 -0.295567,0.03257 -0.428711,0.01476 -0.386681,-0.05173 0.04195,-0.06636 -0.06374,-0.08112 -0.30582,-0.04271 -0.203456,0.03228 -0.345604,0.02022 -0.315885,-0.02679 0.02972,-0.04701 -0.04823,-0.09971 -0.173218,-0.117095 -0.25193,-0.03505 -0.594035,-0.619883 -0.501104,-0.856651 0.03855,-0.09822 0.01482,-0.116827 -0.07771,-0.06092 -0.08473,0.0512 -0.109075,0.04231 -0.06689,-0.02442 0.03647,-0.0577 -0.06958,-0.436718 -0.235672,-0.842261 -0.166093,-0.405544 -0.361245,-0.96373 -0.433669,-1.240414 -0.07242,-0.276684 -0.170309,-0.468703 -0.217523,-0.426707 -0.04721,0.042 -0.05009,0.016 -0.0064,-0.05777 0.113668,-0.191927 -0.448861,-1.313022 -0.625567,-1.246726 -0.08101,0.03039 -0.108545,0.0074 -0.06801,-0.05668 0.04547,-0.07193 -0.0029,-0.0857 -0.145645,-0.04142 -0.131595,0.04084 -0.213755,0.02376 -0.213755,-0.04444 0,-0.06092 -0.04526,-0.08342 -0.100579,-0.04999 -0.05532,0.03343 -0.10058,0.01689 -0.10058,-0.03674 0,-0.09779 -0.386553,-0.265126 -0.528042,-0.228584 -0.04149,0.01072 -0.07544,-0.01737 -0.07544,-0.06242 0,-0.04505 -0.08199,-0.076 -0.182193,-0.06878 -0.27911,0.0201 -0.823603,0.261465 -0.823603,0.365085 0,0.05071 -0.04526,0.06486 -0.100579,0.03143 -0.05532,-0.03343 -0.10058,-0.0113 -0.10058,0.04917 0,0.06047 -0.04215,0.08447 -0.09367,0.05334 -0.105027,-0.06346 -0.811546,0.239236 -0.811546,0.347692 0,0.03828 -0.07024,0.09595 -0.156093,0.128164 -0.09607,0.03604 -0.130488,0.01805 -0.08951,-0.04677 0.08204,-0.129779 -0.548553,0.181624 -0.733041,0.361995 -0.07345,0.07182 -0.20756,0.102808 -0.298011,0.06887 -0.118828,-0.04458 -0.141616,-0.02557 -0.08213,0.06854 0.05274,0.08343 0.04331,0.106659 -0.02625,0.06463 -0.127555,-0.07707 -0.626554,0.124804 -0.626554,0.253482 0,0.0486 -0.04526,0.06101 -0.10058,0.02758 -0.05532,-0.03343 -0.10058,-0.0153 -0.10058,0.04028 0,0.05558 -0.07532,0.0728 -0.167368,0.03826 -0.09205,-0.03454 -0.141636,-0.02209 -0.110185,0.02767 0.03145,0.04976 -0.04732,0.09046 -0.175054,0.09046 -0.127732,0 -0.214192,-0.02855 -0.192133,-0.06345 0.04837,-0.07652 -0.269767,-0.223318 -0.411345,-0.189808 -0.05532,0.01309 -0.06692,-0.0091 -0.02578,-0.04932 0.0782,-0.07645 -0.302641,-0.383809 -0.477113,-0.385054 -0.05532,-3.94e-4 -0.10058,-0.04958 -0.10058,-0.1093 0,-0.124876 -0.603033,-0.645756 -0.670846,-0.579457 -0.02475,0.0242 -0.289734,-0.198292 -0.588856,-0.494418 -0.299122,-0.296126 -0.508174,-0.538412 -0.464559,-0.538412 0.04361,0 -0.01861,-0.121689 -0.13827,-0.270422 -0.119663,-0.148732 -0.270045,-0.270422 -0.334184,-0.270422 -0.06414,0 -0.116615,-0.04519 -0.116615,-0.10043 0,-0.05524 -0.105194,-0.23224 -0.2337635,-0.393341 -0.1285709,-0.161102 -0.200784,-0.230761 -0.1604737,-0.154798 0.048602,0.09159 0.033623,0.114143 -0.04447,0.06696 -0.064768,-0.03914 -0.094089,-0.108602 -0.065158,-0.154371 0.028932,-0.04577 -0.061251,-0.215503 -0.2004057,-0.377189 L 9.1895986,33.845258 10.330536,31.574087 11.471472,29.302915 11.18635,28.814824 c -0.156818,-0.26845 -0.285123,-0.580011 -0.285123,-0.692357 0,-0.279568 -0.33279,-0.606069 -0.635882,-0.623868 -0.137516,-0.0081 -0.226076,-0.05261 -0.196797,-0.09897 0.02928,-0.04636 -0.04295,-0.05444 -0.1605209,-0.01796 -0.1240588,0.0385 -0.2137546,0.02358 -0.2137546,-0.03555 0,-0.05603 -0.067891,-0.07641 -0.1508693,-0.04527 -0.082978,0.03113 -0.1508694,0.005 -0.1508694,-0.05806 0,-0.06306 -0.045261,-0.08731 -0.1005795,-0.05389 -0.055319,0.03343 -0.1005795,0.0092 -0.1005795,-0.05388 0,-0.06322 -0.070021,-0.08839 -0.1560933,-0.0561 -0.101983,0.03826 -0.1311295,0.01907 -0.08408,-0.05536 0.048093,-0.07608 0.01642,-0.09306 -0.095356,-0.05113 -0.092053,0.03454 -0.1673689,0.02132 -0.1673689,-0.02937 0,-0.05069 -0.067891,-0.06669 -0.1508693,-0.03556 -0.082978,0.03113 -0.1508693,0.0039 -0.1508693,-0.06045 0,-0.06438 -0.056172,-0.09874 -0.1248264,-0.07637 -0.068655,0.02238 -0.1876424,-0.02073 -0.2644175,-0.09579 -0.076775,-0.07506 -0.2039971,-0.112314 -0.2827157,-0.08278 -0.078719,0.02953 -0.1201343,0.01733 -0.092035,-0.02712 0.028099,-0.04445 -0.078392,-0.08082 -0.2366461,-0.08082 -0.1582543,0 -0.3657728,-0.0763 -0.4611521,-0.169547 -0.095379,-0.09325 -0.237823,-0.145385 -0.3165416,-0.115851 -0.09072,0.03404 -0.1167574,0.01199 -0.071111,-0.06022 0.048093,-0.07608 0.01642,-0.09306 -0.095356,-0.05113 -0.092053,0.03454 -0.1673689,0.02132 -0.1673689,-0.02937 0,-0.05069 -0.063594,-0.0683 -0.1413191,-0.03914 -0.1817301,0.06818 -0.2362862,-0.186528 -0.3602119,-1.681725 -0.09413,-1.135708 8.65e-4,-3.320596 0.181711,-4.179251 l 0.072487,-0.344174 2.390451,-0.789059 2.3904513,-0.78906 0.348282,-0.783296 c 0.347816,-0.782242 0.462164,-1.406577 0.232164,-1.267602 -0.06601,0.03989 -0.08903,0.02731 -0.05334,-0.02914 0.03453,-0.05462 -0.118936,-0.470778 -0.34103,-0.924795 -0.222095,-0.454022 -0.486812,-1.002495 -0.58826,-1.218832 C 9.9288129,12.994481 9.6375345,12.43581 9.568548,12.405833 9.0413703,12.17676 11.038827,9.905877 13.190891,8.2876384 l 0.730681,-0.5494329 2.318613,1.1002602 2.318612,1.1002593 0.82302,-0.3179772 c 0.45266,-0.1748874 0.850522,-0.3570998 0.884138,-0.4049163 0.03362,-0.047816 0.440632,-1.0993821 0.90448,-2.3368141 l 0.843359,-2.2498758 0.553924,-0.077846 c 0.8796,-0.1236148 4.193277,-0.086517 4.999019,0.055965 0.710996,0.1257287 1.016631,0.2981187 0.888343,0.5010611 -0.03569,0.056454 -0.02198,0.1026429 0.03046,0.1026429 0.05244,0 0.09324,0.055314 0.09067,0.1229192 -0.01279,0.3368289 0.03519,0.4737664 0.143141,0.4085349 0.0756,-0.045683 0.08865,-0.026716 0.0374,0.054359 -0.04523,0.071554 -0.02332,0.1579957 0.05151,0.203213 0.07163,0.043279 0.130229,0.213389 0.130229,0.3780214 0,0.1646324 0.0335,0.2790917 0.07444,0.2543539 0.04094,-0.024738 0.0489,0.050505 0.01768,0.1672055 -0.0386,0.144322 -0.01989,0.1899069 0.05852,0.1425314 0.07473,-0.045156 0.09421,-0.01598 0.05537,0.082958 -0.03303,0.084151 -0.0073,0.1526104 0.05738,0.1526104 0.0645,0 0.09124,0.041193 0.05941,0.09154 -0.03183,0.050347 -0.01003,0.1204478 0.04845,0.1557787 0.05847,0.035331 0.07699,0.1545576 0.04115,0.2649478 -0.0431,0.1327576 -0.02785,0.178165 0.04505,0.1341196 0.06906,-0.041732 0.08784,-0.00962 0.0503,0.086021 -0.03294,0.083936 -0.01122,0.1526105 0.04829,0.1526105 0.0595,0 0.08437,0.060671 0.05526,0.1348236 -0.0291,0.074153 0.02197,0.2080432 0.113506,0.2975332 0.09153,0.08949 0.140816,0.2279482 0.10952,0.3076854 -0.0313,0.079736 -0.01448,0.1449757 0.03736,0.1449757 0.05185,0 0.06999,0.061858 0.04031,0.137461 -0.06166,0.1571114 0.327479,0.5508863 0.544408,0.5508863 0.07946,0 0.410385,0.1166729 0.735393,0.2592729 L 31.721217,10.1546 33.9783,9.1578127 c 1.241396,-0.5482332 2.311296,-0.9967879 2.377556,-0.9967879 0.138138,0 1.500689,1.0672736 1.500689,1.1754759 0,0.03931 0.160356,0.1830217 0.356346,0.3193597 0.31397,0.2184087 1.776368,1.8652546 2.252774,2.5369126 0.237442,0.334754 0.339401,0.620782 0.188863,0.52982 -0.07782,-0.04702 -0.09519,-0.01605 -0.05229,0.09323 0.03532,0.09 0.01771,0.163634 -0.03913,0.163634 -0.05685,0 -0.07539,0.04425 -0.0412,0.09833 0.03419,0.05409 0.01539,0.09834 -0.04177,0.09834 -0.139063,0 -0.43509,0.570426 -0.358722,0.691236 0.03319,0.0525 0.0049,0.09545 -0.06294,0.09545 -0.0678,0 -0.09688,0.02581 -0.06461,0.05736 0.03227,0.03155 -0.03158,0.145598 -0.141882,0.253442 -0.110305,0.107843 -0.175845,0.259034 -0.145644,0.335979 0.0302,0.07694 0.0035,0.1399 -0.05928,0.1399 -0.0628,0 -0.08617,0.02739 -0.05192,0.06087 0.03424,0.03348 -0.0039,0.12555 -0.08474,0.204599 -0.08085,0.07905 -0.121287,0.184407 -0.08985,0.234131 0.03143,0.04972 0.0065,0.09041 -0.0553,0.09041 -0.06185,0 -0.08448,0.04425 -0.05029,0.09834 0.03419,0.05408 0.01156,0.09834 -0.05029,0.09834 -0.06185,0 -0.08448,0.04425 -0.05029,0.09834 0.03419,0.05408 0.01728,0.09833 -0.03758,0.09833 -0.100023,0 -0.271176,0.377928 -0.2338,0.51626 0.01096,0.04056 -0.028,0.07375 -0.08659,0.07375 -0.05858,0 -0.08215,0.03854 -0.05238,0.08564 0.02978,0.0471 -0.03545,0.186628 -0.144935,0.310052 -0.237765,0.268029 -0.244355,0.332667 -0.05299,0.519761 0.08034,0.07855 0.118061,0.170214 0.08382,0.203694 -0.03424,0.03348 -0.0046,0.06087 0.06584,0.06087 0.07255,0 0.102997,0.06397 0.07021,0.147503 -0.03184,0.08113 -0.01547,0.147503 0.03637,0.147503 0.05185,0 0.06536,0.07363 0.03004,0.163634 -0.04289,0.109282 -0.02552,0.140248 0.05229,0.09323 0.07386,-0.04463 0.09641,-0.01917 0.0616,0.06952 -0.03021,0.07696 0.01557,0.208852 0.101731,0.293089 0.08616,0.08424 0.156654,0.200571 0.156654,0.258518 0,0.05795 0.05658,0.104732 0.125724,0.103965 0.06915,-7.87e-4 1.132695,0.364303 2.363436,0.811266 2.113952,0.767716 2.237722,0.826529 2.237895,1.063416 1.01e-4,0.137915 0.05094,0.300382 0.112982,0.361037 0.06965,0.0681 0.09685,0.355133 0.07111,0.750406 -0.02293,0.352068 -0.0058,0.618436 0.03807,0.591928 0.04387,-0.02651 0.07976,0.399538 0.07976,0.946766 0,0.547228 -0.03395,0.974398 -0.07543,0.949266 -0.04149,-0.02513 -0.08369,0.293075 -0.09377,0.707128 -0.02688,1.103768 -0.05018,1.293666 -0.158699,1.293666 -0.05383,0 -0.07577,0.08264 -0.04876,0.183642 0.02701,0.101003 -0.0016,0.182534 -0.0637,0.18118 -0.320044,-0.007 -0.470393,0.03853 -0.415274,0.125729 0.03524,0.05574 -0.0051,0.07223 -0.09464,0.03865 -0.08866,-0.03326 -0.156093,-0.0066 -0.156093,0.06176 0,0.07194 -0.08095,0.09963 -0.201298,0.06886 -0.110714,-0.02831 -0.175976,-0.01141 -0.145027,0.03755 0.03095,0.04896 -0.02556,0.08207 -0.125585,0.07359 -0.371219,-0.0315 -0.545561,0.01604 -0.473991,0.129257 0.04673,0.07392 0.02733,0.08667 -0.0556,0.03657 -0.07237,-0.04373 -0.160619,-0.02435 -0.204381,0.04488 -0.04236,0.06701 -0.229658,0.134204 -0.416219,0.149321 -0.186561,0.01512 -0.398449,0.03234 -0.470862,0.03827 -0.07241,0.0059 -0.104007,0.05453 -0.07021,0.10799 0.03524,0.05574 -0.0051,0.07223 -0.09464,0.03865 -0.08585,-0.03221 -0.156093,-0.01097 -0.156093,0.04721 0,0.05817 -0.06789,0.0803 -0.150869,0.04917 -0.08345,-0.03131 -0.15087,-0.0028 -0.15087,0.06372 0,0.0738 -0.08162,0.09946 -0.211107,0.06635 -0.11611,-0.02968 -0.182367,-0.02587 -0.147238,0.0085 0.03513,0.03434 -0.128317,0.117926 -0.363213,0.185735 -0.496388,0.143295 -0.641372,0.1059 -0.188217,-0.04854 l 0.307447,-0.104786 -1.417913,-1.35703 c -0.779852,-0.746367 -1.480128,-1.391584 -1.55617,-1.433815 -0.107188,-0.05953 -0.124751,-0.248011 -0.07816,-0.838735 0.18904,-2.39671 -0.788553,-5.509557 -2.377908,-7.571727 -5.27921,-6.8497161 -15.915805,-5.83484 -19.76807,1.886142 -2.927444,5.867389 -0.396468,12.945154 5.613828,15.698829 0.954585,0.437352 2.427726,0.85162 3.361863,0.945403 l 0.625696,0.06282 1.914153,2.844111 c 1.324407,1.967845 1.952823,2.821399 2.039664,2.770394 0.08909,-0.05233 0.08652,-0.02669 -0.0089,0.08835 -0.07391,0.08914 -0.100863,0.215098 -0.05989,0.279908 0.04938,0.07812 0.03171,0.09199 -0.05241,0.04116 -0.09343,-0.05646 -0.108915,-0.02129 -0.05871,0.133375 0.05735,0.176669 0.01936,0.219598 -0.23904,0.270126 -0.168977,0.03304 -0.28432,0.09632 -0.256319,0.140612 0.028,0.0443 -0.108133,0.0553 -0.30252,0.02446 -0.194387,-0.03084 -0.41039,-0.01171 -0.480007,0.04252 -0.166645,0.129792 -3.294834,0.127219 -3.294834,-0.0027 z M 11.806443,36.748324 c 0,-0.01555 -0.237619,-0.247871 -0.528043,-0.51626 l -0.528042,-0.48798 0.499117,0.51626 c 0.463788,0.479718 0.556968,0.561357 0.556968,0.48798 z m 16.753858,3.175011 c 0.03699,-0.135211 0.109206,-0.312214 0.160474,-0.393341 0.06479,-0.102514 0.0727,-0.07252 0.02596,0.09833 -0.03699,0.135211 -0.109206,0.312215 -0.160475,0.393342 -0.06478,0.102513 -0.0727,0.07252 -0.02596,-0.09834 z m 0.347745,-0.934185 c 0,-0.05409 0.04387,-0.164712 0.0975,-0.245839 0.05363,-0.08113 0.0975,-0.103252 0.0975,-0.04917 0,0.05408 -0.04387,0.164711 -0.0975,0.245838 -0.05363,0.08113 -0.0975,0.103252 -0.0975,0.04917 z m 7.045869,-0.372 c 0.02305,-0.0153 0.13243,-0.09274 0.243068,-0.172087 0.186073,-0.133442 0.190806,-0.131355 0.06312,0.02783 -0.07592,0.09465 -0.185302,0.172087 -0.243067,0.172087 -0.05777,0 -0.08617,-0.01252 -0.06312,-0.02783 z m -6.84471,-0.119677 c 0,-0.05408 0.04387,-0.164712 0.0975,-0.245838 0.05363,-0.08113 0.0975,-0.103252 0.0975,-0.04917 0,0.05408 -0.04387,0.164712 -0.0975,0.245838 -0.05362,0.08113 -0.0975,0.103252 -0.0975,0.04917 z m 6.006547,-0.252534 c -0.207445,-0.10707 -0.377173,-0.216641 -0.377173,-0.24349 0,-0.04381 0.794442,0.319179 0.896835,0.409776 0.115742,0.102409 -0.186383,0.0057 -0.519662,-0.166286 z m 1.332679,0.0679 c 0,-0.02042 0.07921,-0.09786 0.176015,-0.172086 0.159525,-0.122317 0.163082,-0.118839 0.03797,0.03713 -0.131394,0.163802 -0.213989,0.215893 -0.213989,0.134959 z m 0.402319,-0.280028 c 0,-0.02127 0.260249,-0.255064 0.578332,-0.51954 0.318083,-0.264476 0.487811,-0.378668 0.377173,-0.253759 -0.210101,0.237201 -0.955505,0.840464 -0.955505,0.773299 z m -2.715648,-0.272856 c -0.193616,-0.103635 -0.315835,-0.190282 -0.271599,-0.192548 0.106584,-0.0055 0.673917,0.282933 0.673917,0.342576 0,0.06436 -0.0059,0.06217 -0.402318,-0.150028 z M 29.508443,37.37242 c 0,-0.05089 0.04474,-0.119567 0.09943,-0.15261 0.05701,-0.03445 0.07388,0.005 0.03953,0.09253 -0.06686,0.170359 -0.138957,0.201528 -0.138957,0.06008 z m 3.721443,-0.05497 c -0.138297,-0.07729 -0.203524,-0.142102 -0.144948,-0.144018 0.05857,-0.0019 0.194358,0.06148 0.301738,0.140891 0.248329,0.183635 0.169012,0.185218 -0.15679,0.0031 z m -3.319125,-0.344174 c 0.08298,-0.05243 0.19613,-0.09532 0.251449,-0.09532 0.05532,0 0.03269,0.0429 -0.05029,0.09532 -0.08298,0.05243 -0.19613,0.09532 -0.251449,0.09532 -0.05532,0 -0.03269,-0.0429 0.05029,-0.09532 z m 2.413909,-0.09833 c -0.193616,-0.103635 -0.315835,-0.190282 -0.271599,-0.192548 0.106584,-0.0055 0.673917,0.282933 0.673917,0.342576 0,0.06436 -0.0059,0.06217 -0.402318,-0.150028 z m 6.430293,-0.540844 c 0.408751,-0.432676 0.966346,-1.063251 1.239099,-1.401279 0.506658,-0.627912 0.759059,-0.844208 0.383675,-0.328795 -0.281506,0.386518 -1.829755,2.075218 -2.127122,2.320086 -0.13136,0.108169 0.0956,-0.157337 0.504348,-0.590012 z m -8.341304,0.442509 c 0.08298,-0.05243 0.19613,-0.09532 0.251449,-0.09532 0.05532,0 0.03269,0.0429 -0.05029,0.09532 -0.08298,0.05243 -0.19613,0.09532 -0.251449,0.09532 -0.05532,0 -0.03269,-0.04289 0.05029,-0.09532 z m 0.781347,-0.311571 c 0.05845,-0.05714 0.165636,-0.08455 0.238198,-0.0609 0.07533,0.02455 0.02974,0.06912 -0.106267,0.103896 -0.167299,0.04277 -0.206568,0.02998 -0.131931,-0.043 z m 9.121602,-2.350025 c -0.03646,-0.05768 -0.04473,-0.125968 -0.01836,-0.151745 0.02636,-0.02578 0.07474,0.02142 0.107495,0.104878 0.06801,0.173278 0.01005,0.203757 -0.08913,0.04687 z m -0.480736,-1.03055 c -0.236278,-0.484426 -0.203038,-0.566858 0.04398,-0.109069 0.112193,0.207921 0.186195,0.395431 0.164451,0.416691 -0.02174,0.02126 -0.115539,-0.117171 -0.208432,-0.307622 z m -0.502898,-1.081688 c -0.236278,-0.484427 -0.203038,-0.566858 0.04398,-0.10907 0.112192,0.207921 0.186195,0.395431 0.16445,0.416691 -0.02175,0.02126 -0.115538,-0.11717 -0.208432,-0.307621 z m -14.63535,-1.234828 c 0.135628,-0.08204 -0.963223,-0.20012 -1.190759,-0.127954 -0.140662,0.04461 -0.151261,0.03552 -0.04495,-0.03854 0.106961,-0.07452 0.06684,-0.112442 -0.17356,-0.164065 -0.171972,-0.03693 -0.35904,-0.03913 -0.415709,-0.0049 -0.05667,0.03424 -0.103034,0.01066 -0.103034,-0.0524 0,-0.06322 -0.07002,-0.08839 -0.156093,-0.0561 -0.101983,0.03826 -0.13113,0.01907 -0.08408,-0.05536 0.04853,-0.07677 0.01573,-0.0928 -0.100579,-0.04917 -0.09493,0.03561 -0.148187,0.02614 -0.118358,-0.02105 0.05595,-0.0885 -0.463861,-0.33807 -0.704141,-0.33807 -0.07449,0 -0.113527,-0.03466 -0.08675,-0.07701 0.07198,-0.113876 -0.343111,-0.304062 -0.487074,-0.223166 -0.06801,0.03821 -0.0896,0.03279 -0.04799,-0.01206 0.04161,-0.04484 6.03e-4,-0.162567 -0.09102,-0.261604 -0.182996,-0.197697 -0.391338,-0.247785 -0.276765,-0.06654 0.04586,0.07255 0.02743,0.08674 -0.05104,0.03932 -0.06755,-0.04081 -0.09615,-0.100275 -0.06356,-0.132133 0.03259,-0.03186 -0.121153,-0.23762 -0.341643,-0.457246 l -0.400888,-0.399321 5.392613,0.02629 c 4.976253,0.02426 5.407336,0.01326 5.583295,-0.14243 0.208518,-0.184495 0.520535,-0.26899 0.422888,-0.114518 -0.03346,0.05294 -0.08658,0.07108 -0.118041,0.04032 -0.06901,-0.06746 -0.425554,0.233232 -0.425554,0.358892 0,0.04889 0.05658,0.05732 0.125724,0.01872 0.06915,-0.0386 -0.0057,0.06784 -0.16626,0.236538 -0.160592,0.168695 -0.323652,0.287583 -0.362356,0.264197 -0.104971,-0.06343 -0.451343,0.210554 -0.456606,0.361177 -0.0025,0.07197 -0.06297,0.118519 -0.134347,0.103452 -0.180882,-0.03818 -0.830301,0.368654 -0.7617,0.477176 0.03088,0.04885 -0.02153,0.05967 -0.116453,0.02406 -0.103033,-0.03866 -0.14769,-0.02536 -0.110804,0.03299 0.03419,0.05408 -0.03708,0.09449 -0.159514,0.09046 -0.133146,-0.0044 -0.210294,0.0446 -0.193666,0.122945 0.0152,0.07163 -0.01915,0.101957 -0.07633,0.0674 -0.133512,-0.08067 -0.523,0.0377 -0.458704,0.139416 0.02679,0.04238 -0.07439,0.05785 -0.224844,0.03439 -0.215613,-0.03362 -0.241597,-0.02023 -0.122681,0.06324 0.114506,0.08037 0.06602,0.09208 -0.201159,0.04859 -0.268138,-0.04365 -0.316075,-0.03194 -0.201159,0.04917 0.114916,0.0811 0.06698,0.09282 -0.201159,0.04917 -0.235006,-0.03826 -0.307404,-0.0264 -0.217789,0.03567 0.089,0.06164 -0.04661,0.0807 -0.402318,0.05656 -0.334002,-0.02267 -0.465291,-0.0061 -0.347776,0.04388 0.119616,0.05088 -0.07029,0.07823 -0.518332,0.07464 -0.388912,-0.0031 -0.662942,-0.03238 -0.608956,-0.06504 z m 5.775881,-2.069144 c 0.190576,-0.209848 0.19039,-0.210357 -0.0347,-0.09488 -0.124468,0.06386 -0.226304,0.158798 -0.226304,0.21098 0,0.139699 0.04815,0.118282 0.261005,-0.116104 z m -7.421012,1.815506 c 0.07261,-0.02841 0.159356,-0.02491 0.192778,0.0078 0.03342,0.03268 -0.02598,0.05592 -0.132011,0.05165 -0.11717,-0.0047 -0.141002,-0.02802 -0.06077,-0.05941 z m 15.402919,-0.33459 c -0.06175,-0.1128 -0.09332,-0.223614 -0.07017,-0.246253 0.02316,-0.02264 0.09374,0.06965 0.156862,0.205092 0.138606,0.297419 0.07112,0.329461 -0.08669,0.04116 z m 0.0549,-0.77826 c 0.08582,-0.162253 0.178666,-0.295006 0.206325,-0.295006 0.02766,0 -0.01993,0.132753 -0.105745,0.295006 -0.08582,0.162254 -0.178666,0.295006 -0.206325,0.295006 -0.02766,0 0.01993,-0.132752 0.105745,-0.295006 z m 0.25453,-0.540844 c 0,-0.05408 0.04387,-0.164712 0.0975,-0.245838 0.05362,-0.08113 0.0975,-0.103252 0.0975,-0.04917 0,0.05408 -0.04387,0.164712 -0.0975,0.245838 -0.05363,0.08113 -0.0975,0.103252 -0.0975,0.04917 z M 19.437658,28.14768 c -0.125107,-0.155966 -0.12155,-0.159444 0.03797,-0.03713 0.167541,0.128463 0.220821,0.209215 0.13804,0.209215 -0.02089,0 -0.100092,-0.07744 -0.176015,-0.172087 z m 4.890938,-0.844666 c -0.221275,-0.07162 -0.55653,-0.208764 -0.745013,-0.304766 -0.38995,-0.198619 -1.280706,-0.985398 -1.435241,-1.267707 -0.05668,-0.103537 0.142897,0.05221 0.443496,0.3461 1.095703,1.071255 2.547854,1.447509 3.748349,0.971204 0.165956,-0.06584 0.380945,-0.125771 0.477753,-0.133171 0.09681,-0.0074 0.176014,-0.05566 0.176014,-0.107253 0,-0.05159 0.0292,-0.06525 0.06489,-0.03035 0.117055,0.114442 1.295027,-1.150227 1.53987,-1.653201 0.131638,-0.270423 0.259888,-0.746827 0.285,-1.058677 0.04478,-0.556109 0.222406,-0.903987 0.222406,-0.435579 0,1.40107 -0.893915,2.808563 -2.175522,3.425418 -0.528486,0.254368 -0.801793,0.32073 -1.426702,0.346421 -0.460657,0.01894 -0.935545,-0.02084 -1.175305,-0.09844 z m -2.464199,-2.031642 c -0.05921,-0.108169 -0.08503,-0.196671 -0.05737,-0.196671 0.02766,0 0.09874,0.0885 0.157947,0.196671 0.05921,0.108168 0.08503,0.19667 0.05737,0.19667 -0.02766,0 -0.09874,-0.0885 -0.157948,-0.19667 z m -3.914661,-0.254033 c 0.0048,-0.114556 0.02866,-0.137856 0.06077,-0.05941 0.02905,0.07099 0.02548,0.1558 -0.0079,0.188476 -0.03342,0.03268 -0.05719,-0.0254 -0.05283,-0.129065 z M 32.53377,24.623998 c 0.0048,-0.114556 0.02866,-0.137857 0.06077,-0.05941 0.02905,0.07099 0.02548,0.155801 -0.0079,0.188477 -0.03342,0.03268 -0.05719,-0.0254 -0.05283,-0.129065 z M 17.857096,24.386354 c 0,-0.135211 0.02283,-0.190525 0.05073,-0.12292 0.0279,0.06761 0.0279,0.178233 0,0.245839 -0.0279,0.06761 -0.05073,0.01229 -0.05073,-0.122919 z m 3.624591,-0.737515 c 0.0021,-0.162254 0.02459,-0.216725 0.05009,-0.121048 0.0255,0.09568 0.02382,0.22843 -0.0037,0.295006 -0.02755,0.06658 -0.04842,-0.01171 -0.04637,-0.173958 z m 7.431219,-0.696542 c 0.0048,-0.114556 0.02866,-0.137856 0.06077,-0.05941 0.02905,0.07099 0.02548,0.1558 -0.0079,0.188476 -0.03342,0.03268 -0.05719,-0.0254 -0.05283,-0.129065 z m -11.05581,-0.139309 c 0,-0.135211 0.02283,-0.190524 0.05073,-0.122919 0.0279,0.06761 0.0279,0.178233 0,0.245839 -0.0279,0.06761 -0.05073,0.01229 -0.05073,-0.12292 z M 32.53377,22.558956 c 0.0048,-0.114556 0.02866,-0.137856 0.06077,-0.05941 0.02905,0.07099 0.02548,0.155799 -0.0079,0.188476 -0.03342,0.03268 -0.05719,-0.0254 -0.05283,-0.129065 z M 17.949736,22.165615 c 0.0048,-0.114556 0.02866,-0.137857 0.06077,-0.05941 0.02905,0.07099 0.02548,0.1558 -0.0079,0.188477 -0.03342,0.03268 -0.05719,-0.0254 -0.05283,-0.129065 z m 12.463923,-3.728549 c -0.244311,-0.24338 -0.421571,-0.442509 -0.393912,-0.442509 0.02766,0 0.250181,0.199129 0.494491,0.442509 0.244311,0.24338 0.421571,0.442509 0.393912,0.442509 -0.02766,0 -0.250181,-0.199129 -0.494491,-0.442509 z m -5.953052,-2.083048 c 0.0726,-0.02841 0.159355,-0.02491 0.192778,0.0078 0.03342,0.03268 -0.02598,0.05592 -0.132011,0.05165 -0.11717,-0.0047 -0.141002,-0.02802 -0.06077,-0.05941 z m 1.401827,0.002 c 0.06915,-0.02728 0.182301,-0.02728 0.251449,0 0.06915,0.02728 0.01257,0.0496 -0.125724,0.0496 -0.138297,0 -0.194873,-0.02232 -0.125725,-0.0496 z"
            id="path251"/><path
            style="display:inline;fill:#9ba2a6;stroke-width:0.0994511"
            d="m 22.669034,42.0742 c -0.440882,-0.05659 -0.81704,-0.160907 -0.905216,-0.251035 -0.135639,-0.138642 -0.125116,-0.148358 0.104228,-0.09624 0.843995,0.19181 2.414001,0.28299 3.917685,0.227525 0.913457,-0.03369 1.775966,-0.08751 1.916684,-0.119592 0.25845,-0.05892 0.59424,-0.639586 0.955437,-1.652183 0.07982,-0.223766 0.361505,-0.981525 0.625973,-1.683909 l 0.480848,-1.277063 0.83607,-0.338247 0.836069,-0.338247 1.295316,0.627222 c 0.712424,0.344972 1.27905,0.643125 1.25917,0.662562 -0.01988,0.01944 -0.538033,-0.210751 -1.15145,-0.511527 -0.613418,-0.300776 -1.172634,-0.546703 -1.242704,-0.546504 -0.131753,3.93e-4 -1.455034,0.490847 -1.640116,0.607909 -0.05753,0.03639 -0.48725,1.086474 -0.95493,2.333527 -0.478311,1.275401 -0.916583,2.295818 -1.001772,2.332396 -0.252286,0.108326 -4.523597,0.127074 -5.331292,0.0234 z m 13.39951,-3.205013 c -0.07158,-0.02547 0.240134,-0.312981 0.704057,-0.649411 1.013653,-0.735084 2.79487,-2.446635 3.432007,-3.297776 0.334665,-0.447074 0.468164,-0.567339 0.468164,-0.421752 0,0.648745 -4.10699,4.545857 -4.604228,4.368939 z m -0.581539,-0.278804 c -0.184092,-0.144196 -0.180883,-0.146243 0.05621,-0.03585 0.307877,0.143354 0.364936,0.188775 0.237146,0.188775 -0.05397,0 -0.185977,-0.06882 -0.293357,-0.152928 z M 13.189412,38.102632 c -0.318083,-0.244137 -0.578333,-0.468326 -0.578333,-0.498198 0,-0.02987 0.197021,0.103527 0.437822,0.296443 0.240803,0.192917 0.501052,0.351174 0.578332,0.351682 0.07728,4.92e-4 1.148213,-0.448258 2.379849,-0.99726 l 2.239337,-0.998185 0.67747,0.296903 c 0.372608,0.163295 0.756675,0.323043 0.853483,0.354994 0.09681,0.03195 0.176014,0.104107 0.176014,0.160347 0,0.06455 -0.06491,0.07058 -0.176014,0.01637 -0.09681,-0.04724 -0.436977,-0.202353 -0.755931,-0.344698 l -0.579916,-0.258811 -2.315578,1.032212 c -1.273567,0.567717 -2.325169,1.032185 -2.33689,1.032151 -0.01172,-3.4e-5 -0.281563,-0.19981 -0.599645,-0.443947 z m 21.423443,0.09337 c -0.262764,-0.133729 -0.477753,-0.265167 -0.477753,-0.292083 0,-0.04389 0.99571,0.415919 1.097994,0.507047 0.124527,0.110948 -0.202701,-0.0025 -0.620241,-0.214964 z m -22.510088,-1.001473 -0.346614,-0.368758 0.377173,0.338881 c 0.207446,0.186383 0.377174,0.352324 0.377174,0.368757 0,0.07509 -0.08511,0.0043 -0.407733,-0.33888 z m -1.616688,-1.573365 c -0.125108,-0.155966 -0.12155,-0.159444 0.03797,-0.03713 0.09681,0.07423 0.176014,0.151668 0.176014,0.172087 0,0.08093 -0.08259,0.02884 -0.213989,-0.134959 z m 29.94767,-1.552583 c -0.09706,-0.247283 -0.06842,-0.311089 0.05014,-0.111743 0.05871,0.0987 0.08555,0.200178 0.05966,0.225496 -0.0259,0.02532 -0.07531,-0.02587 -0.1098,-0.113753 z m -0.704057,-1.47503 c -0.09706,-0.247283 -0.06842,-0.311089 0.05014,-0.111743 0.05871,0.0987 0.08555,0.200178 0.05966,0.225496 -0.0259,0.02532 -0.07531,-0.02587 -0.1098,-0.113753 z m -0.603477,-1.27836 c -0.09706,-0.247282 -0.06843,-0.311088 0.05014,-0.111742 0.05871,0.0987 0.08555,0.200177 0.05966,0.225496 -0.0259,0.02532 -0.07531,-0.02587 -0.1098,-0.113754 z M 38.569247,29.97916 c -0.0048,-0.14198 0.144819,-0.587387 0.332387,-0.989793 l 0.341031,-0.731646 0.790489,-0.302932 c 0.434768,-0.166613 1.498638,-0.533432 2.364155,-0.815152 1.821121,-0.592765 1.6275,-0.345562 1.807079,-2.307167 0.09565,-1.044825 0.06638,-2.772458 -0.06669,-3.93702 -0.04333,-0.37922 -0.0411,-0.38275 0.06227,-0.09834 0.179521,0.493943 0.24017,3.81445 0.08806,4.821437 -0.07328,0.485107 -0.124024,0.931423 -0.112773,0.991813 0.0352,0.188964 -0.186179,0.287327 -1.943502,0.863527 -3.115982,1.021684 -2.846969,0.884689 -3.192001,1.62552 -0.165533,0.35542 -0.337169,0.756845 -0.381415,0.892056 l -0.08045,0.245839 -0.0086,-0.258146 z M 10.14688,27.684135 C 9.8149679,27.563578 9.0907952,27.300562 8.5376077,27.099655 7.9844202,26.898747 7.3055083,26.651597 7.0289145,26.550432 6.7523208,26.449267 6.42418,26.338364 6.2997128,26.303983 6.1752456,26.269602 6.0734089,26.195468 6.0734089,26.139242 c 0,-0.05814 0.075918,-0.07242 0.1760142,-0.03311 0.096808,0.03802 1.1221684,0.416869 2.2785792,0.841897 1.1564104,0.425027 2.1498847,0.819041 2.2077207,0.875587 0.126901,0.124069 0.155224,0.130777 -0.588843,-0.139481 z m 28.979335,-9.349206 c -0.09706,-0.247282 -0.06843,-0.311088 0.05014,-0.111742 0.05871,0.0987 0.08555,0.200177 0.05966,0.225496 -0.0259,0.02532 -0.07531,-0.02587 -0.1098,-0.113754 z m -0.494712,-1.159166 c -0.08091,-0.206154 2.172843,-4.680947 2.275666,-4.518289 0.03623,0.05731 -0.445743,1.136182 -1.071047,2.397492 -0.800245,1.61419 -1.156964,2.242213 -1.204619,2.120797 z M 29.92239,9.1347235 c -0.06171,-0.1730849 -0.109019,-0.36341 -0.105122,-0.4229441 0.0039,-0.059535 0.07197,0.064894 0.15127,0.27651 0.0793,0.2116157 0.126604,0.4019408 0.105122,0.4229452 -0.02148,0.021003 -0.08956,-0.1034261 -0.15127,-0.2765111 z m -0.250652,-0.731662 c -0.09706,-0.2472829 -0.06843,-0.3110887 0.05014,-0.1117424 0.05871,0.098704 0.08555,0.2001773 0.05966,0.2254957 -0.0259,0.025318 -0.07531,-0.025871 -0.109798,-0.1137533 z M 28.665942,5.5513371 c -0.09706,-0.2472832 -0.06843,-0.3110892 0.05014,-0.1117421 0.05871,0.098704 0.08555,0.2001772 0.05966,0.2254955 -0.0259,0.025318 -0.07531,-0.025871 -0.109799,-0.1137534 z"
            id="path249"/><path
            style="display:inline;fill:#6fa2bb;stroke-width:0.0994511"
            d="m 28.076578,40.832937 c -0.177526,-0.196452 -3.697692,-5.420472 -3.697692,-5.487473 0,-0.02414 0.328141,-0.04415 0.729202,-0.04447 1.053408,-8.85e-4 2.565224,-0.246637 3.598333,-0.585038 1.781968,-0.583692 3.10315,-1.373974 4.491525,-2.686662 1.818145,-1.71903 2.933236,-3.741147 3.442091,-6.241925 l 0.175027,-0.860172 1.497435,1.425862 c 0.82359,0.784224 1.505719,1.475803 1.515844,1.536842 0.01092,0.06584 -0.06546,0.08954 -0.187786,0.05826 -0.152089,-0.03888 -0.184794,-0.01886 -0.124637,0.0763 0.0528,0.08353 0.04227,0.105279 -0.02987,0.06169 -0.129855,-0.07846 -0.537326,0.229939 -0.461754,0.349488 0.02809,0.04444 -0.0017,0.08079 -0.0662,0.08079 -0.06467,0 -0.09041,0.06846 -0.05738,0.152611 0.03641,0.09278 0.01828,0.127463 -0.04626,0.08847 -0.05838,-0.03528 -0.0932,-0.0044 -0.07737,0.06864 0.01583,0.07303 -0.05187,0.250946 -0.150451,0.395362 -0.265956,0.389618 -0.295772,0.840345 -0.07018,1.060905 0.103695,0.101381 0.162133,0.210141 0.129864,0.241691 -0.03227,0.03155 -10e-4,0.05736 0.06943,0.05736 0.07445,0 0.103018,0.06391 0.0682,0.152611 -0.03913,0.09971 -0.01951,0.128203 0.05662,0.0822 0.07782,-0.04702 0.09519,-0.01605 0.05229,0.09323 -0.03532,0.09 -0.01771,0.163634 0.03913,0.163634 0.05685,0 0.07539,0.04425 0.0412,0.09833 -0.03419,0.05409 -0.01156,0.09833 0.05029,0.09833 0.06185,0 0.08448,0.04425 0.05029,0.09834 -0.03419,0.05408 -0.01565,0.09833 0.0412,0.09833 0.05685,0 0.07446,0.07364 0.03913,0.163634 -0.04663,0.118815 -0.02774,0.141587 0.06899,0.08314 0.08533,-0.05156 0.109092,-0.04234 0.0661,0.02567 -0.07883,0.124709 0.127651,0.612574 0.259267,0.612574 0.0497,0 0.0624,0.04425 0.02821,0.09833 -0.03419,0.05409 -0.01156,0.09834 0.05029,0.09834 0.06185,0 0.087,0.04026 0.0559,0.08946 -0.08661,0.137008 0.05182,0.409509 0.171339,0.337289 0.05846,-0.03532 0.07605,-0.01709 0.03942,0.04086 -0.09442,0.149363 0.03539,0.428827 0.163287,0.351545 0.06718,-0.04059 0.08318,-0.0037 0.04291,0.0989 -0.03532,0.09 -0.01771,0.163634 0.03913,0.163634 0.05685,0 0.07539,0.04425 0.0412,0.09834 -0.03419,0.05408 -0.01565,0.09834 0.0412,0.09834 0.05685,0 0.07745,0.066 0.04579,0.146674 -0.03307,0.08426 0.01217,0.172837 0.106303,0.208154 0.116267,0.04362 0.134161,0.09648 0.0616,0.181964 -0.05625,0.06627 -0.06872,0.156694 -0.02771,0.200952 0.04101,0.04426 0.02026,0.05001 -0.04612,0.01278 -0.126896,-0.07118 -0.397605,0.304509 -0.344917,0.478665 0.01636,0.05408 -0.0039,0.06543 -0.04504,0.02521 -0.07513,-0.07345 -0.41078,0.314024 -0.372643,0.430175 0.0112,0.03412 -0.07967,0.14475 -0.20194,0.245838 -0.219943,0.181837 -0.220705,0.181648 -0.07144,-0.0177 0.08298,-0.110819 0.04191,-0.08869 -0.09125,0.04917 -0.133167,0.137862 -0.561822,0.58254 -0.952565,0.988173 -0.390744,0.405633 -0.621244,0.62753 -0.512224,0.493102 0.236964,-0.292185 -0.589361,0.382716 -0.944339,0.77129 -0.130538,0.142893 -0.206471,0.193429 -0.168738,0.112302 0.03773,-0.08113 -0.05279,-0.01475 -0.201159,0.147503 -0.14837,0.162254 -0.236593,0.235102 -0.196051,0.161887 0.04992,-0.09014 -0.01146,-0.07856 -0.190122,0.03589 -0.170849,0.109448 -0.263832,0.128326 -0.263832,0.05356 0,-0.0635 -0.04526,-0.0881 -0.100579,-0.05467 -0.05532,0.03343 -0.10058,0.02063 -0.10058,-0.02843 0,-0.07448 -0.729329,-0.452851 -0.901957,-0.467922 -0.02945,-0.0026 -0.211961,-0.102223 -0.405577,-0.221449 -0.193616,-0.119225 -0.408604,-0.19595 -0.477753,-0.170497 -0.06915,0.02545 -0.125724,-0.004 -0.125724,-0.06536 0,-0.0614 -0.0264,-0.08582 -0.05867,-0.05428 -0.03227,0.03155 -0.148921,-0.03087 -0.259226,-0.138717 -0.110305,-0.107843 -0.264946,-0.171921 -0.343647,-0.142394 -0.0787,0.02953 -0.143093,0.0082 -0.143093,-0.04737 0,-0.05558 -0.04526,-0.0737 -0.100579,-0.04028 -0.05532,0.03343 -0.10058,0.01505 -0.10058,-0.04084 0,-0.135961 -0.583444,-0.425382 -0.707011,-0.350718 -0.05369,0.03245 -0.09762,0.0095 -0.09762,-0.05095 0,-0.06047 -0.04526,-0.08259 -0.10058,-0.04917 -0.05532,0.03343 -0.100579,0.0113 -0.100579,-0.04917 0,-0.06047 -0.04526,-0.08259 -0.10058,-0.04917 -0.05532,0.03343 -0.100579,0.01391 -0.100579,-0.04336 0,-0.156086 -0.299686,-0.125455 -0.363509,0.03715 -0.0305,0.07771 -0.119603,0.117227 -0.198003,0.08781 -0.0784,-0.02941 -0.142545,-0.0059 -0.142545,0.05229 0,0.05817 -0.06206,0.08249 -0.137901,0.05403 -0.07585,-0.02845 -0.200716,0.0097 -0.277492,0.08474 -0.07677,0.07506 -0.188107,0.120664 -0.247406,0.101339 -0.169797,-0.05534 -0.663,0.371804 -0.603716,0.522849 0.02929,0.07462 0.0046,0.135663 -0.05494,0.135663 -0.0595,0 -0.08213,0.06638 -0.05029,0.147503 0.03184,0.08113 0.01138,0.147503 -0.04547,0.147503 -0.05685,0 -0.07517,0.04459 -0.04072,0.09909 0.03445,0.0545 -0.01074,0.170832 -0.100427,0.258518 -0.08969,0.08769 -0.139254,0.220099 -0.11015,0.294251 0.0291,0.07415 0.0042,0.134824 -0.05527,0.134824 -0.0595,0 -0.08123,0.06867 -0.04828,0.15261 0.03294,0.08394 0.02081,0.128994 -0.02696,0.100129 -0.04777,-0.02886 -0.08686,0.06237 -0.08686,0.202747 0,0.140376 -0.05672,0.289499 -0.126038,0.331386 -0.07183,0.0434 -0.09218,0.129715 -0.04732,0.200681 0.05125,0.08107 0.0382,0.100041 -0.0374,0.05436 -0.107956,-0.06523 -0.155935,0.07171 -0.143141,0.408535 0.0026,0.06761 -0.03414,0.122919 -0.08158,0.122919 -0.04744,0 -0.0602,0.06638 -0.02835,0.147503 0.03187,0.08119 0.003,0.147503 -0.06421,0.147503 -0.06721,0 -0.09608,0.06631 -0.06421,0.147503 0.03184,0.08113 0.01138,0.147503 -0.04547,0.147503 -0.05685,0 -0.07539,0.04425 -0.0412,0.09834 0.09978,0.157849 -0.0055,0.113373 -0.174621,-0.07375 z m -4.521187,-5.696871 c 0.0726,-0.02841 0.159355,-0.02491 0.192778,0.0078 0.03342,0.03268 -0.02598,0.05592 -0.132011,0.05165 -0.11717,-0.0047 -0.141002,-0.02802 -0.06077,-0.05941 z m -7.336278,-3.939991 c -0.125108,-0.155966 -0.12155,-0.159444 0.03797,-0.03713 0.09681,0.07423 0.176014,0.151668 0.176014,0.172087 0,0.08093 -0.0826,0.02884 -0.213989,-0.134959 z m 8.888975,-3.927447 c 0.09681,-0.02473 0.25522,-0.02473 0.352028,0 0.09681,0.02473 0.0176,0.04497 -0.176014,0.04497 -0.193616,0 -0.272822,-0.02024 -0.176014,-0.04497 z M 13.532176,25.271372 c 0,-0.135211 0.02283,-0.190525 0.05073,-0.12292 0.0279,0.06761 0.0279,0.178233 0,0.245839 -0.0279,0.06761 -0.05073,0.01229 -0.05073,-0.122919 z m 4.31698,-0.549039 c 0.0048,-0.114556 0.02866,-0.137856 0.06077,-0.05941 0.02905,0.07099 0.02548,0.1558 -0.0079,0.188476 -0.03342,0.03268 -0.05719,-0.0254 -0.05283,-0.129065 z m -4.397739,-1.073494 c -3.01e-4,-0.48676 0.0167,-0.698287 0.0378,-0.47006 0.02109,0.228227 0.02135,0.626485 6.04e-4,0.885018 -0.02079,0.258532 -0.03805,0.0718 -0.03835,-0.414958 z m 23.334455,0 c -3.02e-4,-0.48676 0.0167,-0.698287 0.0378,-0.47006 0.02109,0.228227 0.02134,0.626485 6.03e-4,0.885018 -0.02079,0.258532 -0.03805,0.0718 -0.03835,-0.414958 z m -4.129324,-0.04917 c 0,-0.297464 0.01886,-0.419154 0.0419,-0.270422 0.02305,0.148732 0.02305,0.392112 0,0.540844 -0.02304,0.148732 -0.0419,0.02704 -0.0419,-0.270422 z m -14.900031,0 c 0,-0.135211 0.02283,-0.190525 0.05073,-0.122919 0.0279,0.06761 0.0279,0.178233 0,0.245838 -0.0279,0.06761 -0.05073,0.01229 -0.05073,-0.122919 z m 0.09264,-1.13905 c 0.0048,-0.114556 0.02866,-0.137857 0.06077,-0.05941 0.02905,0.07099 0.02548,0.1558 -0.0079,0.188477 -0.03342,0.03268 -0.05719,-0.0254 -0.05283,-0.129065 z m -4.32492,-0.393342 c 0.0048,-0.114556 0.02866,-0.137856 0.06077,-0.05941 0.02905,0.07099 0.02548,0.155799 -0.0079,0.188476 -0.03342,0.03268 -0.05719,-0.0254 -0.05283,-0.129065 z m 23.133295,0 c 0.0048,-0.114556 0.02866,-0.137856 0.06077,-0.05941 0.02905,0.07099 0.02548,0.155799 -0.0079,0.188476 -0.03342,0.03268 -0.05719,-0.0254 -0.05283,-0.129065 z m -23.032717,-0.59001 c 0.0048,-0.114555 0.02866,-0.137856 0.06077,-0.05941 0.02905,0.07099 0.02548,0.1558 -0.0079,0.188476 -0.03342,0.03268 -0.05719,-0.0254 -0.05283,-0.129065 z m 22.932137,0 c 0.0048,-0.114555 0.02866,-0.137856 0.06077,-0.05941 0.02905,0.07099 0.02548,0.1558 -0.0079,0.188476 -0.03342,0.03268 -0.05719,-0.0254 -0.05283,-0.129065 z M 19.949183,18.46165 c 0.416797,-0.434169 0.507101,-0.512237 0.507101,-0.438399 0,0.01578 -0.214989,0.225973 -0.477753,0.467093 l -0.477753,0.438399 z m -4.119558,-1.880915 c 0,-0.02042 0.07921,-0.09786 0.176014,-0.172086 0.159525,-0.122317 0.163083,-0.118839 0.03798,0.03713 -0.131394,0.163802 -0.213989,0.215893 -0.213989,0.134959 z m 18.393227,-0.134959 c -0.125108,-0.155966 -0.121551,-0.159444 0.03797,-0.03713 0.167541,0.128462 0.220821,0.209214 0.13804,0.209214 -0.02089,0 -0.100092,-0.07744 -0.176014,-0.172087 z m -10.667461,0.0066 c 0.0726,-0.02841 0.159355,-0.02491 0.192778,0.0078 0.03342,0.03268 -0.02598,0.05592 -0.132011,0.05165 -0.11717,-0.0047 -0.141002,-0.02802 -0.06077,-0.05941 z m 0.496612,-0.09629 c 0.06915,-0.02728 0.1823,-0.02728 0.251448,0 0.06915,0.02728 0.01257,0.0496 -0.125724,0.0496 -0.138297,0 -0.194873,-0.02232 -0.125724,-0.0496 z m 2.219036,-0.002 c 0.07261,-0.02841 0.159356,-0.02491 0.192778,0.0078 0.03342,0.03268 -0.02598,0.05592 -0.132011,0.05165 -0.11717,-0.0047 -0.141003,-0.02802 -0.06077,-0.05941 z m -10.039096,-0.25867 c 0,-0.01692 0.147097,-0.160739 0.326883,-0.31959 l 0.326884,-0.288819 -0.295411,0.319589 c -0.275365,0.297903 -0.358356,0.36479 -0.358356,0.28882 z m 17.493228,-0.239652 -0.243836,-0.270422 0.276594,0.238395 c 0.258518,0.222817 0.322718,0.302449 0.243836,0.302449 -0.01802,0 -0.142483,-0.12169 -0.276594,-0.270422 z M 17.438897,14.896995 c 0.129924,-0.135211 0.258855,-0.245839 0.286514,-0.245839 0.02766,0 -0.05601,0.110628 -0.185934,0.245839 -0.129924,0.135211 -0.258855,0.245838 -0.286514,0.245838 -0.02766,0 0.05601,-0.110627 0.185934,-0.245838 z m 15.280478,-0.02458 -0.243836,-0.270422 0.276594,0.238395 c 0.258519,0.222817 0.322719,0.302449 0.243836,0.302449 -0.01802,0 -0.142483,-0.12169 -0.276594,-0.270422 z m -14.77758,-0.356717 c 0,-0.02042 0.07921,-0.09786 0.176014,-0.172087 0.159526,-0.122317 0.163083,-0.118839 0.03797,0.03713 -0.131394,0.163802 -0.213989,0.215893 -0.213989,0.13496 z m 14.168886,-0.13496 c -0.125108,-0.155966 -0.12155,-0.159444 0.03798,-0.03713 0.16754,0.128462 0.22082,0.209214 0.138039,0.209214 -0.02088,0 -0.100091,-0.07744 -0.176014,-0.172087 z M 19.450488,13.52722 c 0,-0.02704 0.09052,-0.09653 0.201159,-0.154423 0.110638,-0.05789 0.20116,-0.08313 0.20116,-0.05609 0,0.02704 -0.09052,0.09653 -0.20116,0.154422 -0.110637,0.05789 -0.201159,0.08313 -0.201159,0.05609 z m 11.108119,-0.11068 c -0.187482,-0.146853 -0.186249,-0.148669 0.03107,-0.04571 0.124467,0.05897 0.226304,0.127788 0.226304,0.152928 0,0.07525 -0.05216,0.05352 -0.25737,-0.10722 z M 20.255125,13.077791 c 0.08298,-0.05243 0.19613,-0.09532 0.251449,-0.09532 0.05532,0 0.03269,0.04289 -0.05029,0.09532 -0.08298,0.05243 -0.19613,0.09532 -0.251449,0.09532 -0.05532,0 -0.03269,-0.04289 0.05029,-0.09532 z m 2.294471,-0.755521 c 0.0726,-0.02841 0.159355,-0.02491 0.192777,0.0078 0.03342,0.03268 -0.02598,0.05592 -0.13201,0.05165 -0.11717,-0.0047 -0.141003,-0.02802 -0.06077,-0.05941 z m 5.028977,0 c 0.07261,-0.02841 0.159356,-0.02491 0.192778,0.0078 0.03342,0.03268 -0.02598,0.05592 -0.132011,0.05165 -0.11717,-0.0047 -0.141003,-0.02802 -0.06077,-0.05941 z m -4.52608,-0.09833 c 0.07261,-0.02841 0.159356,-0.02491 0.192778,0.0078 0.03342,0.03268 -0.02598,0.05592 -0.132011,0.05165 -0.11717,-0.0047 -0.141002,-0.02802 -0.06077,-0.05941 z m 4.023182,0 c 0.0726,-0.02841 0.159356,-0.02491 0.192778,0.0078 0.03342,0.03268 -0.02598,0.05592 -0.132011,0.05165 -0.11717,-0.0047 -0.141002,-0.02802 -0.06077,-0.05941 z m -3.375701,-0.09895 c 0.09681,-0.02473 0.255221,-0.02473 0.352029,0 0.09681,0.02473 0.0176,0.04497 -0.176015,0.04497 -0.193615,0 -0.272822,-0.02024 -0.176014,-0.04497 z m 2.514489,0 c 0.09681,-0.02473 0.25522,-0.02473 0.352028,0 0.09681,0.02473 0.0176,0.04497 -0.176014,0.04497 -0.193616,0 -0.272822,-0.02024 -0.176014,-0.04497 z m -1.306151,-0.101114 c 0.152887,-0.0226 0.379191,-0.022 0.502897,0.0013 0.123707,0.02334 -0.0014,0.04183 -0.277976,0.0411 -0.276594,-7.87e-4 -0.377808,-0.01984 -0.224921,-0.04244 z"
            id="path247"/><path
            style="display:inline;fill:#6493a7;stroke-width:0.0994511"
            d="m 28.257665,40.976199 c 0.03777,-0.09698 0.09401,-0.151557 0.124978,-0.12128 0.03097,0.03028 6.4e-5,0.109623 -0.06867,0.176328 -0.09933,0.09639 -0.110887,0.0851 -0.0563,-0.05505 z m 0.153012,-0.315349 c 0.01047,-0.186269 0.178103,-0.499922 0.18394,-0.344174 0.003,0.08113 -0.03834,0.21388 -0.09197,0.295006 -0.05363,0.08113 -0.09501,0.103253 -0.09197,0.04917 z m 0.195631,-0.590012 c 0,-0.05408 0.04387,-0.164712 0.0975,-0.245838 0.05363,-0.08113 0.0975,-0.103252 0.0975,-0.04917 0,0.05409 -0.04387,0.164712 -0.0975,0.245839 -0.05363,0.08113 -0.0975,0.103252 -0.0975,0.04917 z m 0.255731,-0.639179 c 0.03699,-0.135212 0.109206,-0.312215 0.160475,-0.393342 0.06478,-0.102513 0.0727,-0.07252 0.02596,0.09834 -0.03699,0.135211 -0.109206,0.312214 -0.160474,0.393341 -0.06478,0.102513 -0.0727,0.07252 -0.02596,-0.09833 z m 5.97712,-1.229192 c -0.580847,-0.291919 -1.021317,-0.533032 -0.978823,-0.535804 0.04249,-0.0028 0.534049,0.219072 1.092346,0.492987 0.558296,0.273915 1.080324,0.47355 1.160061,0.443635 0.08074,-0.03029 0.117751,-0.01132 0.08353,0.04282 -0.10146,0.160505 -0.254697,0.110412 -1.357111,-0.443635 z m -5.629374,0.295006 c 0,-0.05408 0.04387,-0.164712 0.0975,-0.245838 0.05363,-0.08113 0.0975,-0.103252 0.0975,-0.04917 0,0.05408 -0.04387,0.164712 -0.0975,0.245838 -0.05363,0.08113 -0.0975,0.103252 -0.0975,0.04917 z m 7.540385,-0.282966 c 0,-0.02042 0.07921,-0.09786 0.176014,-0.172087 0.159525,-0.122316 0.163083,-0.118838 0.03798,0.03713 -0.131394,0.163802 -0.213989,0.215893 -0.213989,0.134959 z m 0.653767,-0.552884 c 0.100126,-0.108169 0.204677,-0.196671 0.232337,-0.196671 0.02766,0 -0.03163,0.0885 -0.131757,0.196671 -0.100126,0.108169 -0.204678,0.19667 -0.232337,0.19667 -0.02766,0 0.03163,-0.0885 0.131757,-0.19667 z m -7.793375,-0.251628 c 0.0029,-0.1736 0.14903,-0.311796 0.400779,-0.378994 0.22928,-0.0612 0.233713,-0.05696 0.05029,0.04814 -0.110637,0.06339 -0.257735,0.184589 -0.326883,0.269329 -0.06915,0.08474 -0.125032,0.112427 -0.124185,0.06153 z m 8.346563,-0.168759 c 0,-0.01487 0.350771,-0.357818 0.779491,-0.762099 l 0.779492,-0.735053 -0.75183,0.762099 c -0.698282,0.70782 -0.807153,0.806966 -0.807153,0.735053 z M 30.413659,36.87494 c 0.08298,-0.05243 0.19613,-0.09532 0.251449,-0.09532 0.05532,0 0.03269,0.0429 -0.05029,0.09532 -0.08298,0.05243 -0.19613,0.09532 -0.251449,0.09532 -0.05532,0 -0.03269,-0.04289 0.05029,-0.09532 z m 9.404187,-1.573365 c 0.100126,-0.108169 0.204678,-0.196671 0.232337,-0.196671 0.02766,0 -0.03163,0.0885 -0.131757,0.196671 -0.100126,0.108169 -0.204678,0.196671 -0.232337,0.196671 -0.02766,0 0.03163,-0.0885 0.131757,-0.196671 z M 24.70577,35.229294 c 0.262764,-0.02026 0.692741,-0.02026 0.955505,0 0.262764,0.02026 0.04778,0.03683 -0.477753,0.03683 -0.525528,0 -0.740517,-0.01657 -0.477752,-0.03683 z m -1.584128,-0.170678 c -2.340075,-0.421691 -4.452302,-1.505531 -6.137515,-3.149324 -2.300407,-2.243864 -3.467832,-5.03211 -3.467832,-8.282472 0,-4.422821 2.498868,-8.394634 6.511529,-10.349716 1.73302,-0.844376 2.975536,-1.115974 5.105409,-1.115974 1.672029,0 2.391303,0.103114 3.693814,0.529539 4.727249,1.547638 8.017617,6.120818 7.901197,10.981627 l -0.02836,1.18424 -2.368382,-2.226381 c -1.797946,-1.690148 -2.439116,-2.356647 -2.662059,-2.767226 -0.16831,-0.309965 -0.681511,-0.920908 -1.202192,-1.431157 -0.765504,-0.750167 -1.058921,-0.962611 -1.86402,-1.349616 -1.339609,-0.643941 -2.058474,-0.787882 -3.671153,-0.73509 -1.153257,0.03775 -1.405566,0.07869 -2.138373,0.346978 -1.148646,0.420528 -1.962443,0.927264 -2.796981,1.74163 -1.2242,1.194607 -1.975476,2.71801 -2.146232,4.352031 -0.228492,2.186506 0.460257,4.181279 1.994792,5.777375 0.363712,0.378302 0.559457,0.603761 0.43499,0.501019 -0.124468,-0.10274 -0.226304,-0.159255 -0.226304,-0.125587 0,0.03367 0.82736,1.290615 1.838577,2.793214 1.011217,1.5026 1.942756,2.897939 2.070084,3.100756 0.271035,0.431722 0.287147,0.427428 -0.840985,0.224134 z m -3.067676,-6.182764 c 0,-0.01866 -0.101837,-0.118225 -0.226304,-0.221255 l -0.226304,-0.187327 0.191603,0.221254 c 0.180059,0.207924 0.261005,0.266021 0.261005,0.187328 z m 6.512525,6.262262 c 0.06915,-0.02728 0.182301,-0.02728 0.251449,0 0.06915,0.02728 0.01257,0.0496 -0.125724,0.0496 -0.138297,0 -0.194873,-0.02232 -0.125725,-0.0496 z m 0.710343,-0.100384 c 0.07261,-0.02841 0.159356,-0.02491 0.192778,0.0078 0.03342,0.03268 -0.02598,0.05592 -0.132011,0.05165 -0.11717,-0.0047 -0.141002,-0.02802 -0.06077,-0.05941 z m 12.792461,-0.06829 c 0,-0.02042 0.07921,-0.09786 0.176014,-0.172086 0.159525,-0.122317 0.163083,-0.118839 0.03798,0.03713 -0.131394,0.163802 -0.213989,0.215893 -0.213989,0.134959 z m -8.146943,-1.86837 c 0,-0.02042 0.07921,-0.09786 0.176014,-0.172087 0.159525,-0.122316 0.163083,-0.118838 0.03798,0.03713 -0.131394,0.163802 -0.213989,0.215893 -0.213989,0.134959 z m 0.502898,-0.393341 c 0,-0.02042 0.07921,-0.09786 0.176014,-0.172087 0.159525,-0.122316 0.163083,-0.118838 0.03798,0.03713 -0.131394,0.163802 -0.213989,0.215893 -0.213989,0.134959 z m 1.558983,-1.536238 c 0.100126,-0.108169 0.204677,-0.196671 0.232336,-0.196671 0.02766,0 -0.03163,0.0885 -0.131757,0.196671 -0.100126,0.108169 -0.204677,0.196671 -0.232337,0.196671 -0.02766,0 0.03163,-0.0885 0.131758,-0.196671 z m -9.825365,-0.36218 c 0.07261,-0.02841 0.159355,-0.02491 0.192778,0.0078 0.03342,0.03268 -0.02598,0.05592 -0.132011,0.05165 -0.11717,-0.0047 -0.141002,-0.02802 -0.06077,-0.05941 z m 2.011591,0 c 0.07261,-0.02841 0.159356,-0.02491 0.192778,0.0078 0.03342,0.03268 -0.02598,0.05592 -0.132011,0.05165 -0.11717,-0.0047 -0.141002,-0.02802 -0.06077,-0.05941 z M 38.467963,29.83577 c 0.0048,-0.114556 0.02866,-0.137856 0.06077,-0.05941 0.02905,0.07099 0.02548,0.1558 -0.0079,0.188476 -0.03342,0.03268 -0.05719,-0.0254 -0.05283,-0.129065 z m 0.296879,-0.680153 c 0,-0.05408 0.04387,-0.164712 0.0975,-0.245838 0.05362,-0.08113 0.0975,-0.103252 0.0975,-0.04917 0,0.05408 -0.04387,0.164712 -0.0975,0.245838 -0.05363,0.08113 -0.0975,0.103252 -0.0975,0.04917 z m 0.257121,-0.63918 c 0.06873,-0.246131 0.210082,-0.38901 0.387644,-0.391835 0.05206,-7.87e-4 0.02374,0.05381 -0.06293,0.121413 -0.08667,0.06761 -0.210637,0.211421 -0.275475,0.31959 -0.107492,0.179331 -0.111833,0.174997 -0.04924,-0.04917 z m -2.465011,-2.61408 c 0.0048,-0.114556 0.02866,-0.137856 0.06077,-0.05941 0.02905,0.07099 0.02548,0.1558 -0.0079,0.188476 -0.03342,0.03268 -0.05719,-0.0254 -0.05283,-0.129065 z m 0.108519,-0.630985 c 0,-0.135211 0.02283,-0.190525 0.05073,-0.12292 0.0279,0.06761 0.0279,0.178233 0,0.245839 -0.0279,0.06761 -0.05073,0.01229 -0.05073,-0.122919 z m -4.023182,-0.983354 c 0,-0.135211 0.02283,-0.190524 0.05073,-0.122919 0.0279,0.06761 0.0279,0.178233 0,0.245838 -0.0279,0.06761 -0.05073,0.01229 -0.05073,-0.122919 z m 0,-1.376694 c 0,-0.135211 0.02283,-0.190525 0.05073,-0.122919 0.0279,0.06761 0.0279,0.178232 0,0.245838 -0.0279,0.06761 -0.05073,0.01229 -0.05073,-0.122919 z"
            id="path245"/><path
            style="display:inline;fill:#426c86;stroke-width:0.0994511"
            d="M 22.266716,32.291325 C 21.188,30.677238 20.150152,29.156517 19.960386,28.911945 l -0.345028,-0.444675 0.521044,0.457531 c 1.650943,1.449706 3.305099,2.025744 5.527902,1.925023 1.868465,-0.08467 3.323532,-0.682255 4.657966,-1.913005 1.940822,-1.790021 2.769086,-4.294728 2.245912,-6.79174 -0.08734,-0.416874 -0.246305,-0.952857 -0.353248,-1.191075 -0.106943,-0.238216 -0.182578,-0.443778 -0.168078,-0.456804 0.0145,-0.01302 1.078028,0.978396 2.363393,2.203157 l 2.337028,2.226841 -0.145373,0.786683 c -0.678772,3.673151 -3.035789,6.732755 -6.439694,8.359257 -1.559465,0.745167 -2.762294,1.037999 -4.52608,1.101886 l -1.408113,0.051 z"
            id="path243"/></g></g></svg>
