<!--
  - /***
  -  ** █ ---------------------------------------------------------------------------------------------------------------------
  -  ** █ ░FRAMEWORK                                  2023-12-01 23:19:27
  -  ** █ ░█▀▀█ █▀▀█ █▀▀▄ █▀▀ ░█─░█ ─▀─ █▀▀▀ █▀▀▀ █▀▀ [App\Modules\Account\Views\Processes\Creator\deny.php]
  -  ** █ ░█─── █──█ █──█ █▀▀ ░█▀▀█ ▀█▀ █─▀█ █─▀█ ▀▀█ Copyright 2023 - CloudEngine S.A.S., Inc. <admin@cgine.com>
  -  ** █ ░█▄▄█ ▀▀▀▀ ▀▀▀─ ▀▀▀ ░█─░█ ▀▀▀ ▀▀▀▀ ▀▀▀▀ ▀▀▀ Para obtener información completa sobre derechos de autor y licencia,
  -  ** █                                             consulte la LICENCIA archivo que se distribuyó con este código fuente.
  -  ** █ ---------------------------------------------------------------------------------------------------------------------
  -  ** █ EL SOFTWARE SE PROPORCIONA -TAL CUAL-, SIN GARANTÍA DE NINGÚN TIPO, EXPRESA O
  -  ** █ IMPLÍCITA, INCLUYENDO PERO NO LIMITADO A LAS GARANTÍAS DE COMERCIABILIDAD,
  -  ** █ APTITUD PARA UN PROPÓSITO PARTICULAR Y NO INFRACCIÓN. EN NINGÚN CASO SERÁ
  -  ** █ LOS AUTORES O TITULARES DE LOS DERECHOS DE AUTOR SERÁN RESPONSABLES DE CUALQUIER
  -  ** █ RECLAMO, DAÑOS U OTROS RESPONSABILIDAD, YA SEA EN UNA ACCIÓN DE CONTRATO,
  -  ** █ AGRAVIO O DE OTRO MODO, QUE SURJA DESDE, FUERA O EN RELACIÓN CON EL SOFTWARE
  -  ** █ O EL USO U OTROS NEGOCIACIONES EN EL SOFTWARE.
  -  ** █ ---------------------------------------------------------------------------------------------------------------------
  -  ** █ @Author Jose Alexis Correa Valencia <jalexiscv@gmail.com>
  -  ** █ @link https://www.codehiggs.com
  -  ** █ @Version 1.5.0 @since PHP 7, PHP 8
  -  ** █ ---------------------------------------------------------------------------------------------------------------------
  -  ** █ Datos recibidos desde el controlador - @ModuleController
  -  ** █ ---------------------------------------------------------------------------------------------------------------------
  -  ** █ @authentication, @request, @dates, @parent, @component, @view, @oid, @views, @prefix
  -  ** █ ---------------------------------------------------------------------------------------------------------------------
  -  ***/
  -->

<svg width="101" height="16" fill="none" xmlns="http://www.w3.org/2000/svg">
    <path fill-rule="evenodd" clip-rule="evenodd"
          d="M11.587 0a5.107 5.107 0 01-.76.053c-.684.026-2.055.052-4.774.052h-.57C2.886.105 1.937.077 1.258.053A6.666 6.666 0 01.524 0C.343 0 0 0 0 .367c0 .357.375.392.902.441l.04.004c1.31.079 1.31.786 1.31 1.86v10.849c0 .87 0 1.473-1.116 1.542l-.03.003c-.453.043-.75.07-.75.377 0 .314.288.334.468.334.219 0 .814-.023 1.392-.046.546-.022 1.076-.043 1.26-.043.37 0 .855.023 1.339.045.483.022.965.044 1.332.044.171 0 .468 0 .468-.334s-.312-.366-.781-.382c-1.116-.067-1.116-.67-1.116-1.585V9.454c0-.744 0-1.038.427-1.155.28-.075 1.487-.075 2.256-.075.655 0 2.332 0 2.699 1.413.03.073.096.315.16.547.05.186.1.366.127.449.045.132.146.431.418.418.314-.016.316-.314.316-.497l-.105-1.232c-.051-.603-.051-1.047-.051-1.283 0-.2.02-.76.04-1.31.018-.53.037-1.05.037-1.23 0-.262-.079-.431-.314-.447-.234-.015-.366.211-.418.42-.334 1.36-.716 1.94-2.83 1.94-.392 0-1.948 0-2.342-.054-.343-.053-.418-.078-.418-1.492V2.2C4.72.97 5.167.917 6.056.917c4.076 0 4.417.558 5.198 2.304l.029.064c.09.21.2.46.46.46.287 0 .287-.418.287-.498V.47c0-.34-.025-.471-.443-.471zm1.16 10.064c0-3.33 2.673-5.88 6.233-5.88 3.428 0 6.102 2.532 6.102 5.714 0 3.587-3.04 6.102-6.157 6.102-3.206 0-6.178-2.405-6.178-5.936zm2.141-.386c0 2.98 1.741 5.813 4.182 5.813 2.531 0 3.862-2.85 3.862-5.52 0-2.196-1.293-5.28-4.168-5.28-2.243 0-3.876 2.375-3.876 4.987zm47.673-.889c-1.48-.61-2.553-1.072-2.553-2.386 0-.72.583-1.767 2.017-1.753 1.542.014 1.867 1.028 2.09 1.753.185.573.26.685.444.685.26 0 .26-.15.26-.555 0-1.628 0-1.794-.223-1.924-.258-.13-1.348-.425-2.422-.425-2.349 0-3.644 1.478-3.644 3.18 0 1.961 1.461 2.68 2.959 3.347 1.33.61 2.587 1.313 2.587 2.755 0 1.498-1.458 2.005-2.228 2.005-1.312 0-2.58-1.11-2.934-2.72l-.008-.036c-.033-.16-.066-.321-.219-.321-.222 0-.234.258-.234.332-.002.568.03 1.136.097 1.7.05.46.124.832.328.981.332.24 1.245.593 2.688.593 2.46 0 3.976-1.713 3.976-3.769-.003-2.094-1.944-3-2.981-3.442zm35.542-1.54a1.573 1.573 0 101.747-2.616 1.573 1.573 0 00-1.747 2.616zm.086-2.489a1.408 1.408 0 111.54 2.359 1.408 1.408 0 01-1.54-2.359zm.775 1.3l.43.707h.233l-.438-.724a.485.485 0 00.396-.475.514.514 0 00-.54-.5h-.557v1.7h.195V6.06h.281zm-.29-.805h.342v.001a.314.314 0 110 .62h-.343v-.622zm-22.28-.843c.022-.002.034-.004.05-.004.217 0 .217.146.217.56V6.66c.002.1.004.288-.181.288-.199 0-.235-.073-.562-.743-.206-.45-.615-1.093-2.873-1.155-.53.022-.588.122-.588.593v8.266c0 .742 0 1.232.906 1.287.382.017.636.038.636.308 0 .271-.235.271-.38.271-.3 0-.684-.018-1.069-.036a25.248 25.248 0 00-1.071-.036c-.15 0-.576.017-1.013.035-.46.018-.932.037-1.108.037-.146 0-.38-.017-.38-.27 0-.25.242-.272.61-.307l.022-.002c.908-.051.908-.543.908-1.25v-8.43c0-.403-.108-.46-.364-.47-2.465.023-2.893.695-3.106 1.159-.327.67-.38.743-.562.743-.181 0-.181-.217-.181-.308V4.97c0-.416 0-.562.217-.562.016 0 .027.002.047.004.05.006.152.018.498.032.488.02 1.412.038 3.281.038h2.27c1.87 0 2.806-.019 3.28-.038.337-.013.444-.026.496-.032zm-19.548 8.48c-.162 0-.196.065-.476.609l-.05.097c-.797 1.542-1.92 1.542-2.72 1.542-1.522 0-1.903-.199-1.903-1.487v-3.117c0-.543.144-.543 1.015-.543 1.487 0 1.996.017 2.376 1.415.09.343.199.436.343.436.217 0 .217-.254.217-.364 0-.075-.014-.281-.029-.48-.013-.185-.026-.365-.026-.426 0-.223.04-.901.075-1.502.027-.477.052-.905.052-1.017 0-.198-.09-.255-.198-.255-.108 0-.182.038-.273.273-.327.96-.488 1.358-2.501 1.358-1.05 0-1.05-.145-1.05-.724V6.075c0-.906.072-1.028.978-1.028 2.57 0 3.008.685 3.227 1.16.328.67.364.743.563.743.185 0 .182-.188.181-.288V4.968c0-.416 0-.562-.218-.562a6.061 6.061 0 01-.543.036c-.47.02-1.415.038-3.28.038h-.866c-1.542 0-2.321-.017-2.719-.038a4.097 4.097 0 01-.454-.036c-.126 0-.363 0-.363.256 0 .255.255.29.653.306.906.055.906.543.906 1.287v7.653c0 .744 0 1.234-.906 1.287l-.03.002c-.364.035-.623.06-.623.306 0 .254.237.27.38.27.083 0 .161-.005.268-.014.078-.006.173-.014.296-.021a24.97 24.97 0 011.487-.036h.216a1109.667 1109.667 0 001.996.036c1.035.019 2.32.036 3.243.036.528 0 .708-.199.725-.545.029-.35.097-.835.156-1.251.054-.38.1-.703.1-.815-.008-.107-.06-.271-.225-.271zm29.114.609c.28-.544.314-.609.476-.609.163 0 .218.165.221.27 0 .113-.045.436-.1.816-.058.416-.126.9-.155 1.25-.017.347-.197.546-.725.546-.923 0-2.208-.017-3.243-.036l-1-.019h-.001c-.542-.01-.924-.017-.995-.017h-.216c-.743 0-1.196.019-1.487.036-.123.007-.218.015-.296.02a3.272 3.272 0 01-.267.016c-.144 0-.38-.017-.38-.271 0-.247.257-.271.622-.306l.03-.002c.906-.053.906-.543.906-1.287V6.255c0-.744 0-1.232-.906-1.287-.398-.017-.653-.051-.653-.306 0-.256.237-.256.363-.256.15.02.303.033.454.036.398.02 1.177.038 2.72.038h.868c1.866 0 2.81-.019 3.28-.038a6.061 6.061 0 00.544-.036c.218 0 .218.146.218.562v1.694c0 .1.003.288-.182.288-.199 0-.235-.073-.562-.743-.22-.475-.658-1.16-3.228-1.16-.906 0-.978.122-.978 1.028v2.632c0 .579 0 .724 1.05.724 2.013 0 2.174-.397 2.502-1.358.09-.235.164-.273.272-.273.108 0 .199.057.199.255 0 .112-.025.54-.053 1.017-.035.601-.074 1.28-.074 1.502 0 .061.013.24.026.426.014.2.029.405.029.48 0 .11 0 .364-.218.364-.144 0-.252-.093-.343-.436-.38-1.398-.889-1.415-2.376-1.415-.87 0-1.014 0-1.014.543v3.117c0 1.288.38 1.487 1.903 1.487.799 0 1.923 0 2.72-1.542l.05-.097zm-51.395.61c.349.613.596 1.046 1.1 1.12.38.056.467.14.467.327s-.18.218-.307.218h-2.388c-.314 0-.393-.152-.575-.5l-.023-.045-2.197-4.119c-.399-.784-.488-.856-1.305-.856-.305 0-.343.108-.343.416v3.255c0 .76 0 1.25.907 1.306.397.017.652.056.652.308 0 .237-.21.236-.354.235h-.026c-.236 0-1.14-.034-1.706-.055l-.47-.017c-.152 0-.585.017-1.025.035-.453.018-.913.037-1.079.037h-.003c-.144 0-.377 0-.377-.254 0-.255.272-.274.653-.291.887-.072.887-.545.887-1.306V6.24c0-.742 0-1.232-.887-1.287-.398-.019-.653-.034-.653-.29 0-.255.074-.255.672-.255.086 0 .334.017.593.035.283.019.58.039.693.039.239 0 .932-.017 1.644-.035.75-.02 1.522-.039 1.802-.039 3.207 0 3.48 2.212 3.48 2.848 0 2.12-1.868 2.556-2.485 2.683l.033.02c.224.137.44.27.84.994l1.757 3.118.023.04zm-5.57-5.008c0 .635 0 .671.906.671.652 0 2.448 0 2.451-2.266 0-.653-.253-2.593-2.501-2.593-.84 0-.857.436-.857 1.143v3.045zm18.043 6.128c-.503-.074-.75-.507-1.1-1.12l-.022-.04-1.758-3.118c-.398-.725-.615-.857-.839-.994l-.033-.02c.617-.127 2.484-.562 2.484-2.683 0-.636-.272-2.848-3.48-2.848-.279 0-1.05.02-1.8.039-.713.018-1.406.035-1.645.035-.114 0-.41-.02-.693-.04-.26-.017-.507-.034-.593-.034-.598 0-.672 0-.672.256 0 .255.255.27.653.29.887.054.887.544.887 1.286v7.685c0 .761 0 1.234-.887 1.306-.38.017-.653.036-.653.291 0 .254.233.254.377.254h.003c.166 0 .626-.019 1.08-.037.439-.018.872-.035 1.024-.035l.47.017c.567.02 1.47.055 1.706.055h.026c.145 0 .354.002.354-.235 0-.252-.255-.291-.652-.308-.907-.055-.907-.545-.907-1.306v-3.255c0-.308.038-.416.343-.416.817 0 .906.072 1.306.856l2.194 4.119.024.045c.181.348.26.5.574.5h2.388c.127 0 .307-.031.307-.218s-.086-.27-.466-.327zm-5.763-5.457c-.907 0-.907-.036-.907-.671V6.058c0-.707.017-1.143.857-1.143 2.248 0 2.501 1.94 2.501 2.593-.005 2.266-1.799 2.266-2.451 2.266zm55.453 4.337c.349.613.596 1.046 1.1 1.12.376.056.462.14.462.327s-.18.218-.307.218h-2.388c-.314 0-.393-.152-.575-.5l-.023-.045-2.204-4.12c-.399-.785-.488-.857-1.305-.857-.305 0-.343.108-.343.416v3.255c0 .761 0 1.251.919 1.308.397.017.652.056.652.308 0 .237-.21.236-.354.235h-.026c-.236 0-1.14-.034-1.706-.055l-.47-.017c-.152 0-.585.017-1.025.035-.453.018-.913.037-1.079.037h-.002c-.145 0-.378 0-.378-.254 0-.255.272-.274.653-.291.887-.072.887-.545.887-1.306V6.24c0-.742 0-1.232-.887-1.287-.398-.019-.653-.034-.653-.29 0-.255.074-.255.672-.255.086 0 .334.017.593.035.283.019.58.039.693.039.239 0 .932-.017 1.644-.035.75-.02 1.522-.039 1.802-.039 3.207 0 3.48 2.212 3.48 2.848 0 2.12-1.868 2.556-2.485 2.683l.033.02c.224.137.44.27.84.994l1.757 3.118.023.04zm-5.574-5.008c0 .635 0 .671.906.671.653 0 2.447 0 2.452-2.266 0-.653-.254-2.593-2.501-2.593-.84 0-.857.436-.857 1.143v3.045z"
          fill="#959DA7"/>
</svg>