<!--
  - /***
  -  ** █ ---------------------------------------------------------------------------------------------------------------------
  -  ** █ ░FRAMEWORK                                  2023-12-01 23:19:27
  -  ** █ ░█▀▀█ █▀▀█ █▀▀▄ █▀▀ ░█─░█ ─▀─ █▀▀▀ █▀▀▀ █▀▀ [App\Modules\Account\Views\Processes\Creator\deny.php]
  -  ** █ ░█─── █──█ █──█ █▀▀ ░█▀▀█ ▀█▀ █─▀█ █─▀█ ▀▀█ Copyright 2023 - CloudEngine S.A.S., Inc. <admin@cgine.com>
  -  ** █ ░█▄▄█ ▀▀▀▀ ▀▀▀─ ▀▀▀ ░█─░█ ▀▀▀ ▀▀▀▀ ▀▀▀▀ ▀▀▀ Para obtener información completa sobre derechos de autor y licencia,
  -  ** █                                             consulte la LICENCIA archivo que se distribuyó con este código fuente.
  -  ** █ ---------------------------------------------------------------------------------------------------------------------
  -  ** █ EL SOFTWARE SE PROPORCIONA -TAL CUAL-, SIN GARANTÍA DE NINGÚN TIPO, EXPRESA O
  -  ** █ IMPLÍCITA, INCLUYENDO PERO NO LIMITADO A LAS GARANTÍAS DE COMERCIABILIDAD,
  -  ** █ APTITUD PARA UN PROPÓSITO PARTICULAR Y NO INFRACCIÓN. EN NINGÚN CASO SERÁ
  -  ** █ LOS AUTORES O TITULARES DE LOS DERECHOS DE AUTOR SERÁN RESPONSABLES DE CUALQUIER
  -  ** █ RECLAMO, DAÑOS U OTROS RESPONSABILIDAD, YA SEA EN UNA ACCIÓN DE CONTRATO,
  -  ** █ AGRAVIO O DE OTRO MODO, QUE SURJA DESDE, FUERA O EN RELACIÓN CON EL SOFTWARE
  -  ** █ O EL USO U OTROS NEGOCIACIONES EN EL SOFTWARE.
  -  ** █ ---------------------------------------------------------------------------------------------------------------------
  -  ** █ @Author Jose Alexis Correa Valencia <jalexiscv@gmail.com>
  -  ** █ @link https://www.codehiggs.com
  -  ** █ @Version 1.5.0 @since PHP 7, PHP 8
  -  ** █ ---------------------------------------------------------------------------------------------------------------------
  -  ** █ Datos recibidos desde el controlador - @ModuleController
  -  ** █ ---------------------------------------------------------------------------------------------------------------------
  -  ** █ @authentication, @request, @dates, @parent, @component, @view, @oid, @views, @prefix
  -  ** █ ---------------------------------------------------------------------------------------------------------------------
  -  ***/
  -->

<svg width="118" height="48" fill="none" xmlns="http://www.w3.org/2000/svg">
    <path fill-rule="evenodd" clip-rule="evenodd"
          d="M117.516 20.024C101.835 9.59 81.379 3.279 59.002 3.279 36.62 3.278 16.165 9.59.484 20.025c15.597-5.168 33.83-8.374 58.518-8.374 24.684 0 42.921 3.206 58.514 8.373z"
          fill="#fff"/>
    <path d="M50.028 25.448c-1.148 0-1.738.929-1.892 2.065-.169 1.254-.829 5.607-.976 6.714-.088.662-.135 1.356-.78 1.638-.646.285-1.431-.154-2.099-.72-.67-.567-10.576-8.973-10.576-8.973a3.008 3.008 0 00-1.965-.727c-1.497 0-2.934.924-2.934 3.187v14.016c0 1.093.774 1.79 1.698 1.79 1.02 0 1.68-.672 1.826-1.659 0 0 1.09-6.68 1.221-7.426.154-.866.29-1.546 1.13-1.806.759-.233 1.478.205 2.545 1.137 1.052.917 9.975 8.947 9.975 8.947.682.574 1.18.808 2.145.808.877 0 2.468-.358 2.468-3.026V27.45c0-1.294-.807-2.003-1.786-2.003zM113.842 40.386c-7.775 1.666-16.668-.114-16.668-5.592 0-4.141 3.854-5.83 6.891-6.071 3.187-.252 5.677.413 6.956 1.74.8.826.576 1.959-.993 2.05-1.449.088-4.163.172-6.425.256-1.284.047-1.97.73-1.97 1.652 0 .727.55 1.564 2.028 1.571 2.116.011 7.489.044 10.159.052 1.76.003 2.629-.98 2.629-2.997 0-3.198-2.908-8.052-11.42-8.052-7.712 0-13.29 3.827-13.29 10.087 0 8.874 13.103 11.582 22.708 8.286.909-.31 1.734-.961 1.47-1.977-.235-.903-.972-1.243-2.075-1.005zM23.66 40.396c-7.774 1.666-16.667-.114-16.667-5.592 0-4.141 3.854-5.83 6.89-6.07 3.184-.253 5.674.412 6.958 1.739.8.826.579 1.959-.994 2.05-1.449.088-4.166.172-6.425.256-1.284.047-1.97.73-1.97 1.652 0 .727.55 1.564 2.028 1.572 2.117.01 7.493.043 10.159.05 1.76.004 2.63-.979 2.63-2.996 0-3.198-2.909-8.052-11.42-8.052-7.713 0-13.29 3.827-13.29 10.088 0 8.873 13.106 11.582 22.707 8.285.91-.31 1.734-.961 1.47-1.977-.234-.903-.971-1.243-2.075-1.005zM83.87 31.852c.168 4.838.626 8.851.755 10.259.165 1.816 1.107 2.331 2.053 2.331.906 0 1.867-.471 2.036-2.313.139-1.553.601-6.338.825-11.074.01-.245-.162-.351-.356-.318l-5.06.815c-.155.033-.261.153-.254.3zM86.69 24.991c-2.322 0-3 1.813-2.971 2.924.004.205.026.779.059 1.488.007.16.154.314.348.289l5.28-.856a.301.301 0 00.258-.288c.014-.249.018-.501.022-.622.029-1.067-.66-2.934-2.997-2.934zM78.93 32.707c-1.76 0-7.192.04-10.669.05-1.686.005-2.108.907-2.108 1.657 0 .65.45 1.49 2.024 1.571 2.398.124 5.446.267 6.854.34 1.896.099 1.922 1.067 1.28 1.9-1.287 1.67-4.419 2.764-7.664 2.764-4.247 0-8.92-2.409-8.92-6.225 0-3.578 3.998-7.521 15.88-5.858 1.045.146 2.072-.04 2.329-1.005.271-1.024-.396-1.681-1.746-2.036-2.692-.705-5.145-.873-7.492-.873-7.995 0-14.409 3.804-14.409 9.951 0 6.565 6.389 9.773 14.35 9.773 8.893 0 13.224-4.824 13.224-9.041.008-2.146-1.089-2.968-2.933-2.968z"
          fill="#fff"/>
</svg>