<!--
  - /***
  -  ** █ ---------------------------------------------------------------------------------------------------------------------
  -  ** █ ░FRAMEWORK                                  2023-12-01 23:19:27
  -  ** █ ░█▀▀█ █▀▀█ █▀▀▄ █▀▀ ░█─░█ ─▀─ █▀▀▀ █▀▀▀ █▀▀ [App\Modules\Account\Views\Processes\Creator\deny.php]
  -  ** █ ░█─── █──█ █──█ █▀▀ ░█▀▀█ ▀█▀ █─▀█ █─▀█ ▀▀█ Copyright 2023 - CloudEngine S.A.S., Inc. <admin@cgine.com>
  -  ** █ ░█▄▄█ ▀▀▀▀ ▀▀▀─ ▀▀▀ ░█─░█ ▀▀▀ ▀▀▀▀ ▀▀▀▀ ▀▀▀ Para obtener información completa sobre derechos de autor y licencia,
  -  ** █                                             consulte la LICENCIA archivo que se distribuyó con este código fuente.
  -  ** █ ---------------------------------------------------------------------------------------------------------------------
  -  ** █ EL SOFTWARE SE PROPORCIONA -TAL CUAL-, SIN GARANTÍA DE NINGÚN TIPO, EXPRESA O
  -  ** █ IMPLÍCITA, INCLUYENDO PERO NO LIMITADO A LAS GARANTÍAS DE COMERCIABILIDAD,
  -  ** █ APTITUD PARA UN PROPÓSITO PARTICULAR Y NO INFRACCIÓN. EN NINGÚN CASO SERÁ
  -  ** █ LOS AUTORES O TITULARES DE LOS DERECHOS DE AUTOR SERÁN RESPONSABLES DE CUALQUIER
  -  ** █ RECLAMO, DAÑOS U OTROS RESPONSABILIDAD, YA SEA EN UNA ACCIÓN DE CONTRATO,
  -  ** █ AGRAVIO O DE OTRO MODO, QUE SURJA DESDE, FUERA O EN RELACIÓN CON EL SOFTWARE
  -  ** █ O EL USO U OTROS NEGOCIACIONES EN EL SOFTWARE.
  -  ** █ ---------------------------------------------------------------------------------------------------------------------
  -  ** █ @Author Jose Alexis Correa Valencia <jalexiscv@gmail.com>
  -  ** █ @link https://www.codehiggs.com
  -  ** █ @Version 1.5.0 @since PHP 7, PHP 8
  -  ** █ ---------------------------------------------------------------------------------------------------------------------
  -  ** █ Datos recibidos desde el controlador - @ModuleController
  -  ** █ ---------------------------------------------------------------------------------------------------------------------
  -  ** █ @authentication, @request, @dates, @parent, @component, @view, @oid, @views, @prefix
  -  ** █ ---------------------------------------------------------------------------------------------------------------------
  -  ***/
  -->

<svg xmlns:xlink="http://www.w3.org/1999/xlink" fill="none" height="48" width="201" xmlns="http://www.w3.org/2000/svg">
    <clipPath id="a">
        <path d="m0 0h201v48h-201z"/>
    </clipPath>
    <g clip-path="url(#a)" clip-rule="evenodd" fill="#fff" fill-rule="evenodd">
        <path d="m18.212 18.41c.1.353.134.61.168 1.156h4.578c0-.482-.033-.9-.1-1.317-.669-4.305-4.512-7.582-9.19-7.582h-13.804v26.666h9.29v-4.401h-4.644v-17.8h9.157c2.14 0 3.977 1.382 4.545 3.278zm4.78 9.991v-4.401h-4.646v4.337c0 2.506-2.239 4.562-4.846 4.562h.268v4.432a9.552 9.552 0 0 1 -.2.002h.2v-.002c5.024-.103 9.223-4.078 9.223-8.93z"
              fill-opacity=".5"/>
        <path d="m76.296 18.442c2.005 0 3.543 1.06 3.543 3.02v4.852c0 1.927-1.571 3.02-3.543 3.02-2.005 0-3.542-1.093-3.542-3.02v-4.852c0-1.927 1.57-3.02 3.542-3.02zm-7.152 7.872c0 3.695 2.607 6.2 7.185 6.2 4.546 0 7.152-2.473 7.186-6.2v-4.852c0-3.727-2.607-6.232-7.186-6.232-4.578 0-7.185 2.505-7.185 6.232zm-11.262-7.615c2.005 0 3.542 1.093 3.542 3.02v4.37c0 1.928-1.57 3.02-3.542 3.02h-3.543v-10.41zm-7.152-3.213v16.804h7.185c4.579 0 7.185-2.474 7.185-6.201v-4.402c0-3.695-2.606-6.2-7.185-6.2h-7.185zm46.687 7.39-3.074 9.414h-3.944l-3.476-16.804h3.643l2.206 11.374 3.542-11.374h2.24l3.542 11.374 2.206-11.374h3.642l-3.509 16.804h-3.91zm31.816-7.39h-3.643v11.888c0 1.092-.601 1.928-2.005 1.928-1.17 0-1.871-.643-1.972-1.832h-3.676c0 3.342 2.106 5.044 5.648 5.044 3.543 0 5.648-1.702 5.648-5.044zm15.139 5.976c0-1.96-1.537-3.02-3.542-3.02-1.972 0-3.543 1.093-3.543 3.02v4.852c0 1.927 1.537 3.02 3.543 3.02 1.971 0 3.542-1.093 3.542-3.02zm-3.542 11.053c-4.579 0-7.186-2.506-7.186-6.201v-4.852c0-3.727 2.607-6.232 7.186-6.232 4.578 0 7.185 2.505 7.185 6.232v4.852c0 3.727-2.607 6.2-7.185 6.2zm22.324-.225h3.643v-16.804h-3.643v10.828l-7.052-10.828h-3.642v16.804h3.642v-10.828zm12.098-10.09h7.085v3.213h-7.085v3.695h7.921v3.18h-11.564v-16.801h11.564v3.213h-7.921v3.502zm15.507 4.788h-3.743c.167 3.34 2.874 5.526 7.051 5.558 4.111 0 6.35-1.864 6.35-4.884 0-2.827-1.571-4.401-4.512-5.108l-3.108-.74c-1.036-.256-1.905-.674-1.905-1.67 0-1.189 1.07-1.703 2.607-1.703 1.203 0 2.54.514 2.874 1.639h3.743c-.434-2.86-2.773-4.82-6.583-4.82-3.342 0-6.317 1.51-6.317 4.884 0 2.474 1.437 4.273 4.345 4.98l3.208.771c1.337.29 1.972.835 1.972 1.767 0 1.157-1.103 1.67-2.707 1.67-1.805 0-3.075-.93-3.275-2.344z"/>
    </g>
</svg>