<!--
  - /***
  -  ** █ ---------------------------------------------------------------------------------------------------------------------
  -  ** █ ░FRAMEWORK                                  2023-12-01 23:19:27
  -  ** █ ░█▀▀█ █▀▀█ █▀▀▄ █▀▀ ░█─░█ ─▀─ █▀▀▀ █▀▀▀ █▀▀ [App\Modules\Account\Views\Processes\Creator\deny.php]
  -  ** █ ░█─── █──█ █──█ █▀▀ ░█▀▀█ ▀█▀ █─▀█ █─▀█ ▀▀█ Copyright 2023 - CloudEngine S.A.S., Inc. <admin@cgine.com>
  -  ** █ ░█▄▄█ ▀▀▀▀ ▀▀▀─ ▀▀▀ ░█─░█ ▀▀▀ ▀▀▀▀ ▀▀▀▀ ▀▀▀ Para obtener información completa sobre derechos de autor y licencia,
  -  ** █                                             consulte la LICENCIA archivo que se distribuyó con este código fuente.
  -  ** █ ---------------------------------------------------------------------------------------------------------------------
  -  ** █ EL SOFTWARE SE PROPORCIONA -TAL CUAL-, SIN GARANTÍA DE NINGÚN TIPO, EXPRESA O
  -  ** █ IMPLÍCITA, INCLUYENDO PERO NO LIMITADO A LAS GARANTÍAS DE COMERCIABILIDAD,
  -  ** █ APTITUD PARA UN PROPÓSITO PARTICULAR Y NO INFRACCIÓN. EN NINGÚN CASO SERÁ
  -  ** █ LOS AUTORES O TITULARES DE LOS DERECHOS DE AUTOR SERÁN RESPONSABLES DE CUALQUIER
  -  ** █ RECLAMO, DAÑOS U OTROS RESPONSABILIDAD, YA SEA EN UNA ACCIÓN DE CONTRATO,
  -  ** █ AGRAVIO O DE OTRO MODO, QUE SURJA DESDE, FUERA O EN RELACIÓN CON EL SOFTWARE
  -  ** █ O EL USO U OTROS NEGOCIACIONES EN EL SOFTWARE.
  -  ** █ ---------------------------------------------------------------------------------------------------------------------
  -  ** █ @Author Jose Alexis Correa Valencia <jalexiscv@gmail.com>
  -  ** █ @link https://www.codehiggs.com
  -  ** █ @Version 1.5.0 @since PHP 7, PHP 8
  -  ** █ ---------------------------------------------------------------------------------------------------------------------
  -  ** █ Datos recibidos desde el controlador - @ModuleController
  -  ** █ ---------------------------------------------------------------------------------------------------------------------
  -  ** █ @authentication, @request, @dates, @parent, @component, @view, @oid, @views, @prefix
  -  ** █ ---------------------------------------------------------------------------------------------------------------------
  -  ***/
  -->

<svg width="143" height="48" fill="none" xmlns="http://www.w3.org/2000/svg">
    <path d="M74.323 23.135c1.516 0 2.038.924 2.038 2.014 0 1.85-1.422 2.963-3.674 2.963a10.489 10.489 0 01-2.583-.403c.284-1.706 1.374-4.574 4.219-4.574zm32.35 0c1.374 0 2.038.924 2.038 2.014 0 1.85-1.422 2.963-3.674 2.963a10.498 10.498 0 01-2.583-.403c.285-1.706 1.517-4.574 4.219-4.574zm30.667.142h3.437c.474 0 .758-.19.853-.64.166-.64.427-1.753.521-2.038.095-.403-.118-.687-.568-.687h-3.413c.237-.972 1.208-4.148 1.208-6.21 0-4.123-3.507-7.63-8.484-7.63-5.617 0-9.267 3.767-9.267 9.052a8.793 8.793 0 001.304 4.48c-.308-.024-.616-.024-.924-.024-4.266 0-6.945 2.323-6.945 5.688 0 3.152 2.489 4.384 4.835 5.214 2.086.735 4.006 1.067 4.006 2.702 0 1.09-1.043 1.73-3.129 1.73-2.441 0-3.792-1.162-4.147-1.588.379-.332.592-.83.568-1.35 0-1.02-.711-1.826-2.038-1.826-1.114 0-2.062.9-2.299 2.11-1.801 1.469-3.744 2.417-6.517 2.417-2.749 0-4.148-1.422-4.148-4.456.64.19 2.323.427 3.413.427 4.622 0 7.774-2.11 7.774-6.328 0-2.275-1.991-4.645-5.925-4.645h-.024c-5.166 0-8.081 3.27-9.338 6.896-.355-.094-.71-.165-1.066-.26a7.831 7.831 0 00.498-2.75c0-1.777-1.114-3.886-4.053-3.886-2.062 0-4.005 1.35-5.356 3.365.332-1.327.569-2.18.569-2.251.094-.356-.048-.735-.593-.735h-3.034c-.426 0-.734.142-.853.64-.07.332-1.114 4.432-2.133 8.39-.64 2.488-3.934 5.57-8.081 5.57-2.726 0-4.148-1.518-4.148-4.551.711.284 2.3.521 3.413.521 4.811 0 7.797-2.11 7.797-6.328 0-2.275-1.99-4.645-5.925-4.645h-.023c-5.83 0-9.386 4.527-10.002 9.67-.26 2.133-2.062 5.071-4.005 5.071-.948 0-1.493-.592-1.493-1.611 0-.877.616-3.01 1.303-5.712.237-.9.57-2.275.948-3.792h3.176c.474 0 .735-.19.853-.64.143-.64.427-1.753.522-2.038.095-.403-.119-.687-.569-.687H62.71s1.422-5.712 1.469-5.878c.142-.592-.355-.924-.853-.806 0 0-2.418.475-2.868.57-.45.094-.806.355-.972.995l-1.28 5.143h-2.488c-.474 0-.758.19-.853.64-.166.64-.427 1.753-.521 2.038-.095.402.118.687.568.687h2.441c-.023.071-.876 3.365-1.587 6.328-.332 1.422-1.446 4.763-3.247 4.763-1.09 0-1.54-.545-1.54-1.73 0-1.848 1.824-6.47 1.824-8.555 0-2.797-1.493-4.432-4.574-4.432-1.943 0-3.958 1.256-4.811 2.346 0 0 .26-.9.355-1.256a.55.55 0 00-.355-.687c-.071-.024-.166-.024-.237-.024h-2.986c-.64 0-.806.356-.9.711-.048.142-1.115 4.408-2.157 8.508-.712 2.82-2.442 5.167-4.29 5.167-.948 0-1.375-.593-1.375-1.612 0-.877.57-3.033 1.233-5.711.83-3.271 1.54-5.95 1.611-6.28.095-.404-.07-.735-.592-.735H30.69c-.545 0-.758.284-.853.687 0 0-.853 3.223-1.754 6.825-.663 2.607-1.374 5.262-1.374 6.518 0 2.227.995 3.91 3.744 3.91 2.11 0 3.792-1.066 5.072-2.44-.19.734-.308 1.208-.332 1.255-.118.427.024.806.521.806h3.105c.545 0 .735-.213.853-.687l2.418-9.551c.616-2.441 2.133-4.077 4.266-4.077 1.019 0 1.872.664 1.777 1.967-.118 1.422-1.825 6.565-1.825 8.817 0 1.706.64 3.91 3.84 3.91 2.18 0 3.815-1.043 4.977-2.417.426 1.446 1.564 2.417 3.65 2.417 3.46 0 5.545-2.062 6.778-4.124 1.019 2.394 3.412 4.124 6.896 4.124a11.166 11.166 0 008.272-3.555c-.356 1.375-.593 2.323-.617 2.394-.118.426.071.782.593.782h3.057a.797.797 0 00.83-.664c.047-.213.497-1.92 1.113-4.36 1.21-4.646 3.129-9.48 6.02-9.48 1.02 0 1.446.569 1.446 1.47 0 .33-.071.686-.237.994-1.398-.284-2.536.403-2.536 1.896 0 .972 1.043 1.873 2.417 1.873 1.067 0 1.944-.26 2.631-.735.64.142 1.35.285 2.062.45-.095.664-.166 1.351-.166 2.039 0 3.744 2.797 6.92 7.584 6.92 3.745 0 6.162-1.256 8.413-3.129 1.067 1.754 3.769 3.153 7.3 3.153 4.835 0 7.608-2.513 7.608-5.854 0-3.01-2.489-4.124-5.025-5.048-2.085-.759-3.815-1.162-3.815-2.631 0-1.209.948-1.754 2.559-1.754a7.47 7.47 0 012.275.356c.427 1.043 1.28 2.204 2.749 2.204 1.257 0 1.802-.996 1.802-1.896 0-2.583-4.314-2.868-4.314-8.437 0-3.46 1.967-6.304 6.02-6.304 2.82 0 4.669 1.777 4.669 4.668 0 2.37-1.446 6.613-1.446 6.613h-2.441c-.474 0-.758.19-.853.64-.166.64-.427 1.753-.521 2.038-.095.403.118.687.568.687h2.394s-2.465 9.124-2.465 10.783c0 2.228 1.256 3.91 4.006 3.91 3.886 0 6.327-2.511 7.37-6.185a.393.393 0 00-.189-.497c-.048-.024-.119-.024-.166-.024h-1.493a.56.56 0 00-.546.45c-.331 1.304-1.161 2.678-2.796 2.678-.948 0-1.493-.592-1.493-1.611 0-.877.569-2.915 1.303-5.712.356-1.422.948-3.887.948-3.887zM36 15.266c-.118 1.612-1.446 2.892-2.986 2.892-1.54 0-2.702-1.304-2.607-2.892.118-1.611 1.446-2.891 2.986-2.891 1.54 0 2.702 1.303 2.607 2.891zM14.41 6C4.976 6 0 12.328 0 19.2c0 3.2 1.706 7.182 4.432 8.462.426.19.64.118.735-.285.07-.308.45-1.777.616-2.465.07-.213 0-.45-.142-.64-.901-1.09-1.612-3.104-1.612-4.976 0-4.811 3.65-9.457 9.86-9.457 5.355 0 9.1 3.65 9.1 8.864 0 5.901-2.986 9.978-6.85 9.978-2.132 0-3.744-1.778-3.223-3.934.57-2.607 1.754-5.404 1.754-7.276 0-1.683-.9-3.081-2.749-3.081-2.204 0-3.958 2.275-3.958 5.308a7.664 7.664 0 00.664 3.247L6.067 33.8c-.663 2.891.095 7.584.166 7.987 0 .118.119.213.237.213a.2.2 0 00.166-.095c.213-.284 2.82-4.195 3.555-7.015.26-1.019 1.35-5.19 1.35-5.19.712 1.35 2.797 2.512 5.002 2.512 6.588 0 11.328-6.044 11.328-13.58C27.847 11.404 21.97 6 14.41 6z"
          fill="#fff"/>
</svg>