<!--
  - /***
  -  ** █ ---------------------------------------------------------------------------------------------------------------------
  -  ** █ ░FRAMEWORK                                  2023-12-01 23:19:27
  -  ** █ ░█▀▀█ █▀▀█ █▀▀▄ █▀▀ ░█─░█ ─▀─ █▀▀▀ █▀▀▀ █▀▀ [App\Modules\Account\Views\Processes\Creator\deny.php]
  -  ** █ ░█─── █──█ █──█ █▀▀ ░█▀▀█ ▀█▀ █─▀█ █─▀█ ▀▀█ Copyright 2023 - CloudEngine S.A.S., Inc. <admin@cgine.com>
  -  ** █ ░█▄▄█ ▀▀▀▀ ▀▀▀─ ▀▀▀ ░█─░█ ▀▀▀ ▀▀▀▀ ▀▀▀▀ ▀▀▀ Para obtener información completa sobre derechos de autor y licencia,
  -  ** █                                             consulte la LICENCIA archivo que se distribuyó con este código fuente.
  -  ** █ ---------------------------------------------------------------------------------------------------------------------
  -  ** █ EL SOFTWARE SE PROPORCIONA -TAL CUAL-, SIN GARANTÍA DE NINGÚN TIPO, EXPRESA O
  -  ** █ IMPLÍCITA, INCLUYENDO PERO NO LIMITADO A LAS GARANTÍAS DE COMERCIABILIDAD,
  -  ** █ APTITUD PARA UN PROPÓSITO PARTICULAR Y NO INFRACCIÓN. EN NINGÚN CASO SERÁ
  -  ** █ LOS AUTORES O TITULARES DE LOS DERECHOS DE AUTOR SERÁN RESPONSABLES DE CUALQUIER
  -  ** █ RECLAMO, DAÑOS U OTROS RESPONSABILIDAD, YA SEA EN UNA ACCIÓN DE CONTRATO,
  -  ** █ AGRAVIO O DE OTRO MODO, QUE SURJA DESDE, FUERA O EN RELACIÓN CON EL SOFTWARE
  -  ** █ O EL USO U OTROS NEGOCIACIONES EN EL SOFTWARE.
  -  ** █ ---------------------------------------------------------------------------------------------------------------------
  -  ** █ @Author Jose Alexis Correa Valencia <jalexiscv@gmail.com>
  -  ** █ @link https://www.codehiggs.com
  -  ** █ @Version 1.5.0 @since PHP 7, PHP 8
  -  ** █ ---------------------------------------------------------------------------------------------------------------------
  -  ** █ Datos recibidos desde el controlador - @ModuleController
  -  ** █ ---------------------------------------------------------------------------------------------------------------------
  -  ** █ @authentication, @request, @dates, @parent, @component, @view, @oid, @views, @prefix
  -  ** █ ---------------------------------------------------------------------------------------------------------------------
  -  ***/
  -->

<svg fill="none" height="48" width="270" xmlns="http://www.w3.org/2000/svg">
    <g fill="#fff">
        <path d="m267.812 42.197.442 1.442.443-1.443h.369l.295 1.804h-.295l-.221-1.443-.443 1.443h-.295l-.443-1.443-.221 1.443h-.296l.296-1.803zm-.886 0v.216h-.516v1.587h-.296v-1.587h-.516v-.216z"/>
        <path clip-rule="evenodd"
              d="m240.642 33.002c-.147-2.813 4.796-6.06 9.519-5.77l14.167 16.737h-12.101c-3.025 0-5.387-1.01-6.862-3.319l-4.723-7.647z"
              fill-rule="evenodd"/>
        <path d="m240.642 33.003-4.206-6.854c-.516-.794-.664-1.443-.664-2.237 0-.865.369-1.37 1.845-2.092 1.697-.794 5.091-1.154 8.633-1.154 5.682 0 7.084 1.803 7.674 3.751 0 0-.812-.288-2.73-.288-6.051 0-10.847 2.886-10.847 7.215 0 .865.295 1.659.295 1.659zm-18.151-29.003h5.681c2.361 0 3.394.938 4.354 1.876 1.106 1.01 4.501 5.41 11.584 14.14h-7.674c-3.172 0-4.132-.504-5.386-2.308zm-88.789 16.029-3.32 8.946h6.567l-3.247-8.947zm5.755 15.944-1.549-4.4h-8.486l-1.549 4.4h-3.616l7.6-19.552h4.059l7.452 19.552zm30.622-20.273h3.542v3.246h-3.542zm.074 5.41h3.468v14.863h-3.468v-14.862zm-25.531-5.41h3.542v3.246h-3.542zm.074 5.41h3.468v14.863h-3.468v-14.862zm21.694-5.41h-3.468v20.273h3.468zm-10.995 13.058v7.287h-3.468v-11.038c0-1.083-.147-3.103-.147-3.824h2.804c.295 0 .369.144.369.433v1.876h.073c.296-.65 1.255-2.598 4.132-2.598.96 0 1.698.289 1.771.361 0 .65-.073 2.02-.073 2.453 0 .216-.148.289-.222.289-.147 0-.147 0-.221-.073a4.617 4.617 0 0 0 -1.402-.216c-1.919-.144-3.616 1.154-3.616 5.05zm31.434 7.215v-9.595c0-1.804-.886-2.959-2.435-2.959-2.14 0-3.542 2.237-3.542 5.195v7.36h-3.468v-10.896c0-1.227-.148-2.958-.148-3.968h2.804c.295 0 .369.144.369.433v1.875h.074c.443-.721 1.476-2.597 4.648-2.597 3.247 0 5.092 2.165 5.092 4.69v10.533h-3.394v-.072zm9.518-8.946h6.42c.147-2.381-1.181-3.752-3.1-3.752-1.992 0-3.172 1.443-3.32 3.752zm8.559 5.7c.222 0 .222.144.296.36.073.65.147 2.092.073 2.453-.369.145-2.213.794-4.722.794-4.87 0-7.748-2.453-7.748-7.72 0-4.545 2.509-7.72 6.936-7.72 4.354 0 6.494 2.886 6.494 6.421 0 .433-.074 1.155-.148 2.093h-9.74c0 2.525 1.623 4.328 4.722 4.328 1.698 0 3.026-.577 3.542-.865.074-.145.148-.145.295-.145zm8.117 3.535c4.501 0 6.641-1.804 6.641-4.474 0-2.597-1.919-3.751-3.911-4.4-.59-.217-1.181-.361-1.697-.578-1.402-.432-2.14-1.01-2.14-1.948s.886-1.587 2.656-1.587c1.624 0 2.878.65 3.395.866.073.072.147.072.295.072.074 0 .221-.072.295-.36 0-.506.074-1.372.074-2.237-.443-.217-1.919-.938-4.354-.938-3.689 0-5.976 1.876-5.976 4.4 0 2.454 1.697 3.536 3.541 4.113.443.145 1.255.361 1.697.577 1.919.65 2.509 1.227 2.509 2.093 0 1.154-1.254 1.731-3.468 1.731-1.771 0-3.025-.65-3.468-.865-.074-.073-.147-.073-.295-.073-.221 0-.295.361-.295.361 0 .144-.074 1.732-.074 2.237.443.216 2.14 1.01 4.575 1.01zm-203.652-16.233-3.32 8.946h6.567l-3.248-8.947zm5.83 15.944-1.55-4.4h-8.486l-1.55 4.4h-3.615l7.6-19.552h4.058l7.453 19.552h-3.911zm56.445-20.273h3.542v3.246h-3.542zm0 5.41h3.468v14.863h-3.468v-14.862zm-7.379 7.648v7.287h-3.467v-11.038c0-1.083-.147-3.103-.147-3.824h2.804c.295 0 .369.144.369.433v1.876h.074c.295-.65 1.254-2.598 4.132-2.598.959 0 1.697.289 1.77.361 0 .65-.073 2.02-.073 2.453 0 .216-.148.289-.222.289-.147 0-.147 0-.221-.073a4.612 4.612 0 0 0 -1.402-.216c-1.918-.144-3.616 1.154-3.616 5.05zm-25.53 7.215v-9.523c0-1.732-.738-3.03-2.509-3.03-1.992 0-3.172 2.164-3.172 5.194v7.36h-3.468v-9.524c0-1.588-.665-3.03-2.51-3.03-2.065 0-3.172 2.164-3.172 5.266v7.287h-3.468v-10.822c0-1.37-.148-3.39-.148-4.04h2.73c.296 0 .443.072.443.433v1.875h.074c.221-.432 1.328-2.597 4.501-2.597 2.951 0 4.058 2.092 4.353 2.742.296-.577 1.55-2.742 4.575-2.742 3.1 0 5.24 1.66 5.24 4.906v10.317h-3.469zm9.593-8.946h6.419c.148-2.381-1.18-3.752-3.1-3.752-2.065 0-3.246 1.443-3.32 3.752zm8.485 5.7c.221 0 .221.144.295.36.074.65.148 2.092.074 2.453-.369.145-2.214.794-4.723.794-4.87 0-7.747-2.453-7.747-7.72 0-4.545 2.509-7.72 6.936-7.72 4.353 0 6.493 2.886 6.493 6.421 0 .433-.074 1.155-.148 2.093h-9.74c0 2.525 1.624 4.4 4.723 4.4 1.697 0 3.025-.577 3.542-.865.147-.216.147-.216.295-.216zm43.313-4.257h-.59c-4.354 0-5.165 1.443-5.165 2.958 0 1.226.811 2.38 2.434 2.38 2.14 0 3.321-2.02 3.321-4.184zm.885 7.503c-.295 0-.516-.072-.516-.505 0-.505-.074-1.443-.074-1.443h-.074c-.221.289-1.475 2.165-4.648 2.165-3.026 0-4.796-2.31-4.796-4.762 0-3.463 3.468-5.195 8.559-5.195h.664v-.577c0-1.587-1.107-2.38-3.247-2.38-1.918 0-3.468.648-4.132.937-.074 0-.147.072-.221.072-.148 0-.221-.072-.295-.288 0-.578-.074-1.66-.074-2.31.59-.216 2.656-1.01 4.944-1.01 4.501 0 6.493 2.021 6.493 5.34v5.771c0 2.093.221 3.536.295 4.04h-2.878zm-11.953-3.246c.074 0 .221.072.221.288.074.721.074 1.876.074 2.237-.664.36-2.214 1.01-3.984 1.01-4.575 0-7.453-2.598-7.453-7.72 0-4.762 2.509-7.72 7.453-7.72 1.623 0 3.099.577 3.984 1.01 0 .505-.074 1.732-.074 2.237 0 .216-.147.288-.221.288-.148 0-.222 0-.295-.072-1.107-.505-2.14-.793-3.1-.793-2.95 0-4.131 1.875-4.131 5.05 0 2.814.959 5.05 4.132 5.05 1.18 0 2.287-.433 3.025-.721.148-.145.221-.145.369-.145zm27.006 3.246v-9.595c0-1.804-.886-2.959-2.435-2.959-2.14 0-3.542 2.237-3.542 5.195v7.36h-3.468v-10.896c0-1.227-.147-2.958-.147-3.968h2.803c.296 0 .443.144.443.433v1.875h.074c.443-.721 1.476-2.597 4.649-2.597 3.32 0 5.091 2.165 5.091 4.69v10.533h-3.468v-.072z"/>
    </g>
</svg>