<!--
  - /***
  -  ** █ ---------------------------------------------------------------------------------------------------------------------
  -  ** █ ░FRAMEWORK                                  2023-12-01 23:19:27
  -  ** █ ░█▀▀█ █▀▀█ █▀▀▄ █▀▀ ░█─░█ ─▀─ █▀▀▀ █▀▀▀ █▀▀ [App\Modules\Account\Views\Processes\Creator\deny.php]
  -  ** █ ░█─── █──█ █──█ █▀▀ ░█▀▀█ ▀█▀ █─▀█ █─▀█ ▀▀█ Copyright 2023 - CloudEngine S.A.S., Inc. <admin@cgine.com>
  -  ** █ ░█▄▄█ ▀▀▀▀ ▀▀▀─ ▀▀▀ ░█─░█ ▀▀▀ ▀▀▀▀ ▀▀▀▀ ▀▀▀ Para obtener información completa sobre derechos de autor y licencia,
  -  ** █                                             consulte la LICENCIA archivo que se distribuyó con este código fuente.
  -  ** █ ---------------------------------------------------------------------------------------------------------------------
  -  ** █ EL SOFTWARE SE PROPORCIONA -TAL CUAL-, SIN GARANTÍA DE NINGÚN TIPO, EXPRESA O
  -  ** █ IMPLÍCITA, INCLUYENDO PERO NO LIMITADO A LAS GARANTÍAS DE COMERCIABILIDAD,
  -  ** █ APTITUD PARA UN PROPÓSITO PARTICULAR Y NO INFRACCIÓN. EN NINGÚN CASO SERÁ
  -  ** █ LOS AUTORES O TITULARES DE LOS DERECHOS DE AUTOR SERÁN RESPONSABLES DE CUALQUIER
  -  ** █ RECLAMO, DAÑOS U OTROS RESPONSABILIDAD, YA SEA EN UNA ACCIÓN DE CONTRATO,
  -  ** █ AGRAVIO O DE OTRO MODO, QUE SURJA DESDE, FUERA O EN RELACIÓN CON EL SOFTWARE
  -  ** █ O EL USO U OTROS NEGOCIACIONES EN EL SOFTWARE.
  -  ** █ ---------------------------------------------------------------------------------------------------------------------
  -  ** █ @Author Jose Alexis Correa Valencia <jalexiscv@gmail.com>
  -  ** █ @link https://www.codehiggs.com
  -  ** █ @Version 1.5.0 @since PHP 7, PHP 8
  -  ** █ ---------------------------------------------------------------------------------------------------------------------
  -  ** █ Datos recibidos desde el controlador - @ModuleController
  -  ** █ ---------------------------------------------------------------------------------------------------------------------
  -  ** █ @authentication, @request, @dates, @parent, @component, @view, @oid, @views, @prefix
  -  ** █ ---------------------------------------------------------------------------------------------------------------------
  -  ***/
  -->

<svg width="39" height="32" viewBox="0 0 39 32" fill="none" xmlns="http://www.w3.org/2000/svg">
    <path d="M34.2128 12.7127C34.2128 12.7119 34.2128 12.7102 34.2119 12.7093C34.2076 12.6891 34.188 12.6756 34.1676 12.679C34.1471 12.6824 34.1327 12.7009 34.1352 12.7211C34.1991 13.2722 34.2324 13.8131 34.2324 14.3296C34.2324 21.9776 27.9405 28.1992 20.206 28.1992C16.7278 28.1992 13.5427 26.9378 11.0886 24.8567C11.0775 24.8668 11.0665 24.8769 11.0554 24.887C11.0477 24.8946 11.0392 24.9022 11.0315 24.9089C9.92636 25.9318 8.43009 26.637 6.8682 27.1215C6.85201 27.1266 6.83497 27.1316 6.81878 27.1367C6.8077 27.1401 6.79662 27.1434 6.78554 27.1468C9.72697 30.1362 13.8349 31.9992 18.3766 31.9992C27.2989 31.9992 34.557 24.8213 34.557 15.9996C34.5561 14.8975 34.4403 13.7912 34.2128 12.7127ZM7.28572 19.8307C7.2985 19.8249 7.31129 19.8181 7.32407 19.8114C6.58871 18.1288 6.17971 16.2759 6.17971 14.3288C6.17885 6.68159 12.4716 0.459201 20.206 0.459201C21.1016 0.459201 22.0057 0.545986 22.8935 0.717028C22.914 0.721241 22.9336 0.708602 22.9387 0.68838C22.9438 0.668159 22.9319 0.647937 22.9123 0.642039C21.4339 0.215698 19.9078 0 18.3757 0C9.4543 0 2.19531 7.17786 2.19531 16.0004C2.19531 18.2846 2.68527 20.4559 3.56122 22.4233C3.57059 22.4149 3.57911 22.4073 3.58849 22.3997C3.59956 22.3896 3.61149 22.3795 3.62257 22.3694C5.02853 21.1249 6.2402 20.3363 7.25505 19.8468C7.26442 19.8417 7.27465 19.8358 7.28572 19.8307Z"
          fill="white"/>
    <path d="M13.1146 15.8174C13.9386 14.6487 14.9628 13.3191 16.1318 11.955C13.0992 10.6861 10.0769 11.5143 8.71351 12.0334C11.0627 13.2037 12.3818 14.6529 13.1146 15.8174ZM35.955 2.23511C35.4292 4.08624 34.2866 5.76464 32.5082 7.2147L32.3958 7.30738C32.0098 7.6343 31.3946 7.56437 30.8296 7.12792C30.4547 6.83892 30.1488 6.40752 30.1488 5.98455C30.1488 5.85816 30.1761 5.73262 30.2374 5.61129C30.2596 5.56748 30.2894 5.52872 30.326 5.4967C31.8163 4.17723 32.6505 3.07347 33.1226 2.25954C30.8313 2.45586 28.5741 3.092 26.4047 4.20083C23.1505 5.8649 19.9594 8.79705 17.3793 11.6955C17.2915 11.7941 17.2029 11.8927 17.1169 11.9912C17.0274 12.0932 16.9405 12.1951 16.8519 12.2971C15.5371 13.8205 14.4038 15.3076 13.533 16.5706C13.4452 16.6987 13.3583 16.8242 13.2765 16.9472C13.1862 17.0812 13.0992 17.2126 13.0157 17.3399C12.6681 17.8724 12.3792 18.3493 12.1577 18.7512C12.2165 18.7866 12.2812 18.8304 12.3477 18.8767C12.4568 18.9534 12.5735 19.0478 12.6945 19.1565C12.8027 19.2542 12.9109 19.3671 13.0191 19.4926C13.2509 19.7614 13.4699 20.0959 13.6395 20.5088C13.6923 20.6377 13.7426 20.77 13.7843 20.9132C13.8244 21.0514 13.8559 21.1997 13.8823 21.3522C13.8874 21.38 13.8959 21.4044 13.9002 21.4331C14.1286 21.4002 14.4992 21.3328 14.9866 21.2224C15.1144 21.193 15.2499 21.1609 15.3931 21.1255C15.5226 21.0944 15.6581 21.0598 15.7995 21.0228C15.9129 20.9933 16.0296 20.9621 16.1506 20.9284C16.0841 20.77 16.0262 20.6402 15.981 20.54C15.9171 20.4001 15.8771 20.3201 15.8745 20.315C15.8524 20.2712 15.8421 20.224 15.8379 20.1768C15.8328 20.1178 15.837 20.0589 15.8592 20.0024C15.8992 19.9004 15.981 19.8204 16.0841 19.7816C16.315 19.6949 16.54 19.6039 16.7615 19.5112C19.415 18.4024 21.4157 16.9253 21.4378 16.9085C21.5435 16.8293 21.6824 16.8099 21.8068 16.8546C21.9312 16.9001 22.0232 17.0037 22.0522 17.1318C22.1681 17.644 22.2431 18.1327 22.2882 18.6029C22.8404 18.3366 23.407 18.0476 23.9839 17.7342C28.6278 15.2065 34.7859 10.5277 38.0017 2.57045C37.5935 2.46513 36.8854 2.31852 35.955 2.23511ZM22.3325 15.3034C21.5443 15.3034 20.9053 14.6715 20.9053 13.8921C20.9053 13.1127 21.5443 12.4808 22.3325 12.4808C23.1207 12.4808 23.7598 13.1127 23.7598 13.8921C23.7598 14.6715 23.1207 15.3034 22.3325 15.3034ZM25.5296 12.9172C24.7414 12.9172 24.1023 12.2853 24.1023 11.5059C24.1023 10.7265 24.7414 10.0946 25.5296 10.0946C26.3178 10.0946 26.9568 10.7265 26.9568 11.5059C26.9568 12.2853 26.3178 12.9172 25.5296 12.9172ZM28.592 10.5563C27.8038 10.5563 27.1648 9.92441 27.1648 9.14503C27.1648 8.36565 27.8038 7.73373 28.592 7.73373C29.3802 7.73373 30.0193 8.36565 30.0193 9.14503C30.0193 9.92441 29.3802 10.5563 28.592 10.5563ZM11.2732 20.4127C11.182 20.3057 11.0909 20.2122 11.0014 20.1355C10.8736 20.026 10.7492 19.9502 10.6384 19.9198C10.5123 20.0142 10.4007 20.1001 10.3086 20.1734C10.4007 20.101 10.5123 20.0142 10.6384 19.9198C10.6324 19.9181 10.6256 19.9139 10.6196 19.9122C10.2993 19.8389 9.30401 19.7319 7.65606 20.5147C7.64328 20.5206 7.62965 20.5273 7.61687 20.5332C7.60664 20.5383 7.59642 20.5433 7.58619 20.5475C6.60628 21.0228 5.39972 21.8131 3.97076 23.1031C3.95968 23.1132 3.9486 23.1233 3.93667 23.1334C3.92815 23.141 3.91963 23.1486 3.91111 23.1561C2.75056 24.211 1.44771 25.5895 0 27.401C1.25087 27.3564 3.77052 27.1803 6.18279 26.502C6.19387 26.4986 6.20495 26.4961 6.21603 26.4927C6.23222 26.4877 6.24926 26.4835 6.26545 26.4784C7.83671 26.0285 9.35344 25.362 10.439 24.3787C10.4467 24.3711 10.4552 24.3644 10.4637 24.3577C10.4748 24.3475 10.4867 24.3383 10.4978 24.3282C11.1002 23.7679 11.5595 23.1047 11.8151 22.3228C11.8586 22.1897 11.8961 22.0541 11.9276 21.9142C11.9506 21.8131 11.9745 21.7128 11.9907 21.6075C11.9787 21.578 11.9643 21.5494 11.9515 21.5199C11.77 21.1011 11.5254 20.7085 11.2732 20.4127ZM10.0965 20.3428C10.0973 20.3428 10.0973 20.3428 10.0965 20.3428L10.0956 20.3436C10.0965 20.3436 10.0965 20.3428 10.0965 20.3428ZM10.099 20.3411C10.0982 20.342 10.0982 20.342 10.0973 20.3428H10.0965C10.0973 20.342 10.0982 20.342 10.099 20.3411ZM10.4995 21.4676C10.3998 21.5502 10.2839 21.6429 10.1553 21.7432C10.0547 21.8215 9.94649 21.9041 9.83317 21.9892C9.5639 22.1922 9.26567 22.4096 8.96829 22.6236C8.95636 22.6321 8.94443 22.6413 8.93165 22.6498C8.92228 22.6557 8.91376 22.6624 8.90523 22.6691C8.01224 23.3103 7.15077 23.901 7.15077 23.901C7.15077 23.901 8.00713 21.8476 7.87761 21.8738C6.69235 22.2024 5.09382 23.5505 4.50332 24.0745C4.49224 24.0847 4.47946 24.0956 4.46923 24.1049C4.45986 24.1133 4.45304 24.1192 4.44452 24.1268C4.33545 24.2245 4.2707 24.2852 4.2707 24.2852C4.2707 24.2852 4.32267 24.2102 4.41896 24.0821C4.42492 24.0737 4.4343 24.0628 4.44026 24.0535C4.44964 24.0417 4.45986 24.0274 4.46923 24.0147C4.92596 23.4123 6.12059 21.9302 7.46179 21.0253C7.55552 20.9621 7.6501 20.9073 7.74468 20.8559C7.75406 20.8509 7.76428 20.8433 7.77365 20.8382C7.78644 20.8315 7.79922 20.8256 7.81285 20.8189C8.57718 20.4237 9.32446 20.4068 9.8894 20.529C10.0496 20.5636 10.1936 20.6082 10.3197 20.6596C10.4722 20.7211 10.5966 20.7902 10.6887 20.8585C10.8122 20.9503 10.877 21.0396 10.8616 21.1036C10.8472 21.1601 10.7117 21.2915 10.4995 21.4676ZM15.6785 21.8485C15.578 22.4796 15.4399 23.2236 15.2661 23.8631C15.6947 23.6406 16.252 23.2918 16.7965 22.7997C16.6797 22.3751 16.5519 21.985 16.4301 21.6463C16.1497 21.7255 15.8984 21.7929 15.6785 21.8485ZM11.9208 19.9763C12.2497 20.3748 12.5181 20.8492 12.6902 21.2486C12.8129 21.1845 12.9254 21.1146 13.0294 21.043C12.8462 20.47 12.5394 20.0614 12.2446 19.7833C12.1406 19.8415 12.0324 19.9055 11.9208 19.9763ZM21.5307 18.9559C21.5017 18.6096 21.4549 18.2515 21.391 17.8825C20.7954 18.2852 19.7132 18.9644 18.3507 19.63C18.1811 19.7126 18.0073 19.7951 17.8292 19.8769C17.5387 20.01 17.237 20.1414 16.9268 20.2687C16.8655 20.2939 16.8058 20.3192 16.7445 20.3436C16.7914 20.4464 16.845 20.5695 16.9038 20.7102C16.949 20.8189 16.9976 20.9402 17.0478 21.0691C17.0913 21.1812 17.1365 21.2991 17.1816 21.4255C17.2626 21.6479 17.3444 21.8898 17.4245 22.1501C17.4688 22.2934 17.5114 22.4433 17.554 22.5967C17.5932 22.7408 17.6315 22.8891 17.6682 23.0399C17.8642 23.853 18.0082 24.7655 18.0082 25.6982C18.0082 25.9046 17.9698 26.111 17.9553 26.3183C19.115 25.5507 21.4838 23.526 21.5554 19.7859C21.5563 19.7277 21.5622 19.6738 21.5622 19.6157C21.5622 19.5348 21.558 19.4505 21.5546 19.3671C21.5512 19.2323 21.5426 19.0958 21.5307 18.9559Z"
          fill="white"/>
</svg>
