<!--
  - /***
  -  ** █ ---------------------------------------------------------------------------------------------------------------------
  -  ** █ ░FRAMEWORK                                  2023-12-01 23:19:27
  -  ** █ ░█▀▀█ █▀▀█ █▀▀▄ █▀▀ ░█─░█ ─▀─ █▀▀▀ █▀▀▀ █▀▀ [App\Modules\Account\Views\Processes\Creator\deny.php]
  -  ** █ ░█─── █──█ █──█ █▀▀ ░█▀▀█ ▀█▀ █─▀█ █─▀█ ▀▀█ Copyright 2023 - CloudEngine S.A.S., Inc. <admin@cgine.com>
  -  ** █ ░█▄▄█ ▀▀▀▀ ▀▀▀─ ▀▀▀ ░█─░█ ▀▀▀ ▀▀▀▀ ▀▀▀▀ ▀▀▀ Para obtener información completa sobre derechos de autor y licencia,
  -  ** █                                             consulte la LICENCIA archivo que se distribuyó con este código fuente.
  -  ** █ ---------------------------------------------------------------------------------------------------------------------
  -  ** █ EL SOFTWARE SE PROPORCIONA -TAL CUAL-, SIN GARANTÍA DE NINGÚN TIPO, EXPRESA O
  -  ** █ IMPLÍCITA, INCLUYENDO PERO NO LIMITADO A LAS GARANTÍAS DE COMERCIABILIDAD,
  -  ** █ APTITUD PARA UN PROPÓSITO PARTICULAR Y NO INFRACCIÓN. EN NINGÚN CASO SERÁ
  -  ** █ LOS AUTORES O TITULARES DE LOS DERECHOS DE AUTOR SERÁN RESPONSABLES DE CUALQUIER
  -  ** █ RECLAMO, DAÑOS U OTROS RESPONSABILIDAD, YA SEA EN UNA ACCIÓN DE CONTRATO,
  -  ** █ AGRAVIO O DE OTRO MODO, QUE SURJA DESDE, FUERA O EN RELACIÓN CON EL SOFTWARE
  -  ** █ O EL USO U OTROS NEGOCIACIONES EN EL SOFTWARE.
  -  ** █ ---------------------------------------------------------------------------------------------------------------------
  -  ** █ @Author Jose Alexis Correa Valencia <jalexiscv@gmail.com>
  -  ** █ @link https://www.codehiggs.com
  -  ** █ @Version 1.5.0 @since PHP 7, PHP 8
  -  ** █ ---------------------------------------------------------------------------------------------------------------------
  -  ** █ Datos recibidos desde el controlador - @ModuleController
  -  ** █ ---------------------------------------------------------------------------------------------------------------------
  -  ** █ @authentication, @request, @dates, @parent, @component, @view, @oid, @views, @prefix
  -  ** █ ---------------------------------------------------------------------------------------------------------------------
  -  ***/
  -->

<svg width="187" height="32" viewBox="0 0 187 32" fill="none" xmlns="http://www.w3.org/2000/svg">
    <g clip-path="url(#clip0)">
        <path d="M30.6875 28.1342C30.6875 28.0865 30.3057 25.3184 29.2081 21.2856C30.4489 21.1424 31.4273 20.0925 31.4273 18.8039C31.4273 17.4198 30.3057 16.2744 28.8978 16.2744C28.5399 16.2744 28.1342 16.3699 27.824 16.5369C27.2513 14.7233 26.5354 12.7427 25.7002 10.8337C23.3378 5.36913 20.1641 3.43624 17.9925 2.79195L16.5369 1.38404L16.4176 2.02834L15.7972 0.835198L15.6779 1.64653L15.0336 0.477256L14.962 1.26473L14.1506 0L14.604 2.52946C12.5996 2.81581 8.56674 4.24758 5.72707 10.8337C4.89187 12.7427 4.17599 14.6995 3.60328 16.5369C3.29306 16.3699 2.8874 16.2744 2.52946 16.2744C1.12155 16.2744 0 17.4198 0 18.8039C0 20.0925 0.978374 21.1663 2.21924 21.2856C1.12155 25.3184 0.739746 28.0865 0.739746 28.1342L0.715884 28.3013C0.668158 28.8262 0.763609 28.9217 1.16928 29.0887C4.41462 30.5682 9.68829 32 15.7256 32C21.7629 32 27.0365 30.5921 30.2819 29.1126C30.6875 28.9217 30.783 28.8262 30.7353 28.3013L30.6875 28.1342ZM15.6779 27.0843C11.8121 27.132 8.61447 24.7218 8.61447 21.7867C8.61447 20.2356 9.49739 17.9687 10.8814 16.2506C9.59284 15.6779 8.70992 14.4608 8.70992 12.9575C8.70992 10.953 10.3087 9.35421 12.3132 9.35421C13.912 9.35421 15.296 10.428 15.7256 11.8359C16.2028 10.3803 17.5391 9.35421 19.138 9.35421C21.1424 9.35421 22.7412 10.953 22.7412 12.9575C22.7412 14.4131 21.8583 15.7017 20.5697 16.2506C21.9538 18.0164 22.8367 20.2356 22.8367 21.7629C22.8128 24.6741 19.6152 27.0843 15.6779 27.0843Z"
              fill="#959DA5"/>
        <path d="M13.0037 14.3892C13.3595 14.3892 13.648 14.1007 13.648 13.7449C13.648 13.389 13.3595 13.1006 13.0037 13.1006C12.6478 13.1006 12.3594 13.389 12.3594 13.7449C12.3594 14.1007 12.6478 14.3892 13.0037 14.3892Z"
              fill="#959DA5"/>
        <path d="M18.4216 14.3892C18.7775 14.3892 19.0659 14.1007 19.0659 13.7449C19.0659 13.389 18.7775 13.1006 18.4216 13.1006C18.0658 13.1006 17.7773 13.389 17.7773 13.7449C17.7773 14.1007 18.0658 14.3892 18.4216 14.3892Z"
              fill="#959DA5"/>
        <path d="M15.2242 18.6369C15.1764 18.4698 14.7231 17.8733 13.6731 18.1596C12.6231 18.446 12.7424 20.2834 13.6731 20.4027C13.6731 20.4027 13.1481 20.2357 13.172 19.5914C13.1958 18.8994 13.6492 18.613 14.2219 18.8994C14.8662 19.2096 15.3196 18.9709 15.2242 18.6369Z"
              fill="#959DA5"/>
        <path d="M16.2021 18.6369C16.2499 18.4698 16.7033 17.8733 17.7532 18.1596C18.8032 18.446 18.6839 20.2834 17.7532 20.4027C17.7532 20.4027 18.2782 20.2357 18.2543 19.5914C18.2066 18.7323 17.4192 18.78 17.2044 18.8994C16.5601 19.2096 16.1067 18.9709 16.2021 18.6369Z"
              fill="#959DA5"/>
        <path d="M59.0135 27.2508C57.8204 28.4917 55.6727 30.4007 51.0433 30.4007C46.4139 30.4007 41.9277 27.6088 41.9277 21.476C41.9277 15.3433 46.4378 12.5752 51.2104 12.5752C55.9829 12.5752 57.9874 15.0808 58.4885 15.5819L54.7421 18.7079C54.3602 18.3261 53.2387 17.2046 51.2342 17.2046C49.2297 17.2046 47.6548 18.7079 47.6548 21.476C47.6548 24.2441 49.2059 25.7475 51.2104 25.7475C53.2148 25.7475 53.5489 25.127 53.5489 25.127V23.8862H50.924V19.5909H59.0374V27.2508H59.0135Z"
              fill="#959DA5"/>
        <path d="M67.2217 30.4248C62.9503 30.4248 59.8242 28.0147 59.8242 23.7671C59.8242 19.5195 62.9503 17.1094 67.2217 17.1094C71.4931 17.1094 74.6192 19.5195 74.6192 23.7671C74.6192 28.0147 71.4931 30.4248 67.2217 30.4248ZM67.2217 21.4763C66.1001 21.4763 65.4558 22.3592 65.4558 23.6716C65.4558 24.9841 66.0763 25.8432 67.2217 25.8432C68.3671 25.8432 68.9875 24.9602 68.9875 23.6716C68.9875 22.3592 68.3671 21.4763 67.2217 21.4763Z"
              fill="#959DA5"/>
        <path d="M85.1683 22.4546H84.9297C84.6672 22.4546 84.0468 22.0967 83.307 22.0967C82.5673 22.0967 81.8753 22.4546 81.5173 22.9319C81.1594 23.3853 80.9923 24.125 80.9923 25.1273V30.0907H75.5039V17.4435H81.0401L80.9685 19.0184C81.8037 17.6344 82.8059 17.1094 84.1661 17.1094C85.049 17.1094 85.4308 17.3241 85.4308 17.3241L85.1683 22.4546Z"
              fill="#959DA5"/>
        <path d="M89.2235 16.8941C87.4099 16.8941 86.2168 15.8441 86.2168 14.2215C86.2168 12.5988 87.4099 11.5488 89.2235 11.5488C91.0609 11.5488 92.2302 12.5988 92.2302 14.2215C92.2302 15.8441 91.0371 16.8941 89.2235 16.8941ZM91.9439 30.0902H86.4554V17.4429H91.9439V30.0902Z"
              fill="#959DA5"/>
        <path d="M99.104 30.0904H93.377V12.9092H99.104V30.0904Z" fill="#959DA5"/>
        <path d="M105.786 30.0904H100.059V12.9092H105.786V30.0904Z" fill="#959DA5"/>
        <path d="M120.102 30.0907H114.638L114.518 28.993C113.898 29.6135 112.896 30.4248 111.249 30.4248C108.863 30.4248 106.357 29.3748 106.357 26.2488C106.357 23.1228 109.531 22.3831 111.392 22.3115L114.375 22.1921V22.0728C114.375 21.3808 113.779 20.8797 112.275 20.8797C110.772 20.8797 109.126 21.5001 108.266 22.0012L106.882 18.4457C108.123 17.873 110.39 17.1094 113.015 17.1094C115.64 17.1094 117.215 17.6105 118.337 18.6127C119.458 19.615 120.102 20.999 120.102 23.1228V30.0907ZM114.375 24.9125L113.254 24.9841C112.657 25.008 112.013 25.2466 112.013 25.9863C112.013 26.7261 112.633 26.9886 113.254 26.9886C113.874 26.9886 114.375 26.6068 114.375 26.4875V24.9125Z"
              fill="#959DA5"/>
        <path d="M132.63 28.9444C131.246 29.9943 129.527 30.4238 127.523 30.4238C125.518 30.4238 123.204 29.875 120.865 28.1092L123.371 23.8616C124.97 25.2218 127.237 25.7467 127.976 25.7467C128.74 25.7467 129.265 25.532 129.265 25.0309C129.265 24.5297 128.645 24.3388 128.024 24.1241C127.404 23.957 126.02 23.5036 125.518 23.3127C125.017 23.1218 124.015 22.7877 123.132 22.0241C122.249 21.2605 121.557 20.2106 121.557 18.3493C121.557 16.4641 122.536 15.0085 123.562 14.1733C124.612 13.2904 126.354 12.6699 128.645 12.6699C130.935 12.6699 133.298 13.5051 134.801 14.746L132.653 18.7549C131.341 17.6095 129.456 17.1084 128.549 17.1084C127.642 17.1084 127.141 17.2754 127.141 17.8004C127.141 18.3015 127.952 18.4686 128.334 18.6118C128.74 18.7311 129.79 19.0413 130.387 19.2322C130.983 19.4231 132.391 19.9242 133.274 20.6878C134.157 21.4276 134.897 22.6207 134.897 24.4581C134.897 26.2479 134.014 27.8705 132.63 28.9444Z"
              fill="#959DA5"/>
        <path d="M144.919 21.4998H142.294V24.9837C142.294 25.7474 142.604 25.8667 143.248 25.8667C143.869 25.8667 144.465 25.6996 144.465 25.6996L144.704 30.0188C144.203 30.1381 142.819 30.4483 141.196 30.4483C139.574 30.4483 138.452 30.0188 137.688 29.3506C136.925 28.6586 136.567 27.5132 136.567 25.6519V21.4998H134.896V17.4431H136.567V12.9092H142.294V17.4431H144.919V21.4998V21.4998Z"
              fill="#959DA5"/>
        <path d="M158.759 30.0907H153.509L153.39 28.993C152.769 29.6135 151.767 30.4248 150.12 30.4248C147.734 30.4248 145.229 29.3748 145.229 26.2488C145.229 23.1228 148.426 22.3831 150.287 22.3115L153.27 22.1921V22.0728C153.27 21.3808 152.65 20.8797 151.146 20.8797C149.643 20.8797 147.997 21.5001 147.114 22.0012L145.73 18.4457C146.971 17.873 149.237 17.1094 151.862 17.1094C154.487 17.1094 155.967 17.6105 157.088 18.6127C158.21 19.615 158.759 20.999 158.759 23.1228V30.0907V30.0907ZM153.27 24.9125L152.125 24.9841C151.528 25.008 150.86 25.2466 150.86 25.9863C150.86 26.7261 151.504 26.9886 152.125 26.9886C152.745 26.9886 153.032 26.6068 153.27 26.4875V24.9125Z"
              fill="#959DA5"/>
        <path d="M171.168 29.2555C171.168 29.2555 169.665 30.4248 166.539 30.4248C162.769 30.4248 159.523 28.0147 159.523 23.7671C159.523 19.5195 162.793 17.1094 166.539 17.1094C169.427 17.1094 171.049 18.1116 171.049 18.1116L170.166 22.3831C169.665 22.0012 168.663 21.5001 167.398 21.5001C166.133 21.5001 165.06 22.2399 165.06 23.6955C165.06 25.1273 166.014 25.867 167.517 25.867C169.021 25.867 170.142 24.9841 170.142 24.9841L171.168 29.2555Z"
              fill="#959DA5"/>
        <path d="M186.823 30.0904H180.428L178.424 26.2246L177.588 27.1314V30.0904H171.861V12.9092H177.588V20.7362L180.285 17.4431H186.68L182.313 22.1441L186.823 30.0904Z"
              fill="#959DA5"/>
    </g>
    <defs>
        <clipPath id="clip0">
            <rect width="186.822" height="32" fill="white"/>
        </clipPath>
    </defs>
</svg>
