<!--
  - /***
  -  ** █ ---------------------------------------------------------------------------------------------------------------------
  -  ** █ ░FRAMEWORK                                  2023-12-01 23:19:27
  -  ** █ ░█▀▀█ █▀▀█ █▀▀▄ █▀▀ ░█─░█ ─▀─ █▀▀▀ █▀▀▀ █▀▀ [App\Modules\Account\Views\Processes\Creator\deny.php]
  -  ** █ ░█─── █──█ █──█ █▀▀ ░█▀▀█ ▀█▀ █─▀█ █─▀█ ▀▀█ Copyright 2023 - CloudEngine S.A.S., Inc. <admin@cgine.com>
  -  ** █ ░█▄▄█ ▀▀▀▀ ▀▀▀─ ▀▀▀ ░█─░█ ▀▀▀ ▀▀▀▀ ▀▀▀▀ ▀▀▀ Para obtener información completa sobre derechos de autor y licencia,
  -  ** █                                             consulte la LICENCIA archivo que se distribuyó con este código fuente.
  -  ** █ ---------------------------------------------------------------------------------------------------------------------
  -  ** █ EL SOFTWARE SE PROPORCIONA -TAL CUAL-, SIN GARANTÍA DE NINGÚN TIPO, EXPRESA O
  -  ** █ IMPLÍCITA, INCLUYENDO PERO NO LIMITADO A LAS GARANTÍAS DE COMERCIABILIDAD,
  -  ** █ APTITUD PARA UN PROPÓSITO PARTICULAR Y NO INFRACCIÓN. EN NINGÚN CASO SERÁ
  -  ** █ LOS AUTORES O TITULARES DE LOS DERECHOS DE AUTOR SERÁN RESPONSABLES DE CUALQUIER
  -  ** █ RECLAMO, DAÑOS U OTROS RESPONSABILIDAD, YA SEA EN UNA ACCIÓN DE CONTRATO,
  -  ** █ AGRAVIO O DE OTRO MODO, QUE SURJA DESDE, FUERA O EN RELACIÓN CON EL SOFTWARE
  -  ** █ O EL USO U OTROS NEGOCIACIONES EN EL SOFTWARE.
  -  ** █ ---------------------------------------------------------------------------------------------------------------------
  -  ** █ @Author Jose Alexis Correa Valencia <jalexiscv@gmail.com>
  -  ** █ @link https://www.codehiggs.com
  -  ** █ @Version 1.5.0 @since PHP 7, PHP 8
  -  ** █ ---------------------------------------------------------------------------------------------------------------------
  -  ** █ Datos recibidos desde el controlador - @ModuleController
  -  ** █ ---------------------------------------------------------------------------------------------------------------------
  -  ** █ @authentication, @request, @dates, @parent, @component, @view, @oid, @views, @prefix
  -  ** █ ---------------------------------------------------------------------------------------------------------------------
  -  ***/
  -->

<svg width="31" height="34" viewBox="0 0 31 34" fill="none" xmlns="http://www.w3.org/2000/svg">
    <path d="M25.7993 4.41719C22.9502 1.56878 19.1625 0 15.1215 0C6.79202 0.00556364 0.0107901 6.79084 0.00472066 15.1243L0 17.685L1.9901 16.3286C3.34391 15.4062 4.91185 14.9186 6.52514 14.9186C7.00664 14.9186 7.49287 14.9626 7.97 15.0496C9.4742 15.3236 10.8226 16.0046 11.9144 17.0279C12.1646 16.4766 12.4592 15.9408 12.8068 15.43C12.9495 15.2204 13.1002 15.0188 13.2561 14.822C11.8806 13.6604 10.2283 12.8786 8.42487 12.5502C7.79617 12.4359 7.15602 12.3781 6.52193 12.3781C5.20858 12.3781 3.92911 12.619 2.71017 13.0946C3.69712 7.04795 8.94903 2.54477 15.1324 2.54022C18.4839 2.54022 21.6341 3.84498 24.0034 6.21357C25.8935 8.10352 27.1027 10.4671 27.5198 13.074C26.3005 12.5978 25.0158 12.354 23.6947 12.3487L23.5096 12.3479C23.3742 12.3506 23.2398 12.3535 23.1081 12.3611C22.8773 12.3729 22.6481 12.3938 22.421 12.4201C22.3532 12.4275 22.2866 12.4381 22.2195 12.4474C22.0568 12.4693 21.8948 12.4939 21.7344 12.5227C21.6633 12.5357 21.5925 12.5501 21.522 12.5642C21.3586 12.5974 21.1966 12.6343 21.0363 12.6748C20.9783 12.6896 20.9203 12.7035 20.8628 12.719C20.6603 12.7738 20.4597 12.8343 20.2619 12.9006C20.2501 12.9046 20.2378 12.908 20.226 12.9119C19.7769 13.0651 19.3416 13.249 18.9208 13.4606C18.9093 13.4665 18.898 13.4726 18.8862 13.4785C18.6893 13.5783 18.4964 13.685 18.3064 13.7973C18.2909 13.8066 18.275 13.816 18.2594 13.8255C17.2655 14.4213 16.3761 15.1854 15.6267 16.0981C15.5957 16.1357 15.5649 16.1732 15.5342 16.2113C15.3717 16.4149 15.2133 16.6231 15.0648 16.8411C14.9385 17.0266 14.8214 17.2159 14.7077 17.4073C14.6819 17.4509 14.6565 17.4951 14.6314 17.5391C14.5278 17.7193 14.4289 17.9019 14.3367 18.0867C14.3314 18.0973 14.3262 18.1073 14.321 18.1179C14.1069 18.5504 13.9251 18.9949 13.7735 19.4486C13.7735 19.449 13.7734 19.4491 13.7734 19.4496V19.4501C13.4021 20.5629 13.2221 21.7297 13.2411 22.9104C13.2416 22.9573 13.2416 23.0041 13.2433 23.0512C13.2458 23.1429 13.2504 23.2349 13.2556 23.3272C13.2597 23.4005 13.2644 23.4733 13.2698 23.5462C13.2755 23.6239 13.2818 23.7018 13.2897 23.7797C13.2989 23.8746 13.3102 23.9693 13.3222 24.0643C13.3296 24.1246 13.3362 24.1853 13.3451 24.2453C13.3677 24.4033 13.393 24.5609 13.4229 24.7186C13.9351 27.4264 15.4605 29.7872 17.7185 31.3666L18.0073 31.5512L18.0097 31.5455C19.2925 32.3795 20.7638 32.9266 22.2868 33.1333L22.4929 33.1611L24.0245 30.7032L23.4738 30.6882C19.2362 30.5719 15.7889 27.0283 15.7889 22.7888C15.7889 18.6161 19.0499 15.151 23.2113 14.8999L23.4747 14.8898C25.1616 14.8472 26.8238 15.3454 28.2348 16.306L30.2158 17.6543L30.22 15.1068C30.2232 11.0674 28.6532 7.271 25.7993 4.41719Z"
          fill="#E0225C"/>
</svg>
