<!--
  - /***
  -  ** █ ---------------------------------------------------------------------------------------------------------------------
  -  ** █ ░FRAMEWORK                                  2023-12-01 23:19:27
  -  ** █ ░█▀▀█ █▀▀█ █▀▀▄ █▀▀ ░█─░█ ─▀─ █▀▀▀ █▀▀▀ █▀▀ [App\Modules\Account\Views\Processes\Creator\deny.php]
  -  ** █ ░█─── █──█ █──█ █▀▀ ░█▀▀█ ▀█▀ █─▀█ █─▀█ ▀▀█ Copyright 2023 - CloudEngine S.A.S., Inc. <admin@cgine.com>
  -  ** █ ░█▄▄█ ▀▀▀▀ ▀▀▀─ ▀▀▀ ░█─░█ ▀▀▀ ▀▀▀▀ ▀▀▀▀ ▀▀▀ Para obtener información completa sobre derechos de autor y licencia,
  -  ** █                                             consulte la LICENCIA archivo que se distribuyó con este código fuente.
  -  ** █ ---------------------------------------------------------------------------------------------------------------------
  -  ** █ EL SOFTWARE SE PROPORCIONA -TAL CUAL-, SIN GARANTÍA DE NINGÚN TIPO, EXPRESA O
  -  ** █ IMPLÍCITA, INCLUYENDO PERO NO LIMITADO A LAS GARANTÍAS DE COMERCIABILIDAD,
  -  ** █ APTITUD PARA UN PROPÓSITO PARTICULAR Y NO INFRACCIÓN. EN NINGÚN CASO SERÁ
  -  ** █ LOS AUTORES O TITULARES DE LOS DERECHOS DE AUTOR SERÁN RESPONSABLES DE CUALQUIER
  -  ** █ RECLAMO, DAÑOS U OTROS RESPONSABILIDAD, YA SEA EN UNA ACCIÓN DE CONTRATO,
  -  ** █ AGRAVIO O DE OTRO MODO, QUE SURJA DESDE, FUERA O EN RELACIÓN CON EL SOFTWARE
  -  ** █ O EL USO U OTROS NEGOCIACIONES EN EL SOFTWARE.
  -  ** █ ---------------------------------------------------------------------------------------------------------------------
  -  ** █ @Author Jose Alexis Correa Valencia <jalexiscv@gmail.com>
  -  ** █ @link https://www.codehiggs.com
  -  ** █ @Version 1.5.0 @since PHP 7, PHP 8
  -  ** █ ---------------------------------------------------------------------------------------------------------------------
  -  ** █ Datos recibidos desde el controlador - @ModuleController
  -  ** █ ---------------------------------------------------------------------------------------------------------------------
  -  ** █ @authentication, @request, @dates, @parent, @component, @view, @oid, @views, @prefix
  -  ** █ ---------------------------------------------------------------------------------------------------------------------
  -  ***/
  -->

<svg width="34" height="34" viewBox="0 0 34 34" fill="none" xmlns="http://www.w3.org/2000/svg">
    <g opacity="0.5">
        <path d="M14.2191 10.7373V23.259" stroke="white" stroke-width="2" stroke-linecap="round"/>
        <path fill-rule="evenodd" clip-rule="evenodd"
              d="M14.2159 6.56543C15.3685 6.56543 16.3028 7.49991 16.3028 8.65239C16.3028 9.80486 15.3685 10.7393 14.2159 10.7393C13.0633 10.7393 12.1289 9.80486 12.1289 8.65239C12.1289 7.49991 13.0633 6.56543 14.2159 6.56543Z"
              stroke="white" stroke-width="2" stroke-linecap="round"/>
        <path fill-rule="evenodd" clip-rule="evenodd"
              d="M14.2159 23.2622C15.3685 23.2622 16.3028 24.1971 16.3028 25.3492C16.3028 26.5018 15.3685 27.4361 14.2159 27.4361C13.0633 27.4361 12.1289 26.5018 12.1289 25.3492C12.1289 24.1971 13.0633 23.2622 14.2159 23.2622Z"
              stroke="white" stroke-width="2" stroke-linecap="round"/>
        <path d="M14.2267 21.8724C14.2145 21.2043 14.8601 19.1299 15.9841 18.3902C16.6973 17.9209 17.6938 17.5126 19.0906 17.1612C20.5803 16.7864 21.3383 15.9218 21.6653 15.1128"
              stroke="white" stroke-width="2" stroke-linecap="round"/>
        <path fill-rule="evenodd" clip-rule="evenodd"
              d="M21.8682 10.7378C23.0208 10.7378 23.9552 11.6723 23.9552 12.8247C23.9552 13.9772 23.0208 14.9117 21.8682 14.9117C20.7156 14.9117 19.7812 13.9772 19.7812 12.8247C19.7812 11.6723 20.7156 10.7378 21.8682 10.7378Z"
              stroke="white" stroke-width="2" stroke-linecap="round"/>
        <path d="M20.315 32.6561C19.2455 32.8815 18.1366 33 17 33C8.16344 33 0.999999 25.8366 0.999999 17C0.999999 8.16344 8.16344 1 17 1C25.8366 1 33 8.16344 33 17C33 17.9557 32.9162 18.8919 32.7556 19.8015"
              stroke="white" stroke-width="2" stroke-linecap="round" stroke-linejoin="round"/>
    </g>
    <path d="M22.5 24H23.5H31.5" stroke="white" stroke-width="2" stroke-linecap="round" stroke-linejoin="round"/>
    <path d="M25 24V23C25 22.7348 25.1054 22.4804 25.2929 22.2929C25.4804 22.1054 25.7348 22 26 22H28C28.2652 22 28.5196 22.1054 28.7071 22.2929C28.8946 22.4804 29 22.7348 29 23V24M30.5 24V31C30.5 31.2652 30.3946 31.5196 30.2071 31.7071C30.0196 31.8946 29.7652 32 29.5 32H24.5C24.2348 32 23.9804 31.8946 23.7929 31.7071C23.6054 31.5196 23.5 31.2652 23.5 31V24H30.5Z"
          stroke="white" stroke-width="2" stroke-linecap="round" stroke-linejoin="round"/>
</svg>
