<!--
  - /***
  -  ** █ ---------------------------------------------------------------------------------------------------------------------
  -  ** █ ░FRAMEWORK                                  2023-12-01 23:19:27
  -  ** █ ░█▀▀█ █▀▀█ █▀▀▄ █▀▀ ░█─░█ ─▀─ █▀▀▀ █▀▀▀ █▀▀ [App\Modules\Account\Views\Processes\Creator\deny.php]
  -  ** █ ░█─── █──█ █──█ █▀▀ ░█▀▀█ ▀█▀ █─▀█ █─▀█ ▀▀█ Copyright 2023 - CloudEngine S.A.S., Inc. <admin@cgine.com>
  -  ** █ ░█▄▄█ ▀▀▀▀ ▀▀▀─ ▀▀▀ ░█─░█ ▀▀▀ ▀▀▀▀ ▀▀▀▀ ▀▀▀ Para obtener información completa sobre derechos de autor y licencia,
  -  ** █                                             consulte la LICENCIA archivo que se distribuyó con este código fuente.
  -  ** █ ---------------------------------------------------------------------------------------------------------------------
  -  ** █ EL SOFTWARE SE PROPORCIONA -TAL CUAL-, SIN GARANTÍA DE NINGÚN TIPO, EXPRESA O
  -  ** █ IMPLÍCITA, INCLUYENDO PERO NO LIMITADO A LAS GARANTÍAS DE COMERCIABILIDAD,
  -  ** █ APTITUD PARA UN PROPÓSITO PARTICULAR Y NO INFRACCIÓN. EN NINGÚN CASO SERÁ
  -  ** █ LOS AUTORES O TITULARES DE LOS DERECHOS DE AUTOR SERÁN RESPONSABLES DE CUALQUIER
  -  ** █ RECLAMO, DAÑOS U OTROS RESPONSABILIDAD, YA SEA EN UNA ACCIÓN DE CONTRATO,
  -  ** █ AGRAVIO O DE OTRO MODO, QUE SURJA DESDE, FUERA O EN RELACIÓN CON EL SOFTWARE
  -  ** █ O EL USO U OTROS NEGOCIACIONES EN EL SOFTWARE.
  -  ** █ ---------------------------------------------------------------------------------------------------------------------
  -  ** █ @Author Jose Alexis Correa Valencia <jalexiscv@gmail.com>
  -  ** █ @link https://www.codehiggs.com
  -  ** █ @Version 1.5.0 @since PHP 7, PHP 8
  -  ** █ ---------------------------------------------------------------------------------------------------------------------
  -  ** █ Datos recibidos desde el controlador - @ModuleController
  -  ** █ ---------------------------------------------------------------------------------------------------------------------
  -  ** █ @authentication, @request, @dates, @parent, @component, @view, @oid, @views, @prefix
  -  ** █ ---------------------------------------------------------------------------------------------------------------------
  -  ***/
  -->

<svg width="34" height="32" viewBox="0 0 34 32" fill="none" xmlns="http://www.w3.org/2000/svg">
    <path d="M1.02559 19.54C1.07507 19.54 1.12453 19.54 1.12453 19.4906C1.12453 19.4411 1.22347 19.4411 1.32241 19.4411C1.52029 19.3917 1.71817 19.3917 1.91605 19.3917C2.01499 19.3917 2.11394 19.3917 2.21288 19.3422H2.26234C2.80651 19.2928 3.40015 19.1939 3.94432 19.0456C4.09273 18.9961 4.24114 18.8478 4.29061 18.6995C4.24114 18.6995 4.29061 18.6995 4.29061 18.6995L4.68637 18.6006C4.48849 17.1667 4.58743 15.6833 4.88425 14.2495C5.23054 12.8156 5.82418 11.4311 6.6157 10.195L6.31887 9.89835V9.84891C6.31887 9.70058 6.26941 9.5028 6.17047 9.40391C5.72524 9.00835 5.28001 8.71169 4.78531 8.41502C4.68637 8.36558 4.58743 8.31613 4.48849 8.26669C4.29061 8.1678 4.1422 8.06891 3.94432 7.97002C3.89485 7.92058 3.84538 7.92058 3.79591 7.87113C3.74644 7.82169 3.79591 7.82169 3.79591 7.77224C3.35068 7.42613 3.25174 6.8328 3.59803 6.3878C3.74644 6.19002 4.04326 6.04169 4.29061 6.04169C4.53796 6.04169 4.78531 6.14058 4.98319 6.28891L5.03266 6.33836C5.08213 6.3878 5.1316 6.43725 5.18107 6.43725C5.32948 6.58558 5.47789 6.73391 5.57683 6.88225C5.6263 6.98113 5.72524 7.03058 5.77471 7.08002C6.121 7.47558 6.56623 7.87113 7.01145 8.1678C7.11039 8.21724 7.20934 8.26669 7.30828 8.26669C7.35774 8.26669 7.45668 8.26669 7.50615 8.21724H7.55562L7.95138 8.46447C8.34714 8.06891 8.79237 7.67336 9.18813 7.2778C11.0185 5.84391 13.2941 4.95391 15.6192 4.70669L15.6687 4.31114V4.36058C15.8171 4.26169 15.8666 4.11336 15.916 3.96503C15.916 3.42114 15.916 2.87725 15.8171 2.28392V2.23447C15.8171 2.13558 15.7676 2.03669 15.7676 1.93781C15.7182 1.74003 15.7182 1.54225 15.6687 1.34447V1.04781C15.6192 0.553362 16.015 0.058918 16.5097 0.00947364C16.8065 -0.0399708 17.1033 0.108362 17.3507 0.355584C17.5485 0.553362 17.6475 0.800584 17.6475 1.04781V1.29503C17.6475 1.49281 17.598 1.69058 17.5485 1.88836C17.4991 1.98725 17.4991 2.08614 17.4991 2.18503V2.23447C17.4001 2.77836 17.4001 3.32225 17.4001 3.91558C17.4496 4.06391 17.4991 4.21225 17.6475 4.31114V4.41003L17.697 4.80558C18.2411 4.85502 18.7853 4.95391 19.3789 5.0528C21.704 5.54725 23.8312 6.78336 25.4637 8.51391L25.7605 8.31613H25.81C25.8595 8.31613 25.909 8.36558 26.0079 8.36558C26.1068 8.36558 26.2058 8.31613 26.3047 8.26669C26.7499 7.92058 27.1952 7.52502 27.5415 7.12947C27.5909 7.03058 27.6899 6.98113 27.7393 6.93169C27.8878 6.78336 27.9867 6.63502 28.1351 6.48669C28.1846 6.43725 28.234 6.43725 28.2835 6.3878C28.333 6.33836 28.333 6.33836 28.333 6.33836C28.5309 6.19002 28.7782 6.09113 29.0256 6.09113C29.3224 6.09113 29.5697 6.19002 29.7181 6.43725C30.015 6.88225 29.916 7.47558 29.5203 7.82169C29.4708 7.82169 29.4708 7.87113 29.4708 7.87113C29.4708 7.87113 29.3719 7.97002 29.3224 7.97002C29.174 8.06891 28.9761 8.1678 28.7782 8.26669C28.6793 8.31613 28.5803 8.36558 28.4814 8.41502C27.9867 8.71169 27.492 9.00835 27.0962 9.40391C26.9973 9.5028 26.8984 9.70058 26.9478 9.84891V9.79946L26.651 10.0961C26.7005 10.195 26.7499 10.2445 26.7994 10.3434C28.333 12.7661 28.9761 15.6339 28.5309 18.4522L28.9266 18.5511C28.9266 18.6006 28.9761 18.6006 28.9761 18.6006C29.0256 18.7489 29.174 18.8478 29.3224 18.9467C29.8665 19.095 30.4107 19.1939 31.0044 19.2433C31.1033 19.2433 31.2022 19.2433 31.3012 19.2928C31.4991 19.2928 31.6969 19.3422 31.8948 19.3422C31.9443 19.3422 31.9938 19.3917 32.0927 19.3917C32.1422 19.3917 32.1422 19.3917 32.1916 19.4411C32.7358 19.54 33.0821 20.0345 32.9832 20.5783C32.8842 21.0233 32.439 21.32 31.9938 21.2706C31.8948 21.2706 31.8453 21.2706 31.7464 21.2211C31.6969 21.2211 31.6969 21.2211 31.6969 21.1717C31.6969 21.1222 31.5485 21.1717 31.4991 21.1717C31.3012 21.1222 31.1033 21.0233 30.9549 20.9739C30.8559 20.9245 30.757 20.875 30.6581 20.875H30.6086C30.0644 20.6772 29.5697 20.5289 28.9761 20.43H28.9266C28.7782 20.43 28.6298 20.4795 28.5309 20.5783C28.4814 20.5783 28.4814 20.6278 28.4814 20.6278L28.0362 20.5783C27.2941 22.8528 25.909 24.88 23.9796 26.3633C23.5344 26.7094 23.1386 27.0061 22.6439 27.2533L22.8913 27.5994C22.8913 27.6489 22.8418 27.6489 22.8418 27.6489C22.7429 27.7972 22.7429 27.995 22.7924 28.1433C22.9902 28.6378 23.2871 29.1322 23.5839 29.5772V29.6267C23.6333 29.7256 23.6828 29.775 23.7818 29.8739C23.8807 29.9728 23.9796 30.1706 24.128 30.3683C24.1775 30.4178 24.1775 30.4672 24.227 30.5167C24.227 30.5167 24.227 30.5661 24.2765 30.5661C24.5238 31.0606 24.3259 31.6539 23.8807 31.9011C23.7818 31.9506 23.6333 32 23.5344 32C23.1386 32 22.7924 31.7528 22.5945 31.4067C22.5945 31.4067 22.5945 31.3572 22.545 31.3572C22.545 31.3078 22.4955 31.2583 22.4461 31.2089C22.3966 31.0111 22.2977 30.8628 22.2482 30.665L22.1492 30.3683C22.0008 29.8244 21.7535 29.33 21.5061 28.8356C21.4072 28.6872 21.2588 28.5883 21.1104 28.5389C21.0609 28.5389 21.0609 28.5389 21.0609 28.4894L20.863 28.0939C19.4779 28.6378 18.0432 28.885 16.5591 28.885C15.6687 28.885 14.7782 28.7861 13.8878 28.5389C13.3436 28.44 12.7994 28.2422 12.3047 28.0939L12.1069 28.44C12.0574 28.44 12.0574 28.44 12.0574 28.4894C11.909 28.5389 11.7606 28.6378 11.6616 28.7861C11.4143 29.2806 11.1669 29.775 11.0185 30.3189V30.3683L10.9196 30.665C10.8701 30.8628 10.8206 31.0606 10.7217 31.2089C10.6722 31.2583 10.6722 31.3078 10.6228 31.3572C10.6228 31.3572 10.6228 31.4067 10.5733 31.4067C10.3754 31.7528 10.0291 32 9.63336 32C9.48495 32 9.38601 31.9506 9.2376 31.9011C9.03972 31.8022 8.84184 31.6044 8.79237 31.3572C8.7429 31.11 8.7429 30.8628 8.84184 30.6156C8.84184 30.5661 8.89131 30.5661 8.89131 30.5661C8.89131 30.5167 8.94078 30.4672 8.99025 30.4178C9.08919 30.22 9.18813 30.0717 9.33654 29.9233C9.38601 29.8244 9.43548 29.775 9.53442 29.6761V29.5772C9.88071 29.1322 10.1281 28.6378 10.3259 28.1433C10.3754 27.995 10.3754 27.7972 10.2765 27.6489C10.2765 27.5994 10.227 27.5994 10.227 27.5994L10.3754 27.2039C7.85244 25.6711 5.92312 23.2978 5.03266 20.4795L4.6369 20.5289C4.58743 20.5289 4.58743 20.4795 4.58743 20.4795C4.48849 20.3806 4.34008 20.3311 4.19167 20.3311H4.1422C3.59803 20.43 3.05386 20.5783 2.55916 20.7761H2.50969C2.41076 20.8256 2.31182 20.875 2.21288 20.875C2.015 20.9739 1.86658 21.0728 1.6687 21.1222C1.61923 21.1222 1.56977 21.1717 1.47083 21.1717C1.42136 21.1717 1.42135 21.1717 1.37189 21.2211C1.27295 21.2706 1.22347 21.2706 1.12453 21.2706C0.679306 21.2706 0.283546 20.9739 0.135136 20.5783C0.184605 20.0345 0.580364 19.6389 1.02559 19.54ZM15.3224 18.0072L16.6581 18.65L17.9938 18.0072L18.3401 16.5733L17.4001 15.3867H15.916L14.9761 16.5733L15.3224 18.0072ZM7.2588 14.7933C7.01145 15.8317 6.96199 16.87 7.06093 17.9083L11.7606 16.5733C12.2058 16.4745 12.4531 16.0295 12.3542 15.5845C12.3047 15.4361 12.2553 15.3372 12.1563 15.2383L8.44608 11.8761C7.90191 12.7661 7.50615 13.755 7.2588 14.7933ZM9.93018 10.0467L13.9867 12.9145C14.333 13.1122 14.8277 13.0628 15.075 12.7167C15.174 12.6178 15.2235 12.5189 15.2235 12.3706L15.5203 7.37669C13.3436 7.62391 11.4143 8.56335 9.93018 10.0467ZM18.8842 7.52502L17.8948 7.32724L18.1422 12.2717C18.1422 12.7167 18.5379 13.0628 18.9832 13.0628C19.1316 13.0628 19.2305 13.0134 19.3789 12.9639L23.4849 10.0467C22.1987 8.81058 20.6157 7.92058 18.8842 7.52502ZM24.9196 11.8761L21.2588 15.1395C20.9125 15.4361 20.863 15.9306 21.1598 16.2767C21.2588 16.425 21.3577 16.4745 21.5556 16.5239L26.3542 17.9083C26.5026 15.8317 26.0079 13.7056 24.9196 11.8761ZM25.7605 20.2322L20.863 19.3917C20.4673 19.3917 20.0715 19.6389 20.022 20.0345C19.9726 20.1828 19.9726 20.3806 20.0715 20.5289L21.9514 25.0778C23.6828 23.9406 25.068 22.21 25.7605 20.2322ZM14.5309 26.3633C15.2235 26.5117 15.916 26.6106 16.6581 26.6106C17.697 26.6106 18.7853 26.4128 19.7747 26.1161L17.3507 21.7156C17.1033 21.4189 16.7076 21.32 16.3613 21.5178C16.2129 21.6167 16.1139 21.7156 15.9655 21.8639L13.591 26.1656C13.8878 26.215 14.1846 26.2645 14.5309 26.3633ZM8.49555 22.0617C9.2376 23.2483 10.2765 24.2867 11.4637 25.0283L13.3931 20.3806C13.492 19.985 13.2941 19.5895 12.9478 19.4411C12.7994 19.3917 12.651 19.3422 12.5026 19.3422L7.55562 20.1828C7.80297 20.875 8.09979 21.5178 8.49555 22.0617Z"
          fill="white"/>
</svg>
