<!--
  - /***
  -  ** █ ---------------------------------------------------------------------------------------------------------------------
  -  ** █ ░FRAMEWORK                                  2023-12-01 23:19:27
  -  ** █ ░█▀▀█ █▀▀█ █▀▀▄ █▀▀ ░█─░█ ─▀─ █▀▀▀ █▀▀▀ █▀▀ [App\Modules\Account\Views\Processes\Creator\deny.php]
  -  ** █ ░█─── █──█ █──█ █▀▀ ░█▀▀█ ▀█▀ █─▀█ █─▀█ ▀▀█ Copyright 2023 - CloudEngine S.A.S., Inc. <admin@cgine.com>
  -  ** █ ░█▄▄█ ▀▀▀▀ ▀▀▀─ ▀▀▀ ░█─░█ ▀▀▀ ▀▀▀▀ ▀▀▀▀ ▀▀▀ Para obtener información completa sobre derechos de autor y licencia,
  -  ** █                                             consulte la LICENCIA archivo que se distribuyó con este código fuente.
  -  ** █ ---------------------------------------------------------------------------------------------------------------------
  -  ** █ EL SOFTWARE SE PROPORCIONA -TAL CUAL-, SIN GARANTÍA DE NINGÚN TIPO, EXPRESA O
  -  ** █ IMPLÍCITA, INCLUYENDO PERO NO LIMITADO A LAS GARANTÍAS DE COMERCIABILIDAD,
  -  ** █ APTITUD PARA UN PROPÓSITO PARTICULAR Y NO INFRACCIÓN. EN NINGÚN CASO SERÁ
  -  ** █ LOS AUTORES O TITULARES DE LOS DERECHOS DE AUTOR SERÁN RESPONSABLES DE CUALQUIER
  -  ** █ RECLAMO, DAÑOS U OTROS RESPONSABILIDAD, YA SEA EN UNA ACCIÓN DE CONTRATO,
  -  ** █ AGRAVIO O DE OTRO MODO, QUE SURJA DESDE, FUERA O EN RELACIÓN CON EL SOFTWARE
  -  ** █ O EL USO U OTROS NEGOCIACIONES EN EL SOFTWARE.
  -  ** █ ---------------------------------------------------------------------------------------------------------------------
  -  ** █ @Author Jose Alexis Correa Valencia <jalexiscv@gmail.com>
  -  ** █ @link https://www.codehiggs.com
  -  ** █ @Version 1.5.0 @since PHP 7, PHP 8
  -  ** █ ---------------------------------------------------------------------------------------------------------------------
  -  ** █ Datos recibidos desde el controlador - @ModuleController
  -  ** █ ---------------------------------------------------------------------------------------------------------------------
  -  ** █ @authentication, @request, @dates, @parent, @component, @view, @oid, @views, @prefix
  -  ** █ ---------------------------------------------------------------------------------------------------------------------
  -  ***/
  -->

<svg width="36" height="21" viewBox="0 0 36 21" fill="none" xmlns="http://www.w3.org/2000/svg">
    <path d="M9.86533 7.6048C9.86533 8.0357 9.91191 8.38508 9.99343 8.64129C10.0866 8.8975 10.2031 9.177 10.3661 9.47979C10.4243 9.57296 10.4476 9.66613 10.4476 9.74765C10.4476 9.86411 10.3777 9.98057 10.2263 10.097L9.49266 10.5862C9.38784 10.656 9.28303 10.691 9.18986 10.691C9.0734 10.691 8.95694 10.6327 8.84048 10.5279C8.67744 10.3532 8.53769 10.1669 8.42123 9.98057C8.30477 9.78259 8.18831 9.56131 8.06021 9.29346C7.15182 10.3649 6.01052 10.9006 4.6363 10.9006C3.65804 10.9006 2.87776 10.6211 2.30711 10.0621C1.73646 9.50309 1.44531 8.75774 1.44531 7.82607C1.44531 6.83617 1.79469 6.0326 2.50509 5.42701C3.2155 4.82142 4.15882 4.51862 5.35835 4.51862C5.75431 4.51862 6.16192 4.55356 6.59282 4.61179C7.02372 4.67002 7.46626 4.76319 7.9321 4.868V4.01785C7.9321 3.13276 7.74576 2.51552 7.38474 2.1545C7.01207 1.79347 6.38319 1.61879 5.48645 1.61879C5.07884 1.61879 4.65959 1.66537 4.22869 1.77018C3.79779 1.875 3.37854 2.0031 2.97093 2.16614C2.7846 2.24767 2.64484 2.29425 2.56332 2.31754C2.4818 2.34083 2.42357 2.35248 2.37699 2.35248C2.21394 2.35248 2.13242 2.23602 2.13242 1.99146V1.4208C2.13242 1.23447 2.15571 1.09472 2.21394 1.0132C2.27217 0.931675 2.37699 0.850153 2.54003 0.768632C2.94764 0.559005 3.43677 0.384316 4.00742 0.244565C4.57807 0.0931675 5.18366 0.0232919 5.82418 0.0232919C7.21005 0.0232919 8.22325 0.337732 8.87542 0.966613C9.51595 1.59549 9.84203 2.55046 9.84203 3.83151V7.6048H9.86533ZM5.13707 9.37498C5.52139 9.37498 5.91735 9.3051 6.33661 9.16535C6.75586 9.0256 7.12853 8.76939 7.44297 8.42001C7.62931 8.19874 7.76906 7.95417 7.83893 7.67467C7.90881 7.39517 7.95539 7.05744 7.95539 6.66148V6.17235C7.61766 6.09083 7.25664 6.02095 6.88397 5.97437C6.51129 5.92778 6.15027 5.90449 5.78925 5.90449C5.00897 5.90449 4.43832 6.05589 4.054 6.37033C3.66969 6.68477 3.48335 7.12731 3.48335 7.70961C3.48335 8.25697 3.6231 8.66458 3.91425 8.94408C4.19375 9.23523 4.60136 9.37498 5.13707 9.37498ZM14.4888 10.6327C14.2791 10.6327 14.1394 10.5978 14.0462 10.5163C13.953 10.4464 13.8715 10.2834 13.8017 10.0621L11.0649 1.05978C10.995 0.826861 10.96 0.675464 10.96 0.593943C10.96 0.407608 11.0532 0.302794 11.2395 0.302794H12.3808C12.6021 0.302794 12.7535 0.337732 12.835 0.419254C12.9282 0.489129 12.9981 0.652173 13.068 0.873445L15.0245 8.58306L16.8412 0.873445C16.8995 0.640527 16.9693 0.489129 17.0625 0.419254C17.1557 0.349378 17.3187 0.302794 17.5284 0.302794H18.46C18.6813 0.302794 18.8327 0.337732 18.9259 0.419254C19.019 0.489129 19.1006 0.652173 19.1471 0.873445L20.9872 8.67622L23.0019 0.873445C23.0718 0.640527 23.1533 0.489129 23.2349 0.419254C23.328 0.349378 23.4794 0.302794 23.6891 0.302794H24.7721C24.9585 0.302794 25.0633 0.395962 25.0633 0.593943C25.0633 0.652172 25.0516 0.710402 25.04 0.780278C25.0283 0.850153 25.005 0.943321 24.9585 1.07143L22.1518 10.0737C22.0819 10.3067 22.0004 10.4581 21.9072 10.5279C21.8141 10.5978 21.6627 10.6444 21.4647 10.6444H20.4631C20.2419 10.6444 20.0905 10.6094 19.9973 10.5279C19.9041 10.4464 19.8226 10.295 19.776 10.0621L17.9709 2.55046L16.1774 10.0504C16.1192 10.2834 16.0493 10.4348 15.9562 10.5163C15.863 10.5978 15.6999 10.6327 15.4903 10.6327H14.4888ZM29.4538 10.9472C28.8482 10.9472 28.2426 10.8773 27.6603 10.7376C27.078 10.5978 26.6238 10.4464 26.321 10.2717C26.1347 10.1669 26.0066 10.0504 25.96 9.94563C25.9134 9.84082 25.8901 9.72436 25.8901 9.61954V9.0256C25.8901 8.78104 25.9833 8.66458 26.158 8.66458C26.2279 8.66458 26.2977 8.67622 26.3676 8.69952C26.4375 8.72281 26.5423 8.76939 26.6588 8.81598C27.0547 8.99066 27.4856 9.13041 27.9398 9.22358C28.4057 9.31675 28.8598 9.36333 29.3257 9.36333C30.0594 9.36333 30.63 9.23523 31.026 8.97902C31.422 8.72281 31.6316 8.35014 31.6316 7.87265C31.6316 7.54657 31.5268 7.27871 31.3171 7.05744C31.1075 6.83617 30.7116 6.63818 30.1409 6.45185L28.4522 5.92778C27.6021 5.65993 26.9732 5.26396 26.5889 4.7399C26.2046 4.22748 26.0066 3.65682 26.0066 3.05124C26.0066 2.56211 26.1114 2.13121 26.321 1.75854C26.5307 1.38587 26.8102 1.05978 27.1595 0.80357C27.5089 0.535713 27.9049 0.337732 28.3707 0.197981C28.8366 0.0582297 29.3257 0 29.8381 0C30.0943 0 30.3622 0.0116459 30.6184 0.0465837C30.8862 0.0815216 31.1308 0.128105 31.3754 0.174689C31.6083 0.232919 31.8296 0.291148 32.0392 0.361024C32.2488 0.4309 32.4119 0.500775 32.5283 0.570651C32.6914 0.663818 32.8078 0.756986 32.8777 0.861799C32.9476 0.954967 32.9825 1.08307 32.9825 1.24612V1.79347C32.9825 2.03804 32.8893 2.16614 32.7147 2.16614C32.6215 2.16614 32.4701 2.11956 32.2721 2.02639C31.6083 1.7236 30.863 1.5722 30.0361 1.5722C29.3723 1.5722 28.8482 1.67701 28.4872 1.89829C28.1262 2.11956 27.9398 2.45729 27.9398 2.93478C27.9398 3.26086 28.0563 3.54037 28.2892 3.76164C28.5221 3.98291 28.953 4.20418 29.5703 4.40216L31.224 4.92623C32.0625 5.19409 32.6681 5.56676 33.0291 6.04424C33.3901 6.52172 33.5648 7.06908 33.5648 7.67467C33.5648 8.17545 33.46 8.62964 33.262 9.0256C33.0524 9.42156 32.7729 9.77094 32.4119 10.0504C32.0508 10.3416 31.6199 10.5512 31.1192 10.7026C30.5951 10.8657 30.0477 10.9472 29.4538 10.9472Z"
          fill="white"/>
    <path fill-rule="evenodd" clip-rule="evenodd"
          d="M31.6574 16.607C27.8259 19.4369 22.2591 20.9393 17.4726 20.9393C10.7646 20.9393 4.72033 18.4587 0.155126 14.336C-0.205898 14.0099 0.120188 13.5674 0.551088 13.8236C5.48897 16.6885 11.5798 18.4237 17.8802 18.4237C22.131 18.4237 26.801 17.5386 31.0984 15.7219C31.7389 15.4307 32.2863 16.1411 31.6574 16.607Z"
          fill="#FF9900"/>
    <path fill-rule="evenodd" clip-rule="evenodd"
          d="M33.2528 14.7899C32.7637 14.161 30.0152 14.4871 28.7691 14.6385C28.3965 14.685 28.3382 14.359 28.676 14.1144C30.8654 12.5771 34.464 13.0197 34.8832 13.5321C35.3025 14.0562 34.7668 17.6548 32.7171 19.3784C32.4027 19.6462 32.0999 19.5065 32.2396 19.1571C32.7055 18.0041 33.7419 15.4071 33.2528 14.7899Z"
          fill="#FF9900"/>
</svg>
