<!--
  - /***
  -  ** █ ---------------------------------------------------------------------------------------------------------------------
  -  ** █ ░FRAMEWORK                                  2023-12-01 23:19:27
  -  ** █ ░█▀▀█ █▀▀█ █▀▀▄ █▀▀ ░█─░█ ─▀─ █▀▀▀ █▀▀▀ █▀▀ [App\Modules\Account\Views\Processes\Creator\deny.php]
  -  ** █ ░█─── █──█ █──█ █▀▀ ░█▀▀█ ▀█▀ █─▀█ █─▀█ ▀▀█ Copyright 2023 - CloudEngine S.A.S., Inc. <admin@cgine.com>
  -  ** █ ░█▄▄█ ▀▀▀▀ ▀▀▀─ ▀▀▀ ░█─░█ ▀▀▀ ▀▀▀▀ ▀▀▀▀ ▀▀▀ Para obtener información completa sobre derechos de autor y licencia,
  -  ** █                                             consulte la LICENCIA archivo que se distribuyó con este código fuente.
  -  ** █ ---------------------------------------------------------------------------------------------------------------------
  -  ** █ EL SOFTWARE SE PROPORCIONA -TAL CUAL-, SIN GARANTÍA DE NINGÚN TIPO, EXPRESA O
  -  ** █ IMPLÍCITA, INCLUYENDO PERO NO LIMITADO A LAS GARANTÍAS DE COMERCIABILIDAD,
  -  ** █ APTITUD PARA UN PROPÓSITO PARTICULAR Y NO INFRACCIÓN. EN NINGÚN CASO SERÁ
  -  ** █ LOS AUTORES O TITULARES DE LOS DERECHOS DE AUTOR SERÁN RESPONSABLES DE CUALQUIER
  -  ** █ RECLAMO, DAÑOS U OTROS RESPONSABILIDAD, YA SEA EN UNA ACCIÓN DE CONTRATO,
  -  ** █ AGRAVIO O DE OTRO MODO, QUE SURJA DESDE, FUERA O EN RELACIÓN CON EL SOFTWARE
  -  ** █ O EL USO U OTROS NEGOCIACIONES EN EL SOFTWARE.
  -  ** █ ---------------------------------------------------------------------------------------------------------------------
  -  ** █ @Author Jose Alexis Correa Valencia <jalexiscv@gmail.com>
  -  ** █ @link https://www.codehiggs.com
  -  ** █ @Version 1.5.0 @since PHP 7, PHP 8
  -  ** █ ---------------------------------------------------------------------------------------------------------------------
  -  ** █ Datos recibidos desde el controlador - @ModuleController
  -  ** █ ---------------------------------------------------------------------------------------------------------------------
  -  ** █ @authentication, @request, @dates, @parent, @component, @view, @oid, @views, @prefix
  -  ** █ ---------------------------------------------------------------------------------------------------------------------
  -  ***/
  -->

<svg width="733" height="97" viewBox="0 0 733 97" fill="none" xmlns="http://www.w3.org/2000/svg">
    <g clip-path="url(#clip0)">
        <g opacity="0.98" filter="url(#filter0_d)">
            <rect x="323" y="10" width="360" height="70" rx="3.22139" fill="white"/>
            <rect x="322.5" y="9.5" width="361" height="71" rx="3.72139" stroke="#1B1F23" stroke-opacity="0.1"/>
        </g>
        <path d="M387.94 48.4229H384.618L383.818 51H382.554L385.767 41.0469H386.826L389.984 51H388.727L387.94 48.4229ZM384.96 47.3223H387.605L386.293 43.002L384.96 47.3223ZM397.846 47.1924C397.846 47.8258 397.773 48.3887 397.627 48.8809C397.481 49.3685 397.271 49.7809 396.998 50.1182C396.725 50.4508 396.39 50.7038 395.993 50.877C395.597 51.0501 395.143 51.1367 394.633 51.1367C394.127 51.1367 393.674 51.0501 393.272 50.877C392.876 50.7038 392.539 50.4508 392.261 50.1182C391.983 49.7809 391.769 49.3685 391.618 48.8809C391.472 48.3887 391.399 47.8258 391.399 47.1924V44.8613C391.399 44.2279 391.472 43.6673 391.618 43.1797C391.764 42.6875 391.974 42.2728 392.247 41.9355C392.525 41.5983 392.862 41.3431 393.259 41.1699C393.66 40.9922 394.113 40.9033 394.619 40.9033C395.13 40.9033 395.583 40.9922 395.979 41.1699C396.381 41.3431 396.718 41.5983 396.991 41.9355C397.269 42.2728 397.481 42.6875 397.627 43.1797C397.773 43.6673 397.846 44.2279 397.846 44.8613V47.1924ZM392.671 46.9395L396.547 43.9658C396.474 43.305 396.28 42.8037 395.966 42.4619C395.656 42.1156 395.207 41.9424 394.619 41.9424C393.954 41.9424 393.462 42.168 393.143 42.6191C392.828 43.0658 392.671 43.7197 392.671 44.5811V46.9395ZM396.574 45.1758L392.705 48.1357C392.783 48.7783 392.981 49.2682 393.3 49.6055C393.619 49.9427 394.063 50.1113 394.633 50.1113C395.303 50.1113 395.793 49.8835 396.103 49.4277C396.417 48.972 396.574 48.3158 396.574 47.459V45.1758ZM406.254 47.1924C406.254 47.8258 406.181 48.3887 406.035 48.8809C405.889 49.3685 405.68 49.7809 405.406 50.1182C405.133 50.4508 404.798 50.7038 404.401 50.877C404.005 51.0501 403.551 51.1367 403.041 51.1367C402.535 51.1367 402.082 51.0501 401.681 50.877C401.284 50.7038 400.947 50.4508 400.669 50.1182C400.391 49.7809 400.177 49.3685 400.026 48.8809C399.881 48.3887 399.808 47.8258 399.808 47.1924V44.8613C399.808 44.2279 399.881 43.6673 400.026 43.1797C400.172 42.6875 400.382 42.2728 400.655 41.9355C400.933 41.5983 401.271 41.3431 401.667 41.1699C402.068 40.9922 402.521 40.9033 403.027 40.9033C403.538 40.9033 403.991 40.9922 404.388 41.1699C404.789 41.3431 405.126 41.5983 405.399 41.9355C405.677 42.2728 405.889 42.6875 406.035 43.1797C406.181 43.6673 406.254 44.2279 406.254 44.8613V47.1924ZM401.079 46.9395L404.955 43.9658C404.882 43.305 404.688 42.8037 404.374 42.4619C404.064 42.1156 403.615 41.9424 403.027 41.9424C402.362 41.9424 401.87 42.168 401.551 42.6191C401.236 43.0658 401.079 43.7197 401.079 44.5811V46.9395ZM404.982 45.1758L401.113 48.1357C401.191 48.7783 401.389 49.2682 401.708 49.6055C402.027 49.9427 402.471 50.1113 403.041 50.1113C403.711 50.1113 404.201 49.8835 404.511 49.4277C404.825 48.972 404.982 48.3158 404.982 47.459V45.1758ZM414.519 51H407.997V50.0908L411.258 46.4678C411.549 46.1442 411.793 45.8571 411.989 45.6064C412.185 45.3558 412.342 45.1257 412.461 44.916C412.579 44.7018 412.664 44.5013 412.714 44.3145C412.764 44.123 412.789 43.9271 412.789 43.7266C412.789 43.4805 412.748 43.2503 412.666 43.0361C412.589 42.8174 412.472 42.6283 412.317 42.4688C412.167 42.3092 411.982 42.1839 411.764 42.0928C411.549 41.9971 411.306 41.9492 411.032 41.9492C410.7 41.9492 410.41 41.9971 410.164 42.0928C409.923 42.1885 409.72 42.3252 409.556 42.5029C409.396 42.6761 409.275 42.888 409.193 43.1387C409.116 43.3893 409.077 43.6696 409.077 43.9795H407.806C407.806 43.5602 407.879 43.166 408.024 42.7969C408.17 42.4232 408.38 42.0973 408.653 41.8193C408.931 41.5413 409.269 41.3203 409.665 41.1562C410.066 40.9922 410.522 40.9102 411.032 40.9102C411.502 40.9102 411.923 40.9808 412.297 41.1221C412.675 41.2588 412.994 41.4502 413.254 41.6963C413.514 41.9424 413.712 42.234 413.849 42.5713C413.99 42.9085 414.061 43.2754 414.061 43.6719C414.061 43.9681 414.01 44.262 413.91 44.5537C413.81 44.8408 413.673 45.1257 413.5 45.4082C413.331 45.6908 413.133 45.971 412.905 46.249C412.682 46.5225 412.445 46.7959 412.194 47.0693L409.521 49.9678H414.519V51ZM423.07 47.1924C423.07 47.8258 422.997 48.3887 422.852 48.8809C422.706 49.3685 422.496 49.7809 422.223 50.1182C421.949 50.4508 421.614 50.7038 421.218 50.877C420.821 51.0501 420.368 51.1367 419.857 51.1367C419.352 51.1367 418.898 51.0501 418.497 50.877C418.101 50.7038 417.763 50.4508 417.485 50.1182C417.207 49.7809 416.993 49.3685 416.843 48.8809C416.697 48.3887 416.624 47.8258 416.624 47.1924V44.8613C416.624 44.2279 416.697 43.6673 416.843 43.1797C416.989 42.6875 417.198 42.2728 417.472 41.9355C417.75 41.5983 418.087 41.3431 418.483 41.1699C418.884 40.9922 419.338 40.9033 419.844 40.9033C420.354 40.9033 420.808 40.9922 421.204 41.1699C421.605 41.3431 421.942 41.5983 422.216 41.9355C422.494 42.2728 422.706 42.6875 422.852 43.1797C422.997 43.6673 423.07 44.2279 423.07 44.8613V47.1924ZM417.896 46.9395L421.771 43.9658C421.699 43.305 421.505 42.8037 421.19 42.4619C420.881 42.1156 420.432 41.9424 419.844 41.9424C419.178 41.9424 418.686 42.168 418.367 42.6191C418.053 43.0658 417.896 43.7197 417.896 44.5811V46.9395ZM421.799 45.1758L417.93 48.1357C418.007 48.7783 418.205 49.2682 418.524 49.6055C418.843 49.9427 419.288 50.1113 419.857 50.1113C420.527 50.1113 421.017 49.8835 421.327 49.4277C421.642 48.972 421.799 48.3158 421.799 47.459V45.1758ZM429.332 51H428.067V42.6602L425.463 43.6514V42.4961L429.229 41.0469H429.332V51ZM434.999 49.8789C435.45 49.8789 435.847 49.8402 436.188 49.7627C436.53 49.6807 436.826 49.5667 437.077 49.4209C437.332 49.2751 437.544 49.1042 437.713 48.9082C437.882 48.7077 438.018 48.4889 438.123 48.252C438.232 48.0104 438.312 47.7575 438.362 47.4932C438.412 47.2243 438.444 46.9508 438.458 46.6729C438.349 46.8096 438.223 46.9395 438.082 47.0625C437.941 47.181 437.781 47.2858 437.604 47.377C437.426 47.4681 437.228 47.541 437.009 47.5957C436.795 47.6458 436.56 47.6709 436.305 47.6709C435.812 47.6709 435.386 47.5752 435.026 47.3838C434.671 47.1878 434.377 46.9326 434.145 46.6182C433.912 46.3037 433.741 45.9482 433.632 45.5518C433.522 45.1553 433.468 44.7565 433.468 44.3555C433.468 43.8861 433.532 43.444 433.659 43.0293C433.791 42.61 433.985 42.2454 434.24 41.9355C434.5 41.6211 434.821 41.3727 435.204 41.1904C435.591 41.0036 436.04 40.9102 436.551 40.9102C436.934 40.9102 437.278 40.9648 437.583 41.0742C437.893 41.179 438.164 41.3271 438.396 41.5186C438.633 41.7054 438.836 41.9287 439.005 42.1885C439.174 42.4437 439.31 42.7217 439.415 43.0225C439.524 43.3187 439.604 43.6309 439.654 43.959C439.704 44.2826 439.729 44.6084 439.729 44.9365V45.3945C439.729 45.8184 439.709 46.2536 439.668 46.7002C439.627 47.1423 439.545 47.5706 439.422 47.9854C439.303 48.4001 439.135 48.792 438.916 49.1611C438.697 49.5257 438.412 49.8447 438.062 50.1182C437.711 50.3916 437.285 50.6081 436.783 50.7676C436.282 50.9271 435.687 51.0068 434.999 51.0068H434.869V49.8789H434.999ZM436.51 46.625C436.724 46.625 436.931 46.5908 437.132 46.5225C437.337 46.4495 437.524 46.3493 437.692 46.2217C437.866 46.0895 438.018 45.9368 438.15 45.7637C438.287 45.5859 438.394 45.39 438.472 45.1758V44.7656C438.472 44.3236 438.419 43.9294 438.314 43.583C438.214 43.2367 438.075 42.945 437.897 42.708C437.724 42.4665 437.521 42.2819 437.289 42.1543C437.061 42.0267 436.817 41.9629 436.558 41.9629C436.261 41.9629 435.999 42.0221 435.771 42.1406C435.544 42.2591 435.35 42.4232 435.19 42.6328C435.035 42.8379 434.917 43.084 434.835 43.3711C434.753 43.6536 434.712 43.959 434.712 44.2871C434.712 44.5788 434.748 44.8659 434.821 45.1484C434.894 45.4264 435.004 45.6748 435.149 45.8936C435.3 46.1123 435.487 46.29 435.71 46.4268C435.938 46.5589 436.204 46.625 436.51 46.625ZM441.917 51V41.0469H444.221C444.913 41.056 445.531 41.1745 446.073 41.4023C446.62 41.6257 447.08 41.9401 447.454 42.3457C447.832 42.7467 448.119 43.2298 448.315 43.7949C448.516 44.3555 448.618 44.9775 448.623 45.6611V46.3926C448.618 47.0762 448.516 47.7005 448.315 48.2656C448.119 48.8262 447.832 49.3092 447.454 49.7148C447.08 50.1159 446.62 50.4303 446.073 50.6582C445.531 50.8815 444.913 50.9954 444.221 51H441.917ZM443.202 42.0859V49.9678H444.221C444.758 49.9632 445.223 49.8698 445.615 49.6875C446.007 49.5007 446.331 49.2477 446.586 48.9287C446.846 48.6097 447.037 48.2337 447.16 47.8008C447.288 47.3678 447.354 46.8984 447.358 46.3926V45.6475C447.354 45.1416 447.288 44.6745 447.16 44.2461C447.033 43.8132 446.841 43.4395 446.586 43.125C446.331 42.806 446.007 42.5553 445.615 42.373C445.223 42.1908 444.758 42.0951 444.221 42.0859H443.202ZM453.75 46.9395H451.761V51H450.503V41.0469H453.422C453.887 41.056 454.324 41.1221 454.734 41.2451C455.145 41.3682 455.502 41.5527 455.808 41.7988C456.118 42.0449 456.359 42.3548 456.532 42.7285C456.71 43.0977 456.799 43.5329 456.799 44.0342C456.799 44.3577 456.751 44.654 456.655 44.9229C456.564 45.1917 456.437 45.4355 456.272 45.6543C456.108 45.873 455.912 46.0667 455.685 46.2354C455.457 46.404 455.206 46.5475 454.933 46.666L457.045 50.918L457.038 51H455.705L453.75 46.9395ZM451.761 45.9004H453.456C453.739 45.8958 454.005 45.8525 454.256 45.7705C454.507 45.6839 454.725 45.5609 454.912 45.4014C455.104 45.2419 455.254 45.0482 455.363 44.8203C455.473 44.5879 455.527 44.3213 455.527 44.0205C455.527 43.7015 455.475 43.4235 455.37 43.1865C455.265 42.945 455.119 42.7445 454.933 42.585C454.746 42.4209 454.522 42.2979 454.263 42.2158C454.007 42.1338 453.727 42.0905 453.422 42.0859H451.761V45.9004ZM458.85 51V41.0469H461.81C462.22 41.0514 462.621 41.1061 463.013 41.2109C463.405 41.3112 463.753 41.4684 464.059 41.6826C464.364 41.8968 464.608 42.1702 464.79 42.5029C464.972 42.8356 465.061 43.2344 465.057 43.6992C465.052 43.959 465.009 44.196 464.927 44.4102C464.849 44.6243 464.74 44.818 464.599 44.9912C464.462 45.1598 464.3 45.3079 464.113 45.4355C463.926 45.5632 463.728 45.6725 463.519 45.7637C463.783 45.8411 464.024 45.9528 464.243 46.0986C464.466 46.2399 464.658 46.4131 464.817 46.6182C464.977 46.8187 465.1 47.0465 465.187 47.3018C465.278 47.557 465.323 47.8327 465.323 48.1289C465.328 48.5938 465.239 49.0039 465.057 49.3594C464.874 49.7148 464.631 50.0133 464.325 50.2549C464.02 50.4919 463.667 50.6742 463.266 50.8018C462.869 50.9294 462.459 50.9954 462.035 51H458.85ZM460.121 46.3447V49.9268H462.069C462.334 49.9222 462.584 49.8789 462.821 49.7969C463.058 49.7103 463.268 49.5918 463.45 49.4414C463.632 49.291 463.776 49.1064 463.881 48.8877C463.99 48.6689 464.045 48.4206 464.045 48.1426C464.049 47.86 464.002 47.6094 463.901 47.3906C463.806 47.1719 463.671 46.9873 463.498 46.8369C463.325 46.682 463.122 46.5635 462.89 46.4814C462.657 46.3994 462.407 46.3538 462.138 46.3447H460.121ZM460.121 45.292H461.885C462.122 45.2874 462.354 45.251 462.582 45.1826C462.81 45.1097 463.013 45.0072 463.19 44.875C463.368 44.7383 463.512 44.5719 463.621 44.376C463.73 44.18 463.785 43.9521 463.785 43.6924C463.785 43.4144 463.73 43.1774 463.621 42.9814C463.516 42.7855 463.373 42.626 463.19 42.5029C463.013 42.3753 462.805 42.2819 462.568 42.2227C462.336 42.1634 462.097 42.1315 461.851 42.127H460.121V45.292ZM472.747 46.3994H468.591V49.9268H473.438V51H467.326V41.0469H473.376V42.127H468.591V45.3262H472.747V46.3994ZM480.889 48.4844C480.889 48.179 480.818 47.9215 480.677 47.7119C480.54 47.5023 480.362 47.3268 480.144 47.1855C479.925 47.0397 479.683 46.9189 479.419 46.8232C479.159 46.7275 478.909 46.641 478.667 46.5635C478.316 46.4495 477.958 46.3128 477.594 46.1533C477.234 45.9938 476.903 45.7979 476.603 45.5654C476.306 45.333 476.062 45.0596 475.871 44.7451C475.684 44.4261 475.591 44.0524 475.591 43.624C475.591 43.1956 475.684 42.8128 475.871 42.4756C476.062 42.1383 476.311 41.8535 476.616 41.6211C476.922 41.3887 477.268 41.2132 477.655 41.0947C478.043 40.9717 478.432 40.9102 478.824 40.9102C479.257 40.9102 479.674 40.9831 480.075 41.1289C480.476 41.2702 480.832 41.4707 481.142 41.7305C481.451 41.9902 481.7 42.3047 481.887 42.6738C482.074 43.043 482.172 43.4554 482.181 43.9111H480.882C480.845 43.624 480.775 43.3643 480.67 43.1318C480.565 42.8949 480.426 42.6921 480.253 42.5234C480.08 42.3548 479.872 42.2249 479.631 42.1338C479.394 42.0381 479.125 41.9902 478.824 41.9902C478.583 41.9902 478.346 42.0244 478.113 42.0928C477.885 42.1611 477.68 42.2637 477.498 42.4004C477.32 42.5371 477.177 42.7057 477.067 42.9062C476.963 43.1068 476.91 43.3392 476.91 43.6035C476.915 43.8906 476.988 44.1344 477.129 44.335C477.27 44.5309 477.448 44.6973 477.662 44.834C477.881 44.9707 478.116 45.0846 478.366 45.1758C478.621 45.2669 478.861 45.3467 479.084 45.415C479.33 45.4925 479.578 45.5814 479.829 45.6816C480.08 45.7773 480.321 45.889 480.554 46.0166C480.786 46.1442 481.003 46.2878 481.203 46.4473C481.404 46.6068 481.579 46.7891 481.729 46.9941C481.88 47.1947 481.996 47.418 482.078 47.6641C482.165 47.9056 482.208 48.1745 482.208 48.4707C482.208 48.9173 482.108 49.307 481.907 49.6396C481.711 49.9723 481.456 50.2503 481.142 50.4736C480.827 50.6924 480.472 50.8587 480.075 50.9727C479.679 51.082 479.282 51.1367 478.886 51.1367C478.444 51.1367 478.011 51.0684 477.587 50.9316C477.163 50.7949 476.783 50.599 476.445 50.3438C476.113 50.084 475.841 49.7695 475.632 49.4004C475.422 49.0267 475.311 48.6029 475.297 48.1289H476.589C476.63 48.4388 476.714 48.7145 476.842 48.9561C476.969 49.193 477.133 49.3958 477.334 49.5645C477.535 49.7285 477.765 49.8538 478.024 49.9404C478.289 50.0225 478.576 50.0635 478.886 50.0635C479.132 50.0635 479.373 50.0339 479.61 49.9746C479.852 49.9108 480.066 49.8151 480.253 49.6875C480.44 49.5553 480.592 49.3913 480.711 49.1953C480.829 48.9948 480.889 48.7578 480.889 48.4844ZM489.099 48.4365C489.103 48.0218 488.951 47.6663 488.641 47.3701C488.335 47.0739 487.848 46.8164 487.178 46.5977C486.754 46.4655 486.371 46.3128 486.029 46.1396C485.688 45.9665 485.394 45.7614 485.147 45.5244C484.906 45.2829 484.719 45.0072 484.587 44.6973C484.455 44.3874 484.389 44.0296 484.389 43.624C484.389 43.2412 484.446 42.8949 484.56 42.585C484.678 42.2751 484.842 42.0062 485.052 41.7783C485.266 41.5459 485.523 41.359 485.824 41.2178C486.13 41.0765 486.467 40.9831 486.836 40.9375V39.4336H487.854V40.9375C488.62 41.0423 489.215 41.3659 489.639 41.9082C490.062 42.446 490.277 43.1797 490.281 44.1094H489.023C489.023 43.804 488.985 43.5238 488.907 43.2686C488.834 43.0088 488.725 42.7878 488.579 42.6055C488.438 42.4186 488.262 42.2728 488.053 42.168C487.843 42.0632 487.604 42.0107 487.335 42.0107C486.784 42.0107 486.367 42.1543 486.084 42.4414C485.801 42.7285 485.658 43.1159 485.653 43.6035C485.653 43.8314 485.69 44.0342 485.763 44.2119C485.836 44.3896 485.95 44.5514 486.104 44.6973C486.264 44.8431 486.467 44.9798 486.713 45.1074C486.964 45.2305 487.264 45.3512 487.615 45.4697C488.044 45.611 488.429 45.7682 488.771 45.9414C489.112 46.1146 489.402 46.3174 489.639 46.5498C489.876 46.7822 490.056 47.0511 490.179 47.3564C490.306 47.6618 490.37 48.0173 490.37 48.4229C490.37 48.8193 490.306 49.1748 490.179 49.4893C490.056 49.8037 489.88 50.0749 489.652 50.3027C489.424 50.526 489.146 50.7061 488.818 50.8428C488.495 50.9795 488.135 51.0684 487.738 51.1094V52.4219H486.72V51.1162C486.364 51.0798 486.022 50.9977 485.694 50.8701C485.371 50.7425 485.084 50.5579 484.833 50.3164C484.582 50.0703 484.382 49.7627 484.231 49.3936C484.081 49.0244 484.006 48.5824 484.006 48.0674H485.271C485.271 48.4502 485.327 48.7692 485.441 49.0244C485.555 49.2751 485.701 49.4756 485.879 49.626C486.061 49.7764 486.266 49.8835 486.494 49.9473C486.722 50.0111 486.952 50.043 487.185 50.043C487.481 50.043 487.747 50.0065 487.984 49.9336C488.221 49.8607 488.422 49.7559 488.586 49.6191C488.75 49.4779 488.875 49.3092 488.962 49.1133C489.053 48.9128 489.099 48.6872 489.099 48.4365ZM491.607 42.8379C491.607 42.5781 491.646 42.332 491.724 42.0996C491.806 41.8626 491.922 41.6553 492.072 41.4775C492.227 41.2998 492.419 41.1608 492.646 41.0605C492.874 40.9557 493.136 40.9033 493.433 40.9033C493.733 40.9033 493.998 40.9557 494.226 41.0605C494.458 41.1608 494.649 41.2998 494.8 41.4775C494.955 41.6553 495.071 41.8626 495.148 42.0996C495.23 42.332 495.271 42.5781 495.271 42.8379V43.3643C495.271 43.624 495.23 43.8701 495.148 44.1025C495.071 44.335 494.955 44.54 494.8 44.7178C494.649 44.891 494.46 45.0299 494.232 45.1348C494.005 45.235 493.743 45.2852 493.446 45.2852C493.15 45.2852 492.886 45.235 492.653 45.1348C492.425 45.0299 492.234 44.891 492.079 44.7178C491.924 44.54 491.806 44.335 491.724 44.1025C491.646 43.8701 491.607 43.624 491.607 43.3643V42.8379ZM492.551 43.3643C492.551 43.5055 492.567 43.6423 492.599 43.7744C492.631 43.902 492.683 44.0182 492.756 44.123C492.829 44.2233 492.92 44.3053 493.029 44.3691C493.143 44.4284 493.282 44.458 493.446 44.458C493.606 44.458 493.74 44.4284 493.85 44.3691C493.964 44.3053 494.055 44.2233 494.123 44.123C494.191 44.0182 494.242 43.902 494.273 43.7744C494.31 43.6423 494.328 43.5055 494.328 43.3643V42.8379C494.328 42.6966 494.31 42.5599 494.273 42.4277C494.242 42.291 494.189 42.1725 494.116 42.0723C494.048 41.9674 493.957 41.8854 493.843 41.8262C493.733 41.7624 493.597 41.7305 493.433 41.7305C493.273 41.7305 493.136 41.7624 493.022 41.8262C492.913 41.8854 492.822 41.9674 492.749 42.0723C492.681 42.1725 492.631 42.291 492.599 42.4277C492.567 42.5599 492.551 42.6966 492.551 42.8379V43.3643ZM495.716 48.6895C495.716 48.4297 495.755 48.1836 495.832 47.9512C495.914 47.7188 496.033 47.5137 496.188 47.3359C496.342 47.1582 496.534 47.0192 496.762 46.9189C496.99 46.8141 497.252 46.7617 497.548 46.7617C497.849 46.7617 498.113 46.8141 498.341 46.9189C498.569 47.0192 498.76 47.1582 498.915 47.3359C499.07 47.5137 499.186 47.7188 499.264 47.9512C499.346 48.1836 499.387 48.4297 499.387 48.6895V49.2227C499.387 49.4824 499.346 49.7285 499.264 49.9609C499.186 50.1934 499.07 50.3984 498.915 50.5762C498.76 50.7493 498.569 50.8883 498.341 50.9932C498.118 51.0934 497.858 51.1436 497.562 51.1436C497.261 51.1436 496.994 51.0934 496.762 50.9932C496.534 50.8883 496.342 50.7493 496.188 50.5762C496.033 50.3984 495.914 50.1934 495.832 49.9609C495.755 49.7285 495.716 49.4824 495.716 49.2227V48.6895ZM496.659 49.2227C496.659 49.3639 496.675 49.5007 496.707 49.6328C496.743 49.765 496.796 49.8835 496.864 49.9883C496.937 50.0885 497.031 50.1706 497.145 50.2344C497.258 50.2936 497.397 50.3232 497.562 50.3232C497.721 50.3232 497.855 50.2936 497.965 50.2344C498.079 50.1706 498.17 50.0885 498.238 49.9883C498.307 49.8835 498.357 49.765 498.389 49.6328C498.421 49.5007 498.437 49.3639 498.437 49.2227V48.6895C498.437 48.5482 498.421 48.4115 498.389 48.2793C498.357 48.1471 498.304 48.0309 498.231 47.9307C498.163 47.8258 498.072 47.7438 497.958 47.6846C497.844 47.6208 497.707 47.5889 497.548 47.5889C497.384 47.5889 497.245 47.6208 497.131 47.6846C497.021 47.7438 496.93 47.8258 496.857 47.9307C496.789 48.0309 496.739 48.1471 496.707 48.2793C496.675 48.4115 496.659 48.5482 496.659 48.6895V49.2227ZM494.027 49.7148L493.269 49.291L497.145 42.2021L497.903 42.626L494.027 49.7148ZM506.441 46.6045H502.299V51H501.021V41.0469H507.132V42.127H502.299V45.5312H506.441V46.6045ZM514.063 48.4229H510.741L509.941 51H508.677L511.89 41.0469H512.949L516.107 51H514.85L514.063 48.4229ZM511.083 47.3223H513.729L512.416 43.002L511.083 47.3223ZM520.804 44.9502L522.95 41.0469H524.44L521.549 45.9824L524.509 51H523.032L520.831 47.0215L518.623 51H517.126L520.093 45.9824L517.201 41.0469H518.685L520.804 44.9502ZM531.666 46.6045H527.523V51H526.245V41.0469H532.356V42.127H527.523V45.5312H531.666V46.6045ZM539.473 48.3066L540.231 41.0469H541.428L540.218 51H538.926L537.647 43.501L536.355 51H535.057L533.847 41.0469H535.05L535.809 48.3066L537.087 41.0469H538.188L539.473 48.3066ZM548.421 46.3994H544.265V49.9268H549.111V51H543V41.0469H549.05V42.127H544.265V45.3262H548.421V46.3994ZM551.34 51V41.0469H554.3C554.71 41.0514 555.111 41.1061 555.503 41.2109C555.895 41.3112 556.243 41.4684 556.549 41.6826C556.854 41.8968 557.098 42.1702 557.28 42.5029C557.463 42.8356 557.551 43.2344 557.547 43.6992C557.542 43.959 557.499 44.196 557.417 44.4102C557.34 44.6243 557.23 44.818 557.089 44.9912C556.952 45.1598 556.79 45.3079 556.604 45.4355C556.417 45.5632 556.218 45.6725 556.009 45.7637C556.273 45.8411 556.515 45.9528 556.733 46.0986C556.957 46.2399 557.148 46.4131 557.308 46.6182C557.467 46.8187 557.59 47.0465 557.677 47.3018C557.768 47.557 557.813 47.8327 557.813 48.1289C557.818 48.5938 557.729 49.0039 557.547 49.3594C557.365 49.7148 557.121 50.0133 556.815 50.2549C556.51 50.4919 556.157 50.6742 555.756 50.8018C555.359 50.9294 554.949 50.9954 554.525 51H551.34ZM552.611 46.3447V49.9268H554.56C554.824 49.9222 555.075 49.8789 555.312 49.7969C555.549 49.7103 555.758 49.5918 555.94 49.4414C556.123 49.291 556.266 49.1064 556.371 48.8877C556.48 48.6689 556.535 48.4206 556.535 48.1426C556.54 47.86 556.492 47.6094 556.392 47.3906C556.296 47.1719 556.161 46.9873 555.988 46.8369C555.815 46.682 555.612 46.5635 555.38 46.4814C555.147 46.3994 554.897 46.3538 554.628 46.3447H552.611ZM552.611 45.292H554.375C554.612 45.2874 554.844 45.251 555.072 45.1826C555.3 45.1097 555.503 45.0072 555.681 44.875C555.858 44.7383 556.002 44.5719 556.111 44.376C556.221 44.18 556.275 43.9521 556.275 43.6924C556.275 43.4144 556.221 43.1774 556.111 42.9814C556.007 42.7855 555.863 42.626 555.681 42.5029C555.503 42.3753 555.296 42.2819 555.059 42.2227C554.826 42.1634 554.587 42.1315 554.341 42.127H552.611V45.292ZM566.201 49.6943C565.782 50.1865 565.301 50.5511 564.759 50.7881C564.216 51.0251 563.622 51.1413 562.975 51.1367C562.564 51.1322 562.186 51.0706 561.84 50.9521C561.498 50.8291 561.19 50.6628 560.917 50.4531C560.644 50.2389 560.404 49.9883 560.199 49.7012C559.994 49.4141 559.821 49.1042 559.68 48.7715C559.543 48.4342 559.438 48.0833 559.365 47.7188C559.297 47.3496 559.26 46.9782 559.256 46.6045V45.4492C559.26 45.0801 559.292 44.7132 559.352 44.3486C559.415 43.9795 559.511 43.6263 559.639 43.2891C559.766 42.9518 559.926 42.6396 560.117 42.3525C560.309 42.0609 560.536 41.8102 560.801 41.6006C561.07 41.3864 561.373 41.2178 561.71 41.0947C562.047 40.9717 562.425 40.9102 562.845 40.9102C563.31 40.9102 563.738 40.9831 564.13 41.1289C564.522 41.2702 564.864 41.4753 565.155 41.7441C565.447 42.0085 565.682 42.3298 565.859 42.708C566.037 43.0817 566.146 43.501 566.188 43.9658H564.937C564.886 43.6787 564.809 43.4144 564.704 43.1729C564.599 42.9268 564.46 42.7171 564.287 42.5439C564.118 42.3708 563.916 42.2363 563.679 42.1406C563.442 42.0404 563.166 41.9902 562.852 41.9902C562.551 41.9902 562.284 42.0426 562.052 42.1475C561.819 42.2477 561.617 42.3844 561.443 42.5576C561.27 42.7308 561.127 42.9336 561.013 43.166C560.899 43.3939 560.805 43.6354 560.732 43.8906C560.66 44.1458 560.607 44.4056 560.575 44.6699C560.543 44.9342 560.527 45.1895 560.527 45.4355V46.6045C560.532 46.8551 560.552 47.1149 560.589 47.3838C560.63 47.6481 560.691 47.9079 560.773 48.1631C560.855 48.4183 560.96 48.6598 561.088 48.8877C561.215 49.1156 561.368 49.3161 561.546 49.4893C561.728 49.6624 561.938 49.8014 562.175 49.9062C562.412 50.0065 562.681 50.0589 562.981 50.0635C563.155 50.068 563.335 50.0612 563.521 50.043C563.713 50.0247 563.897 49.9883 564.075 49.9336C564.253 49.8789 564.419 49.806 564.574 49.7148C564.729 49.6191 564.859 49.4961 564.964 49.3457L564.978 47.1104H562.954V46.0439H566.181L566.201 49.6943ZM569.202 49.9268H574.356V51H567.773L567.76 50.0156L572.716 42.127H567.849V41.0469H574.158L574.172 42.0107L569.202 49.9268ZM579.511 46.0439L581.78 41.0469H583.216L580.119 47.2881L580.099 51H578.923L578.902 47.2881L575.806 41.0469H577.248L579.511 46.0439ZM591.228 51H590.031V46.3994H585.95V51H584.761V41.0469H585.95V45.3262H590.031V41.0469H591.228V51ZM593.846 46.0098L594.345 41.0469H599.451V42.2773H595.411L595.131 44.9297C595.327 44.8158 595.562 44.7155 595.835 44.6289C596.108 44.5423 596.425 44.499 596.785 44.499C597.245 44.499 597.658 44.5788 598.022 44.7383C598.387 44.8978 598.697 45.1234 598.952 45.415C599.207 45.7021 599.403 46.0508 599.54 46.4609C599.677 46.8711 599.745 47.3268 599.745 47.8281C599.745 48.3021 599.681 48.7419 599.554 49.1475C599.426 49.5531 599.232 49.904 598.973 50.2002C598.717 50.4919 598.394 50.722 598.002 50.8906C597.61 51.0547 597.15 51.1367 596.621 51.1367C596.215 51.1367 595.833 51.0798 595.473 50.9658C595.113 50.8519 594.791 50.681 594.509 50.4531C594.231 50.2253 594.001 49.9382 593.818 49.5918C593.641 49.2454 593.529 48.8421 593.483 48.3818H594.687C594.764 48.9469 594.971 49.3753 595.309 49.667C595.65 49.9587 596.088 50.1045 596.621 50.1045C596.922 50.1045 597.188 50.0521 597.421 49.9473C597.653 49.8379 597.847 49.6852 598.002 49.4893C598.161 49.2887 598.28 49.0495 598.357 48.7715C598.439 48.4935 598.48 48.1836 598.48 47.8418C598.48 47.5319 598.435 47.2425 598.344 46.9736C598.257 46.7048 598.13 46.4723 597.961 46.2764C597.792 46.0758 597.585 45.9186 597.339 45.8047C597.093 45.6908 596.81 45.6338 596.491 45.6338C596.282 45.6338 596.099 45.6497 595.944 45.6816C595.794 45.709 595.657 45.75 595.534 45.8047C595.411 45.8594 595.295 45.9255 595.186 46.0029C595.081 46.0804 594.971 46.1693 594.857 46.2695L593.846 46.0098ZM608.044 51H606.848V46.3994H602.767V51H601.577V41.0469H602.767V45.3262H606.848V41.0469H608.044V51ZM616.514 41.7578L612.392 51H611.065L615.174 42.1543H609.787V41.0469H616.514V41.7578ZM620.096 45.415H620.998C621.317 45.415 621.597 45.3717 621.839 45.2852C622.085 45.1986 622.29 45.0801 622.454 44.9297C622.623 44.7793 622.75 44.5993 622.837 44.3896C622.924 44.18 622.967 43.9499 622.967 43.6992C622.967 43.1204 622.819 42.6852 622.522 42.3936C622.226 42.0973 621.793 41.9492 621.224 41.9492C620.955 41.9492 620.709 41.9902 620.485 42.0723C620.267 42.1497 620.077 42.2637 619.918 42.4141C619.763 42.5645 619.642 42.7445 619.556 42.9541C619.469 43.1637 619.426 43.3984 619.426 43.6582H618.154C618.154 43.2799 618.227 42.9245 618.373 42.5918C618.523 42.2546 618.733 41.9629 619.002 41.7168C619.271 41.4661 619.592 41.2702 619.966 41.1289C620.344 40.9831 620.763 40.9102 621.224 40.9102C621.67 40.9102 622.078 40.9717 622.447 41.0947C622.816 41.2132 623.133 41.391 623.397 41.6279C623.662 41.8649 623.867 42.1589 624.013 42.5098C624.159 42.8607 624.231 43.2663 624.231 43.7266C624.231 43.918 624.202 44.1162 624.143 44.3213C624.083 44.5264 623.992 44.7269 623.869 44.9229C623.746 45.1143 623.587 45.2965 623.391 45.4697C623.199 45.6383 622.969 45.7796 622.7 45.8936C623.024 45.9984 623.293 46.1351 623.507 46.3037C623.726 46.4723 623.899 46.6615 624.026 46.8711C624.159 47.0807 624.25 47.3018 624.3 47.5342C624.354 47.7666 624.382 47.9967 624.382 48.2246C624.382 48.6895 624.302 49.1019 624.143 49.4619C623.983 49.8219 623.762 50.1273 623.479 50.3779C623.197 50.624 622.862 50.8132 622.475 50.9453C622.092 51.0729 621.677 51.1367 621.23 51.1367C620.793 51.1367 620.381 51.0752 619.993 50.9521C619.61 50.8291 619.278 50.6491 618.995 50.4121C618.713 50.1751 618.487 49.8857 618.318 49.5439C618.154 49.2021 618.072 48.8125 618.072 48.375H619.337C619.337 48.6348 619.38 48.8717 619.467 49.0859C619.558 49.3001 619.686 49.4824 619.85 49.6328C620.014 49.7832 620.212 49.8994 620.444 49.9814C620.681 50.0635 620.943 50.1045 621.23 50.1045C621.518 50.1045 621.777 50.068 622.01 49.9951C622.242 49.9176 622.44 49.8014 622.604 49.6465C622.769 49.4915 622.894 49.3001 622.98 49.0723C623.072 48.8398 623.117 48.5664 623.117 48.252C623.117 47.9421 623.065 47.6755 622.96 47.4521C622.86 47.2243 622.716 47.0352 622.529 46.8848C622.347 46.7344 622.124 46.6227 621.859 46.5498C621.6 46.4769 621.312 46.4404 620.998 46.4404H620.096V45.415ZM633.275 47.1924C633.275 47.8258 633.202 48.3887 633.057 48.8809C632.911 49.3685 632.701 49.7809 632.428 50.1182C632.154 50.4508 631.819 50.7038 631.423 50.877C631.026 51.0501 630.573 51.1367 630.062 51.1367C629.557 51.1367 629.103 51.0501 628.702 50.877C628.306 50.7038 627.968 50.4508 627.69 50.1182C627.412 49.7809 627.198 49.3685 627.048 48.8809C626.902 48.3887 626.829 47.8258 626.829 47.1924V44.8613C626.829 44.2279 626.902 43.6673 627.048 43.1797C627.194 42.6875 627.403 42.2728 627.677 41.9355C627.955 41.5983 628.292 41.3431 628.688 41.1699C629.09 40.9922 629.543 40.9033 630.049 40.9033C630.559 40.9033 631.013 40.9922 631.409 41.1699C631.81 41.3431 632.147 41.5983 632.421 41.9355C632.699 42.2728 632.911 42.6875 633.057 43.1797C633.202 43.6673 633.275 44.2279 633.275 44.8613V47.1924ZM628.101 46.9395L631.977 43.9658C631.904 43.305 631.71 42.8037 631.396 42.4619C631.086 42.1156 630.637 41.9424 630.049 41.9424C629.383 41.9424 628.891 42.168 628.572 42.6191C628.258 43.0658 628.101 43.7197 628.101 44.5811V46.9395ZM632.004 45.1758L628.135 48.1357C628.212 48.7783 628.41 49.2682 628.729 49.6055C629.049 49.9427 629.493 50.1113 630.062 50.1113C630.732 50.1113 631.222 49.8835 631.532 49.4277C631.847 48.972 632.004 48.3158 632.004 47.459V45.1758ZM637.65 47.5479L636.721 48.4434V51H635.449V40.5H636.721V46.9258L637.548 46.0371L639.975 43.6035H641.513L638.519 46.6865L641.971 51H640.364L637.65 47.5479ZM648.759 49.0381C648.759 48.8877 648.729 48.7533 648.67 48.6348C648.611 48.5117 648.51 48.4001 648.369 48.2998C648.228 48.1995 648.041 48.1084 647.809 48.0264C647.576 47.9398 647.287 47.8623 646.94 47.7939C646.517 47.7074 646.129 47.6025 645.778 47.4795C645.432 47.3564 645.133 47.2106 644.883 47.042C644.637 46.8688 644.445 46.6683 644.309 46.4404C644.172 46.208 644.104 45.9391 644.104 45.6338C644.104 45.333 644.174 45.0527 644.315 44.793C644.457 44.5286 644.655 44.2985 644.91 44.1025C645.165 43.9066 645.468 43.7516 645.819 43.6377C646.175 43.5238 646.564 43.4668 646.988 43.4668C647.444 43.4668 647.854 43.526 648.219 43.6445C648.583 43.763 648.893 43.9271 649.148 44.1367C649.404 44.3464 649.6 44.5924 649.736 44.875C649.878 45.153 649.948 45.4538 649.948 45.7773H648.684C648.684 45.6178 648.643 45.4629 648.561 45.3125C648.479 45.1576 648.365 45.0208 648.219 44.9023C648.073 44.7839 647.895 44.6882 647.686 44.6152C647.48 44.5423 647.248 44.5059 646.988 44.5059C646.719 44.5059 646.482 44.5355 646.277 44.5947C646.077 44.654 645.908 44.7337 645.771 44.834C645.639 44.9342 645.539 45.0505 645.471 45.1826C645.402 45.3148 645.368 45.4515 645.368 45.5928C645.368 45.7386 645.396 45.8685 645.45 45.9824C645.505 46.0964 645.598 46.1989 645.73 46.29C645.867 46.3812 646.047 46.4632 646.271 46.5361C646.498 46.609 646.785 46.6797 647.132 46.748C647.588 46.8438 647.995 46.9554 648.355 47.083C648.715 47.2061 649.019 47.3564 649.265 47.5342C649.511 47.7074 649.698 47.9102 649.825 48.1426C649.957 48.375 650.023 48.6439 650.023 48.9492C650.023 49.2773 649.948 49.5758 649.798 49.8447C649.652 50.1136 649.447 50.3438 649.183 50.5352C648.918 50.7266 648.602 50.8747 648.232 50.9795C647.863 51.0843 647.46 51.1367 647.022 51.1367C646.521 51.1367 646.075 51.0706 645.683 50.9385C645.291 50.8018 644.958 50.624 644.685 50.4053C644.416 50.182 644.208 49.9245 644.062 49.6328C643.921 49.3411 643.851 49.0381 643.851 48.7236H645.115C645.133 48.9834 645.202 49.2021 645.32 49.3799C645.443 49.5576 645.594 49.7012 645.771 49.8105C645.954 49.9199 646.154 49.9974 646.373 50.043C646.592 50.0885 646.808 50.1113 647.022 50.1113C647.556 50.1113 647.977 50.0133 648.287 49.8174C648.597 49.6214 648.754 49.3617 648.759 49.0381ZM652.122 51V41.0469H654.426C655.118 41.056 655.736 41.1745 656.278 41.4023C656.825 41.6257 657.285 41.9401 657.659 42.3457C658.037 42.7467 658.325 43.2298 658.521 43.7949C658.721 44.3555 658.824 44.9775 658.828 45.6611V46.3926C658.824 47.0762 658.721 47.7005 658.521 48.2656C658.325 48.8262 658.037 49.3092 657.659 49.7148C657.285 50.1159 656.825 50.4303 656.278 50.6582C655.736 50.8815 655.118 50.9954 654.426 51H652.122ZM653.407 42.0859V49.9678H654.426C654.964 49.9632 655.428 49.8698 655.82 49.6875C656.212 49.5007 656.536 49.2477 656.791 48.9287C657.051 48.6097 657.242 48.2337 657.365 47.8008C657.493 47.3678 657.559 46.8984 657.563 46.3926V45.6475C657.559 45.1416 657.493 44.6745 657.365 44.2461C657.238 43.8132 657.046 43.4395 656.791 43.125C656.536 42.806 656.212 42.5553 655.82 42.373C655.428 42.1908 654.964 42.0951 654.426 42.0859H653.407Z"
              fill="#D73A49"/>
        <circle cx="355" cy="45" r="16" fill="#EA4A5A"/>
        <path d="M359 41L351 49" stroke="white" stroke-width="2.1476" stroke-linecap="round" stroke-linejoin="round"/>
        <path d="M351 41L359 49" stroke="white" stroke-width="2.1476" stroke-linecap="round" stroke-linejoin="round"/>
    </g>
    <defs>
        <filter id="filter0_d" x="309.114" y="0.409618" width="387.771" height="97.7711" filterUnits="userSpaceOnUse"
                color-interpolation-filters="sRGB">
            <feFlood flood-opacity="0" result="BackgroundImageFix"/>
            <feColorMatrix in="SourceAlpha" type="matrix" values="0 0 0 0 0 0 0 0 0 0 0 0 0 0 0 0 0 0 127 0"/>
            <feOffset dy="4.29519"/>
            <feGaussianBlur stdDeviation="6.44279"/>
            <feColorMatrix type="matrix" values="0 0 0 0 0.105882 0 0 0 0 0.121569 0 0 0 0 0.137255 0 0 0 0.15 0"/>
            <feBlend mode="normal" in2="BackgroundImageFix" result="effect1_dropShadow"/>
            <feBlend mode="normal" in="SourceGraphic" in2="effect1_dropShadow" result="shape"/>
        </filter>
        <clipPath id="clip0">
            <rect width="733" height="97" fill="white"/>
        </clipPath>
    </defs>
</svg>
