<!--
  - /***
  -  ** █ ---------------------------------------------------------------------------------------------------------------------
  -  ** █ ░FRAMEWORK                                  2023-12-01 23:19:27
  -  ** █ ░█▀▀█ █▀▀█ █▀▀▄ █▀▀ ░█─░█ ─▀─ █▀▀▀ █▀▀▀ █▀▀ [App\Modules\Account\Views\Processes\Creator\deny.php]
  -  ** █ ░█─── █──█ █──█ █▀▀ ░█▀▀█ ▀█▀ █─▀█ █─▀█ ▀▀█ Copyright 2023 - CloudEngine S.A.S., Inc. <admin@cgine.com>
  -  ** █ ░█▄▄█ ▀▀▀▀ ▀▀▀─ ▀▀▀ ░█─░█ ▀▀▀ ▀▀▀▀ ▀▀▀▀ ▀▀▀ Para obtener información completa sobre derechos de autor y licencia,
  -  ** █                                             consulte la LICENCIA archivo que se distribuyó con este código fuente.
  -  ** █ ---------------------------------------------------------------------------------------------------------------------
  -  ** █ EL SOFTWARE SE PROPORCIONA -TAL CUAL-, SIN GARANTÍA DE NINGÚN TIPO, EXPRESA O
  -  ** █ IMPLÍCITA, INCLUYENDO PERO NO LIMITADO A LAS GARANTÍAS DE COMERCIABILIDAD,
  -  ** █ APTITUD PARA UN PROPÓSITO PARTICULAR Y NO INFRACCIÓN. EN NINGÚN CASO SERÁ
  -  ** █ LOS AUTORES O TITULARES DE LOS DERECHOS DE AUTOR SERÁN RESPONSABLES DE CUALQUIER
  -  ** █ RECLAMO, DAÑOS U OTROS RESPONSABILIDAD, YA SEA EN UNA ACCIÓN DE CONTRATO,
  -  ** █ AGRAVIO O DE OTRO MODO, QUE SURJA DESDE, FUERA O EN RELACIÓN CON EL SOFTWARE
  -  ** █ O EL USO U OTROS NEGOCIACIONES EN EL SOFTWARE.
  -  ** █ ---------------------------------------------------------------------------------------------------------------------
  -  ** █ @Author Jose Alexis Correa Valencia <jalexiscv@gmail.com>
  -  ** █ @link https://www.codehiggs.com
  -  ** █ @Version 1.5.0 @since PHP 7, PHP 8
  -  ** █ ---------------------------------------------------------------------------------------------------------------------
  -  ** █ Datos recibidos desde el controlador - @ModuleController
  -  ** █ ---------------------------------------------------------------------------------------------------------------------
  -  ** █ @authentication, @request, @dates, @parent, @component, @view, @oid, @views, @prefix
  -  ** █ ---------------------------------------------------------------------------------------------------------------------
  -  ***/
  -->

<svg width="40" height="40" viewBox="0 0 40 40" fill="none" xmlns="http://www.w3.org/2000/svg">
    <defs/>
    <path d="M31.52 16.532a.64.64 0 10-1.28 0h1.28zm-1.28 4.301a.64.64 0 101.28 0h-1.28zm1.28 4.555a.64.64 0 00-1.28 0h1.28zm-.64 7.866h-.64.64zm-21.12 0a.64.64 0 10-1.28 0h1.28zM8.48 22.92a.64.64 0 101.28 0H8.48zm1.28-4.404a.64.64 0 00-1.28 0h1.28zM8.48 14.58a.64.64 0 101.28 0H8.48zm.64-8.394h-.64.64zM29.69 5v-.64V5zm.55 1.186a.64.64 0 001.28 0h-1.28zm0 10.346v4.301h1.28v-.006-.007-.006-.006-.007-.006-.007-.006-.006-.007-.006-.007-.006-.007-.006-.006-.007-.006-.007-.006-.006-.007-.006-.007-.006-.006-.007-.006-.007-.006-.006-.007-.006-.007-.006-.006-.007-.006-.007-.006-.006-.007-.006-.007-.006-.006-.007-.006-.007-.006-.006-.007-.006-.007-.006-.006-.007-.006-.007-.006-.007-.006-.006-.007-.006-.007-.006-.006-.007-.006-.007-.006-.007-.006-.006-.007-.006-.007-.006-.007-.006-.007-.006-.006-.007-.006-.007-.006-.007-.006-.007-.006-.007-.006-.007-.006-.007-.006-.007-.006-.007-.006-.007-.006-.007-.006-.007-.006-.007-.007-.006-.007-.006-.007-.006-.007-.007-.006-.007-.006-.007-.006-.007-.007-.006-.007-.007-.006V20v-.006-.007-.007-.006-.007-.007-.007-.006-.007-.007-.006-.007-.007-.006-.007-.007-.007-.006-.007-.007-.007-.006-.007-.007-.007-.007-.006-.007-.007-.007-.007-.006-.007-.007-.007-.007-.007-.007-.006-.007-.007-.007-.007-.007-.007-.007-.007-.007-.007-.007-.007-.007-.007-.007-.007-.007-.007-.007-.007-.007-.007-.007-.007-.007-.008-.007-.007-.007-.007-.007-.007-.007-.008-.007-.007-.007-.007-.008-.007-.007-.007-.008-.007-.007-.008-.007-.007-.007-.008-.007-.008-.007-.007-.008-.007-.007-.008-.007-.008-.007-.008-.007-.008-.007-.008-.007-.008-.007-.008-.007-.008-.008-.007-.008-.007-.008-.008-.007-.008-.008-.007-.008-.008-.008-.007-.008-.008-.008-.007-.008-.008-.008-.008-.008-.007-.008-.008-.008V19v-.008-.008-.008-.008-.008-.008-.008-.008-.008-.008-.008-.008-.008-.008-.009-.008-.008-.008-.008-.008-.009-.008-.008-.008-.009-.008-.008-.008-.009-.008-.009-.008-.008-.009-.008-.009-.008-.008-.009-.008-.009-.009-.008-.009-.008-.009-.008-.009-.009-.008-.009-.009-.008-.01-.008-.009-.008-.01-.008-.009-.009-.009-.008-.01-.008-.01-.008-.009-.009-.009-.009-.009-.009-.01-.008-.01-.008-.01-.009-.009-.009-.01-.008-.01-.009-.01-.009-.009-.01-.009-.009-.01-.009-.01-.009-.009-.01-.009-.01-.009-.01-.01-.009-.01-.009-.01-.01-.009-.01-.01-.01-.009-.01-.01-.01-.01-.009-.01-.01-.01-.01-.01-.01-.01-.01-.01-.01-.01-.01-.01-.01-.01-.01-.01-.011-.01-.01-.01-.011-.01-.01-.011-.01-.011-.01-.011-.01-.011-.01-.011-.01-.011-.01-.011-.011-.01-.011-.011-.011-.01-.012-.01-.011-.011-.011-.01-.012-.01-.012-.01-.012-.01-.012-.011-.011-.011-.011-.012-.01-.012-.011-.012-.01-.012-.012-.01-.012-.012-.011-.012-.011-.012-.011-.012-.011-.012-.012-.011-.012-.012-.011-.012-.012-.012-.012-.012-.011-.012-.012-.012-.012-.012-.012-.012-.012-.013-.012-.012-.012-.012-.012-.013-.012-.012-.013-.012-.012-.013-.012-.013-.012-.013-.012-.013-.013-.012-.013-.013-.012-.013-.013-.013-.013-.012h-1.28zm0 8.856V33.254h1.28v-.027-.026-.026-.026-.026-.026-.026-.026-.026-.026-.026-.025-.026-.025-.026-.025-.026-.025-.025-.026-.025-.025-.025-.025-.024-.025-.025-.025-.024-.025-.024-.025-.024-.025-.024-.024-.024-.024-.024-.024-.024-.024-.024-.024-.024-.023-.024-.023-.024-.023-.024-.023-.023-.023-.023-.023-.024-.022-.023-.023-.023-.023-.023-.022-.023-.022-.023-.022-.023-.022-.022-.022-.022-.023-.021-.022-.022-.022-.022-.022-.022-.021-.022-.021-.022-.021-.022-.021-.021-.022-.02-.022-.02-.022-.02-.022-.02-.022-.02-.021-.02-.021-.02-.021-.02-.021-.02-.02-.021-.02-.02-.02-.02-.02-.02-.02-.02-.02-.02-.02-.02-.02-.019-.02-.019-.02-.019-.019-.02-.018-.02-.019-.019-.019-.019-.019-.019-.018-.02-.018-.019-.018-.019-.019-.018-.019-.018-.018-.019-.018-.018-.019-.018-.018-.018-.018-.018-.018-.018-.018-.018-.017-.018-.018-.017-.018-.017-.018-.017-.018-.017-.017-.018-.017-.017-.017-.018-.017-.017-.017-.017-.016-.017-.017-.017-.017-.016-.017-.017-.016-.017-.016-.017-.016-.017-.016-.016-.016-.017-.016-.016-.016-.016-.016-.016-.016-.016-.016-.016-.015-.016-.016-.015-.016-.016-.015-.016-.015-.016-.015-.015-.016-.015-.015-.015-.016-.015-.015-.015-.015-.015-.015-.015-.015-.015-.014-.015-.015-.015-.014-.015-.015-.014-.015-.014-.015-.014-.014-.015-.014-.015-.014-.014-.014-.014-.014-.015-.014-.014-.014-.014-.014-.013-.014-.014-.014-.014-.013-.014-.014-.014-.013-.014-.013-.014-.013-.014-.013-.013-.014-.013-.014-.013-.013-.013-.013-.014-.013-.013-.013-.013-.013-.013-.013-.013-.013-.012-.013-.013-.013-.013-.012-.013-.013-.012-.013-.013-.012-.012-.013-.012-.013-.012-.013-.012-.012-.013-.012-.012-.012-.013-.012-.012-.012-.012-.012-.012-.012-.013-.011-.012-.012-.012-.012-.012-.012-.012-.011-.012-.012-.012-.011-.012-.012-.011-.012-.011-.012-.011-.012-.011-.012-.011-.012-.011-.011-.012-.011-.011-.012-.011-.011-.011-.012-.01-.012-.011-.011-.011-.011-.012-.01-.012-.01-.011-.011-.011-.011-.011-.011-.01-.012-.01-.011-.011-.01-.012-.01-.011-.01-.012-.01-.01-.011-.011-.01-.011-.01-.011-.01-.011-.01-.011-.01-.011-.01-.011-.01-.01-.011-.01-.01-.011-.01-.01-.01-.011-.01-.01-.01-.011-.01-.01-.01-.01-.01-.01-.01-.011-.01-.01-.01-.01-.01-.01-.01-.01-.01-.01-.01-.01-.01-.01-.01-.01-.01-.01V26v-.009-.01-.01-.01-.01-.009-.01-.01-.01-.009-.01-.01-.009-.01-.01-.01-.009-.01-.01-.009-.01-.009-.01-.01-.009-.01-.009-.01-.01-.009-.01-.009-.01-.009-.01-.009-.01-.009-.01-.009-.01-.009-.01-.009-.01-.008-.01-.01-.009-.01-.009-.009-.01-.009-.01-.009-.009-.01-.009-.01-.009-.009-.01-.009h-1.28zm0 7.866c0 .341-.23.546-.549.546v1.28c.956 0 1.829-.71 1.829-1.826h-1.28zm-.549.546H10.31v1.28H29.69V33.8zm-19.382 0c-.319 0-.549-.205-.549-.546H8.48c0 1.116.873 1.826 1.829 1.826V33.8zM9.76 22.92v-4.404H8.48v4.404h1.28zm0-8.34V6.185H8.48v8.393h1.28zm0-8.394c0-.341.23-.546.548-.546V4.36c-.955 0-1.829.71-1.829 1.826h1.28zm.548-.546H29.69V4.36H10.308v1.28zm19.383 0c.318 0 .548.205.548.546h1.28c0-1.116-.873-1.826-1.828-1.826v1.28z"
          fill="#79B8FF"/>
    <path d="M6.56 25.48H8.4a2 2 0 012 2v1.12a2 2 0 01-2 2H7.28a2 2 0 01-2-2v-.845M33.014 8.84h-1.413a2 2 0 00-2 2v1.12a2 2 0 002 2h1.12a2 2 0 002-2v-1.414"
          stroke="#2088FF" stroke-width="1.28" stroke-linecap="round" stroke-linejoin="round"/>
    <path clip-rule="evenodd"
          d="M5.28 27.4a1.28 1.28 0 100-2.56 1.28 1.28 0 000 2.56zM34.72 10.12a1.28 1.28 0 110-2.56 1.28 1.28 0 010 2.56z"
          stroke="#2088FF" stroke-width="1.28"/>
    <path d="M10.4 27.4a.64.64 0 000 1.28V27.4zm2.56 1.28a.64.64 0 100-1.28v1.28zm3.2-1.28a.64.64 0 000 1.28V27.4zm8.32 1.28a.64.64 0 100-1.28v1.28zm-14.08 0h2.56V27.4H10.4v1.28zm5.76 0h8.32V27.4h-8.32v1.28z"
          fill="#2088FF"/>
    <path d="M11.03 15.88a.64.64 0 000 1.28v-1.28zm3.849 1.28a.64.64 0 000-1.28v1.28zm3.201-1.28a.64.64 0 000 1.28v-1.28zm3.84 1.28a.64.64 0 100-1.28v1.28zm-10.89 0h3.849v-1.28h-3.85v1.28zm7.05 0h3.84v-1.28h-3.84v1.28zM28.97 22.28a.64.64 0 010 1.28v-1.28zm-3.841 1.28a.64.64 0 010-1.28v1.28zm-3.203-1.28a.64.64 0 010 1.28v-1.28zm-3.841 1.28a.64.64 0 110-1.28v1.28zm10.886 0h-3.843v-1.28h3.843v1.28zm-7.045 0h-3.841v-1.28h3.841v1.28z"
          fill="#79B8FF"/>
    <path d="M29.598 10.76a.64.64 0 010 1.28v-1.28zm-2.55 1.28a.64.64 0 110-1.28v1.28zm-3.202-1.28a.64.64 0 010 1.28v-1.28zm-8.323 1.28a.64.64 0 110-1.28v1.28zm14.075 0h-2.55v-1.28h2.55v1.28zm-5.752 0h-8.323v-1.28h8.323v1.28z"
          fill="#2088FF"/>
    <rect x="7.199" y="14.6" width="3.84" height="3.84" rx="1" stroke="#79B8FF" stroke-width="1.28"
          stroke-linejoin="round"/>
    <path clip-rule="evenodd" d="M28.96 22a1 1 0 011-1h1.84a1 1 0 011 1v1.84a1 1 0 01-1 1h-1.84a1 1 0 01-1-1V22z"
          stroke="#79B8FF" stroke-width="1.28" stroke-linejoin="round"/>
</svg>