<!--
  - /***
  -  ** █ ---------------------------------------------------------------------------------------------------------------------
  -  ** █ ░FRAMEWORK                                  2023-12-01 23:19:27
  -  ** █ ░█▀▀█ █▀▀█ █▀▀▄ █▀▀ ░█─░█ ─▀─ █▀▀▀ █▀▀▀ █▀▀ [App\Modules\Account\Views\Processes\Creator\deny.php]
  -  ** █ ░█─── █──█ █──█ █▀▀ ░█▀▀█ ▀█▀ █─▀█ █─▀█ ▀▀█ Copyright 2023 - CloudEngine S.A.S., Inc. <admin@cgine.com>
  -  ** █ ░█▄▄█ ▀▀▀▀ ▀▀▀─ ▀▀▀ ░█─░█ ▀▀▀ ▀▀▀▀ ▀▀▀▀ ▀▀▀ Para obtener información completa sobre derechos de autor y licencia,
  -  ** █                                             consulte la LICENCIA archivo que se distribuyó con este código fuente.
  -  ** █ ---------------------------------------------------------------------------------------------------------------------
  -  ** █ EL SOFTWARE SE PROPORCIONA -TAL CUAL-, SIN GARANTÍA DE NINGÚN TIPO, EXPRESA O
  -  ** █ IMPLÍCITA, INCLUYENDO PERO NO LIMITADO A LAS GARANTÍAS DE COMERCIABILIDAD,
  -  ** █ APTITUD PARA UN PROPÓSITO PARTICULAR Y NO INFRACCIÓN. EN NINGÚN CASO SERÁ
  -  ** █ LOS AUTORES O TITULARES DE LOS DERECHOS DE AUTOR SERÁN RESPONSABLES DE CUALQUIER
  -  ** █ RECLAMO, DAÑOS U OTROS RESPONSABILIDAD, YA SEA EN UNA ACCIÓN DE CONTRATO,
  -  ** █ AGRAVIO O DE OTRO MODO, QUE SURJA DESDE, FUERA O EN RELACIÓN CON EL SOFTWARE
  -  ** █ O EL USO U OTROS NEGOCIACIONES EN EL SOFTWARE.
  -  ** █ ---------------------------------------------------------------------------------------------------------------------
  -  ** █ @Author Jose Alexis Correa Valencia <jalexiscv@gmail.com>
  -  ** █ @link https://www.codehiggs.com
  -  ** █ @Version 1.5.0 @since PHP 7, PHP 8
  -  ** █ ---------------------------------------------------------------------------------------------------------------------
  -  ** █ Datos recibidos desde el controlador - @ModuleController
  -  ** █ ---------------------------------------------------------------------------------------------------------------------
  -  ** █ @authentication, @request, @dates, @parent, @component, @view, @oid, @views, @prefix
  -  ** █ ---------------------------------------------------------------------------------------------------------------------
  -  ***/
  -->

<svg width="733" height="97" viewBox="0 0 733 97" fill="none" xmlns="http://www.w3.org/2000/svg">
    <g clip-path="url(#clip0)">
        <g opacity="0.98" filter="url(#filter0_d)">
            <rect x="323" y="10" width="360" height="70" rx="3.22139" fill="white"/>
            <rect x="322.5" y="9.5" width="361" height="71" rx="3.72139" stroke="#1B1F23" stroke-opacity="0.1"/>
        </g>
        <path d="M386.17 48.9629L388.521 41.0469H389.868L386.73 51H385.63L382.485 41.0469H383.839L386.17 48.9629ZM396.458 51C396.408 50.9043 396.367 50.7858 396.335 50.6445C396.308 50.4987 396.287 50.3483 396.273 50.1934C396.146 50.321 396.002 50.4417 395.843 50.5557C395.688 50.6696 395.515 50.7699 395.323 50.8564C395.136 50.943 394.936 51.0114 394.722 51.0615C394.507 51.1117 394.28 51.1367 394.038 51.1367C393.646 51.1367 393.291 51.0798 392.972 50.9658C392.657 50.8519 392.388 50.6992 392.165 50.5078C391.946 50.3118 391.775 50.0817 391.652 49.8174C391.534 49.5485 391.475 49.2591 391.475 48.9492C391.475 48.5436 391.554 48.1882 391.714 47.8828C391.878 47.5775 392.108 47.3245 392.404 47.124C392.701 46.9189 393.056 46.7663 393.471 46.666C393.89 46.5658 394.357 46.5156 394.872 46.5156H396.253V45.9346C396.253 45.7113 396.212 45.5107 396.13 45.333C396.048 45.1553 395.932 45.0049 395.781 44.8818C395.631 44.7542 395.446 44.6562 395.228 44.5879C395.013 44.5195 394.772 44.4854 394.503 44.4854C394.252 44.4854 394.027 44.5173 393.826 44.5811C393.63 44.6449 393.464 44.7292 393.327 44.834C393.19 44.9388 393.083 45.0641 393.006 45.21C392.933 45.3512 392.896 45.4993 392.896 45.6543H391.625C391.63 45.3854 391.698 45.1211 391.83 44.8613C391.967 44.6016 392.16 44.3691 392.411 44.1641C392.666 43.9544 392.974 43.7858 393.334 43.6582C393.699 43.5306 394.111 43.4668 394.571 43.4668C394.991 43.4668 395.38 43.5192 395.74 43.624C396.1 43.7243 396.41 43.8792 396.67 44.0889C396.934 44.2939 397.142 44.5514 397.292 44.8613C397.442 45.1712 397.518 45.5335 397.518 45.9482V49.3867C397.518 49.6328 397.54 49.8949 397.586 50.1729C397.632 50.4463 397.695 50.6855 397.777 50.8906V51H396.458ZM394.223 50.0361C394.469 50.0361 394.699 50.0042 394.913 49.9404C395.127 49.8766 395.321 49.7923 395.494 49.6875C395.672 49.5827 395.825 49.4642 395.952 49.332C396.08 49.1953 396.18 49.054 396.253 48.9082V47.4111H395.077C394.339 47.4111 393.765 47.5205 393.354 47.7393C392.944 47.958 392.739 48.3021 392.739 48.7715C392.739 48.9538 392.769 49.1224 392.828 49.2773C392.892 49.4323 392.985 49.5667 393.108 49.6807C393.231 49.79 393.386 49.8766 393.573 49.9404C393.76 50.0042 393.977 50.0361 394.223 50.0361ZM404.805 49.9814C404.559 50.346 404.251 50.6309 403.882 50.8359C403.513 51.0365 403.087 51.1367 402.604 51.1367C402.216 51.1367 401.865 51.0775 401.551 50.959C401.236 50.8359 400.967 50.6468 400.744 50.3916C400.521 50.1364 400.348 49.8128 400.225 49.4209C400.106 49.0244 400.047 48.5505 400.047 47.999V43.6035H401.312V48.0127C401.312 48.4137 401.343 48.7464 401.407 49.0107C401.471 49.2751 401.567 49.487 401.694 49.6465C401.822 49.8014 401.977 49.9108 402.159 49.9746C402.346 50.0384 402.56 50.0703 402.802 50.0703C403.317 50.0703 403.731 49.9655 404.046 49.7559C404.365 49.5462 404.602 49.2637 404.757 48.9082V43.6035H406.028V51H404.88L404.805 49.9814ZM408.612 40.5H412.393V49.9062H414.806V51H408.612V49.9062H411.128V41.6006H408.612V40.5ZM419.816 41.8125V43.6035H422.633V44.5811H419.816V48.6006C419.816 48.8877 419.853 49.1247 419.926 49.3115C419.999 49.4984 420.099 49.6488 420.227 49.7627C420.354 49.8721 420.5 49.9495 420.664 49.9951C420.833 50.0407 421.01 50.0635 421.197 50.0635C421.334 50.0635 421.475 50.0566 421.621 50.043C421.767 50.0247 421.908 50.0042 422.045 49.9814C422.186 49.9587 422.316 49.9359 422.435 49.9131C422.558 49.8857 422.658 49.863 422.735 49.8447L422.913 50.7402C422.808 50.804 422.681 50.861 422.53 50.9111C422.38 50.9567 422.216 50.9954 422.038 51.0273C421.86 51.0638 421.671 51.0911 421.471 51.1094C421.275 51.1276 421.079 51.1367 420.883 51.1367C420.555 51.1367 420.247 51.0911 419.96 51C419.677 50.9043 419.431 50.7562 419.222 50.5557C419.012 50.3506 418.846 50.0885 418.723 49.7695C418.604 49.446 418.545 49.0563 418.545 48.6006V44.5811H416.604V43.6035H418.545V41.8125H419.816ZM427.432 50.1797C427.432 50.043 427.452 49.9154 427.493 49.7969C427.539 49.6784 427.603 49.5758 427.685 49.4893C427.767 49.3981 427.869 49.3275 427.992 49.2773C428.115 49.2272 428.259 49.2021 428.423 49.2021C428.587 49.2021 428.73 49.2272 428.854 49.2773C428.981 49.3275 429.086 49.3981 429.168 49.4893C429.255 49.5758 429.318 49.6784 429.359 49.7969C429.405 49.9154 429.428 50.043 429.428 50.1797C429.428 50.3118 429.405 50.4372 429.359 50.5557C429.318 50.6696 429.255 50.7699 429.168 50.8564C429.086 50.943 428.981 51.0091 428.854 51.0547C428.73 51.1048 428.587 51.1299 428.423 51.1299C428.259 51.1299 428.115 51.1048 427.992 51.0547C427.869 51.0091 427.767 50.943 427.685 50.8564C427.603 50.7699 427.539 50.6696 427.493 50.5557C427.452 50.4372 427.432 50.3118 427.432 50.1797ZM561.013 46.96C561.013 46.3083 561.063 45.6953 561.163 45.1211C561.268 44.5469 561.407 44.016 561.58 43.5283C561.753 43.0361 561.951 42.5872 562.175 42.1816C562.403 41.776 562.64 41.416 562.886 41.1016C563.136 40.7871 563.387 40.5182 563.638 40.2949C563.888 40.0716 564.128 39.8962 564.355 39.7686L564.622 40.6025C564.34 40.8167 564.057 41.1084 563.774 41.4775C563.496 41.8467 563.246 42.2956 563.022 42.8242C562.804 43.3483 562.624 43.9544 562.482 44.6426C562.346 45.3262 562.277 46.0941 562.277 46.9463V47.042C562.277 47.8942 562.346 48.6644 562.482 49.3525C562.624 50.0407 562.804 50.6491 563.022 51.1777C563.246 51.7064 563.496 52.1576 563.774 52.5312C564.057 52.9095 564.34 53.2126 564.622 53.4404L564.355 54.2129C564.128 54.0853 563.886 53.9098 563.631 53.6865C563.38 53.4678 563.13 53.1989 562.879 52.8799C562.633 52.5654 562.396 52.2054 562.168 51.7998C561.945 51.3988 561.746 50.9544 561.573 50.4668C561.405 49.9746 561.268 49.4414 561.163 48.8672C561.063 48.293 561.013 47.68 561.013 47.0283V46.96ZM572.784 47.0283C572.784 47.68 572.732 48.293 572.627 48.8672C572.527 49.4414 572.39 49.9746 572.217 50.4668C572.044 50.9544 571.843 51.3988 571.615 51.7998C571.392 52.2054 571.155 52.5654 570.904 52.8799C570.658 53.1989 570.408 53.4678 570.152 53.6865C569.902 53.9098 569.662 54.0853 569.435 54.2129L569.168 53.4404C569.451 53.2308 569.731 52.9368 570.009 52.5586C570.291 52.1849 570.542 51.7314 570.761 51.1982C570.984 50.665 571.164 50.0521 571.301 49.3594C571.442 48.6667 571.513 47.8942 571.513 47.042V46.9463C571.513 46.0941 571.44 45.3216 571.294 44.6289C571.148 43.9316 570.959 43.3164 570.727 42.7832C570.499 42.2454 570.246 41.7897 569.968 41.416C569.694 41.0423 569.428 40.7507 569.168 40.541L569.435 39.7686C569.662 39.8962 569.902 40.0716 570.152 40.2949C570.408 40.5182 570.658 40.7871 570.904 41.1016C571.155 41.416 571.392 41.776 571.615 42.1816C571.843 42.5872 572.044 43.0361 572.217 43.5283C572.39 44.016 572.527 44.5469 572.627 45.1211C572.732 45.6953 572.784 46.3083 572.784 46.96V47.0283Z"
              fill="#444D56"/>
        <path d="M440.078 49.6943C439.659 50.1865 439.178 50.5511 438.636 50.7881C438.093 51.0251 437.499 51.1413 436.852 51.1367C436.441 51.1322 436.063 51.0706 435.717 50.9521C435.375 50.8291 435.067 50.6628 434.794 50.4531C434.521 50.2389 434.281 49.9883 434.076 49.7012C433.871 49.4141 433.698 49.1042 433.557 48.7715C433.42 48.4342 433.315 48.0833 433.242 47.7188C433.174 47.3496 433.137 46.9782 433.133 46.6045V45.4492C433.137 45.0801 433.169 44.7132 433.229 44.3486C433.292 43.9795 433.388 43.6263 433.516 43.2891C433.643 42.9518 433.803 42.6396 433.994 42.3525C434.186 42.0609 434.413 41.8102 434.678 41.6006C434.947 41.3864 435.25 41.2178 435.587 41.0947C435.924 40.9717 436.302 40.9102 436.722 40.9102C437.187 40.9102 437.615 40.9831 438.007 41.1289C438.399 41.2702 438.741 41.4753 439.032 41.7441C439.324 42.0085 439.559 42.3298 439.736 42.708C439.914 43.0817 440.023 43.501 440.064 43.9658H438.813C438.763 43.6787 438.686 43.4144 438.581 43.1729C438.476 42.9268 438.337 42.7171 438.164 42.5439C437.995 42.3708 437.793 42.2363 437.556 42.1406C437.319 42.0404 437.043 41.9902 436.729 41.9902C436.428 41.9902 436.161 42.0426 435.929 42.1475C435.696 42.2477 435.493 42.3844 435.32 42.5576C435.147 42.7308 435.004 42.9336 434.89 43.166C434.776 43.3939 434.682 43.6354 434.609 43.8906C434.536 44.1458 434.484 44.4056 434.452 44.6699C434.42 44.9342 434.404 45.1895 434.404 45.4355V46.6045C434.409 46.8551 434.429 47.1149 434.466 47.3838C434.507 47.6481 434.568 47.9079 434.65 48.1631C434.732 48.4183 434.837 48.6598 434.965 48.8877C435.092 49.1156 435.245 49.3161 435.423 49.4893C435.605 49.6624 435.815 49.8014 436.052 49.9062C436.289 50.0065 436.558 50.0589 436.858 50.0635C437.032 50.068 437.212 50.0612 437.398 50.043C437.59 50.0247 437.774 49.9883 437.952 49.9336C438.13 49.8789 438.296 49.806 438.451 49.7148C438.606 49.6191 438.736 49.4961 438.841 49.3457L438.854 47.1104H436.831V46.0439H440.058L440.078 49.6943ZM445.314 51.1367C444.795 51.1367 444.316 51.0479 443.879 50.8701C443.446 50.6924 443.075 50.444 442.765 50.125C442.455 49.806 442.213 49.4277 442.04 48.9902C441.867 48.5527 441.78 48.0765 441.78 47.5615V47.2744C441.78 46.6774 441.876 46.1442 442.067 45.6748C442.259 45.2008 442.512 44.8021 442.826 44.4785C443.145 44.1504 443.505 43.8997 443.906 43.7266C444.312 43.5534 444.727 43.4668 445.15 43.4668C445.684 43.4668 446.148 43.5602 446.545 43.7471C446.946 43.9294 447.279 44.1846 447.543 44.5127C447.807 44.8363 448.003 45.2191 448.131 45.6611C448.263 46.1032 448.329 46.5817 448.329 47.0967V47.6641H443.045C443.059 48.0013 443.122 48.318 443.236 48.6143C443.355 48.9105 443.514 49.1702 443.715 49.3936C443.92 49.6123 444.164 49.7855 444.446 49.9131C444.729 50.0407 445.041 50.1045 445.383 50.1045C445.834 50.1045 446.235 50.0133 446.586 49.8311C446.937 49.6488 447.229 49.4072 447.461 49.1064L448.233 49.708C448.11 49.8949 447.955 50.0749 447.769 50.248C447.586 50.4167 447.374 50.5671 447.133 50.6992C446.891 50.8314 446.618 50.9362 446.312 51.0137C446.007 51.0957 445.674 51.1367 445.314 51.1367ZM445.15 44.5059C444.895 44.5059 444.654 44.5537 444.426 44.6494C444.198 44.7406 443.993 44.8773 443.811 45.0596C443.628 45.2373 443.473 45.4583 443.346 45.7227C443.223 45.9824 443.136 46.2832 443.086 46.625H447.064V46.5293C447.051 46.2832 447.003 46.0394 446.921 45.7979C446.843 45.5563 446.727 45.3398 446.572 45.1484C446.417 44.957 446.221 44.8021 445.984 44.6836C445.752 44.5651 445.474 44.5059 445.15 44.5059ZM453.449 41.8125V43.6035H456.266V44.5811H453.449V48.6006C453.449 48.8877 453.486 49.1247 453.559 49.3115C453.632 49.4984 453.732 49.6488 453.859 49.7627C453.987 49.8721 454.133 49.9495 454.297 49.9951C454.465 50.0407 454.643 50.0635 454.83 50.0635C454.967 50.0635 455.108 50.0566 455.254 50.043C455.4 50.0247 455.541 50.0042 455.678 49.9814C455.819 49.9587 455.949 49.9359 456.067 49.9131C456.19 49.8857 456.291 49.863 456.368 49.8447L456.546 50.7402C456.441 50.804 456.313 50.861 456.163 50.9111C456.013 50.9567 455.849 50.9954 455.671 51.0273C455.493 51.0638 455.304 51.0911 455.104 51.1094C454.908 51.1276 454.712 51.1367 454.516 51.1367C454.188 51.1367 453.88 51.0911 453.593 51C453.31 50.9043 453.064 50.7562 452.854 50.5557C452.645 50.3506 452.479 50.0885 452.355 49.7695C452.237 49.446 452.178 49.0563 452.178 48.6006V44.5811H450.236V43.6035H452.178V41.8125H453.449ZM465.31 48.0059C465.25 48.4661 465.132 48.89 464.954 49.2773C464.776 49.6602 464.544 49.9906 464.257 50.2686C463.974 50.542 463.637 50.7562 463.245 50.9111C462.858 51.0615 462.425 51.1367 461.946 51.1367C461.536 51.1367 461.162 51.0798 460.825 50.9658C460.493 50.8473 460.194 50.6855 459.93 50.4805C459.67 50.2754 459.444 50.0339 459.253 49.7559C459.066 49.4779 458.909 49.1748 458.781 48.8467C458.658 48.5186 458.565 48.1745 458.501 47.8145C458.442 47.4544 458.41 47.0898 458.405 46.7207V45.333C458.41 44.9639 458.442 44.5993 458.501 44.2393C458.565 43.8792 458.658 43.5352 458.781 43.207C458.909 42.8789 459.066 42.5758 459.253 42.2979C459.444 42.0153 459.67 41.7715 459.93 41.5664C460.194 41.3613 460.493 41.2018 460.825 41.0879C461.158 40.9694 461.532 40.9102 461.946 40.9102C462.443 40.9102 462.887 40.9876 463.279 41.1426C463.671 41.293 464.008 41.5094 464.291 41.792C464.574 42.07 464.799 42.4049 464.968 42.7969C465.141 43.1888 465.255 43.6217 465.31 44.0957H464.045C464.004 43.7949 463.933 43.5146 463.833 43.2549C463.733 42.9951 463.598 42.7673 463.43 42.5713C463.261 42.3753 463.054 42.2227 462.808 42.1133C462.566 41.9993 462.279 41.9424 461.946 41.9424C461.646 41.9424 461.379 41.9925 461.146 42.0928C460.919 42.1885 460.72 42.3206 460.552 42.4893C460.388 42.6579 460.249 42.8538 460.135 43.0771C460.025 43.3005 459.937 43.5374 459.868 43.7881C459.8 44.0387 459.75 44.2962 459.718 44.5605C459.69 44.8203 459.677 45.0732 459.677 45.3193V46.7207C459.677 46.9668 459.69 47.222 459.718 47.4863C459.75 47.7461 459.8 48.0036 459.868 48.2588C459.937 48.5094 460.025 48.7464 460.135 48.9697C460.244 49.193 460.383 49.3913 460.552 49.5645C460.72 49.7331 460.919 49.8675 461.146 49.9678C461.374 50.0635 461.641 50.1113 461.946 50.1113C462.279 50.1113 462.566 50.0589 462.808 49.9541C463.054 49.8493 463.261 49.7035 463.43 49.5166C463.598 49.3252 463.733 49.1019 463.833 48.8467C463.933 48.5869 464.004 48.3066 464.045 48.0059H465.31ZM467.47 40.5H471.25V49.9062H473.663V51H467.47V49.9062H469.985V41.6006H467.47V40.5ZM475.878 43.6035H479.658V49.9062H482.071V51H475.878V49.9062H478.394V44.7041H475.878V43.6035ZM478.229 41.6621C478.229 41.4525 478.291 41.277 478.414 41.1357C478.542 40.9899 478.733 40.917 478.988 40.917C479.239 40.917 479.428 40.9899 479.556 41.1357C479.683 41.277 479.747 41.4525 479.747 41.6621C479.747 41.8672 479.683 42.0381 479.556 42.1748C479.428 42.3115 479.239 42.3799 478.988 42.3799C478.733 42.3799 478.542 42.3115 478.414 42.1748C478.291 42.0381 478.229 41.8672 478.229 41.6621ZM487.355 51.1367C486.836 51.1367 486.357 51.0479 485.92 50.8701C485.487 50.6924 485.116 50.444 484.806 50.125C484.496 49.806 484.254 49.4277 484.081 48.9902C483.908 48.5527 483.821 48.0765 483.821 47.5615V47.2744C483.821 46.6774 483.917 46.1442 484.108 45.6748C484.3 45.2008 484.553 44.8021 484.867 44.4785C485.186 44.1504 485.546 43.8997 485.947 43.7266C486.353 43.5534 486.768 43.4668 487.191 43.4668C487.725 43.4668 488.189 43.5602 488.586 43.7471C488.987 43.9294 489.32 44.1846 489.584 44.5127C489.848 44.8363 490.044 45.2191 490.172 45.6611C490.304 46.1032 490.37 46.5817 490.37 47.0967V47.6641H485.086C485.1 48.0013 485.163 48.318 485.277 48.6143C485.396 48.9105 485.555 49.1702 485.756 49.3936C485.961 49.6123 486.205 49.7855 486.487 49.9131C486.77 50.0407 487.082 50.1045 487.424 50.1045C487.875 50.1045 488.276 50.0133 488.627 49.8311C488.978 49.6488 489.27 49.4072 489.502 49.1064L490.274 49.708C490.151 49.8949 489.996 50.0749 489.81 50.248C489.627 50.4167 489.415 50.5671 489.174 50.6992C488.932 50.8314 488.659 50.9362 488.354 51.0137C488.048 51.0957 487.715 51.1367 487.355 51.1367ZM487.191 44.5059C486.936 44.5059 486.695 44.5537 486.467 44.6494C486.239 44.7406 486.034 44.8773 485.852 45.0596C485.669 45.2373 485.514 45.4583 485.387 45.7227C485.264 45.9824 485.177 46.2832 485.127 46.625H489.105V46.5293C489.092 46.2832 489.044 46.0394 488.962 45.7979C488.884 45.5563 488.768 45.3398 488.613 45.1484C488.458 44.957 488.262 44.8021 488.025 44.6836C487.793 44.5651 487.515 44.5059 487.191 44.5059ZM493.631 43.6035L493.72 44.6973C493.989 44.3145 494.319 44.016 494.711 43.8018C495.103 43.583 495.54 43.4714 496.023 43.4668C496.411 43.4668 496.762 43.5215 497.076 43.6309C497.395 43.7402 497.666 43.9111 497.89 44.1436C498.113 44.376 498.284 44.6722 498.402 45.0322C498.525 45.3877 498.587 45.8115 498.587 46.3037V51H497.322V46.3311C497.322 46.0029 497.286 45.7249 497.213 45.4971C497.14 45.2692 497.031 45.0846 496.885 44.9434C496.743 44.8021 496.568 44.6995 496.358 44.6357C496.153 44.5719 495.916 44.54 495.647 44.54C495.224 44.54 494.85 44.6471 494.526 44.8613C494.207 45.071 493.952 45.349 493.761 45.6953V51H492.496V43.6035H493.631ZM503.898 41.8125V43.6035H506.715V44.5811H503.898V48.6006C503.898 48.8877 503.935 49.1247 504.008 49.3115C504.081 49.4984 504.181 49.6488 504.309 49.7627C504.436 49.8721 504.582 49.9495 504.746 49.9951C504.915 50.0407 505.092 50.0635 505.279 50.0635C505.416 50.0635 505.557 50.0566 505.703 50.043C505.849 50.0247 505.99 50.0042 506.127 49.9814C506.268 49.9587 506.398 49.9359 506.517 49.9131C506.64 49.8857 506.74 49.863 506.817 49.8447L506.995 50.7402C506.89 50.804 506.763 50.861 506.612 50.9111C506.462 50.9567 506.298 50.9954 506.12 51.0273C505.942 51.0638 505.753 51.0911 505.553 51.1094C505.357 51.1276 505.161 51.1367 504.965 51.1367C504.637 51.1367 504.329 51.0911 504.042 51C503.759 50.9043 503.513 50.7562 503.304 50.5557C503.094 50.3506 502.928 50.0885 502.805 49.7695C502.686 49.446 502.627 49.0563 502.627 48.6006V44.5811H500.686V43.6035H502.627V41.8125H503.898ZM514.521 48.4844C514.521 48.179 514.451 47.9215 514.31 47.7119C514.173 47.5023 513.995 47.3268 513.776 47.1855C513.558 47.0397 513.316 46.9189 513.052 46.8232C512.792 46.7275 512.541 46.641 512.3 46.5635C511.949 46.4495 511.591 46.3128 511.227 46.1533C510.867 45.9938 510.536 45.7979 510.235 45.5654C509.939 45.333 509.695 45.0596 509.504 44.7451C509.317 44.4261 509.224 44.0524 509.224 43.624C509.224 43.1956 509.317 42.8128 509.504 42.4756C509.695 42.1383 509.944 41.8535 510.249 41.6211C510.554 41.3887 510.901 41.2132 511.288 41.0947C511.675 40.9717 512.065 40.9102 512.457 40.9102C512.89 40.9102 513.307 40.9831 513.708 41.1289C514.109 41.2702 514.465 41.4707 514.774 41.7305C515.084 41.9902 515.333 42.3047 515.52 42.6738C515.706 43.043 515.804 43.4554 515.813 43.9111H514.515C514.478 43.624 514.408 43.3643 514.303 43.1318C514.198 42.8949 514.059 42.6921 513.886 42.5234C513.713 42.3548 513.505 42.2249 513.264 42.1338C513.027 42.0381 512.758 41.9902 512.457 41.9902C512.215 41.9902 511.979 42.0244 511.746 42.0928C511.518 42.1611 511.313 42.2637 511.131 42.4004C510.953 42.5371 510.81 42.7057 510.7 42.9062C510.595 43.1068 510.543 43.3392 510.543 43.6035C510.548 43.8906 510.62 44.1344 510.762 44.335C510.903 44.5309 511.081 44.6973 511.295 44.834C511.514 44.9707 511.748 45.0846 511.999 45.1758C512.254 45.2669 512.493 45.3467 512.717 45.415C512.963 45.4925 513.211 45.5814 513.462 45.6816C513.713 45.7773 513.954 45.889 514.187 46.0166C514.419 46.1442 514.635 46.2878 514.836 46.4473C515.036 46.6068 515.212 46.7891 515.362 46.9941C515.513 47.1947 515.629 47.418 515.711 47.6641C515.798 47.9056 515.841 48.1745 515.841 48.4707C515.841 48.9173 515.741 49.307 515.54 49.6396C515.344 49.9723 515.089 50.2503 514.774 50.4736C514.46 50.6924 514.104 50.8587 513.708 50.9727C513.312 51.082 512.915 51.1367 512.519 51.1367C512.076 51.1367 511.644 51.0684 511.22 50.9316C510.796 50.7949 510.415 50.599 510.078 50.3438C509.745 50.084 509.474 49.7695 509.265 49.4004C509.055 49.0267 508.943 48.6029 508.93 48.1289H510.222C510.263 48.4388 510.347 48.7145 510.475 48.9561C510.602 49.193 510.766 49.3958 510.967 49.5645C511.167 49.7285 511.397 49.8538 511.657 49.9404C511.922 50.0225 512.209 50.0635 512.519 50.0635C512.765 50.0635 513.006 50.0339 513.243 49.9746C513.485 49.9108 513.699 49.8151 513.886 49.6875C514.073 49.5553 514.225 49.3913 514.344 49.1953C514.462 48.9948 514.521 48.7578 514.521 48.4844ZM520.988 51.1367C520.469 51.1367 519.99 51.0479 519.553 50.8701C519.12 50.6924 518.748 50.444 518.438 50.125C518.129 49.806 517.887 49.4277 517.714 48.9902C517.541 48.5527 517.454 48.0765 517.454 47.5615V47.2744C517.454 46.6774 517.55 46.1442 517.741 45.6748C517.933 45.2008 518.186 44.8021 518.5 44.4785C518.819 44.1504 519.179 43.8997 519.58 43.7266C519.986 43.5534 520.4 43.4668 520.824 43.4668C521.357 43.4668 521.822 43.5602 522.219 43.7471C522.62 43.9294 522.952 44.1846 523.217 44.5127C523.481 44.8363 523.677 45.2191 523.805 45.6611C523.937 46.1032 524.003 46.5817 524.003 47.0967V47.6641H518.719C518.732 48.0013 518.796 48.318 518.91 48.6143C519.029 48.9105 519.188 49.1702 519.389 49.3936C519.594 49.6123 519.838 49.7855 520.12 49.9131C520.403 50.0407 520.715 50.1045 521.057 50.1045C521.508 50.1045 521.909 50.0133 522.26 49.8311C522.611 49.6488 522.902 49.4072 523.135 49.1064L523.907 49.708C523.784 49.8949 523.629 50.0749 523.442 50.248C523.26 50.4167 523.048 50.5671 522.807 50.6992C522.565 50.8314 522.292 50.9362 521.986 51.0137C521.681 51.0957 521.348 51.1367 520.988 51.1367ZM520.824 44.5059C520.569 44.5059 520.327 44.5537 520.1 44.6494C519.872 44.7406 519.667 44.8773 519.484 45.0596C519.302 45.2373 519.147 45.4583 519.02 45.7227C518.896 45.9824 518.81 46.2832 518.76 46.625H522.738V46.5293C522.725 46.2832 522.677 46.0394 522.595 45.7979C522.517 45.5563 522.401 45.3398 522.246 45.1484C522.091 44.957 521.895 44.8021 521.658 44.6836C521.426 44.5651 521.148 44.5059 520.824 44.5059ZM529.28 50.1113C529.508 50.1113 529.729 50.0749 529.943 50.002C530.162 49.929 530.356 49.8288 530.524 49.7012C530.693 49.569 530.827 49.4163 530.928 49.2432C531.033 49.0654 531.087 48.874 531.092 48.6689H532.288C532.284 48.9971 532.197 49.3115 532.028 49.6123C531.864 49.9085 531.643 50.1706 531.365 50.3984C531.087 50.6217 530.768 50.8018 530.408 50.9385C530.048 51.0706 529.672 51.1367 529.28 51.1367C528.72 51.1367 528.23 51.0365 527.811 50.8359C527.391 50.6354 527.04 50.3665 526.758 50.0293C526.48 49.6875 526.27 49.2956 526.129 48.8535C525.988 48.4069 525.917 47.9375 525.917 47.4453V47.1582C525.917 46.6706 525.988 46.2035 526.129 45.7568C526.27 45.3102 526.48 44.9183 526.758 44.5811C527.04 44.2393 527.391 43.9681 527.811 43.7676C528.23 43.5671 528.72 43.4668 529.28 43.4668C529.718 43.4668 530.119 43.5374 530.483 43.6787C530.853 43.8154 531.169 44.0046 531.434 44.2461C531.702 44.4831 531.912 44.7656 532.062 45.0938C532.213 45.4219 532.288 45.7728 532.288 46.1465H531.092C531.087 45.9232 531.037 45.7135 530.941 45.5176C530.85 45.3171 530.725 45.1416 530.565 44.9912C530.406 44.8408 530.215 44.7223 529.991 44.6357C529.772 44.5492 529.535 44.5059 529.28 44.5059C528.888 44.5059 528.558 44.5856 528.289 44.7451C528.025 44.9001 527.811 45.1051 527.646 45.3604C527.482 45.611 527.364 45.8936 527.291 46.208C527.223 46.5225 527.188 46.8392 527.188 47.1582V47.4453C527.188 47.7689 527.223 48.0902 527.291 48.4092C527.364 48.7236 527.48 49.0085 527.64 49.2637C527.804 49.5143 528.018 49.7194 528.282 49.8789C528.551 50.0339 528.884 50.1113 529.28 50.1113ZM539.384 43.4668C539.502 43.4668 539.625 43.4714 539.753 43.4805C539.881 43.485 540.001 43.4964 540.115 43.5146C540.234 43.5283 540.341 43.5465 540.437 43.5693C540.537 43.5921 540.619 43.6172 540.683 43.6445L540.512 44.8818C540.266 44.8271 540.031 44.7884 539.808 44.7656C539.589 44.7383 539.359 44.7246 539.117 44.7246C538.525 44.7246 538.044 44.859 537.675 45.1279C537.31 45.3968 537.041 45.7728 536.868 46.2559V51H535.597V43.6035H536.8L536.861 44.7793C537.162 44.3737 537.522 44.0547 537.941 43.8223C538.365 43.5853 538.846 43.4668 539.384 43.4668ZM546.213 51.1367C545.693 51.1367 545.215 51.0479 544.777 50.8701C544.344 50.6924 543.973 50.444 543.663 50.125C543.353 49.806 543.112 49.4277 542.938 48.9902C542.765 48.5527 542.679 48.0765 542.679 47.5615V47.2744C542.679 46.6774 542.774 46.1442 542.966 45.6748C543.157 45.2008 543.41 44.8021 543.725 44.4785C544.044 44.1504 544.404 43.8997 544.805 43.7266C545.21 43.5534 545.625 43.4668 546.049 43.4668C546.582 43.4668 547.047 43.5602 547.443 43.7471C547.844 43.9294 548.177 44.1846 548.441 44.5127C548.706 44.8363 548.902 45.2191 549.029 45.6611C549.161 46.1032 549.228 46.5817 549.228 47.0967V47.6641H543.943C543.957 48.0013 544.021 48.318 544.135 48.6143C544.253 48.9105 544.413 49.1702 544.613 49.3936C544.818 49.6123 545.062 49.7855 545.345 49.9131C545.627 50.0407 545.939 50.1045 546.281 50.1045C546.732 50.1045 547.133 50.0133 547.484 49.8311C547.835 49.6488 548.127 49.4072 548.359 49.1064L549.132 49.708C549.009 49.8949 548.854 50.0749 548.667 50.248C548.485 50.4167 548.273 50.5671 548.031 50.6992C547.79 50.8314 547.516 50.9362 547.211 51.0137C546.906 51.0957 546.573 51.1367 546.213 51.1367ZM546.049 44.5059C545.794 44.5059 545.552 44.5537 545.324 44.6494C545.096 44.7406 544.891 44.8773 544.709 45.0596C544.527 45.2373 544.372 45.4583 544.244 45.7227C544.121 45.9824 544.035 46.2832 543.984 46.625H547.963V46.5293C547.949 46.2832 547.901 46.0394 547.819 45.7979C547.742 45.5563 547.626 45.3398 547.471 45.1484C547.316 44.957 547.12 44.8021 546.883 44.6836C546.65 44.5651 546.372 44.5059 546.049 44.5059ZM554.348 41.8125V43.6035H557.164V44.5811H554.348V48.6006C554.348 48.8877 554.384 49.1247 554.457 49.3115C554.53 49.4984 554.63 49.6488 554.758 49.7627C554.885 49.8721 555.031 49.9495 555.195 49.9951C555.364 50.0407 555.542 50.0635 555.729 50.0635C555.865 50.0635 556.007 50.0566 556.152 50.043C556.298 50.0247 556.439 50.0042 556.576 49.9814C556.717 49.9587 556.847 49.9359 556.966 49.9131C557.089 49.8857 557.189 49.863 557.267 49.8447L557.444 50.7402C557.34 50.804 557.212 50.861 557.062 50.9111C556.911 50.9567 556.747 50.9954 556.569 51.0273C556.392 51.0638 556.202 51.0911 556.002 51.1094C555.806 51.1276 555.61 51.1367 555.414 51.1367C555.086 51.1367 554.778 51.0911 554.491 51C554.209 50.9043 553.963 50.7562 553.753 50.5557C553.543 50.3506 553.377 50.0885 553.254 49.7695C553.135 49.446 553.076 49.0563 553.076 48.6006V44.5811H551.135V43.6035H553.076V41.8125H554.348Z"
              fill="#6F42C1"/>
        <circle cx="355" cy="45" r="16" fill="#34D058"/>
        <path d="M360.636 41L352.636 49L349 45.3636" stroke="white" stroke-width="2" stroke-linecap="round"
              stroke-linejoin="round"/>
    </g>
    <defs>
        <filter id="filter0_d" x="309.114" y="0.409618" width="387.771" height="97.7711" filterUnits="userSpaceOnUse"
                color-interpolation-filters="sRGB">
            <feFlood flood-opacity="0" result="BackgroundImageFix"/>
            <feColorMatrix in="SourceAlpha" type="matrix" values="0 0 0 0 0 0 0 0 0 0 0 0 0 0 0 0 0 0 127 0"/>
            <feOffset dy="4.29519"/>
            <feGaussianBlur stdDeviation="6.44279"/>
            <feColorMatrix type="matrix" values="0 0 0 0 0.105882 0 0 0 0 0.121569 0 0 0 0 0.137255 0 0 0 0.15 0"/>
            <feBlend mode="normal" in2="BackgroundImageFix" result="effect1_dropShadow"/>
            <feBlend mode="normal" in="SourceGraphic" in2="effect1_dropShadow" result="shape"/>
        </filter>
        <clipPath id="clip0">
            <rect width="733" height="97" fill="white"/>
        </clipPath>
    </defs>
</svg>
