<!--
  - /***
  -  ** █ ---------------------------------------------------------------------------------------------------------------------
  -  ** █ ░FRAMEWORK                                  2023-12-01 23:19:27
  -  ** █ ░█▀▀█ █▀▀█ █▀▀▄ █▀▀ ░█─░█ ─▀─ █▀▀▀ █▀▀▀ █▀▀ [App\Modules\Account\Views\Processes\Creator\deny.php]
  -  ** █ ░█─── █──█ █──█ █▀▀ ░█▀▀█ ▀█▀ █─▀█ █─▀█ ▀▀█ Copyright 2023 - CloudEngine S.A.S., Inc. <admin@cgine.com>
  -  ** █ ░█▄▄█ ▀▀▀▀ ▀▀▀─ ▀▀▀ ░█─░█ ▀▀▀ ▀▀▀▀ ▀▀▀▀ ▀▀▀ Para obtener información completa sobre derechos de autor y licencia,
  -  ** █                                             consulte la LICENCIA archivo que se distribuyó con este código fuente.
  -  ** █ ---------------------------------------------------------------------------------------------------------------------
  -  ** █ EL SOFTWARE SE PROPORCIONA -TAL CUAL-, SIN GARANTÍA DE NINGÚN TIPO, EXPRESA O
  -  ** █ IMPLÍCITA, INCLUYENDO PERO NO LIMITADO A LAS GARANTÍAS DE COMERCIABILIDAD,
  -  ** █ APTITUD PARA UN PROPÓSITO PARTICULAR Y NO INFRACCIÓN. EN NINGÚN CASO SERÁ
  -  ** █ LOS AUTORES O TITULARES DE LOS DERECHOS DE AUTOR SERÁN RESPONSABLES DE CUALQUIER
  -  ** █ RECLAMO, DAÑOS U OTROS RESPONSABILIDAD, YA SEA EN UNA ACCIÓN DE CONTRATO,
  -  ** █ AGRAVIO O DE OTRO MODO, QUE SURJA DESDE, FUERA O EN RELACIÓN CON EL SOFTWARE
  -  ** █ O EL USO U OTROS NEGOCIACIONES EN EL SOFTWARE.
  -  ** █ ---------------------------------------------------------------------------------------------------------------------
  -  ** █ @Author Jose Alexis Correa Valencia <jalexiscv@gmail.com>
  -  ** █ @link https://www.codehiggs.com
  -  ** █ @Version 1.5.0 @since PHP 7, PHP 8
  -  ** █ ---------------------------------------------------------------------------------------------------------------------
  -  ** █ Datos recibidos desde el controlador - @ModuleController
  -  ** █ ---------------------------------------------------------------------------------------------------------------------
  -  ** █ @authentication, @request, @dates, @parent, @component, @view, @oid, @views, @prefix
  -  ** █ ---------------------------------------------------------------------------------------------------------------------
  -  ***/
  -->

<svg width="40" height="40" viewBox="0 0 40 40" fill="none" xmlns="http://www.w3.org/2000/svg">
    <path d="M7.04164 14.9989C7.04164 15.3523 7.32818 15.6389 7.68164 15.6389C8.0351 15.6389 8.32164 15.3523 8.32164 14.9989H7.04164ZM28.1435 30.7183C28.35 30.4314 28.2848 30.0315 27.998 29.825C27.7111 29.6185 27.3111 29.6836 27.1046 29.9705L28.1435 30.7183ZM27.063 31.0626L26.5743 30.6493L26.5743 30.6494L27.063 31.0626ZM19.1688 36.3006L18.993 35.6852L18.9926 35.6854L19.1688 36.3006ZM19.0547 36.3333L18.8624 36.9437C18.9821 36.9814 19.1102 36.9831 19.2308 36.9486L19.0547 36.3333ZM18.9417 36.2977L19.134 35.6873L19.1318 35.6866L18.9417 36.2977ZM11.4243 31.0626L11.9131 30.6494L11.9129 30.6493L11.4243 31.0626ZM11.3811 29.9736C11.1725 29.6883 10.772 29.6262 10.4867 29.8348C10.2015 30.0435 10.1393 30.4439 10.348 30.7292L11.3811 29.9736ZM8.32164 14.9989V13.4209H7.04164V14.9989H8.32164ZM9.68164 12.0609H28.75V10.7809H9.68164V12.0609ZM28.75 12.0609C29.2764 12.0609 29.7042 12.4854 29.7083 13.0118L30.9883 13.0019C30.9788 11.7725 29.9795 10.7809 28.75 10.7809V12.0609ZM8.32164 13.4209C8.32164 12.6698 8.93053 12.0609 9.68164 12.0609V10.7809C8.22361 10.7809 7.04164 11.9629 7.04164 13.4209H8.32164ZM27.1046 29.9705C26.9403 30.1988 26.7638 30.4252 26.5743 30.6493L27.5517 31.4758C27.7627 31.2263 27.9597 30.9736 28.1435 30.7183L27.1046 29.9705ZM26.5743 30.6494C23.402 34.4026 19.1412 35.6429 18.993 35.6852L19.3446 36.916C19.5682 36.8521 24.1305 35.5236 27.5518 31.4757L26.5743 30.6494ZM18.9926 35.6854L18.8785 35.718L19.2308 36.9486L19.345 36.9159L18.9926 35.6854ZM19.247 35.7229L19.134 35.6873L18.7494 36.9081L18.8624 36.9437L19.247 35.7229ZM19.1318 35.6866C19.0087 35.6483 15.0915 34.4099 11.9131 30.6494L10.9355 31.4757C14.3438 35.5081 18.5333 36.8409 18.7515 36.9088L19.1318 35.6866ZM11.9129 30.6493C11.7248 30.4268 11.5477 30.2013 11.3811 29.9736L10.348 30.7292C10.532 30.9808 10.7277 31.23 10.9356 31.4758L11.9129 30.6493Z"
          fill="#79B8FF"/>
    <path d="M11 11C11 6.58903 14.5893 3 19 3C23.4107 3 27 6.58903 27 11" stroke="#79B8FF" stroke-width="1.28"
          stroke-linecap="round" stroke-linejoin="round"/>
    <path d="M14.334 11.0002C14.334 8.50418 16.428 6.3335 19.0007 6.3335C21.5739 6.3335 23.6673 8.50418 23.6673 11.0002"
          stroke="#79B8FF" stroke-width="1.28" stroke-linecap="round" stroke-linejoin="round"/>
    <path d="M33 23.0931V26.3332C33 27.0696 32.403 27.6665 31.6667 27.6665H6.33333C5.59695 27.6665 5 27.0696 5 26.3332V18.9998C5 18.2635 5.59695 17.6665 6.33333 17.6665H29.0348"
          stroke="#2088FF" stroke-width="1.28" stroke-linecap="round" stroke-linejoin="round"/>
    <path fill-rule="evenodd" clip-rule="evenodd"
          d="M33 15C35.2091 15 37 16.7909 37 19C37 21.2091 35.2091 23 33 23C30.7909 23 29 21.2091 29 19C29 16.7909 30.7909 15 33 15Z"
          stroke="#2088FF" stroke-width="1.28" stroke-linecap="round" stroke-linejoin="round"/>
    <path d="M33.0007 18.9296V17.6655" stroke="#2088FF" stroke-width="1.28" stroke-linecap="round"
          stroke-linejoin="round"/>
    <path d="M21.0801 22.8595H27.0801" stroke="#79B8FF" stroke-width="1.28" stroke-linecap="round"
          stroke-linejoin="round"/>
    <path d="M11.0148 22.2983L9.67594 23.6618L8.35742 22.2983" stroke="#79B8FF" stroke-width="1.28"
          stroke-linecap="round" stroke-linejoin="round"/>
    <path fill-rule="evenodd" clip-rule="evenodd"
          d="M17.6673 24.3333H14.334C14.419 24.3333 14.334 24.2489 14.334 24.3333V21C14.334 21.0845 14.419 21 14.334 21H17.6673C17.5834 21 17.6673 21.0845 17.6673 21V24.3333C17.6673 24.2489 17.5834 24.3333 17.6673 24.3333Z"
          stroke="#79B8FF" stroke-width="1.28" stroke-linecap="round" stroke-linejoin="round"/>
    <path fill-rule="evenodd" clip-rule="evenodd"
          d="M33.0007 21.5033C33.3688 21.5033 33.6673 21.2048 33.6673 20.8366C33.6673 20.4684 33.3688 20.1699 33.0007 20.1699C32.6325 20.1699 32.334 20.4684 32.334 20.8366C32.334 21.2048 32.6325 21.5033 33.0007 21.5033Z"
          fill="#2088FF"/>
</svg>
