<!--
  - /***
  -  ** █ ---------------------------------------------------------------------------------------------------------------------
  -  ** █ ░FRAMEWORK                                  2023-12-01 23:19:27
  -  ** █ ░█▀▀█ █▀▀█ █▀▀▄ █▀▀ ░█─░█ ─▀─ █▀▀▀ █▀▀▀ █▀▀ [App\Modules\Account\Views\Processes\Creator\deny.php]
  -  ** █ ░█─── █──█ █──█ █▀▀ ░█▀▀█ ▀█▀ █─▀█ █─▀█ ▀▀█ Copyright 2023 - CloudEngine S.A.S., Inc. <admin@cgine.com>
  -  ** █ ░█▄▄█ ▀▀▀▀ ▀▀▀─ ▀▀▀ ░█─░█ ▀▀▀ ▀▀▀▀ ▀▀▀▀ ▀▀▀ Para obtener información completa sobre derechos de autor y licencia,
  -  ** █                                             consulte la LICENCIA archivo que se distribuyó con este código fuente.
  -  ** █ ---------------------------------------------------------------------------------------------------------------------
  -  ** █ EL SOFTWARE SE PROPORCIONA -TAL CUAL-, SIN GARANTÍA DE NINGÚN TIPO, EXPRESA O
  -  ** █ IMPLÍCITA, INCLUYENDO PERO NO LIMITADO A LAS GARANTÍAS DE COMERCIABILIDAD,
  -  ** █ APTITUD PARA UN PROPÓSITO PARTICULAR Y NO INFRACCIÓN. EN NINGÚN CASO SERÁ
  -  ** █ LOS AUTORES O TITULARES DE LOS DERECHOS DE AUTOR SERÁN RESPONSABLES DE CUALQUIER
  -  ** █ RECLAMO, DAÑOS U OTROS RESPONSABILIDAD, YA SEA EN UNA ACCIÓN DE CONTRATO,
  -  ** █ AGRAVIO O DE OTRO MODO, QUE SURJA DESDE, FUERA O EN RELACIÓN CON EL SOFTWARE
  -  ** █ O EL USO U OTROS NEGOCIACIONES EN EL SOFTWARE.
  -  ** █ ---------------------------------------------------------------------------------------------------------------------
  -  ** █ @Author Jose Alexis Correa Valencia <jalexiscv@gmail.com>
  -  ** █ @link https://www.codehiggs.com
  -  ** █ @Version 1.5.0 @since PHP 7, PHP 8
  -  ** █ ---------------------------------------------------------------------------------------------------------------------
  -  ** █ Datos recibidos desde el controlador - @ModuleController
  -  ** █ ---------------------------------------------------------------------------------------------------------------------
  -  ** █ @authentication, @request, @dates, @parent, @component, @view, @oid, @views, @prefix
  -  ** █ ---------------------------------------------------------------------------------------------------------------------
  -  ***/
  -->

<svg width="40" height="40" viewBox="0 0 40 40" fill="none" xmlns="http://www.w3.org/2000/svg">
    <defs/>
    <path clip-rule="evenodd"
          d="M22.358 14.39c1.482 0 2.819.621 3.765 1.617a5.178 5.178 0 011.43 3.58c0 1.18-.394 2.269-1.057 3.141a5.195 5.195 0 11-4.138-8.338z"
          stroke="#2088FF" stroke-width="1.28" stroke-linecap="round" stroke-linejoin="round"/>
    <path d="M22.362 19.604v-2.079" stroke="#2088FF" stroke-width="1.28" stroke-linecap="round"
          stroke-linejoin="round"/>
    <path fill-rule="evenodd" clip-rule="evenodd" d="M22.36 22.375a.693.693 0 100-1.386.693.693 0 000 1.386z"
          fill="#2088FF"/>
    <path clip-rule="evenodd" d="M22.357 11.62a7.966 7.966 0 110 15.933 7.966 7.966 0 010-15.933z" stroke="#2088FF"
          stroke-width="1.28" stroke-linecap="round" stroke-linejoin="round"/>
    <path d="M28.939 24.782c2.94 3.386 5.263 5.672 5.32 5.754.998 1.394.886 3.165-.46 4.146-1.345.981-3.305.699-4.3-.676-.114-.158-1.635-2.662-4.024-6.453"
          stroke="#2088FF" stroke-width="1.28" stroke-linecap="round" stroke-linejoin="round"/>
    <path d="M9.541 22.011H7.463M13.005 25.474H7.463M19.932 8.157H7.462M29.631 8.157h-6.235M9.541 15.084H7.463M11.62 18.547H7.462M29.63 11.62h-.692M15.083 11.62h-7.62"
          stroke="#79B8FF" stroke-width="1.28" stroke-linecap="round" stroke-linejoin="round"/>
    <path d="M4 23.396V5.386C4 4.62 4.62 4 5.385 4H31.71c.765 0 1.386.62 1.386 1.385v15.933" stroke="#79B8FF"
          stroke-width="1.28" stroke-linecap="round"/>
    <path d="M3.36 20.626a.64.64 0 111.28 0H3.36zm18.651 9.058a.64.64 0 010 1.28v-1.28zm11.724-6.94a.64.64 0 11-1.28 0h1.28zm-1.28-2.078a.64.64 0 011.28 0h-1.28zm-27.815-.04v8.313H3.36v-8.313h1.28zm0 8.313c0 .414.334.745.74.745v1.28a2.023 2.023 0 01-2.02-2.025h1.28zm.74.745H22.011v1.28H5.38v-1.28zm27.075-6.94v-.003-.004-.003-.004-.004-.003-.004-.003-.004-.003-.004-.003-.004-.003-.004-.003-.004-.003-.004-.003-.004-.003-.003-.004-.003-.004-.003-.003-.004-.003-.004-.003-.003-.004-.003-.003-.004-.003-.003-.004-.003-.003-.004-.003-.003-.003-.004-.003-.003-.003-.004-.003-.003-.003-.003-.004-.003-.003-.003-.004-.003-.003-.003-.003-.003-.004-.003-.003-.003-.003-.003-.004-.003-.003-.003-.003-.003-.003-.003-.003-.003-.004-.003-.003-.003-.003-.003-.003-.003-.003-.003-.003-.003-.003-.003-.004-.003-.003-.003-.003-.003-.003-.003-.003-.003-.003-.003-.003-.003-.003-.003-.003-.003-.003-.003-.003-.003-.003-.003-.003-.003-.003-.003-.003-.003-.003-.003-.003-.003-.003-.003-.003-.003-.003-.003-.003-.003-.003-.003-.003-.003-.003-.003-.003-.003-.003-.003-.003-.003-.003-.003-.003-.002-.003-.003-.003-.003-.003-.003-.003-.003-.003-.003-.003-.003-.003-.003-.003-.003-.003-.003-.003-.004-.003-.003-.003-.003-.003-.003-.003-.003-.003-.003-.003-.003-.003-.003-.003-.003-.003-.003-.003-.003-.003-.003-.003-.003-.004-.003-.003-.003-.003-.003-.003-.003-.003-.003-.003-.004-.003-.003-.003-.003-.003-.003-.003-.004-.003-.003-.003-.003-.003-.004-.003-.003-.003-.003-.004-.003-.003-.003-.003-.004-.003-.003-.003-.004-.003-.003-.004-.003-.003-.003-.004-.003-.003-.004-.003-.003-.004-.003-.003-.004-.003-.004-.003-.003-.004-.003-.003-.004-.003-.004-.003-.004-.003-.004-.003-.003-.004-.003-.004-.003-.004-.003-.004-.004-.003-.004-.003-.004-.003-.004-.003-.004-.004-.003-.004-.004-.003-.004-.004-.003-.004-.004-.003-.004-.004-.004-.003-.004-.004-.004-.003-.004-.004-.004-.004-.003-.004-.004-.004-.004-.004-.004-.004-.004-.004-.004-.003-.004-.004-.004-.004-.004-.004-.005-.003-.005-.004-.004-.004-.004-.004-.004-.004-.004-.005-.004-.004-.004-.004-.005-.004-.004-.004-.005-.004-.004-.005-.004-.004-.005-.004-.004-.005-.004-.004-.005-.004-.005-.004-.005-.004-.005-.004-.005-.004-.005-.005-.004-.005-.004-.005-.005-.004-.005-.005-.004-.005-.005-.005-.004-.005-.005-.005-.005-.005-.004-.005-.005-.005-.005-.005-.005-.005-.005-.005-.005-.005-.005-.005-.005-.005-.005-.005-.006-.005-.005-.005-.005-.005-.006-.005-.005-.006-.005-.005-.005-.006-.005-.006-.005-.006-.005-.005-.006-.005-.006-.005-.006-.006-.005-.006-.005-.006-.006-.005-.006-.006-.005-.006-.006-.006-.006-.005-.006-.006-.006-.006-.006-.006-.006-.006-.006-.006-.006-.006-.006-.006-.006V21v-.006-.007-.006-.006-.006-.007-.006-.006-.006-.007-.006-.007-.006-.006-.007-.006-.007-.006-.007-.006-.007-.007-.006-.007-.006-.007-.007-.006-.007-.007-.007-.007-.006-.007-.007-.007-.007-.007-.007-.007-.007-.007-.007-.007-.007-.007-.007-.008-.007-.007h1.28V22.744h-1.28z"
          fill="#79B8FF"/>
</svg>