<!--
  - /***
  -  ** █ ---------------------------------------------------------------------------------------------------------------------
  -  ** █ ░FRAMEWORK                                  2023-12-01 23:19:27
  -  ** █ ░█▀▀█ █▀▀█ █▀▀▄ █▀▀ ░█─░█ ─▀─ █▀▀▀ █▀▀▀ █▀▀ [App\Modules\Account\Views\Processes\Creator\deny.php]
  -  ** █ ░█─── █──█ █──█ █▀▀ ░█▀▀█ ▀█▀ █─▀█ █─▀█ ▀▀█ Copyright 2023 - CloudEngine S.A.S., Inc. <admin@cgine.com>
  -  ** █ ░█▄▄█ ▀▀▀▀ ▀▀▀─ ▀▀▀ ░█─░█ ▀▀▀ ▀▀▀▀ ▀▀▀▀ ▀▀▀ Para obtener información completa sobre derechos de autor y licencia,
  -  ** █                                             consulte la LICENCIA archivo que se distribuyó con este código fuente.
  -  ** █ ---------------------------------------------------------------------------------------------------------------------
  -  ** █ EL SOFTWARE SE PROPORCIONA -TAL CUAL-, SIN GARANTÍA DE NINGÚN TIPO, EXPRESA O
  -  ** █ IMPLÍCITA, INCLUYENDO PERO NO LIMITADO A LAS GARANTÍAS DE COMERCIABILIDAD,
  -  ** █ APTITUD PARA UN PROPÓSITO PARTICULAR Y NO INFRACCIÓN. EN NINGÚN CASO SERÁ
  -  ** █ LOS AUTORES O TITULARES DE LOS DERECHOS DE AUTOR SERÁN RESPONSABLES DE CUALQUIER
  -  ** █ RECLAMO, DAÑOS U OTROS RESPONSABILIDAD, YA SEA EN UNA ACCIÓN DE CONTRATO,
  -  ** █ AGRAVIO O DE OTRO MODO, QUE SURJA DESDE, FUERA O EN RELACIÓN CON EL SOFTWARE
  -  ** █ O EL USO U OTROS NEGOCIACIONES EN EL SOFTWARE.
  -  ** █ ---------------------------------------------------------------------------------------------------------------------
  -  ** █ @Author Jose Alexis Correa Valencia <jalexiscv@gmail.com>
  -  ** █ @link https://www.codehiggs.com
  -  ** █ @Version 1.5.0 @since PHP 7, PHP 8
  -  ** █ ---------------------------------------------------------------------------------------------------------------------
  -  ** █ Datos recibidos desde el controlador - @ModuleController
  -  ** █ ---------------------------------------------------------------------------------------------------------------------
  -  ** █ @authentication, @request, @dates, @parent, @component, @view, @oid, @views, @prefix
  -  ** █ ---------------------------------------------------------------------------------------------------------------------
  -  ***/
  -->

<svg width="316" height="26" viewBox="0 0 316 26" fill="none" xmlns="http://www.w3.org/2000/svg">
    <path d="M11.1499 10.5921C11.1499 11.0789 11.2025 11.4737 11.2946 11.7632C11.3999 12.0526 11.5315 12.3684 11.7157 12.7105C11.7815 12.8158 11.8078 12.9211 11.8078 13.0132C11.8078 13.1447 11.7288 13.2763 11.5578 13.4079L10.7288 13.9605C10.6104 14.0395 10.492 14.0789 10.3867 14.0789C10.2551 14.0789 10.1236 14.0132 9.99198 13.8947C9.80777 13.6974 9.64988 13.4868 9.5183 13.2763C9.38672 13.0526 9.25514 12.8026 9.1104 12.5C8.08409 13.7105 6.79461 14.3158 5.24198 14.3158C4.13672 14.3158 3.25514 14 2.6104 13.3684C1.96567 12.7368 1.63672 11.8947 1.63672 10.8421C1.63672 9.72368 2.03146 8.81579 2.83409 8.13158C3.63672 7.44737 4.70251 7.10526 6.05777 7.10526C6.50514 7.10526 6.96567 7.14474 7.45251 7.21053C7.93935 7.27632 8.43935 7.38158 8.96567 7.5V6.53947C8.96567 5.53947 8.75514 4.8421 8.34725 4.43421C7.92619 4.02632 7.21567 3.82895 6.20251 3.82895C5.74198 3.82895 5.2683 3.88158 4.78146 4C4.29461 4.11842 3.82093 4.26316 3.3604 4.44737C3.14988 4.53947 2.99198 4.5921 2.89988 4.61842C2.80777 4.64474 2.74198 4.65789 2.68935 4.65789C2.50514 4.65789 2.41303 4.52632 2.41303 4.25V3.60526C2.41303 3.39474 2.43935 3.23684 2.50514 3.14474C2.57093 3.05263 2.68935 2.96053 2.87356 2.86842C3.33409 2.63158 3.88672 2.43421 4.53146 2.27632C5.17619 2.10526 5.8604 2.02632 6.58409 2.02632C8.14988 2.02632 9.29461 2.38158 10.0315 3.09211C10.7551 3.80263 11.1236 4.88158 11.1236 6.32895V10.5921H11.1499ZM5.80777 12.5921C6.24198 12.5921 6.68935 12.5132 7.16303 12.3553C7.63672 12.1974 8.05777 11.9079 8.41303 11.5132C8.62356 11.2632 8.78146 10.9868 8.8604 10.6711C8.93935 10.3553 8.99198 9.97368 8.99198 9.52632V8.97368C8.6104 8.88158 8.20251 8.80263 7.78146 8.75C7.3604 8.69737 6.95251 8.67105 6.54461 8.67105C5.66303 8.67105 5.0183 8.8421 4.58409 9.19737C4.14988 9.55263 3.93935 10.0526 3.93935 10.7105C3.93935 11.3289 4.09724 11.7895 4.42619 12.1053C4.74198 12.4342 5.20251 12.5921 5.80777 12.5921ZM16.3736 14.0132C16.1367 14.0132 15.9788 13.9737 15.8736 13.8816C15.7683 13.8026 15.6762 13.6184 15.5972 13.3684L12.5051 3.19737C12.4262 2.93421 12.3867 2.76316 12.3867 2.67105C12.3867 2.46053 12.492 2.34211 12.7025 2.34211H13.992C14.242 2.34211 14.413 2.38158 14.5051 2.47368C14.6104 2.55263 14.6894 2.73684 14.7683 2.98684L16.9788 11.6974L19.0315 2.98684C19.0972 2.72368 19.1762 2.55263 19.2815 2.47368C19.3867 2.39474 19.5709 2.34211 19.8078 2.34211H20.8604C21.1104 2.34211 21.2815 2.38158 21.3867 2.47368C21.492 2.55263 21.5841 2.73684 21.6367 2.98684L23.7157 11.8026L25.992 2.98684C26.0709 2.72368 26.163 2.55263 26.2551 2.47368C26.3604 2.39474 26.5315 2.34211 26.7683 2.34211H27.992C28.2025 2.34211 28.3209 2.44737 28.3209 2.67105C28.3209 2.73684 28.3078 2.80263 28.2946 2.88158C28.2815 2.96053 28.2551 3.06579 28.2025 3.21053L25.0315 13.3816C24.9525 13.6447 24.8604 13.8158 24.7551 13.8947C24.6499 13.9737 24.4788 14.0263 24.2551 14.0263H23.1236C22.8736 14.0263 22.7025 13.9868 22.5972 13.8947C22.492 13.8026 22.3999 13.6316 22.3472 13.3684L20.3078 4.88158L18.2815 13.3553C18.2157 13.6184 18.1367 13.7895 18.0315 13.8816C17.9262 13.9737 17.742 14.0132 17.5051 14.0132H16.3736ZM33.2815 14.3684C32.5972 14.3684 31.913 14.2895 31.2551 14.1316C30.5972 13.9737 30.0841 13.8026 29.742 13.6053C29.5315 13.4868 29.3867 13.3553 29.3341 13.2368C29.2815 13.1184 29.2551 12.9868 29.2551 12.8684V12.1974C29.2551 11.9211 29.3604 11.7895 29.5578 11.7895C29.6367 11.7895 29.7157 11.8026 29.7946 11.8289C29.8736 11.8553 29.992 11.9079 30.1236 11.9605C30.5709 12.1579 31.0578 12.3158 31.5709 12.4211C32.0972 12.5263 32.6104 12.5789 33.1367 12.5789C33.9657 12.5789 34.6104 12.4342 35.0578 12.1447C35.5051 11.8553 35.742 11.4342 35.742 10.8947C35.742 10.5263 35.6236 10.2237 35.3867 9.97368C35.1499 9.72368 34.7025 9.5 34.0578 9.28947L32.1499 8.69737C31.1894 8.39474 30.4788 7.94737 30.0446 7.35526C29.6104 6.77632 29.3867 6.13158 29.3867 5.44737C29.3867 4.89474 29.5051 4.40789 29.742 3.98684C29.9788 3.56579 30.2946 3.19737 30.6894 2.90789C31.0841 2.60526 31.5315 2.38158 32.0578 2.22368C32.5841 2.06579 33.1367 2 33.7157 2C34.0051 2 34.3078 2.01316 34.5972 2.05263C34.8999 2.09211 35.1762 2.14474 35.4525 2.19737C35.7157 2.26316 35.9657 2.32895 36.2025 2.40789C36.4394 2.48684 36.6236 2.56579 36.7551 2.64474C36.9394 2.75 37.0709 2.85526 37.1499 2.97368C37.2288 3.07895 37.2683 3.22368 37.2683 3.40789V4.02632C37.2683 4.30263 37.163 4.44737 36.9657 4.44737C36.8604 4.44737 36.6894 4.39474 36.4657 4.28947C35.7157 3.94737 34.8736 3.77632 33.9394 3.77632C33.1894 3.77632 32.5972 3.89474 32.1894 4.14474C31.7815 4.39474 31.5709 4.77632 31.5709 5.31579C31.5709 5.68421 31.7025 6 31.9657 6.25C32.2288 6.5 32.7157 6.75 33.413 6.97368L35.2815 7.56579C36.2288 7.86842 36.913 8.28947 37.3209 8.82895C37.7288 9.36842 37.9262 9.98684 37.9262 10.6711C37.9262 11.2368 37.8078 11.75 37.5841 12.1974C37.3472 12.6447 37.0315 13.0395 36.6236 13.3553C36.2157 13.6842 35.7288 13.9211 35.163 14.0921C34.5709 14.2763 33.9525 14.3684 33.2815 14.3684Z"
          fill="#959DA5"/>
    <path fill-rule="evenodd" clip-rule="evenodd"
          d="M35.7674 20.7634C31.4384 23.9608 25.1489 25.6582 19.7411 25.6582C12.1621 25.6582 5.33316 22.8555 0.175265 18.1976C-0.232629 17.8292 0.135792 17.3292 0.622634 17.6187C6.20158 20.8555 13.0832 22.816 20.2016 22.816C25.0042 22.816 30.2805 21.816 35.1358 19.7634C35.8595 19.4345 36.4779 20.2371 35.7674 20.7634Z"
          fill="#959DA5"/>
    <path fill-rule="evenodd" clip-rule="evenodd"
          d="M37.5693 18.7106C37.0167 18 33.9114 18.3685 32.5035 18.5395C32.0825 18.5921 32.0167 18.2237 32.3982 17.9474C34.8719 16.2106 38.9377 16.7106 39.4114 17.2895C39.8851 17.8816 39.2798 21.9474 36.964 23.8948C36.6088 24.1974 36.2667 24.0395 36.4246 23.6448C36.9509 22.3421 38.1219 19.4079 37.5693 18.7106Z"
          fill="#959DA5"/>
    <path fill-rule="evenodd" clip-rule="evenodd"
          d="M112.698 12.2372C112.698 8.18977 110.738 4.99609 106.991 4.99609C103.228 4.99609 100.951 8.18977 100.951 12.2056C100.951 16.9645 103.639 19.3676 107.497 19.3676C109.378 19.3676 110.801 18.9407 111.876 18.34V15.1779C110.801 15.7155 109.568 16.0475 108.003 16.0475C106.469 16.0475 105.109 15.5099 104.935 13.6443H112.667C112.667 13.4388 112.698 12.6166 112.698 12.2372ZM104.888 10.7352C104.888 8.94866 105.979 8.20558 106.975 8.20558C107.939 8.20558 108.967 8.94866 108.967 10.7352H104.888Z"
          fill="#959DA5"/>
    <path fill-rule="evenodd" clip-rule="evenodd"
          d="M94.849 4.99609C93.2996 4.99609 92.3036 5.72337 91.7502 6.2293L91.5447 5.24906H88.0664V23.6838L92.019 22.8459L92.0348 18.3716C92.604 18.7827 93.4419 19.3676 94.8332 19.3676C97.6632 19.3676 100.24 17.091 100.24 12.0791C100.225 7.49412 97.6158 4.99609 94.849 4.99609ZM93.9004 15.8894C92.9676 15.8894 92.4142 15.5574 92.0348 15.1463L92.019 9.28068C92.43 8.82218 92.9992 8.50597 93.9004 8.50597C95.3391 8.50597 96.3352 10.1186 96.3352 12.1898C96.3352 14.3083 95.3549 15.8894 93.9004 15.8894Z"
          fill="#959DA5"/>
    <path fill-rule="evenodd" clip-rule="evenodd" d="M86.5953 3.20949V0L82.627 0.837945V4.06324L86.5953 3.20949Z"
          fill="#959DA5"/>
    <path d="M86.5953 5.26562H82.627V19.0996H86.5953V5.26562Z" fill="#959DA5"/>
    <path fill-rule="evenodd" clip-rule="evenodd"
          d="M78.3731 6.43495L78.1201 5.26499H74.7051V19.099H78.6576V9.72348C79.5905 8.50609 81.1715 8.72744 81.6616 8.90135V5.26499C81.1557 5.07526 79.3059 4.72744 78.3731 6.43495Z"
          fill="#959DA5"/>
    <path fill-rule="evenodd" clip-rule="evenodd"
          d="M70.4692 1.83398L66.6115 2.65612L66.5957 15.3201C66.5957 17.6601 68.3506 19.3834 70.6906 19.3834C71.987 19.3834 72.9356 19.1462 73.4574 18.8616V15.6522C72.9514 15.8577 70.4534 16.585 70.4534 14.245V8.6324H73.4574V5.26481H70.4534L70.4692 1.83398Z"
          fill="#959DA5"/>
    <path fill-rule="evenodd" clip-rule="evenodd"
          d="M59.7812 9.28068C59.7812 8.66408 60.2872 8.42692 61.1251 8.42692C62.3267 8.42692 63.8445 8.79056 65.0461 9.43878V5.72337C63.7338 5.20163 62.4374 4.99609 61.1251 4.99609C57.9156 4.99609 55.7812 6.67198 55.7812 9.4704C55.7812 13.834 61.7892 13.1384 61.7892 15.0198C61.7892 15.7471 61.1567 15.9842 60.2714 15.9842C58.9591 15.9842 57.2832 15.4467 55.9552 14.7194V18.4823C57.4255 19.1147 58.9117 19.3834 60.2714 19.3834C63.5599 19.3834 65.8208 17.755 65.8208 14.9249C65.805 10.2135 59.7812 11.0514 59.7812 9.28068Z"
          fill="#959DA5"/>
    <path d="M158.789 18.6901L159.961 15.9688C161.227 16.9137 162.909 17.405 164.572 17.405C165.8 17.405 166.575 16.9326 166.575 16.2145C166.556 14.2113 159.224 15.7798 159.167 10.7531C159.148 8.20189 161.416 6.23654 164.628 6.23654C166.537 6.23654 168.446 6.70898 169.806 7.78615L168.71 10.5641C167.463 9.7704 165.913 9.20347 164.439 9.20347C163.438 9.20347 162.776 9.67591 162.776 10.2806C162.795 12.246 170.184 11.1688 170.26 15.9688C170.26 18.5767 168.049 20.4098 164.874 20.4098C162.55 20.4098 160.414 19.8617 158.789 18.6901ZM203.747 14.9861C203.161 16.0066 202.065 16.7058 200.799 16.7058C198.928 16.7058 197.416 15.194 197.416 13.3232C197.416 11.4523 198.928 9.94048 200.799 9.94048C202.065 9.94048 203.161 10.6397 203.747 11.6602L206.978 9.86489C205.769 7.71056 203.444 6.23654 200.799 6.23654C196.887 6.23654 193.712 9.41134 193.712 13.3232C193.712 17.235 196.887 20.4098 200.799 20.4098C203.463 20.4098 205.769 18.9547 206.978 16.7814L203.747 14.9861ZM171.885 0.359375H175.929V20.1452H171.885V0.359375ZM208.565 0.359375V20.1452H212.61V14.2113L217.41 20.1452H222.587L216.484 13.0964L222.134 6.52H217.183L212.61 11.9814V0.359375H208.565ZM187.948 15.0239C187.362 15.9877 186.153 16.7058 184.792 16.7058C182.921 16.7058 181.41 15.194 181.41 13.3232C181.41 11.4523 182.921 9.94048 184.792 9.94048C186.153 9.94048 187.362 10.6964 187.948 11.6791V15.0239ZM187.948 6.52V8.1263C187.287 7.01134 185.643 6.23654 183.923 6.23654C180.37 6.23654 177.573 9.37355 177.573 13.3043C177.573 17.235 180.37 20.4098 183.923 20.4098C185.643 20.4098 187.287 19.635 187.948 18.52V20.1263H191.992V6.52H187.948Z"
          fill="#959DA5"/>
    <path d="M133.79 15.0043C133.79 16.3838 132.675 17.4987 131.295 17.4987C129.916 17.4987 128.801 16.3838 128.801 15.0043C128.801 13.6247 129.916 12.5098 131.295 12.5098H133.79V15.0043ZM135.037 15.0043C135.037 13.6247 136.152 12.5098 137.531 12.5098C138.911 12.5098 140.026 13.6247 140.026 15.0043V21.2405C140.026 22.62 138.911 23.735 137.531 23.735C136.152 23.735 135.037 22.62 135.037 21.2405V15.0043Z"
          fill="#959DA5"/>
    <path d="M137.531 4.98898C136.151 4.98898 135.036 3.87402 135.036 2.49449C135.036 1.11496 136.151 0 137.531 0C138.91 0 140.025 1.11496 140.025 2.49449V4.98898H137.531ZM137.531 6.25512C138.91 6.25512 140.025 7.37008 140.025 8.74961C140.025 10.1291 138.91 11.2441 137.531 11.2441H131.276C129.896 11.2441 128.781 10.1291 128.781 8.74961C128.781 7.37008 129.896 6.25512 131.276 6.25512H137.531Z"
          fill="#959DA5"/>
    <path d="M147.527 8.74961C147.527 7.37008 148.642 6.25512 150.022 6.25512C151.401 6.25512 152.516 7.37008 152.516 8.74961C152.516 10.1291 151.401 11.2441 150.022 11.2441H147.527V8.74961ZM146.28 8.74961C146.28 10.1291 145.165 11.2441 143.786 11.2441C142.406 11.2441 141.291 10.1291 141.291 8.74961V2.49449C141.291 1.11496 142.406 0 143.786 0C145.165 0 146.28 1.11496 146.28 2.49449V8.74961Z"
          fill="#959DA5"/>
    <path d="M143.786 18.746C145.165 18.746 146.28 19.8609 146.28 21.2405C146.28 22.62 145.165 23.735 143.786 23.735C142.406 23.735 141.291 22.62 141.291 21.2405V18.746H143.786ZM143.786 17.4987C142.406 17.4987 141.291 16.3838 141.291 15.0043C141.291 13.6247 142.406 12.5098 143.786 12.5098H150.041C151.42 12.5098 152.535 13.6247 152.535 15.0043C152.535 16.3838 151.42 17.4987 150.041 17.4987H143.786Z"
          fill="#959DA5"/>
    <path d="M257.701 6.60789H258.61L261.202 4.01625L261.329 2.91553C256.506 -1.34241 249.144 -0.882435 244.886 3.94108C243.703 5.27986 242.846 6.87457 242.377 8.59994C242.665 8.48181 242.985 8.46212 243.286 8.54624L248.469 7.69072C248.469 7.69072 248.733 7.25401 248.87 7.28085C251.176 4.74828 255.056 4.45297 257.719 6.60789H257.701Z"
          fill="#959DA5"/>
    <path d="M264.894 8.60043C264.298 6.40614 263.076 4.43377 261.376 2.92676L257.739 6.56364C259.274 7.81829 260.149 9.71011 260.112 11.6932V12.3393C261.9 12.3393 263.35 13.7891 263.35 15.5771C263.35 17.3651 261.9 18.8148 260.112 18.8148H253.636L252.99 19.4699V23.3538L253.636 23.9999H260.112C264.762 24.0357 268.562 20.295 268.597 15.6451C268.619 12.8208 267.228 10.179 264.894 8.60043Z"
          fill="#959DA5"/>
    <path d="M247.153 23.9585H253.629V18.7751H247.153C246.692 18.7751 246.237 18.6749 245.816 18.4834L244.907 18.7662L242.298 21.3579L242.07 22.2671C243.533 23.3732 245.319 23.9674 247.153 23.9585Z"
          fill="#959DA5"/>
    <path d="M247.152 7.1446C242.501 7.17145 238.755 10.9641 238.781 15.6158C238.798 18.2128 240.009 20.6577 242.069 22.2399L245.824 18.4848C244.196 17.7492 243.471 15.8305 244.206 14.2018C244.942 12.5731 246.861 11.8482 248.489 12.5838C249.207 12.9078 249.782 13.4841 250.107 14.2018L253.862 10.4468C252.266 8.3563 249.782 7.13386 247.152 7.1446Z"
          fill="#959DA5"/>
    <path d="M299.116 22.7183C303.097 22.0151 306.385 21.4331 306.423 21.4251L306.491 21.4106L302.733 16.9401C300.666 14.4814 298.974 12.4601 298.974 12.4485C298.974 12.4264 302.855 1.73942 302.877 1.7014C302.884 1.68869 305.525 6.24835 309.279 12.7543C312.793 18.8453 315.691 23.8674 315.718 23.9144L315.767 24L303.822 23.9985L291.878 23.9969L299.116 22.7183ZM284.781 21.355C284.781 21.3487 286.552 18.2745 288.717 14.5235L292.652 7.70341L297.238 3.85462C299.761 1.73779 301.831 0.00325034 301.84 8.69521e-05C301.848 -0.00307581 301.815 0.0804393 301.766 0.185677C301.717 0.290915 299.476 5.09764 296.786 10.8673L291.895 21.3576L288.338 21.362C286.382 21.3645 284.781 21.3613 284.781 21.355Z"
          fill="#959DA5"/>
</svg>
