<!--
  - /***
  -  ** █ ---------------------------------------------------------------------------------------------------------------------
  -  ** █ ░FRAMEWORK                                  2023-12-01 23:19:27
  -  ** █ ░█▀▀█ █▀▀█ █▀▀▄ █▀▀ ░█─░█ ─▀─ █▀▀▀ █▀▀▀ █▀▀ [App\Modules\Account\Views\Processes\Creator\deny.php]
  -  ** █ ░█─── █──█ █──█ █▀▀ ░█▀▀█ ▀█▀ █─▀█ █─▀█ ▀▀█ Copyright 2023 - CloudEngine S.A.S., Inc. <admin@cgine.com>
  -  ** █ ░█▄▄█ ▀▀▀▀ ▀▀▀─ ▀▀▀ ░█─░█ ▀▀▀ ▀▀▀▀ ▀▀▀▀ ▀▀▀ Para obtener información completa sobre derechos de autor y licencia,
  -  ** █                                             consulte la LICENCIA archivo que se distribuyó con este código fuente.
  -  ** █ ---------------------------------------------------------------------------------------------------------------------
  -  ** █ EL SOFTWARE SE PROPORCIONA -TAL CUAL-, SIN GARANTÍA DE NINGÚN TIPO, EXPRESA O
  -  ** █ IMPLÍCITA, INCLUYENDO PERO NO LIMITADO A LAS GARANTÍAS DE COMERCIABILIDAD,
  -  ** █ APTITUD PARA UN PROPÓSITO PARTICULAR Y NO INFRACCIÓN. EN NINGÚN CASO SERÁ
  -  ** █ LOS AUTORES O TITULARES DE LOS DERECHOS DE AUTOR SERÁN RESPONSABLES DE CUALQUIER
  -  ** █ RECLAMO, DAÑOS U OTROS RESPONSABILIDAD, YA SEA EN UNA ACCIÓN DE CONTRATO,
  -  ** █ AGRAVIO O DE OTRO MODO, QUE SURJA DESDE, FUERA O EN RELACIÓN CON EL SOFTWARE
  -  ** █ O EL USO U OTROS NEGOCIACIONES EN EL SOFTWARE.
  -  ** █ ---------------------------------------------------------------------------------------------------------------------
  -  ** █ @Author Jose Alexis Correa Valencia <jalexiscv@gmail.com>
  -  ** █ @link https://www.codehiggs.com
  -  ** █ @Version 1.5.0 @since PHP 7, PHP 8
  -  ** █ ---------------------------------------------------------------------------------------------------------------------
  -  ** █ Datos recibidos desde el controlador - @ModuleController
  -  ** █ ---------------------------------------------------------------------------------------------------------------------
  -  ** █ @authentication, @request, @dates, @parent, @component, @view, @oid, @views, @prefix
  -  ** █ ---------------------------------------------------------------------------------------------------------------------
  -  ***/
  -->

<svg width="107" height="32" fill="none" xmlns="http://www.w3.org/2000/svg">
    <path d="M16.028.053C7.203.053.048 7.194.048 16.003c0 8.81 7.155 15.951 15.98 15.951 8.826 0 15.98-7.14 15.98-15.95 0-8.81-7.154-15.95-15.98-15.95V.052zm7.328 23.005a.997.997 0 01-1.37.33c-3.752-2.288-8.475-2.806-14.037-1.537a.996.996 0 01-1.193-.749.993.993 0 01.75-1.19c6.086-1.388 11.308-.79 15.52 1.779.47.287.618.899.33 1.367zm1.956-4.343c-.36.585-1.128.77-1.714.41-4.295-2.635-10.842-3.399-15.923-1.86a1.248 1.248 0 01-1.555-.828 1.245 1.245 0 01.831-1.55c5.804-1.758 13.018-.907 17.95 2.119.587.36.772 1.125.41 1.71zm.168-4.522c-5.15-3.054-13.647-3.335-18.565-1.845a1.492 1.492 0 11-.868-2.855c5.645-1.71 15.029-1.38 20.958 2.133.712.421.945 1.337.523 2.045-.42.709-1.34.943-2.047.522h-.001zm18.043.585c-2.759-.657-3.25-1.118-3.25-2.087 0-.915.863-1.53 2.148-1.53 1.244 0 2.476.467 3.77 1.43.038.029.088.04.136.033a.178.178 0 00.12-.074l1.347-1.895a.18.18 0 00-.034-.245c-1.54-1.233-3.273-1.833-5.3-1.833-2.978 0-5.06 1.785-5.06 4.338 0 2.738 1.796 3.708 4.898 4.456 2.64.607 3.086 1.116 3.086 2.025 0 1.007-.9 1.634-2.35 1.634-1.611 0-2.926-.543-4.395-1.812a.188.188 0 00-.132-.043.179.179 0 00-.124.063l-1.511 1.794a.181.181 0 00.017.251c1.71 1.524 3.812 2.328 6.083 2.328 3.21 0 5.284-1.75 5.284-4.461.005-2.287-1.367-3.554-4.727-4.37l-.006-.002zm11.995-2.716c-1.39 0-2.532.546-3.474 1.668v-1.262c0-.1-.08-.181-.18-.181h-2.471a.18.18 0 00-.18.18v14.02c0 .1.08.181.18.181h2.471c.1 0 .18-.082.18-.181v-4.425c.942 1.054 2.083 1.57 3.474 1.57 2.586 0 5.204-1.987 5.204-5.785.004-3.799-2.614-5.786-5.202-5.786h-.002zm2.33 5.785c0 1.933-1.192 3.284-2.902 3.284-1.689 0-2.964-1.412-2.964-3.284 0-1.872 1.275-3.283 2.964-3.283 1.68 0 2.902 1.38 2.902 3.283zm9.581-5.786c-3.33 0-5.938 2.56-5.938 5.828 0 3.232 2.591 5.764 5.898 5.764 3.341 0 5.957-2.55 5.957-5.806 0-3.244-2.599-5.785-5.917-5.785zm0 9.089c-1.77 0-3.106-1.421-3.106-3.304 0-1.891 1.29-3.263 3.066-3.263 1.782 0 3.126 1.42 3.126 3.305 0 1.89-1.298 3.262-3.086 3.262zm13.027-8.863h-2.719V9.513c0-.1-.08-.181-.18-.181h-2.47c-.1 0-.182.081-.182.18v2.775h-1.187a.18.18 0 00-.179.18v2.12c0 .1.08.181.18.181h1.186v5.485c0 2.215 1.105 3.339 3.286 3.339.885 0 1.62-.183 2.313-.575a.176.176 0 00.091-.157v-2.019a.18.18 0 00-.085-.152.175.175 0 00-.176-.008 3.123 3.123 0 01-1.45.349c-.792 0-1.147-.36-1.147-1.164V14.77h2.72c.098 0 .178-.081.178-.18v-2.12a.175.175 0 00-.177-.18l-.002-.002zm9.472.01v-.34c0-1.002.386-1.45 1.248-1.45.515 0 .93.103 1.393.257a.179.179 0 00.162-.025.179.179 0 00.075-.147V8.514c0-.08-.05-.15-.128-.173a6.778 6.778 0 00-2.053-.295c-2.28 0-3.488 1.283-3.488 3.708v.522H85.95c-.1 0-.181.082-.181.18v2.131c0 .1.081.181.18.181h1.188v8.458c0 .101.082.181.18.181h2.47a.18.18 0 00.181-.18v-8.459h2.307l3.534 8.458c-.4.888-.796 1.065-1.334 1.065-.435 0-.894-.13-1.362-.387a.197.197 0 00-.143-.013.18.18 0 00-.107.097l-.838 1.834a.18.18 0 00.079.235c.874.472 1.662.674 2.637.674 1.824 0 2.833-.85 3.72-3.132l4.286-11.054a.174.174 0 00-.019-.168.175.175 0 00-.147-.079h-2.572a.18.18 0 00-.172.122l-2.635 7.51-2.885-7.515a.18.18 0 00-.168-.117h-4.22zm-5.491-.01h-2.471c-.1 0-.182.081-.182.18v10.76c0 .1.082.18.181.18h2.472c.099 0 .18-.08.18-.18V12.468c0-.1-.08-.181-.18-.181v-.001zm-1.222-4.899a1.77 1.77 0 00-1.772 1.768c0 .977.793 1.77 1.772 1.77a1.77 1.77 0 100-3.538zm21.643 8.358a1.731 1.731 0 01-1.739-1.735c0-.952.771-1.745 1.748-1.745a1.73 1.73 0 011.739 1.735c0 .952-.771 1.745-1.748 1.745zm.009-3.307c-.891 0-1.564.706-1.564 1.572a1.54 1.54 0 001.555 1.562c.891 0 1.564-.706 1.564-1.572a1.54 1.54 0 00-1.555-1.562zm.386 1.74l.492.687h-.416l-.443-.63h-.379v.63h-.348v-1.821h.813c.426 0 .704.216.704.58.002.3-.171.482-.421.554h-.002zm-.294-.822h-.452v.577h.452c.225 0 .361-.11.361-.289 0-.187-.136-.288-.361-.288z"
          fill="#fff"/>
</svg>