<!--
  - /***
  -  ** █ ---------------------------------------------------------------------------------------------------------------------
  -  ** █ ░FRAMEWORK                                  2023-12-01 23:19:27
  -  ** █ ░█▀▀█ █▀▀█ █▀▀▄ █▀▀ ░█─░█ ─▀─ █▀▀▀ █▀▀▀ █▀▀ [App\Modules\Account\Views\Processes\Creator\deny.php]
  -  ** █ ░█─── █──█ █──█ █▀▀ ░█▀▀█ ▀█▀ █─▀█ █─▀█ ▀▀█ Copyright 2023 - CloudEngine S.A.S., Inc. <admin@cgine.com>
  -  ** █ ░█▄▄█ ▀▀▀▀ ▀▀▀─ ▀▀▀ ░█─░█ ▀▀▀ ▀▀▀▀ ▀▀▀▀ ▀▀▀ Para obtener información completa sobre derechos de autor y licencia,
  -  ** █                                             consulte la LICENCIA archivo que se distribuyó con este código fuente.
  -  ** █ ---------------------------------------------------------------------------------------------------------------------
  -  ** █ EL SOFTWARE SE PROPORCIONA -TAL CUAL-, SIN GARANTÍA DE NINGÚN TIPO, EXPRESA O
  -  ** █ IMPLÍCITA, INCLUYENDO PERO NO LIMITADO A LAS GARANTÍAS DE COMERCIABILIDAD,
  -  ** █ APTITUD PARA UN PROPÓSITO PARTICULAR Y NO INFRACCIÓN. EN NINGÚN CASO SERÁ
  -  ** █ LOS AUTORES O TITULARES DE LOS DERECHOS DE AUTOR SERÁN RESPONSABLES DE CUALQUIER
  -  ** █ RECLAMO, DAÑOS U OTROS RESPONSABILIDAD, YA SEA EN UNA ACCIÓN DE CONTRATO,
  -  ** █ AGRAVIO O DE OTRO MODO, QUE SURJA DESDE, FUERA O EN RELACIÓN CON EL SOFTWARE
  -  ** █ O EL USO U OTROS NEGOCIACIONES EN EL SOFTWARE.
  -  ** █ ---------------------------------------------------------------------------------------------------------------------
  -  ** █ @Author Jose Alexis Correa Valencia <jalexiscv@gmail.com>
  -  ** █ @link https://www.codehiggs.com
  -  ** █ @Version 1.5.0 @since PHP 7, PHP 8
  -  ** █ ---------------------------------------------------------------------------------------------------------------------
  -  ** █ Datos recibidos desde el controlador - @ModuleController
  -  ** █ ---------------------------------------------------------------------------------------------------------------------
  -  ** █ @authentication, @request, @dates, @parent, @component, @view, @oid, @views, @prefix
  -  ** █ ---------------------------------------------------------------------------------------------------------------------
  -  ***/
  -->

<svg xmlns:xlink="http://www.w3.org/1999/xlink" fill="none" height="32" width="134" xmlns="http://www.w3.org/2000/svg">
    <clipPath id="a">
        <path d="m0 0h134v32h-134z"/>
    </clipPath>
    <g clip-path="url(#a)" clip-rule="evenodd" fill="#fff" fill-rule="evenodd">
        <path d="m12.142 12.273c.067.235.089.407.111.77h3.053c0-.32-.023-.599-.067-.877-.446-2.87-3.008-5.055-6.127-5.055h-9.202v17.778h6.194v-2.935h-3.097v-11.866h6.105c1.426 0 2.651.921 3.03 2.185zm3.186 6.661v-2.934h-3.098v2.891c0 1.67-1.493 3.042-3.23 3.042h.178v2.954l-.134.002h.134v-.002c3.35-.069 6.149-2.719 6.149-5.953z"
              fill-opacity=".5"/>
        <path d="m50.864 12.295c1.337 0 2.362.707 2.362 2.013v3.234c0 1.285-1.048 2.014-2.362 2.014-1.337 0-2.362-.729-2.362-2.014v-3.234c0-1.285 1.047-2.013 2.362-2.013zm-4.768 5.247c0 2.464 1.738 4.134 4.79 4.134 3.03 0 4.768-1.649 4.79-4.134v-3.234c0-2.485-1.738-4.155-4.79-4.155s-4.79 1.67-4.79 4.155zm-7.508-5.076c1.337 0 2.361.728 2.361 2.013v2.913c0 1.286-1.047 2.014-2.361 2.014h-2.362v-6.94zm-4.768-2.142v11.202h4.79c3.052 0 4.79-1.649 4.79-4.134v-2.934c0-2.463-1.738-4.134-4.79-4.134zm31.125 4.927-2.05 6.275h-2.629l-2.317-11.202h2.428l1.47 7.583 2.363-7.583h1.492l2.362 7.583 1.47-7.583h2.429l-2.34 11.202h-2.606zm21.21-4.927h-2.428v7.925c0 .728-.401 1.285-1.337 1.285-.78 0-1.248-.428-1.314-1.22h-2.451c0 2.227 1.403 3.362 3.765 3.362s3.765-1.135 3.765-3.363zm10.093 3.984c0-1.306-1.025-2.013-2.362-2.013-1.314 0-2.361.728-2.361 2.013v3.234c0 1.285 1.024 2.014 2.361 2.014 1.315 0 2.362-.729 2.362-2.014zm-2.362 7.368c-3.052 0-4.79-1.67-4.79-4.134v-3.234c0-2.485 1.738-4.155 4.79-4.155 3.053 0 4.79 1.67 4.79 4.155v3.234c0 2.485-1.737 4.134-4.79 4.134zm14.883-.15h2.429v-11.202h-2.429v7.218l-4.701-7.218h-2.428v11.202h2.428v-7.218zm8.066-6.725h4.723v2.142h-4.723v2.463h5.28v2.12h-7.709v-11.202h7.709v2.142h-5.28zm10.337 3.191h-2.495c.111 2.228 1.916 3.684 4.701 3.706 2.74 0 4.233-1.243 4.233-3.256 0-1.885-1.047-2.934-3.008-3.406l-2.072-.492c-.69-.172-1.27-.45-1.27-1.114 0-.793.713-1.135 1.738-1.135.802 0 1.694.342 1.916 1.092h2.496c-.29-1.906-1.849-3.213-4.389-3.213-2.228 0-4.211 1.007-4.211 3.256 0 1.65.958 2.849 2.896 3.32l2.139.514c.891.193 1.314.557 1.314 1.178 0 .771-.735 1.114-1.804 1.114-1.203 0-2.05-.621-2.184-1.564z"/>
    </g>
</svg>