<!--
  - /***
  -  ** █ ---------------------------------------------------------------------------------------------------------------------
  -  ** █ ░FRAMEWORK                                  2023-12-01 23:19:27
  -  ** █ ░█▀▀█ █▀▀█ █▀▀▄ █▀▀ ░█─░█ ─▀─ █▀▀▀ █▀▀▀ █▀▀ [App\Modules\Account\Views\Processes\Creator\deny.php]
  -  ** █ ░█─── █──█ █──█ █▀▀ ░█▀▀█ ▀█▀ █─▀█ █─▀█ ▀▀█ Copyright 2023 - CloudEngine S.A.S., Inc. <admin@cgine.com>
  -  ** █ ░█▄▄█ ▀▀▀▀ ▀▀▀─ ▀▀▀ ░█─░█ ▀▀▀ ▀▀▀▀ ▀▀▀▀ ▀▀▀ Para obtener información completa sobre derechos de autor y licencia,
  -  ** █                                             consulte la LICENCIA archivo que se distribuyó con este código fuente.
  -  ** █ ---------------------------------------------------------------------------------------------------------------------
  -  ** █ EL SOFTWARE SE PROPORCIONA -TAL CUAL-, SIN GARANTÍA DE NINGÚN TIPO, EXPRESA O
  -  ** █ IMPLÍCITA, INCLUYENDO PERO NO LIMITADO A LAS GARANTÍAS DE COMERCIABILIDAD,
  -  ** █ APTITUD PARA UN PROPÓSITO PARTICULAR Y NO INFRACCIÓN. EN NINGÚN CASO SERÁ
  -  ** █ LOS AUTORES O TITULARES DE LOS DERECHOS DE AUTOR SERÁN RESPONSABLES DE CUALQUIER
  -  ** █ RECLAMO, DAÑOS U OTROS RESPONSABILIDAD, YA SEA EN UNA ACCIÓN DE CONTRATO,
  -  ** █ AGRAVIO O DE OTRO MODO, QUE SURJA DESDE, FUERA O EN RELACIÓN CON EL SOFTWARE
  -  ** █ O EL USO U OTROS NEGOCIACIONES EN EL SOFTWARE.
  -  ** █ ---------------------------------------------------------------------------------------------------------------------
  -  ** █ @Author Jose Alexis Correa Valencia <jalexiscv@gmail.com>
  -  ** █ @link https://www.codehiggs.com
  -  ** █ @Version 1.5.0 @since PHP 7, PHP 8
  -  ** █ ---------------------------------------------------------------------------------------------------------------------
  -  ** █ Datos recibidos desde el controlador - @ModuleController
  -  ** █ ---------------------------------------------------------------------------------------------------------------------
  -  ** █ @authentication, @request, @dates, @parent, @component, @view, @oid, @views, @prefix
  -  ** █ ---------------------------------------------------------------------------------------------------------------------
  -  ***/
  -->

<svg width="53" height="36" fill="none" xmlns="http://www.w3.org/2000/svg">
    <path d="M2.9 26.98L.19 35.842h2.133l.49-1.652h2.643l.476 1.652h2.32l-2.71-8.864H2.9zm.448 5.428l.805-2.756.796 2.756h-1.6zm10-.609a1.728 1.728 0 00-.098-.097c.067-.025.132-.052.196-.082.25-.114.479-.274.672-.471.193-.202.344-.44.443-.701.104-.267.156-.573.156-.91 0-.463-.084-.865-.248-1.193a2.103 2.103 0 00-.715-.812 2.998 2.998 0 00-1.08-.43 6.801 6.801 0 00-1.345-.124H8.562v8.864h2.122V32.38h.063c.232 0 .425.05.591.156.165.105.291.259.387.472l1.282 2.835h2.469l-1.558-3.162c-.189-.384-.375-.672-.57-.882zm-.923-1.7a.818.818 0 01-.26.293c-.12.085-.269.15-.443.193-.184.046-.394.069-.625.069h-.413v-1.866h.466c.486 0 .847.076 1.073.227.197.132.293.353.293.677 0 .157-.03.29-.09.407zm9.268-2.067a3.274 3.274 0 00-1.34-.8c-.517-.168-1.127-.253-1.811-.253h-2.806v8.864h2.442c.789 0 1.478-.107 2.05-.32.58-.214 1.065-.526 1.44-.927.375-.399.654-.887.83-1.45.172-.55.259-1.17.259-1.84 0-.732-.088-1.373-.26-1.907a3.388 3.388 0 00-.804-1.367zm-1.735 5.387c-.368.41-.903.61-1.634.61h-.467v-5.235h.58c.408 0 .752.058 1.02.173.26.11.46.267.614.477.157.216.27.487.338.805.07.337.107.727.107 1.159 0 .922-.188 1.599-.558 2.01zm7.91-.8c0 .305-.028.565-.084.773a1.216 1.216 0 01-.228.472.803.803 0 01-.357.246 1.802 1.802 0 01-.597.084c-.253 0-.462-.032-.621-.096a.932.932 0 01-.376-.271 1.082 1.082 0 01-.213-.453 3.074 3.074 0 01-.07-.692v-5.703H23.2v5.799c0 .48.06.919.176 1.307.121.403.321.752.595 1.036.273.283.63.502 1.063.65.42.146.927.22 1.508.22.52 0 .996-.074 1.416-.22.43-.147.8-.37 1.101-.664.301-.294.535-.665.694-1.1.157-.43.237-.93.237-1.492V26.98h-2.122v5.64zm3.207-3.857h1.904v5.285h-1.904v1.796h5.957v-1.796h-1.904v-5.285h1.904V26.98h-5.957v1.783zm11.861 3.268l-2.372-5.05h-2.401v8.863h1.976v-5.147l2.384 5.147h2.39V26.98h-1.977v5.05zm8.846-4.002c-.62-.79-1.548-1.19-2.76-1.19-.518 0-1.013.092-1.47.274-.463.184-.872.47-1.216.852-.341.378-.612.864-.805 1.445-.19.573-.287 1.26-.287 2.044 0 1.446.307 2.571.912 3.345.62.791 1.549 1.192 2.76 1.192.519 0 1.014-.092 1.47-.273.464-.184.873-.47 1.217-.852.34-.378.611-.864.805-1.445.19-.573.287-1.26.287-2.044 0-1.45-.307-2.577-.913-3.348zm-1.396 4.606c-.061.327-.156.602-.282.82-.12.206-.268.358-.453.462a1.374 1.374 0 01-.682.157c-.53 0-.9-.198-1.13-.604-.253-.447-.38-1.15-.38-2.093 0-.443.031-.84.094-1.18.06-.327.156-.603.284-.82.122-.207.27-.359.455-.464.181-.104.41-.156.677-.156.535 0 .905.197 1.133.603.251.447.378 1.152.378 2.094 0 .443-.031.84-.094 1.18zm-.757-31.446h.377v.991h.267v-.991h.38V.94H49.63v.247zM51.583.94l-.258.844-.266-.844h-.349V2.18h.252v-.79l.249.79h.229l.236-.77v.77h.25V.941h-.343zM39.295 24.895c-3.363 0-6.24-1.136-8.77-3.46-1.564-1.435-2.853-3.194-4.039-5.022C25.3 18.24 24.011 20 22.448 21.435c-2.72 2.497-5.838 3.623-9.53 3.441C5.874 24.846.154 19.278.154 12.438.155 5.58 5.906 0 12.975 0c3.869 0 7.126 1.283 9.957 3.92 1.36 1.268 2.507 2.738 3.554 4.276 1.047-1.538 2.195-3.008 3.555-4.275C32.87 1.283 36.128 0 39.997 0c7.07 0 12.82 5.58 12.82 12.438 0 6.84-5.72 12.408-12.762 12.438-.253.013-.506.02-.76.02zM29.061 12.272c1.404 2.28 2.765 4.404 4.424 5.926 1.872 1.72 3.846 2.427 6.397 2.292l.115-.003c4.653 0 8.438-3.61 8.438-8.049 0-4.438-3.785-8.048-8.438-8.048-2.747 0-4.962.872-6.972 2.745-1.5 1.399-2.74 3.19-3.963 5.137zM12.976 4.39c-4.653 0-8.438 3.61-8.438 8.048 0 4.438 3.785 8.048 8.438 8.048l.115.004c2.552.135 4.525-.572 6.397-2.292 1.659-1.522 3.02-3.645 4.424-5.926-1.224-1.946-2.463-3.738-3.964-5.137-2.01-1.873-4.225-2.745-6.972-2.745z"
          fill="#fff"/>
    <path d="M40.576 10.842v-2.38h-2.474v2.38h-2.375v2.466h2.376v2.398h2.473v-2.398h2.376v-2.466h-2.376zm-31.159-.03h7.81v2.544h-7.81v-2.543z"
          fill="#fff"/>
</svg>