<!--
  - /***
  -  ** █ ---------------------------------------------------------------------------------------------------------------------
  -  ** █ ░FRAMEWORK                                  2023-12-01 23:19:27
  -  ** █ ░█▀▀█ █▀▀█ █▀▀▄ █▀▀ ░█─░█ ─▀─ █▀▀▀ █▀▀▀ █▀▀ [App\Modules\Account\Views\Processes\Creator\deny.php]
  -  ** █ ░█─── █──█ █──█ █▀▀ ░█▀▀█ ▀█▀ █─▀█ █─▀█ ▀▀█ Copyright 2023 - CloudEngine S.A.S., Inc. <admin@cgine.com>
  -  ** █ ░█▄▄█ ▀▀▀▀ ▀▀▀─ ▀▀▀ ░█─░█ ▀▀▀ ▀▀▀▀ ▀▀▀▀ ▀▀▀ Para obtener información completa sobre derechos de autor y licencia,
  -  ** █                                             consulte la LICENCIA archivo que se distribuyó con este código fuente.
  -  ** █ ---------------------------------------------------------------------------------------------------------------------
  -  ** █ EL SOFTWARE SE PROPORCIONA -TAL CUAL-, SIN GARANTÍA DE NINGÚN TIPO, EXPRESA O
  -  ** █ IMPLÍCITA, INCLUYENDO PERO NO LIMITADO A LAS GARANTÍAS DE COMERCIABILIDAD,
  -  ** █ APTITUD PARA UN PROPÓSITO PARTICULAR Y NO INFRACCIÓN. EN NINGÚN CASO SERÁ
  -  ** █ LOS AUTORES O TITULARES DE LOS DERECHOS DE AUTOR SERÁN RESPONSABLES DE CUALQUIER
  -  ** █ RECLAMO, DAÑOS U OTROS RESPONSABILIDAD, YA SEA EN UNA ACCIÓN DE CONTRATO,
  -  ** █ AGRAVIO O DE OTRO MODO, QUE SURJA DESDE, FUERA O EN RELACIÓN CON EL SOFTWARE
  -  ** █ O EL USO U OTROS NEGOCIACIONES EN EL SOFTWARE.
  -  ** █ ---------------------------------------------------------------------------------------------------------------------
  -  ** █ @Author Jose Alexis Correa Valencia <jalexiscv@gmail.com>
  -  ** █ @link https://www.codehiggs.com
  -  ** █ @Version 1.5.0 @since PHP 7, PHP 8
  -  ** █ ---------------------------------------------------------------------------------------------------------------------
  -  ** █ Datos recibidos desde el controlador - @ModuleController
  -  ** █ ---------------------------------------------------------------------------------------------------------------------
  -  ** █ @authentication, @request, @dates, @parent, @component, @view, @oid, @views, @prefix
  -  ** █ ---------------------------------------------------------------------------------------------------------------------
  -  ***/
  -->

<svg width="84" height="32" fill="none" xmlns="http://www.w3.org/2000/svg">
    <path fill-rule="evenodd" clip-rule="evenodd"
          d="M0 15.998C0 7.271 18.619.31 41.841.31c23.072 0 41.841 7.035 41.841 15.688S64.913 31.69 41.841 31.69C18.772 31.69 0 24.673 0 15.998zm58.517 3.5c-.09-.035-.183-.102-.194-.177a.19.19 0 01.014-.142c.337-.685.577-1.557-.18-1.92-.725-.348-1.837.296-2.843 1.53-.824 1.015-1.273 2.044-1.288 3.051-.004.355.131.797.445.962.712.37 1.569-.184 2.19-.696a5.129 5.129 0 001.048-1.134l.132-.197c.26-.385.466-.69.691-1.166.038-.078.023-.1-.015-.112zm7.78-8.167c.124 0 .177.071.124.168v-.003c-.088.151-.616.966-1.342 2.088v.002c-1.915 2.96-5.212 8.054-5.491 8.752-.124.31-.139.542-.012.71.322.431 1.033.18 1.482-.13.953-.66 1.697-1.415 2.419-2.15.282-.287.561-.57.849-.844.056-.041.157-.06.224 0 .058.055.126.115.197.178.113.1.231.204.323.3.075.08.045.154.008.2-.996 1.215-2.096 2.364-3.151 3.177-1.64 1.268-3.275 1.594-4.084.782a1.798 1.798 0 01-.486-1.104c-.011-.199-.112-.21-.206-.116-.97.958-2.65 2.013-4.177 1.265-1.28-.637-1.575-2.16-1.335-3.443.007-.027-.023-.21-.18-.102-.262.191-.614.401-1.048.562a2.95 2.95 0 01-1.273.27 1.808 1.808 0 01-1.571-.884c-.225-.333-.311-.838-.337-1.205 0-.041-.053-.116-.112-.019-.838 1.277-1.63 2.522-2.445 3.801l-.004.007-.602.945c-.052.075-.1.124-.21.131h-2.043c-.127 0-.187-.097-.12-.217.139-.265.507-.84.984-1.587.789-1.234 1.875-2.934 2.714-4.468.37-.677.296-1.026.064-1.175-.288-.187-.86.093-1.347.464-1.117.845-2.085 2.09-2.696 2.879-.112.144-.212.272-.298.38a7.388 7.388 0 00-.34.47c-.258.372-.59.854-1.172 1.484-1.363 1.482-3.17 2.332-4.91 1.744a2.957 2.957 0 01-1.902-2.025c-.052-.18-.157-.232-.254-.112-.28.352-.857.868-1.336 1.194-.053.037-.184.116-.296.06a2.993 2.993 0 01-.528-.696.24.24 0 01.056-.277c.69-.603 1.063-.947 1.363-1.321a4.12 4.12 0 00.595-1.1c.415-1.056 1.37-3.024 3.267-4.043.726-.385 1.46-.666 2.276-.76.348-.037.636.005.74.281l.199.547c.037.112.007.198-.124.247-1.119.426-2.241 1.085-3.02 2.126-.88 1.182-1.115 2.6-.527 3.416.43.596 1.126.7 1.792.487 1.014-.318 1.875-1.265 2.32-2.313.483-1.145.562-2.5.206-3.69-.06-.206-.007-.363.127-.475a3.735 3.735 0 01.712-.427l.037-.019a.49.49 0 01.636.154c.388.64.592 1.374.588 2.122.026.168.097.172.176.082.17-.181.339-.366.506-.55.48-.53.955-1.051 1.477-1.47.644-.513 1.471-.933 2.242-.914.995.023 1.493.7 1.46 1.905-.004.15.104.142.18.037.23-.348.513-.658.837-.92.69-.57 1.397-.824 2.13-.771a1.61 1.61 0 011.482 1.834 1.848 1.848 0 01-.98 1.414c-.476.236-1.026.195-1.411-.15a1.167 1.167 0 01-.337-1.122c.019-.086-.094-.168-.187-.071-.887.92-.951 2.114-.375 2.65.64.59 1.595.194 2.294-.259.745-.487 1.39-1.073 2.025-1.65.457-.415.91-.825 1.389-1.19.763-.577 1.628-1.09 2.6-1.224a3.031 3.031 0 011.584.187c.696.28 1.137.868 1.194 1.377.01.15.127.169.217.038.192-.3.676-1.034 1.236-1.882v-.001c1.046-1.585 2.355-3.567 2.514-3.87.07-.146.153-.168.31-.168h2.115zM37.59 12.626c.026.138.083.165.146.15.35-.095.652-.313.854-.614.187-.27.273-.659.09-.816-.165-.138-.431-.101-.63.075a1.387 1.387 0 00-.46 1.205zm-15.617 12.01c-2.283.015-4.297-1.396-4.529-3.844a4.933 4.933 0 011.022-3.555c.681-.887 1.834-1.62 2.807-1.8.314-.06.741-.023.917.187.277.321.198.673-.079.816-.744.377-1.639 1.029-2.08 1.916a2.35 2.35 0 00.115 2.429c.917 1.384 3.477 1.422 5.854-.786a20.55 20.55 0 001.65-1.677c1.048-1.198 1.396-1.635 2.788-3.567.015-.022.023-.052.015-.063-.01-.026-.03-.03-.07-.038-.929.03-1.741.307-2.527.895-.224.165-.554.142-.696-.075-.157-.247-.045-.569.217-.748 1.146-.8 2.39-1.005 3.666-1.214l.398-.066s.098 0 .18-.101c.24-.311.457-.609.672-.904.303-.416.602-.827.963-1.267.625-.764 1.43-1.467 2.044-1.995.734-.629 1.242-.9 1.722-1.158l.246-.133c.15-.075-.018-.168-.063-.168l-.691-.132c-2.91-.557-5.907-1.131-8.781-.067-2.149.801-3.092 2.508-2.639 3.645.322.809 1.385.936 2.38.45a5.373 5.373 0 002.134-1.894c.299-.468.939-.131.595.68-.91 2.134-2.643 3.826-4.753 3.897-1.8.06-2.96-1.265-2.957-2.897.008-3.218 3.593-5.337 7.354-5.655 3.173-.262 6.23.251 9.321.77 1.327.223 2.661.447 4.014.611 3.45.416 6.758.427 10.228-.374.411-.086.696.176.673.588-.037.598-.501 1.175-1.643 1.796-1.298.715-2.657.932-4.079.943-2.355.02-4.6-.605-6.85-1.232-1.024-.286-2.05-.571-3.086-.796 0 .027.002.055.005.083.008.124.017.252-.08.328-1.834 1.348-3.492 2.721-4.603 4.649-.038.044-.015.09.048.082.267-.014.525-.025.779-.037.666-.03 1.3-.059 1.953-.113.154-.011.161-.049.15-.165a2.233 2.233 0 01.696-1.942c.599-.535 1.347-.599 1.845-.21.562.438.513 1.232.206 1.823a2.203 2.203 0 01-1.332 1.082s-.105.022-.09.116c.011.09.258.26.468.404.141.098.265.184.288.224.056.098.026.244-.075.356a.43.43 0 01-.33.157c-.112 0-.182-.039-.322-.116l-.014-.007a3.204 3.204 0 01-.936-.756c-.09-.109-.134-.113-.348-.098-.973.056-2.492.203-3.518.33-.25.03-.288.078-.337.164l-.109.18c-1.607 2.651-3.324 5.481-5.205 7.391-2.058 2.092-3.772 2.643-5.591 2.658zm-18.814-8.63c0-7.227 17.317-13.13 38.683-13.13 21.362 0 38.682 5.906 38.682 13.13 0 7.222-17.316 13.128-38.682 13.128-21.366 0-38.683-5.906-38.683-13.129zm-1.41 0c0 7.907 17.948 14.318 40.093 14.318 22.14 0 40.09-6.41 40.09-14.319 0-7.911-17.95-14.318-40.09-14.318-22.145 0-40.093 6.407-40.093 14.318z"
          fill="#fff"/>
</svg>