<!--
  - /***
  -  ** █ ---------------------------------------------------------------------------------------------------------------------
  -  ** █ ░FRAMEWORK                                  2023-12-01 23:19:27
  -  ** █ ░█▀▀█ █▀▀█ █▀▀▄ █▀▀ ░█─░█ ─▀─ █▀▀▀ █▀▀▀ █▀▀ [App\Modules\Account\Views\Processes\Creator\deny.php]
  -  ** █ ░█─── █──█ █──█ █▀▀ ░█▀▀█ ▀█▀ █─▀█ █─▀█ ▀▀█ Copyright 2023 - CloudEngine S.A.S., Inc. <admin@cgine.com>
  -  ** █ ░█▄▄█ ▀▀▀▀ ▀▀▀─ ▀▀▀ ░█─░█ ▀▀▀ ▀▀▀▀ ▀▀▀▀ ▀▀▀ Para obtener información completa sobre derechos de autor y licencia,
  -  ** █                                             consulte la LICENCIA archivo que se distribuyó con este código fuente.
  -  ** █ ---------------------------------------------------------------------------------------------------------------------
  -  ** █ EL SOFTWARE SE PROPORCIONA -TAL CUAL-, SIN GARANTÍA DE NINGÚN TIPO, EXPRESA O
  -  ** █ IMPLÍCITA, INCLUYENDO PERO NO LIMITADO A LAS GARANTÍAS DE COMERCIABILIDAD,
  -  ** █ APTITUD PARA UN PROPÓSITO PARTICULAR Y NO INFRACCIÓN. EN NINGÚN CASO SERÁ
  -  ** █ LOS AUTORES O TITULARES DE LOS DERECHOS DE AUTOR SERÁN RESPONSABLES DE CUALQUIER
  -  ** █ RECLAMO, DAÑOS U OTROS RESPONSABILIDAD, YA SEA EN UNA ACCIÓN DE CONTRATO,
  -  ** █ AGRAVIO O DE OTRO MODO, QUE SURJA DESDE, FUERA O EN RELACIÓN CON EL SOFTWARE
  -  ** █ O EL USO U OTROS NEGOCIACIONES EN EL SOFTWARE.
  -  ** █ ---------------------------------------------------------------------------------------------------------------------
  -  ** █ @Author Jose Alexis Correa Valencia <jalexiscv@gmail.com>
  -  ** █ @link https://www.codehiggs.com
  -  ** █ @Version 1.5.0 @since PHP 7, PHP 8
  -  ** █ ---------------------------------------------------------------------------------------------------------------------
  -  ** █ Datos recibidos desde el controlador - @ModuleController
  -  ** █ ---------------------------------------------------------------------------------------------------------------------
  -  ** █ @authentication, @request, @dates, @parent, @component, @view, @oid, @views, @prefix
  -  ** █ ---------------------------------------------------------------------------------------------------------------------
  -  ***/
  -->

<svg width="77" height="32" fill="none" xmlns="http://www.w3.org/2000/svg">
    <path fill-rule="evenodd" clip-rule="evenodd"
          d="M41.297.21v4.28L36.005 5.63v-4.3L41.297.21zM52.3 6.873c-2.066 0-3.394.97-4.131 1.644l-.274-1.307h-4.638v24.58l5.27-1.117.021-5.966c.759.548 1.876 1.328 3.731 1.328 3.774 0 7.21-3.035 7.21-9.718-.021-6.113-3.5-9.444-7.189-9.444zm-1.264 14.524c-1.244 0-1.982-.442-2.488-.99l-.021-7.821c.548-.612 1.307-1.033 2.508-1.033 1.919 0 3.247 2.15 3.247 4.912 0 2.824-1.307 4.932-3.246 4.932zm25.064-4.87c0-5.396-2.614-9.654-7.61-9.654-5.017 0-8.052 4.258-8.052 9.613 0 6.345 3.583 9.55 8.727 9.55 2.508 0 4.405-.57 5.839-1.371v-4.216c-1.434.717-3.078 1.16-5.165 1.16-2.044 0-3.857-.718-4.09-3.205h10.309c0-.116.008-.38.016-.684v-.001c.012-.414.026-.9.026-1.191zm-10.413-2.002c0-2.382 1.454-3.373 2.782-3.373 1.286 0 2.656.991 2.656 3.373h-5.439zm-24.39-7.293h-5.292v18.445h5.292V7.231zm-11.3 0l.338 1.56c1.244-2.277 3.71-1.813 4.385-1.56v4.849c-.654-.232-2.762-.527-4.006 1.096v12.5h-5.27V7.231h4.554zM19.796 2.656L14.65 3.752l-.021 16.886c0 3.12 2.34 5.417 5.46 5.417 1.728 0 2.993-.316 3.689-.695v-4.28c-.675.275-4.006 1.244-4.006-1.876v-7.483h4.006V7.23h-4.006l.022-4.575zm-12.459 8.79c-1.117 0-1.792.317-1.792 1.139 0 .897 1.161 1.292 2.602 1.782 2.347.799 5.438 1.85 5.451 5.743 0 3.774-3.014 5.945-7.4 5.945-1.812 0-3.794-.358-5.754-1.201v-5.017c1.77.97 4.005 1.686 5.755 1.686 1.18 0 2.023-.316 2.023-1.286 0-.994-1.258-1.449-2.777-1.997C3.13 17.404.21 16.35.21 12.838c0-3.731 2.846-5.966 7.125-5.966 1.75 0 3.478.274 5.228.97v4.954c-1.602-.865-3.626-1.35-5.228-1.35z"
          fill="#fff"/>
</svg>