<!--
  - /***
  -  ** █ ---------------------------------------------------------------------------------------------------------------------
  -  ** █ ░FRAMEWORK                                  2023-12-01 23:19:27
  -  ** █ ░█▀▀█ █▀▀█ █▀▀▄ █▀▀ ░█─░█ ─▀─ █▀▀▀ █▀▀▀ █▀▀ [App\Modules\Account\Views\Processes\Creator\deny.php]
  -  ** █ ░█─── █──█ █──█ █▀▀ ░█▀▀█ ▀█▀ █─▀█ █─▀█ ▀▀█ Copyright 2023 - CloudEngine S.A.S., Inc. <admin@cgine.com>
  -  ** █ ░█▄▄█ ▀▀▀▀ ▀▀▀─ ▀▀▀ ░█─░█ ▀▀▀ ▀▀▀▀ ▀▀▀▀ ▀▀▀ Para obtener información completa sobre derechos de autor y licencia,
  -  ** █                                             consulte la LICENCIA archivo que se distribuyó con este código fuente.
  -  ** █ ---------------------------------------------------------------------------------------------------------------------
  -  ** █ EL SOFTWARE SE PROPORCIONA -TAL CUAL-, SIN GARANTÍA DE NINGÚN TIPO, EXPRESA O
  -  ** █ IMPLÍCITA, INCLUYENDO PERO NO LIMITADO A LAS GARANTÍAS DE COMERCIABILIDAD,
  -  ** █ APTITUD PARA UN PROPÓSITO PARTICULAR Y NO INFRACCIÓN. EN NINGÚN CASO SERÁ
  -  ** █ LOS AUTORES O TITULARES DE LOS DERECHOS DE AUTOR SERÁN RESPONSABLES DE CUALQUIER
  -  ** █ RECLAMO, DAÑOS U OTROS RESPONSABILIDAD, YA SEA EN UNA ACCIÓN DE CONTRATO,
  -  ** █ AGRAVIO O DE OTRO MODO, QUE SURJA DESDE, FUERA O EN RELACIÓN CON EL SOFTWARE
  -  ** █ O EL USO U OTROS NEGOCIACIONES EN EL SOFTWARE.
  -  ** █ ---------------------------------------------------------------------------------------------------------------------
  -  ** █ @Author Jose Alexis Correa Valencia <jalexiscv@gmail.com>
  -  ** █ @link https://www.codehiggs.com
  -  ** █ @Version 1.5.0 @since PHP 7, PHP 8
  -  ** █ ---------------------------------------------------------------------------------------------------------------------
  -  ** █ Datos recibidos desde el controlador - @ModuleController
  -  ** █ ---------------------------------------------------------------------------------------------------------------------
  -  ** █ @authentication, @request, @dates, @parent, @component, @view, @oid, @views, @prefix
  -  ** █ ---------------------------------------------------------------------------------------------------------------------
  -  ***/
  -->

<svg width="189" height="70" viewBox="0 0 189 70" fill="none" xmlns="http://www.w3.org/2000/svg">
    <g clip-path="url(#clip0)">
        <g filter="url(#filter0_d)">
            <path fill-rule="evenodd" clip-rule="evenodd"
                  d="M10.8045 0C8.70333 0 7 1.70333 7 3.8045V51.1955C7 53.2967 8.70333 55 10.8045 55H89.083C89.559 57.8377 92.027 60 95 60C97.973 60 100.441 57.8377 100.917 55H178.195C180.297 55 182 53.2967 182 51.1955V3.8045C182 1.70333 180.297 0 178.195 0H10.8045Z"
                  fill="#6A737D"/>
            <circle cx="95" cy="54" r="3" fill="#959DA7"/>
        </g>
        <rect x="19.317" y="27.317" width="45.3659" height="15.3659" rx="7.68296" stroke="white" stroke-opacity="0.2"
              stroke-width="0.634084"/>
        <path d="M24.417 35.1167C24.417 34.8501 24.4557 34.6029 24.5332 34.375C24.6107 34.1449 24.7212 33.9455 24.8647 33.7769C25.0106 33.6082 25.1872 33.4761 25.3945 33.3804C25.6019 33.2824 25.8354 33.2334 26.0952 33.2334C26.3573 33.2334 26.592 33.2824 26.7993 33.3804C27.009 33.4761 27.1855 33.6082 27.3291 33.7769C27.4749 33.9455 27.5866 34.1449 27.6641 34.375C27.7415 34.6029 27.7803 34.8501 27.7803 35.1167V35.1919C27.7803 35.4585 27.7415 35.7057 27.6641 35.9336C27.5866 36.1615 27.4749 36.3597 27.3291 36.5283C27.1855 36.6969 27.0101 36.8291 26.8027 36.9248C26.5954 37.0205 26.3618 37.0684 26.1021 37.0684C25.84 37.0684 25.6042 37.0205 25.3945 36.9248C25.1872 36.8291 25.0106 36.6969 24.8647 36.5283C24.7212 36.3597 24.6107 36.1615 24.5332 35.9336C24.4557 35.7057 24.417 35.4585 24.417 35.1919V35.1167ZM25.0493 35.1919C25.0493 35.3742 25.071 35.5485 25.1143 35.7148C25.1576 35.8789 25.2225 36.0236 25.3091 36.1489C25.3979 36.2743 25.5085 36.3734 25.6406 36.4463C25.7728 36.5192 25.9266 36.5557 26.1021 36.5557C26.2752 36.5557 26.4268 36.5192 26.5566 36.4463C26.6888 36.3734 26.7982 36.2743 26.8848 36.1489C26.9736 36.0236 27.0397 35.8789 27.083 35.7148C27.1263 35.5485 27.1479 35.3742 27.1479 35.1919V35.1167C27.1479 34.9367 27.1252 34.7646 27.0796 34.6006C27.0363 34.4342 26.9702 34.2884 26.8813 34.1631C26.7948 34.0378 26.6854 33.9386 26.5532 33.8657C26.4233 33.7905 26.2707 33.7529 26.0952 33.7529C25.9198 33.7529 25.7671 33.7905 25.6372 33.8657C25.5073 33.9386 25.3979 34.0378 25.3091 34.1631C25.2225 34.2884 25.1576 34.4342 25.1143 34.6006C25.071 34.7646 25.0493 34.9367 25.0493 35.1167V35.1919ZM29.3662 33.3018L29.4106 33.8486C29.5451 33.6572 29.7103 33.508 29.9062 33.4009C30.1022 33.2915 30.321 33.2357 30.5625 33.2334C30.7562 33.2334 30.9316 33.2607 31.0889 33.3154C31.2484 33.3701 31.384 33.4556 31.4956 33.5718C31.6073 33.688 31.6927 33.8361 31.752 34.0161C31.8135 34.1938 31.8442 34.4058 31.8442 34.6519V37H31.2119V34.6655C31.2119 34.5015 31.1937 34.3625 31.1572 34.2485C31.1208 34.1346 31.0661 34.0423 30.9932 33.9717C30.9225 33.901 30.8348 33.8498 30.73 33.8179C30.6274 33.786 30.509 33.77 30.3745 33.77C30.1626 33.77 29.9757 33.8236 29.814 33.9307C29.6545 34.0355 29.5269 34.1745 29.4312 34.3477V37H28.7988V33.3018H29.3662ZM34.2744 36.5898C34.2744 36.5215 34.2847 36.4577 34.3052 36.3984C34.328 36.3392 34.3599 36.2879 34.4009 36.2446C34.4419 36.1991 34.4932 36.1637 34.5547 36.1387C34.6162 36.1136 34.688 36.1011 34.77 36.1011C34.8521 36.1011 34.9238 36.1136 34.9854 36.1387C35.0492 36.1637 35.1016 36.1991 35.1426 36.2446C35.1859 36.2879 35.2178 36.3392 35.2383 36.3984C35.2611 36.4577 35.2725 36.5215 35.2725 36.5898C35.2725 36.6559 35.2611 36.7186 35.2383 36.7778C35.2178 36.8348 35.1859 36.8849 35.1426 36.9282C35.1016 36.9715 35.0492 37.0046 34.9854 37.0273C34.9238 37.0524 34.8521 37.0649 34.77 37.0649C34.688 37.0649 34.6162 37.0524 34.5547 37.0273C34.4932 37.0046 34.4419 36.9715 34.4009 36.9282C34.3599 36.8849 34.328 36.8348 34.3052 36.7778C34.2847 36.7186 34.2744 36.6559 34.2744 36.5898ZM34.2744 33.5957C34.2744 33.5273 34.2847 33.4635 34.3052 33.4043C34.328 33.3451 34.3599 33.2938 34.4009 33.2505C34.4419 33.2049 34.4932 33.1696 34.5547 33.1445C34.6162 33.1195 34.688 33.1069 34.77 33.1069C34.8521 33.1069 34.9238 33.1195 34.9854 33.1445C35.0492 33.1696 35.1016 33.2049 35.1426 33.2505C35.1859 33.2938 35.2178 33.3451 35.2383 33.4043C35.2611 33.4635 35.2725 33.5273 35.2725 33.5957C35.2725 33.6618 35.2611 33.7244 35.2383 33.7837C35.2178 33.8407 35.1859 33.8908 35.1426 33.9341C35.1016 33.9774 35.0492 34.0116 34.9854 34.0366C34.9238 34.0594 34.8521 34.0708 34.77 34.0708C34.688 34.0708 34.6162 34.0594 34.5547 34.0366C34.4932 34.0116 34.4419 33.9774 34.4009 33.9341C34.3599 33.8908 34.328 33.8407 34.3052 33.7837C34.2847 33.7244 34.2744 33.6618 34.2744 33.5957Z"
              fill="#959DA5"/>
        <path d="M44.5317 35.1919C44.5317 35.4562 44.4998 35.7035 44.436 35.9336C44.3722 36.1615 44.2788 36.3597 44.1558 36.5283C44.0327 36.6969 43.88 36.8291 43.6978 36.9248C43.5177 37.0205 43.3115 37.0684 43.0791 37.0684C42.8535 37.0684 42.6541 37.0319 42.481 36.959C42.3101 36.8861 42.1631 36.7812 42.04 36.6445V38.4219H41.4077V33.3018H41.9854L42.0161 33.7051C42.1392 33.5524 42.2873 33.4362 42.4604 33.3564C42.6359 33.2744 42.8387 33.2334 43.0688 33.2334C43.3058 33.2334 43.5155 33.2801 43.6978 33.3735C43.88 33.467 44.0327 33.5968 44.1558 33.7632C44.2788 33.9295 44.3722 34.1289 44.436 34.3613C44.4998 34.5915 44.5317 34.8444 44.5317 35.1201V35.1919ZM43.8994 35.1201C43.8994 34.9401 43.8789 34.7692 43.8379 34.6074C43.7992 34.4434 43.7376 34.2998 43.6533 34.1768C43.5713 34.0514 43.4665 33.9523 43.3389 33.8794C43.2113 33.8065 43.0586 33.77 42.8809 33.77C42.6781 33.77 42.5072 33.8179 42.3682 33.9136C42.2314 34.007 42.1221 34.1278 42.04 34.2759V36.0566C42.1221 36.2025 42.2314 36.3221 42.3682 36.4155C42.5049 36.5067 42.6781 36.5522 42.8877 36.5522C43.0632 36.5522 43.2147 36.5158 43.3423 36.4429C43.4699 36.3677 43.5747 36.2674 43.6567 36.1421C43.7388 36.0168 43.7992 35.8721 43.8379 35.708C43.8789 35.5439 43.8994 35.3719 43.8994 35.1919V35.1201ZM48.0146 36.4907C47.8916 36.673 47.7378 36.8154 47.5532 36.918C47.3687 37.0182 47.1556 37.0684 46.9141 37.0684C46.7204 37.0684 46.5449 37.0387 46.3877 36.9795C46.2305 36.918 46.096 36.8234 45.9844 36.6958C45.8727 36.5682 45.7861 36.4064 45.7246 36.2104C45.6654 36.0122 45.6357 35.7752 45.6357 35.4995V33.3018H46.2681V35.5063C46.2681 35.7069 46.284 35.8732 46.3159 36.0054C46.3478 36.1375 46.3957 36.2435 46.4595 36.3232C46.5233 36.4007 46.6007 36.4554 46.6919 36.4873C46.7853 36.5192 46.8924 36.5352 47.0132 36.5352C47.2707 36.5352 47.478 36.4827 47.6353 36.3779C47.7948 36.2731 47.9132 36.1318 47.9907 35.9541V33.3018H48.6265V37H48.0522L48.0146 36.4907ZM52.2769 36.019C52.2769 35.9438 52.262 35.8766 52.2324 35.8174C52.2028 35.7559 52.1527 35.7 52.082 35.6499C52.0114 35.5998 51.918 35.5542 51.8018 35.5132C51.6855 35.4699 51.5409 35.4312 51.3677 35.397C51.1558 35.3537 50.9621 35.3013 50.7866 35.2397C50.6134 35.1782 50.4642 35.1053 50.3389 35.021C50.2158 34.9344 50.1201 34.8341 50.0518 34.7202C49.9834 34.604 49.9492 34.4696 49.9492 34.3169C49.9492 34.1665 49.9845 34.0264 50.0552 33.8965C50.1258 33.7643 50.2249 33.6493 50.3525 33.5513C50.4801 33.4533 50.6317 33.3758 50.8071 33.3188C50.9849 33.2619 51.1797 33.2334 51.3916 33.2334C51.6195 33.2334 51.8245 33.263 52.0068 33.3223C52.1891 33.3815 52.3441 33.4635 52.4717 33.5684C52.5993 33.6732 52.6973 33.7962 52.7656 33.9375C52.8363 34.0765 52.8716 34.2269 52.8716 34.3887H52.2393C52.2393 34.3089 52.2188 34.2314 52.1777 34.1562C52.1367 34.0788 52.0798 34.0104 52.0068 33.9512C51.9339 33.8919 51.8451 33.8441 51.7402 33.8076C51.6377 33.7712 51.5215 33.7529 51.3916 33.7529C51.2572 33.7529 51.1387 33.7677 51.0361 33.7974C50.9359 33.827 50.8516 33.8669 50.7832 33.917C50.7171 33.9671 50.667 34.0252 50.6328 34.0913C50.5986 34.1574 50.5815 34.2257 50.5815 34.2964C50.5815 34.3693 50.5952 34.4342 50.6226 34.4912C50.6499 34.5482 50.6966 34.5994 50.7627 34.645C50.8311 34.6906 50.9211 34.7316 51.0327 34.7681C51.1466 34.8045 51.2902 34.8398 51.4634 34.874C51.6912 34.9219 51.8952 34.9777 52.0752 35.0415C52.2552 35.103 52.4067 35.1782 52.5298 35.2671C52.6528 35.3537 52.7463 35.4551 52.8101 35.5713C52.8761 35.6875 52.9092 35.8219 52.9092 35.9746C52.9092 36.1387 52.8716 36.2879 52.7964 36.4224C52.7235 36.5568 52.6209 36.6719 52.4888 36.7676C52.3566 36.8633 52.1982 36.9373 52.0137 36.9897C51.8291 37.0422 51.6274 37.0684 51.4087 37.0684C51.158 37.0684 50.9347 37.0353 50.7388 36.9692C50.5428 36.9009 50.3765 36.812 50.2397 36.7026C50.1053 36.591 50.0016 36.4622 49.9287 36.3164C49.8581 36.1706 49.8228 36.019 49.8228 35.8618H50.4551C50.4642 35.9917 50.4984 36.1011 50.5576 36.1899C50.6191 36.2788 50.6943 36.3506 50.7832 36.4053C50.8743 36.46 50.9746 36.4987 51.084 36.5215C51.1934 36.5443 51.3016 36.5557 51.4087 36.5557C51.6753 36.5557 51.8861 36.5067 52.041 36.4087C52.196 36.3107 52.2746 36.1808 52.2769 36.019ZM54.6558 33.8521C54.7879 33.6584 54.9508 33.508 55.1445 33.4009C55.3382 33.2915 55.5558 33.2357 55.7974 33.2334C55.991 33.2334 56.1665 33.2619 56.3237 33.3188C56.4832 33.3735 56.6188 33.4601 56.7305 33.5786C56.8421 33.6971 56.9276 33.8475 56.9868 34.0298C57.0483 34.2098 57.0791 34.424 57.0791 34.6724V37H56.4468V34.6655C56.4468 34.3625 56.3739 34.1369 56.228 33.9888C56.0845 33.8407 55.8783 33.7677 55.6094 33.77C55.4066 33.77 55.222 33.8201 55.0557 33.9204C54.8916 34.0184 54.7583 34.1494 54.6558 34.3135V37H54.0234V31.75H54.6558V33.8521Z"
              fill="#E1E4E8"/>
        <path d="M19.8634 22H22.5129C24.0118 22 24.7469 21.2362 24.7469 20.2166C24.7469 19.2259 24.0438 18.6442 23.347 18.609V18.5451C23.9862 18.3949 24.4912 17.9474 24.4912 17.1516C24.4912 16.1768 23.7881 15.4545 22.3691 15.4545H19.8634V22ZM21.0491 21.0092V19.0916H22.3563C23.0882 19.0916 23.542 19.5391 23.542 20.1239C23.542 20.6449 23.184 21.0092 22.3243 21.0092H21.0491ZM21.0491 18.2383V16.4325H22.2476C22.9443 16.4325 23.3055 16.8001 23.3055 17.305C23.3055 17.8803 22.8389 18.2383 22.222 18.2383H21.0491ZM28.8562 19.9354C28.8562 20.6832 28.3224 21.054 27.8111 21.054C27.255 21.054 26.8842 20.6609 26.8842 20.0376V17.0909H25.7273V20.2166C25.7273 21.396 26.3984 22.0639 27.3636 22.0639C28.0987 22.0639 28.6165 21.6772 28.8402 21.1275H28.8913V22H30.0131V17.0909H28.8562V19.9354ZM31.2029 22H32.3598V17.0909H31.2029V22ZM31.7845 16.3942C32.1521 16.3942 32.4525 16.1129 32.4525 15.7678C32.4525 15.4194 32.1521 15.1381 31.7845 15.1381C31.4138 15.1381 31.1134 15.4194 31.1134 15.7678C31.1134 16.1129 31.4138 16.3942 31.7845 16.3942ZM34.7065 15.4545H33.5495V22H34.7065V15.4545ZM37.718 22.0863C38.5617 22.0863 38.942 21.5845 39.1242 21.2266H39.1945V22H40.3323V15.4545H39.1721V17.9027H39.1242C38.9484 17.5479 38.5873 17.027 37.7211 17.027C36.5866 17.027 35.6949 17.9155 35.6949 19.5518C35.6949 21.169 36.561 22.0863 37.718 22.0863ZM38.0407 21.1371C37.2769 21.1371 36.8742 20.4659 36.8742 19.5455C36.8742 18.6314 37.2705 17.9762 38.0407 17.9762C38.7854 17.9762 39.1945 18.593 39.1945 19.5455C39.1945 20.4979 38.779 21.1371 38.0407 21.1371ZM42.9235 21.1051H41.9007L41.8784 21.4631C41.824 22.3292 41.5971 23.2113 41.5044 23.598H42.2843C42.4377 23.1953 42.7924 22.2621 42.8819 21.4567L42.9235 21.1051ZM46.0132 16.4485H48.0363V22H49.2124V16.4485H51.2355V15.4545H46.0132V16.4485ZM53.6525 22.0959C54.7967 22.0959 55.5829 21.5366 55.7875 20.6832L54.7072 20.5618C54.5506 20.9773 54.1671 21.1946 53.6685 21.1946C52.9206 21.1946 52.4252 20.7024 52.4157 19.8619H55.8354V19.5071C55.8354 17.7844 54.7999 17.027 53.5918 17.027C52.1855 17.027 51.2683 18.0593 51.2683 19.5742C51.2683 21.1147 52.1728 22.0959 53.6525 22.0959ZM52.4189 19.082C52.454 18.4556 52.9174 17.9283 53.6078 17.9283C54.2725 17.9283 54.72 18.4141 54.7264 19.082H52.4189ZM60.6942 18.3885C60.5344 17.5575 59.8696 17.027 58.719 17.027C57.5365 17.027 56.7311 17.6087 56.7343 18.5163C56.7311 19.2322 57.1721 19.7053 58.115 19.9002L58.9523 20.076C59.403 20.1751 59.6139 20.3572 59.6139 20.6353C59.6139 20.9709 59.2496 21.2234 58.6998 21.2234C58.1693 21.2234 57.8241 20.9933 57.7251 20.5522L56.5969 20.6609C56.7407 21.5621 57.4981 22.0959 58.703 22.0959C59.9303 22.0959 60.7964 21.4599 60.7996 20.5298C60.7964 19.8299 60.3458 19.4016 59.4189 19.2003L58.5816 19.0213C58.083 18.9094 57.8849 18.7369 57.8881 18.4524C57.8849 18.12 58.2524 17.8899 58.735 17.8899C59.2687 17.8899 59.55 18.1808 59.6395 18.5036L60.6942 18.3885ZM64.205 17.0909H63.2366V15.9148H62.0796V17.0909H61.3829V17.9858H62.0796V20.7152C62.0732 21.6388 62.7444 22.0927 63.6137 22.0671C63.9429 22.0575 64.1698 21.9936 64.2945 21.9521L64.0995 21.0476C64.0356 21.0636 63.9046 21.0923 63.7607 21.0923C63.4699 21.0923 63.2366 20.9901 63.2366 20.5234V17.9858H64.205V17.0909ZM66.5309 21.1051H65.5082L65.4858 21.4631C65.4315 22.3292 65.2045 23.2113 65.1119 23.598H65.8917C66.0451 23.1953 66.3999 22.2621 66.4893 21.4567L66.5309 21.1051ZM71.2698 22.0991C72.04 22.0991 72.5003 21.7379 72.7112 21.3256H72.7496V22H73.8618V18.7145C73.8618 17.4169 72.8039 17.027 71.8675 17.027C70.8351 17.027 70.0425 17.4872 69.7868 18.3821L70.8671 18.5355C70.9822 18.1999 71.3081 17.9123 71.8738 17.9123C72.4108 17.9123 72.7048 18.1871 72.7048 18.6697V18.6889C72.7048 19.0213 72.3564 19.0373 71.4903 19.13C70.5379 19.2322 69.627 19.5167 69.627 20.6225C69.627 21.5877 70.3334 22.0991 71.2698 22.0991ZM71.5702 21.2489C71.0876 21.2489 70.7425 21.0284 70.7425 20.6033C70.7425 20.1591 71.1292 19.9737 71.6469 19.9002C71.9506 19.8587 72.5578 19.782 72.708 19.6605V20.239C72.708 20.7855 72.267 21.2489 71.5702 21.2489ZM76.1821 19.1236C76.1821 18.4141 76.6104 18.005 77.2208 18.005C77.8184 18.005 78.1764 18.3981 78.1764 19.0533V22H79.3334V18.8743C79.3366 17.6982 78.6654 17.027 77.6523 17.027C76.9172 17.027 76.4122 17.3786 76.1885 17.9251H76.1309V17.0909H75.0251V22H76.1821V19.1236ZM82.3312 22.0863C83.175 22.0863 83.5553 21.5845 83.7375 21.2266H83.8078V22H84.9456V15.4545H83.7854V17.9027H83.7375C83.5617 17.5479 83.2006 17.027 82.3344 17.027C81.1998 17.027 80.3081 17.9155 80.3081 19.5518C80.3081 21.169 81.1743 22.0863 82.3312 22.0863ZM82.654 21.1371C81.8902 21.1371 81.4875 20.4659 81.4875 19.5455C81.4875 18.6314 81.8838 17.9762 82.654 17.9762C83.3987 17.9762 83.8078 18.593 83.8078 19.5455C83.8078 20.4979 83.3923 21.1371 82.654 21.1371ZM88.462 22H89.6477V19.7884H90.9006C92.4123 19.7884 93.2241 18.8807 93.2241 17.6214C93.2241 16.3718 92.4219 15.4545 90.9165 15.4545H88.462V22ZM89.6477 18.8136V16.4453H90.7344C91.6229 16.4453 92.016 16.9247 92.016 17.6214C92.016 18.3182 91.6229 18.8136 90.7408 18.8136H89.6477ZM97.3318 19.9354C97.3318 20.6832 96.798 21.054 96.2867 21.054C95.7306 21.054 95.3598 20.6609 95.3598 20.0376V17.0909H94.2029V20.2166C94.2029 21.396 94.874 22.0639 95.8392 22.0639C96.5743 22.0639 97.0921 21.6772 97.3158 21.1275H97.3669V22H98.4887V17.0909H97.3318V19.9354ZM99.7296 22H100.867V21.2266H100.934C101.117 21.5845 101.497 22.0863 102.341 22.0863C103.498 22.0863 104.364 21.169 104.364 19.5518C104.364 17.9155 103.472 17.027 102.338 17.027C101.471 17.027 101.11 17.5479 100.934 17.9027H100.887V15.4545H99.7296V22ZM100.864 19.5455C100.864 18.593 101.273 17.9762 102.018 17.9762C102.788 17.9762 103.184 18.6314 103.184 19.5455C103.184 20.4659 102.782 21.1371 102.018 21.1371C101.28 21.1371 100.864 20.4979 100.864 19.5455ZM106.504 15.4545H105.347V22H106.504V15.4545ZM107.694 22H108.851V17.0909H107.694V22ZM108.276 16.3942C108.643 16.3942 108.944 16.1129 108.944 15.7678C108.944 15.4194 108.643 15.1381 108.276 15.1381C107.905 15.1381 107.605 15.4194 107.605 15.7678C107.605 16.1129 107.905 16.3942 108.276 16.3942ZM113.921 18.3885C113.761 17.5575 113.096 17.027 111.946 17.027C110.763 17.027 109.958 17.6087 109.961 18.5163C109.958 19.2322 110.399 19.7053 111.342 19.9002L112.179 20.076C112.63 20.1751 112.84 20.3572 112.84 20.6353C112.84 20.9709 112.476 21.2234 111.926 21.2234C111.396 21.2234 111.051 20.9933 110.952 20.5522L109.823 20.6609C109.967 21.5621 110.725 22.0959 111.93 22.0959C113.157 22.0959 114.023 21.4599 114.026 20.5298C114.023 19.8299 113.572 19.4016 112.646 19.2003L111.808 19.0213C111.31 18.9094 111.111 18.7369 111.115 18.4524C111.111 18.12 111.479 17.8899 111.962 17.8899C112.495 17.8899 112.777 18.1808 112.866 18.5036L113.921 18.3885ZM116.137 19.1236C116.137 18.4141 116.578 18.005 117.198 18.005C117.805 18.005 118.163 18.3917 118.163 19.0533V22H119.32V18.8743C119.32 17.6886 118.649 17.027 117.63 17.027C116.875 17.027 116.396 17.369 116.169 17.9251H116.112V15.4545H114.98V22H116.137V19.1236Z"
              fill="white"/>
    </g>
    <defs>
        <filter id="filter0_d" x="-0.609009" y="-5.07267" width="190.218" height="75.218" filterUnits="userSpaceOnUse"
                color-interpolation-filters="sRGB">
            <feFlood flood-opacity="0" result="BackgroundImageFix"/>
            <feColorMatrix in="SourceAlpha" type="matrix" values="0 0 0 0 0 0 0 0 0 0 0 0 0 0 0 0 0 0 127 0"/>
            <feOffset dy="2.53634"/>
            <feGaussianBlur stdDeviation="3.8045"/>
            <feColorMatrix type="matrix" values="0 0 0 0 0.105882 0 0 0 0 0.121569 0 0 0 0 0.137255 0 0 0 0.15 0"/>
            <feBlend mode="normal" in2="BackgroundImageFix" result="effect1_dropShadow"/>
            <feBlend mode="normal" in="SourceGraphic" in2="effect1_dropShadow" result="shape"/>
        </filter>
        <clipPath id="clip0">
            <rect width="189" height="70" fill="white"/>
        </clipPath>
    </defs>
</svg>
