<!--
  - /***
  -  ** █ ---------------------------------------------------------------------------------------------------------------------
  -  ** █ ░FRAMEWORK                                  2023-12-01 23:19:27
  -  ** █ ░█▀▀█ █▀▀█ █▀▀▄ █▀▀ ░█─░█ ─▀─ █▀▀▀ █▀▀▀ █▀▀ [App\Modules\Account\Views\Processes\Creator\deny.php]
  -  ** █ ░█─── █──█ █──█ █▀▀ ░█▀▀█ ▀█▀ █─▀█ █─▀█ ▀▀█ Copyright 2023 - CloudEngine S.A.S., Inc. <admin@cgine.com>
  -  ** █ ░█▄▄█ ▀▀▀▀ ▀▀▀─ ▀▀▀ ░█─░█ ▀▀▀ ▀▀▀▀ ▀▀▀▀ ▀▀▀ Para obtener información completa sobre derechos de autor y licencia,
  -  ** █                                             consulte la LICENCIA archivo que se distribuyó con este código fuente.
  -  ** █ ---------------------------------------------------------------------------------------------------------------------
  -  ** █ EL SOFTWARE SE PROPORCIONA -TAL CUAL-, SIN GARANTÍA DE NINGÚN TIPO, EXPRESA O
  -  ** █ IMPLÍCITA, INCLUYENDO PERO NO LIMITADO A LAS GARANTÍAS DE COMERCIABILIDAD,
  -  ** █ APTITUD PARA UN PROPÓSITO PARTICULAR Y NO INFRACCIÓN. EN NINGÚN CASO SERÁ
  -  ** █ LOS AUTORES O TITULARES DE LOS DERECHOS DE AUTOR SERÁN RESPONSABLES DE CUALQUIER
  -  ** █ RECLAMO, DAÑOS U OTROS RESPONSABILIDAD, YA SEA EN UNA ACCIÓN DE CONTRATO,
  -  ** █ AGRAVIO O DE OTRO MODO, QUE SURJA DESDE, FUERA O EN RELACIÓN CON EL SOFTWARE
  -  ** █ O EL USO U OTROS NEGOCIACIONES EN EL SOFTWARE.
  -  ** █ ---------------------------------------------------------------------------------------------------------------------
  -  ** █ @Author Jose Alexis Correa Valencia <jalexiscv@gmail.com>
  -  ** █ @link https://www.codehiggs.com
  -  ** █ @Version 1.5.0 @since PHP 7, PHP 8
  -  ** █ ---------------------------------------------------------------------------------------------------------------------
  -  ** █ Datos recibidos desde el controlador - @ModuleController
  -  ** █ ---------------------------------------------------------------------------------------------------------------------
  -  ** █ @authentication, @request, @dates, @parent, @component, @view, @oid, @views, @prefix
  -  ** █ ---------------------------------------------------------------------------------------------------------------------
  -  ***/
  -->

<svg width="140" height="90" viewBox="0 0 140 90" fill="none" xmlns="http://www.w3.org/2000/svg">
    <g clip-path="url(#clip0)">
        <g filter="url(#filter0_dddddd)">
            <mask id="path-2-outside-1" maskUnits="userSpaceOnUse" x="7" y="1" width="126" height="57" fill="black">
                <rect fill="white" x="7" y="1" width="126" height="57"/>
                <path fill-rule="evenodd" clip-rule="evenodd"
                      d="M70 2C73.3137 2 76 4.68629 76 8H129C130.657 8 132 9.34315 132 11V48C132 49.6569 130.657 51 129 51H76C76 54.3137 73.3137 57 70 57C66.6863 57 64 54.3137 64 51H11C9.34314 51 8 49.6569 8 48V11C8 9.34314 9.34315 8 11 8H64C64 4.68629 66.6863 2 70 2Z"/>
            </mask>
            <path fill-rule="evenodd" clip-rule="evenodd"
                  d="M70 2C73.3137 2 76 4.68629 76 8H129C130.657 8 132 9.34315 132 11V48C132 49.6569 130.657 51 129 51H76C76 54.3137 73.3137 57 70 57C66.6863 57 64 54.3137 64 51H11C9.34314 51 8 49.6569 8 48V11C8 9.34314 9.34315 8 11 8H64C64 4.68629 66.6863 2 70 2Z"
                  fill="white"/>
            <path d="M76 8H75V9H76V8ZM76 51V50H75V51H76ZM64 51H65V50H64V51ZM64 8V9H65V8H64ZM77 8C77 4.13401 73.866 1 70 1V3C72.7614 3 75 5.23858 75 8H77ZM129 7H76V9H129V7ZM133 11C133 8.79086 131.209 7 129 7V9C130.105 9 131 9.89543 131 11H133ZM133 48V11H131V48H133ZM129 52C131.209 52 133 50.2091 133 48H131C131 49.1046 130.105 50 129 50V52ZM76 52H129V50H76V52ZM75 51C75 53.7614 72.7614 56 70 56V58C73.866 58 77 54.866 77 51H75ZM70 56C67.2386 56 65 53.7614 65 51H63C63 54.866 66.134 58 70 58V56ZM11 52H64V50H11V52ZM7 48C7 50.2091 8.79086 52 11 52V50C9.89543 50 9 49.1046 9 48H7ZM7 11V48H9V11H7ZM11 7C8.79086 7 7 8.79086 7 11H9C9 9.89543 9.89543 9 11 9V7ZM64 7H11V9H64V7ZM70 1C66.134 1 63 4.13401 63 8H65C65 5.23858 67.2386 3 70 3V1Z"
                  fill="#6A737D" fill-opacity="0.1" mask="url(#path-2-outside-1)"/>
        </g>
        <circle cx="70" cy="8" r="3" fill="#D1D5DA"/>
        <circle cx="70" cy="51" r="3" fill="#2188FF"/>
        <path d="M40.8203 33.2334C40.8796 33.2334 40.9411 33.2357 41.0049 33.2402C41.0687 33.2425 41.1291 33.2482 41.186 33.2573C41.2453 33.2642 41.2988 33.2733 41.3467 33.2847C41.3968 33.2961 41.4378 33.3086 41.4697 33.3223L41.3843 33.9409C41.2612 33.9136 41.1439 33.8942 41.0322 33.8828C40.9229 33.8691 40.8078 33.8623 40.687 33.8623C40.3908 33.8623 40.1504 33.9295 39.9658 34.064C39.7835 34.1984 39.6491 34.3864 39.5625 34.6279V37H38.9268V33.3018H39.5283L39.5591 33.8896C39.7095 33.6868 39.8895 33.5273 40.0991 33.4111C40.311 33.2926 40.5514 33.2334 40.8203 33.2334ZM45.0005 36.4907C44.8774 36.673 44.7236 36.8154 44.5391 36.918C44.3545 37.0182 44.1414 37.0684 43.8999 37.0684C43.7062 37.0684 43.5308 37.0387 43.3735 36.9795C43.2163 36.918 43.0819 36.8234 42.9702 36.6958C42.8586 36.5682 42.772 36.4064 42.7104 36.2104C42.6512 36.0122 42.6216 35.7752 42.6216 35.4995V33.3018H43.2539V35.5063C43.2539 35.7069 43.2699 35.8732 43.3018 36.0054C43.3337 36.1375 43.3815 36.2435 43.4453 36.3232C43.5091 36.4007 43.5866 36.4554 43.6777 36.4873C43.7712 36.5192 43.8783 36.5352 43.999 36.5352C44.2565 36.5352 44.4639 36.4827 44.6211 36.3779C44.7806 36.2731 44.8991 36.1318 44.9766 35.9541V33.3018H45.6123V37H45.0381L45.0005 36.4907ZM47.3726 33.3018L47.417 33.8486C47.5514 33.6572 47.7166 33.508 47.9126 33.4009C48.1086 33.2915 48.3273 33.2357 48.5688 33.2334C48.7625 33.2334 48.938 33.2607 49.0952 33.3154C49.2547 33.3701 49.3903 33.4556 49.502 33.5718C49.6136 33.688 49.6991 33.8361 49.7583 34.0161C49.8198 34.1938 49.8506 34.4058 49.8506 34.6519V37H49.2183V34.6655C49.2183 34.5015 49.2 34.3625 49.1636 34.2485C49.1271 34.1346 49.0724 34.0423 48.9995 33.9717C48.9289 33.901 48.8411 33.8498 48.7363 33.8179C48.6338 33.786 48.5153 33.77 48.3809 33.77C48.1689 33.77 47.9821 33.8236 47.8203 33.9307C47.6608 34.0355 47.5332 34.1745 47.4375 34.3477V37H46.8052V33.3018H47.3726ZM52.2808 36.5898C52.2808 36.5215 52.291 36.4577 52.3115 36.3984C52.3343 36.3392 52.3662 36.2879 52.4072 36.2446C52.4482 36.1991 52.4995 36.1637 52.561 36.1387C52.6226 36.1136 52.6943 36.1011 52.7764 36.1011C52.8584 36.1011 52.9302 36.1136 52.9917 36.1387C53.0555 36.1637 53.1079 36.1991 53.1489 36.2446C53.1922 36.2879 53.2241 36.3392 53.2446 36.3984C53.2674 36.4577 53.2788 36.5215 53.2788 36.5898C53.2788 36.6559 53.2674 36.7186 53.2446 36.7778C53.2241 36.8348 53.1922 36.8849 53.1489 36.9282C53.1079 36.9715 53.0555 37.0046 52.9917 37.0273C52.9302 37.0524 52.8584 37.0649 52.7764 37.0649C52.6943 37.0649 52.6226 37.0524 52.561 37.0273C52.4995 37.0046 52.4482 36.9715 52.4072 36.9282C52.3662 36.8849 52.3343 36.8348 52.3115 36.7778C52.291 36.7186 52.2808 36.6559 52.2808 36.5898ZM52.2808 33.5957C52.2808 33.5273 52.291 33.4635 52.3115 33.4043C52.3343 33.3451 52.3662 33.2938 52.4072 33.2505C52.4482 33.2049 52.4995 33.1696 52.561 33.1445C52.6226 33.1195 52.6943 33.1069 52.7764 33.1069C52.8584 33.1069 52.9302 33.1195 52.9917 33.1445C53.0555 33.1696 53.1079 33.2049 53.1489 33.2505C53.1922 33.2938 53.2241 33.3451 53.2446 33.4043C53.2674 33.4635 53.2788 33.5273 53.2788 33.5957C53.2788 33.6618 53.2674 33.7244 53.2446 33.7837C53.2241 33.8407 53.1922 33.8908 53.1489 33.9341C53.1079 33.9774 53.0555 34.0116 52.9917 34.0366C52.9302 34.0594 52.8584 34.0708 52.7764 34.0708C52.6943 34.0708 52.6226 34.0594 52.561 34.0366C52.4995 34.0116 52.4482 33.9774 52.4072 33.9341C52.3662 33.8908 52.3343 33.8407 52.3115 33.7837C52.291 33.7244 52.2808 33.6618 52.2808 33.5957Z"
              fill="#D1D5DA"/>
        <path d="M59.9849 33.3018L60.0293 33.8486C60.1637 33.6572 60.3289 33.508 60.5249 33.4009C60.7209 33.2915 60.9396 33.2357 61.1812 33.2334C61.3748 33.2334 61.5503 33.2607 61.7075 33.3154C61.867 33.3701 62.0026 33.4556 62.1143 33.5718C62.2259 33.688 62.3114 33.8361 62.3706 34.0161C62.4321 34.1938 62.4629 34.4058 62.4629 34.6519V37H61.8306V34.6655C61.8306 34.5015 61.8123 34.3625 61.7759 34.2485C61.7394 34.1346 61.6847 34.0423 61.6118 33.9717C61.5412 33.901 61.4535 33.8498 61.3486 33.8179C61.2461 33.786 61.1276 33.77 60.9932 33.77C60.7812 33.77 60.5944 33.8236 60.4326 33.9307C60.2731 34.0355 60.1455 34.1745 60.0498 34.3477V37H59.4175V33.3018H59.9849ZM66.7422 35.1919C66.7422 35.4562 66.7103 35.7035 66.6465 35.9336C66.5827 36.1615 66.4893 36.3597 66.3662 36.5283C66.2432 36.6969 66.0905 36.8291 65.9082 36.9248C65.7282 37.0205 65.522 37.0684 65.2896 37.0684C65.064 37.0684 64.8646 37.0319 64.6914 36.959C64.5205 36.8861 64.3735 36.7812 64.2505 36.6445V38.4219H63.6182V33.3018H64.1958L64.2266 33.7051C64.3496 33.5524 64.4977 33.4362 64.6709 33.3564C64.8464 33.2744 65.0492 33.2334 65.2793 33.2334C65.5163 33.2334 65.7259 33.2801 65.9082 33.3735C66.0905 33.467 66.2432 33.5968 66.3662 33.7632C66.4893 33.9295 66.5827 34.1289 66.6465 34.3613C66.7103 34.5915 66.7422 34.8444 66.7422 35.1201V35.1919ZM66.1099 35.1201C66.1099 34.9401 66.0894 34.7692 66.0483 34.6074C66.0096 34.4434 65.9481 34.2998 65.8638 34.1768C65.7817 34.0514 65.6769 33.9523 65.5493 33.8794C65.4217 33.8065 65.269 33.77 65.0913 33.77C64.8885 33.77 64.7176 33.8179 64.5786 33.9136C64.4419 34.007 64.3325 34.1278 64.2505 34.2759V36.0566C64.3325 36.2025 64.4419 36.3221 64.5786 36.4155C64.7153 36.5067 64.8885 36.5522 65.0981 36.5522C65.2736 36.5522 65.4251 36.5158 65.5527 36.4429C65.6803 36.3677 65.7852 36.2674 65.8672 36.1421C65.9492 36.0168 66.0096 35.8721 66.0483 35.708C66.0894 35.5439 66.1099 35.3719 66.1099 35.1919V35.1201ZM68.1162 33.3018L68.1333 33.6504C68.2085 33.5205 68.3065 33.4191 68.4272 33.3462C68.5503 33.2733 68.6984 33.2357 68.8716 33.2334C69.2111 33.2334 69.4378 33.3656 69.5518 33.6299C69.6247 33.5114 69.7204 33.4168 69.8389 33.3462C69.9596 33.2733 70.1055 33.2357 70.2764 33.2334C70.5475 33.2334 70.756 33.3166 70.9019 33.4829C71.0477 33.6493 71.1206 33.901 71.1206 34.2383V37H70.519V34.2314C70.519 33.9215 70.3766 33.7677 70.0918 33.77C70.0166 33.77 69.9517 33.7803 69.897 33.8008C69.8423 33.8213 69.7967 33.8498 69.7603 33.8862C69.7238 33.9204 69.6953 33.9614 69.6748 34.0093C69.6543 34.0549 69.6406 34.1027 69.6338 34.1528V37H69.0322V34.228C69.0322 34.0799 68.9992 33.966 68.9331 33.8862C68.867 33.8065 68.7622 33.7677 68.6187 33.77C68.4865 33.77 68.384 33.7962 68.311 33.8486C68.2381 33.901 68.1846 33.9705 68.1504 34.0571V37H67.5488V33.3018H68.1162ZM77.731 32.4062V33.3018H79.1392V33.7905H77.731V35.8003C77.731 35.9438 77.7492 36.0623 77.7856 36.1558C77.8221 36.2492 77.8722 36.3244 77.936 36.3813C77.9998 36.436 78.0728 36.4748 78.1548 36.4976C78.2391 36.5203 78.328 36.5317 78.4214 36.5317C78.4897 36.5317 78.5604 36.5283 78.6333 36.5215C78.7062 36.5124 78.7769 36.5021 78.8452 36.4907C78.9159 36.4793 78.9808 36.4679 79.04 36.4565C79.1016 36.4429 79.1517 36.4315 79.1904 36.4224L79.2793 36.8701C79.2269 36.902 79.1631 36.9305 79.0879 36.9556C79.0127 36.9784 78.9307 36.9977 78.8418 37.0137C78.7529 37.0319 78.6584 37.0456 78.5581 37.0547C78.4601 37.0638 78.3621 37.0684 78.2642 37.0684C78.1001 37.0684 77.9463 37.0456 77.8027 37C77.6615 36.9521 77.5384 36.8781 77.4336 36.7778C77.3288 36.6753 77.2456 36.5443 77.1841 36.3848C77.1248 36.223 77.0952 36.0282 77.0952 35.8003V33.7905H76.1245V33.3018H77.0952V32.4062H77.731ZM82.0718 37.0684C81.812 37.0684 81.5728 37.0239 81.354 36.9351C81.1375 36.8462 80.9518 36.722 80.7969 36.5625C80.6419 36.403 80.5212 36.2139 80.4346 35.9951C80.348 35.7764 80.3047 35.5382 80.3047 35.2808V35.1372C80.3047 34.8387 80.3525 34.5721 80.4482 34.3374C80.5439 34.1004 80.6704 33.901 80.8276 33.7393C80.9871 33.5752 81.1672 33.4499 81.3677 33.3633C81.5705 33.2767 81.7778 33.2334 81.9897 33.2334C82.2563 33.2334 82.4888 33.2801 82.687 33.3735C82.8875 33.4647 83.0539 33.5923 83.186 33.7563C83.3182 33.9181 83.4162 34.1095 83.48 34.3306C83.5461 34.5516 83.5791 34.7909 83.5791 35.0483V35.332H80.937C80.9438 35.5007 80.9757 35.659 81.0327 35.8071C81.092 35.9552 81.1717 36.0851 81.272 36.1968C81.3745 36.3062 81.4964 36.3927 81.6377 36.4565C81.779 36.5203 81.9351 36.5522 82.106 36.5522C82.3315 36.5522 82.5321 36.5067 82.7075 36.4155C82.883 36.3244 83.0288 36.2036 83.145 36.0532L83.5312 36.354C83.4697 36.4474 83.3923 36.5374 83.2988 36.624C83.2077 36.7083 83.1017 36.7835 82.981 36.8496C82.8602 36.9157 82.7235 36.9681 82.5708 37.0068C82.4181 37.0479 82.2518 37.0684 82.0718 37.0684ZM81.9897 33.7529C81.8621 33.7529 81.7414 33.7769 81.6274 33.8247C81.5135 33.8703 81.411 33.9386 81.3198 34.0298C81.2287 34.1187 81.1512 34.2292 81.0874 34.3613C81.0259 34.4912 80.9826 34.6416 80.9575 34.8125H82.9468V34.7646C82.9399 34.6416 82.916 34.5197 82.875 34.3989C82.8363 34.2782 82.7782 34.1699 82.7007 34.0742C82.6232 33.9785 82.5252 33.901 82.4067 33.8418C82.2905 33.7826 82.1515 33.7529 81.9897 33.7529ZM87.0996 36.019C87.0996 35.9438 87.0848 35.8766 87.0552 35.8174C87.0256 35.7559 86.9754 35.7 86.9048 35.6499C86.8341 35.5998 86.7407 35.5542 86.6245 35.5132C86.5083 35.4699 86.3636 35.4312 86.1904 35.397C85.9785 35.3537 85.7848 35.3013 85.6094 35.2397C85.4362 35.1782 85.2869 35.1053 85.1616 35.021C85.0386 34.9344 84.9429 34.8341 84.8745 34.7202C84.8062 34.604 84.772 34.4696 84.772 34.3169C84.772 34.1665 84.8073 34.0264 84.8779 33.8965C84.9486 33.7643 85.0477 33.6493 85.1753 33.5513C85.3029 33.4533 85.4544 33.3758 85.6299 33.3188C85.8076 33.2619 86.0024 33.2334 86.2144 33.2334C86.4422 33.2334 86.6473 33.263 86.8296 33.3223C87.0119 33.3815 87.1668 33.4635 87.2944 33.5684C87.422 33.6732 87.52 33.7962 87.5884 33.9375C87.659 34.0765 87.6943 34.2269 87.6943 34.3887H87.062C87.062 34.3089 87.0415 34.2314 87.0005 34.1562C86.9595 34.0788 86.9025 34.0104 86.8296 33.9512C86.7567 33.8919 86.6678 33.8441 86.563 33.8076C86.4604 33.7712 86.3442 33.7529 86.2144 33.7529C86.0799 33.7529 85.9614 33.7677 85.8589 33.7974C85.7586 33.827 85.6743 33.8669 85.606 33.917C85.5399 33.9671 85.4897 34.0252 85.4556 34.0913C85.4214 34.1574 85.4043 34.2257 85.4043 34.2964C85.4043 34.3693 85.418 34.4342 85.4453 34.4912C85.4727 34.5482 85.5194 34.5994 85.5854 34.645C85.6538 34.6906 85.7438 34.7316 85.8555 34.7681C85.9694 34.8045 86.113 34.8398 86.2861 34.874C86.514 34.9219 86.7179 34.9777 86.8979 35.0415C87.078 35.103 87.2295 35.1782 87.3525 35.2671C87.4756 35.3537 87.569 35.4551 87.6328 35.5713C87.6989 35.6875 87.7319 35.8219 87.7319 35.9746C87.7319 36.1387 87.6943 36.2879 87.6191 36.4224C87.5462 36.5568 87.4437 36.6719 87.3115 36.7676C87.1794 36.8633 87.021 36.9373 86.8364 36.9897C86.6519 37.0422 86.4502 37.0684 86.2314 37.0684C85.9808 37.0684 85.7575 37.0353 85.5615 36.9692C85.3656 36.9009 85.1992 36.812 85.0625 36.7026C84.9281 36.591 84.8244 36.4622 84.7515 36.3164C84.6808 36.1706 84.6455 36.019 84.6455 35.8618H85.2778C85.2869 35.9917 85.3211 36.1011 85.3804 36.1899C85.4419 36.2788 85.5171 36.3506 85.606 36.4053C85.6971 36.46 85.7974 36.4987 85.9067 36.5215C86.0161 36.5443 86.1243 36.5557 86.2314 36.5557C86.498 36.5557 86.7088 36.5067 86.8638 36.4087C87.0187 36.3107 87.0973 36.1808 87.0996 36.019ZM90.3433 32.4062V33.3018H91.7515V33.7905H90.3433V35.8003C90.3433 35.9438 90.3615 36.0623 90.3979 36.1558C90.4344 36.2492 90.4845 36.3244 90.5483 36.3813C90.6121 36.436 90.6851 36.4748 90.7671 36.4976C90.8514 36.5203 90.9403 36.5317 91.0337 36.5317C91.1021 36.5317 91.1727 36.5283 91.2456 36.5215C91.3185 36.5124 91.3892 36.5021 91.4575 36.4907C91.5282 36.4793 91.5931 36.4679 91.6523 36.4565C91.7139 36.4429 91.764 36.4315 91.8027 36.4224L91.8916 36.8701C91.8392 36.902 91.7754 36.9305 91.7002 36.9556C91.625 36.9784 91.543 36.9977 91.4541 37.0137C91.3652 37.0319 91.2707 37.0456 91.1704 37.0547C91.0724 37.0638 90.9744 37.0684 90.8765 37.0684C90.7124 37.0684 90.5586 37.0456 90.415 37C90.2738 36.9521 90.1507 36.8781 90.0459 36.7778C89.9411 36.6753 89.8579 36.5443 89.7964 36.3848C89.7371 36.223 89.7075 36.0282 89.7075 35.8003V33.7905H88.7368V33.3018H89.7075V32.4062H90.3433Z"
              fill="#959DA5"/>
        <path d="M39.0821 28H43.1507V27.006H40.2678V21.4545H39.0821V28ZM44.1286 28H45.2856V23.0909H44.1286V28ZM44.7103 22.3942C45.0779 22.3942 45.3783 22.1129 45.3783 21.7678C45.3783 21.4194 45.0779 21.1381 44.7103 21.1381C44.3396 21.1381 44.0392 21.4194 44.0392 21.7678C44.0392 22.1129 44.3396 22.3942 44.7103 22.3942ZM47.6323 25.1236C47.6323 24.4141 48.0605 24.005 48.671 24.005C49.2686 24.005 49.6266 24.3981 49.6266 25.0533V28H50.7836V24.8743C50.7868 23.6982 50.1156 23.027 49.1025 23.027C48.3674 23.027 47.8624 23.3786 47.6387 23.9251H47.5811V23.0909H46.4753V28H47.6323V25.1236ZM55.0886 25.9354C55.0886 26.6832 54.5549 27.054 54.0435 27.054C53.4874 27.054 53.1167 26.6609 53.1167 26.0376V23.0909H51.9597V26.2166C51.9597 27.396 52.6309 28.0639 53.5961 28.0639C54.3311 28.0639 54.8489 27.6772 55.0726 27.1275H55.1238V28H56.2456V23.0909H55.0886V25.9354ZM58.3813 23.0909H57.154L58.6114 25.5455L57.1157 28H58.343L59.3721 26.2326L60.4108 28H61.6285L60.1231 25.5455L61.6029 23.0909H60.3788L59.3721 24.9031L58.3813 23.0909Z"
              fill="black"/>
        <path d="M29.9535 30.4978C29.7852 30.0504 29.5682 29.6257 29.3327 29.2109C28.748 28.1807 28.0391 27.2445 27.1989 26.4082C27.1338 26.3435 27.0899 26.2686 27.0544 26.1854C26.8284 25.6548 26.7455 25.0884 26.6395 24.5277C26.5601 24.1078 26.4727 23.6896 26.2933 23.298C25.8267 22.2815 25.0188 21.7891 24.1571 21.7548C24.1039 21.7548 24.0517 21.7527 24.0001 21.7548C23.9484 21.7527 23.8962 21.7548 23.8431 21.7548C22.9814 21.7891 22.1731 22.2815 21.7069 23.298C21.5272 23.6893 21.4397 24.1075 21.3606 24.5277C21.255 25.0884 21.1717 25.6545 20.9457 26.1854C20.9102 26.2686 20.8663 26.3435 20.8013 26.4082C19.9611 27.2442 19.2522 28.1804 18.6675 29.2109C18.432 29.626 18.2153 30.0507 18.0466 30.4978C17.9675 30.7075 17.9845 30.9109 18.1326 31.0866C18.2779 31.2593 18.4654 31.2297 18.6552 31.1799C18.9674 31.0976 19.282 31.0236 19.5924 30.9357C19.7008 30.9049 19.7375 30.9255 19.762 31.0368C19.8882 31.6121 20.1196 32.1445 20.4813 32.6098C21.4012 33.7935 22.585 34.3653 24.0001 34.3536C25.4151 34.3653 26.5989 33.7935 27.5188 32.6098C27.8803 32.1445 28.1119 31.6121 28.2382 31.0368C28.2626 30.9255 28.2993 30.9049 28.4077 30.9357C28.7181 31.0236 29.0327 31.0976 29.3449 31.1799C29.5347 31.23 29.7225 31.2593 29.8675 31.0866C30.0156 30.9106 30.0323 30.7075 29.9535 30.4978ZM25.802 32.4034C25.2602 32.7991 24.6513 32.982 24.0001 32.9838C23.3488 32.9817 22.7399 32.7991 22.1982 32.4034C21.2818 31.7338 20.8917 30.8062 20.9828 29.6934C21.0759 28.5553 21.5558 27.5878 22.4044 26.8132C22.6748 26.5663 22.9855 26.3816 23.3306 26.2564C23.3306 26.2564 23.6547 26.1341 24.0001 26.1201C24.3454 26.1338 24.6696 26.2564 24.6696 26.2564C25.0146 26.3816 25.3253 26.5663 25.5957 26.8132C26.4443 27.5878 26.9243 28.5553 27.0174 29.6934C27.1084 30.8065 26.7183 31.7341 25.802 32.4034Z"
              fill="#6A737D"/>
        <path d="M24.7379 26.138C24.5672 26.2275 24.4066 26.3334 24.2502 26.4452C24.0809 26.5663 23.9311 26.5657 23.7607 26.4434C23.6043 26.3316 23.4443 26.2251 23.273 26.1365C23.0067 25.9641 22.7417 25.79 22.4739 25.6202C22.3623 25.5496 22.279 25.4655 22.2889 25.3229C22.2984 25.18 22.3922 25.1073 22.5127 25.0536C23.5165 24.6059 24.5158 24.6462 25.5127 25.0765C25.6268 25.1257 25.7017 25.2078 25.7109 25.333C25.7202 25.4592 25.6533 25.5472 25.5492 25.6137C25.2778 25.787 25.0083 25.9632 24.7379 26.138Z"
              fill="#E1E4E8"/>
    </g>
    <defs>
        <filter id="filter0_dddddd" x="-73" y="1" width="286" height="237" filterUnits="userSpaceOnUse"
                color-interpolation-filters="sRGB">
            <feFlood flood-opacity="0" result="BackgroundImageFix"/>
            <feColorMatrix in="SourceAlpha" type="matrix" values="0 0 0 0 0 0 0 0 0 0 0 0 0 0 0 0 0 0 127 0"/>
            <feOffset dy="2.76726"/>
            <feGaussianBlur stdDeviation="1.1069"/>
            <feColorMatrix type="matrix" values="0 0 0 0 0 0 0 0 0 0 0 0 0 0 0 0 0 0 0.035 0"/>
            <feBlend mode="normal" in2="BackgroundImageFix" result="effect1_dropShadow"/>
            <feColorMatrix in="SourceAlpha" type="matrix" values="0 0 0 0 0 0 0 0 0 0 0 0 0 0 0 0 0 0 127 0"/>
            <feOffset dy="6.6501"/>
            <feGaussianBlur stdDeviation="2.66004"/>
            <feColorMatrix type="matrix" values="0 0 0 0 0 0 0 0 0 0 0 0 0 0 0 0 0 0 0.0216 0"/>
            <feBlend mode="normal" in2="effect1_dropShadow" result="effect2_dropShadow"/>
            <feColorMatrix in="SourceAlpha" type="matrix" values="0 0 0 0 0 0 0 0 0 0 0 0 0 0 0 0 0 0 127 0"/>
            <feOffset dy="12.5216"/>
            <feGaussianBlur stdDeviation="5.00862"/>
            <feColorMatrix type="matrix" values="0 0 0 0 0 0 0 0 0 0 0 0 0 0 0 0 0 0 0.0184 0"/>
            <feBlend mode="normal" in2="effect2_dropShadow" result="effect3_dropShadow"/>
            <feColorMatrix in="SourceAlpha" type="matrix" values="0 0 0 0 0 0 0 0 0 0 0 0 0 0 0 0 0 0 127 0"/>
            <feOffset dy="22.3363"/>
            <feGaussianBlur stdDeviation="8.93452"/>
            <feColorMatrix type="matrix" values="0 0 0 0 0 0 0 0 0 0 0 0 0 0 0 0 0 0 0.0141 0"/>
            <feBlend mode="normal" in2="effect3_dropShadow" result="effect4_dropShadow"/>
            <feColorMatrix in="SourceAlpha" type="matrix" values="0 0 0 0 0 0 0 0 0 0 0 0 0 0 0 0 0 0 127 0"/>
            <feOffset dy="41.7776"/>
            <feGaussianBlur stdDeviation="16.711"/>
            <feColorMatrix type="matrix" values="0 0 0 0 0 0 0 0 0 0 0 0 0 0 0 0 0 0 0.0116 0"/>
            <feBlend mode="normal" in2="effect4_dropShadow" result="effect5_dropShadow"/>
            <feColorMatrix in="SourceAlpha" type="matrix" values="0 0 0 0 0 0 0 0 0 0 0 0 0 0 0 0 0 0 127 0"/>
            <feOffset dy="100"/>
            <feGaussianBlur stdDeviation="40"/>
            <feColorMatrix type="matrix" values="0 0 0 0 0 0 0 0 0 0 0 0 0 0 0 0 0 0 0.01 0"/>
            <feBlend mode="normal" in2="effect5_dropShadow" result="effect6_dropShadow"/>
            <feBlend mode="normal" in="SourceGraphic" in2="effect6_dropShadow" result="shape"/>
        </filter>
        <clipPath id="clip0">
            <rect width="140" height="90" fill="white"/>
        </clipPath>
    </defs>
</svg>
