<!--
  - /***
  -  ** █ ---------------------------------------------------------------------------------------------------------------------
  -  ** █ ░FRAMEWORK                                  2023-12-01 23:19:27
  -  ** █ ░█▀▀█ █▀▀█ █▀▀▄ █▀▀ ░█─░█ ─▀─ █▀▀▀ █▀▀▀ █▀▀ [App\Modules\Account\Views\Processes\Creator\deny.php]
  -  ** █ ░█─── █──█ █──█ █▀▀ ░█▀▀█ ▀█▀ █─▀█ █─▀█ ▀▀█ Copyright 2023 - CloudEngine S.A.S., Inc. <admin@cgine.com>
  -  ** █ ░█▄▄█ ▀▀▀▀ ▀▀▀─ ▀▀▀ ░█─░█ ▀▀▀ ▀▀▀▀ ▀▀▀▀ ▀▀▀ Para obtener información completa sobre derechos de autor y licencia,
  -  ** █                                             consulte la LICENCIA archivo que se distribuyó con este código fuente.
  -  ** █ ---------------------------------------------------------------------------------------------------------------------
  -  ** █ EL SOFTWARE SE PROPORCIONA -TAL CUAL-, SIN GARANTÍA DE NINGÚN TIPO, EXPRESA O
  -  ** █ IMPLÍCITA, INCLUYENDO PERO NO LIMITADO A LAS GARANTÍAS DE COMERCIABILIDAD,
  -  ** █ APTITUD PARA UN PROPÓSITO PARTICULAR Y NO INFRACCIÓN. EN NINGÚN CASO SERÁ
  -  ** █ LOS AUTORES O TITULARES DE LOS DERECHOS DE AUTOR SERÁN RESPONSABLES DE CUALQUIER
  -  ** █ RECLAMO, DAÑOS U OTROS RESPONSABILIDAD, YA SEA EN UNA ACCIÓN DE CONTRATO,
  -  ** █ AGRAVIO O DE OTRO MODO, QUE SURJA DESDE, FUERA O EN RELACIÓN CON EL SOFTWARE
  -  ** █ O EL USO U OTROS NEGOCIACIONES EN EL SOFTWARE.
  -  ** █ ---------------------------------------------------------------------------------------------------------------------
  -  ** █ @Author Jose Alexis Correa Valencia <jalexiscv@gmail.com>
  -  ** █ @link https://www.codehiggs.com
  -  ** █ @Version 1.5.0 @since PHP 7, PHP 8
  -  ** █ ---------------------------------------------------------------------------------------------------------------------
  -  ** █ Datos recibidos desde el controlador - @ModuleController
  -  ** █ ---------------------------------------------------------------------------------------------------------------------
  -  ** █ @authentication, @request, @dates, @parent, @component, @view, @oid, @views, @prefix
  -  ** █ ---------------------------------------------------------------------------------------------------------------------
  -  ***/
  -->

<svg width="140" height="90" viewBox="0 0 140 90" fill="none" xmlns="http://www.w3.org/2000/svg">
    <g clip-path="url(#clip0)">
        <g filter="url(#filter0_dddddd)">
            <mask id="path-2-outside-1" maskUnits="userSpaceOnUse" x="7" y="1" width="126" height="57" fill="black">
                <rect fill="white" x="7" y="1" width="126" height="57"/>
                <path fill-rule="evenodd" clip-rule="evenodd"
                      d="M70 2C73.3137 2 76 4.68629 76 8H129C130.657 8 132 9.34315 132 11V48C132 49.6569 130.657 51 129 51H76C76 54.3137 73.3137 57 70 57C66.6863 57 64 54.3137 64 51H11C9.34314 51 8 49.6569 8 48V11C8 9.34314 9.34315 8 11 8H64C64 4.68629 66.6863 2 70 2Z"/>
            </mask>
            <path fill-rule="evenodd" clip-rule="evenodd"
                  d="M70 2C73.3137 2 76 4.68629 76 8H129C130.657 8 132 9.34315 132 11V48C132 49.6569 130.657 51 129 51H76C76 54.3137 73.3137 57 70 57C66.6863 57 64 54.3137 64 51H11C9.34314 51 8 49.6569 8 48V11C8 9.34314 9.34315 8 11 8H64C64 4.68629 66.6863 2 70 2Z"
                  fill="white"/>
            <path d="M76 8H75V9H76V8ZM76 51V50H75V51H76ZM64 51H65V50H64V51ZM64 8V9H65V8H64ZM77 8C77 4.13401 73.866 1 70 1V3C72.7614 3 75 5.23858 75 8H77ZM129 7H76V9H129V7ZM133 11C133 8.79086 131.209 7 129 7V9C130.105 9 131 9.89543 131 11H133ZM133 48V11H131V48H133ZM129 52C131.209 52 133 50.2091 133 48H131C131 49.1046 130.105 50 129 50V52ZM76 52H129V50H76V52ZM75 51C75 53.7614 72.7614 56 70 56V58C73.866 58 77 54.866 77 51H75ZM70 56C67.2386 56 65 53.7614 65 51H63C63 54.866 66.134 58 70 58V56ZM11 52H64V50H11V52ZM7 48C7 50.2091 8.79086 52 11 52V50C9.89543 50 9 49.1046 9 48H7ZM7 11V48H9V11H7ZM11 7C8.79086 7 7 8.79086 7 11H9C9 9.89543 9.89543 9 11 9V7ZM64 7H11V9H64V7ZM70 1C66.134 1 63 4.13401 63 8H65C65 5.23858 67.2386 3 70 3V1Z"
                  fill="#6A737D" fill-opacity="0.1" mask="url(#path-2-outside-1)"/>
        </g>
        <circle cx="70" cy="51" r="3" fill="#2188FF"/>
        <circle cx="70" cy="8" r="3" fill="#D1D5DA"/>
        <path d="M39.5518 34.2334C39.611 34.2334 39.6725 34.2357 39.7363 34.2402C39.8001 34.2425 39.8605 34.2482 39.9175 34.2573C39.9767 34.2642 40.0303 34.2733 40.0781 34.2847C40.1283 34.2961 40.1693 34.3086 40.2012 34.3223L40.1157 34.9409C39.9927 34.9136 39.8753 34.8942 39.7637 34.8828C39.6543 34.8691 39.5392 34.8623 39.4185 34.8623C39.1222 34.8623 38.8818 34.9295 38.6973 35.064C38.515 35.1984 38.3805 35.3864 38.2939 35.6279V38H37.6582V34.3018H38.2598L38.2905 34.8896C38.4409 34.6868 38.6209 34.5273 38.8306 34.4111C39.0425 34.2926 39.2829 34.2334 39.5518 34.2334ZM43.7319 37.4907C43.6089 37.673 43.4551 37.8154 43.2705 37.918C43.0859 38.0182 42.8729 38.0684 42.6313 38.0684C42.4377 38.0684 42.2622 38.0387 42.105 37.9795C41.9478 37.918 41.8133 37.8234 41.7017 37.6958C41.59 37.5682 41.5034 37.4064 41.4419 37.2104C41.3826 37.0122 41.353 36.7752 41.353 36.4995V34.3018H41.9854V36.5063C41.9854 36.7069 42.0013 36.8732 42.0332 37.0054C42.0651 37.1375 42.113 37.2435 42.1768 37.3232C42.2406 37.4007 42.318 37.4554 42.4092 37.4873C42.5026 37.5192 42.6097 37.5352 42.7305 37.5352C42.988 37.5352 43.1953 37.4827 43.3525 37.3779C43.512 37.2731 43.6305 37.1318 43.708 36.9541V34.3018H44.3438V38H43.7695L43.7319 37.4907ZM46.104 34.3018L46.1484 34.8486C46.2829 34.6572 46.4481 34.508 46.644 34.4009C46.84 34.2915 47.0588 34.2357 47.3003 34.2334C47.494 34.2334 47.6694 34.2607 47.8267 34.3154C47.9862 34.3701 48.1217 34.4556 48.2334 34.5718C48.3451 34.688 48.4305 34.8361 48.4897 35.0161C48.5513 35.1938 48.582 35.4058 48.582 35.6519V38H47.9497V35.6655C47.9497 35.5015 47.9315 35.3625 47.895 35.2485C47.8586 35.1346 47.8039 35.0423 47.731 34.9717C47.6603 34.901 47.5726 34.8498 47.4678 34.8179C47.3652 34.786 47.2467 34.77 47.1123 34.77C46.9004 34.77 46.7135 34.8236 46.5518 34.9307C46.3923 35.0355 46.2646 35.1745 46.1689 35.3477V38H45.5366V34.3018H46.104ZM51.0122 37.5898C51.0122 37.5215 51.0225 37.4577 51.043 37.3984C51.0658 37.3392 51.0977 37.2879 51.1387 37.2446C51.1797 37.1991 51.231 37.1637 51.2925 37.1387C51.354 37.1136 51.4258 37.1011 51.5078 37.1011C51.5898 37.1011 51.6616 37.1136 51.7231 37.1387C51.7869 37.1637 51.8394 37.1991 51.8804 37.2446C51.9237 37.2879 51.9556 37.3392 51.9761 37.3984C51.9989 37.4577 52.0103 37.5215 52.0103 37.5898C52.0103 37.6559 51.9989 37.7186 51.9761 37.7778C51.9556 37.8348 51.9237 37.8849 51.8804 37.9282C51.8394 37.9715 51.7869 38.0046 51.7231 38.0273C51.6616 38.0524 51.5898 38.0649 51.5078 38.0649C51.4258 38.0649 51.354 38.0524 51.2925 38.0273C51.231 38.0046 51.1797 37.9715 51.1387 37.9282C51.0977 37.8849 51.0658 37.8348 51.043 37.7778C51.0225 37.7186 51.0122 37.6559 51.0122 37.5898ZM51.0122 34.5957C51.0122 34.5273 51.0225 34.4635 51.043 34.4043C51.0658 34.3451 51.0977 34.2938 51.1387 34.2505C51.1797 34.2049 51.231 34.1696 51.2925 34.1445C51.354 34.1195 51.4258 34.1069 51.5078 34.1069C51.5898 34.1069 51.6616 34.1195 51.7231 34.1445C51.7869 34.1696 51.8394 34.2049 51.8804 34.2505C51.9237 34.2938 51.9556 34.3451 51.9761 34.4043C51.9989 34.4635 52.0103 34.5273 52.0103 34.5957C52.0103 34.6618 51.9989 34.7244 51.9761 34.7837C51.9556 34.8407 51.9237 34.8908 51.8804 34.9341C51.8394 34.9774 51.7869 35.0116 51.7231 35.0366C51.6616 35.0594 51.5898 35.0708 51.5078 35.0708C51.4258 35.0708 51.354 35.0594 51.2925 35.0366C51.231 35.0116 51.1797 34.9774 51.1387 34.9341C51.0977 34.8908 51.0658 34.8407 51.043 34.7837C51.0225 34.7244 51.0122 34.6618 51.0122 34.5957Z"
              fill="#D1D5DA"/>
        <path d="M58.7163 34.3018L58.7607 34.8486C58.8952 34.6572 59.0604 34.508 59.2563 34.4009C59.4523 34.2915 59.6711 34.2357 59.9126 34.2334C60.1063 34.2334 60.2817 34.2607 60.439 34.3154C60.5985 34.3701 60.734 34.4556 60.8457 34.5718C60.9574 34.688 61.0428 34.8361 61.1021 35.0161C61.1636 35.1938 61.1943 35.4058 61.1943 35.6519V38H60.562V35.6655C60.562 35.5015 60.5438 35.3625 60.5073 35.2485C60.4709 35.1346 60.4162 35.0423 60.3433 34.9717C60.2726 34.901 60.1849 34.8498 60.0801 34.8179C59.9775 34.786 59.859 34.77 59.7246 34.77C59.5127 34.77 59.3258 34.8236 59.1641 34.9307C59.0046 35.0355 58.877 35.1745 58.7812 35.3477V38H58.1489V34.3018H58.7163ZM65.4736 36.1919C65.4736 36.4562 65.4417 36.7035 65.3779 36.9336C65.3141 37.1615 65.2207 37.3597 65.0977 37.5283C64.9746 37.6969 64.8219 37.8291 64.6396 37.9248C64.4596 38.0205 64.2534 38.0684 64.021 38.0684C63.7954 38.0684 63.596 38.0319 63.4229 37.959C63.252 37.8861 63.105 37.7812 62.9819 37.6445V39.4219H62.3496V34.3018H62.9272L62.958 34.7051C63.0811 34.5524 63.2292 34.4362 63.4023 34.3564C63.5778 34.2744 63.7806 34.2334 64.0107 34.2334C64.2477 34.2334 64.4574 34.2801 64.6396 34.3735C64.8219 34.467 64.9746 34.5968 65.0977 34.7632C65.2207 34.9295 65.3141 35.1289 65.3779 35.3613C65.4417 35.5915 65.4736 35.8444 65.4736 36.1201V36.1919ZM64.8413 36.1201C64.8413 35.9401 64.8208 35.7692 64.7798 35.6074C64.741 35.4434 64.6795 35.2998 64.5952 35.1768C64.5132 35.0514 64.4084 34.9523 64.2808 34.8794C64.1532 34.8065 64.0005 34.77 63.8228 34.77C63.62 34.77 63.4491 34.8179 63.3101 34.9136C63.1733 35.007 63.064 35.1278 62.9819 35.2759V37.0566C63.064 37.2025 63.1733 37.3221 63.3101 37.4155C63.4468 37.5067 63.62 37.5522 63.8296 37.5522C64.005 37.5522 64.1566 37.5158 64.2842 37.4429C64.4118 37.3677 64.5166 37.2674 64.5986 37.1421C64.6807 37.0168 64.741 36.8721 64.7798 36.708C64.8208 36.5439 64.8413 36.3719 64.8413 36.1919V36.1201ZM66.8477 34.3018L66.8647 34.6504C66.9399 34.5205 67.0379 34.4191 67.1587 34.3462C67.2817 34.2733 67.4299 34.2357 67.603 34.2334C67.9425 34.2334 68.1693 34.3656 68.2832 34.6299C68.3561 34.5114 68.4518 34.4168 68.5703 34.3462C68.6911 34.2733 68.8369 34.2357 69.0078 34.2334C69.279 34.2334 69.4875 34.3166 69.6333 34.4829C69.7791 34.6493 69.8521 34.901 69.8521 35.2383V38H69.2505V35.2314C69.2505 34.9215 69.1081 34.7677 68.8232 34.77C68.748 34.77 68.6831 34.7803 68.6284 34.8008C68.5737 34.8213 68.5282 34.8498 68.4917 34.8862C68.4552 34.9204 68.4268 34.9614 68.4062 35.0093C68.3857 35.0549 68.3721 35.1027 68.3652 35.1528V38H67.7637V35.228C67.7637 35.0799 67.7306 34.966 67.6646 34.8862C67.5985 34.8065 67.4937 34.7677 67.3501 34.77C67.2179 34.77 67.1154 34.7962 67.0425 34.8486C66.9696 34.901 66.916 34.9705 66.8818 35.0571V38H66.2803V34.3018H66.8477ZM76.4624 33.4062V34.3018H77.8706V34.7905H76.4624V36.8003C76.4624 36.9438 76.4806 37.0623 76.5171 37.1558C76.5535 37.2492 76.6037 37.3244 76.6675 37.3813C76.7313 37.436 76.8042 37.4748 76.8862 37.4976C76.9705 37.5203 77.0594 37.5317 77.1528 37.5317C77.2212 37.5317 77.2918 37.5283 77.3647 37.5215C77.4377 37.5124 77.5083 37.5021 77.5767 37.4907C77.6473 37.4793 77.7122 37.4679 77.7715 37.4565C77.833 37.4429 77.8831 37.4315 77.9219 37.4224L78.0107 37.8701C77.9583 37.902 77.8945 37.9305 77.8193 37.9556C77.7441 37.9784 77.6621 37.9977 77.5732 38.0137C77.4844 38.0319 77.3898 38.0456 77.2896 38.0547C77.1916 38.0638 77.0936 38.0684 76.9956 38.0684C76.8315 38.0684 76.6777 38.0456 76.5342 38C76.3929 37.9521 76.2699 37.8781 76.165 37.7778C76.0602 37.6753 75.9771 37.5443 75.9155 37.3848C75.8563 37.223 75.8267 37.0282 75.8267 36.8003V34.7905H74.856V34.3018H75.8267V33.4062H76.4624ZM80.8032 38.0684C80.5435 38.0684 80.3042 38.0239 80.0854 37.9351C79.869 37.8462 79.6833 37.722 79.5283 37.5625C79.3734 37.403 79.2526 37.2139 79.166 36.9951C79.0794 36.7764 79.0361 36.5382 79.0361 36.2808V36.1372C79.0361 35.8387 79.084 35.5721 79.1797 35.3374C79.2754 35.1004 79.4019 34.901 79.5591 34.7393C79.7186 34.5752 79.8986 34.4499 80.0991 34.3633C80.3019 34.2767 80.5093 34.2334 80.7212 34.2334C80.9878 34.2334 81.2202 34.2801 81.4185 34.3735C81.619 34.4647 81.7853 34.5923 81.9175 34.7563C82.0496 34.9181 82.1476 35.1095 82.2114 35.3306C82.2775 35.5516 82.3105 35.7909 82.3105 36.0483V36.332H79.6685C79.6753 36.5007 79.7072 36.659 79.7642 36.8071C79.8234 36.9552 79.9032 37.0851 80.0034 37.1968C80.106 37.3062 80.2279 37.3927 80.3691 37.4565C80.5104 37.5203 80.6665 37.5522 80.8374 37.5522C81.063 37.5522 81.2635 37.5067 81.439 37.4155C81.6144 37.3244 81.7603 37.2036 81.8765 37.0532L82.2627 37.354C82.2012 37.4474 82.1237 37.5374 82.0303 37.624C81.9391 37.7083 81.8332 37.7835 81.7124 37.8496C81.5916 37.9157 81.4549 37.9681 81.3022 38.0068C81.1496 38.0479 80.9832 38.0684 80.8032 38.0684ZM80.7212 34.7529C80.5936 34.7529 80.4728 34.7769 80.3589 34.8247C80.245 34.8703 80.1424 34.9386 80.0513 35.0298C79.9601 35.1187 79.8826 35.2292 79.8188 35.3613C79.7573 35.4912 79.714 35.6416 79.689 35.8125H81.6782V35.7646C81.6714 35.6416 81.6475 35.5197 81.6064 35.3989C81.5677 35.2782 81.5096 35.1699 81.4321 35.0742C81.3547 34.9785 81.2567 34.901 81.1382 34.8418C81.022 34.7826 80.883 34.7529 80.7212 34.7529ZM85.8311 37.019C85.8311 36.9438 85.8162 36.8766 85.7866 36.8174C85.757 36.7559 85.7069 36.7 85.6362 36.6499C85.5656 36.5998 85.4722 36.5542 85.356 36.5132C85.2397 36.4699 85.0951 36.4312 84.9219 36.397C84.71 36.3537 84.5163 36.3013 84.3408 36.2397C84.1676 36.1782 84.0184 36.1053 83.8931 36.021C83.77 35.9344 83.6743 35.8341 83.606 35.7202C83.5376 35.604 83.5034 35.4696 83.5034 35.3169C83.5034 35.1665 83.5387 35.0264 83.6094 34.8965C83.68 34.7643 83.7791 34.6493 83.9067 34.5513C84.0343 34.4533 84.1859 34.3758 84.3613 34.3188C84.5391 34.2619 84.7339 34.2334 84.9458 34.2334C85.1737 34.2334 85.3787 34.263 85.561 34.3223C85.7433 34.3815 85.8983 34.4635 86.0259 34.5684C86.1535 34.6732 86.2515 34.7962 86.3198 34.9375C86.3905 35.0765 86.4258 35.2269 86.4258 35.3887H85.7935C85.7935 35.3089 85.7729 35.2314 85.7319 35.1562C85.6909 35.0788 85.634 35.0104 85.561 34.9512C85.4881 34.8919 85.3993 34.8441 85.2944 34.8076C85.1919 34.7712 85.0757 34.7529 84.9458 34.7529C84.8114 34.7529 84.6929 34.7677 84.5903 34.7974C84.4901 34.827 84.4058 34.8669 84.3374 34.917C84.2713 34.9671 84.2212 35.0252 84.187 35.0913C84.1528 35.1574 84.1357 35.2257 84.1357 35.2964C84.1357 35.3693 84.1494 35.4342 84.1768 35.4912C84.2041 35.5482 84.2508 35.5994 84.3169 35.645C84.3853 35.6906 84.4753 35.7316 84.5869 35.7681C84.7008 35.8045 84.8444 35.8398 85.0176 35.874C85.2454 35.9219 85.4494 35.9777 85.6294 36.0415C85.8094 36.103 85.9609 36.1782 86.084 36.2671C86.207 36.3537 86.3005 36.4551 86.3643 36.5713C86.4303 36.6875 86.4634 36.8219 86.4634 36.9746C86.4634 37.1387 86.4258 37.2879 86.3506 37.4224C86.2777 37.5568 86.1751 37.6719 86.043 37.7676C85.9108 37.8633 85.7524 37.9373 85.5679 37.9897C85.3833 38.0422 85.1816 38.0684 84.9629 38.0684C84.7122 38.0684 84.4889 38.0353 84.293 37.9692C84.097 37.9009 83.9307 37.812 83.7939 37.7026C83.6595 37.591 83.5558 37.4622 83.4829 37.3164C83.4123 37.1706 83.377 37.019 83.377 36.8618H84.0093C84.0184 36.9917 84.0526 37.1011 84.1118 37.1899C84.1733 37.2788 84.2485 37.3506 84.3374 37.4053C84.4285 37.46 84.5288 37.4987 84.6382 37.5215C84.7476 37.5443 84.8558 37.5557 84.9629 37.5557C85.2295 37.5557 85.4403 37.5067 85.5952 37.4087C85.7502 37.3107 85.8288 37.1808 85.8311 37.019ZM89.0747 33.4062V34.3018H90.4829V34.7905H89.0747V36.8003C89.0747 36.9438 89.0929 37.0623 89.1294 37.1558C89.1659 37.2492 89.216 37.3244 89.2798 37.3813C89.3436 37.436 89.4165 37.4748 89.4985 37.4976C89.5828 37.5203 89.6717 37.5317 89.7651 37.5317C89.8335 37.5317 89.9041 37.5283 89.9771 37.5215C90.05 37.5124 90.1206 37.5021 90.189 37.4907C90.2596 37.4793 90.3245 37.4679 90.3838 37.4565C90.4453 37.4429 90.4954 37.4315 90.5342 37.4224L90.623 37.8701C90.5706 37.902 90.5068 37.9305 90.4316 37.9556C90.3564 37.9784 90.2744 37.9977 90.1855 38.0137C90.0967 38.0319 90.0021 38.0456 89.9019 38.0547C89.8039 38.0638 89.7059 38.0684 89.6079 38.0684C89.4438 38.0684 89.29 38.0456 89.1465 38C89.0052 37.9521 88.8822 37.8781 88.7773 37.7778C88.6725 37.6753 88.5894 37.5443 88.5278 37.3848C88.4686 37.223 88.439 37.0282 88.439 36.8003V34.7905H87.4683V34.3018H88.439V33.4062H89.0747Z"
              fill="#959DA5"/>
        <path d="M38.5568 29H39.7265L41.0401 24.4073H41.0912L42.4016 29H43.5713L45.4186 22.4545H44.1434L42.9641 27.2678H42.9066L41.6441 22.4545H40.484L39.2247 27.2646H39.164L37.9847 22.4545H36.7095L38.5568 29ZM46.1897 29H47.3466V24.0909H46.1897V29ZM46.7714 23.3942C47.1389 23.3942 47.4393 23.1129 47.4393 22.7678C47.4393 22.4194 47.1389 22.1381 46.7714 22.1381C46.4006 22.1381 46.1002 22.4194 46.1002 22.7678C46.1002 23.1129 46.4006 23.3942 46.7714 23.3942ZM49.6933 26.1236C49.6933 25.4141 50.1216 25.005 50.732 25.005C51.3297 25.005 51.6876 25.3981 51.6876 26.0533V29H52.8446V25.8743C52.8478 24.6982 52.1766 24.027 51.1635 24.027C50.4284 24.027 49.9234 24.3786 49.6997 24.9251H49.6422V24.0909H48.5364V29H49.6933V26.1236ZM55.8425 29.0863C56.6862 29.0863 57.0665 28.5845 57.2487 28.2266H57.319V29H58.4568V22.4545H57.2967V24.9027H57.2487C57.0729 24.5479 56.7118 24.027 55.8457 24.027C54.7111 24.027 53.8194 24.9155 53.8194 26.5518C53.8194 28.169 54.6855 29.0863 55.8425 29.0863ZM56.1653 28.1371C55.4014 28.1371 54.9987 27.4659 54.9987 26.5455C54.9987 25.6314 55.395 24.9762 56.1653 24.9762C56.9099 24.9762 57.319 25.593 57.319 26.5455C57.319 27.4979 56.9035 28.1371 56.1653 28.1371ZM61.831 29.0959C63.2692 29.0959 64.1833 28.0827 64.1833 26.5646C64.1833 25.0433 63.2692 24.027 61.831 24.027C60.3928 24.027 59.4787 25.0433 59.4787 26.5646C59.4787 28.0827 60.3928 29.0959 61.831 29.0959ZM61.8374 28.169C61.0416 28.169 60.6517 27.4595 60.6517 26.5614C60.6517 25.6634 61.0416 24.9442 61.8374 24.9442C62.6204 24.9442 63.0103 25.6634 63.0103 26.5614C63.0103 27.4595 62.6204 28.169 61.8374 28.169ZM66.0466 29H67.2547L68.1751 25.6825H68.2422L69.1627 29H70.3676L71.7579 24.0909H70.5753L69.7252 27.5234H69.6772L68.7951 24.0909H67.6286L66.7465 27.5426H66.7017L65.8388 24.0909H64.6595L66.0466 29ZM76.4456 25.3885C76.2858 24.5575 75.621 24.027 74.4705 24.027C73.288 24.027 72.4826 24.6087 72.4858 25.5163C72.4826 26.2322 72.9236 26.7053 73.8664 26.9002L74.7038 27.076C75.1544 27.1751 75.3654 27.3572 75.3654 27.6353C75.3654 27.9709 75.001 28.2234 74.4513 28.2234C73.9208 28.2234 73.5756 27.9933 73.4765 27.5522L72.3483 27.6609C72.4921 28.5621 73.2496 29.0959 74.4545 29.0959C75.6818 29.0959 76.5479 28.4599 76.5511 27.5298C76.5479 26.8299 76.0973 26.4016 75.1704 26.2003L74.3331 26.0213C73.8345 25.9094 73.6363 25.7369 73.6395 25.4524C73.6363 25.12 74.0039 24.8899 74.4865 24.8899C75.0202 24.8899 75.3014 25.1808 75.3909 25.5036L76.4456 25.3885Z"
              fill="black"/>
        <path d="M18 23.9546L22.904 23.2888L22.9062 28.0045L18.0045 28.0324L18 23.9546ZM22.9017 28.5479L22.9055 33.2678L18.0038 32.5959L18.0035 28.5162L22.9017 28.5479ZM23.4962 23.2017L29.9985 22.2556V27.9446L23.4962 27.996V23.2017ZM30 28.5923L29.9985 34.2556L23.4962 33.3407L23.487 28.5817L30 28.5923Z"
              fill="#959DA5"/>
    </g>
    <defs>
        <filter id="filter0_dddddd" x="-73" y="1" width="286" height="237" filterUnits="userSpaceOnUse"
                color-interpolation-filters="sRGB">
            <feFlood flood-opacity="0" result="BackgroundImageFix"/>
            <feColorMatrix in="SourceAlpha" type="matrix" values="0 0 0 0 0 0 0 0 0 0 0 0 0 0 0 0 0 0 127 0"/>
            <feOffset dy="2.76726"/>
            <feGaussianBlur stdDeviation="1.1069"/>
            <feColorMatrix type="matrix" values="0 0 0 0 0 0 0 0 0 0 0 0 0 0 0 0 0 0 0.035 0"/>
            <feBlend mode="normal" in2="BackgroundImageFix" result="effect1_dropShadow"/>
            <feColorMatrix in="SourceAlpha" type="matrix" values="0 0 0 0 0 0 0 0 0 0 0 0 0 0 0 0 0 0 127 0"/>
            <feOffset dy="6.6501"/>
            <feGaussianBlur stdDeviation="2.66004"/>
            <feColorMatrix type="matrix" values="0 0 0 0 0 0 0 0 0 0 0 0 0 0 0 0 0 0 0.0216 0"/>
            <feBlend mode="normal" in2="effect1_dropShadow" result="effect2_dropShadow"/>
            <feColorMatrix in="SourceAlpha" type="matrix" values="0 0 0 0 0 0 0 0 0 0 0 0 0 0 0 0 0 0 127 0"/>
            <feOffset dy="12.5216"/>
            <feGaussianBlur stdDeviation="5.00862"/>
            <feColorMatrix type="matrix" values="0 0 0 0 0 0 0 0 0 0 0 0 0 0 0 0 0 0 0.0184 0"/>
            <feBlend mode="normal" in2="effect2_dropShadow" result="effect3_dropShadow"/>
            <feColorMatrix in="SourceAlpha" type="matrix" values="0 0 0 0 0 0 0 0 0 0 0 0 0 0 0 0 0 0 127 0"/>
            <feOffset dy="22.3363"/>
            <feGaussianBlur stdDeviation="8.93452"/>
            <feColorMatrix type="matrix" values="0 0 0 0 0 0 0 0 0 0 0 0 0 0 0 0 0 0 0.0141 0"/>
            <feBlend mode="normal" in2="effect3_dropShadow" result="effect4_dropShadow"/>
            <feColorMatrix in="SourceAlpha" type="matrix" values="0 0 0 0 0 0 0 0 0 0 0 0 0 0 0 0 0 0 127 0"/>
            <feOffset dy="41.7776"/>
            <feGaussianBlur stdDeviation="16.711"/>
            <feColorMatrix type="matrix" values="0 0 0 0 0 0 0 0 0 0 0 0 0 0 0 0 0 0 0.0116 0"/>
            <feBlend mode="normal" in2="effect4_dropShadow" result="effect5_dropShadow"/>
            <feColorMatrix in="SourceAlpha" type="matrix" values="0 0 0 0 0 0 0 0 0 0 0 0 0 0 0 0 0 0 127 0"/>
            <feOffset dy="100"/>
            <feGaussianBlur stdDeviation="40"/>
            <feColorMatrix type="matrix" values="0 0 0 0 0 0 0 0 0 0 0 0 0 0 0 0 0 0 0.01 0"/>
            <feBlend mode="normal" in2="effect5_dropShadow" result="effect6_dropShadow"/>
            <feBlend mode="normal" in="SourceGraphic" in2="effect6_dropShadow" result="shape"/>
        </filter>
        <clipPath id="clip0">
            <rect width="140" height="90" fill="white"/>
        </clipPath>
    </defs>
</svg>
