<!--
  - /***
  -  ** █ ---------------------------------------------------------------------------------------------------------------------
  -  ** █ ░FRAMEWORK                                  2023-12-01 23:19:27
  -  ** █ ░█▀▀█ █▀▀█ █▀▀▄ █▀▀ ░█─░█ ─▀─ █▀▀▀ █▀▀▀ █▀▀ [App\Modules\Account\Views\Processes\Creator\deny.php]
  -  ** █ ░█─── █──█ █──█ █▀▀ ░█▀▀█ ▀█▀ █─▀█ █─▀█ ▀▀█ Copyright 2023 - CloudEngine S.A.S., Inc. <admin@cgine.com>
  -  ** █ ░█▄▄█ ▀▀▀▀ ▀▀▀─ ▀▀▀ ░█─░█ ▀▀▀ ▀▀▀▀ ▀▀▀▀ ▀▀▀ Para obtener información completa sobre derechos de autor y licencia,
  -  ** █                                             consulte la LICENCIA archivo que se distribuyó con este código fuente.
  -  ** █ ---------------------------------------------------------------------------------------------------------------------
  -  ** █ EL SOFTWARE SE PROPORCIONA -TAL CUAL-, SIN GARANTÍA DE NINGÚN TIPO, EXPRESA O
  -  ** █ IMPLÍCITA, INCLUYENDO PERO NO LIMITADO A LAS GARANTÍAS DE COMERCIABILIDAD,
  -  ** █ APTITUD PARA UN PROPÓSITO PARTICULAR Y NO INFRACCIÓN. EN NINGÚN CASO SERÁ
  -  ** █ LOS AUTORES O TITULARES DE LOS DERECHOS DE AUTOR SERÁN RESPONSABLES DE CUALQUIER
  -  ** █ RECLAMO, DAÑOS U OTROS RESPONSABILIDAD, YA SEA EN UNA ACCIÓN DE CONTRATO,
  -  ** █ AGRAVIO O DE OTRO MODO, QUE SURJA DESDE, FUERA O EN RELACIÓN CON EL SOFTWARE
  -  ** █ O EL USO U OTROS NEGOCIACIONES EN EL SOFTWARE.
  -  ** █ ---------------------------------------------------------------------------------------------------------------------
  -  ** █ @Author Jose Alexis Correa Valencia <jalexiscv@gmail.com>
  -  ** █ @link https://www.codehiggs.com
  -  ** █ @Version 1.5.0 @since PHP 7, PHP 8
  -  ** █ ---------------------------------------------------------------------------------------------------------------------
  -  ** █ Datos recibidos desde el controlador - @ModuleController
  -  ** █ ---------------------------------------------------------------------------------------------------------------------
  -  ** █ @authentication, @request, @dates, @parent, @component, @view, @oid, @views, @prefix
  -  ** █ ---------------------------------------------------------------------------------------------------------------------
  -  ***/
  -->

<svg xmlns:xlink="http://www.w3.org/1999/xlink" fill="none" height="937" viewBox="0 0 906 937" width="906"
     xmlns="http://www.w3.org/2000/svg">
    <filter id="a" color-interpolation-filters="sRGB" filterUnits="userSpaceOnUse" height="748.521" width="945.911"
            x=".078697" y="187.575">
        <feFlood flood-opacity="0" result="BackgroundImageFix"/>
        <feBlend in="SourceGraphic" in2="BackgroundImageFix" mode="normal" result="shape"/>
        <feGaussianBlur result="effect1_foregroundBlur" stdDeviation="60.7519"/>
    </filter>
    <filter id="b" color-interpolation-filters="sRGB" filterUnits="userSpaceOnUse" height="631.132" width="945.381"
            x="131.823" y="210.764">
        <feFlood flood-opacity="0" result="BackgroundImageFix"/>
        <feBlend in="SourceGraphic" in2="BackgroundImageFix" mode="normal" result="shape"/>
        <feGaussianBlur result="effect1_foregroundBlur" stdDeviation="60.7519"/>
    </filter>
    <filter id="c" color-interpolation-filters="sRGB" filterUnits="userSpaceOnUse" height="551.341" width="955.641"
            x="110.324" y="313.11">
        <feFlood flood-opacity="0" result="BackgroundImageFix"/>
        <feBlend in="SourceGraphic" in2="BackgroundImageFix" mode="normal" result="shape"/>
        <feGaussianBlur result="effect1_foregroundBlur" stdDeviation="60.7519"/>
    </filter>
    <filter id="d" color-interpolation-filters="sRGB" filterUnits="userSpaceOnUse" height="511.783" width="795.309"
            x="336.926" y="319.924">
        <feFlood flood-opacity="0" result="BackgroundImageFix"/>
        <feBlend in="SourceGraphic" in2="BackgroundImageFix" mode="normal" result="shape"/>
        <feGaussianBlur result="effect1_foregroundBlur" stdDeviation="71.1864"/>
    </filter>
    <filter id="e" color-interpolation-filters="sRGB" filterUnits="userSpaceOnUse" height="650.727" width="845.212"
            x="2.91522" y="115.448">
        <feFlood flood-opacity="0" result="BackgroundImageFix"/>
        <feBlend in="SourceGraphic" in2="BackgroundImageFix" mode="normal" result="shape"/>
        <feGaussianBlur result="effect1_foregroundBlur" stdDeviation="71.1864"/>
    </filter>
    <filter id="f" color-interpolation-filters="sRGB" filterUnits="userSpaceOnUse" height="658.851" width="928.291"
            x="174.685" y="204.987">
        <feFlood flood-opacity="0" result="BackgroundImageFix"/>
        <feBlend in="SourceGraphic" in2="BackgroundImageFix" mode="normal" result="shape"/>
        <feGaussianBlur result="effect1_foregroundBlur" stdDeviation="71.1864"/>
    </filter>
    <filter id="g" color-interpolation-filters="sRGB" filterUnits="userSpaceOnUse" height="660.821" width="947.45"
            x="75.2417" y="180.972">
        <feFlood flood-opacity="0" result="BackgroundImageFix"/>
        <feBlend in="SourceGraphic" in2="BackgroundImageFix" mode="normal" result="shape"/>
        <feGaussianBlur result="effect1_foregroundBlur" stdDeviation="60.7519"/>
    </filter>
    <filter id="h" color-interpolation-filters="sRGB" filterUnits="userSpaceOnUse" height="550.654" width="760.016"
            x="304.13" y="35.446">
        <feFlood flood-opacity="0" result="BackgroundImageFix"/>
        <feBlend in="SourceGraphic" in2="BackgroundImageFix" mode="normal" result="shape"/>
        <feGaussianBlur result="effect1_foregroundBlur" stdDeviation="60.7519"/>
    </filter>
    <filter id="i" color-interpolation-filters="sRGB" filterUnits="userSpaceOnUse" height="630.043" width="968.802"
            x=".074913" y="111.548">
        <feFlood flood-opacity="0" result="BackgroundImageFix"/>
        <feBlend in="SourceGraphic" in2="BackgroundImageFix" mode="normal" result="shape"/>
        <feGaussianBlur result="effect1_foregroundBlur" stdDeviation="60.7519"/>
    </filter>
    <linearGradient id="j" gradientUnits="userSpaceOnUse" x1="205" x2="641.151" y1="471.999" y2="352.099">
        <stop offset="0" stop-color="#3e74f9" stop-opacity=".26"/>
        <stop offset="1" stop-color="#bca1f7"/>
    </linearGradient>
    <linearGradient id="k" gradientUnits="userSpaceOnUse" x1="184.987" x2="211.545" y1="432.5" y2="861.421">
        <stop offset="0" stop-color="#c8fff7"/>
        <stop offset="1" stop-color="#3bf0e4"/>
    </linearGradient>
    <linearGradient id="l" gradientUnits="userSpaceOnUse" x1="735" x2="742" y1="0" y2="934">
        <stop offset="0" stop-color="#fff" stop-opacity=".05"/>
        <stop offset=".59584" stop-color="#fff" stop-opacity=".31"/>
        <stop offset="1" stop-color="#fff" stop-opacity="0"/>
    </linearGradient>
    <linearGradient id="m" gradientUnits="userSpaceOnUse" x1="544" x2="635" y1="17" y2="724">
        <stop offset="0" stop-color="#fff" stop-opacity="0"/>
        <stop offset=".299254" stop-color="#fff" stop-opacity=".5"/>
        <stop offset="1" stop-color="#fff" stop-opacity="0"/>
    </linearGradient>
    <linearGradient id="n" gradientUnits="userSpaceOnUse" x1="240.331" x2="649.98" y1="552.838" y2="365.721">
        <stop offset="0" stop-color="#57ece8"/>
        <stop offset="1" stop-color="#c1a9f7"/>
    </linearGradient>
    <linearGradient id="o" gradientUnits="userSpaceOnUse" x1="762" x2="688" y1="34" y2="844">
        <stop offset=".146352" stop-color="#fff" stop-opacity="0"/>
        <stop offset=".515625" stop-color="#fff" stop-opacity=".881605"/>
        <stop offset="1" stop-color="#fff" stop-opacity="0"/>
    </linearGradient>
    <linearGradient id="p" gradientUnits="userSpaceOnUse" x1="658" x2="742" y1="-8" y2="896">
        <stop offset=".0216773" stop-color="#fff" stop-opacity="0"/>
        <stop offset=".317638" stop-color="#fff" stop-opacity=".920212"/>
        <stop offset=".929043" stop-color="#fff" stop-opacity="0"/>
    </linearGradient>
    <linearGradient id="q" gradientUnits="userSpaceOnUse" x1="193.96" x2="530.152" y1="364.499" y2="728.148">
        <stop offset="0" stop-color="#ffb8dd"/>
        <stop offset="1" stop-color="#9867f0"/>
    </linearGradient>
    <g filter="url(#a)" opacity=".2">
        <path d="m332.022 319.904c243.856-38.321 202.483 29.661 322.979 132.096 120.495 102.434 251.59 329.011 103.769 357.357s-442.273-62.923-562.769-165.358c-120.4964-102.434-107.8353-285.775 136.021-324.095z"
              fill="url(#j)"/>
    </g>
    <g filter="url(#b)" opacity=".2">
        <path d="m254.382 637.688c14.867-71.307 314.618-141.688 506.618-265.688s205.141 75.399 190.275 146.707c-14.866 71.307-182.922 155.748-375.364 188.604s-336.395 1.685-321.529-69.623z"
              fill="#3bf0e4"/>
    </g>
    <g filter="url(#c)" opacity=".2">
        <path d="m231.827 434.613c154.055 4.781 731.207-17.207 712.174 74.387-19.033 91.593-405 106.999-513.001 193-108 86-201.032 23.593-181.999-68 19.033-91.594 105.448-162.076-17.174-199.387z"
              fill="url(#k)"/>
    </g>
    <g filter="url(#d)" opacity=".15">
        <ellipse fill="#84e0e7" rx="200.3" ry="194.748"
                 transform="matrix(-.847816 -.53029 .978714 -.205227 734.58 575.815)"/>
    </g>
    <g filter="url(#e)" opacity=".15">
        <path d="m193.279 264.853c93.706-22.639 289.898 11.187 438.209 75.553 148.31 64.366 44.093 257.359-49.612 279.998-93.705 22.64-186.649-71.519-285.639-174.212-148.311-64.366-196.6626-158.699-102.958-181.339z"
              fill="#3bf0e4"/>
    </g>
    <path d="m568.5 1h335.5v860h-.428l-505.109-860z" fill="url(#l)" opacity=".15" stroke="url(#m)" stroke-width="2"/>
    <g filter="url(#f)" opacity=".1">
        <path d="m769.975 347.36c156.974 0 197.873 108.665 189.627 201.52s-163.016 169.921-345.689 172.131-304.707-.032-296.462-92.888c8.246-92.855 295.55-280.763 452.524-280.763z"
              fill="#bca1f7"/>
    </g>
    <g filter="url(#g)">
        <path d="m349.16 335.193c174.314 92.338 440.708 61.395 518.584 179.488s13.011 220.849-124.881 203.737-421.465-118.915-499.342-237.008c-77.876-118.093-68.674-238.554 105.639-146.217z"
              fill="url(#n)"/>
    </g>
    <g filter="url(#h)">
        <path d="m435.356 346.877c21.152-68.228 45.369-132.068 155.819-165.223 110.449-33.156 358.159-41.765 351.329 30.647-6.829 72.412-170.484 176.996-365.532 233.597-195.049 56.6-148.445-26.609-141.616-99.021z"
              fill="#91f2da" fill-opacity=".2"/>
    </g>
    <path d="m478.31 905 246.953-903.5h164.737c8.284 0 15 6.71573 15 15v888.5z" fill="url(#o)" opacity=".1"
          stroke="url(#p)" stroke-width="2"/>
    <g filter="url(#i)">
        <path d="m121.579 233.052c70.137 4.804 228.699 34.631 379.786 52.448 176.392 20.802 342.596 33.775 346.008 101.909-22.157 85.857-193.985 242.598-346.008 232.184-152.023-10.413-186.128-146.428-163.971-232.285s-96.038-114.294-215.815-154.256z"
              fill="url(#q)"/>
    </g>
</svg>