<!--
  - /***
  -  ** █ ---------------------------------------------------------------------------------------------------------------------
  -  ** █ ░FRAMEWORK                                  2023-12-01 23:19:27
  -  ** █ ░█▀▀█ █▀▀█ █▀▀▄ █▀▀ ░█─░█ ─▀─ █▀▀▀ █▀▀▀ █▀▀ [App\Modules\Account\Views\Processes\Creator\deny.php]
  -  ** █ ░█─── █──█ █──█ █▀▀ ░█▀▀█ ▀█▀ █─▀█ █─▀█ ▀▀█ Copyright 2023 - CloudEngine S.A.S., Inc. <admin@cgine.com>
  -  ** █ ░█▄▄█ ▀▀▀▀ ▀▀▀─ ▀▀▀ ░█─░█ ▀▀▀ ▀▀▀▀ ▀▀▀▀ ▀▀▀ Para obtener información completa sobre derechos de autor y licencia,
  -  ** █                                             consulte la LICENCIA archivo que se distribuyó con este código fuente.
  -  ** █ ---------------------------------------------------------------------------------------------------------------------
  -  ** █ EL SOFTWARE SE PROPORCIONA -TAL CUAL-, SIN GARANTÍA DE NINGÚN TIPO, EXPRESA O
  -  ** █ IMPLÍCITA, INCLUYENDO PERO NO LIMITADO A LAS GARANTÍAS DE COMERCIABILIDAD,
  -  ** █ APTITUD PARA UN PROPÓSITO PARTICULAR Y NO INFRACCIÓN. EN NINGÚN CASO SERÁ
  -  ** █ LOS AUTORES O TITULARES DE LOS DERECHOS DE AUTOR SERÁN RESPONSABLES DE CUALQUIER
  -  ** █ RECLAMO, DAÑOS U OTROS RESPONSABILIDAD, YA SEA EN UNA ACCIÓN DE CONTRATO,
  -  ** █ AGRAVIO O DE OTRO MODO, QUE SURJA DESDE, FUERA O EN RELACIÓN CON EL SOFTWARE
  -  ** █ O EL USO U OTROS NEGOCIACIONES EN EL SOFTWARE.
  -  ** █ ---------------------------------------------------------------------------------------------------------------------
  -  ** █ @Author Jose Alexis Correa Valencia <jalexiscv@gmail.com>
  -  ** █ @link https://www.codehiggs.com
  -  ** █ @Version 1.5.0 @since PHP 7, PHP 8
  -  ** █ ---------------------------------------------------------------------------------------------------------------------
  -  ** █ Datos recibidos desde el controlador - @ModuleController
  -  ** █ ---------------------------------------------------------------------------------------------------------------------
  -  ** █ @authentication, @request, @dates, @parent, @component, @view, @oid, @views, @prefix
  -  ** █ ---------------------------------------------------------------------------------------------------------------------
  -  ***/
  -->

<svg xmlns:xlink="http://www.w3.org/1999/xlink" fill="none" height="908" viewBox="0 0 888 908" width="888"
     xmlns="http://www.w3.org/2000/svg">
    <linearGradient id="a" gradientUnits="userSpaceOnUse" x1="549.322" x2="801.674" y1="532.963" y2="875.618">
        <stop offset="0" stop-color="#bca1f7" stop-opacity="0"/>
        <stop offset="1" stop-color="#bca1f7"/>
    </linearGradient>
    <linearGradient id="b" gradientUnits="userSpaceOnUse" x1="731.959" x2="885.466" y1="809.722" y2="499.762">
        <stop offset="0" stop-color="#fff" stop-opacity=".01"/>
        <stop offset="1" stop-color="#fff" stop-opacity=".49"/>
    </linearGradient>
    <linearGradient id="c" gradientUnits="userSpaceOnUse" x1="136.958" x2="217.285" y1="214" y2="309.24">
        <stop offset="0" stop-color="#60e7e9"/>
        <stop offset="1" stop-color="#fff" stop-opacity=".1"/>
    </linearGradient>
    <linearGradient id="d" gradientUnits="userSpaceOnUse" x1="184.349" x2="81.0156" y1="219.491" y2="309.599">
        <stop offset="0" stop-color="#fff" stop-opacity=".33"/>
        <stop offset="1" stop-color="#fff" stop-opacity="0"/>
    </linearGradient>
    <clipPath id="e">
        <path d="m0 0h888v908h-888z"/>
    </clipPath>
    <g clip-path="url(#e)">
        <path d="m562.946 582c0-10.493 8.507-19 19-19h307v239.186h-20.738c-3.294 0-5.972 2.656-5.999 5.95l-.255 30.548c-.058 6.926-7.589 11.193-13.56 7.684l-70.253-41.287c-3.225-1.896-6.899-2.895-10.64-2.895h-185.555c-10.493 0-19-8.507-19-19z"
              fill="url(#a)" fill-opacity=".05" stroke="url(#b)" stroke-width="2"/>
        <g opacity=".4">
            <path d="m69 234c0-11.046 8.9543-20 20-20h129c11.046 0 20 8.954 20 20v85.376c0 11.045-8.954 20-20 20h-77.34c-1.837 0-3.638.506-5.206 1.462l-30.689 18.711c-3.958 2.414-9.0414-.383-9.1223-5.018l-.1128-6.466c-.0841-4.823-4.0183-8.689-8.8424-8.689-9.7685 0-17.6875-7.919-17.6875-17.688z"
                  fill="url(#c)" fill-opacity=".1"/>
            <path d="m70 234c0-10.493 8.5066-19 19-19h129c10.493 0 19 8.507 19 19v85.376c0 10.493-8.507 19-19 19h-77.34c-2.02 0-4.001.556-5.726 1.608l-30.689 18.711c-3.299 2.012-7.535-.319-7.6024-4.181l-.1128-6.466c-.0937-5.369-4.4727-9.672-9.8423-9.672-9.2162 0-16.6875-7.471-16.6875-16.688z"
                  stroke="url(#d)" stroke-opacity=".6" stroke-width="2"/>
        </g>
    </g>
</svg>