<!--
  - /***
  -  ** █ ---------------------------------------------------------------------------------------------------------------------
  -  ** █ ░FRAMEWORK                                  2023-12-01 23:19:27
  -  ** █ ░█▀▀█ █▀▀█ █▀▀▄ █▀▀ ░█─░█ ─▀─ █▀▀▀ █▀▀▀ █▀▀ [App\Modules\Account\Views\Processes\Creator\deny.php]
  -  ** █ ░█─── █──█ █──█ █▀▀ ░█▀▀█ ▀█▀ █─▀█ █─▀█ ▀▀█ Copyright 2023 - CloudEngine S.A.S., Inc. <admin@cgine.com>
  -  ** █ ░█▄▄█ ▀▀▀▀ ▀▀▀─ ▀▀▀ ░█─░█ ▀▀▀ ▀▀▀▀ ▀▀▀▀ ▀▀▀ Para obtener información completa sobre derechos de autor y licencia,
  -  ** █                                             consulte la LICENCIA archivo que se distribuyó con este código fuente.
  -  ** █ ---------------------------------------------------------------------------------------------------------------------
  -  ** █ EL SOFTWARE SE PROPORCIONA -TAL CUAL-, SIN GARANTÍA DE NINGÚN TIPO, EXPRESA O
  -  ** █ IMPLÍCITA, INCLUYENDO PERO NO LIMITADO A LAS GARANTÍAS DE COMERCIABILIDAD,
  -  ** █ APTITUD PARA UN PROPÓSITO PARTICULAR Y NO INFRACCIÓN. EN NINGÚN CASO SERÁ
  -  ** █ LOS AUTORES O TITULARES DE LOS DERECHOS DE AUTOR SERÁN RESPONSABLES DE CUALQUIER
  -  ** █ RECLAMO, DAÑOS U OTROS RESPONSABILIDAD, YA SEA EN UNA ACCIÓN DE CONTRATO,
  -  ** █ AGRAVIO O DE OTRO MODO, QUE SURJA DESDE, FUERA O EN RELACIÓN CON EL SOFTWARE
  -  ** █ O EL USO U OTROS NEGOCIACIONES EN EL SOFTWARE.
  -  ** █ ---------------------------------------------------------------------------------------------------------------------
  -  ** █ @Author Jose Alexis Correa Valencia <jalexiscv@gmail.com>
  -  ** █ @link https://www.codehiggs.com
  -  ** █ @Version 1.5.0 @since PHP 7, PHP 8
  -  ** █ ---------------------------------------------------------------------------------------------------------------------
  -  ** █ Datos recibidos desde el controlador - @ModuleController
  -  ** █ ---------------------------------------------------------------------------------------------------------------------
  -  ** █ @authentication, @request, @dates, @parent, @component, @view, @oid, @views, @prefix
  -  ** █ ---------------------------------------------------------------------------------------------------------------------
  -  ***/
  -->

<svg xmlns:xlink="http://www.w3.org/1999/xlink" fill="none" height="1315" viewBox="0 0 1828 1315" width="1828"
     xmlns="http://www.w3.org/2000/svg">
    <filter id="a" color-interpolation-filters="sRGB" filterUnits="userSpaceOnUse" height="695.094" width="620.094"
            x="243.107" y="1144.43">
        <feFlood flood-opacity="0" result="BackgroundImageFix"/>
        <feColorMatrix in="SourceAlpha" type="matrix" values="0 0 0 0 0 0 0 0 0 0 0 0 0 0 0 0 0 0 127 0"/>
        <feOffset dy="10.3772"/>
        <feGaussianBlur stdDeviation="4.15089"/>
        <feColorMatrix type="matrix" values="0 0 0 0 0 0 0 0 0 0 0 0 0 0 0 0 0 0 0.0365489 0"/>
        <feBlend in2="BackgroundImageFix" mode="normal" result="effect1_dropShadow"/>
        <feColorMatrix in="SourceAlpha" type="matrix" values="0 0 0 0 0 0 0 0 0 0 0 0 0 0 0 0 0 0 127 0"/>
        <feOffset dy="24.9379"/>
        <feGaussianBlur stdDeviation="9.97515"/>
        <feColorMatrix type="matrix" values="0 0 0 0 0 0 0 0 0 0 0 0 0 0 0 0 0 0 0.0525061 0"/>
        <feBlend in2="effect1_dropShadow" mode="normal" result="effect2_dropShadow"/>
        <feColorMatrix in="SourceAlpha" type="matrix" values="0 0 0 0 0 0 0 0 0 0 0 0 0 0 0 0 0 0 127 0"/>
        <feOffset dy="46.9558"/>
        <feGaussianBlur stdDeviation="18.7823"/>
        <feColorMatrix type="matrix" values="0 0 0 0 0 0 0 0 0 0 0 0 0 0 0 0 0 0 0.065 0"/>
        <feBlend in2="effect2_dropShadow" mode="normal" result="effect3_dropShadow"/>
        <feColorMatrix in="SourceAlpha" type="matrix" values="0 0 0 0 0 0 0 0 0 0 0 0 0 0 0 0 0 0 127 0"/>
        <feOffset dy="83.7612"/>
        <feGaussianBlur stdDeviation="33.5045"/>
        <feColorMatrix type="matrix" values="0 0 0 0 0 0 0 0 0 0 0 0 0 0 0 0 0 0 0.0774939 0"/>
        <feBlend in2="effect3_dropShadow" mode="normal" result="effect4_dropShadow"/>
        <feColorMatrix in="SourceAlpha" type="matrix" values="0 0 0 0 0 0 0 0 0 0 0 0 0 0 0 0 0 0 127 0"/>
        <feOffset dy="156.666"/>
        <feGaussianBlur stdDeviation="62.6664"/>
        <feColorMatrix type="matrix" values="0 0 0 0 0 0 0 0 0 0 0 0 0 0 0 0 0 0 0.0934511 0"/>
        <feBlend in2="effect4_dropShadow" mode="normal" result="effect5_dropShadow"/>
        <feColorMatrix in="SourceAlpha" type="matrix" values="0 0 0 0 0 0 0 0 0 0 0 0 0 0 0 0 0 0 127 0"/>
        <feOffset dy="375"/>
        <feGaussianBlur stdDeviation="150"/>
        <feColorMatrix type="matrix" values="0 0 0 0 0 0 0 0 0 0 0 0 0 0 0 0 0 0 0.13 0"/>
        <feBlend in2="effect5_dropShadow" mode="normal" result="effect6_dropShadow"/>
        <feBlend in="SourceGraphic" in2="effect6_dropShadow" mode="normal" result="shape"/>
    </filter>
    <filter id="b" color-interpolation-filters="sRGB" filterUnits="userSpaceOnUse" height="695.094" width="620.094"
            x="92.2275" y="421.973">
        <feFlood flood-opacity="0" result="BackgroundImageFix"/>
        <feColorMatrix in="SourceAlpha" type="matrix" values="0 0 0 0 0 0 0 0 0 0 0 0 0 0 0 0 0 0 127 0"/>
        <feOffset dy="10.3772"/>
        <feGaussianBlur stdDeviation="4.15089"/>
        <feColorMatrix type="matrix" values="0 0 0 0 0 0 0 0 0 0 0 0 0 0 0 0 0 0 0.0365489 0"/>
        <feBlend in2="BackgroundImageFix" mode="normal" result="effect1_dropShadow"/>
        <feColorMatrix in="SourceAlpha" type="matrix" values="0 0 0 0 0 0 0 0 0 0 0 0 0 0 0 0 0 0 127 0"/>
        <feOffset dy="24.9379"/>
        <feGaussianBlur stdDeviation="9.97515"/>
        <feColorMatrix type="matrix" values="0 0 0 0 0 0 0 0 0 0 0 0 0 0 0 0 0 0 0.0525061 0"/>
        <feBlend in2="effect1_dropShadow" mode="normal" result="effect2_dropShadow"/>
        <feColorMatrix in="SourceAlpha" type="matrix" values="0 0 0 0 0 0 0 0 0 0 0 0 0 0 0 0 0 0 127 0"/>
        <feOffset dy="46.9558"/>
        <feGaussianBlur stdDeviation="18.7823"/>
        <feColorMatrix type="matrix" values="0 0 0 0 0 0 0 0 0 0 0 0 0 0 0 0 0 0 0.065 0"/>
        <feBlend in2="effect2_dropShadow" mode="normal" result="effect3_dropShadow"/>
        <feColorMatrix in="SourceAlpha" type="matrix" values="0 0 0 0 0 0 0 0 0 0 0 0 0 0 0 0 0 0 127 0"/>
        <feOffset dy="83.7612"/>
        <feGaussianBlur stdDeviation="33.5045"/>
        <feColorMatrix type="matrix" values="0 0 0 0 0 0 0 0 0 0 0 0 0 0 0 0 0 0 0.0774939 0"/>
        <feBlend in2="effect3_dropShadow" mode="normal" result="effect4_dropShadow"/>
        <feColorMatrix in="SourceAlpha" type="matrix" values="0 0 0 0 0 0 0 0 0 0 0 0 0 0 0 0 0 0 127 0"/>
        <feOffset dy="156.666"/>
        <feGaussianBlur stdDeviation="62.6664"/>
        <feColorMatrix type="matrix" values="0 0 0 0 0 0 0 0 0 0 0 0 0 0 0 0 0 0 0.0934511 0"/>
        <feBlend in2="effect4_dropShadow" mode="normal" result="effect5_dropShadow"/>
        <feColorMatrix in="SourceAlpha" type="matrix" values="0 0 0 0 0 0 0 0 0 0 0 0 0 0 0 0 0 0 127 0"/>
        <feOffset dy="375"/>
        <feGaussianBlur stdDeviation="150"/>
        <feColorMatrix type="matrix" values="0 0 0 0 0 0 0 0 0 0 0 0 0 0 0 0 0 0 0.13 0"/>
        <feBlend in2="effect5_dropShadow" mode="normal" result="effect6_dropShadow"/>
        <feBlend in="SourceGraphic" in2="effect6_dropShadow" mode="normal" result="shape"/>
    </filter>
    <filter id="c" color-interpolation-filters="sRGB" filterUnits="userSpaceOnUse" height="695.094" width="620.094"
            x="31.9462" y="180.847">
        <feFlood flood-opacity="0" result="BackgroundImageFix"/>
        <feColorMatrix in="SourceAlpha" type="matrix" values="0 0 0 0 0 0 0 0 0 0 0 0 0 0 0 0 0 0 127 0"/>
        <feOffset dy="10.3772"/>
        <feGaussianBlur stdDeviation="4.15089"/>
        <feColorMatrix type="matrix" values="0 0 0 0 0 0 0 0 0 0 0 0 0 0 0 0 0 0 0.0365489 0"/>
        <feBlend in2="BackgroundImageFix" mode="normal" result="effect1_dropShadow"/>
        <feColorMatrix in="SourceAlpha" type="matrix" values="0 0 0 0 0 0 0 0 0 0 0 0 0 0 0 0 0 0 127 0"/>
        <feOffset dy="24.9379"/>
        <feGaussianBlur stdDeviation="9.97515"/>
        <feColorMatrix type="matrix" values="0 0 0 0 0 0 0 0 0 0 0 0 0 0 0 0 0 0 0.0525061 0"/>
        <feBlend in2="effect1_dropShadow" mode="normal" result="effect2_dropShadow"/>
        <feColorMatrix in="SourceAlpha" type="matrix" values="0 0 0 0 0 0 0 0 0 0 0 0 0 0 0 0 0 0 127 0"/>
        <feOffset dy="46.9558"/>
        <feGaussianBlur stdDeviation="18.7823"/>
        <feColorMatrix type="matrix" values="0 0 0 0 0 0 0 0 0 0 0 0 0 0 0 0 0 0 0.065 0"/>
        <feBlend in2="effect2_dropShadow" mode="normal" result="effect3_dropShadow"/>
        <feColorMatrix in="SourceAlpha" type="matrix" values="0 0 0 0 0 0 0 0 0 0 0 0 0 0 0 0 0 0 127 0"/>
        <feOffset dy="83.7612"/>
        <feGaussianBlur stdDeviation="33.5045"/>
        <feColorMatrix type="matrix" values="0 0 0 0 0 0 0 0 0 0 0 0 0 0 0 0 0 0 0.0774939 0"/>
        <feBlend in2="effect3_dropShadow" mode="normal" result="effect4_dropShadow"/>
        <feColorMatrix in="SourceAlpha" type="matrix" values="0 0 0 0 0 0 0 0 0 0 0 0 0 0 0 0 0 0 127 0"/>
        <feOffset dy="156.666"/>
        <feGaussianBlur stdDeviation="62.6664"/>
        <feColorMatrix type="matrix" values="0 0 0 0 0 0 0 0 0 0 0 0 0 0 0 0 0 0 0.0934511 0"/>
        <feBlend in2="effect4_dropShadow" mode="normal" result="effect5_dropShadow"/>
        <feColorMatrix in="SourceAlpha" type="matrix" values="0 0 0 0 0 0 0 0 0 0 0 0 0 0 0 0 0 0 127 0"/>
        <feOffset dy="375"/>
        <feGaussianBlur stdDeviation="150"/>
        <feColorMatrix type="matrix" values="0 0 0 0 0 0 0 0 0 0 0 0 0 0 0 0 0 0 0.13 0"/>
        <feBlend in2="effect5_dropShadow" mode="normal" result="effect6_dropShadow"/>
        <feBlend in="SourceGraphic" in2="effect6_dropShadow" mode="normal" result="shape"/>
    </filter>
    <filter id="d" color-interpolation-filters="sRGB" filterUnits="userSpaceOnUse" height="695.094" width="620.094"
            x="1236.24" y="30.1396">
        <feFlood flood-opacity="0" result="BackgroundImageFix"/>
        <feColorMatrix in="SourceAlpha" type="matrix" values="0 0 0 0 0 0 0 0 0 0 0 0 0 0 0 0 0 0 127 0"/>
        <feOffset dy="10.3772"/>
        <feGaussianBlur stdDeviation="4.15089"/>
        <feColorMatrix type="matrix" values="0 0 0 0 0 0 0 0 0 0 0 0 0 0 0 0 0 0 0.0365489 0"/>
        <feBlend in2="BackgroundImageFix" mode="normal" result="effect1_dropShadow"/>
        <feColorMatrix in="SourceAlpha" type="matrix" values="0 0 0 0 0 0 0 0 0 0 0 0 0 0 0 0 0 0 127 0"/>
        <feOffset dy="24.9379"/>
        <feGaussianBlur stdDeviation="9.97515"/>
        <feColorMatrix type="matrix" values="0 0 0 0 0 0 0 0 0 0 0 0 0 0 0 0 0 0 0.0525061 0"/>
        <feBlend in2="effect1_dropShadow" mode="normal" result="effect2_dropShadow"/>
        <feColorMatrix in="SourceAlpha" type="matrix" values="0 0 0 0 0 0 0 0 0 0 0 0 0 0 0 0 0 0 127 0"/>
        <feOffset dy="46.9558"/>
        <feGaussianBlur stdDeviation="18.7823"/>
        <feColorMatrix type="matrix" values="0 0 0 0 0 0 0 0 0 0 0 0 0 0 0 0 0 0 0.065 0"/>
        <feBlend in2="effect2_dropShadow" mode="normal" result="effect3_dropShadow"/>
        <feColorMatrix in="SourceAlpha" type="matrix" values="0 0 0 0 0 0 0 0 0 0 0 0 0 0 0 0 0 0 127 0"/>
        <feOffset dy="83.7612"/>
        <feGaussianBlur stdDeviation="33.5045"/>
        <feColorMatrix type="matrix" values="0 0 0 0 0 0 0 0 0 0 0 0 0 0 0 0 0 0 0.0774939 0"/>
        <feBlend in2="effect3_dropShadow" mode="normal" result="effect4_dropShadow"/>
        <feColorMatrix in="SourceAlpha" type="matrix" values="0 0 0 0 0 0 0 0 0 0 0 0 0 0 0 0 0 0 127 0"/>
        <feOffset dy="156.666"/>
        <feGaussianBlur stdDeviation="62.6664"/>
        <feColorMatrix type="matrix" values="0 0 0 0 0 0 0 0 0 0 0 0 0 0 0 0 0 0 0.0934511 0"/>
        <feBlend in2="effect4_dropShadow" mode="normal" result="effect5_dropShadow"/>
        <feColorMatrix in="SourceAlpha" type="matrix" values="0 0 0 0 0 0 0 0 0 0 0 0 0 0 0 0 0 0 127 0"/>
        <feOffset dy="375"/>
        <feGaussianBlur stdDeviation="150"/>
        <feColorMatrix type="matrix" values="0 0 0 0 0 0 0 0 0 0 0 0 0 0 0 0 0 0 0.13 0"/>
        <feBlend in2="effect5_dropShadow" mode="normal" result="effect6_dropShadow"/>
        <feBlend in="SourceGraphic" in2="effect6_dropShadow" mode="normal" result="shape"/>
    </filter>
    <filter id="e" color-interpolation-filters="sRGB" filterUnits="userSpaceOnUse" height="695.094" width="620.094"
            x="1507.51" y="482.254">
        <feFlood flood-opacity="0" result="BackgroundImageFix"/>
        <feColorMatrix in="SourceAlpha" type="matrix" values="0 0 0 0 0 0 0 0 0 0 0 0 0 0 0 0 0 0 127 0"/>
        <feOffset dy="10.3772"/>
        <feGaussianBlur stdDeviation="4.15089"/>
        <feColorMatrix type="matrix" values="0 0 0 0 0 0 0 0 0 0 0 0 0 0 0 0 0 0 0.0365489 0"/>
        <feBlend in2="BackgroundImageFix" mode="normal" result="effect1_dropShadow"/>
        <feColorMatrix in="SourceAlpha" type="matrix" values="0 0 0 0 0 0 0 0 0 0 0 0 0 0 0 0 0 0 127 0"/>
        <feOffset dy="24.9379"/>
        <feGaussianBlur stdDeviation="9.97515"/>
        <feColorMatrix type="matrix" values="0 0 0 0 0 0 0 0 0 0 0 0 0 0 0 0 0 0 0.0525061 0"/>
        <feBlend in2="effect1_dropShadow" mode="normal" result="effect2_dropShadow"/>
        <feColorMatrix in="SourceAlpha" type="matrix" values="0 0 0 0 0 0 0 0 0 0 0 0 0 0 0 0 0 0 127 0"/>
        <feOffset dy="46.9558"/>
        <feGaussianBlur stdDeviation="18.7823"/>
        <feColorMatrix type="matrix" values="0 0 0 0 0 0 0 0 0 0 0 0 0 0 0 0 0 0 0.065 0"/>
        <feBlend in2="effect2_dropShadow" mode="normal" result="effect3_dropShadow"/>
        <feColorMatrix in="SourceAlpha" type="matrix" values="0 0 0 0 0 0 0 0 0 0 0 0 0 0 0 0 0 0 127 0"/>
        <feOffset dy="83.7612"/>
        <feGaussianBlur stdDeviation="33.5045"/>
        <feColorMatrix type="matrix" values="0 0 0 0 0 0 0 0 0 0 0 0 0 0 0 0 0 0 0.0774939 0"/>
        <feBlend in2="effect3_dropShadow" mode="normal" result="effect4_dropShadow"/>
        <feColorMatrix in="SourceAlpha" type="matrix" values="0 0 0 0 0 0 0 0 0 0 0 0 0 0 0 0 0 0 127 0"/>
        <feOffset dy="156.666"/>
        <feGaussianBlur stdDeviation="62.6664"/>
        <feColorMatrix type="matrix" values="0 0 0 0 0 0 0 0 0 0 0 0 0 0 0 0 0 0 0.0934511 0"/>
        <feBlend in2="effect4_dropShadow" mode="normal" result="effect5_dropShadow"/>
        <feColorMatrix in="SourceAlpha" type="matrix" values="0 0 0 0 0 0 0 0 0 0 0 0 0 0 0 0 0 0 127 0"/>
        <feOffset dy="375"/>
        <feGaussianBlur stdDeviation="150"/>
        <feColorMatrix type="matrix" values="0 0 0 0 0 0 0 0 0 0 0 0 0 0 0 0 0 0 0.13 0"/>
        <feBlend in2="effect5_dropShadow" mode="normal" result="effect6_dropShadow"/>
        <feBlend in="SourceGraphic" in2="effect6_dropShadow" mode="normal" result="shape"/>
    </filter>
    <linearGradient id="f" gradientUnits="userSpaceOnUse" x1="553.154" x2="553.154" y1="1150.71" y2="1128.1">
        <stop offset="0" stop-color="#57dd82"/>
        <stop offset="1" stop-color="#28a745" stop-opacity="0"/>
    </linearGradient>
    <linearGradient id="g" gradientUnits="userSpaceOnUse" x1="124.341" x2="139.24" y1="875.899" y2="890.798">
        <stop offset="0" stop-color="#c8d8ed"/>
        <stop offset="1" stop-color="#79b1fd"/>
    </linearGradient>
    <linearGradient id="h">
        <stop offset="0" stop-color="#ffd33d"/>
        <stop offset="1" stop-color="#ffd33d" stop-opacity="0"/>
    </linearGradient>
    <linearGradient id="i" gradientUnits="userSpaceOnUse" x1="402.275" x2="402.275" xlink:href="#h" y1="432.02"
                    y2="401.879"/>
    <linearGradient id="j">
        <stop offset="0" stop-color="#28a745"/>
        <stop offset="1" stop-color="#28a745" stop-opacity="0"/>
    </linearGradient>
    <linearGradient id="k" gradientUnits="userSpaceOnUse" x1="341.993" x2="341.993" xlink:href="#j" y1="187.126"
                    y2="164.52"/>
    <linearGradient id="l" gradientUnits="userSpaceOnUse" x1="10.047" x2="10.047" xlink:href="#j" y1="3.76761"
                    y2="-16.3263"/>
    <linearGradient id="m" gradientUnits="userSpaceOnUse" x1="10.047" x2="10.047" xlink:href="#h" y1="10.047"
                    y2="-20.0939"/>
    <clipPath id="n">
        <path d="m0 0h1828v1315h-1828z"/>
    </clipPath>
    <g clip-path="url(#n)">
        <path d="m120.959 993.721h20.0939v20.0939h-20.0939z" fill="#fafbfc"/>
        <path d="m120.959 963.58h20.0939v20.0939h-20.0939z" fill="#e1e4e8"/>
        <path d="m120.959 1204.71h20.0939v20.0939h-20.0939z" fill="#fafbfc"/>
        <path d="m120.959 1084.14h20.0939v20.0939h-20.0939z" fill="#fafbfc"/>
        <path d="m483 1084h20.0939v20.0939h-20.0939z" fill="#fafbfc"/>
        <path d="m120.959 1023.86h20.0939v20.0939h-20.0939z" fill="#fafbfc"/>
        <path d="m60.6768 1054h20.0939v20.0939h-20.0939z" fill="#fafbfc"/>
        <path d="m60.6768 993.721h20.0939v20.0939h-20.0939z" fill="#fafbfc"/>
        <path d="m60.6768 1084.14h20.0939v20.0939h-20.0939z" fill="#fafbfc"/>
        <path d="m.395508 993.721h20.0939v20.0939h-20.0939z" fill="#fafbfc"/>
        <path d="m151.1 933.439h20.0939v20.0939h-20.0939z" fill="#fafbfc"/>
        <path d="m151.1 1054h20.0939v20.0939h-20.0939z" fill="#fafbfc"/>
        <path d="m151.1 993.721h20.0939v20.0939h-20.0939z" fill="#fafbfc"/>
        <path d="m151.1 1114.29h20.0939v20.0939h-20.0939z" fill="#fafbfc"/>
        <path d="m513.141 1114.14h20.0939v20.0939h-20.0939z" fill="#fafbfc"/>
        <path d="m151.1 1084.14h20.0939v20.0939h-20.0939z" fill="#f3f4f6"/>
        <path d="m151.1 1144.43h20.0939v20.0939h-20.0939z" fill="#fafbfc"/>
        <path d="m513.141 1144.28h20.0939v20.0939h-20.0939z" fill="#fafbfc"/>
        <path d="m90.8184 933.439h20.0939v20.0939h-20.0939z" fill="#fafbfc"/>
        <path d="m90.8184 1174.57h20.0939v20.0939h-20.0939z" fill="#fafbfc"/>
        <path d="m90.8184 963.58h20.0939v20.0939h-20.0939z" fill="#fafbfc"/>
        <path d="m.395508 1174.57h20.0939v20.0939h-20.0939z" fill="#fafbfc"/>
        <path d="m.395508 1054h20.0939v20.0939h-20.0939z" fill="#fafbfc"/>
        <path d="m.395508 1023.86h20.0939v20.0939h-20.0939z" fill="#fafbfc"/>
        <path d="m181.24 933.439h20.0939v20.0939h-20.0939z" fill="#fafbfc"/>
        <path d="m181.24 1114.29h20.0939v20.0939h-20.0939z" fill="#fafbfc"/>
        <path d="m543.281 1114.14h20.0939v20.0939h-20.0939z" fill="#fafbfc"/>
        <path d="m181.24 963.58h20.0939v20.0939h-20.0939z" fill="#fafbfc"/>
        <path d="m181.24 1084.14h20.0939v20.0939h-20.0939z" fill="#fafbfc"/>
        <path d="m543.281 1084h20.0939v20.0939h-20.0939z" fill="#fafbfc"/>
        <path d="m181.24 1023.86h20.0939v20.0939h-20.0939z" fill="#fafbfc"/>
        <path d="m181.24 1144.43h20.0939v20.0939h-20.0939z" fill="#fafbfc"/>
        <path d="m543.281 1144.28h20.0939v20.0939h-20.0939z" fill="#fafbfc"/>
        <path d="m211.382 1054h20.0939v20.0939h-20.0939z" fill="#f3f4f6"/>
        <path d="m211.382 1114.29h20.0939v20.0939h-20.0939z" fill="#f3f4f6"/>
        <path d="m573.423 1114.14h20.0939v20.0939h-20.0939z" fill="#f3f4f6"/>
        <path d="m211.382 1204.71h20.0939v20.0939h-20.0939z" fill="#fafbfc"/>
        <path d="m573.423 1084h20.0939v20.0939h-20.0939z" fill="#f3f4f6"/>
        <path d="m211.382 1023.86h20.0939v20.0939h-20.0939z" fill="#fafbfc"/>
        <path d="m573.073 1054h20.0939v20.0939h-20.0939z" fill="#fafbfc"/>
        <path d="m573.073 1295.13h20.0939v20.0939h-20.0939z" fill="#fafbfc"/>
        <path d="m573.073 1234.85h20.0939v20.0939h-20.0939z" fill="#fafbfc"/>
        <path d="m392.228 933.439h20.0939v20.0939h-20.0939z" fill="#fafbfc"/>
        <path d="m392.228 1054h20.0939v20.0939h-20.0939z" fill="#fafbfc"/>
        <path d="m392.228 993.721h20.0939v20.0939h-20.0939z" fill="#fafbfc"/>
        <path d="m392.228 1234.85h20.0939v20.0939h-20.0939z" fill="#fafbfc"/>
        <path d="m392.228 963.58h20.0939v20.0939h-20.0939z" fill="#fafbfc"/>
        <path d="m392.228 1023.86h20.0939v20.0939h-20.0939z" fill="#fafbfc"/>
        <path d="m392.228 1264.99h20.0939v20.0939h-20.0939z" fill="#fafbfc"/>
        <path d="m392.228 1144.43h20.0939v20.0939h-20.0939z" fill="#fafbfc"/>
        <path d="m754.269 1144.28h20.0939v20.0939h-20.0939z" fill="#fafbfc"/>
        <path d="m753.918 1054h20.0939v20.0939h-20.0939z" fill="#fafbfc"/>
        <path d="m301.804 933.439h20.0939v20.0939h-20.0939z" fill="#fafbfc"/>
        <path d="m301.804 1174.57h20.0939v20.0939h-20.0939z" fill="#fafbfc"/>
        <path d="m301.804 1054h20.0939v20.0939h-20.0939z" fill="#e1e4e8"/>
        <g fill="#fafbfc">
            <path d="m301.804 993.721h20.0939v20.0939h-20.0939z"/>
            <path d="m301.804 1234.85h20.0939v20.0939h-20.0939z"/>
            <path d="m301.805 1114.29h20.0939v20.0939h-20.0939z"/>
            <path d="m663.846 1114.14h20.0939v20.0939h-20.0939z"/>
            <path d="m301.804 963.58h20.0939v20.0939h-20.0939z"/>
            <path d="m301.804 1204.71h20.0939v20.0939h-20.0939z"/>
            <path d="m301.805 1084.14h20.0939v20.0939h-20.0939z"/>
            <path d="m663.846 1084h20.0939v20.0939h-20.0939z"/>
            <path d="m301.804 1264.99h20.0939v20.0939h-20.0939z"/>
            <path d="m301.805 1144.43h20.0939v20.0939h-20.0939z"/>
            <path d="m663.846 1144.28h20.0939v20.0939h-20.0939z"/>
            <path d="m663.495 1054h20.0939v20.0939h-20.0939z"/>
            <path d="m482.65 1054h20.0939v20.0939h-20.0939z"/>
            <path d="m482.65 1023.86h20.0939v20.0939h-20.0939z"/>
            <path d="m844.342 1054h20.0939v20.0939h-20.0939z"/>
            <path d="m241.522 933.439h20.0939v20.0939h-20.0939z"/>
            <path d="m241.522 1174.57h20.0939v20.0939h-20.0939z"/>
            <path d="m241.522 1054h20.0939v20.0939h-20.0939z"/>
            <path d="m241.522 1114.29h20.0939v20.0939h-20.0939z"/>
            <path d="m603.563 1114.14h20.0939v20.0939h-20.0939z"/>
            <path d="m241.522 963.58h20.0939v20.0939h-20.0939z"/>
            <path d="m241.522 1084.14h20.0939v20.0939h-20.0939z"/>
            <path d="m603.563 1084h20.0939v20.0939h-20.0939z"/>
            <path d="m241.522 1023.86h20.0939v20.0939h-20.0939z"/>
            <path d="m241.522 1144.43h20.0939v20.0939h-20.0939z"/>
            <path d="m603.563 1144.28h20.0939v20.0939h-20.0939z"/>
            <path d="m603.214 1054h20.0939v20.0939h-20.0939z"/>
            <path d="m603.214 1264.99h20.0939v20.0939h-20.0939z"/>
            <path d="m422.368 1174.57h20.0939v20.0939h-20.0939z"/>
            <path d="m422.368 1295.13h20.0939v20.0939h-20.0939z"/>
            <path d="m422.368 1234.85h20.0939v20.0939h-20.0939z"/>
            <path d="m422.368 1204.71h20.0939v20.0939h-20.0939z"/>
            <path d="m422.368 1144.43h20.0939v20.0939h-20.0939z"/>
            <path d="m784.409 1144.28h20.0939v20.0939h-20.0939z"/>
            <path d="m784.059 1054h20.0939v20.0939h-20.0939z"/>
            <path d="m331.946 1174.57h20.0939v20.0939h-20.0939z"/>
            <path d="m331.946 1054h20.0939v20.0939h-20.0939z"/>
            <path d="m331.946 993.721h20.0939v20.0939h-20.0939z"/>
            <path d="m331.946 963.58h20.0939v20.0939h-20.0939z"/>
            <path d="m331.946 1204.71h20.0939v20.0939h-20.0939z"/>
            <path d="m331.946 1084.14h20.0939v20.0939h-20.0939z"/>
            <path d="m693.987 1084h20.0939v20.0939h-20.0939z"/>
            <path d="m331.946 1023.86h20.0939v20.0939h-20.0939z"/>
            <path d="m331.946 1144.43h20.0939v20.0939h-20.0939z"/>
            <path d="m693.987 1144.28h20.0939v20.0939h-20.0939z"/>
            <path d="m693.636 1054h20.0939v20.0939h-20.0939z"/>
            <path d="m512.791 1054h20.0939v20.0939h-20.0939z"/>
            <path d="m512.791 1234.85h20.0939v20.0939h-20.0939z"/>
            <path d="m271.663 933.439h20.0939v20.0939h-20.0939z"/>
            <path d="m271.663 1174.57h20.0939v20.0939h-20.0939z"/>
            <path d="m271.663 1054h20.0939v20.0939h-20.0939z"/>
            <path d="m271.663 1295.13h20.0939v20.0939h-20.0939z"/>
            <path d="m271.663 993.721h20.0939v20.0939h-20.0939z"/>
        </g>
        <path d="m271.663 1234.85h20.0939v20.0939h-20.0939z" fill="#f3f4f6"/>
        <path d="m271.663 1114.29h20.0939v20.0939h-20.0939z" fill="#fafbfc"/>
        <path d="m633.704 1114.14h20.0939v20.0939h-20.0939z" fill="#fafbfc"/>
        <path d="m271.663 1204.71h20.0939v20.0939h-20.0939z" fill="#fafbfc"/>
        <path d="m271.663 1023.86h20.0939v20.0939h-20.0939z" fill="#fafbfc"/>
        <path d="m271.663 1264.99h20.0939v20.0939h-20.0939z" fill="#f3f4f6"/>
        <path d="m452.51 1174.57h20.0939v20.0939h-20.0939z" fill="#f1f2f2"/>
        <path d="m452.51 1234.85h20.0939v20.0939h-20.0939z" fill="#fafbfc"/>
        <path d="m452.51 1204.71h20.0939v20.0939h-20.0939z" fill="#fafbfc"/>
        <path d="m452.51 1144.43h20.0939v20.0939h-20.0939z" fill="#fafbfc"/>
        <path d="m814.551 1144.28h20.0939v20.0939h-20.0939z" fill="#fafbfc"/>
        <path d="m814.199 1054h20.0939v20.0939h-20.0939z" fill="#fafbfc"/>
        <path d="m362.087 933.439h20.0939v20.0939h-20.0939z" fill="#fafbfc"/>
        <path d="m362.087 1174.57h20.0939v20.0939h-20.0939z" fill="#fafbfc"/>
        <path d="m362.087 993.721h20.0939v20.0939h-20.0939z" fill="#fafbfc"/>
        <path d="m362.087 1234.85h20.0939v20.0939h-20.0939z" fill="#fafbfc"/>
        <path d="m362.087 1114.29h20.0939v20.0939h-20.0939z" fill="#fafbfc"/>
        <path d="m724.128 1114.14h20.0939v20.0939h-20.0939z" fill="#fafbfc"/>
        <path d="m362.087 963.58h20.0939v20.0939h-20.0939z" fill="#fafbfc"/>
        <path d="m362.087 1204.71h20.0939v20.0939h-20.0939z" fill="#f1f2f2"/>
        <path d="m362.087 1084.14h20.0939v20.0939h-20.0939z" fill="#fafbfc"/>
        <path d="m724.128 1084h20.0939v20.0939h-20.0939z" fill="#fafbfc"/>
        <g filter="url(#a)">
            <path d="m543.107 1144.43h20.0939v20.0939h-20.0939z" fill="url(#f)"/>
        </g>
        <path d="m362.087 1023.86h20.0939v20.0939h-20.0939z" fill="#fafbfc"/>
        <path d="m724.128 1144.28h20.0939v20.0939h-20.0939z" fill="#fafbfc"/>
        <path d="m693.987 1234.28h20.0939v20.0939h-20.0939z" fill="#fafbfc"/>
        <path d="m724.128 1204.14h20.0939v20.0939h-20.0939z" fill="#fafbfc"/>
        <path d="m724.128 1234.28h20.0939v20.0939h-20.0939z" fill="#fafbfc"/>
        <path d="m754.128 1264.28h20.0939v20.0939h-20.0939z" fill="#fafbfc"/>
        <path d="m723.777 1054h20.0939v20.0939h-20.0939z" fill="#fafbfc"/>
        <path d="m542.932 1054h20.0939v20.0939h-20.0939z" fill="#fafbfc"/>
        <path d="m542.932 1295.13h20.0939v20.0939h-20.0939z" fill="#fafbfc"/>
        <path d="m542.932 1234.85h20.0939v20.0939h-20.0939z" fill="#fafbfc"/>
        <path d="m0 0h20.0939v20.0939h-20.0939z" fill="#fafbfc"
              transform="matrix(1 -.00000009 -.00000009 -1 903.282 1073.66)"/>
        <path d="m0 0h20.0939v20.0939h-20.0939z" fill="#fafbfc"
              transform="matrix(1 -.00000009 -.00000009 -1 1084.13 1073.66)"/>
        <path d="m0 0h20.0939v20.0939h-20.0939z" fill="#fafbfc"
              transform="matrix(1 -.00000009 -.00000009 -1 1445.82 1133.94)"/>
        <path d="m0 0h20.0939v20.0939h-20.0939z" fill="#fafbfc"
              transform="matrix(1 -.00000009 -.00000009 -1 1053.56 1133.94)"/>
        <path d="m0 0h20.0939v20.0939h-20.0939z" fill="#fafbfc"
              transform="matrix(1 -.00000009 -.00000009 -1 1445.82 1073.66)"/>
        <path d="m0 0h20.0939v20.0939h-20.0939z" fill="#fafbfc"
              transform="matrix(1 -.00000009 -.00000009 -1 1445.82 1194.22)"/>
        <path d="m0 0h20.0939v20.0939h-20.0939z" fill="#fafbfc"
              transform="matrix(1 -.00000009 -.00000009 -1 1053.56 1194.22)"/>
        <path d="m0 0h20.0939v20.0939h-20.0939z" fill="#fafbfc"
              transform="matrix(1 -.00000009 -.00000009 -1 1445.82 1103.8)"/>
        <path d="m0 0h20.0939v20.0939h-20.0939z" fill="#fafbfc"
              transform="matrix(1 -.00000009 -.00000009 -1 1445.82 1224.36)"/>
        <path d="m0 0h20.0939v20.0939h-20.0939z" fill="#f3f4f6"
              transform="matrix(1 -.00000009 -.00000009 -1 1445.82 1043.52)"/>
        <path d="m0 0h20.0939v20.0939h-20.0939z" fill="#fafbfc"
              transform="matrix(1 -.00000009 -.00000009 -1 1445.82 1164.08)"/>
        <path d="m0 0h20.0939v20.0939h-20.0939z" fill="#fafbfc"
              transform="matrix(1 -.00000009 -.00000009 -1 1053.56 1164.08)"/>
        <path d="m0 0h20.0939v20.0939h-20.0939z" fill="#fafbfc"
              transform="matrix(1 -.00000009 -.00000009 -1 993.705 1073.66)"/>
        <path d="m0 0h20.0939v20.0939h-20.0939z" fill="#fafbfc"
              transform="matrix(1 -.00000009 -.00000009 -1 1355.4 1133.94)"/>
        <path d="m0 0h20.0939v20.0939h-20.0939z" fill="#fafbfc"
              transform="matrix(1 -.00000009 -.00000009 -1 963.142 1133.94)"/>
        <path d="m0 0h20.0939v20.0939h-20.0939z" fill="#fafbfc"
              transform="matrix(1 -.00000009 -.00000009 -1 1355.4 1073.66)"/>
        <path d="m0 0h20.0939v20.0939h-20.0939z" fill="#fafbfc"
              transform="matrix(1 -.00000009 -.00000009 -1 1355.4 1194.22)"/>
        <path d="m0 0h20.0939v20.0939h-20.0939z" fill="#fafbfc"
              transform="matrix(1 -.00000009 -.00000009 -1 1355.4 1103.8)"/>
        <path d="m0 0h20.0939v20.0939h-20.0939z" fill="#fafbfc"
              transform="matrix(1 -.00000009 -.00000009 -1 1355.4 1224.36)"/>
        <path d="m0 0h20.0939v20.0939h-20.0939z" fill="#fafbfc"
              transform="matrix(1 -.00000009 -.00000009 -1 963.142 1224.36)"/>
        <path d="m0 0h20.0939v20.0939h-20.0939z" fill="#fafbfc"
              transform="matrix(1 -.00000009 -.00000009 -1 963.142 1254.46)"/>
        <path d="m0 0h20.0939v20.0939h-20.0939z" fill="#fafbfc"
              transform="matrix(1 -.00000009 -.00000009 -1 1355.4 1164.08)"/>
        <path d="m0 0h20.0939v20.0939h-20.0939z" fill="#fafbfc"
              transform="matrix(1 -.00000009 -.00000009 -1 963.142 1164.08)"/>
        <path d="m0 0h20.0939v20.0939h-20.0939z" fill="#fafbfc"
              transform="matrix(1 -.00000009 -.00000009 -1 1174.55 1073.66)"/>
        <path d="m0 0h20.0939v20.0939h-20.0939z" fill="#e1e4e8"
              transform="matrix(1 -.00000009 -.00000009 -1 1536.24 1133.94)"/>
        <path d="m0 0h20.0939v20.0939h-20.0939z" fill="#e1e4e8"
              transform="matrix(1 -.00000009 -.00000009 -1 1143.99 1133.94)"/>
        <path d="m0 0h20.0939v20.0939h-20.0939z" fill="#fafbfc"
              transform="matrix(1 -.00000009 -.00000009 -1 1536.24 1254.5)"/>
        <path d="m0 0h20.0939v20.0939h-20.0939z" fill="#fafbfc"
              transform="matrix(1 -.00000009 -.00000009 -1 1536.24 1013.38)"/>
        <path d="m0 0h20.0939v20.0939h-20.0939z" fill="#fafbfc"
              transform="matrix(1 -.00000009 -.00000009 -1 1536.24 1314.79)"/>
        <path d="m0 0h20.0939v20.0939h-20.0939z" fill="#fafbfc"
              transform="matrix(1 -.00000009 -.00000009 -1 1536.24 1073.66)"/>
        <path d="m0 0h20.0939v20.0939h-20.0939z" fill="#fafbfc"
              transform="matrix(1 -.00000009 -.00000009 -1 1143.99 1194.22)"/>
        <path d="m0 0h20.0939v20.0939h-20.0939z" fill="#fafbfc"
              transform="matrix(1 -.00000009 -.00000009 -1 1536.24 953.094)"/>
        <path d="m0 0h20.0939v20.0939h-20.0939z" fill="#fafbfc"
              transform="matrix(1 -.00000009 -.00000009 -1 1536.24 1103.8)"/>
        <path d="m0 0h20.0939v20.0939h-20.0939z" fill="#fafbfc"
              transform="matrix(1 -.00000009 -.00000009 -1 1536.24 1224.36)"/>
        <path d="m0 0h20.0939v20.0939h-20.0939z" fill="#fafbfc"
              transform="matrix(1 -.00000009 -.00000009 -1 1143.99 1224.36)"/>
        <path d="m0 0h20.0939v20.0939h-20.0939z" fill="#fafbfc"
              transform="matrix(1 -.00000009 -.00000009 -1 1536.24 983.234)"/>
        <path d="m0 0h20.0939v20.0939h-20.0939z" fill="#fafbfc"
              transform="matrix(1 -.00000009 -.00000009 -1 1536.24 1284.64)"/>
        <path d="m0 0h20.0939v20.0939h-20.0939z" fill="#fafbfc"
              transform="matrix(1 -.00000009 -.00000009 -1 1536.24 1043.52)"/>
        <path d="m0 0h20.0939v20.0939h-20.0939z" fill="#fafbfc"
              transform="matrix(1 -.00000009 -.00000009 -1 1566.38 1043.52)"/>
        <path d="m0 0h20.0939v20.0939h-20.0939z" fill="#fafbfc"
              transform="matrix(1 -.00000009 -.00000009 -1 1536.24 1164.08)"/>
        <path d="m0 0h20.0939v20.0939h-20.0939z" fill="#fafbfc"
              transform="matrix(1 -.00000009 -.00000009 -1 933.423 1073.66)"/>
        <path d="m0 0h20.0939v20.0939h-20.0939z" fill="#fafbfc"
              transform="matrix(1 -.00000009 -.00000009 -1 1295.11 1073.66)"/>
        <path d="m0 0h20.0939v20.0939h-20.0939z" fill="#fafbfc"
              transform="matrix(1 -.00000009 -.00000009 -1 1114.27 1073.66)"/>
        <path d="m0 0h20.0939v20.0939h-20.0939z" fill="#fafbfc"
              transform="matrix(1 -.00000009 -.00000009 -1 1083.71 1133.94)"/>
        <path d="m0 0h20.0939v20.0939h-20.0939z" fill="#fafbfc"
              transform="matrix(1 -.00000009 -.00000009 -1 1475.96 1254.5)"/>
        <path d="m0 0h20.0939v20.0939h-20.0939z" fill="#fafbfc"
              transform="matrix(1 -.00000009 -.00000009 -1 1475.96 1073.66)"/>
        <path d="m0 0h20.0939v20.0939h-20.0939z" fill="#fafbfc"
              transform="matrix(1 -.00000009 -.00000009 -1 1083.71 1194.22)"/>
        <path d="m0 0h20.0939v20.0939h-20.0939z" fill="#fafbfc"
              transform="matrix(1 -.00000009 -.00000009 -1 1475.96 1224.36)"/>
        <path d="m0 0h20.0939v20.0939h-20.0939z" fill="#fafbfc"
              transform="matrix(1 -.00000009 -.00000009 -1 1083.71 1224.36)"/>
        <path d="m0 0h20.0939v20.0939h-20.0939z" fill="#fafbfc"
              transform="matrix(1 -.00000009 -.00000009 -1 1475.96 1284.64)"/>
        <path d="m0 0h20.0939v20.0939h-20.0939z" fill="#fafbfc"
              transform="matrix(1 -.00000009 -.00000009 -1 1475.96 1043.52)"/>
        <path d="m0 0h20.0939v20.0939h-20.0939z" fill="#fafbfc"
              transform="matrix(1 -.00000009 -.00000009 -1 1475.96 1164.08)"/>
        <path d="m0 0h20.0939v20.0939h-20.0939z" fill="#fafbfc"
              transform="matrix(1 -.00000009 -.00000009 -1 1023.85 1073.66)"/>
        <path d="m0 0h20.0939v20.0939h-20.0939z" fill="#fafbfc"
              transform="matrix(1 -.00000009 -.00000009 -1 993.282 1133.94)"/>
        <path d="m0 0h20.0939v20.0939h-20.0939z" fill="#f3f4f6"
              transform="matrix(1 -.00000009 -.00000009 -1 1385.54 1073.66)"/>
        <path d="m0 0h20.0939v20.0939h-20.0939z" fill="#fafbfc"
              transform="matrix(1 -.00000009 -.00000009 -1 1385.54 1194.22)"/>
        <path d="m0 0h20.0939v20.0939h-20.0939z" fill="#fafbfc"
              transform="matrix(1 -.00000009 -.00000009 -1 1385.54 1103.8)"/>
        <path d="m0 0h20.0939v20.0939h-20.0939z" fill="#fafbfc"
              transform="matrix(1 -.00000009 -.00000009 -1 1385.54 1224.36)"/>
        <path d="m0 0h20.0939v20.0939h-20.0939z" fill="#fafbfc"
              transform="matrix(1 -.00000009 -.00000009 -1 993.282 1224.36)"/>
        <path d="m0 0h20.0939v20.0939h-20.0939z" fill="#fafbfc"
              transform="matrix(1 -.00000009 -.00000009 -1 883.282 1274.46)"/>
        <path d="m0 0h20.0939v20.0939h-20.0939z" fill="#fafbfc"
              transform="matrix(1 -.00000009 -.00000009 -1 1204.69 1073.66)"/>
        <path d="m0 0h20.0939v20.0939h-20.0939z" fill="#fafbfc"
              transform="matrix(1 -.00000009 -.00000009 -1 1566.38 1133.94)"/>
        <path d="m0 0h20.0939v20.0939h-20.0939z" fill="#fafbfc"
              transform="matrix(1 -.00000009 -.00000009 -1 1174.13 1133.94)"/>
        <path d="m0 0h20.0939v20.0939h-20.0939z" fill="#fafbfc"
              transform="matrix(1 -.00000009 -.00000009 -1 1566.38 1254.5)"/>
        <path d="m0 0h20.0939v20.0939h-20.0939z" fill="#fafbfc"
              transform="matrix(1 -.00000009 -.00000009 -1 1566.38 1013.38)"/>
        <path d="m0 0h20.0939v20.0939h-20.0939z" fill="#fafbfc"
              transform="matrix(1 -.00000009 -.00000009 -1 1566.38 1073.66)"/>
        <path d="m0 0h20.0939v20.0939h-20.0939z" fill="#fafbfc"
              transform="matrix(1 -.00000009 -.00000009 -1 1174.13 1194.22)"/>
        <path d="m0 0h20.0939v20.0939h-20.0939z" fill="#fafbfc"
              transform="matrix(1 -.00000009 -.00000009 -1 1566.38 953.094)"/>
        <path d="m0 0h20.0939v20.0939h-20.0939z" fill="#fafbfc"
              transform="matrix(1 -.00000009 -.00000009 -1 1566.38 1224.36)"/>
        <path d="m0 0h20.0939v20.0939h-20.0939z" fill="#fafbfc"
              transform="matrix(1 -.00000009 -.00000009 -1 1174.13 1224.36)"/>
        <path d="m0 0h20.0939v20.0939h-20.0939z" fill="#fafbfc"
              transform="matrix(1 -.00000009 -.00000009 -1 1173.99 1254.22)"/>
        <path d="m0 0h20.0939v20.0939h-20.0939z" fill="#fafbfc"
              transform="matrix(1 -.00000009 -.00000009 -1 1173.99 1284.36)"/>
        <path d="m0 0h20.0939v20.0939h-20.0939z" fill="#fafbfc"
              transform="matrix(1 -.00000009 -.00000009 -1 1204.13 1254.22)"/>
        <path d="m0 0h20.0939v20.0939h-20.0939z" fill="#fafbfc"
              transform="matrix(1 -.00000009 -.00000009 -1 1204.13 1284.36)"/>
        <path d="m0 0h20.0939v20.0939h-20.0939z" fill="#fafbfc"
              transform="matrix(1 -.00000009 -.00000009 -1 1566.38 983.234)"/>
        <path d="m0 0h20.0939v20.0939h-20.0939z" fill="#e3650d"
              transform="matrix(1 -.00000009 -.00000009 -1 1566.24 983.234)"/>
        <path d="m0 0h20.0939v20.0939h-20.0939z" fill="#fafbfc"
              transform="matrix(1 -.00000009 -.00000009 -1 1566.38 1164.08)"/>
        <path d="m0 0h20.0939v20.0939h-20.0939z" fill="#fafbfc"
              transform="matrix(1 -.00000009 -.00000009 -1 1174.13 1164.08)"/>
        <path d="m0 0h20.0939v20.0939h-20.0939z" fill="#fafbfc"
              transform="matrix(1 -.00000009 -.00000009 -1 1325.25 1073.66)"/>
        <path d="m0 0h20.0939v20.0939h-20.0939z" fill="#fafbfc"
              transform="matrix(1 -.00000009 -.00000009 -1 1325.25 1194.22)"/>
        <path d="m0 0h20.0939v20.0939h-20.0939z" fill="#fafbfc"
              transform="matrix(1 -.00000009 -.00000009 -1 933 1194.22)"/>
        <path d="m0 0h20.0939v20.0939h-20.0939z" fill="#fafbfc"
              transform="matrix(1 -.00000009 -.00000009 -1 1325.25 1103.8)"/>
        <path d="m0 0h20.0939v20.0939h-20.0939z" fill="#fafbfc"
              transform="matrix(1 -.00000009 -.00000009 -1 1325.25 1224.36)"/>
        <path d="m0 0h20.0939v20.0939h-20.0939z" fill="#fafbfc"
              transform="matrix(1 -.00000009 -.00000009 -1 933 1164.08)"/>
        <path d="m0 0h20.0939v20.0939h-20.0939z" fill="#fafbfc"
              transform="matrix(1 -.00000009 -.00000009 -1 1144.41 1073.66)"/>
        <path d="m0 0h20.0939v20.0939h-20.0939z" fill="#fafbfc"
              transform="matrix(1 -.00000009 -.00000009 -1 1506.1 1133.94)"/>
        <path d="m0 0h20.0939v20.0939h-20.0939z" fill="#fafbfc"
              transform="matrix(1 -.00000009 -.00000009 -1 1113.85 1133.94)"/>
        <path d="m0 0h20.0939v20.0939h-20.0939z" fill="#f3f4f6"
              transform="matrix(1 -.00000009 -.00000009 -1 1506.1 1254.5)"/>
        <path d="m0 0h20.0939v20.0939h-20.0939z" fill="#fafbfc"
              transform="matrix(1 -.00000009 -.00000009 -1 1506.1 1013.38)"/>
        <path d="m0 0h20.0939v20.0939h-20.0939z" fill="#fafbfc"
              transform="matrix(1 -.00000009 -.00000009 -1 1506.1 1314.79)"/>
        <path d="m0 0h20.0939v20.0939h-20.0939z" fill="#f1f2f2"
              transform="matrix(1 -.00000009 -.00000009 -1 1506.1 1073.66)"/>
        <path d="m0 0h20.0939v20.0939h-20.0939z" fill="#fafbfc"
              transform="matrix(1 -.00000009 -.00000009 -1 1506.1 1194.22)"/>
        <path d="m0 0h20.0939v20.0939h-20.0939z" fill="#fafbfc"
              transform="matrix(1 -.00000009 -.00000009 -1 1506.1 953.094)"/>
        <path d="m0 0h20.0939v20.0939h-20.0939z" fill="#fafbfc"
              transform="matrix(1 -.00000009 -.00000009 -1 1506.1 1103.8)"/>
        <path d="m0 0h20.0939v20.0939h-20.0939z" fill="#fafbfc"
              transform="matrix(1 -.00000009 -.00000009 -1 1113.85 1224.36)"/>
        <path d="m0 0h20.0939v20.0939h-20.0939z" fill="#fafbfc"
              transform="matrix(1 -.00000009 -.00000009 -1 1506.1 983.234)"/>
        <path d="m0 0h20.0939v20.0939h-20.0939z" fill="#fafbfc"
              transform="matrix(1 -.00000009 -.00000009 -1 1506.1 1284.64)"/>
        <path d="m0 0h20.0939v20.0939h-20.0939z" fill="#fafbfc"
              transform="matrix(1 -.00000009 -.00000009 -1 1506.1 1043.52)"/>
        <path d="m0 0h20.0939v20.0939h-20.0939z" fill="#fafbfc"
              transform="matrix(1 -.00000009 -.00000009 -1 1506.1 1164.08)"/>
        <path d="m0 0h20.0939v20.0939h-20.0939z" fill="#fafbfc"
              transform="matrix(1 -.00000009 -.00000009 -1 1113.85 1164.08)"/>
        <path d="m0 0h20.0939v20.0939h-20.0939z" fill="#fafbfc"
              transform="matrix(1 -.00000009 -.00000009 -1 1415.68 1133.94)"/>
        <path d="m0 0h20.0939v20.0939h-20.0939z" fill="#fafbfc"
              transform="matrix(1 -.00000009 -.00000009 -1 1415.68 1073.66)"/>
        <path d="m0 0h20.0939v20.0939h-20.0939z" fill="#fafbfc"
              transform="matrix(1 -.00000009 -.00000009 -1 1415.68 1194.22)"/>
        <path d="m0 0h20.0939v20.0939h-20.0939z" fill="#fafbfc"
              transform="matrix(1 -.00000009 -.00000009 -1 1023.42 1194.22)"/>
        <path d="m0 0h20.0939v20.0939h-20.0939z" fill="#f3f4f6"
              transform="matrix(1 -.00000009 -.00000009 -1 1415.68 1103.8)"/>
        <g fill="#fafbfc">
            <path d="m0 0h20.0939v20.0939h-20.0939z" transform="matrix(1 -.00000009 -.00000009 -1 1415.68 1043.52)"/>
            <path d="m0 0h20.0939v20.0939h-20.0939z" transform="matrix(1 -.00000009 -.00000009 -1 1415.68 1164.08)"/>
            <path d="m0 0h20.0939v20.0939h-20.0939z" transform="matrix(1 -.00000009 -.00000009 -1 1023.42 1164.08)"/>
            <path d="m0 0h20.0939v20.0939h-20.0939z" transform="matrix(1 -.00000009 -.00000009 -1 1234.83 1073.66)"/>
            <path d="m0 0h20.0939v20.0939h-20.0939z" transform="matrix(1 -.00000009 -.00000009 -1 1596.52 1133.94)"/>
            <path d="m0 0h20.0939v20.0939h-20.0939z" transform="matrix(1 -.00000009 -.00000009 -1 1204.27 1133.94)"/>
            <path d="m0 0h20.0939v20.0939h-20.0939z" transform="matrix(1 -.00000009 -.00000009 -1 1596.52 1254.5)"/>
            <path d="m0 0h20.0939v20.0939h-20.0939z" transform="matrix(1 -.00000009 -.00000009 -1 1596.52 1073.66)"/>
            <path d="m0 0h20.0939v20.0939h-20.0939z" transform="matrix(1 -.00000009 -.00000009 -1 1596.52 1194.22)"/>
            <path d="m0 0h20.0939v20.0939h-20.0939z" transform="matrix(1 -.00000009 -.00000009 -1 1204.27 1194.22)"/>
            <path d="m0 0h20.0939v20.0939h-20.0939z" transform="matrix(1 -.00000009 -.00000009 -1 1596.52 953.094)"/>
            <path d="m0 0h20.0939v20.0939h-20.0939z" transform="matrix(1 -.00000009 -.00000009 -1 1596.52 1103.8)"/>
            <path d="m0 0h20.0939v20.0939h-20.0939z" transform="matrix(1 -.00000009 -.00000009 -1 1596.52 983.234)"/>
            <path d="m0 0h20.0939v20.0939h-20.0939z" transform="matrix(1 -.00000009 -.00000009 -1 1596.52 1284.64)"/>
            <path d="m0 0h20.0939v20.0939h-20.0939z" transform="matrix(1 -.00000009 -.00000009 -1 1596.52 1043.52)"/>
            <path d="m0 0h20.0939v20.0939h-20.0939z" transform="matrix(1 -.00000009 -.00000009 -1 1596.52 1164.08)"/>
            <path d="m0 0h20.0939v20.0939h-20.0939z" transform="matrix(1 -.00000009 -.00000009 -1 1204.27 1164.08)"/>
            <path d="m0 0h20.0939v20.0939h-20.0939z" transform="matrix(1 -.00000009 -.00000009 -1 1626.66 1254.5)"/>
            <path d="m0 0h20.0939v20.0939h-20.0939z" transform="matrix(1 -.00000009 -.00000009 -1 1626.66 953.094)"/>
            <path d="m0 0h20.0939v20.0939h-20.0939z" transform="matrix(1 -.00000009 -.00000009 -1 1626.66 1103.8)"/>
            <path d="m0 0h20.0939v20.0939h-20.0939z" transform="matrix(1 -.00000009 -.00000009 -1 1626.66 983.234)"/>
            <path d="m0 0h20.0939v20.0939h-20.0939z" transform="matrix(1 -.00000009 -.00000009 -1 1626.66 1043.52)"/>
            <path d="m0 0h20.0939v20.0939h-20.0939z" transform="matrix(1 -.00000009 -.00000009 -1 1234.41 1164.08)"/>
            <path d="m0 0h20.0939v20.0939h-20.0939z" transform="matrix(1 -.00000009 -.00000009 -1 1807.51 1254.5)"/>
            <path d="m0 0h20.0939v20.0939h-20.0939z" transform="matrix(1 -.00000009 -.00000009 -1 1807.51 1314.79)"/>
            <path d="m0 0h20.0939v20.0939h-20.0939z" transform="matrix(1 -.00000009 -.00000009 -1 1717.09 953.094)"/>
            <path d="m0 0h20.0939v20.0939h-20.0939z" transform="matrix(1 -.00000009 -.00000009 -1 1717.09 1103.8)"/>
            <path d="m0 0h20.0939v20.0939h-20.0939z" transform="matrix(1 -.00000009 -.00000009 -1 1717.09 1224.36)"/>
            <path d="m0 0h20.0939v20.0939h-20.0939z" transform="matrix(1 -.00000009 -.00000009 -1 1717.09 1164.08)"/>
            <path d="m0 0h20.0939v20.0939h-20.0939z" transform="matrix(1 -.00000009 -.00000009 -1 1656.8 1013.38)"/>
            <path d="m0 0h20.0939v20.0939h-20.0939z" transform="matrix(1 -.00000009 -.00000009 -1 1656.8 1314.79)"/>
            <path d="m0 0h20.0939v20.0939h-20.0939z" transform="matrix(1 -.00000009 -.00000009 -1 1656.8 1194.22)"/>
            <path d="m0 0h20.0939v20.0939h-20.0939z" transform="matrix(1 -.00000009 -.00000009 -1 1264.55 1194.22)"/>
            <path d="m0 0h20.0939v20.0939h-20.0939z" transform="matrix(1 -.00000009 -.00000009 -1 1656.8 953.094)"/>
            <path d="m0 0h20.0939v20.0939h-20.0939z" transform="matrix(1 -.00000009 -.00000009 -1 1686.95 1133.94)"/>
            <path d="m0 0h20.0939v20.0939h-20.0939z" transform="matrix(1 -.00000009 -.00000009 -1 1294.69 1133.94)"/>
            <path d="m0 0h20.0939v20.0939h-20.0939z" transform="matrix(1 -.00000009 -.00000009 -1 1686.95 1254.5)"/>
            <path d="m0 0h20.0939v20.0939h-20.0939z" transform="matrix(1 -.00000009 -.00000009 -1 1686.95 1073.66)"/>
            <path d="m0 0h20.0939v20.0939h-20.0939z" transform="matrix(1 -.00000009 -.00000009 -1 1294.69 1194.22)"/>
        </g>
        <path d="m0 0h20.0939v20.0939h-20.0939z" fill="#e1e4e8"
              transform="matrix(1 -.00000009 -.00000009 -1 1686.95 953.094)"/>
        <path d="m0 0h20.0939v20.0939h-20.0939z" fill="#fafbfc"
              transform="matrix(1 -.00000009 -.00000009 -1 1294.69 1224.36)"/>
        <path d="m0 0h20.0939v20.0939h-20.0939z" fill="#fafbfc"
              transform="matrix(1 -.00000009 -.00000009 -1 1686.95 983.234)"/>
        <path d="m0 0h20.0939v20.0939h-20.0939z" fill="#fafbfc"
              transform="matrix(1 -.00000009 -.00000009 -1 1686.95 1043.52)"/>
        <path d="m0 0h20.0939v20.0939h-20.0939z" fill="#fafbfc"
              transform="matrix(1 -.00000009 -.00000009 -1 1686.95 1164.08)"/>
        <path d="m0 0h20.0939v20.0939h-20.0939z" fill="#fafbfc"
              transform="matrix(1 -.00000009 -.00000009 -1 1294.69 1164.08)"/>
        <path d="m30.5361 482.256h20.0939v20.0939h-20.0939z" fill="#fafbfc"/>
        <path d="m30.5361 60.2832h20.0939v20.0939h-20.0939z" fill="#fafbfc"/>
        <path d="m30.5361 542.537h20.0939v20.0939h-20.0939z" fill="#fafbfc"/>
        <path d="m30.5361 30.1406h20.0939v20.0939h-20.0939z" fill="#fafbfc"/>
        <path d="m30.5361 150.706h20.0939v20.0939h-20.0939z" fill="#fafbfc"/>
        <path d="m30.5361 693.24h20.0939v20.0939h-20.0939z" fill="#fafbfc"/>
        <path d="m120.959 241.127h20.0939v20.0939h-20.0939z" fill="#fafbfc"/>
        <path d="m120.959 723.383h20.0939v20.0939h-20.0939z" fill="#e1e4e8"/>
        <path d="m120.959 60.2832h20.0939v20.0939h-20.0939z" fill="#fafbfc"/>
        <path d="m120.959 783.664h20.0939v20.0939h-20.0939z" fill="#fafbfc"/>
        <path d="m120.959 421.973h20.0939v20.0939h-20.0939z" fill="#fafbfc"/>
        <path d="m120.959 904.227h20.0939v20.0939h-20.0939z" fill="#fafbfc"/>
        <path d="m120.959 30.1406h20.0939v20.0939h-20.0939z" fill="#e1e4e8"/>
        <path d="m120.959 512.395h20.0939v20.0939h-20.0939z" fill="#fafbfc"/>
        <path d="m120.959 753.523h20.0939v20.0939h-20.0939z" fill="#fafbfc"/>
        <path d="m120.959 150.706h20.0939v20.0939h-20.0939z" fill="#fafbfc"/>
        <path d="m120.959 874.086h20.0939v20.0939h-20.0939z" fill="#fafbfc"/>
        <path d="m120.959 572.678h20.0939v20.0939h-20.0939z" fill="#fafbfc"/>
        <path d="m120.959 813.805h20.0939v20.0939h-20.0939z" fill="#fafbfc"/>
        <path d="m120.959 693.24h20.0939v20.0939h-20.0939z" fill="#fafbfc"/>
        <path d="m60.6768.000977h20.0939v20.0939h-20.0939z" fill="#fafbfc"/>
        <path d="m60.6768 482.256h20.0939v20.0939h-20.0939z" fill="#fafbfc"/>
        <path d="m60.6768 241.127h20.0939v20.0939h-20.0939z" fill="#fafbfc"/>
        <path d="m60.6768 723.383h20.0939v20.0939h-20.0939z" fill="#fafbfc"/>
        <path d="m60.6768 60.2832h20.0939v20.0939h-20.0939z" fill="#fafbfc"/>
        <path d="m60.6768 783.664h20.0939v20.0939h-20.0939z" fill="#fafbfc"/>
        <path d="m60.6768 904.227h20.0939v20.0939h-20.0939z" fill="#fafbfc"/>
        <path d="m60.6768 271.27h20.0939v20.0939h-20.0939z" fill="#f1f2f2"/>
        <path d="m60.6768 753.523h20.0939v20.0939h-20.0939z" fill="#fafbfc"/>
        <path d="m60.6768 874.086h20.0939v20.0939h-20.0939z" fill="#fafbfc"/>
        <path d="m60.6768 452.115h20.0939v20.0939h-20.0939z" fill="#fafbfc"/>
        <path d="m.395508 60.2832h20.0939v20.0939h-20.0939z" fill="#fafbfc"/>
        <path d="m151.1 723.383h20.0939v20.0939h-20.0939z" fill="#fafbfc"/>
        <path d="m151.1 120.563h20.0939v20.0939h-20.0939z" fill="#fafbfc"/>
        <path d="m151.1 843.945h20.0939v20.0939h-20.0939z" fill="#fafbfc"/>
        <path d="m151.1 783.664h20.0939v20.0939h-20.0939z" fill="#fafbfc"/>
        <path d="m151.1 271.27h20.0939v20.0939h-20.0939z" fill="#fafbfc"/>
        <path d="m151.1 753.523h20.0939v20.0939h-20.0939z" fill="#fafbfc"/>
        <path d="m151.1 150.706h20.0939v20.0939h-20.0939z" fill="#f3f4f6"/>
        <path d="m151.1 874.086h20.0939v20.0939h-20.0939z" fill="#fafbfc"/>
        <path d="m120.959 874.086h20.0939v20.0939h-20.0939z" fill="url(#g)"/>
        <path d="m151.1 210.986h20.0939v20.0939h-20.0939z" fill="#fafbfc"/>
        <path d="m151.1 693.24h20.0939v20.0939h-20.0939z" fill="#fafbfc"/>
        <path d="m90.8184 120.563h20.0939v20.0939h-20.0939z" fill="#fafbfc"/>
        <path d="m90.8184 843.945h20.0939v20.0939h-20.0939z" fill="#fafbfc"/>
        <path d="m90.8184 60.2832h20.0939v20.0939h-20.0939z" fill="#fafbfc"/>
        <path d="m90.8184 542.537h20.0939v20.0939h-20.0939z" fill="#fafbfc"/>
        <path d="m90.8184 783.664h20.0939v20.0939h-20.0939z" fill="#f1f2f2"/>
        <path d="m90.8184 421.973h20.0939v20.0939h-20.0939z" fill="#fafbfc"/>
        <path d="m90.8184 874.086h20.0939v20.0939h-20.0939z" fill="#fafbfc"/>
        <path d="m90.8184 90.4229h20.0939v20.0939h-20.0939z" fill="#fafbfc"/>
        <path d="m90.8184 572.678h20.0939v20.0939h-20.0939z" fill="#fafbfc"/>
        <path d="m90.8184 813.805h20.0939v20.0939h-20.0939z" fill="#fafbfc"/>
        <path d="m90.8184 693.24h20.0939v20.0939h-20.0939z" fill="#fafbfc"/>
        <path d="m.395508 542.537h20.0939v20.0939h-20.0939z" fill="#fafbfc"/>
        <path d="m.395508 421.973h20.0939v20.0939h-20.0939z" fill="#fafbfc"/>
        <path d="m.395508 30.1406h20.0939v20.0939h-20.0939z" fill="#fafbfc"/>
        <path d="m.395508 512.395h20.0939v20.0939h-20.0939z" fill="#fafbfc"/>
        <path d="m.395508 331.55h20.0939v20.0939h-20.0939z" fill="#fafbfc"/>
        <path d="m30.3955 30.1416h20.0939v20.0939h-20.0939z" fill="#f9826c"/>
        <path d="m.395508 693.24h20.0939v20.0939h-20.0939z" fill="#fafbfc"/>
        <path d="m181.24 843.945h20.0939v20.0939h-20.0939z" fill="#fafbfc"/>
        <path d="m181.24 783.664h20.0939v20.0939h-20.0939z" fill="#fafbfc"/>
        <path d="m181.24 180.847h20.0939v20.0939h-20.0939z" fill="#fafbfc"/>
        <path d="m181.24 874.086h20.0939v20.0939h-20.0939z" fill="#fafbfc"/>
        <path d="m181.24 90.4229h20.0939v20.0939h-20.0939z" fill="#fafbfc"/>
        <path d="m181.24 572.678h20.0939v20.0939h-20.0939z" fill="#fafbfc"/>
        <path d="m181.24 813.805h20.0939v20.0939h-20.0939z" fill="#fafbfc"/>
        <path d="m181.24 210.986h20.0939v20.0939h-20.0939z" fill="#fafbfc"/>
        <path d="m211.382 120.563h20.0939v20.0939h-20.0939z" fill="#f3f4f6"/>
        <path d="m211.382 843.945h20.0939v20.0939h-20.0939z" fill="#fafbfc"/>
        <path d="m211.382 783.664h20.0939v20.0939h-20.0939z" fill="#fafbfc"/>
        <path d="m211.382 180.847h20.0939v20.0939h-20.0939z" fill="#f3f4f6"/>
        <path d="m211.382 904.227h20.0939v20.0939h-20.0939z" fill="#fafbfc"/>
        <path d="m211.382 271.27h20.0939v20.0939h-20.0939z" fill="#fafbfc"/>
        <path d="m211.382 301.409h20.0939v20.0939h-20.0939z" fill="#fafbfc"/>
        <path d="m211.382 331.503h20.0939v20.0939h-20.0939z" fill="#fafbfc"/>
        <path d="m211.382 361.645h20.0939v20.0939h-20.0939z" fill="#f1f2f2"/>
        <path d="m151.147 361.645h20.0939v20.0939h-20.0939z" fill="#fafbfc"/>
        <path d="m392.228 482.256h20.0939v20.0939h-20.0939z" fill="#fafbfc"/>
        <path d="m392.228 241.127h20.0939v20.0939h-20.0939z" fill="#fafbfc"/>
        <path d="m392.228 120.563h20.0939v20.0939h-20.0939z" fill="#fafbfc"/>
        <path d="m392.228 843.945h20.0939v20.0939h-20.0939z" fill="#fafbfc"/>
        <path d="m392.228 542.537h20.0939v20.0939h-20.0939z" fill="#fafbfc"/>
        <path d="m392.228 301.409h20.0939v20.0939h-20.0939z" fill="#fafbfc"/>
        <path d="m392.228 783.664h20.0939v20.0939h-20.0939z" fill="#fafbfc"/>
        <path d="m392.228 180.847h20.0939v20.0939h-20.0939z" fill="#fafbfc"/>
        <path d="m392.228 421.973h20.0939v20.0939h-20.0939z" fill="#fafbfc"/>
        <path d="m392.228 904.227h20.0939v20.0939h-20.0939z" fill="#fafbfc"/>
        <path d="m392.228 512.395h20.0939v20.0939h-20.0939z" fill="#fafbfc"/>
        <path d="m392.228 391.833h20.0939v20.0939h-20.0939z" fill="#fafbfc"/>
        <path d="m392.228 874.086h20.0939v20.0939h-20.0939z" fill="#fafbfc"/>
        <path d="m392.228 331.55h20.0939v20.0939h-20.0939z" fill="#fafbfc"/>
        <path d="m392.228 813.805h20.0939v20.0939h-20.0939z" fill="#fafbfc"/>
        <path d="m392.228 452.115h20.0939v20.0939h-20.0939z" fill="#fafbfc"/>
        <path d="m301.804.000977h20.0939v20.0939h-20.0939z" fill="#fafbfc"/>
        <path d="m301.804 241.127h20.0939v20.0939h-20.0939z" fill="#fafbfc"/>
        <path d="m301.804 120.563h20.0939v20.0939h-20.0939z" fill="#e1e4e8"/>
        <path d="m301.804 843.945h20.0939v20.0939h-20.0939z" fill="#fafbfc"/>
        <path d="m301.804 60.2832h20.0939v20.0939h-20.0939z" fill="#fafbfc"/>
        <path d="m301.804 542.537h20.0939v20.0939h-20.0939z" fill="#fafbfc"/>
        <path d="m301.804 301.409h20.0939v20.0939h-20.0939z" fill="#fafbfc"/>
        <path d="m301.804 783.664h20.0939v20.0939h-20.0939z" fill="#fafbfc"/>
        <path d="m301.804 904.227h20.0939v20.0939h-20.0939z" fill="#fafbfc"/>
        <path d="m301.804 512.395h20.0939v20.0939h-20.0939z" fill="#fafbfc"/>
        <path d="m301.804 271.27h20.0939v20.0939h-20.0939z" fill="#fafbfc"/>
        <path d="m301.804 150.706h20.0939v20.0939h-20.0939z" fill="#fafbfc"/>
        <path d="m301.804 874.086h20.0939v20.0939h-20.0939z" fill="#fafbfc"/>
        <path d="m301.804 572.678h20.0939v20.0939h-20.0939z" fill="#fafbfc"/>
        <path d="m301.804 331.55h20.0939v20.0939h-20.0939z" fill="#fafbfc"/>
        <path d="m301.804 813.805h20.0939v20.0939h-20.0939z" fill="#fafbfc"/>
        <path d="m301.804 210.986h20.0939v20.0939h-20.0939z" fill="#fafbfc"/>
        <path d="m241.522 482.256h20.0939v20.0939h-20.0939z" fill="#fafbfc"/>
        <path d="m241.522 241.127h20.0939v20.0939h-20.0939z" fill="#fafbfc"/>
        <path d="m241.522 843.945h20.0939v20.0939h-20.0939z" fill="#fafbfc"/>
        <path d="m241.522 542.537h20.0939v20.0939h-20.0939z" fill="#fafbfc"/>
        <path d="m241.522 301.409h20.0939v20.0939h-20.0939z" fill="#fafbfc"/>
        <path d="m241.522 331.503h20.0939v20.0939h-20.0939z" fill="#fafbfc"/>
        <path d="m181.288 361.645h20.0939v20.0939h-20.0939z" fill="#fafbfc"/>
        <path d="m241.522 180.847h20.0939v20.0939h-20.0939z" fill="#fafbfc"/>
        <path d="m241.522 30.1406h20.0939v20.0939h-20.0939z" fill="#fafbfc"/>
        <path d="m241.522 512.395h20.0939v20.0939h-20.0939z" fill="#fafbfc"/>
        <path d="m241.522 150.706h20.0939v20.0939h-20.0939z" fill="#fafbfc"/>
        <g filter="url(#b)">
            <path d="m392.228 421.973h20.0939v20.0939h-20.0939z" fill="url(#i)"/>
        </g>
        <path d="m241.522 874.086h20.0939v20.0939h-20.0939z" fill="#fafbfc"/>
        <path d="m241.522 572.678h20.0939v20.0939h-20.0939z" fill="#fafbfc"/>
        <path d="m331.946 241.127h20.0939v20.0939h-20.0939z" fill="#fafbfc"/>
        <path d="m331.946 361.692h20.0939v20.0939h-20.0939z" fill="#fafbfc"/>
        <path d="m331.946 843.945h20.0939v20.0939h-20.0939z" fill="#fafbfc"/>
        <path d="m331.946 542.537h20.0939v20.0939h-20.0939z" fill="#fafbfc"/>
        <path d="m331.946 783.664h20.0939v20.0939h-20.0939z" fill="#fafbfc"/>
        <path d="m331.946 180.847h20.0939v20.0939h-20.0939z" fill="#fafbfc"/>
        <path d="m331.946 421.973h20.0939v20.0939h-20.0939z" fill="#fafbfc"/>
        <path d="m331.946 904.227h20.0939v20.0939h-20.0939z" fill="#fafbfc"/>
        <path d="m331.946 512.395h20.0939v20.0939h-20.0939z" fill="#fafbfc"/>
        <path d="m331.946 271.27h20.0939v20.0939h-20.0939z" fill="#fafbfc"/>
        <path d="m331.946 150.706h20.0939v20.0939h-20.0939z" fill="#fafbfc"/>
        <path d="m331.946 391.833h20.0939v20.0939h-20.0939z" fill="#fafbfc"/>
        <path d="m331.946 572.678h20.0939v20.0939h-20.0939z" fill="#fafbfc"/>
        <path d="m331.946 331.55h20.0939v20.0939h-20.0939z" fill="#fafbfc"/>
        <path d="m331.946 452.115h20.0939v20.0939h-20.0939z" fill="#fafbfc"/>
        <path d="m271.663 482.256h20.0939v20.0939h-20.0939z" fill="#fafbfc"/>
        <path d="m271.663 120.563h20.0939v20.0939h-20.0939z" fill="#fafbfc"/>
        <path d="m271.663 361.692h20.0939v20.0939h-20.0939z" fill="#fafbfc"/>
        <path d="m271.663 843.945h20.0939v20.0939h-20.0939z" fill="#fafbfc"/>
        <path d="m271.663 542.537h20.0939v20.0939h-20.0939z" fill="#e1e4e8"/>
        <path d="m271.663 301.409h20.0939v20.0939h-20.0939z" fill="#f3f4f6"/>
        <path d="m271.663 783.664h20.0939v20.0939h-20.0939z" fill="#fafbfc"/>
        <path d="m271.663 904.227h20.0939v20.0939h-20.0939z" fill="#e1e4e8"/>
        <path d="m271.663 512.395h20.0939v20.0939h-20.0939z" fill="#fafbfc"/>
        <path d="m271.663 271.27h20.0939v20.0939h-20.0939z" fill="#fafbfc"/>
        <path d="m271.663 874.086h20.0939v20.0939h-20.0939z" fill="#fafbfc"/>
        <path d="m271.663 90.4229h20.0939v20.0939h-20.0939z" fill="#fafbfc"/>
        <path d="m271.663 572.678h20.0939v20.0939h-20.0939z" fill="#fafbfc"/>
        <path d="m271.663 331.55h20.0939v20.0939h-20.0939z" fill="#f3f4f6"/>
        <path d="m271.663 813.805h20.0939v20.0939h-20.0939z" fill="#fafbfc"/>
        <path d="m362.087 843.945h20.0939v20.0939h-20.0939z" fill="#fafbfc"/>
        <path d="m362.087 542.537h20.0939v20.0939h-20.0939z" fill="#fafbfc"/>
        <path d="m362.087 301.409h20.0939v20.0939h-20.0939z" fill="#fafbfc"/>
        <path d="m362.087 783.664h20.0939v20.0939h-20.0939z" fill="#fafbfc"/>
        <path d="m362.087 421.973h20.0939v20.0939h-20.0939z" fill="#fafbfc"/>
        <path d="m362.087 904.227h20.0939v20.0939h-20.0939z" fill="#fafbfc"/>
        <path d="m362.087 30.1406h20.0939v20.0939h-20.0939z" fill="#fafbfc"/>
        <path d="m362.087 512.395h20.0939v20.0939h-20.0939z" fill="#fafbfc"/>
        <path d="m362.087 271.27h20.0939v20.0939h-20.0939z" fill="#f1f2f2"/>
        <path d="m362.087 150.706h20.0939v20.0939h-20.0939z" fill="#fafbfc"/>
        <path d="m362.087 391.833h20.0939v20.0939h-20.0939z" fill="#fafbfc"/>
        <path d="m362.087 874.086h20.0939v20.0939h-20.0939z" fill="#fafbfc"/>
        <g filter="url(#c)">
            <path d="m331.946 180.847h20.0939v20.0939h-20.0939z" fill="url(#k)"/>
        </g>
        <path d="m362.087 90.4229h20.0939v20.0939h-20.0939z" fill="#fafbfc"/>
        <path d="m362.087 813.805h20.0939v20.0939h-20.0939z" fill="#fafbfc"/>
        <path d="m362.087 452.115h20.0939v20.0939h-20.0939z" fill="#fafbfc"/>
        <path d="m0 0h20.0939v20.0939h-20.0939z" fill="#fafbfc"
              transform="matrix(1 -.00000009 -.00000009 -1 1445.82 200.938)"/>
        <path d="m0 0h20.0939v20.0939h-20.0939z" fill="#fafbfc"
              transform="matrix(1 -.00000009 -.00000009 -1 1445.82 80.375)"/>
        <path d="m0 0h20.0939v20.0939h-20.0939z" fill="#fafbfc"
              transform="matrix(1 -.00000009 -.00000009 -1 1445.82 170.797)"/>
        <path d="m0 0h20.0939v20.0939h-20.0939z" fill="#fafbfc"
              transform="matrix(1 -.00000009 -.00000009 -1 1445.82 291.36)"/>
        <path d="m0 0h20.0939v20.0939h-20.0939z" fill="#f3f4f6"
              transform="matrix(1 -.00000009 -.00000009 -1 1445.82 110.516)"/>
        <path d="m0 0h20.0939v20.0939h-20.0939z" fill="#fafbfc"
              transform="matrix(1 -.00000009 -.00000009 -1 1355.4 321.502)"/>
        <path d="m0 0h20.0939v20.0939h-20.0939z" fill="#fafbfc"
              transform="matrix(1 -.00000009 -.00000009 -1 1355.4 291.361)"/>
        <path d="m0 0h20.0939v20.0939h-20.0939z" fill="#fafbfc"
              transform="matrix(1 -.00000009 -.00000009 -1 1536.24 924.32)"/>
        <path d="m0 0h20.0939v20.0939h-20.0939z" fill="#fafbfc"
              transform="matrix(1 -.00000009 -.00000009 -1 1536.24 80.375)"/>
        <path d="m0 0h20.0939v20.0939h-20.0939z" fill="#fafbfc"
              transform="matrix(1 -.00000009 -.00000009 -1 1536.24 864.039)"/>
        <path d="m0 0h20.0939v20.0939h-20.0939z" fill="#fafbfc"
              transform="matrix(1 -.00000009 -.00000009 -1 1536.24 381.783)"/>
        <path d="m0 0h20.0939v20.0939h-20.0939z" fill="#fafbfc"
              transform="matrix(1 -.00000009 -.00000009 -1 1536.24 140.656)"/>
        <path d="m0 0h20.0939v20.0939h-20.0939z" fill="#fafbfc"
              transform="matrix(1 -.00000009 -.00000009 -1 1536.24 502.348)"/>
        <path d="m0 0h20.0939v20.0939h-20.0939z" fill="#fafbfc"
              transform="matrix(1 -.00000009 -.00000009 -1 1536.24 20.0928)"/>
        <path d="m0 0h20.0939v20.0939h-20.0939z" fill="#e1e4e8"
              transform="matrix(1 -.00000009 -.00000009 -1 1536.24 894.18)"/>
        <path d="m0 0h20.0939v20.0939h-20.0939z" fill="#fafbfc"
              transform="matrix(1 -.00000009 -.00000009 -1 1536.24 411.925)"/>
        <path d="m0 0h20.0939v20.0939h-20.0939z" fill="#fafbfc"
              transform="matrix(1 -.00000009 -.00000009 -1 1536.24 170.797)"/>
        <path d="m0 0h20.0939v20.0939h-20.0939z" fill="#fafbfc"
              transform="matrix(1 -.00000009 -.00000009 -1 1536.24 773.615)"/>
        <path d="m0 0h20.0939v20.0939h-20.0939z" fill="#fafbfc"
              transform="matrix(1 -.00000009 -.00000009 -1 1536.24 291.36)"/>
        <path d="m0 0h20.0939v20.0939h-20.0939z" fill="#fafbfc"
              transform="matrix(1 -.00000009 -.00000009 -1 1536.24 50.2334)"/>
        <path d="m0 0h20.0939v20.0939h-20.0939z" fill="#fafbfc"
              transform="matrix(1 -.00000009 -.00000009 -1 1536.24 833.896)"/>
        <path d="m0 0h20.0939v20.0939h-20.0939z" fill="#fafbfc"
              transform="matrix(1 -.00000009 -.00000009 -1 1566.38 110.516)"/>
        <path d="m0 0h20.0939v20.0939h-20.0939z" fill="#fafbfc"
              transform="matrix(1 -.00000009 -.00000009 -1 1536.24 231.079)"/>
        <path d="m0 0h20.0939v20.0939h-20.0939z" fill="#fafbfc"
              transform="matrix(1 -.00000009 -.00000009 -1 1475.96 321.502)"/>
        <path d="m0 0h20.0939v20.0939h-20.0939z" fill="#fafbfc"
              transform="matrix(1 -.00000009 -.00000009 -1 1475.96 80.375)"/>
        <path d="m0 0h20.0939v20.0939h-20.0939z" fill="#fafbfc"
              transform="matrix(1 -.00000009 -.00000009 -1 1475.96 261.22)"/>
        <path d="m0 0h20.0939v20.0939h-20.0939z" fill="#fafbfc"
              transform="matrix(1 -.00000009 -.00000009 -1 1475.96 291.36)"/>
        <path d="m0 0h20.0939v20.0939h-20.0939z" fill="#fafbfc"
              transform="matrix(1 -.00000009 -.00000009 -1 1475.96 50.2334)"/>
        <path d="m0 0h20.0939v20.0939h-20.0939z" fill="#fafbfc"
              transform="matrix(1 -.00000009 -.00000009 -1 1385.54 200.938)"/>
        <path d="m0 0h20.0939v20.0939h-20.0939z" fill="#f3f4f6"
              transform="matrix(1 -.00000009 -.00000009 -1 1385.54 140.656)"/>
        <path d="m0 0h20.0939v20.0939h-20.0939z" fill="#fafbfc"
              transform="matrix(1 -.00000009 -.00000009 -1 1385.54 291.36)"/>
        <path d="m0 0h20.0939v20.0939h-20.0939z" fill="#fafbfc"
              transform="matrix(1 -.00000009 -.00000009 -1 1566.38 924.32)"/>
        <path d="m0 0h20.0939v20.0939h-20.0939z" fill="#fafbfc"
              transform="matrix(1 -.00000009 -.00000009 -1 1566.38 200.938)"/>
        <path d="m0 0h20.0939v20.0939h-20.0939z" fill="#fafbfc"
              transform="matrix(1 -.00000009 -.00000009 -1 1566.38 803.756)"/>
        <path d="m0 0h20.0939v20.0939h-20.0939z" fill="#fafbfc"
              transform="matrix(1 -.00000009 -.00000009 -1 1566.38 321.502)"/>
        <path d="m0 0h20.0939v20.0939h-20.0939z" fill="#fafbfc"
              transform="matrix(1 -.00000009 -.00000009 -1 1566.38 743.475)"/>
        <path d="m0 0h20.0939v20.0939h-20.0939z" fill="#fafbfc"
              transform="matrix(1 -.00000009 -.00000009 -1 1566.38 261.22)"/>
        <path d="m0 0h20.0939v20.0939h-20.0939z" fill="#fafbfc"
              transform="matrix(1 -.00000009 -.00000009 -1 1566.38 170.797)"/>
        <path d="m0 0h20.0939v20.0939h-20.0939z" fill="#f3f4f6"
              transform="matrix(1 -.00000009 -.00000009 -1 1566.38 773.615)"/>
        <path d="m0 0h20.0939v20.0939h-20.0939z" fill="#fafbfc"
              transform="matrix(1 -.00000009 -.00000009 -1 1566.38 291.36)"/>
        <path d="m0 0h20.0939v20.0939h-20.0939z" fill="#fafbfc"
              transform="matrix(1 -.00000009 -.00000009 -1 1566.38 50.2334)"/>
        <path d="m0 0h20.0939v20.0939h-20.0939z" fill="#fafbfc"
              transform="matrix(1 -.00000009 -.00000009 -1 1566.38 833.896)"/>
        <g filter="url(#d)">
            <path d="m0 0h20.0939v20.0939h-20.0939z" fill="url(#l)"
                  transform="matrix(1 -.00000009 -.00000009 -1 1536.24 50.2334)"/>
        </g>
        <path d="m0 0h20.0939v20.0939h-20.0939z" fill="#fafbfc"
              transform="matrix(1 -.00000009 -.00000009 -1 1566.38 713.334)"/>
        <path d="m0 0h20.0939v20.0939h-20.0939z" fill="#fafbfc"
              transform="matrix(1 -.00000009 -.00000009 -1 1506.1 924.32)"/>
        <path d="m0 0h20.0939v20.0939h-20.0939z" fill="#fafbfc"
              transform="matrix(1 -.00000009 -.00000009 -1 1506.1 200.938)"/>
        <path d="m0 0h20.0939v20.0939h-20.0939z" fill="#fafbfc"
              transform="matrix(1 -.00000009 -.00000009 -1 1506.1 803.756)"/>
        <path d="m0 0h20.0939v20.0939h-20.0939z" fill="#f3f4f6"
              transform="matrix(1 -.00000009 -.00000009 -1 1506.1 321.502)"/>
        <path d="m0 0h20.0939v20.0939h-20.0939z" fill="#fafbfc"
              transform="matrix(1 -.00000009 -.00000009 -1 1506.1 864.039)"/>
        <path d="m0 0h20.0939v20.0939h-20.0939z" fill="#fafbfc"
              transform="matrix(1 -.00000009 -.00000009 -1 1506.1 381.784)"/>
        <path d="m0 0h20.0939v20.0939h-20.0939z" fill="#fafbfc"
              transform="matrix(1 -.00000009 -.00000009 -1 1506.1 261.22)"/>
        <path d="m0 0h20.0939v20.0939h-20.0939z" fill="#fafbfc"
              transform="matrix(1 -.00000009 -.00000009 -1 1506.1 502.348)"/>
        <path d="m0 0h20.0939v20.0939h-20.0939z" fill="#fafbfc"
              transform="matrix(1 -.00000009 -.00000009 -1 1506.1 894.18)"/>
        <path d="m0 0h20.0939v20.0939h-20.0939z" fill="#fafbfc"
              transform="matrix(1 -.00000009 -.00000009 -1 1506.1 411.925)"/>
        <path d="m0 0h20.0939v20.0939h-20.0939z" fill="#fafbfc"
              transform="matrix(1 -.00000009 -.00000009 -1 1506.1 773.615)"/>
        <path d="m0 0h20.0939v20.0939h-20.0939z" fill="#fafbfc"
              transform="matrix(1 -.00000009 -.00000009 -1 1506.1 291.36)"/>
        <path d="m0 0h20.0939v20.0939h-20.0939z" fill="#fafbfc"
              transform="matrix(1 -.00000009 -.00000009 -1 1506.1 833.896)"/>
        <path d="m0 0h20.0939v20.0939h-20.0939z" fill="#fafbfc"
              transform="matrix(1 -.00000009 -.00000009 -1 1506.1 351.643)"/>
        <path d="m0 0h20.0939v20.0939h-20.0939z" fill="#fafbfc"
              transform="matrix(1 -.00000009 -.00000009 -1 1506.1 110.516)"/>
        <path d="m0 0h20.0939v20.0939h-20.0939z" fill="#fafbfc"
              transform="matrix(1 -.00000009 -.00000009 -1 1506.1 231.079)"/>
        <path d="m0 0h20.0939v20.0939h-20.0939z" fill="#fafbfc"
              transform="matrix(1 -.00000009 -.00000009 -1 1415.68 321.502)"/>
        <path d="m0 0h20.0939v20.0939h-20.0939z" fill="#fafbfc"
              transform="matrix(1 -.00000009 -.00000009 -1 1415.68 261.22)"/>
        <path d="m0 0h20.0939v20.0939h-20.0939z" fill="#f3f4f6"
              transform="matrix(1 -.00000009 -.00000009 -1 1415.68 170.797)"/>
        <path d="m0 0h20.0939v20.0939h-20.0939z" fill="#fafbfc"
              transform="matrix(1 -.00000009 -.00000009 -1 1596.52 321.502)"/>
        <path d="m0 0h20.0939v20.0939h-20.0939z" fill="#fafbfc"
              transform="matrix(1 -.00000009 -.00000009 -1 1596.52 743.475)"/>
        <path d="m0 0h20.0939v20.0939h-20.0939z" fill="#fafbfc"
              transform="matrix(1 -.00000009 -.00000009 -1 1596.52 261.22)"/>
        <path d="m0 0h20.0939v20.0939h-20.0939z" fill="#fafbfc"
              transform="matrix(1 -.00000009 -.00000009 -1 1596.52 894.18)"/>
        <path d="m0 0h20.0939v20.0939h-20.0939z" fill="#fafbfc"
              transform="matrix(1 -.00000009 -.00000009 -1 1596.52 833.896)"/>
        <path d="m0 0h20.0939v20.0939h-20.0939z" fill="#fafbfc"
              transform="matrix(1 -.00000009 -.00000009 -1 1596.52 351.643)"/>
        <path d="m0 0h20.0939v20.0939h-20.0939z" fill="#fafbfc"
              transform="matrix(1 -.00000009 -.00000009 -1 1596.52 110.516)"/>
        <path d="m0 0h20.0939v20.0939h-20.0939z" fill="#fafbfc"
              transform="matrix(1 -.00000009 -.00000009 -1 1596.52 713.334)"/>
        <path d="m0 0h20.0939v20.0939h-20.0939z" fill="#fafbfc"
              transform="matrix(1 -.00000009 -.00000009 -1 1596.52 231.079)"/>
        <path d="m0 0h20.0939v20.0939h-20.0939z" fill="#fafbfc"
              transform="matrix(1 -.00000009 -.00000009 -1 1626.66 924.32)"/>
        <path d="m0 0h20.0939v20.0939h-20.0939z" fill="#f3f4f6"
              transform="matrix(1 -.00000009 -.00000009 -1 1626.66 803.756)"/>
        <path d="m0 0h20.0939v20.0939h-20.0939z" fill="#fafbfc"
              transform="matrix(1 -.00000009 -.00000009 -1 1626.66 321.502)"/>
        <path d="m0 0h20.0939v20.0939h-20.0939z" fill="#fafbfc"
              transform="matrix(1 -.00000009 -.00000009 -1 1626.66 80.375)"/>
        <path d="m0 0h20.0939v20.0939h-20.0939z" fill="#fafbfc"
              transform="matrix(1 -.00000009 -.00000009 -1 1626.66 140.656)"/>
        <path d="m0 0h20.0939v20.0939h-20.0939z" fill="#f3f4f6"
              transform="matrix(1 -.00000009 -.00000009 -1 1626.66 743.475)"/>
        <path d="m0 0h20.0939v20.0939h-20.0939z" fill="#fafbfc"
              transform="matrix(1 -.00000009 -.00000009 -1 1626.66 20.0928)"/>
        <path d="m0 0h20.0939v20.0939h-20.0939z" fill="#fafbfc"
              transform="matrix(1 -.00000009 -.00000009 -1 1626.66 894.18)"/>
        <path d="m0 0h20.0939v20.0939h-20.0939z" fill="#fafbfc"
              transform="matrix(1 -.00000009 -.00000009 -1 1626.66 170.797)"/>
        <path d="m0 0h20.0939v20.0939h-20.0939z" fill="#f3f4f6"
              transform="matrix(1 -.00000009 -.00000009 -1 1626.66 773.615)"/>
        <path d="m0 0h20.0939v20.0939h-20.0939z" fill="#fafbfc"
              transform="matrix(1 -.00000009 -.00000009 -1 1626.66 833.896)"/>
        <path d="m0 0h20.0939v20.0939h-20.0939z" fill="#fafbfc"
              transform="matrix(1 -.00000009 -.00000009 -1 1626.66 231.079)"/>
        <path d="m0 0h20.0939v20.0939h-20.0939z" fill="#fafbfc"
              transform="matrix(1 -.00000009 -.00000009 -1 1807.51 442.065)"/>
        <path d="m0 0h20.0939v20.0939h-20.0939z" fill="#fafbfc"
              transform="matrix(1 -.00000009 -.00000009 -1 1807.51 321.502)"/>
        <path d="m0 0h20.0939v20.0939h-20.0939z" fill="#fafbfc"
              transform="matrix(1 -.00000009 -.00000009 -1 1807.51 80.375)"/>
        <path d="m0 0h20.0939v20.0939h-20.0939z" fill="#f1f2f2"
              transform="matrix(1 -.00000009 -.00000009 -1 1807.51 261.22)"/>
        <path d="m0 0h20.0939v20.0939h-20.0939z" fill="#fafbfc"
              transform="matrix(1 -.00000009 -.00000009 -1 1807.51 502.348)"/>
        <path d="m0 0h20.0939v20.0939h-20.0939z" fill="#fafbfc"
              transform="matrix(1 -.00000009 -.00000009 -1 1807.51 291.36)"/>
        <path d="m0 0h20.0939v20.0939h-20.0939z" fill="#fafbfc"
              transform="matrix(1 -.00000009 -.00000009 -1 1807.51 833.896)"/>
        <path d="m0 0h20.0939v20.0939h-20.0939z" fill="#fafbfc"
              transform="matrix(1 -.00000009 -.00000009 -1 1807.51 592.77)"/>
        <path d="m0 0h20.0939v20.0939h-20.0939z" fill="#fafbfc"
              transform="matrix(1 -.00000009 -.00000009 -1 1717.09 924.32)"/>
        <path d="m0 0h20.0939v20.0939h-20.0939z" fill="#e1e4e8"
              transform="matrix(1 -.00000009 -.00000009 -1 1717.09 803.756)"/>
        <path d="m0 0h20.0939v20.0939h-20.0939z" fill="#fafbfc"
              transform="matrix(1 -.00000009 -.00000009 -1 1717.09 321.502)"/>
        <path d="m0 0h20.0939v20.0939h-20.0939z" fill="#fafbfc"
              transform="matrix(1 -.00000009 -.00000009 -1 1717.09 864.039)"/>
        <path d="m0 0h20.0939v20.0939h-20.0939z" fill="#fafbfc"
              transform="matrix(1 -.00000009 -.00000009 -1 1717.09 743.475)"/>
        <path d="m0 0h20.0939v20.0939h-20.0939z" fill="#fafbfc"
              transform="matrix(1 -.00000009 -.00000009 -1 1717.09 411.925)"/>
        <path d="m0 0h20.0939v20.0939h-20.0939z" fill="#fafbfc"
              transform="matrix(1 -.00000009 -.00000009 -1 1717.09 170.797)"/>
        <path d="m0 0h20.0939v20.0939h-20.0939z" fill="#fafbfc"
              transform="matrix(1 -.00000009 -.00000009 -1 1717.09 773.615)"/>
        <path d="m0 0h20.0939v20.0939h-20.0939z" fill="#fafbfc"
              transform="matrix(1 -.00000009 -.00000009 -1 1717.09 713.334)"/>
        <path d="m0 0h20.0939v20.0939h-20.0939z" fill="#fafbfc"
              transform="matrix(1 -.00000009 -.00000009 -1 1717.09 231.079)"/>
        <path d="m0 0h20.0939v20.0939h-20.0939z" fill="#fafbfc"
              transform="matrix(1 -.00000009 -.00000009 -1 1656.8 924.32)"/>
        <path d="m0 0h20.0939v20.0939h-20.0939z" fill="#fafbfc"
              transform="matrix(1 -.00000009 -.00000009 -1 1656.8 442.065)"/>
        <path d="m0 0h20.0939v20.0939h-20.0939z" fill="#fafbfc"
              transform="matrix(1 -.00000009 -.00000009 -1 1656.8 803.756)"/>
        <path d="m0 0h20.0939v20.0939h-20.0939z" fill="#fafbfc"
              transform="matrix(1 -.00000009 -.00000009 -1 1656.8 321.502)"/>
        <path d="m0 0h20.0939v20.0939h-20.0939z" fill="#fafbfc"
              transform="matrix(1 -.00000009 -.00000009 -1 1656.8 864.039)"/>
        <path d="m0 0h20.0939v20.0939h-20.0939z" fill="#fafbfc"
              transform="matrix(1 -.00000009 -.00000009 -1 1656.8 381.783)"/>
        <path d="m0 0h20.0939v20.0939h-20.0939z" fill="#fafbfc"
              transform="matrix(1 -.00000009 -.00000009 -1 1656.8 743.475)"/>
        <path d="m0 0h20.0939v20.0939h-20.0939z" fill="#fafbfc"
              transform="matrix(1 -.00000009 -.00000009 -1 1656.8 261.22)"/>
        <path d="m0 0h20.0939v20.0939h-20.0939z" fill="#fafbfc"
              transform="matrix(1 -.00000009 -.00000009 -1 1656.8 894.18)"/>
        <path d="m0 0h20.0939v20.0939h-20.0939z" fill="#fafbfc"
              transform="matrix(1 -.00000009 -.00000009 -1 1656.8 773.615)"/>
        <g filter="url(#e)">
            <path d="m0 0h20.0939v20.0939h-20.0939z" fill="url(#m)"
                  transform="matrix(1 -.00000009 -.00000009 -1 1807.51 502.348)"/>
        </g>
        <path d="m0 0h20.0939v20.0939h-20.0939z" fill="#fafbfc"
              transform="matrix(1 -.00000009 -.00000009 -1 1656.8 50.2334)"/>
        <path d="m0 0h20.0939v20.0939h-20.0939z" fill="#fafbfc"
              transform="matrix(1 -.00000009 -.00000009 -1 1656.8 833.896)"/>
        <path d="m0 0h20.0939v20.0939h-20.0939z" fill="#fafbfc"
              transform="matrix(1 -.00000009 -.00000009 -1 1656.8 713.334)"/>
        <path d="m0 0h20.0939v20.0939h-20.0939z" fill="#fafbfc"
              transform="matrix(1 -.00000009 -.00000009 -1 1747.23 803.756)"/>
        <path d="m0 0h20.0939v20.0939h-20.0939z" fill="#fafbfc"
              transform="matrix(1 -.00000009 -.00000009 -1 1747.23 80.375)"/>
        <path d="m0 0h20.0939v20.0939h-20.0939z" fill="#fafbfc"
              transform="matrix(1 -.00000009 -.00000009 -1 1747.23 743.475)"/>
        <path d="m0 0h20.0939v20.0939h-20.0939z" fill="#fafbfc"
              transform="matrix(1 -.00000009 -.00000009 -1 1747.23 261.22)"/>
        <path d="m0 0h20.0939v20.0939h-20.0939z" fill="#fafbfc"
              transform="matrix(1 -.00000009 -.00000009 -1 1747.23 502.348)"/>
        <path d="m0 0h20.0939v20.0939h-20.0939z" fill="#fafbfc"
              transform="matrix(1 -.00000009 -.00000009 -1 1747.23 411.925)"/>
        <path d="m0 0h20.0939v20.0939h-20.0939z" fill="#fafbfc"
              transform="matrix(1 -.00000009 -.00000009 -1 1747.23 773.615)"/>
        <path d="m0 0h20.0939v20.0939h-20.0939z" fill="#fafbfc"
              transform="matrix(1 -.00000009 -.00000009 -1 1747.23 532.488)"/>
        <path d="m0 0h20.0939v20.0939h-20.0939z" fill="#fafbfc"
              transform="matrix(1 -.00000009 -.00000009 -1 1747.23 833.896)"/>
        <path d="m0 0h20.0939v20.0939h-20.0939z" fill="#fafbfc"
              transform="matrix(1 -.00000009 -.00000009 -1 1747.23 351.643)"/>
        <path d="m0 0h20.0939v20.0939h-20.0939z" fill="#fafbfc"
              transform="matrix(1 -.00000009 -.00000009 -1 1747.23 592.77)"/>
        <path d="m0 0h20.0939v20.0939h-20.0939z" fill="#fafbfc"
              transform="matrix(1 -.00000009 -.00000009 -1 1747.23 713.334)"/>
        <path d="m0 0h20.0939v20.0939h-20.0939z" fill="#fafbfc"
              transform="matrix(1 -.00000009 -.00000009 -1 1747.23 472.206)"/>
        <path d="m0 0h20.0939v20.0939h-20.0939z" fill="#fafbfc"
              transform="matrix(1 -.00000009 -.00000009 -1 1686.95 924.32)"/>
        <path d="m0 0h20.0939v20.0939h-20.0939z" fill="#fafbfc"
              transform="matrix(1 -.00000009 -.00000009 -1 1686.95 442.065)"/>
        <path d="m0 0h20.0939v20.0939h-20.0939z" fill="#fafbfc"
              transform="matrix(1 -.00000009 -.00000009 -1 1686.95 200.938)"/>
        <path d="m0 0h20.0939v20.0939h-20.0939z" fill="#fafbfc"
              transform="matrix(1 -.00000009 -.00000009 -1 1686.95 562.629)"/>
        <path d="m0 0h20.0939v20.0939h-20.0939z" fill="#e1e4e8"
              transform="matrix(1 -.00000009 -.00000009 -1 1686.95 381.783)"/>
        <path d="m0 0h20.0939v20.0939h-20.0939z" fill="#fafbfc"
              transform="matrix(1 -.00000009 -.00000009 -1 1686.95 743.475)"/>
        <path d="m0 0h20.0939v20.0939h-20.0939z" fill="#e1e4e8"
              transform="matrix(1 -.00000009 -.00000009 -1 1686.95 20.0928)"/>
        <path d="m0 0h20.0939v20.0939h-20.0939z" fill="#fafbfc"
              transform="matrix(1 -.00000009 -.00000009 -1 1686.95 411.925)"/>
        <path d="m0 0h20.0939v20.0939h-20.0939z" fill="#fafbfc"
              transform="matrix(1 -.00000009 -.00000009 -1 1686.95 170.797)"/>
        <path d="m0 0h20.0939v20.0939h-20.0939z" fill="#fafbfc"
              transform="matrix(1 -.00000009 -.00000009 -1 1686.95 773.615)"/>
        <path d="m0 0h20.0939v20.0939h-20.0939z" fill="#fafbfc"
              transform="matrix(1 -.00000009 -.00000009 -1 1686.95 291.36)"/>
        <path d="m0 0h20.0939v20.0939h-20.0939z" fill="#fafbfc"
              transform="matrix(1 -.00000009 -.00000009 -1 1686.95 50.2334)"/>
        <path d="m0 0h20.0939v20.0939h-20.0939z" fill="#fafbfc"
              transform="matrix(1 -.00000009 -.00000009 -1 1686.95 833.896)"/>
        <path d="m0 0h20.0939v20.0939h-20.0939z" fill="#f3f4f6"
              transform="matrix(1 -.00000009 -.00000009 -1 1686.95 592.77)"/>
        <path d="m0 0h20.0939v20.0939h-20.0939z" fill="#fafbfc"
              transform="matrix(1 -.00000009 -.00000009 -1 1686.95 231.079)"/>
        <path d="m0 0h20.0939v20.0939h-20.0939z" fill="#fafbfc"
              transform="matrix(1 -.00000009 -.00000009 -1 1777.37 200.938)"/>
        <path d="m0 0h20.0939v20.0939h-20.0939z" fill="#fafbfc"
              transform="matrix(1 -.00000009 -.00000009 -1 1777.37 381.784)"/>
        <path d="m0 0h20.0939v20.0939h-20.0939z" fill="#fafbfc"
              transform="matrix(1 -.00000009 -.00000009 -1 1777.37 140.656)"/>
        <path d="m0 0h20.0939v20.0939h-20.0939z" fill="#fafbfc"
              transform="matrix(1 -.00000009 -.00000009 -1 1777.37 291.36)"/>
        <path d="m0 0h20.0939v20.0939h-20.0939z" fill="#fafbfc"
              transform="matrix(1 -.00000009 -.00000009 -1 1777.37 532.488)"/>
        <path d="m0 0h20.0939v20.0939h-20.0939z" fill="#7043c1"
              transform="matrix(1 -.00000009 -.00000009 -1 1747.23 502.348)"/>
        <path d="m0 0h20.0939v20.0939h-20.0939z" fill="#fafbfc"
              transform="matrix(1 -.00000009 -.00000009 -1 1777.37 833.896)"/>
        <path d="m0 0h20.0939v20.0939h-20.0939z" fill="#fafbfc"
              transform="matrix(1 -.00000009 -.00000009 -1 1777.37 472.206)"/>
    </g>
</svg>