<!--
  - /***
  -  ** █ ---------------------------------------------------------------------------------------------------------------------
  -  ** █ ░FRAMEWORK                                  2023-12-01 23:19:27
  -  ** █ ░█▀▀█ █▀▀█ █▀▀▄ █▀▀ ░█─░█ ─▀─ █▀▀▀ █▀▀▀ █▀▀ [App\Modules\Account\Views\Processes\Creator\deny.php]
  -  ** █ ░█─── █──█ █──█ █▀▀ ░█▀▀█ ▀█▀ █─▀█ █─▀█ ▀▀█ Copyright 2023 - CloudEngine S.A.S., Inc. <admin@cgine.com>
  -  ** █ ░█▄▄█ ▀▀▀▀ ▀▀▀─ ▀▀▀ ░█─░█ ▀▀▀ ▀▀▀▀ ▀▀▀▀ ▀▀▀ Para obtener información completa sobre derechos de autor y licencia,
  -  ** █                                             consulte la LICENCIA archivo que se distribuyó con este código fuente.
  -  ** █ ---------------------------------------------------------------------------------------------------------------------
  -  ** █ EL SOFTWARE SE PROPORCIONA -TAL CUAL-, SIN GARANTÍA DE NINGÚN TIPO, EXPRESA O
  -  ** █ IMPLÍCITA, INCLUYENDO PERO NO LIMITADO A LAS GARANTÍAS DE COMERCIABILIDAD,
  -  ** █ APTITUD PARA UN PROPÓSITO PARTICULAR Y NO INFRACCIÓN. EN NINGÚN CASO SERÁ
  -  ** █ LOS AUTORES O TITULARES DE LOS DERECHOS DE AUTOR SERÁN RESPONSABLES DE CUALQUIER
  -  ** █ RECLAMO, DAÑOS U OTROS RESPONSABILIDAD, YA SEA EN UNA ACCIÓN DE CONTRATO,
  -  ** █ AGRAVIO O DE OTRO MODO, QUE SURJA DESDE, FUERA O EN RELACIÓN CON EL SOFTWARE
  -  ** █ O EL USO U OTROS NEGOCIACIONES EN EL SOFTWARE.
  -  ** █ ---------------------------------------------------------------------------------------------------------------------
  -  ** █ @Author Jose Alexis Correa Valencia <jalexiscv@gmail.com>
  -  ** █ @link https://www.codehiggs.com
  -  ** █ @Version 1.5.0 @since PHP 7, PHP 8
  -  ** █ ---------------------------------------------------------------------------------------------------------------------
  -  ** █ Datos recibidos desde el controlador - @ModuleController
  -  ** █ ---------------------------------------------------------------------------------------------------------------------
  -  ** █ @authentication, @request, @dates, @parent, @component, @view, @oid, @views, @prefix
  -  ** █ ---------------------------------------------------------------------------------------------------------------------
  -  ***/
  -->

<svg xmlns:xlink="http://www.w3.org/1999/xlink" fill="none" height="506" viewBox="0 0 714 506" width="714"
     xmlns="http://www.w3.org/2000/svg">
    <clipPath id="a">
        <path d="m0 0h714v506h-714z"/>
    </clipPath>
    <g clip-path="url(#a)">
        <path d="m0 0h20.0939v20.0939h-20.0939z" fill="#fafbfc"
              transform="matrix(1 -.00000009 -.00000009 -1 362.072 442.039)"/>
        <path d="m0 0h20.0939v20.0939h-20.0939z" fill="#fafbfc"
              transform="matrix(1 -.00000009 -.00000009 -1 362.072 472.181)"/>
        <path d="m0 0h20.0939v20.0939h-20.0939z" fill="#fafbfc"
              transform="matrix(1 -.00000009 -.00000009 -1 362.072 411.898)"/>
        <path d="m0 0h20.0939v20.0939h-20.0939z" fill="#fafbfc"
              transform="matrix(1 -.00000009 -.00000009 -1 181.228 502.321)"/>
        <path d="m0 0h20.0939v20.0939h-20.0939z" fill="#fafbfc"
              transform="matrix(1 -.00000009 -.00000009 -1 181.228 472.18)"/>
        <path d="m0 0h20.0939v20.0939h-20.0939z" fill="#fafbfc"
              transform="matrix(1 -.00000009 -.00000009 -1 542.919 442.039)"/>
        <path d="m0 0h20.0939v20.0939h-20.0939z" fill="#fafbfc"
              transform="matrix(1 -.00000009 -.00000009 -1 542.919 472.18)"/>
        <path d="m0 0h20.0939v20.0939h-20.0939z" fill="#fafbfc"
              transform="matrix(1 -.00000009 -.00000009 -1 452.496 502.321)"/>
        <path d="m0 0h20.0939v20.0939h-20.0939z" fill="#fafbfc"
              transform="matrix(1 -.00000009 -.00000009 -1 452.495 472.18)"/>
        <path d="m0 0h20.0939v20.0939h-20.0939z" fill="#f1f2f2"
              transform="matrix(1 -.00000009 -.00000009 -1 452.495 411.898)"/>
        <path d="m0 0h20.0939v20.0939h-20.0939z" fill="#fafbfc"
              transform="matrix(1 -.00000009 -.00000009 -1 452.496 50.207)"/>
        <path d="m0 0h20.0939v20.0939h-20.0939z" fill="#fafbfc"
              transform="matrix(1 -.00000009 -.00000009 -1 271.65 502.321)"/>
        <path d="m0 0h20.0939v20.0939h-20.0939z" fill="#f3f4f6"
              transform="matrix(1 -.00000009 -.00000009 -1 271.65 20.0664)"/>
        <g fill="#fafbfc">
            <path d="m0 0h20.0939v20.0939h-20.0939z" transform="matrix(1 -.00000009 -.00000009 -1 271.65 472.18)"/>
            <path d="m0 0h20.0939v20.0939h-20.0939z" transform="matrix(1 -.00000009 -.00000009 -1 271.65 411.898)"/>
            <path d="m0 0h20.0939v20.0939h-20.0939z" transform="matrix(1 -.00000009 -.00000009 -1 633.341 20.0664)"/>
            <path d="m0 0h20.0939v20.0939h-20.0939z" transform="matrix(1 -.00000009 -.00000009 -1 30.5225 20.0664)"/>
            <path d="m0 0h20.0939v20.0939h-20.0939z" transform="matrix(1 -.00000009 -.00000009 -1 392.213 20.0664)"/>
            <path d="m0 0h20.0939v20.0939h-20.0939z" transform="matrix(1 -.00000009 -.00000009 -1 573.06 502.321)"/>
            <path d="m0 0h20.0939v20.0939h-20.0939z" transform="matrix(1 -.00000009 -.00000009 -1 573.06 20.0664)"/>
            <path d="m0 0h20.0939v20.0939h-20.0939z" transform="matrix(1 -.00000009 -.00000009 -1 30 291.335)"/>
            <path d="m0 0h20.0939v20.0939h-20.0939z" transform="matrix(1 -.00000009 -.00000009 -1 482.637 442.039)"/>
            <path d="m0 0h20.0939v20.0939h-20.0939z" transform="matrix(1 -.00000009 -.00000009 -1 482.637 472.18)"/>
            <path d="m0 0h20.0939v20.0939h-20.0939z" transform="matrix(1 -.00000009 -.00000009 -1 482.637 411.898)"/>
            <path d="m0 0h20.0939v20.0939h-20.0939z" transform="matrix(1 -.00000009 -.00000009 -1 512.777 50.208)"/>
            <path d="m0 0h20.0939v20.0939h-20.0939z" transform="matrix(1 -.00000009 -.00000009 -1 301.791 472.181)"/>
            <path d="m0 0h20.0939v20.0939h-20.0939z" transform="matrix(1 -.00000009 -.00000009 -1 121 20.0664)"/>
            <path d="m0 0h20.0939v20.0939h-20.0939z" transform="matrix(1 -.00000009 -.00000009 -1 120.423 321.476)"/>
        </g>
        <path d="m0 0h20.0939v20.0939h-20.0939z" fill="#f1f2f2"
              transform="matrix(1 -.00000009 -.00000009 -1 663.482 291.335)"/>
        <g fill="#fafbfc">
            <path d="m0 0h20.0939v20.0939h-20.0939z" transform="matrix(1 -.00000009 -.00000009 -1 663.482 50.207)"/>
            <path d="m0 0h20.0939v20.0939h-20.0939z" transform="matrix(1 -.00000009 -.00000009 -1 693.623 50.207)"/>
            <path d="m0 0h20.0939v20.0939h-20.0939z" transform="matrix(1 -.00000009 -.00000009 -1 60.6631 20.0664)"/>
            <path d="m0 0h20.0939v20.0939h-20.0939z" transform="matrix(1 -.00000009 -.00000009 -1 60.6631 140.63)"/>
            <path d="m0 0h20.0939v20.0939h-20.0939z" transform="matrix(1 -.00000009 -.00000009 -1 422.354 20.0664)"/>
            <path d="m0 0h20.0939v20.0939h-20.0939z" transform="matrix(1 -.00000009 -.00000009 -1 422.354 472.181)"/>
            <path d="m0 0h20.0939v20.0939h-20.0939z" transform="matrix(1 -.00000009 -.00000009 -1 241.51 502.321)"/>
            <path d="m0 0h20.0939v20.0939h-20.0939z" transform="matrix(1 -.00000009 -.00000009 -1 241.51 472.18)"/>
            <path d="m0 0h20.0939v20.0939h-20.0939z" transform="matrix(1 -.00000009 -.00000009 -1 603.2 20.0664)"/>
            <path d="m0 0h20.0939v20.0939h-20.0939z" transform="matrix(1 -.00000009 -.00000009 -1 151.087 502.321)"/>
            <path d="m0 0h20.0939v20.0939h-20.0939z" transform="matrix(1 -.00000009 -.00000009 -1 151.087 351.616)"/>
            <path d="m0 0h20.0939v20.0939h-20.0939z" transform="matrix(1 -.00000009 -.00000009 -1 151.087 411.898)"/>
        </g>
        <path d="m0 0h20.0939v20.0939h-20.0939z" fill="#e1e4e8"
              transform="matrix(1 -.00000009 -.00000009 -1 512.777 20.0664)"/>
        <path d="m0 0h20.0939v20.0939h-20.0939z" fill="#fafbfc"
              transform="matrix(1 -.00000009 -.00000009 -1 512.777 472.18)"/>
        <path d="m0 0h20.0939v20.0939h-20.0939z" fill="#fafbfc"
              transform="matrix(1 -.00000009 -.00000009 -1 602.777 351.616)"/>
        <path d="m0 0h20.0939v20.0939h-20.0939z" fill="#e1e4e8"
              transform="matrix(1 -.00000009 -.00000009 -1 331.932 442.039)"/>
        <path d="m0 0h20.0939v20.0939h-20.0939z" fill="#fafbfc"
              transform="matrix(1 -.00000009 -.00000009 -1 331.932 472.181)"/>
        <path d="m0 0h20.0939v20.0939h-20.0939z" fill="#fafbfc"
              transform="matrix(1 -.00000009 -.00000009 -1 331.932 411.898)"/>
        <path d="m0 0h20.0939v20.0939h-20.0939z" fill="#fafbfc"
              transform="matrix(1 -.00000009 -.00000009 -1 150.563 321.476)"/>
        <path d="m0 0h20.0939v20.0939h-20.0939z" fill="#fafbfc"
              transform="matrix(1 -.00000009 -.00000009 -1 60.2822 110.489)"/>
        <path d="m0 0h20.0939v20.0939h-20.0939z" fill="#fafbfc"
              transform="matrix(1 -.00000009 -.00000009 -1 0 80.3486)"/>
        <path d="m0 0h20.0939v20.0939h-20.0939z" fill="#e1e4e8"
              transform="matrix(1 -.00000009 -.00000009 -1 30.2812 321.476)"/>
        <path d="m0 0h20.0939v20.0939h-20.0939z" fill="#fafbfc"
              transform="matrix(1 -.00000009 -.00000009 -1 30.2812 351.617)"/>
        <path d="m0 0h20.0939v20.0939h-20.0939z" fill="#fafbfc"
              transform="matrix(1 -.00000009 -.00000009 -1 60.4229 351.617)"/>
        <path d="m0 0h20.0939v20.0939h-20.0939z" fill="#fafbfc"
              transform="matrix(1 -.00000009 -.00000009 -1 .140625 321.476)"/>
    </g>
</svg>