<!--
  - /***
  -  ** █ ---------------------------------------------------------------------------------------------------------------------
  -  ** █ ░FRAMEWORK                                  2023-12-01 23:19:27
  -  ** █ ░█▀▀█ █▀▀█ █▀▀▄ █▀▀ ░█─░█ ─▀─ █▀▀▀ █▀▀▀ █▀▀ [App\Modules\Account\Views\Processes\Creator\deny.php]
  -  ** █ ░█─── █──█ █──█ █▀▀ ░█▀▀█ ▀█▀ █─▀█ █─▀█ ▀▀█ Copyright 2023 - CloudEngine S.A.S., Inc. <admin@cgine.com>
  -  ** █ ░█▄▄█ ▀▀▀▀ ▀▀▀─ ▀▀▀ ░█─░█ ▀▀▀ ▀▀▀▀ ▀▀▀▀ ▀▀▀ Para obtener información completa sobre derechos de autor y licencia,
  -  ** █                                             consulte la LICENCIA archivo que se distribuyó con este código fuente.
  -  ** █ ---------------------------------------------------------------------------------------------------------------------
  -  ** █ EL SOFTWARE SE PROPORCIONA -TAL CUAL-, SIN GARANTÍA DE NINGÚN TIPO, EXPRESA O
  -  ** █ IMPLÍCITA, INCLUYENDO PERO NO LIMITADO A LAS GARANTÍAS DE COMERCIABILIDAD,
  -  ** █ APTITUD PARA UN PROPÓSITO PARTICULAR Y NO INFRACCIÓN. EN NINGÚN CASO SERÁ
  -  ** █ LOS AUTORES O TITULARES DE LOS DERECHOS DE AUTOR SERÁN RESPONSABLES DE CUALQUIER
  -  ** █ RECLAMO, DAÑOS U OTROS RESPONSABILIDAD, YA SEA EN UNA ACCIÓN DE CONTRATO,
  -  ** █ AGRAVIO O DE OTRO MODO, QUE SURJA DESDE, FUERA O EN RELACIÓN CON EL SOFTWARE
  -  ** █ O EL USO U OTROS NEGOCIACIONES EN EL SOFTWARE.
  -  ** █ ---------------------------------------------------------------------------------------------------------------------
  -  ** █ @Author Jose Alexis Correa Valencia <jalexiscv@gmail.com>
  -  ** █ @link https://www.codehiggs.com
  -  ** █ @Version 1.5.0 @since PHP 7, PHP 8
  -  ** █ ---------------------------------------------------------------------------------------------------------------------
  -  ** █ Datos recibidos desde el controlador - @ModuleController
  -  ** █ ---------------------------------------------------------------------------------------------------------------------
  -  ** █ @authentication, @request, @dates, @parent, @component, @view, @oid, @views, @prefix
  -  ** █ ---------------------------------------------------------------------------------------------------------------------
  -  ***/
  -->

<svg xmlns:xlink="http://www.w3.org/1999/xlink" fill="none" height="1322" viewBox="0 0 1911 1322" width="1911"
     xmlns="http://www.w3.org/2000/svg">
    <filter id="a" color-interpolation-filters="sRGB" filterUnits="userSpaceOnUse" height="715.079" width="637.922"
            x="-90.7601" y="742.528">
        <feFlood flood-opacity="0" result="BackgroundImageFix"/>
        <feColorMatrix in="SourceAlpha" type="matrix" values="0 0 0 0 0 0 0 0 0 0 0 0 0 0 0 0 0 0 127 0"/>
        <feOffset dy="10.6756"/>
        <feGaussianBlur stdDeviation="4.27023"/>
        <feColorMatrix type="matrix" values="0 0 0 0 0 0 0 0 0 0 0 0 0 0 0 0 0 0 0.0365489 0"/>
        <feBlend in2="BackgroundImageFix" mode="normal" result="effect1_dropShadow"/>
        <feColorMatrix in="SourceAlpha" type="matrix" values="0 0 0 0 0 0 0 0 0 0 0 0 0 0 0 0 0 0 127 0"/>
        <feOffset dy="25.6549"/>
        <feGaussianBlur stdDeviation="10.262"/>
        <feColorMatrix type="matrix" values="0 0 0 0 0 0 0 0 0 0 0 0 0 0 0 0 0 0 0.0525061 0"/>
        <feBlend in2="effect1_dropShadow" mode="normal" result="effect2_dropShadow"/>
        <feColorMatrix in="SourceAlpha" type="matrix" values="0 0 0 0 0 0 0 0 0 0 0 0 0 0 0 0 0 0 127 0"/>
        <feOffset dy="48.3059"/>
        <feGaussianBlur stdDeviation="19.3223"/>
        <feColorMatrix type="matrix" values="0 0 0 0 0 0 0 0 0 0 0 0 0 0 0 0 0 0 0.065 0"/>
        <feBlend in2="effect2_dropShadow" mode="normal" result="effect3_dropShadow"/>
        <feColorMatrix in="SourceAlpha" type="matrix" values="0 0 0 0 0 0 0 0 0 0 0 0 0 0 0 0 0 0 127 0"/>
        <feOffset dy="86.1694"/>
        <feGaussianBlur stdDeviation="34.4678"/>
        <feColorMatrix type="matrix" values="0 0 0 0 0 0 0 0 0 0 0 0 0 0 0 0 0 0 0.0774939 0"/>
        <feBlend in2="effect3_dropShadow" mode="normal" result="effect4_dropShadow"/>
        <feColorMatrix in="SourceAlpha" type="matrix" values="0 0 0 0 0 0 0 0 0 0 0 0 0 0 0 0 0 0 127 0"/>
        <feOffset dy="161.17"/>
        <feGaussianBlur stdDeviation="64.4682"/>
        <feColorMatrix type="matrix" values="0 0 0 0 0 0 0 0 0 0 0 0 0 0 0 0 0 0 0.0934511 0"/>
        <feBlend in2="effect4_dropShadow" mode="normal" result="effect5_dropShadow"/>
        <feColorMatrix in="SourceAlpha" type="matrix" values="0 0 0 0 0 0 0 0 0 0 0 0 0 0 0 0 0 0 127 0"/>
        <feOffset dy="385.782"/>
        <feGaussianBlur stdDeviation="154.313"/>
        <feColorMatrix type="matrix" values="0 0 0 0 0 0 0 0 0 0 0 0 0 0 0 0 0 0 0.13 0"/>
        <feBlend in2="effect5_dropShadow" mode="normal" result="effect6_dropShadow"/>
        <feBlend in="SourceGraphic" in2="effect6_dropShadow" mode="normal" result="shape"/>
    </filter>
    <filter id="b" color-interpolation-filters="sRGB" filterUnits="userSpaceOnUse" height="715.079" width="637.922"
            x="32.4586" y="370.681">
        <feFlood flood-opacity="0" result="BackgroundImageFix"/>
        <feColorMatrix in="SourceAlpha" type="matrix" values="0 0 0 0 0 0 0 0 0 0 0 0 0 0 0 0 0 0 127 0"/>
        <feOffset dy="10.6756"/>
        <feGaussianBlur stdDeviation="4.27023"/>
        <feColorMatrix type="matrix" values="0 0 0 0 0 0 0 0 0 0 0 0 0 0 0 0 0 0 0.0365489 0"/>
        <feBlend in2="BackgroundImageFix" mode="normal" result="effect1_dropShadow"/>
        <feColorMatrix in="SourceAlpha" type="matrix" values="0 0 0 0 0 0 0 0 0 0 0 0 0 0 0 0 0 0 127 0"/>
        <feOffset dy="25.6549"/>
        <feGaussianBlur stdDeviation="10.262"/>
        <feColorMatrix type="matrix" values="0 0 0 0 0 0 0 0 0 0 0 0 0 0 0 0 0 0 0.0525061 0"/>
        <feBlend in2="effect1_dropShadow" mode="normal" result="effect2_dropShadow"/>
        <feColorMatrix in="SourceAlpha" type="matrix" values="0 0 0 0 0 0 0 0 0 0 0 0 0 0 0 0 0 0 127 0"/>
        <feOffset dy="48.3059"/>
        <feGaussianBlur stdDeviation="19.3223"/>
        <feColorMatrix type="matrix" values="0 0 0 0 0 0 0 0 0 0 0 0 0 0 0 0 0 0 0.065 0"/>
        <feBlend in2="effect2_dropShadow" mode="normal" result="effect3_dropShadow"/>
        <feColorMatrix in="SourceAlpha" type="matrix" values="0 0 0 0 0 0 0 0 0 0 0 0 0 0 0 0 0 0 127 0"/>
        <feOffset dy="86.1694"/>
        <feGaussianBlur stdDeviation="34.4678"/>
        <feColorMatrix type="matrix" values="0 0 0 0 0 0 0 0 0 0 0 0 0 0 0 0 0 0 0.0774939 0"/>
        <feBlend in2="effect3_dropShadow" mode="normal" result="effect4_dropShadow"/>
        <feColorMatrix in="SourceAlpha" type="matrix" values="0 0 0 0 0 0 0 0 0 0 0 0 0 0 0 0 0 0 127 0"/>
        <feOffset dy="161.17"/>
        <feGaussianBlur stdDeviation="64.4682"/>
        <feColorMatrix type="matrix" values="0 0 0 0 0 0 0 0 0 0 0 0 0 0 0 0 0 0 0.0934511 0"/>
        <feBlend in2="effect4_dropShadow" mode="normal" result="effect5_dropShadow"/>
        <feColorMatrix in="SourceAlpha" type="matrix" values="0 0 0 0 0 0 0 0 0 0 0 0 0 0 0 0 0 0 127 0"/>
        <feOffset dy="385.782"/>
        <feGaussianBlur stdDeviation="154.313"/>
        <feColorMatrix type="matrix" values="0 0 0 0 0 0 0 0 0 0 0 0 0 0 0 0 0 0 0.13 0"/>
        <feBlend in2="effect5_dropShadow" mode="normal" result="effect6_dropShadow"/>
        <feBlend in="SourceGraphic" in2="effect6_dropShadow" mode="normal" result="shape"/>
    </filter>
    <filter id="c" color-interpolation-filters="sRGB" filterUnits="userSpaceOnUse" height="715.079" width="637.922"
            x="744.252" y="1176.85">
        <feFlood flood-opacity="0" result="BackgroundImageFix"/>
        <feColorMatrix in="SourceAlpha" type="matrix" values="0 0 0 0 0 0 0 0 0 0 0 0 0 0 0 0 0 0 127 0"/>
        <feOffset dy="10.6756"/>
        <feGaussianBlur stdDeviation="4.27023"/>
        <feColorMatrix type="matrix" values="0 0 0 0 0 0 0 0 0 0 0 0 0 0 0 0 0 0 0.0365489 0"/>
        <feBlend in2="BackgroundImageFix" mode="normal" result="effect1_dropShadow"/>
        <feColorMatrix in="SourceAlpha" type="matrix" values="0 0 0 0 0 0 0 0 0 0 0 0 0 0 0 0 0 0 127 0"/>
        <feOffset dy="25.6549"/>
        <feGaussianBlur stdDeviation="10.262"/>
        <feColorMatrix type="matrix" values="0 0 0 0 0 0 0 0 0 0 0 0 0 0 0 0 0 0 0.0525061 0"/>
        <feBlend in2="effect1_dropShadow" mode="normal" result="effect2_dropShadow"/>
        <feColorMatrix in="SourceAlpha" type="matrix" values="0 0 0 0 0 0 0 0 0 0 0 0 0 0 0 0 0 0 127 0"/>
        <feOffset dy="48.3059"/>
        <feGaussianBlur stdDeviation="19.3223"/>
        <feColorMatrix type="matrix" values="0 0 0 0 0 0 0 0 0 0 0 0 0 0 0 0 0 0 0.065 0"/>
        <feBlend in2="effect2_dropShadow" mode="normal" result="effect3_dropShadow"/>
        <feColorMatrix in="SourceAlpha" type="matrix" values="0 0 0 0 0 0 0 0 0 0 0 0 0 0 0 0 0 0 127 0"/>
        <feOffset dy="86.1694"/>
        <feGaussianBlur stdDeviation="34.4678"/>
        <feColorMatrix type="matrix" values="0 0 0 0 0 0 0 0 0 0 0 0 0 0 0 0 0 0 0.0774939 0"/>
        <feBlend in2="effect3_dropShadow" mode="normal" result="effect4_dropShadow"/>
        <feColorMatrix in="SourceAlpha" type="matrix" values="0 0 0 0 0 0 0 0 0 0 0 0 0 0 0 0 0 0 127 0"/>
        <feOffset dy="161.17"/>
        <feGaussianBlur stdDeviation="64.4682"/>
        <feColorMatrix type="matrix" values="0 0 0 0 0 0 0 0 0 0 0 0 0 0 0 0 0 0 0.0934511 0"/>
        <feBlend in2="effect4_dropShadow" mode="normal" result="effect5_dropShadow"/>
        <feColorMatrix in="SourceAlpha" type="matrix" values="0 0 0 0 0 0 0 0 0 0 0 0 0 0 0 0 0 0 127 0"/>
        <feOffset dy="385.782"/>
        <feGaussianBlur stdDeviation="154.313"/>
        <feColorMatrix type="matrix" values="0 0 0 0 0 0 0 0 0 0 0 0 0 0 0 0 0 0 0.13 0"/>
        <feBlend in2="effect5_dropShadow" mode="normal" result="effect6_dropShadow"/>
        <feBlend in="SourceGraphic" in2="effect6_dropShadow" mode="normal" result="shape"/>
    </filter>
    <filter id="d" color-interpolation-filters="sRGB" filterUnits="userSpaceOnUse" height="715.079" width="637.922"
            x="1519.44" y="742.772">
        <feFlood flood-opacity="0" result="BackgroundImageFix"/>
        <feColorMatrix in="SourceAlpha" type="matrix" values="0 0 0 0 0 0 0 0 0 0 0 0 0 0 0 0 0 0 127 0"/>
        <feOffset dy="10.6756"/>
        <feGaussianBlur stdDeviation="4.27023"/>
        <feColorMatrix type="matrix" values="0 0 0 0 0 0 0 0 0 0 0 0 0 0 0 0 0 0 0.0365489 0"/>
        <feBlend in2="BackgroundImageFix" mode="normal" result="effect1_dropShadow"/>
        <feColorMatrix in="SourceAlpha" type="matrix" values="0 0 0 0 0 0 0 0 0 0 0 0 0 0 0 0 0 0 127 0"/>
        <feOffset dy="25.6549"/>
        <feGaussianBlur stdDeviation="10.262"/>
        <feColorMatrix type="matrix" values="0 0 0 0 0 0 0 0 0 0 0 0 0 0 0 0 0 0 0.0525061 0"/>
        <feBlend in2="effect1_dropShadow" mode="normal" result="effect2_dropShadow"/>
        <feColorMatrix in="SourceAlpha" type="matrix" values="0 0 0 0 0 0 0 0 0 0 0 0 0 0 0 0 0 0 127 0"/>
        <feOffset dy="48.3059"/>
        <feGaussianBlur stdDeviation="19.3223"/>
        <feColorMatrix type="matrix" values="0 0 0 0 0 0 0 0 0 0 0 0 0 0 0 0 0 0 0.065 0"/>
        <feBlend in2="effect2_dropShadow" mode="normal" result="effect3_dropShadow"/>
        <feColorMatrix in="SourceAlpha" type="matrix" values="0 0 0 0 0 0 0 0 0 0 0 0 0 0 0 0 0 0 127 0"/>
        <feOffset dy="86.1694"/>
        <feGaussianBlur stdDeviation="34.4678"/>
        <feColorMatrix type="matrix" values="0 0 0 0 0 0 0 0 0 0 0 0 0 0 0 0 0 0 0.0774939 0"/>
        <feBlend in2="effect3_dropShadow" mode="normal" result="effect4_dropShadow"/>
        <feColorMatrix in="SourceAlpha" type="matrix" values="0 0 0 0 0 0 0 0 0 0 0 0 0 0 0 0 0 0 127 0"/>
        <feOffset dy="161.17"/>
        <feGaussianBlur stdDeviation="64.4682"/>
        <feColorMatrix type="matrix" values="0 0 0 0 0 0 0 0 0 0 0 0 0 0 0 0 0 0 0.0934511 0"/>
        <feBlend in2="effect4_dropShadow" mode="normal" result="effect5_dropShadow"/>
        <feColorMatrix in="SourceAlpha" type="matrix" values="0 0 0 0 0 0 0 0 0 0 0 0 0 0 0 0 0 0 127 0"/>
        <feOffset dy="385.782"/>
        <feGaussianBlur stdDeviation="154.313"/>
        <feColorMatrix type="matrix" values="0 0 0 0 0 0 0 0 0 0 0 0 0 0 0 0 0 0 0.13 0"/>
        <feBlend in2="effect5_dropShadow" mode="normal" result="effect6_dropShadow"/>
        <feBlend in="SourceGraphic" in2="effect6_dropShadow" mode="normal" result="shape"/>
    </filter>
    <filter id="e" color-interpolation-filters="sRGB" filterUnits="userSpaceOnUse" height="715.079" width="637.922"
            x="1270.43" y="990.849">
        <feFlood flood-opacity="0" result="BackgroundImageFix"/>
        <feColorMatrix in="SourceAlpha" type="matrix" values="0 0 0 0 0 0 0 0 0 0 0 0 0 0 0 0 0 0 127 0"/>
        <feOffset dy="10.6756"/>
        <feGaussianBlur stdDeviation="4.27023"/>
        <feColorMatrix type="matrix" values="0 0 0 0 0 0 0 0 0 0 0 0 0 0 0 0 0 0 0.0365489 0"/>
        <feBlend in2="BackgroundImageFix" mode="normal" result="effect1_dropShadow"/>
        <feColorMatrix in="SourceAlpha" type="matrix" values="0 0 0 0 0 0 0 0 0 0 0 0 0 0 0 0 0 0 127 0"/>
        <feOffset dy="25.6549"/>
        <feGaussianBlur stdDeviation="10.262"/>
        <feColorMatrix type="matrix" values="0 0 0 0 0 0 0 0 0 0 0 0 0 0 0 0 0 0 0.0525061 0"/>
        <feBlend in2="effect1_dropShadow" mode="normal" result="effect2_dropShadow"/>
        <feColorMatrix in="SourceAlpha" type="matrix" values="0 0 0 0 0 0 0 0 0 0 0 0 0 0 0 0 0 0 127 0"/>
        <feOffset dy="48.3059"/>
        <feGaussianBlur stdDeviation="19.3223"/>
        <feColorMatrix type="matrix" values="0 0 0 0 0 0 0 0 0 0 0 0 0 0 0 0 0 0 0.065 0"/>
        <feBlend in2="effect2_dropShadow" mode="normal" result="effect3_dropShadow"/>
        <feColorMatrix in="SourceAlpha" type="matrix" values="0 0 0 0 0 0 0 0 0 0 0 0 0 0 0 0 0 0 127 0"/>
        <feOffset dy="86.1694"/>
        <feGaussianBlur stdDeviation="34.4678"/>
        <feColorMatrix type="matrix" values="0 0 0 0 0 0 0 0 0 0 0 0 0 0 0 0 0 0 0.0774939 0"/>
        <feBlend in2="effect3_dropShadow" mode="normal" result="effect4_dropShadow"/>
        <feColorMatrix in="SourceAlpha" type="matrix" values="0 0 0 0 0 0 0 0 0 0 0 0 0 0 0 0 0 0 127 0"/>
        <feOffset dy="161.17"/>
        <feGaussianBlur stdDeviation="64.4682"/>
        <feColorMatrix type="matrix" values="0 0 0 0 0 0 0 0 0 0 0 0 0 0 0 0 0 0 0.0934511 0"/>
        <feBlend in2="effect4_dropShadow" mode="normal" result="effect5_dropShadow"/>
        <feColorMatrix in="SourceAlpha" type="matrix" values="0 0 0 0 0 0 0 0 0 0 0 0 0 0 0 0 0 0 127 0"/>
        <feOffset dy="385.782"/>
        <feGaussianBlur stdDeviation="154.313"/>
        <feColorMatrix type="matrix" values="0 0 0 0 0 0 0 0 0 0 0 0 0 0 0 0 0 0 0.13 0"/>
        <feBlend in2="effect5_dropShadow" mode="normal" result="effect6_dropShadow"/>
        <feBlend in="SourceGraphic" in2="effect6_dropShadow" mode="normal" result="shape"/>
    </filter>
    <filter id="f" color-interpolation-filters="sRGB" filterUnits="userSpaceOnUse" height="715.079" width="637.922"
            x="1395.41" y="494.713">
        <feFlood flood-opacity="0" result="BackgroundImageFix"/>
        <feColorMatrix in="SourceAlpha" type="matrix" values="0 0 0 0 0 0 0 0 0 0 0 0 0 0 0 0 0 0 127 0"/>
        <feOffset dy="10.6756"/>
        <feGaussianBlur stdDeviation="4.27023"/>
        <feColorMatrix type="matrix" values="0 0 0 0 0 0 0 0 0 0 0 0 0 0 0 0 0 0 0.0365489 0"/>
        <feBlend in2="BackgroundImageFix" mode="normal" result="effect1_dropShadow"/>
        <feColorMatrix in="SourceAlpha" type="matrix" values="0 0 0 0 0 0 0 0 0 0 0 0 0 0 0 0 0 0 127 0"/>
        <feOffset dy="25.6549"/>
        <feGaussianBlur stdDeviation="10.262"/>
        <feColorMatrix type="matrix" values="0 0 0 0 0 0 0 0 0 0 0 0 0 0 0 0 0 0 0.0525061 0"/>
        <feBlend in2="effect1_dropShadow" mode="normal" result="effect2_dropShadow"/>
        <feColorMatrix in="SourceAlpha" type="matrix" values="0 0 0 0 0 0 0 0 0 0 0 0 0 0 0 0 0 0 127 0"/>
        <feOffset dy="48.3059"/>
        <feGaussianBlur stdDeviation="19.3223"/>
        <feColorMatrix type="matrix" values="0 0 0 0 0 0 0 0 0 0 0 0 0 0 0 0 0 0 0.065 0"/>
        <feBlend in2="effect2_dropShadow" mode="normal" result="effect3_dropShadow"/>
        <feColorMatrix in="SourceAlpha" type="matrix" values="0 0 0 0 0 0 0 0 0 0 0 0 0 0 0 0 0 0 127 0"/>
        <feOffset dy="86.1694"/>
        <feGaussianBlur stdDeviation="34.4678"/>
        <feColorMatrix type="matrix" values="0 0 0 0 0 0 0 0 0 0 0 0 0 0 0 0 0 0 0.0774939 0"/>
        <feBlend in2="effect3_dropShadow" mode="normal" result="effect4_dropShadow"/>
        <feColorMatrix in="SourceAlpha" type="matrix" values="0 0 0 0 0 0 0 0 0 0 0 0 0 0 0 0 0 0 127 0"/>
        <feOffset dy="161.17"/>
        <feGaussianBlur stdDeviation="64.4682"/>
        <feColorMatrix type="matrix" values="0 0 0 0 0 0 0 0 0 0 0 0 0 0 0 0 0 0 0.0934511 0"/>
        <feBlend in2="effect4_dropShadow" mode="normal" result="effect5_dropShadow"/>
        <feColorMatrix in="SourceAlpha" type="matrix" values="0 0 0 0 0 0 0 0 0 0 0 0 0 0 0 0 0 0 127 0"/>
        <feOffset dy="385.782"/>
        <feGaussianBlur stdDeviation="154.313"/>
        <feColorMatrix type="matrix" values="0 0 0 0 0 0 0 0 0 0 0 0 0 0 0 0 0 0 0.13 0"/>
        <feBlend in2="effect5_dropShadow" mode="normal" result="effect6_dropShadow"/>
        <feBlend in="SourceGraphic" in2="effect6_dropShadow" mode="normal" result="shape"/>
    </filter>
    <linearGradient id="g" gradientUnits="userSpaceOnUse" x1="96.5023" x2="111.83" y1="187.911" y2="203.239">
        <stop offset="0" stop-color="#c8d8ed"/>
        <stop offset="1" stop-color="#79b1fd"/>
    </linearGradient>
    <linearGradient id="h">
        <stop offset="0" stop-color="#ffd33d"/>
        <stop offset="1" stop-color="#ffd33d" stop-opacity="0"/>
    </linearGradient>
    <linearGradient id="i" gradientUnits="userSpaceOnUse" x1="228.201" x2="228.201" xlink:href="#h" y1="752.864"
                    y2="721.857"/>
    <linearGradient id="j">
        <stop offset="0" stop-color="#57dd82"/>
        <stop offset="1" stop-color="#28a745" stop-opacity="0"/>
    </linearGradient>
    <linearGradient id="k" gradientUnits="userSpaceOnUse" x1="351.42" x2="351.42" xlink:href="#j" y1="377.141"
                    y2="353.885"/>
    <linearGradient id="l" gradientUnits="userSpaceOnUse" x1="9.98828" x2="10.3358" y1="32.9922" y2="-16.7957">
        <stop offset="0" stop-color="#a0b3ff"/>
        <stop offset="1" stop-color="#4969ed"/>
    </linearGradient>
    <linearGradient id="m" gradientUnits="userSpaceOnUse" x1="10.3358" x2="10.3358" xlink:href="#h" y1="10.3358"
                    y2="-20.6717"/>
    <linearGradient id="n" gradientUnits="userSpaceOnUse" x1="10.3358" x2="10.3358" xlink:href="#j" y1="6.4599"
                    y2="-16.7957"/>
    <linearGradient id="o" gradientUnits="userSpaceOnUse" x1="1714.37" x2="1714.37" xlink:href="#h" y1="505.049"
                    y2="474.041"/>
    <clipPath id="p">
        <path d="m0 0h1910.75v1321.55h-1910.75z"/>
    </clipPath>
    <g clip-path="url(#p)">
        <path d="m.001953.001465h20.6717v20.6717h-20.6717z" fill="#fafbfc"/>
        <path d="m93.0254 31.0083h20.6717v20.6717h-20.6717z" fill="#e1e4e8"/>
        <path d="m93.0254 155.038h20.6717v20.6717h-20.6717z" fill="#fafbfc"/>
        <path d="m93.0254 93.0239h20.6717v20.6717h-20.6717z" fill="#fafbfc"/>
        <path d="m93.0254 217.053h20.6717v20.6717h-20.6717z" fill="#fafbfc"/>
        <path d="m93.0254 62.0161h20.6717v20.6717h-20.6717z" fill="#fafbfc"/>
        <path d="m93.0254 186.046h20.6717v20.6717h-20.6717z" fill="#fafbfc"/>
        <path d="m93.0254.001465h20.6717v20.6717h-20.6717z" fill="#fafbfc"/>
        <path d="m31.0098 31.0083h20.6717v20.6717h-20.6717z" fill="#fafbfc"/>
        <path d="m31.0098 93.0239h20.6717v20.6717h-20.6717z" fill="#fafbfc"/>
        <path d="m31.0098 217.053h20.6717v20.6717h-20.6717z" fill="#fafbfc"/>
        <path d="m31.0098 186.046h20.6717v20.6717h-20.6717z" fill="#fafbfc"/>
        <path d="m31.0098 124.031h20.6717v20.6717h-20.6717z" fill="#fafbfc"/>
        <path d="m31.0098.001465h20.6717v20.6717h-20.6717z" fill="#fafbfc"/>
        <path d="m124.031 31.0083h20.6717v20.6717h-20.6717z" fill="#fafbfc"/>
        <path d="m124.031 155.038h20.6717v20.6717h-20.6717z" fill="#fafbfc"/>
        <path d="m124.031 217.053h20.6717v20.6717h-20.6717z" fill="#fafbfc"/>
        <path d="m124.031 62.0161h20.6717v20.6717h-20.6717z" fill="#fafbfc"/>
        <path d="m124.031 186.046h20.6717v20.6717h-20.6717z" fill="#fafbfc"/>
        <path d="m93.0234 186.046h20.6717v20.6717h-20.6717z" fill="url(#g)"/>
        <path d="m124.031.001465h20.6717v20.6717h-20.6717z" fill="#fafbfc"/>
        <path d="m62.0176 31.0083h20.6717v20.6717h-20.6717z" fill="#fafbfc"/>
        <path d="m62.0176 93.0239h20.6717v20.6717h-20.6717z" fill="#f1f2f2"/>
        <g fill="#fafbfc">
            <path d="m62.0176 217.053h20.6717v20.6717h-20.6717z"/>
            <path d="m62.0176 186.046h20.6717v20.6717h-20.6717z"/>
            <path d="m62.0176 124.031h20.6717v20.6717h-20.6717z"/>
            <path d="m62.0176.001465h20.6717v20.6717h-20.6717z"/>
            <path d="m155.039 155.038h20.6717v20.6717h-20.6717z"/>
            <path d="m155.039 93.0239h20.6717v20.6717h-20.6717z"/>
            <path d="m155.039 217.053h20.6717v20.6717h-20.6717z"/>
            <path d="m155.039 124.031h20.6717v20.6717h-20.6717z"/>
            <path d="m186.047 155.038h20.6717v20.6717h-20.6717z"/>
            <path d="m186.047 93.0239h20.6717v20.6717h-20.6717z"/>
            <path d="m186.047 186.046h20.6717v20.6717h-20.6717z"/>
            <path d="m186.047 124.031h20.6717v20.6717h-20.6717z"/>
            <path d="m372.092 155.038h20.6717v20.6717h-20.6717z"/>
            <path d="m372.092 93.0239h20.6717v20.6717h-20.6717z"/>
            <path d="m372.092 217.053h20.6717v20.6717h-20.6717z"/>
            <path d="m372.092 124.031h20.6717v20.6717h-20.6717z"/>
            <path d="m279.07 155.038h20.6717v20.6717h-20.6717z"/>
            <path d="m279.07 93.0239h20.6717v20.6717h-20.6717z"/>
            <path d="m279.07 217.053h20.6717v20.6717h-20.6717z"/>
            <path d="m279.07 186.046h20.6717v20.6717h-20.6717z"/>
            <path d="m279.07 124.031h20.6717v20.6717h-20.6717z"/>
            <path d="m465.115 93.0239h20.6717v20.6717h-20.6717z"/>
            <path d="m465.115.001465h20.6717v20.6717h-20.6717z"/>
            <path d="m217.055 155.038h20.6717v20.6717h-20.6717z"/>
            <path d="m217.055 217.053h20.6717v20.6717h-20.6717z"/>
            <path d="m217.055 186.046h20.6717v20.6717h-20.6717z"/>
            <path d="m589.145.001465h20.6717v20.6717h-20.6717z"/>
            <path d="m403.1 31.0083h20.6717v20.6717h-20.6717z"/>
            <path d="m403.1 155.038h20.6717v20.6717h-20.6717z"/>
            <path d="m403.1 93.0239h20.6717v20.6717h-20.6717z"/>
            <path d="m403.1 217.053h20.6717v20.6717h-20.6717z"/>
            <path d="m403.1 186.046h20.6717v20.6717h-20.6717z"/>
            <path d="m403.1 124.031h20.6717v20.6717h-20.6717z"/>
            <path d="m403.1.001465h20.6717v20.6717h-20.6717z"/>
            <path d="m310.078 155.038h20.6717v20.6717h-20.6717z"/>
            <path d="m310.078 93.0239h20.6717v20.6717h-20.6717z"/>
            <path d="m310.078 186.046h20.6717v20.6717h-20.6717z"/>
            <path d="m496.121.001465h20.6717v20.6717h-20.6717z"/>
            <path d="m248.062 155.038h20.6717v20.6717h-20.6717z"/>
            <path d="m248.062 93.0239h20.6717v20.6717h-20.6717z"/>
        </g>
        <path d="m248.062 217.053h20.6717v20.6717h-20.6717z" fill="#e1e4e8"/>
        <path d="m248.062 186.046h20.6717v20.6717h-20.6717z" fill="#fafbfc"/>
        <path d="m248.062 124.031h20.6717v20.6717h-20.6717z" fill="#fafbfc"/>
        <path d="m620.152.001465h20.6717v20.6717h-20.6717z" fill="#fafbfc"/>
        <path d="m434.107 31.0083h20.6717v20.6717h-20.6717z" fill="#fafbfc"/>
        <path d="m434.107 93.0239h20.6717v20.6717h-20.6717z" fill="#fafbfc"/>
        <path d="m434.107 217.053h20.6717v20.6717h-20.6717z" fill="#fafbfc"/>
        <path d="m434.107 62.0161h20.6717v20.6717h-20.6717z" fill="#fafbfc"/>
        <path d="m434.107 124.031h20.6717v20.6717h-20.6717z" fill="#fafbfc"/>
        <path d="m434.107.001465h20.6717v20.6717h-20.6717z" fill="#fafbfc"/>
        <path d="m341.086 155.038h20.6717v20.6717h-20.6717z" fill="#fafbfc"/>
        <path d="m341.086 93.0239h20.6717v20.6717h-20.6717z" fill="#fafbfc"/>
        <path d="m341.086 217.053h20.6717v20.6717h-20.6717z" fill="#fafbfc"/>
        <path d="m341.086 186.046h20.6717v20.6717h-20.6717z" fill="#fafbfc"/>
        <path d="m340.865 92.5273h20.6717v20.6717h-20.6717z" fill="#f9826c"/>
        <path d="m0 0h20.6717v20.6717h-20.6717z" fill="#fafbfc"
              transform="matrix(1 -.00000009 -.00000009 -1 1455.97 237.724)"/>
        <path d="m0 0h20.6717v20.6717h-20.6717z" fill="#fafbfc"
              transform="matrix(1 -.00000009 -.00000009 -1 1455.97 113.694)"/>
        <path d="m0 0h20.6717v20.6717h-20.6717z" fill="#fafbfc"
              transform="matrix(1 -.00000009 -.00000009 -1 1455.97 175.708)"/>
        <path d="m0 0h20.6717v20.6717h-20.6717z" fill="#fafbfc"
              transform="matrix(1 -.00000009 -.00000009 -1 1455.97 206.716)"/>
        <path d="m0 0h20.6717v20.6717h-20.6717z" fill="#fafbfc"
              transform="matrix(1 -.00000009 -.00000009 -1 1455.97 82.6855)"/>
        <path d="m0 0h20.6717v20.6717h-20.6717z" fill="#fafbfc"
              transform="matrix(1 -.00000009 -.00000009 -1 1455.97 144.701)"/>
        <path d="m0 0h20.6717v20.6717h-20.6717z" fill="#fafbfc"
              transform="matrix(1 -.00000009 -.00000009 -1 1455.97 20.6719)"/>
        <path d="m0 0h20.6717v20.6717h-20.6717z" fill="#fafbfc"
              transform="matrix(1 -.00000009 -.00000009 -1 1362.95 20.6719)"/>
        <path d="m0 0h20.6717v20.6717h-20.6717z" fill="#fafbfc"
              transform="matrix(1 -.00000009 -.00000009 -1 1549 237.724)"/>
        <path d="m0 0h20.6717v20.6717h-20.6717z" fill="#fafbfc"
              transform="matrix(1 -.00000009 -.00000009 -1 1549 175.708)"/>
        <path d="m0 0h20.6717v20.6717h-20.6717z" fill="#e1e4e8"
              transform="matrix(1 -.00000009 -.00000009 -1 1549 206.716)"/>
        <path d="m0 0h20.6717v20.6717h-20.6717z" fill="#fafbfc"
              transform="matrix(1 -.00000009 -.00000009 -1 1549 82.6855)"/>
        <path d="m0 0h20.6717v20.6717h-20.6717z" fill="#fafbfc"
              transform="matrix(1 -.00000009 -.00000009 -1 1549 144.701)"/>
        <path d="m0 0h20.6717v20.6717h-20.6717z" fill="#fafbfc"
              transform="matrix(1 -.00000009 -.00000009 -1 1486.98 113.694)"/>
        <path d="m0 0h20.6717v20.6717h-20.6717z" fill="#fafbfc"
              transform="matrix(1 -.00000009 -.00000009 -1 1486.98 175.708)"/>
        <path d="m0 0h20.6717v20.6717h-20.6717z" fill="#fafbfc"
              transform="matrix(1 -.00000009 -.00000009 -1 1486.98 206.716)"/>
        <path d="m0 0h20.6717v20.6717h-20.6717z" fill="#fafbfc"
              transform="matrix(1 -.00000009 -.00000009 -1 1486.98 82.6855)"/>
        <path d="m0 0h20.6717v20.6717h-20.6717z" fill="#fafbfc"
              transform="matrix(1 -.00000009 -.00000009 -1 1486.98 144.701)"/>
        <path d="m0 0h20.6717v20.6717h-20.6717z" fill="#fafbfc"
              transform="matrix(1 -.00000009 -.00000009 -1 1486.98 20.6719)"/>
        <path d="m0 0h20.6717v20.6717h-20.6717z" fill="#fafbfc"
              transform="matrix(1 -.00000009 -.00000009 -1 1393.96 20.6719)"/>
        <path d="m0 0h20.6717v20.6717h-20.6717z" fill="#fafbfc"
              transform="matrix(1 -.00000009 -.00000009 -1 1580 237.724)"/>
        <path d="m0 0h20.6717v20.6717h-20.6717z" fill="#fafbfc"
              transform="matrix(1 -.00000009 -.00000009 -1 1580 113.694)"/>
        <path d="m0 0h20.6717v20.6717h-20.6717z" fill="#fafbfc"
              transform="matrix(1 -.00000009 -.00000009 -1 1580 175.708)"/>
        <path d="m0 0h20.6717v20.6717h-20.6717z" fill="#fafbfc"
              transform="matrix(1 -.00000009 -.00000009 -1 1580 206.716)"/>
        <path d="m0 0h20.6717v20.6717h-20.6717z" fill="#f3f4f6"
              transform="matrix(1 -.00000009 -.00000009 -1 1580 82.6855)"/>
        <path d="m0 0h20.6717v20.6717h-20.6717z" fill="#fafbfc"
              transform="matrix(1 -.00000009 -.00000009 -1 1580 20.6719)"/>
        <path d="m0 0h20.6717v20.6717h-20.6717z" fill="#fafbfc"
              transform="matrix(1 -.00000009 -.00000009 -1 1331.94 20.6719)"/>
        <path d="m0 0h20.6717v20.6717h-20.6717z" fill="#fafbfc"
              transform="matrix(1 -.00000009 -.00000009 -1 1517.99 237.724)"/>
        <path d="m0 0h20.6717v20.6717h-20.6717z" fill="#fafbfc"
              transform="matrix(1 -.00000009 -.00000009 -1 1517.99 113.694)"/>
        <path d="m0 0h20.6717v20.6717h-20.6717z" fill="#fafbfc"
              transform="matrix(1 -.00000009 -.00000009 -1 1517.99 206.716)"/>
        <path d="m0 0h20.6717v20.6717h-20.6717z" fill="#fafbfc"
              transform="matrix(1 -.00000009 -.00000009 -1 1517.99 82.6855)"/>
        <path d="m0 0h20.6717v20.6717h-20.6717z" fill="#fafbfc"
              transform="matrix(1 -.00000009 -.00000009 -1 1517.99 144.701)"/>
        <path d="m0 0h20.6717v20.6717h-20.6717z" fill="#fafbfc"
              transform="matrix(1 -.00000009 -.00000009 -1 1424.97 237.724)"/>
        <path d="m0 0h20.6717v20.6717h-20.6717z" fill="#fafbfc"
              transform="matrix(1 -.00000009 -.00000009 -1 1424.97 206.716)"/>
        <path d="m0 0h20.6717v20.6717h-20.6717z" fill="#fafbfc"
              transform="matrix(1 -.00000009 -.00000009 -1 1424.97 82.6855)"/>
        <path d="m0 0h20.6717v20.6717h-20.6717z" fill="#fafbfc"
              transform="matrix(1 -.00000009 -.00000009 -1 1611.01 237.724)"/>
        <path d="m0 0h20.6717v20.6717h-20.6717z" fill="#fafbfc"
              transform="matrix(1 -.00000009 -.00000009 -1 1611.01 113.694)"/>
        <path d="m0 0h20.6717v20.6717h-20.6717z" fill="#fafbfc"
              transform="matrix(1 -.00000009 -.00000009 -1 1611.01 175.708)"/>
        <path d="m0 0h20.6717v20.6717h-20.6717z" fill="#fafbfc"
              transform="matrix(1 -.00000009 -.00000009 -1 1611.01 51.6787)"/>
        <path d="m0 0h20.6717v20.6717h-20.6717z" fill="#fafbfc"
              transform="matrix(1 -.00000009 -.00000009 -1 1611.01 206.716)"/>
        <path d="m0 0h20.6717v20.6717h-20.6717z" fill="#fafbfc"
              transform="matrix(1 -.00000009 -.00000009 -1 1611.01 144.701)"/>
        <path d="m0 0h20.6717v20.6717h-20.6717z" fill="#fafbfc"
              transform="matrix(1 -.00000009 -.00000009 -1 1642.02 175.708)"/>
        <path d="m0 0h20.6717v20.6717h-20.6717z" fill="#f3f4f6"
              transform="matrix(1 -.00000009 -.00000009 -1 1642.02 51.6787)"/>
        <path d="m0 0h20.6717v20.6717h-20.6717z" fill="#f3f4f6"
              transform="matrix(1 -.00000009 -.00000009 -1 1642.02 82.6855)"/>
        <path d="m0 0h20.6717v20.6717h-20.6717z" fill="#fafbfc"
              transform="matrix(1 -.00000009 -.00000009 -1 1642.02 144.701)"/>
        <path d="m0 0h20.6717v20.6717h-20.6717z" fill="#fafbfc"
              transform="matrix(1 -.00000009 -.00000009 -1 1828.06 51.6787)"/>
        <path d="m0 0h20.6717v20.6717h-20.6717z" fill="#fafbfc"
              transform="matrix(1 -.00000009 -.00000009 -1 1735.04 237.724)"/>
        <path d="m0 0h20.6717v20.6717h-20.6717z" fill="#fafbfc"
              transform="matrix(1 -.00000009 -.00000009 -1 1735.04 51.6787)"/>
        <path d="m0 0h20.6717v20.6717h-20.6717z" fill="#fafbfc"
              transform="matrix(1 -.00000009 -.00000009 -1 1735.04 82.6855)"/>
        <path d="m0 0h20.6717v20.6717h-20.6717z" fill="#fafbfc"
              transform="matrix(1 -.00000009 -.00000009 -1 1735.04 144.701)"/>
        <path d="m0 0h20.6717v20.6717h-20.6717z" fill="#fafbfc"
              transform="matrix(1 -.00000009 -.00000009 -1 1735.04 20.6719)"/>
        <path d="m0 0h20.6717v20.6717h-20.6717z" fill="#fafbfc"
              transform="matrix(1 -.00000009 -.00000009 -1 1673.03 237.724)"/>
        <path d="m0 0h20.6717v20.6717h-20.6717z" fill="#fafbfc"
              transform="matrix(1 -.00000009 -.00000009 -1 1673.03 113.694)"/>
        <path d="m0 0h20.6717v20.6717h-20.6717z" fill="#fafbfc"
              transform="matrix(1 -.00000009 -.00000009 -1 1673.03 175.708)"/>
        <path d="m0 0h20.6717v20.6717h-20.6717z" fill="#fafbfc"
              transform="matrix(1 -.00000009 -.00000009 -1 1673.03 51.6787)"/>
        <path d="m0 0h20.6717v20.6717h-20.6717z" fill="#fafbfc"
              transform="matrix(1 -.00000009 -.00000009 -1 1673.03 206.716)"/>
        <path d="m0 0h20.6717v20.6717h-20.6717z" fill="#fafbfc"
              transform="matrix(1 -.00000009 -.00000009 -1 1673.03 144.701)"/>
        <path d="m0 0h20.6717v20.6717h-20.6717z" fill="#fafbfc"
              transform="matrix(1 -.00000009 -.00000009 -1 1673.03 20.6719)"/>
        <path d="m0 0h20.6717v20.6717h-20.6717z" fill="#fafbfc"
              transform="matrix(1 -.00000009 -.00000009 -1 1859.07 20.6719)"/>
        <path d="m0 0h20.6717v20.6717h-20.6717z" fill="#fafbfc"
              transform="matrix(1 -.00000009 -.00000009 -1 1766.05 113.694)"/>
        <path d="m0 0h20.6717v20.6717h-20.6717z" fill="#fafbfc"
              transform="matrix(1 -.00000009 -.00000009 -1 1766.05 144.701)"/>
        <path d="m0 0h20.6717v20.6717h-20.6717z" fill="#fafbfc"
              transform="matrix(1 -.00000009 -.00000009 -1 1704.03 237.724)"/>
        <path d="m0 0h20.6717v20.6717h-20.6717z" fill="#fafbfc"
              transform="matrix(1 -.00000009 -.00000009 -1 1704.03 113.694)"/>
        <path d="m0 0h20.6717v20.6717h-20.6717z" fill="#fafbfc"
              transform="matrix(1 -.00000009 -.00000009 -1 1704.03 175.708)"/>
        <path d="m0 0h20.6717v20.6717h-20.6717z" fill="#fafbfc"
              transform="matrix(1 -.00000009 -.00000009 -1 1704.03 51.6787)"/>
        <path d="m0 0h20.6717v20.6717h-20.6717z" fill="#fafbfc"
              transform="matrix(1 -.00000009 -.00000009 -1 1704.03 144.701)"/>
        <path d="m0 0h20.6717v20.6717h-20.6717z" fill="#fafbfc"
              transform="matrix(1 -.00000009 -.00000009 -1 1890.08 20.6719)"/>
        <path d="m0 0h20.6717v20.6717h-20.6717z" fill="#fafbfc"
              transform="matrix(1 -.00000009 -.00000009 -1 1797.06 82.6855)"/>
        <path d="m0 0h20.6717v20.6717h-20.6717z" fill="#f9826c"
              transform="matrix(1 -.00000009 -.00000009 -1 1767.06 113.694)"/>
        <path d="m0 0h20.6717v20.6717h-20.6717z" fill="#fafbfc"
              transform="matrix(1 -.00000009 -.00000009 -1 1797.06 144.701)"/>
        <path d="m0 308.667h20.6717v20.6717h-20.6717z" fill="#fafbfc"/>
        <path d="m0 525.719h20.6717v20.6717h-20.6717z" fill="#fafbfc"/>
        <path d="m0 401.689h20.6717v20.6717h-20.6717z" fill="#fafbfc"/>
        <path d="m0 463.703h20.6717v20.6717h-20.6717z" fill="#fafbfc"/>
        <path d="m93.0234 494.711h20.6717v20.6717h-20.6717z" fill="#fafbfc"/>
        <path d="m93.0234 308.667h20.6717v20.6717h-20.6717z" fill="#fafbfc"/>
        <path d="m279.021 1083.88h20.6717v20.6717h-20.6717z" fill="#fafbfc"/>
        <path d="m93.0234 277.658h20.6717v20.6717h-20.6717z" fill="#e1e4e8"/>
        <path d="m93.0234 773.779h20.6717v20.6717h-20.6717z" fill="#fafbfc"/>
        <path d="m93.0234 525.719h20.6717v20.6717h-20.6717z" fill="#fafbfc"/>
        <path d="m93.0234 339.674h20.6717v20.6717h-20.6717z" fill="#fafbfc"/>
        <path d="m93.0234 835.794h20.6717v20.6717h-20.6717z" fill="#fafbfc"/>
        <path d="m31.0078 246.651h20.6717v20.6717h-20.6717z" fill="#fafbfc"/>
        <path d="m31.0078 370.681h20.6717v20.6717h-20.6717z" fill="#fafbfc"/>
        <path d="m31.0078 308.667h20.6717v20.6717h-20.6717z" fill="#fafbfc"/>
        <path d="m31.0078 525.719h20.6717v20.6717h-20.6717z" fill="#f1f2f2"/>
        <path d="m31.0078 463.703h20.6717v20.6717h-20.6717z" fill="#fafbfc"/>
        <path d="m124.029 246.651h20.6717v20.6717h-20.6717z" fill="#fafbfc"/>
        <path d="m124.029 370.681h20.6717v20.6717h-20.6717z" fill="#fafbfc"/>
        <path d="m124.029 308.667h20.6717v20.6717h-20.6717z" fill="#fafbfc"/>
        <path d="m124.029 432.696h20.6717v20.6717h-20.6717z" fill="#fafbfc"/>
        <path d="m124.029 277.658h20.6717v20.6717h-20.6717z" fill="#fafbfc"/>
        <path d="m124.029 525.719h20.6717v20.6717h-20.6717z" fill="#fafbfc"/>
        <path d="m124.029 401.689h20.6717v20.6717h-20.6717z" fill="#f3f4f6"/>
        <path d="m124.029 463.703h20.6717v20.6717h-20.6717z" fill="#fafbfc"/>
        <path d="m62.0156 370.681h20.6717v20.6717h-20.6717z" fill="#fafbfc"/>
        <path d="m62.0156 308.667h20.6717v20.6717h-20.6717z" fill="#fafbfc"/>
        <path d="m62.0156 680.757h20.6717v20.6717h-20.6717z" fill="#fafbfc"/>
        <path d="m62.0156 277.658h20.6717v20.6717h-20.6717z" fill="#fafbfc"/>
        <path d="m62.0156 525.719h20.6717v20.6717h-20.6717z" fill="#fafbfc"/>
        <path d="m62.0156 401.689h20.6717v20.6717h-20.6717z" fill="#fafbfc"/>
        <path d="m248.016 1052.87h20.6717v20.6717h-20.6717z" fill="#fafbfc"/>
        <path d="m62.0156 339.674h20.6717v20.6717h-20.6717z" fill="#fafbfc"/>
        <path d="m62.0156 835.794h20.6717v20.6717h-20.6717z" fill="#fafbfc"/>
        <path d="m154.992 1145.87h20.6717v20.6717h-20.6717z" fill="#fafbfc"/>
        <path d="m155.037 246.651h20.6717v20.6717h-20.6717z" fill="#fafbfc"/>
        <path d="m155.037 494.711h20.6717v20.6717h-20.6717z" fill="#fafbfc"/>
        <path d="m155.037 370.681h20.6717v20.6717h-20.6717z" fill="#fafbfc"/>
        <path d="m155.037 308.667h20.6717v20.6717h-20.6717z" fill="#fafbfc"/>
        <path d="m155.037 432.696h20.6717v20.6717h-20.6717z" fill="#fafbfc"/>
        <path d="m155.037 277.658h20.6717v20.6717h-20.6717z" fill="#fafbfc"/>
        <path d="m155.037 525.719h20.6717v20.6717h-20.6717z" fill="#fafbfc"/>
        <path d="m155.037 401.689h20.6717v20.6717h-20.6717z" fill="#fafbfc"/>
        <path d="m155.037 339.674h20.6717v20.6717h-20.6717z" fill="#fafbfc"/>
        <path d="m155.037 835.794h20.6717v20.6717h-20.6717z" fill="#fafbfc"/>
        <path d="m155.037 463.703h20.6717v20.6717h-20.6717z" fill="#fafbfc"/>
        <path d="m186.045 370.681h20.6717v20.6717h-20.6717z" fill="#f3f4f6"/>
        <path d="m186.045 432.696h20.6717v20.6717h-20.6717z" fill="#f3f4f6"/>
        <path d="m186.045 525.719h20.6717v20.6717h-20.6717z" fill="#fafbfc"/>
        <path d="m186.045 401.689h20.6717v20.6717h-20.6717z" fill="#f3f4f6"/>
        <path d="m186.045 339.674h20.6717v20.6717h-20.6717z" fill="#fafbfc"/>
        <path d="m558.135 1114.86h20.6717v20.6717h-20.6717z" fill="#fafbfc"/>
        <path d="m558.135 1145.87h20.6717v20.6717h-20.6717z" fill="#fafbfc"/>
        <path d="m558.135 1083.85h20.6717v20.6717h-20.6717z" fill="#fafbfc"/>
        <path d="m372.09 246.651h20.6717v20.6717h-20.6717z" fill="#fafbfc"/>
        <path d="m372.09 990.832h20.6717v20.6717h-20.6717z" fill="#fafbfc"/>
        <path d="m372.09 370.681h20.6717v20.6717h-20.6717z" fill="#fafbfc"/>
        <path d="m372.09 308.667h20.6717v20.6717h-20.6717z" fill="#fafbfc"/>
        <path d="m372.09 804.786h20.6717v20.6717h-20.6717z" fill="#fafbfc"/>
        <path d="m372.09 556.726h20.6717v20.6717h-20.6717z" fill="#fafbfc"/>
        <path d="m372.09 1052.85h20.6717v20.6717h-20.6717z" fill="#fafbfc"/>
        <path d="m372.09 432.696h20.6717v20.6717h-20.6717z" fill="#fafbfc"/>
        <path d="m372.09 1176.88h20.6717v20.6717h-20.6717z" fill="#fafbfc"/>
        <path d="m372.09 277.658h20.6717v20.6717h-20.6717z" fill="#fafbfc"/>
        <path d="m372.09 773.779h20.6717v20.6717h-20.6717z" fill="#fafbfc"/>
        <path d="m372.09 401.689h20.6717v20.6717h-20.6717z" fill="#fafbfc"/>
        <path d="m372.09 649.748h20.6717v20.6717h-20.6717z" fill="#fafbfc"/>
        <path d="m372.09 339.674h20.6717v20.6717h-20.6717z" fill="#fafbfc"/>
        <path d="m372.09 587.733h20.6717v20.6717h-20.6717z" fill="#fafbfc"/>
        <path d="m372.09 463.703h20.6717v20.6717h-20.6717z" fill="#fafbfc"/>
        <path d="m372.09 711.765h20.6717v20.6717h-20.6717z" fill="#fafbfc"/>
        <path d="m744.18 1114.86h20.6717v20.6717h-20.6717z" fill="#fafbfc"/>
        <path d="m744.18 1176.88h20.6717v20.6717h-20.6717z" fill="#fafbfc"/>
        <path d="m744.18 1083.85h20.6717v20.6717h-20.6717z" fill="#fafbfc"/>
        <path d="m279.068 246.651h20.6717v20.6717h-20.6717z" fill="#fafbfc"/>
        <path d="m279.068 494.711h20.6717v20.6717h-20.6717z" fill="#fafbfc"/>
        <path d="m279.068 370.681h20.6717v20.6717h-20.6717z" fill="#e1e4e8"/>
        <path d="m279.068 308.667h20.6717v20.6717h-20.6717z" fill="#fafbfc"/>
        <path d="m279.068 804.786h20.6717v20.6717h-20.6717z" fill="#fafbfc"/>
        <path d="m279.068 556.726h20.6717v20.6717h-20.6717z" fill="#fafbfc"/>
        <path d="m279.068 277.658h20.6717v20.6717h-20.6717z" fill="#fafbfc"/>
        <path d="m279.068 525.719h20.6717v20.6717h-20.6717z" fill="#fafbfc"/>
        <path d="m279.068 401.689h20.6717v20.6717h-20.6717z" fill="#fafbfc"/>
        <path d="m279.068 339.674h20.6717v20.6717h-20.6717z" fill="#fafbfc"/>
        <path d="m279.068 835.794h20.6717v20.6717h-20.6717z" fill="#fafbfc"/>
        <path d="m279.068 587.733h20.6717v20.6717h-20.6717z" fill="#fafbfc"/>
        <path d="m279.068 463.703h20.6717v20.6717h-20.6717z" fill="#fafbfc"/>
        <path d="m465.113 246.651h20.6717v20.6717h-20.6717z" fill="#fafbfc"/>
        <path d="m465.113 742.771h20.6717v20.6717h-20.6717z" fill="#f3f4f6"/>
        <path d="m465.113 1114.86h20.6717v20.6717h-20.6717z" fill="#fafbfc"/>
        <path d="m465.113 308.667h20.6717v20.6717h-20.6717z" fill="#fafbfc"/>
        <path d="m465.113 804.786h20.6717v20.6717h-20.6717z" fill="#fafbfc"/>
        <path d="m465.113 556.726h20.6717v20.6717h-20.6717z" fill="#fafbfc"/>
        <path d="m465.113 680.757h20.6717v20.6717h-20.6717z" fill="#fafbfc"/>
        <path d="m465.113 1238.88h20.6717v20.6717h-20.6717z" fill="#fafbfc"/>
        <path d="m465.113 277.658h20.6717v20.6717h-20.6717z" fill="#fafbfc"/>
        <path d="m465.113 773.779h20.6717v20.6717h-20.6717z" fill="#f3f4f6"/>
        <path d="m465.113 649.748h20.6717v20.6717h-20.6717z" fill="#fafbfc"/>
        <path d="m465.113 1145.87h20.6717v20.6717h-20.6717z" fill="#fafbfc"/>
        <path d="m465.113 339.674h20.6717v20.6717h-20.6717z" fill="#fafbfc"/>
        <path d="m465.113 1083.85h20.6717v20.6717h-20.6717z" fill="#fafbfc"/>
        <path d="m837.203 1114.86h20.6717v20.6717h-20.6717z" fill="#fafbfc"/>
        <path d="m837.203 1176.88h20.6717v20.6717h-20.6717z" fill="#fafbfc"/>
        <path d="m837.203 1083.85h20.6717v20.6717h-20.6717z" fill="#fafbfc"/>
        <path d="m868.209 1083.85h20.6717v20.6717h-20.6717z" fill="#fafbfc"/>
        <path d="m217.053 246.651h20.6717v20.6717h-20.6717z" fill="#fafbfc"/>
        <path d="m217.053 742.771h20.6717v20.6717h-20.6717z" fill="#fafbfc"/>
        <path d="m217.053 494.711h20.6717v20.6717h-20.6717z" fill="#fafbfc"/>
        <path d="m217.053 370.681h20.6717v20.6717h-20.6717z" fill="#fafbfc"/>
        <path d="m217.053 804.786h20.6717v20.6717h-20.6717z" fill="#fafbfc"/>
        <path d="m217.053 556.726h20.6717v20.6717h-20.6717z" fill="#fafbfc"/>
        <path d="m217.053 432.696h20.6717v20.6717h-20.6717z" fill="#fafbfc"/>
        <path d="m217.053 773.779h20.6717v20.6717h-20.6717z" fill="#fafbfc"/>
        <path d="m217.053 401.689h20.6717v20.6717h-20.6717z" fill="#fafbfc"/>
        <g filter="url(#a)">
            <path d="m217.865 742.528h20.6717v20.6717h-20.6717z" fill="url(#i)"/>
        </g>
        <path d="m217.053 339.674h20.6717v20.6717h-20.6717z" fill="#fafbfc"/>
        <path d="m217.053 835.794h20.6717v20.6717h-20.6717z" fill="#fafbfc"/>
        <path d="m217.053 463.703h20.6717v20.6717h-20.6717z" fill="#fafbfc"/>
        <path d="m589.143 1114.86h20.6717v20.6717h-20.6717z" fill="#fafbfc"/>
        <path d="m589.143 1176.88h20.6717v20.6717h-20.6717z" fill="#fafbfc"/>
        <path d="m589.143 1287.88h20.6717v20.6717h-20.6717z" fill="#e1e4e8"/>
        <path d="m589.143 1083.85h20.6717v20.6717h-20.6717z" fill="#fafbfc"/>
        <path d="m403.098 742.771h20.6717v20.6717h-20.6717z" fill="#fafbfc"/>
        <path d="m403.098 494.711h20.6717v20.6717h-20.6717z" fill="#fafbfc"/>
        <path d="m403.098 618.741h20.6717v20.6717h-20.6717z" fill="#fafbfc"/>
        <path d="m403.098 1114.86h20.6717v20.6717h-20.6717z" fill="#fafbfc"/>
        <path d="m403.098 804.786h20.6717v20.6717h-20.6717z" fill="#fafbfc"/>
        <path d="m403.098 1052.85h20.6717v20.6717h-20.6717z" fill="#fafbfc"/>
        <path d="m403.098 680.757h20.6717v20.6717h-20.6717z" fill="#fafbfc"/>
        <path d="m403.098 773.779h20.6717v20.6717h-20.6717z" fill="#f3f4f6"/>
        <path d="m403.098 525.719h20.6717v20.6717h-20.6717z" fill="#fafbfc"/>
        <path d="m403.098 1021.84h20.6717v20.6717h-20.6717z" fill="#fafbfc"/>
        <path d="m403.098 1083.85h20.6717v20.6717h-20.6717z" fill="#fafbfc"/>
        <path d="m403.098 959.824h20.6717v20.6717h-20.6717z" fill="#fafbfc"/>
        <path d="m403.098 711.765h20.6717v20.6717h-20.6717z" fill="#fafbfc"/>
        <path d="m775.186 1114.86h20.6717v20.6717h-20.6717z" fill="#fafbfc"/>
        <path d="m775.186 1083.85h20.6717v20.6717h-20.6717z" fill="#fafbfc"/>
        <path d="m310.076 246.651h20.6717v20.6717h-20.6717z" fill="#fafbfc"/>
        <path d="m310.076 494.711h20.6717v20.6717h-20.6717z" fill="#fafbfc"/>
        <path d="m310.076 990.832h20.6717v20.6717h-20.6717z" fill="#fafbfc"/>
        <path d="m310.076 370.681h20.6717v20.6717h-20.6717z" fill="#fafbfc"/>
        <path d="m310.076 618.741h20.6717v20.6717h-20.6717z" fill="#fafbfc"/>
        <path d="m310.076 308.667h20.6717v20.6717h-20.6717z" fill="#fafbfc"/>
        <path d="m310.076 432.696h20.6717v20.6717h-20.6717z" fill="#fafbfc"/>
        <path d="m310.076 928.816h20.6717v20.6717h-20.6717z" fill="#fafbfc"/>
        <path d="m310.076 525.719h20.6717v20.6717h-20.6717z" fill="#fafbfc"/>
        <path d="m310.076 401.689h20.6717v20.6717h-20.6717z" fill="#fafbfc"/>
        <path d="m310.076 649.748h20.6717v20.6717h-20.6717z" fill="#fafbfc"/>
        <path d="m310.076 339.674h20.6717v20.6717h-20.6717z" fill="#fafbfc"/>
        <path d="m310.076 835.794h20.6717v20.6717h-20.6717z" fill="#fafbfc"/>
        <path d="m310.076 587.733h20.6717v20.6717h-20.6717z" fill="#fafbfc"/>
        <path d="m310.076 463.703h20.6717v20.6717h-20.6717z" fill="#fafbfc"/>
        <path d="m496.119 742.771h20.6717v20.6717h-20.6717z" fill="#fafbfc"/>
        <path d="m496.119 804.786h20.6717v20.6717h-20.6717z" fill="#fafbfc"/>
        <path d="m496.119 680.757h20.6717v20.6717h-20.6717z" fill="#fafbfc"/>
        <path d="m496.119 773.779h20.6717v20.6717h-20.6717z" fill="#fafbfc"/>
        <path d="m496.119 649.748h20.6717v20.6717h-20.6717z" fill="#fafbfc"/>
        <path d="m496.119 711.765h20.6717v20.6717h-20.6717z" fill="#fafbfc"/>
        <path d="m868.209 1114.86h20.6717v20.6717h-20.6717z" fill="#fafbfc"/>
        <path d="m868.209 1145.87h20.6717v20.6717h-20.6717z" fill="#fafbfc"/>
        <path d="m248.061 246.651h20.6717v20.6717h-20.6717z" fill="#fafbfc"/>
        <path d="m248.061 742.771h20.6717v20.6717h-20.6717z" fill="#fafbfc"/>
        <path d="m248.061 494.711h20.6717v20.6717h-20.6717z" fill="#fafbfc"/>
        <path d="m248.061 370.681h20.6717v20.6717h-20.6717z" fill="#fafbfc"/>
        <path d="m248.061 618.741h20.6717v20.6717h-20.6717z" fill="#fafbfc"/>
        <path d="m248.061 804.786h20.6717v20.6717h-20.6717z" fill="#e1e4e8"/>
        <path d="m248.061 556.726h20.6717v20.6717h-20.6717z" fill="#f3f4f6"/>
        <path d="m248.061 432.696h20.6717v20.6717h-20.6717z" fill="#fafbfc"/>
        <path d="m248.061 277.658h20.6717v20.6717h-20.6717z" fill="#fafbfc"/>
        <path d="m248.061 773.779h20.6717v20.6717h-20.6717z" fill="#fafbfc"/>
        <path d="m248.061 525.719h20.6717v20.6717h-20.6717z" fill="#fafbfc"/>
        <path d="m248.061 401.689h20.6717v20.6717h-20.6717z" fill="#fafbfc"/>
        <path d="m248.061 339.674h20.6717v20.6717h-20.6717z" fill="#fafbfc"/>
        <path d="m248.061 835.794h20.6717v20.6717h-20.6717z" fill="#fafbfc"/>
        <path d="m248.061 587.733h20.6717v20.6717h-20.6717z" fill="#f3f4f6"/>
        <path d="m620.15 1114.86h20.6717v20.6717h-20.6717z" fill="#fafbfc"/>
        <path d="m620.15 1176.88h20.6717v20.6717h-20.6717z" fill="#fafbfc"/>
        <path d="m620.15 1145.87h20.6717v20.6717h-20.6717z" fill="#fafbfc"/>
        <path d="m620.15 1083.85h20.6717v20.6717h-20.6717z" fill="#fafbfc"/>
        <path d="m434.105 246.651h20.6717v20.6717h-20.6717z" fill="#fafbfc"/>
        <path d="m434.105 742.771h20.6717v20.6717h-20.6717z" fill="#fafbfc"/>
        <path d="m434.105 494.711h20.6717v20.6717h-20.6717z" fill="#f1f2f2"/>
        <path d="m434.105 990.832h20.6717v20.6717h-20.6717z" fill="#fafbfc"/>
        <path d="m434.105 866.802h20.6717v20.6717h-20.6717z" fill="#fafbfc"/>
        <path d="m434.105 1114.86h20.6717v20.6717h-20.6717z" fill="#fafbfc"/>
        <path d="m434.105 680.757h20.6717v20.6717h-20.6717z" fill="#fafbfc"/>
        <path d="m434.105 277.658h20.6717v20.6717h-20.6717z" fill="#fafbfc"/>
        <path d="m434.105 525.719h20.6717v20.6717h-20.6717z" fill="#fafbfc"/>
        <path d="m434.105 835.794h20.6717v20.6717h-20.6717z" fill="#fafbfc"/>
        <path d="m434.105 1083.85h20.6717v20.6717h-20.6717z" fill="#fafbfc"/>
        <path d="m434.105 711.765h20.6717v20.6717h-20.6717z" fill="#fafbfc"/>
        <path d="m806.195 1114.86h20.6717v20.6717h-20.6717z" fill="#fafbfc"/>
        <path d="m806.195 1176.88h20.6717v20.6717h-20.6717z" fill="#fafbfc"/>
        <path d="m806.195 1083.85h20.6717v20.6717h-20.6717z" fill="#fafbfc"/>
        <path d="m341.084 246.651h20.6717v20.6717h-20.6717z" fill="#fafbfc"/>
        <path d="m341.084 494.711h20.6717v20.6717h-20.6717z" fill="#fafbfc"/>
        <path d="m341.084 308.667h20.6717v20.6717h-20.6717z" fill="#fafbfc"/>
        <path d="m341.084 556.726h20.6717v20.6717h-20.6717z" fill="#fafbfc"/>
        <path d="m341.084 1052.85h20.6717v20.6717h-20.6717z" fill="#fafbfc"/>
        <path d="m341.084 432.696h20.6717v20.6717h-20.6717z" fill="#fafbfc"/>
        <path d="m341.084 680.757h20.6717v20.6717h-20.6717z" fill="#fafbfc"/>
        <path d="m341.084 277.658h20.6717v20.6717h-20.6717z" fill="#fafbfc"/>
        <path d="m341.084 773.779h20.6717v20.6717h-20.6717z" fill="#fafbfc"/>
        <path d="m341.084 525.719h20.6717v20.6717h-20.6717z" fill="#f1f2f2"/>
        <path d="m341.084 401.689h20.6717v20.6717h-20.6717z" fill="#fafbfc"/>
        <g filter="url(#b)">
            <path d="m341.084 370.681h20.6717v20.6717h-20.6717z" fill="url(#k)"/>
        </g>
        <path d="m341.084 339.674h20.6717v20.6717h-20.6717z" fill="#fafbfc"/>
        <path d="m341.084 1083.85h20.6717v20.6717h-20.6717z" fill="#fafbfc"/>
        <path d="m341.084 463.703h20.6717v20.6717h-20.6717z" fill="#fafbfc"/>
        <path d="m341.084 711.765h20.6717v20.6717h-20.6717z" fill="#fafbfc"/>
        <path d="m713.172 1176.88h20.6717v20.6717h-20.6717z" fill="#fafbfc"/>
        <path d="m899.217 1114.86h20.6717v20.6717h-20.6717z" fill="#fafbfc"/>
        <path d="m899.217 1176.88h20.6717v20.6717h-20.6717z" fill="#fafbfc"/>
        <path d="m899.217 1145.87h20.6717v20.6717h-20.6717z" fill="#fafbfc"/>
        <path d="m899.217 1083.85h20.6717v20.6717h-20.6717z" fill="#fafbfc"/>
        <path d="m558.15 1084.88h20.6717v20.6717h-20.6717z" fill="#f9826c"/>
        <path d="m0 0h20.6717v20.6717h-20.6717z" fill="#fafbfc"
              transform="matrix(1 -.00000009 -.00000009 -1 1269.93 1073.52)"/>
        <path d="m0 0h20.6717v20.6717h-20.6717z" fill="#fafbfc"
              transform="matrix(1 -.00000009 -.00000009 -1 1269.93 1135.53)"/>
        <path d="m0 0h20.6717v20.6717h-20.6717z" fill="#fafbfc"
              transform="matrix(1 -.00000009 -.00000009 -1 1083.88 1197.55)"/>
        <path d="m0 0h20.6717v20.6717h-20.6717z" fill="#fafbfc"
              transform="matrix(1 -.00000009 -.00000009 -1 1083.88 1135.53)"/>
        <path d="m0 0h20.6717v20.6717h-20.6717z" fill="#f1f2f2"
              transform="matrix(1 -.00000009 -.00000009 -1 1083.88 1166.54)"/>
        <path d="m0 0h20.6717v20.6717h-20.6717z" fill="#fafbfc"
              transform="matrix(1 -.00000009 -.00000009 -1 1083.88 1104.53)"/>
        <path d="m0 0h20.6717v20.6717h-20.6717z" fill="#fafbfc"
              transform="matrix(1 -.00000009 -.00000009 -1 1455.97 453.37)"/>
        <path d="m0 0h20.6717v20.6717h-20.6717z" fill="#fafbfc"
              transform="matrix(1 -.00000009 -.00000009 -1 1455.97 329.341)"/>
        <path d="m0 0h20.6717v20.6717h-20.6717z" fill="#fafbfc"
              transform="matrix(1 -.00000009 -.00000009 -1 1455.97 639.414)"/>
        <path d="m0 0h20.6717v20.6717h-20.6717z" fill="#fafbfc"
              transform="matrix(1 -.00000009 -.00000009 -1 1455.97 391.354)"/>
        <path d="m0 0h20.6717v20.6717h-20.6717z" fill="#fafbfc"
              transform="matrix(1 -.00000009 -.00000009 -1 1455.97 763.444)"/>
        <path d="m0 0h20.6717v20.6717h-20.6717z" fill="#fafbfc"
              transform="matrix(1 -.00000009 -.00000009 -1 1455.97 267.325)"/>
        <path d="m0 0h20.6717v20.6717h-20.6717z" fill="#fafbfc"
              transform="matrix(1 -.00000009 -.00000009 -1 1455.97 422.362)"/>
        <path d="m0 0h20.6717v20.6717h-20.6717z" fill="#fafbfc"
              transform="matrix(1 -.00000009 -.00000009 -1 1455.97 298.332)"/>
        <path d="m0 0h20.6717v20.6717h-20.6717z" fill="#fafbfc"
              transform="matrix(1 -.00000009 -.00000009 -1 1455.97 608.407)"/>
        <path d="m0 0h20.6717v20.6717h-20.6717z" fill="#f3f4f6"
              transform="matrix(1 -.00000009 -.00000009 -1 1455.97 360.348)"/>
        <path d="m0 0h20.6717v20.6717h-20.6717z" fill="#f3f4f6"
              transform="matrix(1 -.00000009 -.00000009 -1 1455.97 732.437)"/>
        <path d="m0 0h20.6717v20.6717h-20.6717z" fill="#f3f4f6"
              transform="matrix(1 -.00000009 -.00000009 -1 1424.97 732.437)"/>
        <path d="m0 0h20.6717v20.6717h-20.6717z" fill="#fafbfc"
              transform="matrix(1 -.00000009 -.00000009 -1 990.861 1135.53)"/>
        <path d="m0 0h20.6717v20.6717h-20.6717z" fill="#fafbfc"
              transform="matrix(1 -.00000009 -.00000009 -1 990.861 1104.53)"/>
        <path d="m0 0h20.6717v20.6717h-20.6717z" fill="#f1f2f2"
              transform="matrix(1 -.00000009 -.00000009 -1 1362.95 1073.52)"/>
        <path d="m0 0h20.6717v20.6717h-20.6717z" fill="#fafbfc"
              transform="matrix(1 -.00000009 -.00000009 -1 1362.95 577.399)"/>
        <path d="m0 0h20.6717v20.6717h-20.6717z" fill="#fafbfc"
              transform="matrix(1 -.00000009 -.00000009 -1 1362.95 639.414)"/>
        <path d="m0 0h20.6717v20.6717h-20.6717z" fill="#fafbfc"
              transform="matrix(1 -.00000009 -.00000009 -1 1362.95 391.354)"/>
        <path d="m0 0h20.6717v20.6717h-20.6717z" fill="#fafbfc"
              transform="matrix(1 -.00000009 -.00000009 -1 1362.95 515.385)"/>
        <path d="m0 0h20.6717v20.6717h-20.6717z" fill="#fafbfc"
              transform="matrix(1 -.00000009 -.00000009 -1 1362.95 763.444)"/>
        <path d="m0 0h20.6717v20.6717h-20.6717z" fill="#fafbfc"
              transform="matrix(1 -.00000009 -.00000009 -1 1362.95 1166.54)"/>
        <path d="m0 0h20.6717v20.6717h-20.6717z" fill="#fafbfc"
              transform="matrix(1 -.00000009 -.00000009 -1 1362.95 670.422)"/>
        <path d="m0 0h20.6717v20.6717h-20.6717z" fill="#fafbfc"
              transform="matrix(1 -.00000009 -.00000009 -1 1362.95 918.482)"/>
        <path d="m0 0h20.6717v20.6717h-20.6717z" fill="#fafbfc"
              transform="matrix(1 -.00000009 -.00000009 -1 1362.95 1042.51)"/>
        <path d="m0 0h20.6717v20.6717h-20.6717z" fill="#fafbfc"
              transform="matrix(1 -.00000009 -.00000009 -1 1362.95 546.392)"/>
        <path d="m0 0h20.6717v20.6717h-20.6717z" fill="#fafbfc"
              transform="matrix(1 -.00000009 -.00000009 -1 1362.95 608.407)"/>
        <path d="m0 0h20.6717v20.6717h-20.6717z" fill="#fafbfc"
              transform="matrix(1 -.00000009 -.00000009 -1 1362.95 856.466)"/>
        <path d="m0 0h20.6717v20.6717h-20.6717z" fill="#fafbfc"
              transform="matrix(1 -.00000009 -.00000009 -1 1423.95 886.466)"/>
        <path d="m0 0h20.6717v20.6717h-20.6717z" fill="#fafbfc"
              transform="matrix(1 -.00000009 -.00000009 -1 1518.95 856.466)"/>
        <path d="m0 0h20.6717v20.6717h-20.6717z" fill="#fafbfc"
              transform="matrix(1 -.00000009 -.00000009 -1 1362.95 980.498)"/>
        <path d="m0 0h20.6717v20.6717h-20.6717z" fill="#fafbfc"
              transform="matrix(1 -.00000009 -.00000009 -1 1362.95 732.437)"/>
        <path d="m0 0h20.6717v20.6717h-20.6717z" fill="#fafbfc"
              transform="matrix(1 -.00000009 -.00000009 -1 1176.91 1197.55)"/>
        <path d="m0 0h20.6717v20.6717h-20.6717z" fill="#fafbfc"
              transform="matrix(1 -.00000009 -.00000009 -1 1176.91 1073.52)"/>
        <path d="m0 0h20.6717v20.6717h-20.6717z" fill="#fafbfc"
              transform="matrix(1 -.00000009 -.00000009 -1 1176.91 1104.53)"/>
        <path d="m0 0h20.6717v20.6717h-20.6717z" fill="#e1e4e8"
              transform="matrix(1 -.00000009 -.00000009 -1 1549 453.37)"/>
        <path d="m0 0h20.6717v20.6717h-20.6717z" fill="#fafbfc"
              transform="matrix(1 -.00000009 -.00000009 -1 1549 577.399)"/>
        <path d="m0 0h20.6717v20.6717h-20.6717z" fill="#fafbfc"
              transform="matrix(1 -.00000009 -.00000009 -1 1549 329.341)"/>
        <path d="m0 0h20.6717v20.6717h-20.6717z" fill="#fafbfc"
              transform="matrix(1 -.00000009 -.00000009 -1 1549 639.414)"/>
        <path d="m0 0h20.6717v20.6717h-20.6717z" fill="#fafbfc"
              transform="matrix(1 -.00000009 -.00000009 -1 1549 391.354)"/>
        <path d="m0 0h20.6717v20.6717h-20.6717z" fill="#fafbfc"
              transform="matrix(1 -.00000009 -.00000009 -1 1549 515.385)"/>
        <path d="m0 0h20.6717v20.6717h-20.6717z" fill="#fafbfc"
              transform="matrix(1 -.00000009 -.00000009 -1 1549 763.444)"/>
        <path d="m0 0h20.6717v20.6717h-20.6717z" fill="#fafbfc"
              transform="matrix(1 -.00000009 -.00000009 -1 1549 670.422)"/>
        <path d="m0 0h20.6717v20.6717h-20.6717z" fill="#fafbfc"
              transform="matrix(1 -.00000009 -.00000009 -1 1549 422.362)"/>
        <path d="m0 0h20.6717v20.6717h-20.6717z" fill="#fafbfc"
              transform="matrix(1 -.00000009 -.00000009 -1 1549 298.332)"/>
        <path d="m0 0h20.6717v20.6717h-20.6717z" fill="#fafbfc"
              transform="matrix(1 -.00000009 -.00000009 -1 1549 608.407)"/>
        <path d="m0 0h20.6717v20.6717h-20.6717z" fill="#fafbfc"
              transform="matrix(1 -.00000009 -.00000009 -1 1549 360.348)"/>
        <path d="m0 0h20.6717v20.6717h-20.6717z" fill="#fafbfc"
              transform="matrix(1 -.00000009 -.00000009 -1 1549 484.377)"/>
        <path d="m0 0h20.6717v20.6717h-20.6717z" fill="#fafbfc"
              transform="matrix(1 -.00000009 -.00000009 -1 1300.94 701.43)"/>
        <path d="m0 0h20.6717v20.6717h-20.6717z" fill="#fafbfc"
              transform="matrix(1 -.00000009 -.00000009 -1 1300.94 949.49)"/>
        <path d="m0 0h20.6717v20.6717h-20.6717z" fill="#fafbfc"
              transform="matrix(1 -.00000009 -.00000009 -1 1300.94 1073.52)"/>
        <path d="m0 0h20.6717v20.6717h-20.6717z" fill="#fafbfc"
              transform="matrix(1 -.00000009 -.00000009 -1 1300.94 577.399)"/>
        <path d="m0 0h20.6717v20.6717h-20.6717z" fill="#fafbfc"
              transform="matrix(1 -.00000009 -.00000009 -1 1300.94 1135.53)"/>
        <path d="m0 0h20.6717v20.6717h-20.6717z" fill="#fafbfc"
              transform="matrix(1 -.00000009 -.00000009 -1 1300.94 639.414)"/>
        <path d="m0 0h20.6717v20.6717h-20.6717z" fill="#fafbfc"
              transform="matrix(1 -.00000009 -.00000009 -1 1300.94 1011.5)"/>
        <path d="m0 0h20.6717v20.6717h-20.6717z" fill="#fafbfc"
              transform="matrix(1 -.00000009 -.00000009 -1 1300.94 670.422)"/>
        <path d="m0 0h20.6717v20.6717h-20.6717z" fill="#fafbfc"
              transform="matrix(1 -.00000009 -.00000009 -1 1300.94 1042.51)"/>
        <path d="m0 0h20.6717v20.6717h-20.6717z" fill="#fafbfc"
              transform="matrix(1 -.00000009 -.00000009 -1 1300.94 608.407)"/>
        <path d="m0 0h20.6717v20.6717h-20.6717z" fill="#fafbfc"
              transform="matrix(1 -.00000009 -.00000009 -1 1300.94 856.466)"/>
        <path d="m0 0h20.6717v20.6717h-20.6717z" fill="#fafbfc"
              transform="matrix(1 -.00000009 -.00000009 -1 1114.89 1197.55)"/>
        <path d="m0 0h20.6717v20.6717h-20.6717z" fill="#fafbfc"
              transform="matrix(1 -.00000009 -.00000009 -1 1114.89 1135.53)"/>
        <path d="m0 0h20.6717v20.6717h-20.6717z" fill="#fafbfc"
              transform="matrix(1 -.00000009 -.00000009 -1 1114.89 1104.53)"/>
        <path d="m0 0h20.6717v20.6717h-20.6717z" fill="#fafbfc"
              transform="matrix(1 -.00000009 -.00000009 -1 1486.98 577.399)"/>
        <path d="m0 0h20.6717v20.6717h-20.6717z" fill="#fafbfc"
              transform="matrix(1 -.00000009 -.00000009 -1 1486.98 329.341)"/>
        <path d="m0 0h20.6717v20.6717h-20.6717z" fill="#fafbfc"
              transform="matrix(1 -.00000009 -.00000009 -1 1486.98 391.354)"/>
        <path d="m0 0h20.6717v20.6717h-20.6717z" fill="#fafbfc"
              transform="matrix(1 -.00000009 -.00000009 -1 1486.98 763.444)"/>
        <path d="m0 0h20.6717v20.6717h-20.6717z" fill="#f3f4f6"
              transform="matrix(1 -.00000009 -.00000009 -1 1548.97 856.437)"/>
        <path d="m0 0h20.6717v20.6717h-20.6717z" fill="#fafbfc"
              transform="matrix(1 -.00000009 -.00000009 -1 1579.98 887.444)"/>
        <path d="m0 0h20.6717v20.6717h-20.6717z" fill="#fafbfc"
              transform="matrix(1 -.00000009 -.00000009 -1 1486.98 267.325)"/>
        <path d="m0 0h20.6717v20.6717h-20.6717z" fill="#fafbfc"
              transform="matrix(1 -.00000009 -.00000009 -1 1486.98 422.362)"/>
        <path d="m0 0h20.6717v20.6717h-20.6717z" fill="#fafbfc"
              transform="matrix(1 -.00000009 -.00000009 -1 1486.98 546.392)"/>
        <path d="m0 0h20.6717v20.6717h-20.6717z" fill="#fafbfc"
              transform="matrix(1 -.00000009 -.00000009 -1 1486.98 298.332)"/>
        <path d="m0 0h20.6717v20.6717h-20.6717z" fill="#fafbfc"
              transform="matrix(1 -.00000009 -.00000009 -1 1486.98 608.407)"/>
        <path d="m0 0h20.6717v20.6717h-20.6717z" fill="#fafbfc"
              transform="matrix(1 -.00000009 -.00000009 -1 1486.98 360.348)"/>
        <path d="m0 0h20.6717v20.6717h-20.6717z" fill="#fafbfc"
              transform="matrix(1 -.00000009 -.00000009 -1 1486.98 732.437)"/>
        <path d="m0 0h20.6717v20.6717h-20.6717z" fill="#fafbfc"
              transform="matrix(1 -.00000009 -.00000009 -1 1021.87 1197.55)"/>
        <path d="m0 0h20.6717v20.6717h-20.6717z" fill="#fafbfc"
              transform="matrix(1 -.00000009 -.00000009 -1 1021.87 1135.53)"/>
        <path d="m0 0h20.6717v20.6717h-20.6717z" fill="#fafbfc"
              transform="matrix(1 -.00000009 -.00000009 -1 1021.87 1166.54)"/>
        <path d="m0 0h20.6717v20.6717h-20.6717z" fill="#fafbfc"
              transform="matrix(1 -.00000009 -.00000009 -1 1021.87 1104.53)"/>
        <path d="m0 0h20.6717v20.6717h-20.6717z" fill="#fafbfc"
              transform="matrix(1 -.00000009 -.00000009 -1 1393.96 453.37)"/>
        <path d="m0 0h20.6717v20.6717h-20.6717z" fill="#fafbfc"
              transform="matrix(1 -.00000009 -.00000009 -1 1393.96 639.414)"/>
        <path d="m0 0h20.6717v20.6717h-20.6717z" fill="#f3f4f6"
              transform="matrix(1 -.00000009 -.00000009 -1 1393.96 391.354)"/>
        <path d="m0 0h20.6717v20.6717h-20.6717z" fill="#fafbfc"
              transform="matrix(1 -.00000009 -.00000009 -1 1393.96 515.385)"/>
        <path d="m0 0h20.6717v20.6717h-20.6717z" fill="#fafbfc"
              transform="matrix(1 -.00000009 -.00000009 -1 1393.96 763.444)"/>
        <path d="m0 0h20.6717v20.6717h-20.6717z" fill="#fafbfc"
              transform="matrix(1 -.00000009 -.00000009 -1 1393.96 422.362)"/>
        <path d="m0 0h20.6717v20.6717h-20.6717z" fill="#fafbfc"
              transform="matrix(1 -.00000009 -.00000009 -1 1393.96 546.392)"/>
        <path d="m0 0h20.6717v20.6717h-20.6717z" fill="#fafbfc"
              transform="matrix(1 -.00000009 -.00000009 -1 1393.96 732.437)"/>
        <path d="m0 0h20.6717v20.6717h-20.6717z" fill="#fafbfc"
              transform="matrix(1 -.00000009 -.00000009 -1 1207.91 1197.55)"/>
        <path d="m0 0h20.6717v20.6717h-20.6717z" fill="#fafbfc"
              transform="matrix(1 -.00000009 -.00000009 -1 1207.91 1073.52)"/>
        <path d="m0 0h20.6717v20.6717h-20.6717z" fill="#fafbfc"
              transform="matrix(1 -.00000009 -.00000009 -1 1207.91 1104.53)"/>
        <path d="m0 0h20.6717v20.6717h-20.6717z" fill="#fafbfc"
              transform="matrix(1 -.00000009 -.00000009 -1 1580 577.399)"/>
        <path d="m0 0h20.6717v20.6717h-20.6717z" fill="#fafbfc"
              transform="matrix(1 -.00000009 -.00000009 -1 1580 329.341)"/>
        <path d="m0 0h20.6717v20.6717h-20.6717z" fill="#fafbfc"
              transform="matrix(1 -.00000009 -.00000009 -1 1580 391.354)"/>
        <path d="m0 0h20.6717v20.6717h-20.6717z" fill="#fafbfc"
              transform="matrix(1 -.00000009 -.00000009 -1 1580 515.385)"/>
        <path d="m0 0h20.6717v20.6717h-20.6717z" fill="#fafbfc"
              transform="matrix(1 -.00000009 -.00000009 -1 1580 267.325)"/>
        <path d="m0 0h20.6717v20.6717h-20.6717z" fill="#fafbfc"
              transform="matrix(1 -.00000009 -.00000009 -1 1580 422.362)"/>
        <path d="m0 0h20.6717v20.6717h-20.6717z" fill="#fafbfc"
              transform="matrix(1 -.00000009 -.00000009 -1 1580 546.392)"/>
        <path d="m0 0h20.6717v20.6717h-20.6717z" fill="#fafbfc"
              transform="matrix(1 -.00000009 -.00000009 -1 1580 298.332)"/>
        <path d="m0 0h20.6717v20.6717h-20.6717z" fill="#57dd82"
              transform="matrix(1 -.00000009 -.00000009 -1 1549 360.332)"/>
        <path d="m0 0h20.6717v20.6717h-20.6717z" fill="#fafbfc"
              transform="matrix(1 -.00000009 -.00000009 -1 1580 484.377)"/>
        <path d="m0 0h20.6717v20.6717h-20.6717z" fill="#f1f2f2"
              transform="matrix(1 -.00000009 -.00000009 -1 959.854 1135.53)"/>
        <path d="m0 0h20.6717v20.6717h-20.6717z" fill="#fafbfc"
              transform="matrix(1 -.00000009 -.00000009 -1 959.854 1104.53)"/>
        <path d="m0 0h20.6717v20.6717h-20.6717z" fill="#fafbfc"
              transform="matrix(1 -.00000009 -.00000009 -1 1331.94 701.43)"/>
        <path d="m0 0h20.6717v20.6717h-20.6717z" fill="#fafbfc"
              transform="matrix(1 -.00000009 -.00000009 -1 1331.94 1073.52)"/>
        <path d="m0 0h20.6717v20.6717h-20.6717z" fill="#fafbfc"
              transform="matrix(1 -.00000009 -.00000009 -1 1331.95 887.476)"/>
        <path d="m0 0h20.6717v20.6717h-20.6717z" fill="#fafbfc"
              transform="matrix(1 -.00000009 -.00000009 -1 1331.94 1011.5)"/>
        <path d="m0 0h20.6717v20.6717h-20.6717z" fill="#fafbfc"
              transform="matrix(1 -.00000009 -.00000009 -1 1331.94 763.444)"/>
        <path d="m0 0h20.6717v20.6717h-20.6717z" fill="#fafbfc"
              transform="matrix(1 -.00000009 -.00000009 -1 1331.94 670.422)"/>
        <path d="m0 0h20.6717v20.6717h-20.6717z" fill="#fafbfc"
              transform="matrix(1 -.00000009 -.00000009 -1 1331.95 918.482)"/>
        <path d="m0 0h20.6717v20.6717h-20.6717z" fill="#fafbfc"
              transform="matrix(1 -.00000009 -.00000009 -1 1331.94 422.362)"/>
        <path d="m0 0h20.6717v20.6717h-20.6717z" fill="#fafbfc"
              transform="matrix(1 -.00000009 -.00000009 -1 1331.95 546.392)"/>
        <path d="m0 0h20.6717v20.6717h-20.6717z" fill="#f3f4f6"
              transform="matrix(1 -.00000009 -.00000009 -1 1331.94 1104.53)"/>
        <path d="m0 0h20.6717v20.6717h-20.6717z" fill="#fafbfc"
              transform="matrix(1 -.00000009 -.00000009 -1 1331.95 856.466)"/>
        <path d="m0 0h20.6717v20.6717h-20.6717z" fill="#fafbfc"
              transform="matrix(1 -.00000009 -.00000009 -1 1145.9 1197.55)"/>
        <path d="m0 0h20.6717v20.6717h-20.6717z" fill="#fafbfc"
              transform="matrix(1 -.00000009 -.00000009 -1 1145.9 1135.53)"/>
        <path d="m0 0h20.6717v20.6717h-20.6717z" fill="#fafbfc"
              transform="matrix(1 -.00000009 -.00000009 -1 1145.9 1104.53)"/>
        <path d="m0 0h20.6717v20.6717h-20.6717z" fill="#fafbfc"
              transform="matrix(1 -.00000009 -.00000009 -1 1517.99 453.37)"/>
        <path d="m0 0h20.6717v20.6717h-20.6717z" fill="#f3f4f6"
              transform="matrix(1 -.00000009 -.00000009 -1 1517.99 577.399)"/>
        <path d="m0 0h20.6717v20.6717h-20.6717z" fill="#fafbfc"
              transform="matrix(1 -.00000009 -.00000009 -1 1517.99 329.341)"/>
        <path d="m0 0h20.6717v20.6717h-20.6717z" fill="#fafbfc"
              transform="matrix(1 -.00000009 -.00000009 -1 1517.99 639.414)"/>
        <path d="m0 0h20.6717v20.6717h-20.6717z" fill="#f1f2f2"
              transform="matrix(1 -.00000009 -.00000009 -1 1517.99 391.354)"/>
        <path d="m0 0h20.6717v20.6717h-20.6717z" fill="#fafbfc"
              transform="matrix(1 -.00000009 -.00000009 -1 1517.99 763.444)"/>
        <path d="m0 0h20.6717v20.6717h-20.6717z" fill="#fafbfc"
              transform="matrix(1 -.00000009 -.00000009 -1 1517.99 267.325)"/>
        <path d="m0 0h20.6717v20.6717h-20.6717z" fill="#fafbfc"
              transform="matrix(1 -.00000009 -.00000009 -1 1517.99 670.422)"/>
        <path d="m0 0h20.6717v20.6717h-20.6717z" fill="#fafbfc"
              transform="matrix(1 -.00000009 -.00000009 -1 1517.99 422.362)"/>
        <path d="m0 0h20.6717v20.6717h-20.6717z" fill="#fafbfc"
              transform="matrix(1 -.00000009 -.00000009 -1 1517.99 546.392)"/>
        <path d="m0 0h20.6717v20.6717h-20.6717z" fill="#fafbfc"
              transform="matrix(1 -.00000009 -.00000009 -1 1517.99 298.332)"/>
        <path d="m0 0h20.6717v20.6717h-20.6717z" fill="#fafbfc"
              transform="matrix(1 -.00000009 -.00000009 -1 1517.99 608.407)"/>
        <path d="m0 0h20.6717v20.6717h-20.6717z" fill="#fafbfc"
              transform="matrix(1 -.00000009 -.00000009 -1 1517.99 360.348)"/>
        <path d="m0 0h20.6717v20.6717h-20.6717z" fill="#fafbfc"
              transform="matrix(1 -.00000009 -.00000009 -1 1052.88 1197.55)"/>
        <path d="m0 0h20.6717v20.6717h-20.6717z" fill="#fafbfc"
              transform="matrix(1 -.00000009 -.00000009 -1 1052.88 1135.53)"/>
        <path d="m0 0h20.6717v20.6717h-20.6717z" fill="#fafbfc"
              transform="matrix(1 -.00000009 -.00000009 -1 1052.88 1166.54)"/>
        <g filter="url(#c)">
            <path d="m0 0h20.6717v20.6717h-20.6717z" fill="url(#l)"
                  transform="matrix(1 -.00000009 -.00000009 -1 1052.88 1197.52)"/>
        </g>
        <path d="m0 0h20.6717v20.6717h-20.6717z" fill="#fafbfc"
              transform="matrix(1 -.00000009 -.00000009 -1 1052.88 1104.53)"/>
        <path d="m0 0h20.6717v20.6717h-20.6717z" fill="#fafbfc"
              transform="matrix(1 -.00000009 -.00000009 -1 1424.97 701.43)"/>
        <path d="m0 0h20.6717v20.6717h-20.6717z" fill="#fafbfc"
              transform="matrix(1 -.00000009 -.00000009 -1 1424.97 453.37)"/>
        <path d="m0 0h20.6717v20.6717h-20.6717z" fill="#fafbfc"
              transform="matrix(1 -.00000009 -.00000009 -1 1424.97 577.399)"/>
        <path d="m0 0h20.6717v20.6717h-20.6717z" fill="#fafbfc"
              transform="matrix(1 -.00000009 -.00000009 -1 1424.97 329.341)"/>
        <path d="m0 0h20.6717v20.6717h-20.6717z" fill="#fafbfc"
              transform="matrix(1 -.00000009 -.00000009 -1 1424.97 639.414)"/>
        <path d="m0 0h20.6717v20.6717h-20.6717z" fill="#fafbfc"
              transform="matrix(1 -.00000009 -.00000009 -1 1424.97 391.354)"/>
        <path d="m0 0h20.6717v20.6717h-20.6717z" fill="#fafbfc"
              transform="matrix(1 -.00000009 -.00000009 -1 1424.97 763.444)"/>
        <path d="m0 0h20.6717v20.6717h-20.6717z" fill="#fafbfc"
              transform="matrix(1 -.00000009 -.00000009 -1 1424.97 267.325)"/>
        <path d="m0 0h20.6717v20.6717h-20.6717z" fill="#fafbfc"
              transform="matrix(1 -.00000009 -.00000009 -1 1424.97 670.422)"/>
        <path d="m0 0h20.6717v20.6717h-20.6717z" fill="#f3f4f6"
              transform="matrix(1 -.00000009 -.00000009 -1 1424.97 422.362)"/>
        <g fill="#fafbfc">
            <path d="m0 0h20.6717v20.6717h-20.6717z" transform="matrix(1 -.00000009 -.00000009 -1 1424.97 298.332)"/>
            <path d="m0 0h20.6717v20.6717h-20.6717z" transform="matrix(1 -.00000009 -.00000009 -1 1424.97 360.348)"/>
            <path d="m0 0h20.6717v20.6717h-20.6717z" transform="matrix(1 -.00000009 -.00000009 -1 1424.97 484.377)"/>
            <path d="m0 0h20.6717v20.6717h-20.6717z" transform="matrix(1 -.00000009 -.00000009 -1 1238.92 1073.52)"/>
            <path d="m0 0h20.6717v20.6717h-20.6717z" transform="matrix(1 -.00000009 -.00000009 -1 1238.92 1104.53)"/>
            <path d="m0 0h20.6717v20.6717h-20.6717z" transform="matrix(1 -.00000009 -.00000009 -1 1611.01 453.37)"/>
            <path d="m0 0h20.6717v20.6717h-20.6717z" transform="matrix(1 -.00000009 -.00000009 -1 1611.01 329.341)"/>
            <path d="m0 0h20.6717v20.6717h-20.6717z" transform="matrix(1 -.00000009 -.00000009 -1 1611.01 391.354)"/>
            <path d="m0 0h20.6717v20.6717h-20.6717z" transform="matrix(1 -.00000009 -.00000009 -1 1611.01 422.362)"/>
            <path d="m0 0h20.6717v20.6717h-20.6717z" transform="matrix(1 -.00000009 -.00000009 -1 1611.01 298.332)"/>
            <path d="m0 0h20.6717v20.6717h-20.6717z" transform="matrix(1 -.00000009 -.00000009 -1 1611.01 608.407)"/>
            <path d="m0 0h20.6717v20.6717h-20.6717z" transform="matrix(1 -.00000009 -.00000009 -1 1611.01 484.377)"/>
            <path d="m0 0h20.6717v20.6717h-20.6717z" transform="matrix(1 -.00000009 -.00000009 -1 1642.02 577.399)"/>
            <path d="m0 0h20.6717v20.6717h-20.6717z" transform="matrix(1 -.00000009 -.00000009 -1 1642.02 329.341)"/>
            <path d="m0 0h20.6717v20.6717h-20.6717z" transform="matrix(1 -.00000009 -.00000009 -1 1642.02 391.354)"/>
            <path d="m0 0h20.6717v20.6717h-20.6717z" transform="matrix(1 -.00000009 -.00000009 -1 1642.02 267.325)"/>
            <path d="m0 0h20.6717v20.6717h-20.6717z" transform="matrix(1 -.00000009 -.00000009 -1 1642.02 298.332)"/>
            <path d="m0 0h20.6717v20.6717h-20.6717z" transform="matrix(1 -.00000009 -.00000009 -1 1642.02 360.348)"/>
            <path d="m0 0h20.6717v20.6717h-20.6717z" transform="matrix(1 -.00000009 -.00000009 -1 1642.02 484.377)"/>
            <path d="m0 0h20.6717v20.6717h-20.6717z" transform="matrix(1 -.00000009 -.00000009 -1 1828.06 577.399)"/>
            <path d="m0 0h20.6717v20.6717h-20.6717z" transform="matrix(1 -.00000009 -.00000009 -1 1828.06 639.414)"/>
            <path d="m0 0h20.6717v20.6717h-20.6717z" transform="matrix(1 -.00000009 -.00000009 -1 1828.06 763.444)"/>
            <path d="m0 0h20.6717v20.6717h-20.6717z" transform="matrix(1 -.00000009 -.00000009 -1 1828.06 794.452)"/>
            <path d="m0 0h20.6717v20.6717h-20.6717z" transform="matrix(1 -.00000009 -.00000009 -1 1828.06 856.466)"/>
            <path d="m0 0h20.6717v20.6717h-20.6717z" transform="matrix(1 -.00000009 -.00000009 -1 1828.06 732.437)"/>
            <path d="m0 0h20.6717v20.6717h-20.6717z" transform="matrix(1 -.00000009 -.00000009 -1 1735.04 577.399)"/>
            <path d="m0 0h20.6717v20.6717h-20.6717z" transform="matrix(1 -.00000009 -.00000009 -1 1735.04 329.341)"/>
            <path d="m0 0h20.6717v20.6717h-20.6717z" transform="matrix(1 -.00000009 -.00000009 -1 1735.04 639.414)"/>
            <path d="m0 0h20.6717v20.6717h-20.6717z" transform="matrix(1 -.00000009 -.00000009 -1 1735.04 391.354)"/>
            <path d="m0 0h20.6717v20.6717h-20.6717z" transform="matrix(1 -.00000009 -.00000009 -1 1735.04 267.325)"/>
            <path d="m0 0h20.6717v20.6717h-20.6717z" transform="matrix(1 -.00000009 -.00000009 -1 1735.04 670.422)"/>
            <path d="m0 0h20.6717v20.6717h-20.6717z" transform="matrix(1 -.00000009 -.00000009 -1 1735.04 484.377)"/>
            <path d="m0 0h20.6717v20.6717h-20.6717z" transform="matrix(1 -.00000009 -.00000009 -1 1673.03 701.43)"/>
            <path d="m0 0h20.6717v20.6717h-20.6717z" transform="matrix(1 -.00000009 -.00000009 -1 1673.03 577.399)"/>
            <path d="m0 0h20.6717v20.6717h-20.6717z" transform="matrix(1 -.00000009 -.00000009 -1 1673.03 329.341)"/>
            <path d="m0 0h20.6717v20.6717h-20.6717z" transform="matrix(1 -.00000009 -.00000009 -1 1673.03 639.414)"/>
            <path d="m0 0h20.6717v20.6717h-20.6717z" transform="matrix(1 -.00000009 -.00000009 -1 1673.03 515.385)"/>
            <path d="m0 0h20.6717v20.6717h-20.6717z" transform="matrix(1 -.00000009 -.00000009 -1 1673.03 267.325)"/>
            <path d="m0 0h20.6717v20.6717h-20.6717z" transform="matrix(1 -.00000009 -.00000009 -1 1673.03 670.422)"/>
            <path d="m0 0h20.6717v20.6717h-20.6717z" transform="matrix(1 -.00000009 -.00000009 -1 1673.03 422.362)"/>
        </g>
        <g filter="url(#d)">
            <path d="m0 0h20.6717v20.6717h-20.6717z" fill="url(#m)"
                  transform="matrix(1 -.00000009 -.00000009 -1 1828.06 763.444)"/>
        </g>
        <path d="m0 0h20.6717v20.6717h-20.6717z" fill="#fafbfc"
              transform="matrix(1 -.00000009 -.00000009 -1 1673.03 608.407)"/>
        <path d="m0 0h20.6717v20.6717h-20.6717z" fill="#fafbfc"
              transform="matrix(1 -.00000009 -.00000009 -1 1859.07 701.43)"/>
        <path d="m0 0h20.6717v20.6717h-20.6717z" fill="#fafbfc"
              transform="matrix(1 -.00000009 -.00000009 -1 1859.07 577.399)"/>
        <path d="m0 0h20.6717v20.6717h-20.6717z" fill="#fafbfc"
              transform="matrix(1 -.00000009 -.00000009 -1 1859.07 887.476)"/>
        <path d="m0 0h20.6717v20.6717h-20.6717z" fill="#fafbfc"
              transform="matrix(1 -.00000009 -.00000009 -1 1859.07 763.444)"/>
        <path d="m0 0h20.6717v20.6717h-20.6717z" fill="#f3f4f6"
              transform="matrix(1 -.00000009 -.00000009 -1 1859.07 670.422)"/>
        <path d="m0 0h20.6717v20.6717h-20.6717z" fill="#fafbfc"
              transform="matrix(1 -.00000009 -.00000009 -1 1859.07 794.452)"/>
        <path d="m0 0h20.6717v20.6717h-20.6717z" fill="#fafbfc"
              transform="matrix(1 -.00000009 -.00000009 -1 1859.07 856.466)"/>
        <path d="m0 0h20.6717v20.6717h-20.6717z" fill="#fafbfc"
              transform="matrix(1 -.00000009 -.00000009 -1 1766.05 577.399)"/>
        <path d="m0 0h20.6717v20.6717h-20.6717z" fill="#fafbfc"
              transform="matrix(1 -.00000009 -.00000009 -1 1766.05 825.459)"/>
        <path d="m0 0h20.6717v20.6717h-20.6717z" fill="#fafbfc"
              transform="matrix(1 -.00000009 -.00000009 -1 1766.05 763.444)"/>
        <path d="m0 0h20.6717v20.6717h-20.6717z" fill="#fafbfc"
              transform="matrix(1 -.00000009 -.00000009 -1 1766.05 670.422)"/>
        <path d="m0 0h20.6717v20.6717h-20.6717z" fill="#fafbfc"
              transform="matrix(1 -.00000009 -.00000009 -1 1766.05 794.452)"/>
        <path d="m0 0h20.6717v20.6717h-20.6717z" fill="#fafbfc"
              transform="matrix(1 -.00000009 -.00000009 -1 1766.05 732.437)"/>
        <path d="m0 0h20.6717v20.6717h-20.6717z" fill="#fafbfc"
              transform="matrix(1 -.00000009 -.00000009 -1 1704.03 701.43)"/>
        <path d="m0 0h20.6717v20.6717h-20.6717z" fill="#fafbfc"
              transform="matrix(1 -.00000009 -.00000009 -1 1704.03 453.37)"/>
        <path d="m0 0h20.6717v20.6717h-20.6717z" fill="#fafbfc"
              transform="matrix(1 -.00000009 -.00000009 -1 1704.03 825.459)"/>
        <path d="m0 0h20.6717v20.6717h-20.6717z" fill="#fafbfc"
              transform="matrix(1 -.00000009 -.00000009 -1 1704.03 329.341)"/>
        <path d="m0 0h20.6717v20.6717h-20.6717z" fill="#e1e4e8"
              transform="matrix(1 -.00000009 -.00000009 -1 1704.03 639.414)"/>
        <path d="m0 0h20.6717v20.6717h-20.6717z" fill="#fafbfc"
              transform="matrix(1 -.00000009 -.00000009 -1 1704.03 391.354)"/>
        <path d="m0 0h20.6717v20.6717h-20.6717z" fill="#fafbfc"
              transform="matrix(1 -.00000009 -.00000009 -1 1704.03 515.385)"/>
        <path d="m0 0h20.6717v20.6717h-20.6717z" fill="#e1e4e8"
              transform="matrix(1 -.00000009 -.00000009 -1 1704.03 267.325)"/>
        <path d="m0 0h20.6717v20.6717h-20.6717z" fill="#fafbfc"
              transform="matrix(1 -.00000009 -.00000009 -1 1704.03 670.422)"/>
        <path d="m0 0h20.6717v20.6717h-20.6717z" fill="#fafbfc"
              transform="matrix(1 -.00000009 -.00000009 -1 1704.03 422.362)"/>
        <path d="m0 0h20.6717v20.6717h-20.6717z" fill="#fafbfc"
              transform="matrix(1 -.00000009 -.00000009 -1 1704.03 546.392)"/>
        <path d="m0 0h20.6717v20.6717h-20.6717z" fill="#fafbfc"
              transform="matrix(1 -.00000009 -.00000009 -1 1704.03 298.332)"/>
        <path d="m0 0h20.6717v20.6717h-20.6717z" fill="#fafbfc"
              transform="matrix(1 -.00000009 -.00000009 -1 1704.03 608.407)"/>
        <path d="m0 0h20.6717v20.6717h-20.6717z" fill="#fafbfc"
              transform="matrix(1 -.00000009 -.00000009 -1 1704.03 360.348)"/>
        <path d="m0 0h20.6717v20.6717h-20.6717z" fill="#fafbfc"
              transform="matrix(1 -.00000009 -.00000009 -1 1890.08 701.43)"/>
        <path d="m0 0h20.6717v20.6717h-20.6717z" fill="#f1f2f2"
              transform="matrix(1 -.00000009 -.00000009 -1 1890.08 949.49)"/>
        <path d="m0 0h20.6717v20.6717h-20.6717z" fill="#fafbfc"
              transform="matrix(1 -.00000009 -.00000009 -1 1890.08 577.399)"/>
        <path d="m0 0h20.6717v20.6717h-20.6717z" fill="#fafbfc"
              transform="matrix(1 -.00000009 -.00000009 -1 1890.08 639.414)"/>
        <path d="m0 0h20.6717v20.6717h-20.6717z" fill="#fafbfc"
              transform="matrix(1 -.00000009 -.00000009 -1 1641.08 1135.54)"/>
        <path d="m0 0h20.6717v20.6717h-20.6717z" fill="#fafbfc"
              transform="matrix(1 -.00000009 -.00000009 -1 1890.08 856.466)"/>
        <path d="m0 0h20.6717v20.6717h-20.6717z" fill="#fafbfc"
              transform="matrix(1 -.00000009 -.00000009 -1 1548.06 1166.55)"/>
        <path d="m0 0h20.6717v20.6717h-20.6717z" fill="#fafbfc"
              transform="matrix(1 -.00000009 -.00000009 -1 1797.06 639.414)"/>
        <path d="m0 0h20.6717v20.6717h-20.6717z" fill="#fafbfc"
              transform="matrix(1 -.00000009 -.00000009 -1 1797.06 763.444)"/>
        <path d="m0 0h20.6717v20.6717h-20.6717z" fill="#fafbfc"
              transform="matrix(1 -.00000009 -.00000009 -1 1797.06 670.422)"/>
        <path d="m0 0h20.6717v20.6717h-20.6717z" fill="#fafbfc"
              transform="matrix(1 -.00000009 -.00000009 -1 1548.06 1011.51)"/>
        <path d="m0 0h20.6717v20.6717h-20.6717z" fill="#fafbfc"
              transform="matrix(1 -.00000009 -.00000009 -1 1797.06 794.452)"/>
        <g filter="url(#e)">
            <path d="m0 0h20.6717v20.6717h-20.6717z" fill="url(#n)"
                  transform="matrix(1 -.00000009 -.00000009 -1 1579.06 1011.52)"/>
        </g>
        <path d="m0 0h20.6717v20.6717h-20.6717z" fill="#fafbfc"
              transform="matrix(1 -.00000009 -.00000009 -1 1548.06 1073.53)"/>
        <path d="m0 0h20.6717v20.6717h-20.6717z" fill="#fafbfc"
              transform="matrix(1 -.00000009 -.00000009 -1 1797.06 732.437)"/>
        <g filter="url(#f)">
            <path d="m1704.03 494.713h20.6717v20.6717h-20.6717z" fill="url(#o)"/>
        </g>
        <path d="m837.209 1207.85h20.6717v20.6717h-20.6717z" fill="#fafbfc"/>
        <path d="m744.186 1238.86h20.6717v20.6717h-20.6717z" fill="#f1f2f2"/>
        <path d="m837.209 1269.87h20.6717v20.6717h-20.6717z" fill="#fafbfc"/>
        <path d="m775.195 1300.88h20.6717v20.6717h-20.6717z" fill="#fafbfc"/>
        <path d="m775.195 1207.85h20.6717v20.6717h-20.6717z" fill="#fafbfc"/>
        <path d="m1053.19 1300.88h20.6717v20.6717h-20.6717z" fill="#fafbfc"/>
        <path d="m868.217 1207.85h20.6717v20.6717h-20.6717z" fill="#fafbfc"/>
        <path d="m0 0h20.6717v20.6717h-20.6717z" fill="#fafbfc"
              transform="matrix(1 -.00000009 -.00000009 -1 928.854 1259.53)"/>
        <path d="m0 0h20.6717v20.6717h-20.6717z" fill="#fafbfc"
              transform="matrix(1 -.00000009 -.00000009 -1 988.854 1313.53)"/>
    </g>
</svg>