<!--
  - /***
  -  ** █ ---------------------------------------------------------------------------------------------------------------------
  -  ** █ ░FRAMEWORK                                  2023-12-01 23:19:27
  -  ** █ ░█▀▀█ █▀▀█ █▀▀▄ █▀▀ ░█─░█ ─▀─ █▀▀▀ █▀▀▀ █▀▀ [App\Modules\Account\Views\Processes\Creator\deny.php]
  -  ** █ ░█─── █──█ █──█ █▀▀ ░█▀▀█ ▀█▀ █─▀█ █─▀█ ▀▀█ Copyright 2023 - CloudEngine S.A.S., Inc. <admin@cgine.com>
  -  ** █ ░█▄▄█ ▀▀▀▀ ▀▀▀─ ▀▀▀ ░█─░█ ▀▀▀ ▀▀▀▀ ▀▀▀▀ ▀▀▀ Para obtener información completa sobre derechos de autor y licencia,
  -  ** █                                             consulte la LICENCIA archivo que se distribuyó con este código fuente.
  -  ** █ ---------------------------------------------------------------------------------------------------------------------
  -  ** █ EL SOFTWARE SE PROPORCIONA -TAL CUAL-, SIN GARANTÍA DE NINGÚN TIPO, EXPRESA O
  -  ** █ IMPLÍCITA, INCLUYENDO PERO NO LIMITADO A LAS GARANTÍAS DE COMERCIABILIDAD,
  -  ** █ APTITUD PARA UN PROPÓSITO PARTICULAR Y NO INFRACCIÓN. EN NINGÚN CASO SERÁ
  -  ** █ LOS AUTORES O TITULARES DE LOS DERECHOS DE AUTOR SERÁN RESPONSABLES DE CUALQUIER
  -  ** █ RECLAMO, DAÑOS U OTROS RESPONSABILIDAD, YA SEA EN UNA ACCIÓN DE CONTRATO,
  -  ** █ AGRAVIO O DE OTRO MODO, QUE SURJA DESDE, FUERA O EN RELACIÓN CON EL SOFTWARE
  -  ** █ O EL USO U OTROS NEGOCIACIONES EN EL SOFTWARE.
  -  ** █ ---------------------------------------------------------------------------------------------------------------------
  -  ** █ @Author Jose Alexis Correa Valencia <jalexiscv@gmail.com>
  -  ** █ @link https://www.codehiggs.com
  -  ** █ @Version 1.5.0 @since PHP 7, PHP 8
  -  ** █ ---------------------------------------------------------------------------------------------------------------------
  -  ** █ Datos recibidos desde el controlador - @ModuleController
  -  ** █ ---------------------------------------------------------------------------------------------------------------------
  -  ** █ @authentication, @request, @dates, @parent, @component, @view, @oid, @views, @prefix
  -  ** █ ---------------------------------------------------------------------------------------------------------------------
  -  ***/
  -->

<svg width="52" height="52" fill="none" xmlns="http://www.w3.org/2000/svg">
    <path d="M46 0H6a6 6 0 00-6 6v40a6 6 0 006 6h40a6 6 0 006-6V6a6 6 0 00-6-6z" fill="#6FCFB8"/>
    <path fill-rule="evenodd" clip-rule="evenodd"
          d="M25.03 16.59a1.5 1.5 0 011.94 0l7.5 6.363a1.5 1.5 0 01.53 1.144V33.5a1.5 1.5 0 01-1.5 1.5h-5.75a.75.75 0 01-.75-.75V28h-2v6.25a.75.75 0 01-.75.75H18.5a1.5 1.5 0 01-1.5-1.5v-9.403c0-.44.194-.859.53-1.144l7.5-6.363zm.97 1.144l-7.5 6.363V33.5h5v-6.25a.75.75 0 01.75-.75h3.5a.75.75 0 01.75.75v6.25h5v-9.403L26 17.734z"
          fill="#fff" stroke="#fff" stroke-width=".5" stroke-linejoin="round"/>
</svg>