<!--
  - /***
  -  ** █ ---------------------------------------------------------------------------------------------------------------------
  -  ** █ ░FRAMEWORK                                  2023-12-01 23:19:27
  -  ** █ ░█▀▀█ █▀▀█ █▀▀▄ █▀▀ ░█─░█ ─▀─ █▀▀▀ █▀▀▀ █▀▀ [App\Modules\Account\Views\Processes\Creator\deny.php]
  -  ** █ ░█─── █──█ █──█ █▀▀ ░█▀▀█ ▀█▀ █─▀█ █─▀█ ▀▀█ Copyright 2023 - CloudEngine S.A.S., Inc. <admin@cgine.com>
  -  ** █ ░█▄▄█ ▀▀▀▀ ▀▀▀─ ▀▀▀ ░█─░█ ▀▀▀ ▀▀▀▀ ▀▀▀▀ ▀▀▀ Para obtener información completa sobre derechos de autor y licencia,
  -  ** █                                             consulte la LICENCIA archivo que se distribuyó con este código fuente.
  -  ** █ ---------------------------------------------------------------------------------------------------------------------
  -  ** █ EL SOFTWARE SE PROPORCIONA -TAL CUAL-, SIN GARANTÍA DE NINGÚN TIPO, EXPRESA O
  -  ** █ IMPLÍCITA, INCLUYENDO PERO NO LIMITADO A LAS GARANTÍAS DE COMERCIABILIDAD,
  -  ** █ APTITUD PARA UN PROPÓSITO PARTICULAR Y NO INFRACCIÓN. EN NINGÚN CASO SERÁ
  -  ** █ LOS AUTORES O TITULARES DE LOS DERECHOS DE AUTOR SERÁN RESPONSABLES DE CUALQUIER
  -  ** █ RECLAMO, DAÑOS U OTROS RESPONSABILIDAD, YA SEA EN UNA ACCIÓN DE CONTRATO,
  -  ** █ AGRAVIO O DE OTRO MODO, QUE SURJA DESDE, FUERA O EN RELACIÓN CON EL SOFTWARE
  -  ** █ O EL USO U OTROS NEGOCIACIONES EN EL SOFTWARE.
  -  ** █ ---------------------------------------------------------------------------------------------------------------------
  -  ** █ @Author Jose Alexis Correa Valencia <jalexiscv@gmail.com>
  -  ** █ @link https://www.codehiggs.com
  -  ** █ @Version 1.5.0 @since PHP 7, PHP 8
  -  ** █ ---------------------------------------------------------------------------------------------------------------------
  -  ** █ Datos recibidos desde el controlador - @ModuleController
  -  ** █ ---------------------------------------------------------------------------------------------------------------------
  -  ** █ @authentication, @request, @dates, @parent, @component, @view, @oid, @views, @prefix
  -  ** █ ---------------------------------------------------------------------------------------------------------------------
  -  ***/
  -->

<svg width="52" height="52" fill="none" xmlns="http://www.w3.org/2000/svg">
    <path d="M46 0H6a6 6 0 00-6 6v40a6 6 0 006 6h40a6 6 0 006-6V6a6 6 0 00-6-6z" fill="#6FCFB8"/>
    <path fill-rule="evenodd" clip-rule="evenodd"
          d="M20.736 18c-2.079 0-4.236 1.88-4.236 4.514 0 3.107 2.324 5.96 4.861 8.12a29.661 29.661 0 004.566 3.175l.073.041.073-.04c.271-.153.661-.38 1.13-.674.94-.588 2.19-1.441 3.436-2.502 2.537-2.16 4.861-5.013 4.861-8.12C35.5 19.88 33.343 18 31.264 18c-2.106 0-3.801 1.389-4.552 3.643a.75.75 0 01-1.424 0C24.538 19.389 22.842 18 20.736 18zM26 34.703l.343.667a.75.75 0 01-.686 0l.343-.667zm-11-12.19c0-3.461 2.829-6.013 5.736-6.013 2.294 0 4.145 1.226 5.264 3.105 1.12-1.879 2.97-3.105 5.264-3.105C34.17 16.5 37 19.052 37 22.514c0 3.818-2.801 7.06-5.389 9.262a31.146 31.146 0 01-5.233 3.576l-.025.013-.007.003-.002.001-.344-.666-.343.667-.003-.002-.007-.003-.025-.013A29.308 29.308 0 0124 34.408a31.146 31.146 0 01-3.611-2.632C17.8 29.573 15 26.332 15 22.514z"
          fill="#fff"/>
    <path d="M26 34.703l.343.667a.75.75 0 01-.686 0m.343-.667l-.343.667m.343-.667c.343.667.343.666.344.666h.002l.007-.004.025-.013.091-.05c.08-.041.194-.104.339-.185a31.146 31.146 0 004.803-3.34C34.2 29.573 37 26.331 37 22.513c0-3.462-2.829-6.014-5.736-6.014-2.294 0-4.145 1.226-5.264 3.105-1.12-1.879-2.97-3.105-5.264-3.105C17.83 16.5 15 19.052 15 22.514c0 3.818 2.801 7.06 5.389 9.262a31.146 31.146 0 005.233 3.576l.025.013.007.003.003.002m.343-.667l-.343.667M16.5 22.514C16.5 19.88 18.657 18 20.736 18c2.106 0 3.801 1.389 4.552 3.643a.75.75 0 001.424 0c.75-2.254 2.446-3.643 4.552-3.643 2.079 0 4.236 1.88 4.236 4.514 0 3.107-2.324 5.96-4.861 8.12a29.661 29.661 0 01-4.566 3.175L26 33.85l-.073-.04a29.661 29.661 0 01-4.566-3.175c-2.537-2.161-4.861-5.014-4.861-8.122z"
          stroke="#fff" stroke-width=".5" stroke-linecap="round" stroke-linejoin="round"/>
</svg>