<!--
  - /***
  -  ** █ ---------------------------------------------------------------------------------------------------------------------
  -  ** █ ░FRAMEWORK                                  2023-12-01 23:19:27
  -  ** █ ░█▀▀█ █▀▀█ █▀▀▄ █▀▀ ░█─░█ ─▀─ █▀▀▀ █▀▀▀ █▀▀ [App\Modules\Account\Views\Processes\Creator\deny.php]
  -  ** █ ░█─── █──█ █──█ █▀▀ ░█▀▀█ ▀█▀ █─▀█ █─▀█ ▀▀█ Copyright 2023 - CloudEngine S.A.S., Inc. <admin@cgine.com>
  -  ** █ ░█▄▄█ ▀▀▀▀ ▀▀▀─ ▀▀▀ ░█─░█ ▀▀▀ ▀▀▀▀ ▀▀▀▀ ▀▀▀ Para obtener información completa sobre derechos de autor y licencia,
  -  ** █                                             consulte la LICENCIA archivo que se distribuyó con este código fuente.
  -  ** █ ---------------------------------------------------------------------------------------------------------------------
  -  ** █ EL SOFTWARE SE PROPORCIONA -TAL CUAL-, SIN GARANTÍA DE NINGÚN TIPO, EXPRESA O
  -  ** █ IMPLÍCITA, INCLUYENDO PERO NO LIMITADO A LAS GARANTÍAS DE COMERCIABILIDAD,
  -  ** █ APTITUD PARA UN PROPÓSITO PARTICULAR Y NO INFRACCIÓN. EN NINGÚN CASO SERÁ
  -  ** █ LOS AUTORES O TITULARES DE LOS DERECHOS DE AUTOR SERÁN RESPONSABLES DE CUALQUIER
  -  ** █ RECLAMO, DAÑOS U OTROS RESPONSABILIDAD, YA SEA EN UNA ACCIÓN DE CONTRATO,
  -  ** █ AGRAVIO O DE OTRO MODO, QUE SURJA DESDE, FUERA O EN RELACIÓN CON EL SOFTWARE
  -  ** █ O EL USO U OTROS NEGOCIACIONES EN EL SOFTWARE.
  -  ** █ ---------------------------------------------------------------------------------------------------------------------
  -  ** █ @Author Jose Alexis Correa Valencia <jalexiscv@gmail.com>
  -  ** █ @link https://www.codehiggs.com
  -  ** █ @Version 1.5.0 @since PHP 7, PHP 8
  -  ** █ ---------------------------------------------------------------------------------------------------------------------
  -  ** █ Datos recibidos desde el controlador - @ModuleController
  -  ** █ ---------------------------------------------------------------------------------------------------------------------
  -  ** █ @authentication, @request, @dates, @parent, @component, @view, @oid, @views, @prefix
  -  ** █ ---------------------------------------------------------------------------------------------------------------------
  -  ***/
  -->

<svg fill="none" height="52" width="52" xmlns="http://www.w3.org/2000/svg">
    <path d="m46 0h-40a6 6 0 0 0 -6 6v40a6 6 0 0 0 6 6h40a6 6 0 0 0 6-6v-40a6 6 0 0 0 -6-6z" fill="#6fcfb8"/>
    <g fill="#fff">
        <path clip-rule="evenodd"
              d="m18.75 16a.75.75 0 1 0 0 1.5h.5v.75h-1.25c-.753 0-1.463.312-1.919.852a2.011 2.011 0 0 0 -.313 2.123c.35.828.877 1.687 1.568 2.351.524.504 1.169.918 1.916 1.09.032.853.559 1.638 1.13 2.268.616.677 1.416 1.316 2.186 1.86a27.462 27.462 0 0 0 2.682 1.657v3.799h-4.25a.75.75 0 1 0 0 1.5h10a.75.75 0 0 0 0-1.5h-4.25v-3.799a28.959 28.959 0 0 0 2.682-1.658c.77-.543 1.57-1.182 2.186-1.86.572-.629 1.099-1.414 1.13-2.268.747-.171 1.392-.585 1.916-1.089.691-.664 1.219-1.523 1.568-2.35.33-.784.159-1.565-.313-2.124-.456-.54-1.166-.852-1.919-.852h-1.25v-.75h.5a.75.75 0 0 0 0-1.5zm2 8.583v-7.083h10.5v7.083c0 .3-.208.754-.742 1.342-.51.56-1.21 1.128-1.94 1.642a25.942 25.942 0 0 1 -2.568 1.584 25.923 25.923 0 0 1 -2.568-1.584c-.73-.514-1.43-1.081-1.94-1.642-.534-.588-.742-1.043-.742-1.342zm-2.75-4.833h1.25v3.343a2.912 2.912 0 0 1 -.875-.599c-.51-.49-.935-1.164-1.224-1.851-.1-.235-.052-.421.077-.574.146-.173.42-.319.772-.319zm15.625 2.744c-.28.27-.574.472-.875.6v-3.344h1.25c.351 0 .627.146.772.32.13.152.177.338.078.573-.29.687-.714 1.36-1.225 1.851z"
              fill-rule="evenodd"/>
        <path d="m19.25 17.5h.25v-.25h-.25zm0 .75v.25h.25v-.25zm-3.169.852.192.16zm-.313 2.123-.23.098zm1.568 2.351-.173.18zm1.916 1.09.25-.01-.008-.192-.186-.042-.056.243zm1.13 2.268.186-.168-.185.168zm2.186 1.86-.144.203.144-.204zm2.121 1.343-.124.217.124-.216zm.561.314h.25v-.149l-.13-.07zm0 3.799v.25h.25v-.25zm1.5 0h-.25v.25h.25zm0-3.799-.12-.22-.13.071v.149zm.56-.314.125.217-.124-.216zm2.122-1.344-.144-.204zm2.186-1.86.184.169-.184-.168zm1.13-2.268-.055-.243-.187.042-.007.192.25.01zm1.916-1.089.174.18zm1.568-2.35.23.097-.23-.098zm-.313-2.124-.191.16.19-.16zm-3.169-.852h-.25v.25h.25zm0-.75v-.25h-.25v.25zm-12 0v-.25h-.25v.25zm0 7.083h.25zm10.5-7.083h.25v-.25h-.25zm0 7.083h-.25zm-.742 1.342.184.168zm-1.94 1.642-.144-.204zm-2.004 1.27.125.216-.125-.217zm-.564.313-.12.22.12.065.12-.065zm-.564-.315-.125.217zm-2.004-1.269.145-.204zm-1.94-1.642-.184.168.185-.168zm-2.242-6.174h.25v-.25h-.25zm0 3.343-.097.23.347.147v-.377zm-.875-.599.173-.18zm-1.224-1.851.23-.097zm.077-.574-.191-.161.19.161zm15.522 3.024h-.25v.377l.347-.146-.097-.23zm.875-.599.173.18zm-.875-2.744v-.25h-.25v.25zm2.022.32.191-.162-.19.161zm.078.573-.23-.097zm-16.6-3.893a.5.5 0 0 1 .5-.5v-.5a1 1 0 0 0 -1 1zm.5.5a.5.5 0 0 1 -.5-.5h-.5a1 1 0 0 0 1 1zm.5 0h-.5v.5h.5zm.25 1v-.75h-.5v.75zm-1.5.25h1.25v-.5h-1.25zm-1.727.763c.403-.479 1.04-.763 1.727-.763v-.5c-.82 0-1.602.34-2.11.94zm-.274 1.865a1.762 1.762 0 0 1 .274-1.865l-.383-.323a2.261 2.261 0 0 0 -.352 2.383l.46-.195zm1.51 2.268c-.66-.635-1.171-1.463-1.51-2.268l-.461.195c.359.85.904 1.74 1.625 2.433zm1.799 1.026c-.692-.16-1.298-.545-1.8-1.026l-.345.36c.547.526 1.23.969 2.033 1.153l.111-.487zm1.26 2.344c-.563-.62-1.038-1.348-1.067-2.11l-.5.019c.036.946.615 1.787 1.197 2.427zm2.144 1.823c-.763-.538-1.547-1.166-2.144-1.823l-.37.336c.632.696 1.449 1.348 2.226 1.895zm2.102 1.332a27.176 27.176 0 0 1 -2.102-1.332l-.288.409a27.694 27.694 0 0 0 2.141 1.356zm.556.31a28.33 28.33 0 0 1 -.556-.31l-.249.433c.22.126.411.233.566.317zm.13 4.019v-3.799h-.5v3.799zm-4.5.25h4.25v-.5h-4.25zm-.5.5a.5.5 0 0 1 .5-.5v-.5a1 1 0 0 0 -1 1zm.5.5a.5.5 0 0 1 -.5-.5h-.5a1 1 0 0 0 1 1zm10 0h-10v.5h10zm.5-.5a.5.5 0 0 1 -.5.5v.5a1 1 0 0 0 1-1zm-.5-.5a.5.5 0 0 1 .5.5h.5a1 1 0 0 0 -1-1zm-4.25 0h4.25v-.5h-4.25zm-.25-4.049v3.799h.5v-3.799zm.686-.53c-.215.123-.404.228-.555.31l.239.44c.154-.084.346-.191.565-.317zm2.102-1.332c-.767.54-1.53 1.004-2.102 1.332l.25.433c.579-.332 1.357-.804 2.14-1.357zm2.145-1.823c-.598.657-1.381 1.285-2.145 1.823l.288.409c.777-.548 1.594-1.2 2.226-1.896l-.37-.336zm1.066-2.11c-.029.762-.504 1.49-1.067 2.11l.37.336c.582-.64 1.16-1.481 1.196-2.427l-.5-.02zm1.992-1.26c-.501.481-1.107.867-1.798 1.026l.111.487c.802-.184 1.486-.627 2.034-1.153zm1.51-2.268c-.339.805-.85 1.633-1.51 2.268l.347.36c.72-.692 1.265-1.582 1.624-2.433l-.46-.195zm-.273-1.865c.415.492.565 1.174.273 1.865l.461.195a2.261 2.261 0 0 0 -.352-2.383zm-1.728-.763c.687 0 1.324.284 1.728.763l.382-.323c-.508-.6-1.29-.94-2.11-.94zm-1.25 0h1.25v-.5h-1.25zm-.25-1v.75h.5v-.75zm.75-.25h-.5v.5h.5zm.5-.5a.5.5 0 0 1 -.5.5v.5a1 1 0 0 0 1-1zm-.5-.5a.5.5 0 0 1 .5.5h.5a1 1 0 0 0 -1-1zm-14.5 0h14.5v-.5h-14.5zm1.75 1.25v7.083h.5v-7.083zm10.75-.25h-10.5v.5h10.5zm.25 7.333v-7.083h-.5v7.083zm-.808 1.51c.544-.598.808-1.113.808-1.51h-.5c0 .202-.152.596-.677 1.174l.37.336zm-1.98 1.679c.736-.52 1.453-1.099 1.98-1.679l-.37-.336c-.492.541-1.175 1.096-1.898 1.606zm-2.023 1.281c.554-.318 1.29-.764 2.023-1.281l-.288-.409a25.74 25.74 0 0 1 -1.984 1.256zm-.57.318c.151-.082.345-.189.57-.318l-.249-.434c-.22.127-.411.233-.56.313l.24.44zm-.808-.318c.225.129.419.236.57.318l.238-.44c-.148-.08-.338-.185-.559-.312zm-2.023-1.281c.733.517 1.47.963 2.023 1.281l.25-.434a25.702 25.702 0 0 1 -1.985-1.256zm-1.98-1.679c.527.58 1.244 1.16 1.98 1.679l.288-.409c-.723-.51-1.406-1.065-1.898-1.606zm-.808-1.51c0 .397.264.912.808 1.51l.37-.336c-.526-.578-.678-.972-.678-1.174zm-1.25-5.083h-1.25v.5h1.25zm.25 3.593v-3.343h-.5v3.343zm-1.298-.418c.298.286.616.507.951.648l.194-.46a2.664 2.664 0 0 1 -.799-.549l-.346.36zm-1.282-1.935c.3.71.741 1.415 1.282 1.935l.346-.361c-.48-.462-.887-1.105-1.167-1.768l-.46.194zm.117-.832a.777.777 0 0 0 -.18.377.82.82 0 0 0 .063.455l.46-.194a.323.323 0 0 1 -.03-.18.278.278 0 0 1 .069-.136zm.963-.408c-.419 0-.766.174-.963.408l.382.322c.094-.111.297-.23.581-.23zm14.847 3.823a3.16 3.16 0 0 0 .951-.648l-.346-.361a2.667 2.667 0 0 1 -.799.549zm-.347-3.573v3.343h.5v-3.343zm1.5-.25h-1.25v.5h1.25zm.963.408c-.197-.234-.544-.408-.963-.408v.5c.284 0 .487.119.581.23zm.117.832a.82.82 0 0 0 .063-.455.776.776 0 0 0 -.18-.377l-.382.322a.28.28 0 0 1 .069.136.325.325 0 0 1 -.03.18zm-1.282 1.935c.541-.52.982-1.224 1.282-1.935l-.46-.194c-.28.663-.688 1.306-1.168 1.768l.346.36z"/>
    </g>
</svg>