<!--
  - /***
  -  ** █ ---------------------------------------------------------------------------------------------------------------------
  -  ** █ ░FRAMEWORK                                  2023-12-01 23:19:27
  -  ** █ ░█▀▀█ █▀▀█ █▀▀▄ █▀▀ ░█─░█ ─▀─ █▀▀▀ █▀▀▀ █▀▀ [App\Modules\Account\Views\Processes\Creator\deny.php]
  -  ** █ ░█─── █──█ █──█ █▀▀ ░█▀▀█ ▀█▀ █─▀█ █─▀█ ▀▀█ Copyright 2023 - CloudEngine S.A.S., Inc. <admin@cgine.com>
  -  ** █ ░█▄▄█ ▀▀▀▀ ▀▀▀─ ▀▀▀ ░█─░█ ▀▀▀ ▀▀▀▀ ▀▀▀▀ ▀▀▀ Para obtener información completa sobre derechos de autor y licencia,
  -  ** █                                             consulte la LICENCIA archivo que se distribuyó con este código fuente.
  -  ** █ ---------------------------------------------------------------------------------------------------------------------
  -  ** █ EL SOFTWARE SE PROPORCIONA -TAL CUAL-, SIN GARANTÍA DE NINGÚN TIPO, EXPRESA O
  -  ** █ IMPLÍCITA, INCLUYENDO PERO NO LIMITADO A LAS GARANTÍAS DE COMERCIABILIDAD,
  -  ** █ APTITUD PARA UN PROPÓSITO PARTICULAR Y NO INFRACCIÓN. EN NINGÚN CASO SERÁ
  -  ** █ LOS AUTORES O TITULARES DE LOS DERECHOS DE AUTOR SERÁN RESPONSABLES DE CUALQUIER
  -  ** █ RECLAMO, DAÑOS U OTROS RESPONSABILIDAD, YA SEA EN UNA ACCIÓN DE CONTRATO,
  -  ** █ AGRAVIO O DE OTRO MODO, QUE SURJA DESDE, FUERA O EN RELACIÓN CON EL SOFTWARE
  -  ** █ O EL USO U OTROS NEGOCIACIONES EN EL SOFTWARE.
  -  ** █ ---------------------------------------------------------------------------------------------------------------------
  -  ** █ @Author Jose Alexis Correa Valencia <jalexiscv@gmail.com>
  -  ** █ @link https://www.codehiggs.com
  -  ** █ @Version 1.5.0 @since PHP 7, PHP 8
  -  ** █ ---------------------------------------------------------------------------------------------------------------------
  -  ** █ Datos recibidos desde el controlador - @ModuleController
  -  ** █ ---------------------------------------------------------------------------------------------------------------------
  -  ** █ @authentication, @request, @dates, @parent, @component, @view, @oid, @views, @prefix
  -  ** █ ---------------------------------------------------------------------------------------------------------------------
  -  ***/
  -->

<svg width="52" height="52" fill="none" xmlns="http://www.w3.org/2000/svg">
    <path d="M46 0H6a6 6 0 00-6 6v40a6 6 0 006 6h40a6 6 0 006-6V6a6 6 0 00-6-6z" fill="#6FCFB8"/>
    <path fill-rule="evenodd" clip-rule="evenodd"
          d="M17 17a2 2 0 012-2h9.982a2 2 0 011.414.586l4.018 4.018A2 2 0 0135 21.018V35a2 2 0 01-2 2H18.75a.75.75 0 010-1.5H33a.5.5 0 00.5-.5V22.5h-4a2 2 0 01-2-2v-4H19a.5.5 0 00-.5.5v6.25a.75.75 0 01-1.5 0V17zm12-.5v4a.5.5 0 00.5.5h4a.5.5 0 00-.146-.336l-4.018-4.018A.5.5 0 0029 16.5z"
          fill="#fff"/>
    <path d="M18.53 26.24a.75.75 0 01-.039 1.06l-2.639 2.45 2.64 2.45a.75.75 0 01-1.022 1.1l-3.23-3a.75.75 0 010-1.1l3.23-3a.75.75 0 011.06.04zM22.509 27.3a.75.75 0 011.02-1.1l3.231 3a.75.75 0 010 1.1l-3.23 3a.75.75 0 11-1.021-1.1l2.639-2.45-2.64-2.45z"
          fill="#fff"/>
    <path clip-rule="evenodd"
          d="M17 17a2 2 0 012-2h9.982a2 2 0 011.414.586l4.018 4.018A2 2 0 0135 21.018V35a2 2 0 01-2 2H18.75a.75.75 0 010-1.5H33a.5.5 0 00.5-.5V22.5h-4a2 2 0 01-2-2v-4H19a.5.5 0 00-.5.5v6.25a.75.75 0 01-1.5 0V17zm12-.5v4a.5.5 0 00.5.5h4a.5.5 0 00-.146-.336l-4.018-4.018A.5.5 0 0029 16.5z"
          stroke="#fff" stroke-width=".5" stroke-linecap="round" stroke-linejoin="round"/>
    <path d="M18.53 26.24a.75.75 0 01-.039 1.06l-2.639 2.45 2.64 2.45a.75.75 0 01-1.022 1.1l-3.23-3a.75.75 0 010-1.1l3.23-3a.75.75 0 011.06.04zM22.509 27.3a.75.75 0 011.02-1.1l3.231 3a.75.75 0 010 1.1l-3.23 3a.75.75 0 11-1.021-1.1l2.639-2.45-2.64-2.45z"
          stroke="#fff" stroke-width=".5" stroke-linecap="round" stroke-linejoin="round"/>
</svg>